<svg width="64" height="64" viewBox="0 0 64 64" fill="none" xmlns="http://www.w3.org/2000/svg">
<path d="M61.9916 0H2C0.895431 0 0 0.895431 0 2V62C0 63.1046 0.895431 64 2 64H61.9916C63.0962 64 63.9916 63.1046 63.9916 62V2C63.9916 0.895431 63.0962 0 61.9916 0Z" fill="url(#paint0_linear)"/>
<path d="M60.7911 1H3C1.89543 1 1 1.89543 1 3V60.7967C1 61.9013 1.89543 62.7967 3 62.7967H60.7911C61.8957 62.7967 62.7911 61.9013 62.7911 60.7967V3C62.7911 1.89543 61.8957 1 60.7911 1Z" fill="url(#paint1_linear)"/>
<ellipse cx="31.5" cy="11.1317" rx="2.05625" ry="2.05454" fill="url(#paint2_linear)"/>
<path d="M32.6715 10.5967C32.6849 10.8007 32.5778 11.0641 32.4746 11.2638C32.4536 10.7178 32.6008 9.78311 31.928 9.1543C31.928 9.1543 32.2548 9.91694 31.7158 10.431C31.7158 10.431 31.4711 10.6498 31.2876 11.011C31.2379 10.7858 31.085 10.5245 30.7218 10.2738C30.7218 10.2738 31.1022 11.028 30.7524 11.4699C30.7524 11.4699 30.8939 11.011 30.5135 10.7646C30.5135 10.7646 30.6664 11.0577 30.4657 11.5527C30.4657 11.5527 29.9764 12.7232 31.5705 13.1863C33.222 12.6383 32.6715 10.5967 32.6715 10.5967Z" fill="#F15A24"/>
<path d="M29.6908 10.6996C29.6767 10.8853 29.7896 11.1252 29.8984 11.3071C29.9206 10.8099 29.7654 9.95848 30.4748 9.38574C30.4748 9.38574 30.1302 10.0804 30.6985 10.5486C30.6985 10.5486 30.9565 10.7479 31.1499 11.0769C31.2023 10.8718 31.3636 10.6338 31.7465 10.4055C31.7465 10.4055 31.3454 11.0924 31.7142 11.4948C31.7142 11.4948 31.5651 11.0769 31.9662 10.8524C31.9662 10.8524 31.8049 11.1194 32.0165 11.5703C32.0165 11.5703 32.5325 12.6364 30.8517 13.0582C29.1104 12.559 29.6908 10.6996 29.6908 10.6996Z" fill="url(#paint3_linear)"/>
<path d="M33.3273 10.6662C33.3426 10.8545 33.2204 11.0978 33.1026 11.2822C33.0786 10.778 33.2466 9.91473 32.4787 9.33398C32.4787 9.33398 32.8517 10.0383 32.2365 10.5131C32.2365 10.5131 31.9573 10.7152 31.7479 11.0488C31.6912 10.8408 31.5166 10.5995 31.1021 10.368C31.1021 10.368 31.5363 11.0645 31.137 11.4726C31.137 11.4726 31.2985 11.0488 30.8644 10.8212C30.8644 10.8212 31.0389 11.0919 30.8098 11.5491C30.8098 11.5491 30.2513 12.6301 32.0707 13.0578C33.9556 12.5517 33.3273 10.6662 33.3273 10.6662Z" fill="url(#paint4_linear)"/>
<path d="M30.5369 11.2907C30.632 10.7119 30.5985 9.68884 31.4202 9.11088C31.4202 9.11088 30.9603 9.879 31.4797 10.5049C31.4797 10.5049 31.7203 10.7703 31.8754 11.1816C31.961 10.9452 32.1666 10.6877 32.5964 10.4705C32.5964 10.4705 32.0767 11.225 32.4022 11.7482C32.4022 11.7482 32.3101 11.2363 32.7611 11.0277C32.7611 11.0277 32.551 11.3208 32.7102 11.8774C32.7102 11.8774 32.8188 12.2588 32.6408 12.6524C32.2552 12.7848 31.8176 12.8865 31.3155 12.9681C30.9349 12.7937 30.6084 12.5898 30.3171 12.3724C30.0782 11.5164 30.4071 10.545 30.4071 10.545C30.3685 10.7632 30.4482 11.0626 30.5369 11.2907Z" fill="url(#paint5_linear)"/>
<path d="M30.2412 11.6123C30.2615 11.1413 30.1256 10.3394 30.7471 9.79688C30.7471 9.79688 30.4436 10.4527 30.9436 10.8968C30.9436 10.8968 31.1691 11.0846 31.3396 11.3946C31.3858 11.2009 31.5275 10.9743 31.8656 10.7597C31.8656 10.7597 31.513 11.4096 31.8367 11.7881C31.8367 11.7881 31.7067 11.3917 32.0593 11.18C32.0593 11.18 31.9177 11.4304 32.1026 11.8597C32.1026 11.8597 32.3281 12.3575 31.9437 12.7927C31.7124 12.9239 31.4263 13.0401 31.0708 13.1355C30.7991 13.052 30.5679 12.9447 30.3713 12.8165C29.825 12.1399 30.0591 11.034 30.0591 11.034C30.0447 11.2128 30.1459 11.4394 30.2412 11.6123Z" fill="url(#paint6_linear)"/>
<path d="M32.6561 11.4385C32.6359 10.9059 32.7717 9.99922 32.1503 9.38574C32.1503 9.38574 32.4538 10.1273 31.9537 10.6295C31.9537 10.6295 31.7283 10.8419 31.5578 11.1925C31.5115 10.9734 31.3699 10.7172 31.0317 10.4745C31.0317 10.4745 31.3843 11.2093 31.0606 11.6374C31.0606 11.6374 31.1907 11.1891 30.8381 10.9498C30.8381 10.9498 30.9797 11.2329 30.7947 11.7183C30.7947 11.7183 30.5692 12.2812 30.9537 12.7733C31.1849 12.9216 31.471 13.0531 31.8266 13.161C32.0983 13.0666 32.3295 12.9452 32.526 12.8003C33.0723 12.0351 32.8382 10.7846 32.8382 10.7846C32.8526 10.9868 32.7515 11.243 32.6561 11.4385Z" fill="url(#paint7_linear)"/>
<path d="M32.1518 11.4831C32.0135 11.0324 31.943 10.2221 31.2048 9.85341C31.2048 9.85341 31.6638 10.4117 31.2918 10.9674C31.2918 10.9674 31.1209 11.2058 31.034 11.5488C30.9404 11.3729 30.7463 11.1893 30.3649 11.0666C30.3649 11.0666 30.8699 11.6068 30.652 12.0546C30.652 12.0546 30.678 11.6382 30.2834 11.5221C30.2834 11.5221 30.4836 11.7288 30.4127 12.1908C30.4127 12.1908 30.3199 12.7293 30.8016 13.0538C31.0585 13.1225 31.3647 13.1631 31.7328 13.1659C31.9747 13.0168 32.1714 12.8548 32.3294 12.6813C32.6875 11.889 32.1823 10.8776 32.1823 10.8776C32.2414 11.0471 32.2005 11.2918 32.1518 11.4831Z" fill="url(#paint8_linear)"/>
<ellipse cx="31.5" cy="53.6903" rx="2.05625" ry="2.05454" fill="url(#paint9_linear)"/>
<path d="M32.6714 53.1553C32.6848 53.3593 32.5777 53.6227 32.4745 53.8224C32.4535 53.2764 32.6007 52.3417 31.9278 51.7129C31.9278 51.7129 32.2547 52.4755 31.7157 52.9896C31.7157 52.9896 31.471 53.2084 31.2875 53.5696C31.2378 53.3444 31.0849 53.0831 30.7217 52.8324C30.7217 52.8324 31.1021 53.5866 30.7523 54.0284C30.7523 54.0284 30.8937 53.5696 30.5134 53.3232C30.5134 53.3232 30.6663 53.6163 30.4656 54.1113C30.4656 54.1113 29.9762 55.2818 31.5704 55.7449C33.2219 55.1968 32.6714 53.1553 32.6714 53.1553Z" fill="#F15A24"/>
<path d="M29.6908 53.2582C29.6767 53.4439 29.7896 53.6838 29.8984 53.8657C29.9206 53.3684 29.7654 52.5171 30.4748 51.9443C30.4748 51.9443 30.1302 52.639 30.6985 53.1072C30.6985 53.1072 30.9565 53.3065 31.1499 53.6355C31.2023 53.4304 31.3636 53.1924 31.7465 52.964C31.7465 52.964 31.3454 53.6509 31.7142 54.0534C31.7142 54.0534 31.5651 53.6355 31.9662 53.411C31.9662 53.411 31.8049 53.678 32.0165 54.1289C32.0165 54.1289 32.5325 55.195 30.8517 55.6168C29.1104 55.1176 29.6908 53.2582 29.6908 53.2582Z" fill="url(#paint10_linear)"/>
<path d="M33.3272 53.2248C33.3425 53.4131 33.2203 53.6564 33.1025 53.8408C33.0785 53.3366 33.2465 52.4733 32.4786 51.8926C32.4786 51.8926 32.8516 52.5969 32.2364 53.0717C32.2364 53.0717 31.9572 53.2738 31.7478 53.6074C31.691 53.3994 31.5165 53.1581 31.102 52.9265C31.102 52.9265 31.5361 53.6231 31.1369 54.0311C31.1369 54.0311 31.2984 53.6074 30.8642 53.3798C30.8642 53.3798 31.0388 53.6505 30.8097 54.1077C30.8097 54.1077 30.2512 55.1887 32.0706 55.6164C33.9555 55.1102 33.3272 53.2248 33.3272 53.2248Z" fill="url(#paint11_linear)"/>
<path d="M30.5368 53.8493C30.6319 53.2705 30.5984 52.2474 31.42 51.6695C31.42 51.6695 30.9602 52.4376 31.4796 53.0635C31.4796 53.0635 31.7201 53.3289 31.8752 53.7402C31.9609 53.5038 32.1665 53.2463 32.5963 53.029C32.5963 53.029 32.0766 53.7836 32.4021 54.3068C32.4021 54.3068 32.31 53.7949 32.761 53.5863C32.761 53.5863 32.5509 53.8794 32.7101 54.436C32.7101 54.436 32.8187 54.8174 32.6406 55.211C32.2551 55.3434 31.8175 55.4451 31.3153 55.5267C30.9348 55.3523 30.6083 55.1484 30.317 54.931C30.078 54.075 30.4069 53.1036 30.4069 53.1036C30.3683 53.3218 30.4481 53.6212 30.5368 53.8493Z" fill="url(#paint12_linear)"/>
<path d="M30.2411 54.1709C30.2613 53.6999 30.1255 52.898 30.7469 52.3555C30.7469 52.3555 30.4434 53.0113 30.9435 53.4554C30.9435 53.4554 31.1689 53.6432 31.3395 53.9532C31.3857 53.7595 31.5273 53.5329 31.8655 53.3183C31.8655 53.3183 31.5129 53.9681 31.8366 54.3467C31.8366 54.3467 31.7065 53.9503 32.0592 53.7386C32.0592 53.7386 31.9175 53.989 32.1025 54.4183C32.1025 54.4183 32.328 54.9161 31.9436 55.3513C31.7123 55.4825 31.4262 55.5987 31.0707 55.6941C30.799 55.6106 30.5677 55.5033 30.3712 55.3751C29.8249 54.6985 30.059 53.5926 30.059 53.5926C30.0446 53.7714 30.1457 53.998 30.2411 54.1709Z" fill="url(#paint13_linear)"/>
<path d="M32.656 53.9971C32.6357 53.4645 32.7716 52.5578 32.1502 51.9443C32.1502 51.9443 32.4537 52.6859 31.9536 53.1881C31.9536 53.1881 31.7282 53.4005 31.5576 53.7511C31.5114 53.532 31.3698 53.2758 31.0316 53.0331C31.0316 53.0331 31.3842 53.7679 31.0605 54.196C31.0605 54.196 31.1906 53.7477 30.8379 53.5084C30.8379 53.5084 30.9796 53.7915 30.7946 54.2769C30.7946 54.2769 30.5691 54.8398 30.9535 55.3319C31.1848 55.4802 31.4709 55.6117 31.8264 55.7196C32.0981 55.6252 32.3294 55.5038 32.5259 55.3589C33.0722 54.5937 32.8381 53.3432 32.8381 53.3432C32.8525 53.5454 32.7514 53.8016 32.656 53.9971Z" fill="url(#paint14_linear)"/>
<path d="M32.1517 54.0417C32.0134 53.5909 31.9428 52.7807 31.2047 52.412C31.2047 52.412 31.6637 52.9703 31.2917 53.526C31.2917 53.526 31.1208 53.7644 31.0339 54.1074C30.9403 53.9315 30.7461 53.7479 30.3648 53.6252C30.3648 53.6252 30.8698 54.1654 30.6519 54.6132C30.6519 54.6132 30.6779 54.1968 30.2833 54.0807C30.2833 54.0807 30.4834 54.2874 30.4126 54.7494C30.4126 54.7494 30.3198 55.2879 30.8015 55.6123C31.0583 55.6811 31.3646 55.7216 31.7327 55.7245C31.9746 55.5754 32.1713 55.4134 32.3292 55.2399C32.6874 54.4476 32.1822 53.4362 32.1822 53.4362C32.2412 53.6057 32.2004 53.8504 32.1517 54.0417Z" fill="url(#paint15_linear)"/>
<ellipse cx="52.9437" cy="32.2635" rx="2.05625" ry="2.05454" fill="url(#paint16_linear)"/>
<path d="M54.1151 31.7286C54.1285 31.9325 54.0215 32.1959 53.9182 32.3956C53.8972 31.8497 54.0444 30.9149 53.3716 30.2861C53.3716 30.2861 53.6984 31.0488 53.1594 31.5629C53.1594 31.5629 52.9147 31.7817 52.7312 32.1428C52.6815 31.9176 52.5286 31.6563 52.1654 31.4057C52.1654 31.4057 52.5458 32.1598 52.196 32.6017C52.196 32.6017 52.3375 32.1428 51.9571 31.8964C51.9571 31.8964 52.11 32.1896 51.9093 32.6845C51.9093 32.6845 51.42 33.8551 53.0141 34.3182C54.6656 33.7701 54.1151 31.7286 54.1151 31.7286Z" fill="#F15A24"/>
<path d="M51.1347 31.8314C51.1206 32.0171 51.2334 32.2571 51.3423 32.439C51.3644 31.9417 51.2093 31.0903 51.9187 30.5176C51.9187 30.5176 51.574 31.2122 52.1424 31.6805C52.1424 31.6805 52.4003 31.8798 52.5938 32.2087C52.6462 32.0036 52.8074 31.7656 53.1903 31.5373C53.1903 31.5373 52.7893 32.2242 53.1581 32.6267C53.1581 32.6267 53.0089 32.2087 53.41 31.9843C53.41 31.9843 53.2488 32.2513 53.4604 32.7021C53.4604 32.7021 53.9763 33.7683 52.2955 34.1901C50.5543 33.6909 51.1347 31.8314 51.1347 31.8314Z" fill="url(#paint17_linear)"/>
<path d="M54.7709 31.798C54.7862 31.9864 54.664 32.2297 54.5462 32.4141C54.5222 31.9098 54.6902 31.0466 53.9223 30.4658C53.9223 30.4658 54.2953 31.1702 53.6801 31.645C53.6801 31.645 53.4009 31.8471 53.1915 32.1806C53.1348 31.9726 52.9602 31.7313 52.5457 31.4998C52.5457 31.4998 52.9799 32.1963 52.5806 32.6044C52.5806 32.6044 52.7421 32.1806 52.308 31.953C52.308 31.953 52.4825 32.2238 52.2534 32.6809C52.2534 32.6809 51.6949 33.762 53.5143 34.1897C55.3992 33.6835 54.7709 31.798 54.7709 31.798Z" fill="url(#paint18_linear)"/>
<path d="M51.9806 32.4226C52.0758 31.8437 52.0422 30.8207 52.8639 30.2427C52.8639 30.2427 52.404 31.0108 52.9234 31.6368C52.9234 31.6368 53.164 31.9021 53.3191 32.3135C53.4047 32.0771 53.6103 31.8196 54.0401 31.6023C54.0401 31.6023 53.5205 32.3569 53.846 32.8801C53.846 32.8801 53.7538 32.3681 54.2048 32.1595C54.2048 32.1595 53.9947 32.4526 54.1539 33.0092C54.1539 33.0092 54.2625 33.3906 54.0845 33.7842C53.6989 33.9166 53.2613 34.0183 52.7592 34.0999C52.3787 33.9255 52.0521 33.7217 51.7609 33.5042C51.5219 32.6483 51.8508 31.6768 51.8508 31.6768C51.8122 31.895 51.8919 32.1944 51.9806 32.4226Z" fill="url(#paint19_linear)"/>
<path d="M51.685 32.7441C51.7052 32.2731 51.5693 31.4712 52.1908 30.9287C52.1908 30.9287 51.8873 31.5845 52.3873 32.0287C52.3873 32.0287 52.6128 32.2165 52.7833 32.5265C52.8296 32.3327 52.9712 32.1062 53.3094 31.8915C53.3094 31.8915 52.9567 32.5414 53.2805 32.92C53.2805 32.92 53.1504 32.5235 53.503 32.3119C53.503 32.3119 53.3614 32.5623 53.5464 32.9915C53.5464 32.9915 53.7718 33.4893 53.3874 33.9245C53.1562 34.0557 52.87 34.172 52.5145 34.2673C52.2428 34.1839 52.0116 34.0766 51.815 33.9484C51.2687 33.2717 51.5029 32.1658 51.5029 32.1658C51.4884 32.3446 51.5896 32.5712 51.685 32.7441Z" fill="url(#paint20_linear)"/>
<path d="M54.0997 32.5704C54.0795 32.0378 54.2153 31.1311 53.5939 30.5176C53.5939 30.5176 53.8974 31.2591 53.3973 31.7614C53.3973 31.7614 53.1719 31.9737 53.0014 32.3243C52.9551 32.1052 52.8135 31.849 52.4753 31.6063C52.4753 31.6063 52.8279 32.3411 52.5042 32.7692C52.5042 32.7692 52.6343 32.3209 52.2817 32.0816C52.2817 32.0816 52.4233 32.3647 52.2383 32.8501C52.2383 32.8501 52.0128 33.413 52.3973 33.9052C52.6285 34.0535 52.9146 34.1849 53.2702 34.2928C53.5419 34.1984 53.7731 34.0771 53.9696 33.9321C54.5159 33.167 54.2818 31.9164 54.2818 31.9164C54.2963 32.1187 54.1951 32.3749 54.0997 32.5704Z" fill="url(#paint21_linear)"/>
<path d="M53.5955 32.6149C53.4573 32.1642 53.3867 31.354 52.6486 30.9852C52.6486 30.9852 53.1075 31.5436 52.7355 32.0992C52.7355 32.0992 52.5646 32.3377 52.4777 32.6806C52.3841 32.5047 52.19 32.3211 51.8086 32.1985C51.8086 32.1985 52.3136 32.7387 52.0957 33.1865C52.0957 33.1865 52.1217 32.7701 51.7271 32.6539C51.7271 32.6539 51.9273 32.8606 51.8564 33.3226C51.8564 33.3226 51.7637 33.8611 52.2454 34.1856C52.5022 34.2544 52.8084 34.2949 53.1765 34.2978C53.4184 34.1487 53.6152 33.9866 53.7731 33.8131C54.1313 33.0208 53.626 32.0094 53.626 32.0094C53.6851 32.1789 53.6443 32.4236 53.5955 32.6149Z" fill="url(#paint22_linear)"/>
<ellipse cx="51.7688" cy="38.7225" rx="2.05625" ry="2.05454" fill="url(#paint23_linear)"/>
<path d="M52.9402 38.1866C52.9536 38.3905 52.8465 38.6539 52.7433 38.8536C52.7223 38.3077 52.8695 37.373 52.1966 36.7441C52.1966 36.7441 52.5235 37.5068 51.9845 38.0209C51.9845 38.0209 51.7398 38.2397 51.5563 38.6008C51.5066 38.3757 51.3537 38.1144 50.9905 37.8637C50.9905 37.8637 51.3709 38.6178 51.0211 39.0597C51.0211 39.0597 51.1625 38.6008 50.7822 38.3544C50.7822 38.3544 50.9351 38.6476 50.7344 39.1425C50.7344 39.1425 50.245 40.3131 51.8392 40.7762C53.4907 40.2281 52.9402 38.1866 52.9402 38.1866Z" fill="#F15A24"/>
<path d="M49.9595 38.2894C49.9454 38.4752 50.0583 38.7151 50.1671 38.897C50.1893 38.3997 50.0341 37.5483 50.7435 36.9756C50.7435 36.9756 50.3989 37.6702 50.9672 38.1385C50.9672 38.1385 51.2252 38.3378 51.4186 38.6667C51.471 38.4616 51.6322 38.2236 52.0152 37.9953C52.0152 37.9953 51.6141 38.6822 51.9829 39.0847C51.9829 39.0847 51.8338 38.6667 52.2348 38.4423C52.2348 38.4423 52.0736 38.7093 52.2852 39.1601C52.2852 39.1601 52.8011 40.2263 51.1204 40.6481C49.3791 40.1489 49.9595 38.2894 49.9595 38.2894Z" fill="url(#paint24_linear)"/>
<path d="M53.596 38.257C53.6113 38.4453 53.4891 38.6886 53.3713 38.8731C53.3473 38.3688 53.5153 37.5056 52.7474 36.9248C52.7474 36.9248 53.1204 37.6292 52.5052 38.104C52.5052 38.104 52.226 38.306 52.0166 38.6396C51.9598 38.4316 51.7853 38.1903 51.3708 37.9588C51.3708 37.9588 51.8049 38.6553 51.4057 39.0634C51.4057 39.0634 51.5672 38.6396 51.133 38.412C51.133 38.412 51.3076 38.6827 51.0785 39.1399C51.0785 39.1399 50.52 40.221 52.3394 40.6487C54.2243 40.1425 53.596 38.257 53.596 38.257Z" fill="url(#paint25_linear)"/>
<path d="M50.8053 38.8808C50.9005 38.3019 50.8671 37.2789 51.6888 36.7009C51.6888 36.7009 51.2289 37.469 51.7482 38.0949C51.7482 38.0949 51.9888 38.3602 52.1438 38.7716C52.2295 38.5351 52.4351 38.2776 52.8649 38.0603C52.8649 38.0603 52.3452 38.8149 52.6707 39.3381C52.6707 39.3381 52.5785 38.8262 53.0296 38.6175C53.0296 38.6175 52.8195 38.9107 52.9786 39.4672C52.9786 39.4672 53.0872 39.8486 52.9091 40.2422C52.5235 40.3746 52.0859 40.4764 51.5837 40.558C51.2032 40.3836 50.8767 40.1799 50.5854 39.9624C50.3465 39.1065 50.6756 38.135 50.6756 38.135C50.6369 38.3532 50.7167 38.6526 50.8053 38.8808Z" fill="url(#paint26_linear)"/>
<path d="M50.5099 39.2021C50.5301 38.7311 50.3943 37.9292 51.0157 37.3867C51.0157 37.3867 50.7122 38.0425 51.2123 38.4867C51.2123 38.4867 51.4377 38.6745 51.6083 38.9845C51.6545 38.7907 51.7961 38.5642 52.1343 38.3496C52.1343 38.3496 51.7817 38.9994 52.1054 39.378C52.1054 39.378 51.9753 38.9815 52.328 38.7699C52.328 38.7699 52.1863 39.0203 52.3713 39.4495C52.3713 39.4495 52.5968 39.9473 52.2123 40.3825C51.9811 40.5137 51.695 40.63 51.3395 40.7254C51.0678 40.6419 50.8365 40.5346 50.64 40.4064C50.0937 39.7297 50.3278 38.6238 50.3278 38.6238C50.3134 38.8027 50.4145 39.0292 50.5099 39.2021Z" fill="url(#paint27_linear)"/>
<path d="M52.9248 39.0284C52.9045 38.4958 53.0404 37.5891 52.419 36.9756C52.419 36.9756 52.7225 37.7171 52.2224 38.2194C52.2224 38.2194 51.997 38.4317 51.8264 38.7823C51.7802 38.5632 51.6386 38.307 51.3004 38.0643C51.3004 38.0643 51.653 38.7992 51.3293 39.2272C51.3293 39.2272 51.4594 38.7789 51.1067 38.5396C51.1067 38.5396 51.2484 38.8227 51.0634 39.3081C51.0634 39.3081 50.8379 39.871 51.2223 40.3632C51.4536 40.5115 51.7397 40.6429 52.0952 40.7508C52.3669 40.6564 52.5982 40.5351 52.7947 40.3901C53.341 39.625 53.1069 38.3744 53.1069 38.3744C53.1213 38.5767 53.0202 38.8329 52.9248 39.0284Z" fill="url(#paint28_linear)"/>
<path d="M52.4205 39.0729C52.2822 38.6222 52.2116 37.812 51.4735 37.4433C51.4735 37.4433 51.9325 38.0016 51.5605 38.5572C51.5605 38.5572 51.3896 38.7957 51.3027 39.1386C51.2091 38.9627 51.0149 38.7791 50.6336 38.6565C50.6336 38.6565 51.1386 39.1967 50.9207 39.6445C50.9207 39.6445 50.9467 39.2281 50.5521 39.1119C50.5521 39.1119 50.7522 39.3187 50.6814 39.7806C50.6814 39.7806 50.5886 40.3191 51.0703 40.6436C51.3271 40.7124 51.6334 40.7529 52.0015 40.7558C52.2434 40.6067 52.4401 40.4446 52.598 40.2711C52.9562 39.4789 52.451 38.4674 52.451 38.4674C52.51 38.6369 52.4692 38.8816 52.4205 39.0729Z" fill="url(#paint29_linear)"/>
<ellipse cx="39.7251" cy="51.9295" rx="2.05625" ry="2.05454" fill="url(#paint30_linear)"/>
<path d="M40.8965 51.3946C40.9099 51.5985 40.8028 51.862 40.6996 52.0616C40.6786 51.5157 40.8258 50.581 40.1529 49.9521C40.1529 49.9521 40.4798 50.7148 39.9408 51.2289C39.9408 51.2289 39.6961 51.4477 39.5126 51.8088C39.4629 51.5837 39.31 51.3224 38.9468 51.0717C38.9468 51.0717 39.3272 51.8258 38.9774 52.2677C38.9774 52.2677 39.1188 51.8088 38.7385 51.5624C38.7385 51.5624 38.8914 51.8556 38.6907 52.3506C38.6907 52.3506 38.2013 53.5211 39.7955 53.9842C41.447 53.4361 40.8965 51.3946 40.8965 51.3946Z" fill="#F15A24"/>
<path d="M37.9159 51.4974C37.9018 51.6832 38.0147 51.9231 38.1235 52.105C38.1457 51.6077 37.9905 50.7563 38.6999 50.1836C38.6999 50.1836 38.3553 50.8782 38.9236 51.3465C38.9236 51.3465 39.1816 51.5458 39.375 51.8747C39.4274 51.6696 39.5887 51.4316 39.9716 51.2033C39.9716 51.2033 39.5705 51.8902 39.9393 52.2927C39.9393 52.2927 39.7902 51.8747 40.1913 51.6503C40.1913 51.6503 40.03 51.9173 40.2416 52.3681C40.2416 52.3681 40.7576 53.4343 39.0768 53.8561C37.3355 53.3569 37.9159 51.4974 37.9159 51.4974Z" fill="url(#paint31_linear)"/>
<path d="M41.5523 51.464C41.5676 51.6524 41.4454 51.8957 41.3276 52.0801C41.3036 51.5759 41.4716 50.7126 40.7037 50.1318C40.7037 50.1318 41.0767 50.8362 40.4615 51.311C40.4615 51.311 40.1823 51.5131 39.9728 51.8466C39.9161 51.6386 39.7416 51.3973 39.3271 51.1658C39.3271 51.1658 39.7612 51.8623 39.362 52.2704C39.362 52.2704 39.5235 51.8466 39.0893 51.619C39.0893 51.619 39.2638 51.8898 39.0348 52.3469C39.0348 52.3469 38.4763 53.428 40.2957 53.8557C42.1806 53.3495 41.5523 51.464 41.5523 51.464Z" fill="url(#paint32_linear)"/>
<path d="M38.7619 52.0886C38.857 51.5097 38.8235 50.4867 39.6451 49.9087C39.6451 49.9087 39.1853 50.6768 39.7047 51.3028C39.7047 51.3028 39.9452 51.5681 40.1003 51.9795C40.186 51.7431 40.3916 51.4856 40.8214 51.2683C40.8214 51.2683 40.3017 52.0229 40.6272 52.5461C40.6272 52.5461 40.5351 52.0341 40.9861 51.8256C40.9861 51.8256 40.776 52.1187 40.9352 52.6752C40.9352 52.6752 41.0438 53.0566 40.8657 53.4502C40.4802 53.5826 40.0426 53.6844 39.5404 53.7659C39.1599 53.5915 38.8334 53.3877 38.5421 53.1702C38.3031 52.3143 38.632 51.3428 38.632 51.3428C38.5934 51.561 38.6732 51.8604 38.7619 52.0886Z" fill="url(#paint33_linear)"/>
<path d="M38.4662 52.4101C38.4864 51.9391 38.3506 51.1373 38.972 50.5947C38.972 50.5947 38.6685 51.2505 39.1686 51.6947C39.1686 51.6947 39.394 51.8825 39.5646 52.1925C39.6108 51.9987 39.7524 51.7722 40.0906 51.5576C40.0906 51.5576 39.738 52.2074 40.0617 52.586C40.0617 52.586 39.9316 52.1895 40.2843 51.9779C40.2843 51.9779 40.1426 52.2283 40.3276 52.6575C40.3276 52.6575 40.5531 53.1553 40.1686 53.5906C39.9374 53.7217 39.6513 53.838 39.2958 53.9334C39.0241 53.8499 38.7928 53.7426 38.5963 53.6144C38.05 52.9377 38.2841 51.8318 38.2841 51.8318C38.2697 52.0107 38.3708 52.2372 38.4662 52.4101Z" fill="url(#paint34_linear)"/>
<path d="M40.8811 52.2364C40.8608 51.7038 40.9967 50.7971 40.3753 50.1836C40.3753 50.1836 40.6788 50.9252 40.1787 51.4274C40.1787 51.4274 39.9533 51.6398 39.7827 51.9903C39.7365 51.7712 39.5949 51.515 39.2567 51.2723C39.2567 51.2723 39.6093 52.0072 39.2856 52.4352C39.2856 52.4352 39.4157 51.9869 39.063 51.7476C39.063 51.7476 39.2047 52.0308 39.0197 52.5161C39.0197 52.5161 38.7942 53.0791 39.1786 53.5712C39.4099 53.7195 39.696 53.851 40.0515 53.9588C40.3232 53.8644 40.5545 53.7431 40.751 53.5981C41.2973 52.833 41.0632 51.5824 41.0632 51.5824C41.0776 51.7847 40.9765 52.0409 40.8811 52.2364Z" fill="url(#paint35_linear)"/>
<path d="M40.3768 52.2809C40.2385 51.8302 40.1679 51.02 39.4298 50.6513C39.4298 50.6513 39.8888 51.2096 39.5168 51.7652C39.5168 51.7652 39.3459 52.0037 39.259 52.3466C39.1654 52.1707 38.9712 51.9871 38.5899 51.8645C38.5899 51.8645 39.0949 52.4047 38.877 52.8525C38.877 52.8525 38.903 52.4361 38.5084 52.32C38.5084 52.32 38.7085 52.5267 38.6377 52.9886C38.6377 52.9886 38.5449 53.5271 39.0266 53.8516C39.2834 53.9204 39.5897 53.9609 39.9578 53.9638C40.1997 53.8147 40.3964 53.6526 40.5543 53.4792C40.9125 52.6869 40.4073 51.6755 40.4073 51.6755C40.4663 51.8449 40.4255 52.0896 40.3768 52.2809Z" fill="url(#paint36_linear)"/>
<ellipse cx="47.3625" cy="46.3524" rx="2.05625" ry="2.05454" fill="url(#paint37_linear)"/>
<path d="M48.5339 45.8174C48.5473 46.0214 48.4403 46.2848 48.3371 46.4845C48.316 45.9385 48.4632 45.0038 47.7904 44.375C47.7904 44.375 48.1172 45.1376 47.5782 45.6517C47.5782 45.6517 47.3335 45.8706 47.15 46.2317C47.1004 46.0065 46.9474 45.7452 46.5843 45.4945C46.5843 45.4945 46.9646 46.2487 46.6148 46.6906C46.6148 46.6906 46.7563 46.2317 46.3759 45.9853C46.3759 45.9853 46.5288 46.2784 46.3281 46.7734C46.3281 46.7734 45.8388 47.9439 47.4329 48.407C49.0844 47.859 48.5339 45.8174 48.5339 45.8174Z" fill="#F15A24"/>
<path d="M45.5534 45.9203C45.5393 46.106 45.6521 46.3459 45.761 46.5278C45.7831 46.0306 45.628 45.1792 46.3374 44.6064C46.3374 44.6064 45.9927 45.3011 46.5611 45.7693C46.5611 45.7693 46.819 45.9686 47.0125 46.2976C47.0649 46.0925 47.2261 45.8545 47.609 45.6262C47.609 45.6262 47.208 46.3131 47.5768 46.7155C47.5768 46.7155 47.4277 46.2976 47.8287 46.0731C47.8287 46.0731 47.6675 46.3401 47.8791 46.791C47.8791 46.791 48.395 47.8571 46.7142 48.2789C44.973 47.7797 45.5534 45.9203 45.5534 45.9203Z" fill="url(#paint38_linear)"/>
<path d="M49.1897 45.8869C49.205 46.0752 49.0828 46.3185 48.965 46.5029C48.941 45.9987 49.109 45.1354 48.3411 44.5547C48.3411 44.5547 48.7142 45.259 48.099 45.7338C48.099 45.7338 47.8197 45.9359 47.6103 46.2695C47.5536 46.0615 47.3791 45.8202 46.9646 45.5887C46.9646 45.5887 47.3987 46.2852 46.9995 46.6933C46.9995 46.6933 47.1609 46.2695 46.7268 46.0419C46.7268 46.0419 46.9013 46.3126 46.6722 46.7698C46.6722 46.7698 46.1138 47.8508 47.9332 48.2785C49.818 47.7724 49.1897 45.8869 49.1897 45.8869Z" fill="url(#paint39_linear)"/>
<path d="M46.3993 46.5114C46.4945 45.9326 46.4609 44.9095 47.2826 44.3316C47.2826 44.3316 46.8227 45.0997 47.3421 45.7256C47.3421 45.7256 47.5827 45.991 47.7378 46.4023C47.8234 46.1659 48.029 45.9084 48.4588 45.6912C48.4588 45.6912 47.9392 46.4457 48.2647 46.9689C48.2647 46.9689 48.1725 46.457 48.6235 46.2484C48.6235 46.2484 48.4134 46.5415 48.5726 47.0981C48.5726 47.0981 48.6812 47.4795 48.5032 47.8731C48.1176 48.0055 47.68 48.1072 47.1779 48.1888C46.7974 48.0144 46.4708 47.8105 46.1796 47.5931C45.9406 46.7371 46.2695 45.7657 46.2695 45.7657C46.2309 45.9839 46.3106 46.2833 46.3993 46.5114Z" fill="url(#paint40_linear)"/>
<path d="M46.1037 46.832C46.1239 46.361 45.988 45.5591 46.6095 45.0166C46.6095 45.0166 46.306 45.6724 46.806 46.1166C46.806 46.1166 47.0315 46.3044 47.202 46.6144C47.2483 46.4206 47.3899 46.1941 47.7281 45.9794C47.7281 45.9794 47.3754 46.6293 47.6992 47.0079C47.6992 47.0079 47.5691 46.6114 47.9217 46.3997C47.9217 46.3997 47.7801 46.6501 47.9651 47.0794C47.9651 47.0794 48.1905 47.5772 47.8061 48.0124C47.5749 48.1436 47.2887 48.2598 46.9332 48.3552C46.6615 48.2718 46.4303 48.1645 46.2337 48.0363C45.6874 47.3596 45.9216 46.2537 45.9216 46.2537C45.9071 46.4325 46.0083 46.6591 46.1037 46.832Z" fill="url(#paint41_linear)"/>
<path d="M48.5185 46.6592C48.4983 46.1266 48.6341 45.2199 48.0127 44.6064C48.0127 44.6064 48.3162 45.348 47.8162 45.8502C47.8162 45.8502 47.5907 46.0626 47.4202 46.4132C47.3739 46.1941 47.2323 45.9379 46.8941 45.6952C46.8941 45.6952 47.2468 46.43 46.923 46.8581C46.923 46.8581 47.0531 46.4098 46.7005 46.1705C46.7005 46.1705 46.8421 46.4536 46.6571 46.939C46.6571 46.939 46.4317 47.5019 46.8161 47.994C47.0473 48.1423 47.3335 48.2738 47.689 48.3817C47.9607 48.2873 48.1919 48.1659 48.3885 48.021C48.9347 47.2558 48.7006 46.0053 48.7006 46.0053C48.7151 46.2075 48.6139 46.4637 48.5185 46.6592Z" fill="url(#paint42_linear)"/>
<path d="M48.0142 46.7038C47.876 46.2531 47.8054 45.4428 47.0673 45.0741C47.0673 45.0741 47.5262 45.6325 47.1542 46.1881C47.1542 46.1881 46.9833 46.4265 46.8964 46.7695C46.8028 46.5936 46.6087 46.41 46.2273 46.2873C46.2273 46.2873 46.7323 46.8275 46.5144 47.2753C46.5144 47.2753 46.5404 46.8589 46.1458 46.7428C46.1458 46.7428 46.346 46.9495 46.2751 47.4115C46.2751 47.4115 46.1824 47.95 46.6641 48.2745C46.9209 48.3432 47.2271 48.3838 47.5952 48.3866C47.8371 48.2375 48.0339 48.0755 48.1918 47.902C48.55 47.1097 48.0447 46.0983 48.0447 46.0983C48.1038 46.2678 48.063 46.5125 48.0142 46.7038Z" fill="url(#paint43_linear)"/>
<ellipse cx="51.7688" cy="24.9276" rx="2.05625" ry="2.05454" fill="url(#paint44_linear)"/>
<path d="M52.9402 24.3926C52.9536 24.5966 52.8465 24.86 52.7433 25.0597C52.7223 24.5137 52.8695 23.579 52.1966 22.9502C52.1966 22.9502 52.5235 23.7128 51.9845 24.2269C51.9845 24.2269 51.7398 24.4457 51.5563 24.8069C51.5066 24.5817 51.3537 24.3204 50.9905 24.0697C50.9905 24.0697 51.3709 24.8239 51.0211 25.2658C51.0211 25.2658 51.1625 24.8069 50.7822 24.5605C50.7822 24.5605 50.9351 24.8536 50.7344 25.3486C50.7344 25.3486 50.245 26.5191 51.8392 26.9822C53.4907 26.4342 52.9402 24.3926 52.9402 24.3926Z" fill="#F15A24"/>
<path d="M49.9596 24.4955C49.9455 24.6812 50.0584 24.9211 50.1672 25.103C50.1894 24.6057 50.0342 23.7544 50.7436 23.1816C50.7436 23.1816 50.399 23.8763 50.9673 24.3445C50.9673 24.3445 51.2253 24.5438 51.4187 24.8728C51.4711 24.6677 51.6324 24.4297 52.0153 24.2013C52.0153 24.2013 51.6142 24.8882 51.983 25.2907C51.983 25.2907 51.8339 24.8728 52.235 24.6483C52.235 24.6483 52.0737 24.9153 52.2853 25.3662C52.2853 25.3662 52.8013 26.4323 51.1205 26.8541C49.3792 26.3549 49.9596 24.4955 49.9596 24.4955Z" fill="url(#paint45_linear)"/>
<path d="M53.596 24.4621C53.6113 24.6504 53.4891 24.8937 53.3713 25.0781C53.3473 24.5739 53.5153 23.7106 52.7474 23.1299C52.7474 23.1299 53.1204 23.8342 52.5052 24.309C52.5052 24.309 52.226 24.5111 52.0166 24.8447C51.9598 24.6367 51.7853 24.3954 51.3708 24.1639C51.3708 24.1639 51.8049 24.8604 51.4057 25.2685C51.4057 25.2685 51.5672 24.8447 51.133 24.6171C51.133 24.6171 51.3076 24.8878 51.0785 25.345C51.0785 25.345 50.52 26.426 52.3394 26.8537C54.2243 26.3475 53.596 24.4621 53.596 24.4621Z" fill="url(#paint46_linear)"/>
<path d="M50.8053 25.0859C50.9005 24.507 50.8671 23.484 51.6888 22.906C51.6888 22.906 51.2289 23.6741 51.7482 24.3C51.7482 24.3 51.9888 24.5653 52.1438 24.9766C52.2295 24.7402 52.4351 24.4827 52.8649 24.2654C52.8649 24.2654 52.3452 25.02 52.6707 25.5432C52.6707 25.5432 52.5785 25.0312 53.0296 24.8226C53.0296 24.8226 52.8195 25.1157 52.9786 25.6723C52.9786 25.6723 53.0872 26.0536 52.9091 26.4472C52.5235 26.5797 52.0859 26.6815 51.5837 26.7631C51.2032 26.5887 50.8767 26.3849 50.5854 26.1675C50.3465 25.3116 50.6756 24.3401 50.6756 24.3401C50.6369 24.5583 50.7167 24.8577 50.8053 25.0859Z" fill="url(#paint47_linear)"/>
<path d="M50.5099 25.4072C50.5301 24.9362 50.3943 24.1343 51.0157 23.5918C51.0157 23.5918 50.7122 24.2476 51.2123 24.6918C51.2123 24.6918 51.4377 24.8796 51.6083 25.1896C51.6545 24.9958 51.7961 24.7693 52.1343 24.5546C52.1343 24.5546 51.7817 25.2045 52.1054 25.5831C52.1054 25.5831 51.9753 25.1866 52.328 24.9749C52.328 24.9749 52.1863 25.2253 52.3713 25.6546C52.3713 25.6546 52.5968 26.1524 52.2123 26.5876C51.9811 26.7188 51.695 26.835 51.3395 26.9304C51.0678 26.847 50.8365 26.7397 50.64 26.6115C50.0937 25.9348 50.3278 24.8289 50.3278 24.8289C50.3134 25.0077 50.4145 25.2343 50.5099 25.4072Z" fill="url(#paint48_linear)"/>
<path d="M52.9248 25.2344C52.9045 24.7018 53.0404 23.7951 52.419 23.1816C52.419 23.1816 52.7225 23.9232 52.2224 24.4254C52.2224 24.4254 51.997 24.6378 51.8264 24.9884C51.7802 24.7693 51.6386 24.5131 51.3004 24.2704C51.3004 24.2704 51.653 25.0052 51.3293 25.4333C51.3293 25.4333 51.4594 24.985 51.1067 24.7457C51.1067 24.7457 51.2484 25.0288 51.0634 25.5142C51.0634 25.5142 50.8379 26.0771 51.2223 26.5692C51.4536 26.7175 51.7397 26.849 52.0952 26.9569C52.3669 26.8625 52.5982 26.7411 52.7947 26.5962C53.341 25.831 53.1069 24.5805 53.1069 24.5805C53.1213 24.7827 53.0202 25.0389 52.9248 25.2344Z" fill="url(#paint49_linear)"/>
<path d="M52.4205 25.278C52.2822 24.8273 52.2116 24.0171 51.4735 23.6483C51.4735 23.6483 51.9325 24.2067 51.5605 24.7623C51.5605 24.7623 51.3896 25.0008 51.3027 25.3437C51.2091 25.1678 51.0149 24.9842 50.6336 24.8615C50.6336 24.8615 51.1386 25.4017 50.9207 25.8496C50.9207 25.8496 50.9467 25.4331 50.5521 25.317C50.5521 25.317 50.7522 25.5237 50.6814 25.9857C50.6814 25.9857 50.5886 26.5242 51.0703 26.8487C51.3271 26.9174 51.6334 26.958 52.0015 26.9609C52.2434 26.8117 52.4401 26.6497 52.598 26.4762C52.9562 25.6839 52.451 24.6725 52.451 24.6725C52.51 24.842 52.4692 25.0867 52.4205 25.278Z" fill="url(#paint50_linear)"/>
<ellipse cx="47.3625" cy="17.8817" rx="2.05625" ry="2.05454" fill="url(#paint51_linear)"/>
<path d="M48.5339 17.3467C48.5473 17.5507 48.4403 17.8141 48.3371 18.0138C48.316 17.4678 48.4632 16.5331 47.7904 15.9043C47.7904 15.9043 48.1172 16.6669 47.5782 17.181C47.5782 17.181 47.3335 17.3998 47.15 17.761C47.1004 17.5358 46.9474 17.2745 46.5843 17.0238C46.5843 17.0238 46.9646 17.778 46.6148 18.2199C46.6148 18.2199 46.7563 17.761 46.3759 17.5146C46.3759 17.5146 46.5288 17.8077 46.3281 18.3027C46.3281 18.3027 45.8388 19.4732 47.4329 19.9363C49.0844 19.3883 48.5339 17.3467 48.5339 17.3467Z" fill="#F15A24"/>
<path d="M45.5534 17.4496C45.5393 17.6353 45.6521 17.8752 45.761 18.0571C45.7831 17.5599 45.628 16.7085 46.3374 16.1357C46.3374 16.1357 45.9927 16.8304 46.5611 17.2986C46.5611 17.2986 46.819 17.4979 47.0125 17.8269C47.0649 17.6218 47.2261 17.3838 47.609 17.1555C47.609 17.1555 47.208 17.8424 47.5768 18.2448C47.5768 18.2448 47.4277 17.8269 47.8287 17.6024C47.8287 17.6024 47.6675 17.8694 47.8791 18.3203C47.8791 18.3203 48.395 19.3864 46.7142 19.8082C44.973 19.309 45.5534 17.4496 45.5534 17.4496Z" fill="url(#paint52_linear)"/>
<path d="M49.1897 17.4162C49.205 17.6045 49.0828 17.8478 48.965 18.0322C48.941 17.528 49.109 16.6647 48.3411 16.084C48.3411 16.084 48.7142 16.7883 48.099 17.2631C48.099 17.2631 47.8197 17.4652 47.6103 17.7988C47.5536 17.5908 47.3791 17.3495 46.9646 17.118C46.9646 17.118 47.3987 17.8145 46.9995 18.2226C46.9995 18.2226 47.1609 17.7988 46.7268 17.5712C46.7268 17.5712 46.9013 17.8419 46.6722 18.2991C46.6722 18.2991 46.1138 19.3801 47.9332 19.8078C49.818 19.3017 49.1897 17.4162 49.1897 17.4162Z" fill="url(#paint53_linear)"/>
<path d="M46.3993 18.0407C46.4945 17.4619 46.4609 16.4388 47.2826 15.8609C47.2826 15.8609 46.8227 16.629 47.3421 17.2549C47.3421 17.2549 47.5827 17.5203 47.7378 17.9316C47.8234 17.6952 48.029 17.4377 48.4588 17.2205C48.4588 17.2205 47.9392 17.975 48.2647 18.4982C48.2647 18.4982 48.1725 17.9863 48.6235 17.7777C48.6235 17.7777 48.4134 18.0708 48.5726 18.6274C48.5726 18.6274 48.6812 19.0088 48.5032 19.4024C48.1176 19.5348 47.68 19.6365 47.1779 19.7181C46.7974 19.5437 46.4708 19.3398 46.1796 19.1224C45.9406 18.2664 46.2695 17.295 46.2695 17.295C46.2309 17.5132 46.3106 17.8126 46.3993 18.0407Z" fill="url(#paint54_linear)"/>
<path d="M46.1037 18.3623C46.1239 17.8913 45.988 17.0894 46.6095 16.5469C46.6095 16.5469 46.306 17.2027 46.806 17.6468C46.806 17.6468 47.0315 17.8346 47.202 18.1446C47.2483 17.9509 47.3899 17.7243 47.7281 17.5097C47.7281 17.5097 47.3754 18.1596 47.6992 18.5381C47.6992 18.5381 47.5691 18.1417 47.9217 17.93C47.9217 17.93 47.7801 18.1804 47.9651 18.6097C47.9651 18.6097 48.1905 19.1075 47.8061 19.5427C47.5749 19.6739 47.2887 19.7901 46.9332 19.8855C46.6615 19.802 46.4303 19.6947 46.2337 19.5665C45.6874 18.8899 45.9216 17.784 45.9216 17.784C45.9071 17.9628 46.0083 18.1894 46.1037 18.3623Z" fill="url(#paint55_linear)"/>
<path d="M48.5185 18.1885C48.4983 17.6559 48.6341 16.7492 48.0127 16.1357C48.0127 16.1357 48.3162 16.8773 47.8162 17.3795C47.8162 17.3795 47.5907 17.5919 47.4202 17.9425C47.3739 17.7234 47.2323 17.4672 46.8941 17.2245C46.8941 17.2245 47.2468 17.9593 46.923 18.3874C46.923 18.3874 47.0531 17.9391 46.7005 17.6998C46.7005 17.6998 46.8421 17.9829 46.6571 18.4683C46.6571 18.4683 46.4317 19.0312 46.8161 19.5233C47.0473 19.6716 47.3335 19.8031 47.689 19.911C47.9607 19.8166 48.1919 19.6952 48.3885 19.5503C48.9347 18.7851 48.7006 17.5346 48.7006 17.5346C48.7151 17.7368 48.6139 17.993 48.5185 18.1885Z" fill="url(#paint56_linear)"/>
<path d="M48.0142 18.2331C47.876 17.7824 47.8054 16.9721 47.0673 16.6034C47.0673 16.6034 47.5262 17.1617 47.1542 17.7174C47.1542 17.7174 46.9833 17.9558 46.8964 18.2988C46.8028 18.1229 46.6087 17.9393 46.2273 17.8166C46.2273 17.8166 46.7323 18.3568 46.5144 18.8046C46.5144 18.8046 46.5404 18.3882 46.1458 18.2721C46.1458 18.2721 46.346 18.4788 46.2751 18.9408C46.2751 18.9408 46.1824 19.4793 46.6641 19.8038C46.9209 19.8725 47.2271 19.9131 47.5952 19.9159C47.8371 19.7668 48.0339 19.6048 48.1918 19.4313C48.55 18.639 48.0447 17.6276 48.0447 17.6276C48.1038 17.7971 48.063 18.0418 48.0142 18.2331Z" fill="url(#paint57_linear)"/>
<ellipse cx="39.7251" cy="12.6004" rx="2.05625" ry="2.05454" fill="url(#paint58_linear)"/>
<path d="M40.8965 12.0655C40.9099 12.2694 40.8028 12.5328 40.6996 12.7325C40.6786 12.1866 40.8258 11.2519 40.1529 10.623C40.1529 10.623 40.4798 11.3857 39.9408 11.8998C39.9408 11.8998 39.6961 12.1186 39.5126 12.4797C39.4629 12.2546 39.31 11.9933 38.9468 11.7426C38.9468 11.7426 39.3272 12.4967 38.9774 12.9386C38.9774 12.9386 39.1188 12.4797 38.7385 12.2333C38.7385 12.2333 38.8914 12.5265 38.6907 13.0215C38.6907 13.0215 38.2013 14.192 39.7955 14.6551C41.447 14.107 40.8965 12.0655 40.8965 12.0655Z" fill="#F15A24"/>
<path d="M37.9159 12.1673C37.9018 12.3531 38.0147 12.593 38.1235 12.7749C38.1457 12.2776 37.9905 11.4263 38.6999 10.8535C38.6999 10.8535 38.3553 11.5482 38.9236 12.0164C38.9236 12.0164 39.1816 12.2157 39.375 12.5446C39.4274 12.3395 39.5887 12.1015 39.9716 11.8732C39.9716 11.8732 39.5705 12.5601 39.9393 12.9626C39.9393 12.9626 39.7902 12.5446 40.1913 12.3202C40.1913 12.3202 40.03 12.5872 40.2416 13.0381C40.2416 13.0381 40.7576 14.1042 39.0768 14.526C37.3355 14.0268 37.9159 12.1673 37.9159 12.1673Z" fill="url(#paint59_linear)"/>
<path d="M41.5523 12.1349C41.5676 12.3233 41.4454 12.5666 41.3276 12.751C41.3036 12.2468 41.4716 11.3835 40.7037 10.8027C40.7037 10.8027 41.0767 11.5071 40.4615 11.9819C40.4615 11.9819 40.1823 12.184 39.9728 12.5175C39.9161 12.3095 39.7416 12.0682 39.3271 11.8367C39.3271 11.8367 39.7612 12.5332 39.362 12.9413C39.362 12.9413 39.5235 12.5175 39.0893 12.2899C39.0893 12.2899 39.2638 12.5607 39.0348 13.0178C39.0348 13.0178 38.4763 14.0989 40.2957 14.5266C42.1806 14.0204 41.5523 12.1349 41.5523 12.1349Z" fill="url(#paint60_linear)"/>
<path d="M38.7616 12.7587C38.8568 12.1799 38.8234 11.1569 39.6451 10.5788C39.6451 10.5788 39.1852 11.347 39.7045 11.9728C39.7045 11.9728 39.945 12.2382 40.1001 12.6495C40.1858 12.4131 40.3914 12.1556 40.8212 11.9383C40.8212 11.9383 40.3015 12.6929 40.627 13.216C40.627 13.216 40.5348 12.7041 40.9859 12.4955C40.9859 12.4955 40.7757 12.7886 40.9349 13.3451C40.9349 13.3451 41.0435 13.7265 40.8654 14.1201C40.4798 14.2525 40.0422 14.3543 39.54 14.4359C39.1595 14.2616 38.833 14.0578 38.5417 13.8404C38.3028 12.9844 38.6319 12.013 38.6319 12.013C38.5932 12.2312 38.673 12.5306 38.7616 12.7587Z" fill="url(#paint61_linear)"/>
<path d="M38.4662 13.08C38.4864 12.609 38.3506 11.8072 38.972 11.2646C38.972 11.2646 38.6685 11.9205 39.1686 12.3646C39.1686 12.3646 39.394 12.5524 39.5646 12.8624C39.6108 12.6687 39.7524 12.4421 40.0906 12.2275C40.0906 12.2275 39.738 12.8773 40.0617 13.2559C40.0617 13.2559 39.9316 12.8594 40.2843 12.6478C40.2843 12.6478 40.1426 12.8982 40.3276 13.3274C40.3276 13.3274 40.5531 13.8253 40.1686 14.2605C39.9374 14.3916 39.6513 14.5079 39.2958 14.6033C39.0241 14.5198 38.7928 14.4125 38.5963 14.2843C38.05 13.6077 38.2841 12.5017 38.2841 12.5017C38.2697 12.6806 38.3708 12.9071 38.4662 13.08Z" fill="url(#paint62_linear)"/>
<path d="M40.8811 12.9063C40.8608 12.3737 40.9967 11.467 40.3753 10.8535C40.3753 10.8535 40.6788 11.5951 40.1787 12.0973C40.1787 12.0973 39.9533 12.3097 39.7827 12.6602C39.7365 12.4411 39.5949 12.185 39.2567 11.9423C39.2567 11.9423 39.6093 12.6771 39.2856 13.1052C39.2856 13.1052 39.4157 12.6569 39.063 12.4175C39.063 12.4175 39.2047 12.7007 39.0197 13.1861C39.0197 13.1861 38.7942 13.749 39.1786 14.2411C39.4099 14.3894 39.696 14.5209 40.0515 14.6287C40.3232 14.5344 40.5545 14.413 40.751 14.2681C41.2973 13.5029 41.0632 12.2524 41.0632 12.2524C41.0776 12.4546 40.9765 12.7108 40.8811 12.9063Z" fill="url(#paint63_linear)"/>
<path d="M40.3768 12.9509C40.2385 12.5001 40.1679 11.6899 39.4298 11.3212C39.4298 11.3212 39.8888 11.8795 39.5168 12.4352C39.5168 12.4352 39.3459 12.6736 39.259 13.0165C39.1654 12.8407 38.9712 12.657 38.5899 12.5344C38.5899 12.5344 39.0949 13.0746 38.877 13.5224C38.877 13.5224 38.903 13.106 38.5084 12.9899C38.5084 12.9899 38.7085 13.1966 38.6377 13.6585C38.6377 13.6585 38.5449 14.197 39.0266 14.5215C39.2834 14.5903 39.5897 14.6308 39.9578 14.6337C40.1997 14.4846 40.3964 14.3226 40.5543 14.1491C40.9125 13.3568 40.4073 12.3454 40.4073 12.3454C40.4663 12.5148 40.4255 12.7595 40.3768 12.9509Z" fill="url(#paint64_linear)"/>
<ellipse cx="10.0563" cy="32.2635" rx="2.05625" ry="2.05454" fill="url(#paint65_linear)"/>
<path d="M11.2277 31.7286C11.241 31.9325 11.134 32.1959 11.0308 32.3956C11.0098 31.8497 11.1569 30.9149 10.4841 30.2861C10.4841 30.2861 10.811 31.0488 10.2719 31.5629C10.2719 31.5629 10.0273 31.7817 9.84377 32.1428C9.79408 31.9176 9.64116 31.6563 9.27799 31.4057C9.27799 31.4057 9.65836 32.1598 9.30857 32.6017C9.30857 32.6017 9.45002 32.1428 9.06964 31.8964C9.06964 31.8964 9.22255 32.1896 9.02185 32.6845C9.02185 32.6845 8.53252 33.8551 10.1267 34.3182C11.7782 33.7701 11.2277 31.7286 11.2277 31.7286Z" fill="#F15A24"/>
<path d="M8.24712 31.8314C8.23301 32.0171 8.34587 32.2571 8.4547 32.439C8.47687 31.9417 8.32169 31.0903 9.03108 30.5176C9.03108 30.5176 8.68646 31.2122 9.25479 31.6805C9.25479 31.6805 9.51275 31.8798 9.70622 32.2087C9.75862 32.0036 9.91984 31.7656 10.3028 31.5373C10.3028 31.5373 9.90171 32.2242 10.2705 32.6267C10.2705 32.6267 10.1214 32.2087 10.5224 31.9843C10.5224 31.9843 10.3612 32.2513 10.5728 32.7021C10.5728 32.7021 11.0887 33.7683 9.40795 34.1901C7.66671 33.6909 8.24712 31.8314 8.24712 31.8314Z" fill="url(#paint66_linear)"/>
<path d="M11.8835 31.798C11.8987 31.9864 11.7766 32.2297 11.6588 32.4141C11.6348 31.9098 11.8027 31.0466 11.0348 30.4658C11.0348 30.4658 11.4079 31.1702 10.7927 31.645C10.7927 31.645 10.5135 31.8471 10.304 32.1806C10.2473 31.9726 10.0728 31.7313 9.65829 31.4998C9.65829 31.4998 10.0924 32.1963 9.69319 32.6044C9.69319 32.6044 9.85463 32.1806 9.4205 31.953C9.4205 31.953 9.59503 32.2238 9.36596 32.6809C9.36596 32.6809 8.80749 33.762 10.6269 34.1897C12.5117 33.6835 11.8835 31.798 11.8835 31.798Z" fill="url(#paint67_linear)"/>
<path d="M9.09307 32.4226C9.18818 31.8437 9.15466 30.8207 9.97631 30.2427C9.97631 30.2427 9.51645 31.0108 10.0359 31.6368C10.0359 31.6368 10.2764 31.9021 10.4315 32.3135C10.5171 32.0771 10.7228 31.8196 11.1525 31.6023C11.1525 31.6023 10.6329 32.3569 10.9584 32.8801C10.9584 32.8801 10.8662 32.3681 11.3173 32.1595C11.3173 32.1595 11.1071 32.4526 11.2664 33.0092C11.2664 33.0092 11.3749 33.3906 11.1969 33.7842C10.8114 33.9166 10.3738 34.0183 9.87162 34.0999C9.49109 33.9255 9.16456 33.7217 8.87329 33.5042C8.63431 32.6483 8.96322 31.6768 8.96322 31.6768C8.92462 31.895 9.00437 32.1944 9.09307 32.4226Z" fill="url(#paint68_linear)"/>
<path d="M8.79739 32.7441C8.81762 32.2731 8.68177 31.4712 9.30321 30.9287C9.30321 30.9287 8.99972 31.5845 9.49975 32.0287C9.49975 32.0287 9.7252 32.2165 9.89574 32.5265C9.94198 32.3327 10.0836 32.1062 10.4218 31.8915C10.4218 31.8915 10.0692 32.5414 10.3929 32.92C10.3929 32.92 10.2628 32.5235 10.6154 32.3119C10.6154 32.3119 10.4738 32.5623 10.6588 32.9915C10.6588 32.9915 10.8842 33.4893 10.4998 33.9245C10.2686 34.0557 9.98245 34.172 9.62693 34.2673C9.35523 34.1839 9.124 34.0766 8.92746 33.9484C8.38117 33.2717 8.6153 32.1658 8.6153 32.1658C8.60084 32.3446 8.70201 32.5712 8.79739 32.7441Z" fill="url(#paint69_linear)"/>
<path d="M11.2123 32.5704C11.192 32.0378 11.3279 31.1311 10.7064 30.5176C10.7064 30.5176 11.0099 31.2591 10.5099 31.7614C10.5099 31.7614 10.2844 31.9737 10.1139 32.3243C10.0677 32.1052 9.92603 31.849 9.58786 31.6063C9.58786 31.6063 9.94049 32.3411 9.61676 32.7692C9.61676 32.7692 9.74683 32.3209 9.3942 32.0816C9.3942 32.0816 9.53583 32.3647 9.35085 32.8501C9.35085 32.8501 9.1254 33.413 9.50982 33.9052C9.74105 34.0535 10.0272 34.1849 10.3827 34.2928C10.6544 34.1984 10.8856 34.0771 11.0822 33.9321C11.6285 33.167 11.3943 31.9164 11.3943 31.9164C11.4088 32.1187 11.3076 32.3749 11.2123 32.5704Z" fill="url(#paint70_linear)"/>
<path d="M10.7081 32.6149C10.5698 32.1642 10.4992 31.354 9.76112 30.9852C9.76112 30.9852 10.2201 31.5436 9.84806 32.0992C9.84806 32.0992 9.67719 32.3377 9.59027 32.6806C9.49669 32.5047 9.30254 32.3211 8.92118 32.1985C8.92118 32.1985 9.42619 32.7387 9.20828 33.1865C9.20828 33.1865 9.23426 32.7701 8.83967 32.6539C8.83967 32.6539 9.03983 32.8606 8.96896 33.3226C8.96896 33.3226 8.8762 33.8611 9.3579 34.1856C9.61474 34.2544 9.92096 34.2949 10.2891 34.2978C10.531 34.1487 10.7277 33.9866 10.8856 33.8131C11.2438 33.0208 10.7386 32.0094 10.7386 32.0094C10.7976 32.1789 10.7568 32.4236 10.7081 32.6149Z" fill="url(#paint71_linear)"/>
<ellipse cx="11.2312" cy="38.7225" rx="2.05625" ry="2.05454" fill="url(#paint72_linear)"/>
<path d="M12.4026 38.1866C12.416 38.3905 12.3089 38.6539 12.2057 38.8536C12.1847 38.3077 12.3319 37.373 11.659 36.7441C11.659 36.7441 11.9859 37.5068 11.4469 38.0209C11.4469 38.0209 11.2022 38.2397 11.0187 38.6008C10.969 38.3757 10.8161 38.1144 10.4529 37.8637C10.4529 37.8637 10.8333 38.6178 10.4835 39.0597C10.4835 39.0597 10.6249 38.6008 10.2446 38.3544C10.2446 38.3544 10.3975 38.6476 10.1968 39.1425C10.1968 39.1425 9.70745 40.3131 11.3016 40.7762C12.9531 40.2281 12.4026 38.1866 12.4026 38.1866Z" fill="#F15A24"/>
<path d="M9.42205 38.2894C9.40794 38.4752 9.5208 38.7151 9.62963 38.897C9.6518 38.3997 9.49662 37.5483 10.206 36.9756C10.206 36.9756 9.86139 37.6702 10.4297 38.1385C10.4297 38.1385 10.6877 38.3378 10.8811 38.6667C10.9335 38.4616 11.0948 38.2236 11.4777 37.9953C11.4777 37.9953 11.0766 38.6822 11.4454 39.0847C11.4454 39.0847 11.2963 38.6667 11.6974 38.4423C11.6974 38.4423 11.5361 38.7093 11.7477 39.1601C11.7477 39.1601 12.2637 40.2263 10.5829 40.6481C8.84163 40.1489 9.42205 38.2894 9.42205 38.2894Z" fill="url(#paint73_linear)"/>
<path d="M13.0584 38.257C13.0737 38.4453 12.9515 38.6886 12.8337 38.8731C12.8097 38.3688 12.9777 37.5056 12.2098 36.9248C12.2098 36.9248 12.5828 37.6292 11.9676 38.104C11.9676 38.104 11.6884 38.306 11.479 38.6396C11.4222 38.4316 11.2477 38.1903 10.8332 37.9588C10.8332 37.9588 11.2673 38.6553 10.8681 39.0634C10.8681 39.0634 11.0296 38.6396 10.5954 38.412C10.5954 38.412 10.77 38.6827 10.5409 39.1399C10.5409 39.1399 9.98242 40.221 11.8018 40.6487C13.6867 40.1425 13.0584 38.257 13.0584 38.257Z" fill="url(#paint74_linear)"/>
<path d="M10.2679 38.8808C10.363 38.3019 10.3296 37.2789 11.1513 36.7009C11.1513 36.7009 10.6914 37.469 11.2108 38.0949C11.2108 38.0949 11.4513 38.3602 11.6064 38.7716C11.692 38.5351 11.8977 38.2776 12.3275 38.0603C12.3275 38.0603 11.8077 38.8149 12.1332 39.3381C12.1332 39.3381 12.0411 38.8262 12.4921 38.6175C12.4921 38.6175 12.282 38.9107 12.4411 39.4672C12.4411 39.4672 12.5497 39.8486 12.3716 40.2422C11.986 40.3746 11.5484 40.4764 11.0463 40.558C10.6657 40.3836 10.3392 40.1799 10.048 39.9624C9.80906 39.1065 10.1381 38.135 10.1381 38.135C10.0995 38.3532 10.1792 38.6526 10.2679 38.8808Z" fill="url(#paint75_linear)"/>
<path d="M9.97244 39.2021C9.99267 38.7311 9.85682 37.9292 10.4783 37.3867C10.4783 37.3867 10.1748 38.0425 10.6748 38.4867C10.6748 38.4867 10.9003 38.6745 11.0708 38.9845C11.117 38.7907 11.2587 38.5642 11.5968 38.3496C11.5968 38.3496 11.2442 38.9994 11.5679 39.378C11.5679 39.378 11.4379 38.9815 11.7905 38.7699C11.7905 38.7699 11.6489 39.0203 11.8338 39.4495C11.8338 39.4495 12.0593 39.9473 11.6749 40.3825C11.4436 40.5137 11.1575 40.63 10.802 40.7254C10.5303 40.6419 10.2991 40.5346 10.1025 40.4064C9.55622 39.7297 9.79034 38.6238 9.79034 38.6238C9.77589 38.8027 9.87706 39.0292 9.97244 39.2021Z" fill="url(#paint76_linear)"/>
<path d="M12.3872 39.0284C12.3669 38.4958 12.5028 37.5891 11.8814 36.9756C11.8814 36.9756 12.1849 37.7171 11.6848 38.2194C11.6848 38.2194 11.4594 38.4317 11.2888 38.7823C11.2426 38.5632 11.101 38.307 10.7628 38.0643C10.7628 38.0643 11.1154 38.7992 10.7917 39.2272C10.7917 39.2272 10.9218 38.7789 10.5691 38.5396C10.5691 38.5396 10.7108 38.8227 10.5258 39.3081C10.5258 39.3081 10.3003 39.871 10.6847 40.3632C10.916 40.5115 11.2021 40.6429 11.5576 40.7508C11.8293 40.6564 12.0606 40.5351 12.2571 40.3901C12.8034 39.625 12.5693 38.3744 12.5693 38.3744C12.5837 38.5767 12.4826 38.8329 12.3872 39.0284Z" fill="url(#paint77_linear)"/>
<path d="M11.883 39.0729C11.7447 38.6222 11.6742 37.812 10.936 37.4433C10.936 37.4433 11.395 38.0016 11.023 38.5572C11.023 38.5572 10.8521 38.7957 10.7652 39.1386C10.6716 38.9627 10.4775 38.7791 10.0961 38.6565C10.0961 38.6565 10.6011 39.1967 10.3832 39.6445C10.3832 39.6445 10.4092 39.2281 10.0146 39.1119C10.0146 39.1119 10.2148 39.3187 10.1439 39.7806C10.1439 39.7806 10.0511 40.3191 10.5328 40.6436C10.7897 40.7124 11.0959 40.7529 11.464 40.7558C11.7059 40.6067 11.9026 40.4446 12.0606 40.2711C12.4187 39.4789 11.9135 38.4674 11.9135 38.4674C11.9726 38.6369 11.9317 38.8816 11.883 39.0729Z" fill="url(#paint78_linear)"/>
<ellipse cx="15.0499" cy="46.3524" rx="2.05625" ry="2.05454" fill="url(#paint79_linear)"/>
<path d="M16.2213 45.8174C16.2347 46.0214 16.1277 46.2848 16.0244 46.4845C16.0034 45.9385 16.1506 45.0038 15.4778 44.375C15.4778 44.375 15.8046 45.1376 15.2656 45.6517C15.2656 45.6517 15.0209 45.8706 14.8374 46.2317C14.7877 46.0065 14.6348 45.7452 14.2716 45.4945C14.2716 45.4945 14.652 46.2487 14.3022 46.6906C14.3022 46.6906 14.4437 46.2317 14.0633 45.9853C14.0633 45.9853 14.2162 46.2784 14.0155 46.7734C14.0155 46.7734 13.5262 47.9439 15.1203 48.407C16.7718 47.859 16.2213 45.8174 16.2213 45.8174Z" fill="#F15A24"/>
<path d="M13.2409 45.9203C13.2268 46.106 13.3396 46.3459 13.4485 46.5278C13.4706 46.0306 13.3155 45.1792 14.0249 44.6064C14.0249 44.6064 13.6802 45.3011 14.2486 45.7693C14.2486 45.7693 14.5065 45.9686 14.7 46.2976C14.7524 46.0925 14.9136 45.8545 15.2965 45.6262C15.2965 45.6262 14.8955 46.3131 15.2643 46.7155C15.2643 46.7155 15.1152 46.2976 15.5162 46.0731C15.5162 46.0731 15.355 46.3401 15.5666 46.791C15.5666 46.791 16.0825 47.8571 14.4017 48.2789C12.6605 47.7797 13.2409 45.9203 13.2409 45.9203Z" fill="url(#paint80_linear)"/>
<path d="M16.8771 45.8869C16.8924 46.0752 16.7702 46.3185 16.6524 46.5029C16.6284 45.9987 16.7964 45.1354 16.0285 44.5547C16.0285 44.5547 16.4015 45.259 15.7863 45.7338C15.7863 45.7338 15.5071 45.9359 15.2977 46.2695C15.241 46.0615 15.0664 45.8202 14.6519 45.5887C14.6519 45.5887 15.0861 46.2852 14.6868 46.6933C14.6868 46.6933 14.8483 46.2695 14.4142 46.0419C14.4142 46.0419 14.5887 46.3126 14.3596 46.7698C14.3596 46.7698 13.8011 47.8508 15.6205 48.2785C17.5054 47.7724 16.8771 45.8869 16.8771 45.8869Z" fill="url(#paint81_linear)"/>
<path d="M14.0868 46.5114C14.182 45.9326 14.1484 44.9095 14.9701 44.3316C14.9701 44.3316 14.5102 45.0997 15.0296 45.7256C15.0296 45.7256 15.2702 45.991 15.4253 46.4023C15.5109 46.1659 15.7165 45.9084 16.1463 45.6912C16.1463 45.6912 15.6267 46.4457 15.9522 46.9689C15.9522 46.9689 15.86 46.457 16.311 46.2484C16.311 46.2484 16.1009 46.5415 16.2601 47.0981C16.2601 47.0981 16.3687 47.4795 16.1907 47.8731C15.8051 48.0055 15.3675 48.1072 14.8654 48.1888C14.4849 48.0144 14.1583 47.8105 13.8671 47.5931C13.6281 46.7371 13.957 45.7657 13.957 45.7657C13.9184 45.9839 13.9981 46.2833 14.0868 46.5114Z" fill="url(#paint82_linear)"/>
<path d="M13.7912 46.832C13.8114 46.361 13.6755 45.5591 14.297 45.0166C14.297 45.0166 13.9935 45.6724 14.4935 46.1166C14.4935 46.1166 14.719 46.3044 14.8895 46.6144C14.9358 46.4206 15.0774 46.1941 15.4156 45.9794C15.4156 45.9794 15.0629 46.6293 15.3867 47.0079C15.3867 47.0079 15.2566 46.6114 15.6092 46.3997C15.6092 46.3997 15.4676 46.6501 15.6526 47.0794C15.6526 47.0794 15.878 47.5772 15.4936 48.0124C15.2624 48.1436 14.9762 48.2598 14.6207 48.3552C14.349 48.2718 14.1178 48.1645 13.9212 48.0363C13.3749 47.3596 13.6091 46.2537 13.6091 46.2537C13.5946 46.4325 13.6958 46.6591 13.7912 46.832Z" fill="url(#paint83_linear)"/>
<path d="M16.2059 46.6592C16.1857 46.1266 16.3215 45.2199 15.7001 44.6064C15.7001 44.6064 16.0036 45.348 15.5035 45.8502C15.5035 45.8502 15.2781 46.0626 15.1076 46.4132C15.0613 46.1941 14.9197 45.9379 14.5815 45.6952C14.5815 45.6952 14.9341 46.43 14.6104 46.8581C14.6104 46.8581 14.7405 46.4098 14.3879 46.1705C14.3879 46.1705 14.5295 46.4536 14.3445 46.939C14.3445 46.939 14.119 47.5019 14.5035 47.994C14.7347 48.1423 15.0208 48.2738 15.3764 48.3817C15.6481 48.2873 15.8793 48.1659 16.0758 48.021C16.6221 47.2558 16.388 46.0053 16.388 46.0053C16.4025 46.2075 16.3013 46.4637 16.2059 46.6592Z" fill="url(#paint84_linear)"/>
<path d="M15.7017 46.7038C15.5635 46.2531 15.4929 45.4428 14.7548 45.0741C14.7548 45.0741 15.2137 45.6325 14.8417 46.1881C14.8417 46.1881 14.6708 46.4265 14.5839 46.7695C14.4903 46.5936 14.2962 46.41 13.9148 46.2873C13.9148 46.2873 14.4198 46.8275 14.2019 47.2753C14.2019 47.2753 14.2279 46.8589 13.8333 46.7428C13.8333 46.7428 14.0335 46.9495 13.9626 47.4115C13.9626 47.4115 13.8699 47.95 14.3516 48.2745C14.6084 48.3432 14.9146 48.3838 15.2827 48.3866C15.5246 48.2375 15.7214 48.0755 15.8793 47.902C16.2375 47.1097 15.7322 46.0983 15.7322 46.0983C15.7913 46.2678 15.7505 46.5125 15.7017 46.7038Z" fill="url(#paint85_linear)"/>
<ellipse cx="22.6875" cy="51.9295" rx="2.05625" ry="2.05454" fill="url(#paint86_linear)"/>
<path d="M23.8589 51.3946C23.8723 51.5985 23.7652 51.862 23.662 52.0616C23.641 51.5157 23.7882 50.581 23.1153 49.9521C23.1153 49.9521 23.4422 50.7148 22.9032 51.2289C22.9032 51.2289 22.6585 51.4477 22.475 51.8088C22.4253 51.5837 22.2724 51.3224 21.9092 51.0717C21.9092 51.0717 22.2896 51.8258 21.9398 52.2677C21.9398 52.2677 22.0812 51.8088 21.7009 51.5624C21.7009 51.5624 21.8538 51.8556 21.6531 52.3506C21.6531 52.3506 21.1637 53.5211 22.7579 53.9842C24.4094 53.4361 23.8589 51.3946 23.8589 51.3946Z" fill="#F15A24"/>
<path d="M20.8783 51.4974C20.8642 51.6832 20.9771 51.9231 21.0859 52.105C21.1081 51.6077 20.9529 50.7563 21.6623 50.1836C21.6623 50.1836 21.3177 50.8782 21.886 51.3465C21.886 51.3465 22.144 51.5458 22.3374 51.8747C22.3898 51.6696 22.5511 51.4316 22.934 51.2033C22.934 51.2033 22.5329 51.8902 22.9017 52.2927C22.9017 52.2927 22.7526 51.8747 23.1537 51.6503C23.1537 51.6503 22.9924 51.9173 23.204 52.3681C23.204 52.3681 23.72 53.4343 22.0392 53.8561C20.2979 53.3569 20.8783 51.4974 20.8783 51.4974Z" fill="url(#paint87_linear)"/>
<path d="M24.5147 51.464C24.53 51.6524 24.4078 51.8957 24.29 52.0801C24.266 51.5759 24.434 50.7126 23.6661 50.1318C23.6661 50.1318 24.0391 50.8362 23.4239 51.311C23.4239 51.311 23.1447 51.5131 22.9353 51.8466C22.8785 51.6386 22.704 51.3973 22.2895 51.1658C22.2895 51.1658 22.7236 51.8623 22.3244 52.2704C22.3244 52.2704 22.4859 51.8466 22.0517 51.619C22.0517 51.619 22.2263 51.8898 21.9972 52.3469C21.9972 52.3469 21.4387 53.428 23.2581 53.8557C25.143 53.3495 24.5147 51.464 24.5147 51.464Z" fill="url(#paint88_linear)"/>
<path d="M21.7243 52.0886C21.8194 51.5097 21.7859 50.4867 22.6075 49.9087C22.6075 49.9087 22.1477 50.6768 22.6671 51.3028C22.6671 51.3028 22.9076 51.5681 23.0627 51.9795C23.1484 51.7431 23.354 51.4856 23.7838 51.2683C23.7838 51.2683 23.2641 52.0229 23.5896 52.5461C23.5896 52.5461 23.4975 52.0341 23.9485 51.8256C23.9485 51.8256 23.7384 52.1187 23.8976 52.6752C23.8976 52.6752 24.0062 53.0566 23.8281 53.4502C23.4426 53.5826 23.005 53.6844 22.5028 53.7659C22.1223 53.5915 21.7958 53.3877 21.5045 53.1702C21.2655 52.3143 21.5944 51.3428 21.5944 51.3428C21.5558 51.561 21.6356 51.8604 21.7243 52.0886Z" fill="url(#paint89_linear)"/>
<path d="M21.4286 52.4101C21.4488 51.9391 21.313 51.1373 21.9344 50.5947C21.9344 50.5947 21.6309 51.2505 22.131 51.6947C22.131 51.6947 22.3564 51.8825 22.527 52.1925C22.5732 51.9987 22.7148 51.7722 23.053 51.5576C23.053 51.5576 22.7004 52.2074 23.0241 52.586C23.0241 52.586 22.894 52.1895 23.2467 51.9779C23.2467 51.9779 23.105 52.2283 23.29 52.6575C23.29 52.6575 23.5155 53.1553 23.1311 53.5906C22.8998 53.7217 22.6137 53.838 22.2582 53.9334C21.9865 53.8499 21.7552 53.7426 21.5587 53.6144C21.0124 52.9377 21.2465 51.8318 21.2465 51.8318C21.2321 52.0107 21.3332 52.2372 21.4286 52.4101Z" fill="url(#paint90_linear)"/>
<path d="M23.8435 52.2364C23.8232 51.7038 23.9591 50.7971 23.3377 50.1836C23.3377 50.1836 23.6412 50.9252 23.1411 51.4274C23.1411 51.4274 22.9157 51.6398 22.7451 51.9903C22.6989 51.7712 22.5573 51.515 22.2191 51.2723C22.2191 51.2723 22.5717 52.0072 22.248 52.4352C22.248 52.4352 22.3781 51.9869 22.0254 51.7476C22.0254 51.7476 22.1671 52.0308 21.9821 52.5161C21.9821 52.5161 21.7566 53.0791 22.141 53.5712C22.3723 53.7195 22.6584 53.851 23.0139 53.9588C23.2856 53.8644 23.5169 53.7431 23.7134 53.5981C24.2597 52.833 24.0256 51.5824 24.0256 51.5824C24.04 51.7847 23.9389 52.0409 23.8435 52.2364Z" fill="url(#paint91_linear)"/>
<path d="M23.3392 52.2809C23.2009 51.8302 23.1303 51.02 22.3922 50.6513C22.3922 50.6513 22.8512 51.2096 22.4792 51.7652C22.4792 51.7652 22.3083 52.0037 22.2214 52.3466C22.1278 52.1707 21.9336 51.9871 21.5523 51.8645C21.5523 51.8645 22.0573 52.4047 21.8394 52.8525C21.8394 52.8525 21.8654 52.4361 21.4708 52.32C21.4708 52.32 21.6709 52.5267 21.6001 52.9886C21.6001 52.9886 21.5073 53.5271 21.989 53.8516C22.2458 53.9204 22.5521 53.9609 22.9202 53.9638C23.1621 53.8147 23.3588 53.6526 23.5167 53.4792C23.8749 52.6869 23.3697 51.6755 23.3697 51.6755C23.4287 51.8449 23.3879 52.0896 23.3392 52.2809Z" fill="url(#paint92_linear)"/>
<ellipse cx="11.525" cy="24.9276" rx="2.05625" ry="2.05454" fill="url(#paint93_linear)"/>
<path d="M12.6964 24.3926C12.7098 24.5966 12.6027 24.86 12.4995 25.0597C12.4785 24.5137 12.6257 23.579 11.9529 22.9502C11.9529 22.9502 12.2797 23.7128 11.7407 24.2269C11.7407 24.2269 11.496 24.4457 11.3125 24.8069C11.2628 24.5817 11.1099 24.3204 10.7467 24.0697C10.7467 24.0697 11.1271 24.8239 10.7773 25.2658C10.7773 25.2658 10.9188 24.8069 10.5384 24.5605C10.5384 24.5605 10.6913 24.8536 10.4906 25.3486C10.4906 25.3486 10.0013 26.5191 11.5954 26.9822C13.2469 26.4342 12.6964 24.3926 12.6964 24.3926Z" fill="#F15A24"/>
<path d="M9.71587 24.4955C9.70176 24.6812 9.81462 24.9211 9.92345 25.103C9.94562 24.6057 9.79044 23.7544 10.4998 23.1816C10.4998 23.1816 10.1552 23.8763 10.7235 24.3445C10.7235 24.3445 10.9815 24.5438 11.175 24.8728C11.2274 24.6677 11.3886 24.4297 11.7715 24.2013C11.7715 24.2013 11.3705 24.8882 11.7393 25.2907C11.7393 25.2907 11.5901 24.8728 11.9912 24.6483C11.9912 24.6483 11.83 24.9153 12.0416 25.3662C12.0416 25.3662 12.5575 26.4323 10.8767 26.8541C9.13546 26.3549 9.71587 24.4955 9.71587 24.4955Z" fill="url(#paint94_linear)"/>
<path d="M13.3522 24.4621C13.3675 24.6504 13.2453 24.8937 13.1275 25.0781C13.1035 24.5739 13.2715 23.7106 12.5036 23.1299C12.5036 23.1299 12.8766 23.8342 12.2614 24.309C12.2614 24.309 11.9822 24.5111 11.7728 24.8447C11.7161 24.6367 11.5415 24.3954 11.127 24.1639C11.127 24.1639 11.5612 24.8604 11.1619 25.2685C11.1619 25.2685 11.3234 24.8447 10.8893 24.6171C10.8893 24.6171 11.0638 24.8878 10.8347 25.345C10.8347 25.345 10.2762 26.426 12.0956 26.8537C13.9805 26.3475 13.3522 24.4621 13.3522 24.4621Z" fill="url(#paint95_linear)"/>
<path d="M10.5616 25.0859C10.6567 24.507 10.6233 23.484 11.445 22.906C11.445 22.906 10.9851 23.6741 11.5045 24.3C11.5045 24.3 11.745 24.5653 11.9001 24.9766C11.9857 24.7402 12.1914 24.4827 12.6212 24.2654C12.6212 24.2654 12.1014 25.02 12.4269 25.5432C12.4269 25.5432 12.3348 25.0312 12.7858 24.8226C12.7858 24.8226 12.5757 25.1157 12.7348 25.6723C12.7348 25.6723 12.8434 26.0536 12.6653 26.4472C12.2797 26.5797 11.8421 26.6815 11.34 26.7631C10.9594 26.5887 10.6329 26.3849 10.3417 26.1675C10.1028 25.3116 10.4318 24.3401 10.4318 24.3401C10.3932 24.5583 10.4729 24.8577 10.5616 25.0859Z" fill="url(#paint96_linear)"/>
<path d="M10.2661 25.4072C10.2864 24.9362 10.1505 24.1343 10.772 23.5918C10.772 23.5918 10.4685 24.2476 10.9685 24.6918C10.9685 24.6918 11.194 24.8796 11.3645 25.1896C11.4107 24.9958 11.5524 24.7693 11.8905 24.5546C11.8905 24.5546 11.5379 25.2045 11.8616 25.5831C11.8616 25.5831 11.7316 25.1866 12.0842 24.9749C12.0842 24.9749 11.9426 25.2253 12.1275 25.6546C12.1275 25.6546 12.353 26.1524 11.9686 26.5876C11.7373 26.7188 11.4512 26.835 11.0957 26.9304C10.824 26.847 10.5928 26.7397 10.3962 26.6115C9.84992 25.9348 10.084 24.8289 10.084 24.8289C10.0696 25.0077 10.1708 25.2343 10.2661 25.4072Z" fill="url(#paint97_linear)"/>
<path d="M12.681 25.2344C12.6608 24.7018 12.7966 23.7951 12.1752 23.1816C12.1752 23.1816 12.4787 23.9232 11.9786 24.4254C11.9786 24.4254 11.7532 24.6378 11.5827 24.9884C11.5364 24.7693 11.3948 24.5131 11.0566 24.2704C11.0566 24.2704 11.4092 25.0052 11.0855 25.4333C11.0855 25.4333 11.2156 24.985 10.863 24.7457C10.863 24.7457 11.0046 25.0288 10.8196 25.5142C10.8196 25.5142 10.5941 26.0771 10.9786 26.5692C11.2098 26.7175 11.4959 26.849 11.8515 26.9569C12.1232 26.8625 12.3544 26.7411 12.5509 26.5962C13.0972 25.831 12.8631 24.5805 12.8631 24.5805C12.8776 24.7827 12.7764 25.0389 12.681 25.2344Z" fill="url(#paint98_linear)"/>
<path d="M12.1767 25.278C12.0384 24.8273 11.9679 24.0171 11.2297 23.6483C11.2297 23.6483 11.6887 24.2067 11.3167 24.7623C11.3167 24.7623 11.1458 25.0008 11.0589 25.3437C10.9653 25.1678 10.7712 24.9842 10.3898 24.8615C10.3898 24.8615 10.8948 25.4017 10.6769 25.8496C10.6769 25.8496 10.7029 25.4331 10.3083 25.317C10.3083 25.317 10.5085 25.5237 10.4376 25.9857C10.4376 25.9857 10.3448 26.5242 10.8265 26.8487C11.0834 26.9174 11.3896 26.958 11.7577 26.9609C11.9996 26.8117 12.1963 26.6497 12.3543 26.4762C12.7124 25.6839 12.2072 24.6725 12.2072 24.6725C12.2663 24.842 12.2254 25.0867 12.1767 25.278Z" fill="url(#paint99_linear)"/>
<ellipse cx="15.6376" cy="17.8817" rx="2.05625" ry="2.05454" fill="url(#paint100_linear)"/>
<path d="M16.809 17.3467C16.8223 17.5507 16.7153 17.8141 16.6121 18.0138C16.5911 17.4678 16.7382 16.5331 16.0654 15.9043C16.0654 15.9043 16.3923 16.6669 15.8532 17.181C15.8532 17.181 15.6086 17.3998 15.4251 17.761C15.3754 17.5358 15.2225 17.2745 14.8593 17.0238C14.8593 17.0238 15.2397 17.778 14.8899 18.2199C14.8899 18.2199 15.0313 17.761 14.6509 17.5146C14.6509 17.5146 14.8039 17.8077 14.6032 18.3027C14.6032 18.3027 14.1138 19.4732 15.708 19.9363C17.3595 19.3883 16.809 17.3467 16.809 17.3467Z" fill="#F15A24"/>
<path d="M13.8284 17.4496C13.8143 17.6353 13.9272 17.8752 14.036 18.0571C14.0582 17.5599 13.903 16.7085 14.6124 16.1357C14.6124 16.1357 14.2678 16.8304 14.8361 17.2986C14.8361 17.2986 15.094 17.4979 15.2875 17.8269C15.3399 17.6218 15.5011 17.3838 15.8841 17.1555C15.8841 17.1555 15.483 17.8424 15.8518 18.2448C15.8518 18.2448 15.7027 17.8269 16.1037 17.6024C16.1037 17.6024 15.9425 17.8694 16.1541 18.3203C16.1541 18.3203 16.67 19.3864 14.9892 19.8082C13.248 19.309 13.8284 17.4496 13.8284 17.4496Z" fill="url(#paint101_linear)"/>
<path d="M17.4648 17.4162C17.48 17.6045 17.3579 17.8478 17.2401 18.0322C17.2161 17.528 17.384 16.6647 16.6161 16.084C16.6161 16.084 16.9892 16.7883 16.374 17.2631C16.374 17.2631 16.0948 17.4652 15.8853 17.7988C15.8286 17.5908 15.6541 17.3495 15.2396 17.118C15.2396 17.118 15.6737 17.8145 15.2745 18.2226C15.2745 18.2226 15.4359 17.7988 15.0018 17.5712C15.0018 17.5712 15.1763 17.8419 14.9473 18.2991C14.9473 18.2991 14.3888 19.3801 16.2082 19.8078C18.093 19.3017 17.4648 17.4162 17.4648 17.4162Z" fill="url(#paint102_linear)"/>
<path d="M14.6744 18.0407C14.7695 17.4619 14.736 16.4388 15.5576 15.8609C15.5576 15.8609 15.0977 16.629 15.6172 17.2549C15.6172 17.2549 15.8577 17.5203 16.0128 17.9316C16.0984 17.6952 16.3041 17.4377 16.7338 17.2205C16.7338 17.2205 16.2142 17.975 16.5397 18.4982C16.5397 18.4982 16.4475 17.9863 16.8986 17.7777C16.8986 17.7777 16.6884 18.0708 16.8477 18.6274C16.8477 18.6274 16.9562 19.0088 16.7782 19.4024C16.3927 19.5348 15.9551 19.6365 15.4529 19.7181C15.0724 19.5437 14.7459 19.3398 14.4546 19.1224C14.2156 18.2664 14.5445 17.295 14.5445 17.295C14.5059 17.5132 14.5857 17.8126 14.6744 18.0407Z" fill="url(#paint103_linear)"/>
<path d="M14.3787 18.3623C14.3989 17.8913 14.2631 17.0894 14.8845 16.5469C14.8845 16.5469 14.581 17.2027 15.0811 17.6468C15.0811 17.6468 15.3065 17.8346 15.477 18.1446C15.5233 17.9509 15.6649 17.7243 16.0031 17.5097C16.0031 17.5097 15.6505 18.1596 15.9742 18.5381C15.9742 18.5381 15.8441 18.1417 16.1967 17.93C16.1967 17.93 16.0551 18.1804 16.2401 18.6097C16.2401 18.6097 16.4655 19.1075 16.0811 19.5427C15.8499 19.6739 15.5637 19.7901 15.2082 19.8855C14.9365 19.802 14.7053 19.6947 14.5088 19.5665C13.9625 18.8899 14.1966 17.784 14.1966 17.784C14.1821 17.9628 14.2833 18.1894 14.3787 18.3623Z" fill="url(#paint104_linear)"/>
<path d="M16.7936 18.1885C16.7733 17.6559 16.9092 16.7492 16.2877 16.1357C16.2877 16.1357 16.5912 16.8773 16.0912 17.3795C16.0912 17.3795 15.8657 17.5919 15.6952 17.9425C15.649 17.7234 15.5073 17.4672 15.1692 17.2245C15.1692 17.2245 15.5218 17.9593 15.1981 18.3874C15.1981 18.3874 15.3281 17.9391 14.9755 17.6998C14.9755 17.6998 15.1171 17.9829 14.9321 18.4683C14.9321 18.4683 14.7067 19.0312 15.0911 19.5233C15.3223 19.6716 15.6085 19.8031 15.964 19.911C16.2357 19.8166 16.4669 19.6952 16.6635 19.5503C17.2098 18.7851 16.9756 17.5346 16.9756 17.5346C16.9901 17.7368 16.8889 17.993 16.7936 18.1885Z" fill="url(#paint105_linear)"/>
<path d="M16.2894 18.2331C16.1511 17.7824 16.0805 16.9721 15.3424 16.6034C15.3424 16.6034 15.8014 17.1617 15.4294 17.7174C15.4294 17.7174 15.2585 17.9558 15.1716 18.2988C15.078 18.1229 14.8838 17.9393 14.5025 17.8166C14.5025 17.8166 15.0075 18.3568 14.7896 18.8046C14.7896 18.8046 14.8156 18.3882 14.421 18.2721C14.421 18.2721 14.6211 18.4788 14.5503 18.9408C14.5503 18.9408 14.4575 19.4793 14.9392 19.8038C15.196 19.8725 15.5023 19.9131 15.8704 19.9159C16.1123 19.7668 16.309 19.6048 16.4669 19.4313C16.8251 18.639 16.3199 17.6276 16.3199 17.6276C16.3789 17.7971 16.3381 18.0418 16.2894 18.2331Z" fill="url(#paint106_linear)"/>
<ellipse cx="22.6875" cy="12.8934" rx="2.05625" ry="2.05454" fill="url(#paint107_linear)"/>
<path d="M23.8589 12.3575C23.8723 12.5614 23.7652 12.8248 23.662 13.0245C23.641 12.4786 23.7882 11.5439 23.1153 10.915C23.1153 10.915 23.4422 11.6777 22.9032 12.1918C22.9032 12.1918 22.6585 12.4106 22.475 12.7717C22.4253 12.5466 22.2724 12.2853 21.9092 12.0346C21.9092 12.0346 22.2896 12.7887 21.9398 13.2306C21.9398 13.2306 22.0812 12.7717 21.7009 12.5253C21.7009 12.5253 21.8538 12.8185 21.6531 13.3134C21.6531 13.3134 21.1637 14.484 22.7579 14.9471C24.4094 14.399 23.8589 12.3575 23.8589 12.3575Z" fill="#F15A24"/>
<path d="M20.8783 12.4603C20.8642 12.6461 20.9771 12.886 21.0859 13.0679C21.1081 12.5706 20.9529 11.7192 21.6623 11.1465C21.6623 11.1465 21.3177 11.8411 21.886 12.3094C21.886 12.3094 22.144 12.5087 22.3374 12.8376C22.3898 12.6325 22.5511 12.3945 22.934 12.1662C22.934 12.1662 22.5329 12.8531 22.9017 13.2556C22.9017 13.2556 22.7526 12.8376 23.1537 12.6132C23.1537 12.6132 22.9924 12.8802 23.204 13.331C23.204 13.331 23.72 14.3972 22.0392 14.819C20.2979 14.3198 20.8783 12.4603 20.8783 12.4603Z" fill="url(#paint108_linear)"/>
<path d="M24.5147 12.4279C24.53 12.6162 24.4078 12.8595 24.29 13.044C24.266 12.5397 24.434 11.6765 23.6661 11.0957C23.6661 11.0957 24.0391 11.8001 23.4239 12.2749C23.4239 12.2749 23.1447 12.4769 22.9353 12.8105C22.8785 12.6025 22.704 12.3612 22.2895 12.1297C22.2895 12.1297 22.7236 12.8262 22.3244 13.2343C22.3244 13.2343 22.4859 12.8105 22.0517 12.5829C22.0517 12.5829 22.2263 12.8536 21.9972 13.3108C21.9972 13.3108 21.4387 14.3918 23.2581 14.8196C25.143 14.3134 24.5147 12.4279 24.5147 12.4279Z" fill="url(#paint109_linear)"/>
<path d="M21.724 13.0517C21.8192 12.4728 21.7858 11.4498 22.6075 10.8718C22.6075 10.8718 22.1476 11.6399 22.6669 12.2658C22.6669 12.2658 22.9075 12.5311 23.0625 12.9425C23.1482 12.706 23.3538 12.4485 23.7836 12.2312C23.7836 12.2312 23.2639 12.9858 23.5894 13.509C23.5894 13.509 23.4972 12.9971 23.9483 12.7884C23.9483 12.7884 23.7382 13.0816 23.8973 13.6381C23.8973 13.6381 24.0059 14.0195 23.8278 14.4131C23.4422 14.5455 23.0046 14.6473 22.5024 14.7289C22.1219 14.5545 21.7954 14.3508 21.5041 14.1333C21.2652 13.2774 21.5943 12.3059 21.5943 12.3059C21.5556 12.5241 21.6354 12.8235 21.724 13.0517Z" fill="url(#paint110_linear)"/>
<path d="M21.4286 13.373C21.4488 12.902 21.313 12.1001 21.9344 11.5576C21.9344 11.5576 21.6309 12.2134 22.131 12.6576C22.131 12.6576 22.3564 12.8454 22.527 13.1554C22.5732 12.9616 22.7148 12.7351 23.053 12.5205C23.053 12.5205 22.7004 13.1703 23.0241 13.5489C23.0241 13.5489 22.894 13.1524 23.2467 12.9408C23.2467 12.9408 23.105 13.1912 23.29 13.6204C23.29 13.6204 23.5155 14.1182 23.1311 14.5534C22.8998 14.6846 22.6137 14.8009 22.2582 14.8963C21.9865 14.8128 21.7552 14.7055 21.5587 14.5773C21.0124 13.9006 21.2465 12.7947 21.2465 12.7947C21.2321 12.9736 21.3332 13.2001 21.4286 13.373Z" fill="url(#paint111_linear)"/>
<path d="M23.8435 13.1993C23.8232 12.6667 23.9591 11.76 23.3377 11.1465C23.3377 11.1465 23.6412 11.888 23.1411 12.3903C23.1411 12.3903 22.9157 12.6026 22.7451 12.9532C22.6989 12.7341 22.5573 12.4779 22.2191 12.2352C22.2191 12.2352 22.5717 12.9701 22.248 13.3981C22.248 13.3981 22.3781 12.9498 22.0254 12.7105C22.0254 12.7105 22.1671 12.9936 21.9821 13.479C21.9821 13.479 21.7566 14.0419 22.141 14.5341C22.3723 14.6824 22.6584 14.8138 23.0139 14.9217C23.2856 14.8273 23.5169 14.706 23.7134 14.561C24.2597 13.7959 24.0256 12.5453 24.0256 12.5453C24.04 12.7476 23.9389 13.0038 23.8435 13.1993Z" fill="url(#paint112_linear)"/>
<path d="M23.3392 13.2448C23.2009 12.7941 23.1303 11.9839 22.3922 11.6151C22.3922 11.6151 22.8512 12.1735 22.4792 12.7291C22.4792 12.7291 22.3083 12.9676 22.2214 13.3105C22.1278 13.1346 21.9336 12.951 21.5523 12.8283C21.5523 12.8283 22.0573 13.3685 21.8394 13.8164C21.8394 13.8164 21.8654 13.3999 21.4708 13.2838C21.4708 13.2838 21.6709 13.4905 21.6001 13.9525C21.6001 13.9525 21.5073 14.491 21.989 14.8155C22.2458 14.8842 22.5521 14.9248 22.9202 14.9277C23.1621 14.7785 23.3588 14.6165 23.5167 14.443C23.8749 13.6507 23.3697 12.6393 23.3697 12.6393C23.4287 12.8088 23.3879 13.0535 23.3392 13.2448Z" fill="url(#paint113_linear)"/>
<defs>
<linearGradient id="paint0_linear" x1="-4.7703" y1="-1.94925" x2="69.9602" y2="67.2621" gradientUnits="userSpaceOnUse">
<stop stop-color="#969699"/>
<stop offset="0.2788" stop-color="#B7ADAE"/>
<stop offset="1" stop-color="#E5E5E5"/>
</linearGradient>
<linearGradient id="paint1_linear" x1="31.8955" y1="1" x2="31.8955" y2="62.7967" gradientUnits="userSpaceOnUse">
<stop stop-color="#F1E6E1"/>
<stop offset="1" stop-color="#CDC6C5"/>
</linearGradient>
<linearGradient id="paint2_linear" x1="31.5" y1="9.07715" x2="31.5" y2="13.1862" gradientUnits="userSpaceOnUse">
<stop offset="0.234375" stop-color="#F79221"/>
<stop offset="0.458333" stop-color="#F47521"/>
<stop offset="1" stop-color="#F15A24"/>
</linearGradient>
<linearGradient id="paint3_linear" x1="30.8446" y1="9.38574" x2="30.8446" y2="13.0582" gradientUnits="userSpaceOnUse">
<stop stop-color="#F15A24"/>
<stop offset="1" stop-color="#F15A24" stop-opacity="0"/>
</linearGradient>
<linearGradient id="paint4_linear" x1="32.0784" y1="9.33398" x2="32.0784" y2="13.0578" gradientUnits="userSpaceOnUse">
<stop stop-color="#F15A24"/>
<stop offset="1" stop-color="#F15A24" stop-opacity="0"/>
</linearGradient>
<linearGradient id="paint5_linear" x1="31.8249" y1="9.16175" x2="31.346" y2="12.9719" gradientUnits="userSpaceOnUse">
<stop stop-color="#F15A24"/>
<stop offset="1" stop-color="#C74D21" stop-opacity="0"/>
</linearGradient>
<linearGradient id="paint6_linear" x1="31.0888" y1="9.79688" x2="31.0888" y2="13.1355" gradientUnits="userSpaceOnUse">
<stop stop-color="#F04D13"/>
<stop offset="1" stop-color="#F9AA1F"/>
</linearGradient>
<linearGradient id="paint7_linear" x1="31.8085" y1="9.38574" x2="31.8085" y2="13.161" gradientUnits="userSpaceOnUse">
<stop stop-color="#F15A24"/>
<stop offset="0.125" stop-color="#F26024"/>
<stop offset="1" stop-color="#F9AA1F"/>
</linearGradient>
<linearGradient id="paint8_linear" x1="30.8741" y1="9.93938" x2="31.714" y2="13.1708" gradientUnits="userSpaceOnUse">
<stop stop-color="#F79221"/>
<stop offset="0.625" stop-color="#F15A24"/>
<stop offset="1" stop-color="#F47622"/>
</linearGradient>
<linearGradient id="paint9_linear" x1="31.5" y1="51.6357" x2="31.5" y2="55.7448" gradientUnits="userSpaceOnUse">
<stop offset="0.234375" stop-color="#F79221"/>
<stop offset="0.458333" stop-color="#F47521"/>
<stop offset="1" stop-color="#F15A24"/>
</linearGradient>
<linearGradient id="paint10_linear" x1="30.8446" y1="51.9443" x2="30.8446" y2="55.6168" gradientUnits="userSpaceOnUse">
<stop stop-color="#F15A24"/>
<stop offset="1" stop-color="#F15A24" stop-opacity="0"/>
</linearGradient>
<linearGradient id="paint11_linear" x1="32.0783" y1="51.8926" x2="32.0783" y2="55.6164" gradientUnits="userSpaceOnUse">
<stop stop-color="#F15A24"/>
<stop offset="1" stop-color="#F15A24" stop-opacity="0"/>
</linearGradient>
<linearGradient id="paint12_linear" x1="31.8248" y1="51.7203" x2="31.3459" y2="55.5305" gradientUnits="userSpaceOnUse">
<stop stop-color="#F15A24"/>
<stop offset="1" stop-color="#C74D21" stop-opacity="0"/>
</linearGradient>
<linearGradient id="paint13_linear" x1="31.0887" y1="52.3555" x2="31.0887" y2="55.6941" gradientUnits="userSpaceOnUse">
<stop stop-color="#F04D13"/>
<stop offset="1" stop-color="#F9AA1F"/>
</linearGradient>
<linearGradient id="paint14_linear" x1="31.8084" y1="51.9443" x2="31.8084" y2="55.7196" gradientUnits="userSpaceOnUse">
<stop stop-color="#F15A24"/>
<stop offset="0.125" stop-color="#F26024"/>
<stop offset="1" stop-color="#F9AA1F"/>
</linearGradient>
<linearGradient id="paint15_linear" x1="30.874" y1="52.498" x2="31.7139" y2="55.7294" gradientUnits="userSpaceOnUse">
<stop stop-color="#F79221"/>
<stop offset="0.625" stop-color="#F15A24"/>
<stop offset="1" stop-color="#F47622"/>
</linearGradient>
<linearGradient id="paint16_linear" x1="52.9437" y1="30.209" x2="52.9437" y2="34.3181" gradientUnits="userSpaceOnUse">
<stop offset="0.234375" stop-color="#F79221"/>
<stop offset="0.458333" stop-color="#F47521"/>
<stop offset="1" stop-color="#F15A24"/>
</linearGradient>
<linearGradient id="paint17_linear" x1="52.2884" y1="30.5176" x2="52.2884" y2="34.1901" gradientUnits="userSpaceOnUse">
<stop stop-color="#F15A24"/>
<stop offset="1" stop-color="#F15A24" stop-opacity="0"/>
</linearGradient>
<linearGradient id="paint18_linear" x1="53.522" y1="30.4658" x2="53.522" y2="34.1897" gradientUnits="userSpaceOnUse">
<stop stop-color="#F15A24"/>
<stop offset="1" stop-color="#F15A24" stop-opacity="0"/>
</linearGradient>
<linearGradient id="paint19_linear" x1="53.2686" y1="30.2936" x2="52.7898" y2="34.1038" gradientUnits="userSpaceOnUse">
<stop stop-color="#F15A24"/>
<stop offset="1" stop-color="#C74D21" stop-opacity="0"/>
</linearGradient>
<linearGradient id="paint20_linear" x1="52.5325" y1="30.9287" x2="52.5325" y2="34.2673" gradientUnits="userSpaceOnUse">
<stop stop-color="#F04D13"/>
<stop offset="1" stop-color="#F9AA1F"/>
</linearGradient>
<linearGradient id="paint21_linear" x1="53.2521" y1="30.5176" x2="53.2521" y2="34.2928" gradientUnits="userSpaceOnUse">
<stop stop-color="#F15A24"/>
<stop offset="0.125" stop-color="#F26024"/>
<stop offset="1" stop-color="#F9AA1F"/>
</linearGradient>
<linearGradient id="paint22_linear" x1="52.3178" y1="31.0712" x2="53.1578" y2="34.3027" gradientUnits="userSpaceOnUse">
<stop stop-color="#F79221"/>
<stop offset="0.625" stop-color="#F15A24"/>
<stop offset="1" stop-color="#F47622"/>
</linearGradient>
<linearGradient id="paint23_linear" x1="51.7688" y1="36.668" x2="51.7688" y2="40.7771" gradientUnits="userSpaceOnUse">
<stop offset="0.234375" stop-color="#F79221"/>
<stop offset="0.458333" stop-color="#F47521"/>
<stop offset="1" stop-color="#F15A24"/>
</linearGradient>
<linearGradient id="paint24_linear" x1="51.1133" y1="36.9756" x2="51.1133" y2="40.6481" gradientUnits="userSpaceOnUse">
<stop stop-color="#F15A24"/>
<stop offset="1" stop-color="#F15A24" stop-opacity="0"/>
</linearGradient>
<linearGradient id="paint25_linear" x1="52.3471" y1="36.9248" x2="52.3471" y2="40.6487" gradientUnits="userSpaceOnUse">
<stop stop-color="#F15A24"/>
<stop offset="1" stop-color="#F15A24" stop-opacity="0"/>
</linearGradient>
<linearGradient id="paint26_linear" x1="52.0936" y1="36.7517" x2="51.6151" y2="40.562" gradientUnits="userSpaceOnUse">
<stop stop-color="#F15A24"/>
<stop offset="1" stop-color="#C74D21" stop-opacity="0"/>
</linearGradient>
<linearGradient id="paint27_linear" x1="51.3575" y1="37.3867" x2="51.3575" y2="40.7254" gradientUnits="userSpaceOnUse">
<stop stop-color="#F04D13"/>
<stop offset="1" stop-color="#F9AA1F"/>
</linearGradient>
<linearGradient id="paint28_linear" x1="52.0772" y1="36.9756" x2="52.0772" y2="40.7508" gradientUnits="userSpaceOnUse">
<stop stop-color="#F15A24"/>
<stop offset="0.125" stop-color="#F26024"/>
<stop offset="1" stop-color="#F9AA1F"/>
</linearGradient>
<linearGradient id="paint29_linear" x1="51.1428" y1="37.5292" x2="51.9827" y2="40.7607" gradientUnits="userSpaceOnUse">
<stop stop-color="#F79221"/>
<stop offset="0.625" stop-color="#F15A24"/>
<stop offset="1" stop-color="#F47622"/>
</linearGradient>
<linearGradient id="paint30_linear" x1="39.7251" y1="49.875" x2="39.7251" y2="53.9841" gradientUnits="userSpaceOnUse">
<stop offset="0.234375" stop-color="#F79221"/>
<stop offset="0.458333" stop-color="#F47521"/>
<stop offset="1" stop-color="#F15A24"/>
</linearGradient>
<linearGradient id="paint31_linear" x1="39.0697" y1="50.1836" x2="39.0697" y2="53.8561" gradientUnits="userSpaceOnUse">
<stop stop-color="#F15A24"/>
<stop offset="1" stop-color="#F15A24" stop-opacity="0"/>
</linearGradient>
<linearGradient id="paint32_linear" x1="40.3034" y1="50.1318" x2="40.3034" y2="53.8557" gradientUnits="userSpaceOnUse">
<stop stop-color="#F15A24"/>
<stop offset="1" stop-color="#F15A24" stop-opacity="0"/>
</linearGradient>
<linearGradient id="paint33_linear" x1="40.0499" y1="49.9596" x2="39.571" y2="53.7698" gradientUnits="userSpaceOnUse">
<stop stop-color="#F15A24"/>
<stop offset="1" stop-color="#C74D21" stop-opacity="0"/>
</linearGradient>
<linearGradient id="paint34_linear" x1="39.3138" y1="50.5947" x2="39.3138" y2="53.9334" gradientUnits="userSpaceOnUse">
<stop stop-color="#F04D13"/>
<stop offset="1" stop-color="#F9AA1F"/>
</linearGradient>
<linearGradient id="paint35_linear" x1="40.0335" y1="50.1836" x2="40.0335" y2="53.9588" gradientUnits="userSpaceOnUse">
<stop stop-color="#F15A24"/>
<stop offset="0.125" stop-color="#F26024"/>
<stop offset="1" stop-color="#F9AA1F"/>
</linearGradient>
<linearGradient id="paint36_linear" x1="39.0991" y1="50.7372" x2="39.939" y2="53.9687" gradientUnits="userSpaceOnUse">
<stop stop-color="#F79221"/>
<stop offset="0.625" stop-color="#F15A24"/>
<stop offset="1" stop-color="#F47622"/>
</linearGradient>
<linearGradient id="paint37_linear" x1="47.3625" y1="44.2979" x2="47.3625" y2="48.4069" gradientUnits="userSpaceOnUse">
<stop offset="0.234375" stop-color="#F79221"/>
<stop offset="0.458333" stop-color="#F47521"/>
<stop offset="1" stop-color="#F15A24"/>
</linearGradient>
<linearGradient id="paint38_linear" x1="46.7071" y1="44.6064" x2="46.7071" y2="48.2789" gradientUnits="userSpaceOnUse">
<stop stop-color="#F15A24"/>
<stop offset="1" stop-color="#F15A24" stop-opacity="0"/>
</linearGradient>
<linearGradient id="paint39_linear" x1="47.9408" y1="44.5547" x2="47.9408" y2="48.2785" gradientUnits="userSpaceOnUse">
<stop stop-color="#F15A24"/>
<stop offset="1" stop-color="#F15A24" stop-opacity="0"/>
</linearGradient>
<linearGradient id="paint40_linear" x1="47.6873" y1="44.3825" x2="47.2085" y2="48.1926" gradientUnits="userSpaceOnUse">
<stop stop-color="#F15A24"/>
<stop offset="1" stop-color="#C74D21" stop-opacity="0"/>
</linearGradient>
<linearGradient id="paint41_linear" x1="46.9512" y1="45.0166" x2="46.9512" y2="48.3552" gradientUnits="userSpaceOnUse">
<stop stop-color="#F04D13"/>
<stop offset="1" stop-color="#F9AA1F"/>
</linearGradient>
<linearGradient id="paint42_linear" x1="47.671" y1="44.6064" x2="47.671" y2="48.3817" gradientUnits="userSpaceOnUse">
<stop stop-color="#F15A24"/>
<stop offset="0.125" stop-color="#F26024"/>
<stop offset="1" stop-color="#F9AA1F"/>
</linearGradient>
<linearGradient id="paint43_linear" x1="46.7365" y1="45.1601" x2="47.5765" y2="48.3915" gradientUnits="userSpaceOnUse">
<stop stop-color="#F79221"/>
<stop offset="0.625" stop-color="#F15A24"/>
<stop offset="1" stop-color="#F47622"/>
</linearGradient>
<linearGradient id="paint44_linear" x1="51.7688" y1="22.873" x2="51.7688" y2="26.9821" gradientUnits="userSpaceOnUse">
<stop offset="0.234375" stop-color="#F79221"/>
<stop offset="0.458333" stop-color="#F47521"/>
<stop offset="1" stop-color="#F15A24"/>
</linearGradient>
<linearGradient id="paint45_linear" x1="51.1134" y1="23.1816" x2="51.1134" y2="26.8541" gradientUnits="userSpaceOnUse">
<stop stop-color="#F15A24"/>
<stop offset="1" stop-color="#F15A24" stop-opacity="0"/>
</linearGradient>
<linearGradient id="paint46_linear" x1="52.3471" y1="23.1299" x2="52.3471" y2="26.8537" gradientUnits="userSpaceOnUse">
<stop stop-color="#F15A24"/>
<stop offset="1" stop-color="#F15A24" stop-opacity="0"/>
</linearGradient>
<linearGradient id="paint47_linear" x1="52.0936" y1="22.9568" x2="51.6151" y2="26.767" gradientUnits="userSpaceOnUse">
<stop stop-color="#F15A24"/>
<stop offset="1" stop-color="#C74D21" stop-opacity="0"/>
</linearGradient>
<linearGradient id="paint48_linear" x1="51.3575" y1="23.5918" x2="51.3575" y2="26.9304" gradientUnits="userSpaceOnUse">
<stop stop-color="#F04D13"/>
<stop offset="1" stop-color="#F9AA1F"/>
</linearGradient>
<linearGradient id="paint49_linear" x1="52.0772" y1="23.1816" x2="52.0772" y2="26.9569" gradientUnits="userSpaceOnUse">
<stop stop-color="#F15A24"/>
<stop offset="0.125" stop-color="#F26024"/>
<stop offset="1" stop-color="#F9AA1F"/>
</linearGradient>
<linearGradient id="paint50_linear" x1="51.1428" y1="23.7343" x2="51.9827" y2="26.9657" gradientUnits="userSpaceOnUse">
<stop stop-color="#F79221"/>
<stop offset="0.625" stop-color="#F15A24"/>
<stop offset="1" stop-color="#F47622"/>
</linearGradient>
<linearGradient id="paint51_linear" x1="47.3625" y1="15.8271" x2="47.3625" y2="19.9362" gradientUnits="userSpaceOnUse">
<stop offset="0.234375" stop-color="#F79221"/>
<stop offset="0.458333" stop-color="#F47521"/>
<stop offset="1" stop-color="#F15A24"/>
</linearGradient>
<linearGradient id="paint52_linear" x1="46.7071" y1="16.1357" x2="46.7071" y2="19.8082" gradientUnits="userSpaceOnUse">
<stop stop-color="#F15A24"/>
<stop offset="1" stop-color="#F15A24" stop-opacity="0"/>
</linearGradient>
<linearGradient id="paint53_linear" x1="47.9408" y1="16.084" x2="47.9408" y2="19.8078" gradientUnits="userSpaceOnUse">
<stop stop-color="#F15A24"/>
<stop offset="1" stop-color="#F15A24" stop-opacity="0"/>
</linearGradient>
<linearGradient id="paint54_linear" x1="47.6873" y1="15.9117" x2="47.2085" y2="19.7219" gradientUnits="userSpaceOnUse">
<stop stop-color="#F15A24"/>
<stop offset="1" stop-color="#C74D21" stop-opacity="0"/>
</linearGradient>
<linearGradient id="paint55_linear" x1="46.9512" y1="16.5469" x2="46.9512" y2="19.8855" gradientUnits="userSpaceOnUse">
<stop stop-color="#F04D13"/>
<stop offset="1" stop-color="#F9AA1F"/>
</linearGradient>
<linearGradient id="paint56_linear" x1="47.671" y1="16.1357" x2="47.671" y2="19.911" gradientUnits="userSpaceOnUse">
<stop stop-color="#F15A24"/>
<stop offset="0.125" stop-color="#F26024"/>
<stop offset="1" stop-color="#F9AA1F"/>
</linearGradient>
<linearGradient id="paint57_linear" x1="46.7365" y1="16.6894" x2="47.5765" y2="19.9208" gradientUnits="userSpaceOnUse">
<stop stop-color="#F79221"/>
<stop offset="0.625" stop-color="#F15A24"/>
<stop offset="1" stop-color="#F47622"/>
</linearGradient>
<linearGradient id="paint58_linear" x1="39.7251" y1="10.5459" x2="39.7251" y2="14.655" gradientUnits="userSpaceOnUse">
<stop offset="0.234375" stop-color="#F79221"/>
<stop offset="0.458333" stop-color="#F47521"/>
<stop offset="1" stop-color="#F15A24"/>
</linearGradient>
<linearGradient id="paint59_linear" x1="39.0697" y1="10.8535" x2="39.0697" y2="14.526" gradientUnits="userSpaceOnUse">
<stop stop-color="#F15A24"/>
<stop offset="1" stop-color="#F15A24" stop-opacity="0"/>
</linearGradient>
<linearGradient id="paint60_linear" x1="40.3034" y1="10.8027" x2="40.3034" y2="14.5266" gradientUnits="userSpaceOnUse">
<stop stop-color="#F15A24"/>
<stop offset="1" stop-color="#F15A24" stop-opacity="0"/>
</linearGradient>
<linearGradient id="paint61_linear" x1="40.0499" y1="10.6297" x2="39.5714" y2="14.4399" gradientUnits="userSpaceOnUse">
<stop stop-color="#F15A24"/>
<stop offset="1" stop-color="#C74D21" stop-opacity="0"/>
</linearGradient>
<linearGradient id="paint62_linear" x1="39.3138" y1="11.2646" x2="39.3138" y2="14.6033" gradientUnits="userSpaceOnUse">
<stop stop-color="#F04D13"/>
<stop offset="1" stop-color="#F9AA1F"/>
</linearGradient>
<linearGradient id="paint63_linear" x1="40.0335" y1="10.8535" x2="40.0335" y2="14.6287" gradientUnits="userSpaceOnUse">
<stop stop-color="#F15A24"/>
<stop offset="0.125" stop-color="#F26024"/>
<stop offset="1" stop-color="#F9AA1F"/>
</linearGradient>
<linearGradient id="paint64_linear" x1="39.0991" y1="11.4072" x2="39.939" y2="14.6386" gradientUnits="userSpaceOnUse">
<stop stop-color="#F79221"/>
<stop offset="0.625" stop-color="#F15A24"/>
<stop offset="1" stop-color="#F47622"/>
</linearGradient>
<linearGradient id="paint65_linear" x1="10.0563" y1="30.209" x2="10.0563" y2="34.3181" gradientUnits="userSpaceOnUse">
<stop offset="0.234375" stop-color="#F79221"/>
<stop offset="0.458333" stop-color="#F47521"/>
<stop offset="1" stop-color="#F15A24"/>
</linearGradient>
<linearGradient id="paint66_linear" x1="9.40086" y1="30.5176" x2="9.40086" y2="34.1901" gradientUnits="userSpaceOnUse">
<stop stop-color="#F15A24"/>
<stop offset="1" stop-color="#F15A24" stop-opacity="0"/>
</linearGradient>
<linearGradient id="paint67_linear" x1="10.6346" y1="30.4658" x2="10.6346" y2="34.1897" gradientUnits="userSpaceOnUse">
<stop stop-color="#F15A24"/>
<stop offset="1" stop-color="#F15A24" stop-opacity="0"/>
</linearGradient>
<linearGradient id="paint68_linear" x1="10.3811" y1="30.2936" x2="9.9022" y2="34.1038" gradientUnits="userSpaceOnUse">
<stop stop-color="#F15A24"/>
<stop offset="1" stop-color="#C74D21" stop-opacity="0"/>
</linearGradient>
<linearGradient id="paint69_linear" x1="9.64496" y1="30.9287" x2="9.64496" y2="34.2673" gradientUnits="userSpaceOnUse">
<stop stop-color="#F04D13"/>
<stop offset="1" stop-color="#F9AA1F"/>
</linearGradient>
<linearGradient id="paint70_linear" x1="10.3647" y1="30.5176" x2="10.3647" y2="34.2928" gradientUnits="userSpaceOnUse">
<stop stop-color="#F15A24"/>
<stop offset="0.125" stop-color="#F26024"/>
<stop offset="1" stop-color="#F9AA1F"/>
</linearGradient>
<linearGradient id="paint71_linear" x1="9.43038" y1="31.0712" x2="10.2703" y2="34.3027" gradientUnits="userSpaceOnUse">
<stop stop-color="#F79221"/>
<stop offset="0.625" stop-color="#F15A24"/>
<stop offset="1" stop-color="#F47622"/>
</linearGradient>
<linearGradient id="paint72_linear" x1="11.2312" y1="36.668" x2="11.2312" y2="40.7771" gradientUnits="userSpaceOnUse">
<stop offset="0.234375" stop-color="#F79221"/>
<stop offset="0.458333" stop-color="#F47521"/>
<stop offset="1" stop-color="#F15A24"/>
</linearGradient>
<linearGradient id="paint73_linear" x1="10.5758" y1="36.9756" x2="10.5758" y2="40.6481" gradientUnits="userSpaceOnUse">
<stop stop-color="#F15A24"/>
<stop offset="1" stop-color="#F15A24" stop-opacity="0"/>
</linearGradient>
<linearGradient id="paint74_linear" x1="11.8095" y1="36.9248" x2="11.8095" y2="40.6487" gradientUnits="userSpaceOnUse">
<stop stop-color="#F15A24"/>
<stop offset="1" stop-color="#F15A24" stop-opacity="0"/>
</linearGradient>
<linearGradient id="paint75_linear" x1="11.5561" y1="36.7517" x2="11.0776" y2="40.562" gradientUnits="userSpaceOnUse">
<stop stop-color="#F15A24"/>
<stop offset="1" stop-color="#C74D21" stop-opacity="0"/>
</linearGradient>
<linearGradient id="paint76_linear" x1="10.82" y1="37.3867" x2="10.82" y2="40.7254" gradientUnits="userSpaceOnUse">
<stop stop-color="#F04D13"/>
<stop offset="1" stop-color="#F9AA1F"/>
</linearGradient>
<linearGradient id="paint77_linear" x1="11.5396" y1="36.9756" x2="11.5396" y2="40.7508" gradientUnits="userSpaceOnUse">
<stop stop-color="#F15A24"/>
<stop offset="0.125" stop-color="#F26024"/>
<stop offset="1" stop-color="#F9AA1F"/>
</linearGradient>
<linearGradient id="paint78_linear" x1="10.6053" y1="37.5292" x2="11.4452" y2="40.7607" gradientUnits="userSpaceOnUse">
<stop stop-color="#F79221"/>
<stop offset="0.625" stop-color="#F15A24"/>
<stop offset="1" stop-color="#F47622"/>
</linearGradient>
<linearGradient id="paint79_linear" x1="15.0499" y1="44.2979" x2="15.0499" y2="48.4069" gradientUnits="userSpaceOnUse">
<stop offset="0.234375" stop-color="#F79221"/>
<stop offset="0.458333" stop-color="#F47521"/>
<stop offset="1" stop-color="#F15A24"/>
</linearGradient>
<linearGradient id="paint80_linear" x1="14.3946" y1="44.6064" x2="14.3946" y2="48.2789" gradientUnits="userSpaceOnUse">
<stop stop-color="#F15A24"/>
<stop offset="1" stop-color="#F15A24" stop-opacity="0"/>
</linearGradient>
<linearGradient id="paint81_linear" x1="15.6282" y1="44.5547" x2="15.6282" y2="48.2785" gradientUnits="userSpaceOnUse">
<stop stop-color="#F15A24"/>
<stop offset="1" stop-color="#F15A24" stop-opacity="0"/>
</linearGradient>
<linearGradient id="paint82_linear" x1="15.3748" y1="44.3825" x2="14.896" y2="48.1926" gradientUnits="userSpaceOnUse">
<stop stop-color="#F15A24"/>
<stop offset="1" stop-color="#C74D21" stop-opacity="0"/>
</linearGradient>
<linearGradient id="paint83_linear" x1="14.6387" y1="45.0166" x2="14.6387" y2="48.3552" gradientUnits="userSpaceOnUse">
<stop stop-color="#F04D13"/>
<stop offset="1" stop-color="#F9AA1F"/>
</linearGradient>
<linearGradient id="paint84_linear" x1="15.3583" y1="44.6064" x2="15.3583" y2="48.3817" gradientUnits="userSpaceOnUse">
<stop stop-color="#F15A24"/>
<stop offset="0.125" stop-color="#F26024"/>
<stop offset="1" stop-color="#F9AA1F"/>
</linearGradient>
<linearGradient id="paint85_linear" x1="14.424" y1="45.1601" x2="15.264" y2="48.3915" gradientUnits="userSpaceOnUse">
<stop stop-color="#F79221"/>
<stop offset="0.625" stop-color="#F15A24"/>
<stop offset="1" stop-color="#F47622"/>
</linearGradient>
<linearGradient id="paint86_linear" x1="22.6875" y1="49.875" x2="22.6875" y2="53.9841" gradientUnits="userSpaceOnUse">
<stop offset="0.234375" stop-color="#F79221"/>
<stop offset="0.458333" stop-color="#F47521"/>
<stop offset="1" stop-color="#F15A24"/>
</linearGradient>
<linearGradient id="paint87_linear" x1="22.0321" y1="50.1836" x2="22.0321" y2="53.8561" gradientUnits="userSpaceOnUse">
<stop stop-color="#F15A24"/>
<stop offset="1" stop-color="#F15A24" stop-opacity="0"/>
</linearGradient>
<linearGradient id="paint88_linear" x1="23.2658" y1="50.1318" x2="23.2658" y2="53.8557" gradientUnits="userSpaceOnUse">
<stop stop-color="#F15A24"/>
<stop offset="1" stop-color="#F15A24" stop-opacity="0"/>
</linearGradient>
<linearGradient id="paint89_linear" x1="23.0123" y1="49.9596" x2="22.5334" y2="53.7698" gradientUnits="userSpaceOnUse">
<stop stop-color="#F15A24"/>
<stop offset="1" stop-color="#C74D21" stop-opacity="0"/>
</linearGradient>
<linearGradient id="paint90_linear" x1="22.2762" y1="50.5947" x2="22.2762" y2="53.9334" gradientUnits="userSpaceOnUse">
<stop stop-color="#F04D13"/>
<stop offset="1" stop-color="#F9AA1F"/>
</linearGradient>
<linearGradient id="paint91_linear" x1="22.9959" y1="50.1836" x2="22.9959" y2="53.9588" gradientUnits="userSpaceOnUse">
<stop stop-color="#F15A24"/>
<stop offset="0.125" stop-color="#F26024"/>
<stop offset="1" stop-color="#F9AA1F"/>
</linearGradient>
<linearGradient id="paint92_linear" x1="22.0615" y1="50.7372" x2="22.9014" y2="53.9687" gradientUnits="userSpaceOnUse">
<stop stop-color="#F79221"/>
<stop offset="0.625" stop-color="#F15A24"/>
<stop offset="1" stop-color="#F47622"/>
</linearGradient>
<linearGradient id="paint93_linear" x1="11.525" y1="22.873" x2="11.525" y2="26.9821" gradientUnits="userSpaceOnUse">
<stop offset="0.234375" stop-color="#F79221"/>
<stop offset="0.458333" stop-color="#F47521"/>
<stop offset="1" stop-color="#F15A24"/>
</linearGradient>
<linearGradient id="paint94_linear" x1="10.8696" y1="23.1816" x2="10.8696" y2="26.8541" gradientUnits="userSpaceOnUse">
<stop stop-color="#F15A24"/>
<stop offset="1" stop-color="#F15A24" stop-opacity="0"/>
</linearGradient>
<linearGradient id="paint95_linear" x1="12.1033" y1="23.1299" x2="12.1033" y2="26.8537" gradientUnits="userSpaceOnUse">
<stop stop-color="#F15A24"/>
<stop offset="1" stop-color="#F15A24" stop-opacity="0"/>
</linearGradient>
<linearGradient id="paint96_linear" x1="11.8498" y1="22.9568" x2="11.3713" y2="26.767" gradientUnits="userSpaceOnUse">
<stop stop-color="#F15A24"/>
<stop offset="1" stop-color="#C74D21" stop-opacity="0"/>
</linearGradient>
<linearGradient id="paint97_linear" x1="11.1137" y1="23.5918" x2="11.1137" y2="26.9304" gradientUnits="userSpaceOnUse">
<stop stop-color="#F04D13"/>
<stop offset="1" stop-color="#F9AA1F"/>
</linearGradient>
<linearGradient id="paint98_linear" x1="11.8334" y1="23.1816" x2="11.8334" y2="26.9569" gradientUnits="userSpaceOnUse">
<stop stop-color="#F15A24"/>
<stop offset="0.125" stop-color="#F26024"/>
<stop offset="1" stop-color="#F9AA1F"/>
</linearGradient>
<linearGradient id="paint99_linear" x1="10.899" y1="23.7343" x2="11.7389" y2="26.9657" gradientUnits="userSpaceOnUse">
<stop stop-color="#F79221"/>
<stop offset="0.625" stop-color="#F15A24"/>
<stop offset="1" stop-color="#F47622"/>
</linearGradient>
<linearGradient id="paint100_linear" x1="15.6376" y1="15.8271" x2="15.6376" y2="19.9362" gradientUnits="userSpaceOnUse">
<stop offset="0.234375" stop-color="#F79221"/>
<stop offset="0.458333" stop-color="#F47521"/>
<stop offset="1" stop-color="#F15A24"/>
</linearGradient>
<linearGradient id="paint101_linear" x1="14.9822" y1="16.1357" x2="14.9822" y2="19.8082" gradientUnits="userSpaceOnUse">
<stop stop-color="#F15A24"/>
<stop offset="1" stop-color="#F15A24" stop-opacity="0"/>
</linearGradient>
<linearGradient id="paint102_linear" x1="16.2159" y1="16.084" x2="16.2159" y2="19.8078" gradientUnits="userSpaceOnUse">
<stop stop-color="#F15A24"/>
<stop offset="1" stop-color="#F15A24" stop-opacity="0"/>
</linearGradient>
<linearGradient id="paint103_linear" x1="15.9624" y1="15.9117" x2="15.4835" y2="19.7219" gradientUnits="userSpaceOnUse">
<stop stop-color="#F15A24"/>
<stop offset="1" stop-color="#C74D21" stop-opacity="0"/>
</linearGradient>
<linearGradient id="paint104_linear" x1="15.2263" y1="16.5469" x2="15.2263" y2="19.8855" gradientUnits="userSpaceOnUse">
<stop stop-color="#F04D13"/>
<stop offset="1" stop-color="#F9AA1F"/>
</linearGradient>
<linearGradient id="paint105_linear" x1="15.946" y1="16.1357" x2="15.946" y2="19.911" gradientUnits="userSpaceOnUse">
<stop stop-color="#F15A24"/>
<stop offset="0.125" stop-color="#F26024"/>
<stop offset="1" stop-color="#F9AA1F"/>
</linearGradient>
<linearGradient id="paint106_linear" x1="15.0117" y1="16.6894" x2="15.8516" y2="19.9208" gradientUnits="userSpaceOnUse">
<stop stop-color="#F79221"/>
<stop offset="0.625" stop-color="#F15A24"/>
<stop offset="1" stop-color="#F47622"/>
</linearGradient>
<linearGradient id="paint107_linear" x1="22.6875" y1="10.8389" x2="22.6875" y2="14.948" gradientUnits="userSpaceOnUse">
<stop offset="0.234375" stop-color="#F79221"/>
<stop offset="0.458333" stop-color="#F47521"/>
<stop offset="1" stop-color="#F15A24"/>
</linearGradient>
<linearGradient id="paint108_linear" x1="22.0321" y1="11.1465" x2="22.0321" y2="14.819" gradientUnits="userSpaceOnUse">
<stop stop-color="#F15A24"/>
<stop offset="1" stop-color="#F15A24" stop-opacity="0"/>
</linearGradient>
<linearGradient id="paint109_linear" x1="23.2658" y1="11.0957" x2="23.2658" y2="14.8196" gradientUnits="userSpaceOnUse">
<stop stop-color="#F15A24"/>
<stop offset="1" stop-color="#F15A24" stop-opacity="0"/>
</linearGradient>
<linearGradient id="paint110_linear" x1="23.0123" y1="10.9226" x2="22.5338" y2="14.7329" gradientUnits="userSpaceOnUse">
<stop stop-color="#F15A24"/>
<stop offset="1" stop-color="#C74D21" stop-opacity="0"/>
</linearGradient>
<linearGradient id="paint111_linear" x1="22.2762" y1="11.5576" x2="22.2762" y2="14.8963" gradientUnits="userSpaceOnUse">
<stop stop-color="#F04D13"/>
<stop offset="1" stop-color="#F9AA1F"/>
</linearGradient>
<linearGradient id="paint112_linear" x1="22.9959" y1="11.1465" x2="22.9959" y2="14.9217" gradientUnits="userSpaceOnUse">
<stop stop-color="#F15A24"/>
<stop offset="0.125" stop-color="#F26024"/>
<stop offset="1" stop-color="#F9AA1F"/>
</linearGradient>
<linearGradient id="paint113_linear" x1="22.0615" y1="11.7011" x2="22.9014" y2="14.9325" gradientUnits="userSpaceOnUse">
<stop stop-color="#F79221"/>
<stop offset="0.625" stop-color="#F15A24"/>
<stop offset="1" stop-color="#F47622"/>
</linearGradient>
</defs>
</svg>
