<svg width="64" height="64" viewBox="0 0 64 64" fill="none" xmlns="http://www.w3.org/2000/svg">
<path d="M61.9916 0H2C0.895431 0 0 0.895431 0 2V62C0 63.1046 0.895431 64 2 64H61.9916C63.0962 64 63.9916 63.1046 63.9916 62V2C63.9916 0.895431 63.0962 0 61.9916 0Z" fill="url(#paint0_linear)"/>
<path d="M60.8928 1.10156H3.10168C1.99712 1.10156 1.10168 1.99699 1.10168 3.10156V60.8983C1.10168 62.0028 1.99711 62.8983 3.10168 62.8983H60.8928C61.9973 62.8983 62.8928 62.0028 62.8928 60.8983V3.10156C62.8928 1.99699 61.9973 1.10156 60.8928 1.10156Z" fill="url(#paint1_linear)"/>
<path d="M31.4981 49.01C41.1689 49.01 49.0087 41.1703 49.0087 31.4996C49.0087 21.8289 41.1689 13.9893 31.4981 13.9893C21.8273 13.9893 13.9875 21.8289 13.9875 31.4996C13.9875 41.1703 21.8273 49.01 31.4981 49.01Z" fill="url(#paint2_linear)"/>
<path d="M9.3623 31.5001C9.3623 25.566 11.6776 20.0016 15.8607 15.8186C20.0437 11.6356 25.6082 9.32031 31.5424 9.32031C37.4765 9.32031 43.041 11.6356 47.224 15.8186C51.4071 20.0016 53.7224 25.566 53.7224 31.5001C53.7224 37.4342 51.4071 42.9986 47.224 47.1816C43.041 51.3646 37.457 53.6799 31.5424 53.6799C25.6277 53.6799 20.0437 51.3646 15.8607 47.1816C11.6776 42.9986 9.3623 37.4342 9.3623 31.5001ZM53.236 31.5001C53.236 19.5347 43.5079 9.80671 31.5424 9.80671C19.5768 9.80671 9.84871 19.5347 9.84871 31.5001C9.84871 43.4655 19.5768 53.1935 31.5424 53.1935C43.5079 53.1935 53.236 43.4655 53.236 31.5001ZM13.5648 31.5001C13.5648 26.6945 15.4326 22.1807 18.8375 18.7759C22.2228 15.3906 26.7367 13.5228 31.5424 13.5228C36.348 13.5228 40.8619 15.3906 44.2667 18.7954C47.6715 22.2001 49.5393 26.7139 49.5393 31.5195C49.5393 36.3252 47.6715 40.8389 44.2667 44.2437C40.8619 47.6485 36.348 49.5163 31.5424 49.5163C26.7367 49.5163 22.2228 47.6485 18.818 44.2437C15.4326 40.8195 13.5648 36.3057 13.5648 31.5001ZM49.0529 31.5001C49.0529 21.8499 41.1926 13.9897 31.5424 13.9897C21.8921 13.9897 14.0318 21.8499 14.0318 31.5001C14.0318 41.1502 21.8921 49.0104 31.5424 49.0104C41.1926 49.0104 49.0529 41.1502 49.0529 31.5001Z" fill="url(#paint3_linear)"/>
<path d="M11.1749 43.998C11.548 44.6784 11.9911 45.3362 12.4342 45.9486C13.3204 46.9693 14.2998 47.8765 15.3492 48.7157C16.1188 49.2601 16.8884 49.8045 17.6813 50.3261C17.7279 49.056 17.7979 47.7858 17.8445 46.493C18.0544 41.503 18.241 36.4451 18.4275 31.4551C18.6841 25.1724 18.8473 18.7762 18.9639 12.2666C18.4742 12.5388 17.9844 12.811 17.518 13.1512C17.005 13.5821 16.5386 14.0358 16.0955 14.5121C15.0461 16.0317 14.3931 17.7102 13.4603 19.2979C12.4109 21.067 11.035 22.632 10.0788 24.4466C9.93892 24.7187 9.77567 24.9455 9.58911 25.1724V42.433C10.2421 42.7959 10.8018 43.3175 11.1749 43.998Z" fill="url(#paint4_radial)"/>
<path d="M11.1756 43.9985C11.5488 44.679 11.9918 45.3367 12.4349 45.9491C12.8547 46.4254 13.2978 46.9018 13.7642 47.3327C14.9069 37.8518 15.4899 27.3276 16.0496 16.9395C16.0962 16.1003 16.1429 15.2611 16.1895 14.4219C16.1662 14.4446 16.1195 14.4899 16.0962 14.5126C15.0468 16.0323 14.3938 17.7107 13.461 19.2984C12.4116 21.0675 11.0357 22.6326 10.0796 24.4471C9.93965 24.7193 9.77641 24.9461 9.58984 25.1729V42.4335C10.2428 42.7964 10.8025 43.3181 11.1756 43.9985Z" fill="url(#paint5_radial)"/>
<path d="M11.1759 43.9973C11.549 44.6778 11.9921 45.3355 12.4352 45.9479C13.3213 46.9686 14.3008 47.8759 15.3502 48.7151C18.172 50.7564 21.2269 52.5936 24.4452 54.0226H24.8183L25.0048 10.9277C24.3286 10.9277 23.6523 10.9731 22.976 11.0411C21.8799 11.2226 20.8072 11.4948 19.7811 11.8577C18.9882 12.2206 18.2419 12.6515 17.519 13.1278C17.006 13.5588 16.5396 14.0124 16.0965 14.4887C15.0471 16.0084 14.3941 17.6868 13.4613 19.2745C12.4119 21.0664 11.036 22.6314 10.0798 24.4459C9.93989 24.7181 9.77665 24.9449 9.59009 25.1717V42.4323C10.2431 42.7952 10.8027 43.3169 11.1759 43.9973Z" fill="url(#paint6_radial)"/>
<path d="M9.98828 42.6818C10.478 43.022 10.8745 43.4757 11.1776 43.9973C11.5507 44.6778 11.9938 45.3355 12.4369 45.9479C13.3231 46.9686 14.3025 47.8759 15.352 48.7151C18.1038 50.7111 21.0888 52.5029 24.237 53.9091C24.7034 42.4323 24.89 30.5245 24.89 18.3446C24.89 15.8723 24.89 13.4 24.89 10.9277C24.2603 10.9277 23.6074 10.9731 22.9777 11.0185C21.8817 11.1999 20.8089 11.4721 19.7828 11.835C18.9899 12.1979 18.2437 12.6288 17.5208 13.1052C17.0077 13.5361 16.5413 13.9897 16.0982 14.466C15.0488 15.9857 14.3958 17.6641 13.463 19.2518C12.4136 21.0664 11.0377 22.6314 10.0816 24.4459C10.0816 24.4459 10.0816 24.4686 10.0582 24.4686C10.1282 30.6379 10.0816 36.6939 9.98828 42.6818Z" fill="url(#paint7_radial)"/>
<path d="M12.623 46.1737C13.4626 47.1036 14.3721 47.9428 15.3515 48.7367C17.4737 50.279 19.7591 51.7079 22.1144 52.9101C22.4176 44.654 22.6974 36.3299 22.9073 27.9377C23.0006 23.9912 23.0939 20.0219 23.1405 16.0073C23.1638 14.3515 23.1872 12.6958 23.1872 11.04C23.1172 11.04 23.0472 11.0627 22.9773 11.0627C21.8812 11.2442 20.8085 11.5164 19.7824 11.8793C18.9895 12.2422 18.2433 12.6731 17.5203 13.1494C17.0073 13.5804 16.5409 14.034 16.0978 14.5103C15.0484 16.03 14.3954 17.7084 13.4626 19.2961C13.2061 19.727 12.9262 20.158 12.623 20.5889C12.6464 21.8818 12.6464 23.1746 12.6697 24.4675C12.7163 31.7936 12.693 39.0063 12.623 46.1737Z" fill="url(#paint8_radial)"/>
<path d="M15.0014 39.3023C15.0014 42.3416 15.0014 45.3809 14.9781 48.4203C15.0947 48.5337 15.2346 48.6244 15.3512 48.7378C17.0303 49.9626 18.7793 51.0967 20.5983 52.1173C20.7849 47.2408 20.9481 42.2963 21.0647 37.3063C21.158 33.0876 21.2513 28.7781 21.2746 24.4686C21.2979 20.1818 21.2979 15.8043 21.2979 11.4268C20.7849 11.5628 20.2485 11.7216 19.7588 11.9031C18.9659 12.266 18.2196 12.6969 17.4967 13.1732C16.9836 13.6042 16.5172 14.0578 16.0741 14.5341C15.5378 15.3053 15.118 16.1218 14.6982 16.9384C14.7915 19.7735 14.8615 22.5634 14.9081 25.2851C15.0014 29.9802 15.0014 34.6753 15.0014 39.3023Z" fill="url(#paint9_radial)"/>
<path d="M17.5187 13.1498C17.2156 13.3993 16.9357 13.6488 16.6559 13.921C16.6559 16.2798 16.6792 18.6614 16.7025 21.0656C16.7258 23.5606 16.7492 26.1009 16.7958 28.732C16.8891 33.4724 17.7519 38.0087 18.0784 34.7652C18.2883 32.7466 18.4749 30.6599 18.6148 28.5052C18.778 26.3504 18.918 24.1276 18.9879 21.8368C19.1045 18.6614 19.1978 15.4179 19.2678 12.1064C18.6614 12.4013 18.0784 12.7642 17.5187 13.1498Z" fill="url(#paint10_radial)"/>
<path d="M15.6545 27.4621C15.6078 34.6068 15.4912 41.6834 15.3513 48.7146C17.8699 50.5292 20.5751 52.1849 23.3968 53.5231C23.6534 42.2731 23.8399 30.9097 23.9099 19.3421C23.9099 17.074 23.9332 14.8058 23.9099 12.515C23.9099 11.9933 23.9099 11.4943 23.9099 10.9727C23.6067 10.9953 23.2802 11.018 22.9771 11.0407C21.881 11.2222 20.8083 11.4943 19.7822 11.8572C18.9893 12.2201 18.243 12.6511 17.5201 13.1274C17.0071 13.5583 16.5407 14.012 16.0976 14.4883C15.911 14.7378 15.7478 14.9873 15.6078 15.2595C15.6545 19.4102 15.7011 23.4928 15.6545 27.4621Z" fill="url(#paint11_radial)"/>
<path d="M17.4033 50.1224C19.0357 51.2111 20.7381 52.1864 22.4871 53.071C22.7669 39.2126 22.9302 25.1728 23.0001 11.0195C21.9041 11.201 20.8314 11.4732 19.8053 11.8361C19.0124 12.199 18.2661 12.6299 17.5432 13.1062C17.4033 13.2423 17.24 13.3557 17.1001 13.4918C17.3566 25.9666 17.4965 38.26 17.4033 50.1224Z" fill="url(#paint12_radial)"/>
<path d="M18.337 50.7346C19.4097 51.415 20.5291 52.0501 21.6485 52.6625C21.6718 51.2336 21.7184 49.8046 21.7417 48.3757C21.9983 36.3091 22.0216 23.789 21.9983 11.2461C21.2287 11.4049 20.5058 11.609 19.7828 11.8585C19.1998 12.1307 18.6401 12.4255 18.1038 12.7658C18.2903 25.6035 18.4069 38.3051 18.337 50.7346Z" fill="url(#paint13_radial)"/>
<path d="M19.0606 51.1879C19.6436 51.5281 20.2266 51.8684 20.8096 52.2086C20.9962 38.7812 21.0428 25.1269 21.0661 11.4727C20.623 11.5861 20.2033 11.7222 19.7835 11.8809C19.4803 12.017 19.2005 12.1758 18.9207 12.3119C19.0839 25.4898 19.1772 38.5543 19.0606 51.1879Z" fill="url(#paint14_radial)"/>
<path d="M19.829 41.776C19.8057 45.0421 19.7357 48.3082 19.6658 51.529C19.829 51.6197 19.9923 51.7105 20.1555 51.8012C20.4587 38.6459 20.6452 25.2865 20.5286 11.5869C20.2721 11.655 20.0156 11.7457 19.7824 11.8364C19.7357 11.8591 19.6658 11.8818 19.6191 11.9045C19.7824 22.0884 19.9223 32.1363 19.829 41.776Z" fill="url(#paint15_radial)"/>
<path d="M11.1751 43.9976C11.5483 44.6781 11.9914 45.3359 12.4344 45.9483C13.3206 46.9689 14.3001 47.8762 15.3495 48.7154C16.7953 49.7814 18.3345 50.7794 19.897 51.6867C19.9436 47.9896 19.9902 44.2925 20.0369 40.5727C20.0602 38.2592 20.0835 35.923 20.1068 33.5868C20.1302 31.0238 20.1535 28.4835 20.1768 25.9659C20.2001 21.2254 20.2468 16.4623 20.2701 11.6992C20.0835 11.7673 19.9203 11.8126 19.7804 11.858C18.9875 12.2209 18.2412 12.6518 17.5183 13.1282C17.0052 13.5591 16.5388 14.0127 16.0957 14.489C15.0463 16.0087 14.3934 17.6871 13.4605 19.2748C12.4111 21.0667 11.0352 22.6317 10.0791 24.4462C9.93916 24.7184 9.77592 24.9452 9.58936 25.172V42.4326C10.2423 42.7955 10.802 43.3172 11.1751 43.9976Z" fill="url(#paint16_radial)"/>
<path d="M11.1758 43.9971C11.5489 44.6776 11.992 45.3354 12.4351 45.9478C13.3212 46.9684 14.3007 47.8757 15.3501 48.7149C16.5161 49.5768 17.7521 50.3933 18.9881 51.1418C19.0347 40.8671 19.058 30.5697 19.1047 20.3177C19.1047 18.1856 19.128 16.1216 19.128 14.0122C19.128 13.3998 19.128 12.7647 19.128 12.1523C18.5683 12.4472 18.0086 12.7647 17.4723 13.1276C16.9592 13.5586 16.4928 14.0122 16.0497 14.4885C15.0003 16.0082 14.3473 17.6866 13.4145 19.2743C12.4117 21.0662 11.0358 22.6312 10.0797 24.4457C9.98642 24.6272 9.86982 24.7859 9.75321 24.9447C9.70657 28.5737 9.63661 32.1801 9.56665 35.7864V42.4094C10.2429 42.795 10.8026 43.3167 11.1758 43.9971Z" fill="url(#paint17_radial)"/>
<path d="M11.1759 43.9978C11.549 44.6782 11.9921 45.336 12.4352 45.9484C13.3214 46.9691 14.3008 47.8763 15.3502 48.7155C16.1898 49.3279 17.0526 49.9177 17.9388 50.4847C17.9621 37.9192 18.0321 25.399 18.0321 12.7881C17.8455 12.9015 17.6823 13.0149 17.4957 13.1283C16.9827 13.5593 16.5163 14.0129 16.0732 14.4892C15.0237 16.0089 14.3708 17.6873 13.438 19.275C12.7617 20.4091 11.9455 21.4751 11.1992 22.5865C11.0126 29.459 10.8261 36.3768 10.6628 43.3174C10.8727 43.5215 11.036 43.7483 11.1759 43.9978Z" fill="url(#paint18_radial)"/>
<path d="M15.3726 48.7155C15.769 49.0104 16.1655 49.2826 16.5619 49.5547C16.6552 37.6016 16.8184 25.6938 16.8884 13.6953C16.6085 13.9448 16.352 14.217 16.0955 14.5118C15.0461 16.0315 14.3931 17.7099 13.4603 19.2976C13.2971 19.5471 13.1338 19.8193 12.9706 20.0688C12.8073 28.7331 12.6441 37.3748 12.4575 45.9937C13.3437 46.9917 14.2998 47.899 15.3726 48.7155Z" fill="url(#paint19_radial)"/>
<path d="M15.0701 48.4661C15.2334 37.4656 15.3966 26.465 15.5365 15.3965C15.0701 16.213 14.6503 17.0522 14.2306 17.8914C14.0907 27.7352 13.9041 37.4882 13.7175 47.2413C14.114 47.6722 14.5804 48.0805 15.0701 48.4661Z" fill="url(#paint20_radial)"/>
<path d="M22.4172 18.7075C22.4638 30.275 22.2773 41.5704 22.1373 52.9112C22.9069 53.2967 23.6765 53.6596 24.446 54.0226H24.8192L25.0057 10.9277C24.3294 10.9277 23.6532 10.9731 22.9769 11.0411C22.767 11.0638 22.5804 11.1092 22.3705 11.1545C22.3705 11.4948 22.3705 11.8577 22.3705 12.1979C22.3939 14.3526 22.3939 16.5301 22.4172 18.7075Z" fill="url(#paint21_radial)"/>
<path d="M24.4691 54.0214H24.8422C24.8889 39.664 24.9588 25.3066 25.0055 10.9492C24.3991 10.9492 23.7928 10.9719 23.1865 11.0399C23.1632 11.7431 23.1398 12.4462 23.1398 13.1493C23.1165 14.5102 23.0699 15.9165 23.0699 17.3681C23.0232 29.2078 22.93 41.2744 22.7667 53.2275C23.3031 53.4997 23.8861 53.7719 24.4691 54.0214Z" fill="url(#paint22_radial)"/>
<path d="M9 41.1799C9.52417 41.5034 9.99316 41.8916 10.3242 42.3876C10.7656 43.0345 11.2898 43.6599 11.8139 44.2422C12.8623 45.2126 14.021 46.0752 15.2624 46.8731C17.1935 47.9945 19.2074 49.0511 21.3041 50C21.6351 44.1775 22.0214 38.3981 22.2972 32.6402C22.4076 30.6778 22.4352 28.6938 22.4904 26.8824C22.5455 24.7043 22.5731 22.5478 22.6007 20.3913C22.6283 18.0192 22.6559 15.6255 22.6559 13.2318C22.6559 12.5848 22.6559 11.9594 22.6559 11.3125C21.911 11.4635 21.1937 11.636 20.4765 11.8301C19.5385 12.1751 18.6557 12.5848 17.8005 13.0377C17.1935 13.4474 16.6418 13.8787 16.1176 14.3316C14.8762 15.7764 14.1037 17.3722 13.0002 18.8818C11.7864 20.5854 10.1587 22.0734 9.02759 23.7986C9.11035 25.9551 9.13794 28.0685 9.13794 30.0956C9.13794 33.2225 9.02759 36.3925 9 39.541C9 40.0801 9 40.6408 9 41.1799Z" fill="url(#paint23_radial)"/>
<path d="M15.2918 46.8728C16.2298 47.4335 17.1954 47.951 18.1885 48.4686C18.6299 36.306 19.1817 24.2512 19.6231 12.1748C19.0162 12.4336 18.4092 12.7139 17.8299 13.0374C17.223 13.4471 16.6712 13.8784 16.1471 14.3313C14.9056 15.7761 14.1332 17.372 13.0297 18.8815C12.9745 18.9678 12.8917 19.054 12.8365 19.1403C12.7262 27.68 12.5607 36.1981 12.4227 44.7379C13.2779 45.5358 14.2435 46.2258 15.2918 46.8728Z" fill="url(#paint24_radial)"/>
<path d="M15.2916 46.8744C15.8985 47.2195 16.5055 47.5645 17.14 47.9096C17.4986 36.1567 17.9952 24.4685 18.3263 12.7803C18.1607 12.8665 17.9952 12.9528 17.8297 13.0391C17.2227 13.4488 16.671 13.8801 16.1468 14.3329C15.402 15.1955 14.8226 16.1228 14.2433 17.0501C14.0778 26.5818 13.8846 36.1782 13.8019 45.8393C14.2709 46.2059 14.7674 46.551 15.2916 46.8744Z" fill="url(#paint25_radial)"/>
<path d="M15.2919 46.8754C15.5953 47.048 15.8988 47.2205 16.2023 47.393C16.5333 38.8964 16.9471 30.4645 17.223 22.0326C17.3334 19.1861 17.3885 16.2532 17.4437 13.2988C16.9747 13.6223 16.5333 13.9673 16.1471 14.3339C16.0643 14.4418 15.954 14.5496 15.8712 14.6574C15.8712 14.8946 15.8712 15.1103 15.8436 15.3475C15.6781 23.2187 15.347 30.9605 15.0712 38.6376C14.9884 41.247 14.9056 43.921 14.8505 46.5951C14.9884 46.7029 15.1263 46.7892 15.2919 46.8754Z" fill="url(#paint26_radial)"/>
<path d="M19.8282 41.7745C19.8049 44.95 19.9448 48.3749 20.0847 51.7771C21.5073 52.5936 22.9764 53.3421 24.4689 53.9999H24.8421L25.0053 10.9277C24.329 10.9277 23.6527 10.9731 22.9764 11.0411C21.8804 11.2226 20.8076 11.4948 19.7815 11.8577C19.5017 11.9938 19.2219 12.1299 18.9653 12.2659C19.4784 22.4726 19.9215 32.5432 19.8282 41.7745Z" fill="url(#paint27_radial)"/>
<path d="M24.3527 53.975C24.3761 53.2719 24.3761 52.5688 24.3994 51.8656C24.6792 38.5743 24.6559 24.7386 24.6326 10.9482C24.0729 10.9709 23.5365 10.9936 22.9768 11.039C21.9507 11.2204 20.9246 11.4699 19.9452 11.8101C20.6215 25.7593 21.1345 39.4589 21.2045 52.41C22.2306 52.977 23.28 53.4987 24.3527 53.975Z" fill="url(#paint28_radial)"/>
<path d="M21.9037 52.7961C22.4401 53.0683 22.9765 53.3405 23.5362 53.6126C23.6994 39.5501 23.746 25.2608 23.7694 10.9941C23.5128 11.0168 23.233 11.0395 22.9765 11.0622C22.5567 11.1302 22.1136 11.221 21.6938 11.3117C21.9037 25.3515 22.0203 39.3006 21.9037 52.7961Z" fill="url(#paint29_radial)"/>
<path d="M24.4696 54.0229H36.0365C35.9665 50.5072 35.8732 46.9689 35.7566 43.3853C35.5934 38.6675 35.4535 33.9271 35.2902 29.164C35.1736 25.6483 35.0337 22.2234 34.8938 18.8439C33.2147 15.7592 31.5123 12.6745 29.8333 9.58984H28.2941C27.4546 10.4064 26.3119 10.9281 25.0293 10.9281C24.7261 10.9281 24.4463 10.9281 24.1431 10.9507C24.0965 25.2401 24.0265 39.5294 23.9799 53.7961C24.1664 53.8868 24.3063 53.9548 24.4696 54.0229Z" fill="url(#paint30_radial)"/>
<path d="M24.4693 54.019H33.5176C33.4477 52.2725 33.3544 50.526 33.2844 48.7795C32.6781 36.6449 32.0951 24.3516 30.6492 11.0829C30.3461 10.5386 30.0895 10.0622 29.833 9.58594H28.2939C27.4543 10.4025 26.3116 10.9241 25.029 10.9241C24.7958 10.9241 24.5859 10.9241 24.3527 10.9468C24.2828 11.5592 24.2128 12.217 24.1429 12.9428L24.0029 53.8148C24.1662 53.8829 24.3061 53.9509 24.4693 54.019Z" fill="url(#paint31_radial)"/>
<path d="M37.809 53.5219C39.2082 52.7281 40.7007 52.161 42.1932 51.526L42.2631 32.3828C38.1354 24.7845 33.9844 17.1862 29.8334 9.58789H28.2942C27.4547 10.4044 26.312 10.9261 25.0294 10.9261C24.7262 10.9261 24.4464 10.9261 24.1432 10.9488C24.0966 25.2381 24.0266 39.5274 23.98 53.7941C24.1199 53.8621 24.2831 53.9302 24.4464 53.9982H37.1093C37.3192 53.8168 37.5524 53.658 37.809 53.5219Z" fill="url(#paint32_radial)"/>
<path d="M37.8101 53.5219C39.116 52.7734 40.5385 52.2291 41.9144 51.6394C41.7745 44.7215 41.5413 37.6676 41.1915 30.4095C37.4136 23.469 33.6124 16.5284 29.8345 9.58789H28.2954C28.0388 9.83739 27.759 10.0642 27.4558 10.2457C27.5025 16.7099 27.4791 23.0607 27.3392 29.2301C27.2459 33.2447 27.0827 37.1459 26.8728 40.9791C26.6163 45.5834 26.1499 49.8248 25.6602 54.0209H37.0871C37.3203 53.8168 37.5535 53.658 37.8101 53.5219Z" fill="url(#paint33_radial)"/>
<path d="M37.8092 53.5231C38.5088 53.1149 39.2551 52.7747 40.0013 52.4571C39.8148 43.9969 39.5349 35.446 39.2318 26.827C36.1768 21.2247 33.1452 15.6451 30.0902 10.0654C30.1368 17.7998 30.1368 25.4888 29.9736 32.9057C29.9036 36.4894 29.787 40.0277 29.6238 43.4979C29.4605 47.0362 29.2973 50.5972 29.0641 54.0221H37.1096C37.3195 53.818 37.5527 53.6592 37.8092 53.5231Z" fill="url(#paint34_radial)"/>
<path d="M37.8101 53.524C38.0433 53.3879 38.2765 53.2745 38.5097 53.1611C38.4863 50.7795 38.4397 48.3753 38.3931 45.9937C38.2531 38.8264 38.0433 31.5003 37.7168 24.0834C35.5946 20.2049 34.5452 18.277 32.4464 14.3984C32.4464 18.6626 32.4231 22.904 32.3997 27.1001C32.3531 30.9786 32.3298 34.9252 32.2132 38.5996C32.0266 43.7936 31.7468 48.9423 31.4669 54.023H37.1104C37.3203 53.8189 37.5535 53.6601 37.8101 53.524Z" fill="url(#paint35_radial)"/>
<path d="M36.2698 54.022C36.2698 53.6818 36.2465 53.3643 36.2465 53.024C36.1765 50.8693 36.0599 48.6238 35.92 46.401C35.7801 44.1556 35.6168 41.9101 35.4303 39.6193C35.1271 35.9449 34.2409 37.2831 34.101 41.0029C34.031 43.0669 33.9844 45.1309 33.9611 47.1722C33.9144 49.2362 33.8911 51.3002 33.8678 53.3416C33.8678 53.5684 33.8678 53.7952 33.8445 54.022H36.2698Z" fill="url(#paint36_radial)"/>
<path d="M37.11 54.0228C37.3198 53.8413 37.5764 53.6599 37.8329 53.5238C38.859 52.9568 39.9317 52.4805 41.0045 52.0268C40.9345 44.5419 40.7946 36.989 40.6546 29.3907C37.9961 24.5596 35.3842 19.7511 32.749 14.9199C32.8656 22.9718 32.9589 31.0465 32.9589 38.8716C32.9589 44.0656 32.819 49.1009 32.6324 54.0228H37.11Z" fill="url(#paint37_radial)"/>
<path d="M37.1101 54.0211C37.32 53.8397 37.5765 53.6582 37.833 53.5221C38.556 53.1139 39.3022 52.751 40.0718 52.4334C40.0251 44.2908 39.9085 36.0574 39.7686 27.7786C37.7864 24.1496 36.8069 22.3351 34.8247 18.7061C34.9413 30.9087 34.7081 42.635 34.3116 54.0211H37.1101Z" fill="url(#paint38_radial)"/>
<path d="M37.1099 54.0225C37.3197 53.841 37.5763 53.6596 37.8328 53.5235C38.2992 53.274 38.7656 53.0245 39.232 52.8204C39.232 48.148 39.2087 43.4075 39.1387 38.6217C39.0688 34.5164 39.0221 30.3884 38.9522 26.283C37.6929 23.9468 37.0399 22.7901 35.7806 20.4766C35.8506 31.9534 35.664 43.09 35.3842 54.0452H37.1099V54.0225Z" fill="url(#paint39_radial)"/>
<path d="M37.1098 54.0227C37.3197 53.8413 37.5762 53.6598 37.8327 53.5237C37.9727 53.433 38.1359 53.365 38.2758 53.2742C38.2991 43.8614 38.2758 34.4032 38.1592 24.8317C37.4596 23.5615 37.1098 22.9264 36.4335 21.6562C36.4568 23.1079 36.4802 24.5822 36.5035 25.9884C36.5734 35.492 36.4568 44.814 36.2469 54.0227H37.1098Z" fill="url(#paint40_radial)"/>
<path d="M37.0169 54.0218H37.0868C37.2967 53.8404 37.5299 53.6816 37.7631 53.5455C37.7864 43.7471 37.6232 33.6538 37.4133 23.5152C37.2267 23.175 37.1335 22.9935 36.9469 22.6533C37.0635 28.0515 37.1568 33.4724 37.1801 38.6891C37.2034 43.8605 37.1335 48.9638 37.0169 54.0218Z" fill="url(#paint41_radial)"/>
<path d="M25.9392 54.0209H37.1097C37.2029 53.9302 37.3195 53.8621 37.4361 53.7714C37.4361 53.4539 37.4361 53.1363 37.4361 52.8188C37.4361 50.6641 37.4361 48.4866 37.4361 46.3092C37.4361 44.3132 37.4361 42.3173 37.4128 40.2986C37.3895 34.6282 37.3429 28.9352 37.2962 23.2421C34.8009 18.6832 32.329 14.1469 29.8337 9.58789H28.2946C27.6882 10.2003 26.8953 10.6312 26.0325 10.8127C26.1258 23.1968 26.2191 35.5809 26.0325 47.4887C26.0092 49.6434 25.9625 51.8208 25.9392 54.0209Z" fill="url(#paint42_radial)"/>
<path d="M29.8341 9.58691H28.295C27.9218 9.9725 27.4554 10.2674 26.9657 10.5169C27.1523 24.4886 27.2689 38.3924 26.989 51.6838C26.989 52.4776 27.0123 53.2488 27.0123 54.0199H36.3172C36.3638 43.2689 36.4104 32.5179 36.4338 21.7669C34.265 17.7069 32.0495 13.6469 29.8341 9.58691Z" fill="url(#paint43_radial)"/>
<path d="M29.8331 9.58691H28.294C28.2473 9.63228 28.1774 9.70032 28.1307 9.74568C28.294 20.7008 28.5738 31.8601 28.807 42.8153C28.8537 44.6525 28.8537 46.4443 28.9003 48.1228C28.947 50.1187 28.9936 52.1147 29.0169 54.0199H35.2434C35.3367 42.6792 35.3367 31.225 35.43 19.8843C33.5644 16.4367 31.6988 13.0118 29.8331 9.58691Z" fill="url(#paint44_radial)"/>
<path d="M34.0784 54.0234C34.1017 41.8434 33.9851 29.4594 34.0084 17.2567C32.3527 14.2174 31.5365 12.6977 29.8574 9.63574C30.1139 24.5148 30.2772 39.3031 30.4171 54.0007H34.0784V54.0234Z" fill="url(#paint45_radial)"/>
<path d="M31.5138 54.0219H32.7731C32.7497 40.98 32.6098 27.6206 32.5165 14.4654C31.9568 13.4447 31.677 12.923 31.1173 11.9023C31.2806 25.9875 31.5138 40.2542 31.5138 54.0219Z" fill="url(#paint46_radial)"/>
<path d="M42.1926 51.5251L42.2625 32.382C41.1665 30.3633 40.6301 29.3653 39.5341 27.3467C39.5574 35.7161 39.6507 44.2217 39.6507 52.5912C40.4902 52.2283 41.353 51.888 42.1926 51.5251Z" fill="url(#paint47_radial)"/>
<path d="M42.1941 51.524C42.2174 45.1505 42.2407 38.777 42.264 32.3808C41.3778 30.7704 40.9581 29.9766 40.0719 28.3662C40.1652 36.3728 40.2118 44.4247 40.2118 52.3405C40.8881 52.0684 41.5411 51.7962 42.1941 51.524Z" fill="url(#paint48_radial)"/>
<path d="M37.8106 53.5219C38.0905 53.3632 38.3937 53.2044 38.6735 53.0683C38.6502 51.9569 38.6269 50.7775 38.5802 49.5753C38.2771 41.1832 37.834 32.3147 37.6008 23.8772C35.0355 19.0914 32.4236 14.351 29.8351 9.58789H28.2959C28.0627 9.81471 27.8062 10.0188 27.5264 10.2003C27.5264 10.6539 27.5264 11.1075 27.5264 11.5612C27.5264 14.4417 27.6197 17.5718 27.573 20.3162C27.4331 31.5889 25.9406 41.909 25.7773 53.2044C25.7773 53.4766 25.7773 53.7261 25.7773 53.9982H37.111C37.3209 53.8168 37.5541 53.658 37.8106 53.5219Z" fill="url(#paint49_radial)"/>
<path d="M30.5563 50.4385C30.5563 51.6179 30.533 52.82 30.5097 53.9995H36.0133C35.7101 42.4773 35.3603 30.7283 35.1271 19.2515C33.2382 15.7812 32.282 14.0347 30.3931 10.5645C30.4397 23.8785 30.6263 37.4647 30.5563 50.4385Z" fill="url(#paint50_radial)"/>
<path d="M35.0582 54.022C34.825 42.0462 34.4751 29.7075 34.2886 17.7317C33.2158 15.7584 32.6795 14.7604 31.6067 12.7871C31.5834 26.3733 31.77 40.5266 31.8166 54.022H35.0582Z" fill="url(#paint51_radial)"/>
<path d="M33.0752 49.3734C33.0985 50.8931 33.0985 52.4581 33.1219 54.0004H34.3812C34.3578 51.5962 34.3345 49.1693 34.2646 46.7424C34.0314 36.7171 33.6815 26.329 33.4483 16.2131C33.0286 15.4419 32.8187 15.0563 32.3989 14.2852C32.4222 18.4585 32.4689 22.7 32.5855 26.9641C32.7721 34.449 32.9819 42.0246 33.0752 49.3734Z" fill="url(#paint52_radial)"/>
<path d="M37.8109 53.5228C39.2101 52.729 40.7027 52.1619 42.1952 51.5268L42.2651 32.3837C40.4461 29.0495 39.5366 27.3937 37.7176 24.0596C37.671 29.1629 37.158 33.4951 37.158 38.6664C37.1813 44.0646 36.9481 49.1226 36.5983 53.9991H37.0647C37.3212 53.8177 37.5544 53.6589 37.8109 53.5228Z" fill="url(#paint53_radial)"/>
<path d="M37.8329 53.5014C39.1155 52.7756 40.4914 52.2312 41.8673 51.6642C41.844 48.8744 41.8207 46.0845 41.7973 43.2494C41.7274 39.2347 41.6807 35.1974 41.6108 31.1601C40.4214 28.9827 39.8384 27.9167 38.6491 25.7393C38.7191 35.4469 38.3693 44.6329 37.8329 53.5014Z" fill="url(#paint54_radial)"/>
<path d="M39.1862 52.8199C39.7692 52.5477 40.3755 52.2982 40.9818 52.0261C40.9818 44.6773 40.9585 37.2604 40.8652 29.8209C40.2123 28.6414 39.8858 28.0517 39.2561 26.8496C39.2794 28.392 39.3028 29.957 39.3261 31.454C39.3727 38.6893 39.3028 45.7887 39.1862 52.8199Z" fill="url(#paint55_radial)"/>
<path d="M37.9473 10.5434C36.8979 10.5208 35.9184 10.1805 35.1488 9.59082H29.8318C32.6536 14.7849 35.4986 19.9789 38.3204 25.173C38.367 21.8842 38.367 18.5954 38.3904 15.5107C38.4137 13.8323 38.4137 12.1992 38.4137 10.5661C38.2738 10.5661 38.1105 10.5661 37.9473 10.5434Z" fill="url(#paint56_radial)"/>
<path d="M35.1488 9.59082H29.8318C32.1172 13.7642 34.3793 17.9376 36.6647 22.1337C36.7579 19.7975 36.7579 17.5974 36.7813 15.488C36.7813 13.8096 36.7813 12.1085 36.7813 10.4074C36.1749 10.2259 35.6152 9.95372 35.1488 9.59082Z" fill="url(#paint57_radial)"/>
<path d="M29.8318 9.59082C31.4409 12.5394 33.05 15.488 34.6591 18.4366C34.7057 16.0324 34.7524 13.6508 34.7524 11.2466C34.7524 10.7022 34.7524 10.1352 34.7524 9.59082H29.8318V9.59082Z" fill="url(#paint58_radial)"/>
<path d="M29.8318 9.59082C29.9717 9.863 30.135 10.1352 30.2982 10.43C30.2982 10.2032 30.3215 9.93104 30.3215 9.59082H29.8318Z" fill="url(#paint59_radial)"/>
<path d="M41.0971 11.3797C41.0038 11.3344 40.9105 11.289 40.8173 11.2436C40.0477 10.9488 39.2548 10.722 38.4386 10.5632C38.2753 10.5632 38.1121 10.5405 37.9722 10.5405C36.9228 10.5178 35.9433 10.1776 35.1737 9.58789H29.8334C33.4713 16.2562 37.1093 22.9246 40.7473 29.6156C40.7473 28.9806 40.7473 28.3228 40.7473 27.6877C40.7473 24.2401 40.7473 20.7018 40.8173 17.4584C40.8872 15.3944 40.9572 13.3757 41.0971 11.3797Z" fill="url(#paint60_radial)"/>
<path d="M38.4386 10.5632C38.2753 10.5632 38.1121 10.5405 37.9722 10.5405C36.9228 10.5178 35.9433 10.1776 35.1737 9.58789H29.8334C32.935 15.2809 36.0599 20.974 39.1615 26.6897C39.2082 25.0793 39.2548 23.469 39.3014 21.9039C39.3947 18.1615 39.5813 14.5098 39.7912 10.9261C39.3248 10.7673 38.8817 10.6539 38.4386 10.5632Z" fill="url(#paint61_radial)"/>
<path d="M35.1513 9.58887H31.4667C31.49 9.90641 31.5133 10.2466 31.5366 10.5642C31.5833 11.4034 31.6766 12.2426 31.7232 13.0591C33.5655 16.4387 34.4983 18.1171 36.3406 21.4966C36.3639 21.2925 36.3873 21.0884 36.4106 20.8842C36.8304 17.5047 37.2268 14.0344 37.5766 10.5188C36.6671 10.4508 35.8276 10.1105 35.1513 9.58887Z" fill="url(#paint62_radial)"/>
<path d="M38.4365 10.5642C38.2732 10.5642 38.11 10.5415 37.9701 10.5415C36.9206 10.5188 35.9412 10.1786 35.1716 9.58887H31.7668C31.7668 10.7683 31.7902 11.9704 31.7902 13.1499C34.542 18.2078 37.2938 23.2658 40.0456 28.3238C40.1389 22.54 40.3021 16.8016 40.442 11.1312C39.7891 10.9044 39.1128 10.7003 38.4365 10.5642Z" fill="url(#paint63_radial)"/>
<path d="M38.4387 10.5632C38.2755 10.5632 38.1122 10.5405 37.9723 10.5405C36.9229 10.5178 35.9434 10.1776 35.1739 9.58789H32.1422C32.1422 10.9941 32.1655 12.4231 32.1655 13.8293C34.7541 18.5924 37.366 23.3329 39.9545 28.096C40.0245 22.3802 40.1178 16.6872 40.2111 11.0168C39.6047 10.8354 39.0217 10.6766 38.4387 10.5632Z" fill="url(#paint64_radial)"/>
<path d="M38.4387 10.5632C38.2754 10.5632 38.1122 10.5405 37.9723 10.5405C36.9228 10.5178 35.9434 10.1776 35.1738 9.58789H32.9584C32.9584 11.4931 32.9817 13.4211 32.9817 15.3263C35.2438 19.4543 37.4825 23.5824 39.7446 27.7104C39.8146 22.1988 39.8146 16.5057 39.8146 10.9034C39.3482 10.7673 38.8817 10.6539 38.4387 10.5632Z" fill="url(#paint65_radial)"/>
<path d="M38.4385 10.5632C38.2752 10.5632 38.112 10.5405 37.9721 10.5405C36.9226 10.5178 35.9432 10.1776 35.1736 9.58789H33.8444C33.8444 12.0375 33.8444 14.4871 33.8444 16.9367C35.7566 20.4296 36.7128 22.1761 38.625 25.6917C38.6717 21.8813 38.695 18.0254 38.7183 14.2149C38.7183 12.9901 38.7416 11.8107 38.7416 10.6539C38.625 10.6086 38.5318 10.5859 38.4385 10.5632Z" fill="url(#paint66_radial)"/>
<path d="M35.5927 9.88477C35.4994 13.1055 35.4761 16.5531 35.4294 19.8419C36.1757 21.2028 36.5488 21.8833 37.2951 23.2442C37.3884 19.0254 37.4583 14.784 37.505 10.5198C36.8053 10.4518 36.1757 10.225 35.5927 9.88477Z" fill="url(#paint67_radial)"/>
<path d="M35.1499 9.59082H29.8329C31.6985 12.993 33.5641 16.4179 35.4298 19.8202C35.4997 16.486 35.6397 13.2199 35.7563 9.97641C35.5464 9.863 35.3365 9.72691 35.1499 9.59082Z" fill="url(#paint68_radial)"/>
<path d="M29.8329 9.59082C31.372 12.426 32.9345 15.2612 34.4736 18.0964C34.5902 15.2839 34.7068 12.4487 34.8234 9.59082H29.8329Z" fill="url(#paint69_radial)"/>
<path d="M29.8329 9.59082C31.3487 12.358 32.3048 14.1044 33.9839 17.2118C34.0539 14.6942 34.1238 12.1538 34.1705 9.59082H29.8329Z" fill="url(#paint70_radial)"/>
<path d="M30.2313 9.59006C30.2313 9.81688 30.208 10.0437 30.208 10.2705C31.3507 12.3572 31.9104 13.3779 33.0531 15.4646C33.0764 13.514 33.0764 11.5407 33.0997 9.56738H30.2313V9.59006Z" fill="url(#paint71_radial)"/>
<path d="M31.0216 9.58789C30.9983 10.291 30.975 10.9715 30.9517 11.6746C31.1615 12.0829 31.2781 12.2643 31.488 12.6726C31.5113 11.6519 31.558 10.6086 31.5813 9.58789H31.0216Z" fill="url(#paint72_radial)"/>
<path d="M40.7937 11.2458C40.5139 11.1551 40.2573 11.0417 39.9775 10.9736C39.9309 12.9696 39.8842 14.9656 39.8376 16.9615C39.7443 20.4772 39.6743 23.9701 39.6044 27.4858C40.6771 29.459 41.2135 30.4343 42.2862 32.385L42.3562 11.9943C41.8431 11.7448 41.3301 11.4953 40.7937 11.2458Z" fill="url(#paint73_radial)"/>
<path d="M41.1905 11.4512C40.8873 17.2123 40.6308 23.0641 40.3976 28.984C41.1438 30.3448 41.517 31.048 42.2632 32.4089C42.2865 25.6044 42.3099 18.8227 42.3332 12.0182C41.96 11.8141 41.5869 11.6099 41.1905 11.4512Z" fill="url(#paint74_radial)"/>
<path d="M37.9489 10.5405C36.8994 10.5178 35.92 10.1776 35.1504 9.58789H29.8334C32.6318 14.7139 35.4303 19.8399 38.2287 24.9659C38.2753 20.1575 38.3453 15.3717 38.3919 10.5632C38.252 10.5632 38.1121 10.5632 37.9489 10.5405Z" fill="url(#paint75_radial)"/>
<path d="M35.1503 9.58887H30.5562C30.5562 9.74764 30.5562 9.90641 30.5795 10.0652C30.5795 10.3827 30.6028 10.6776 30.6028 10.9951C33.0981 15.5768 34.3574 17.8676 36.8527 22.4719C36.9693 18.48 37.0625 14.4881 37.1558 10.4961C36.4096 10.3374 35.7333 10.0198 35.1503 9.58887Z" fill="url(#paint76_radial)"/>
<path d="M35.1509 9.58887H31.7228C31.7228 10.7456 31.7461 11.9251 31.7461 13.0818C33.635 16.5521 34.5912 18.2759 36.4801 21.7461C36.5501 17.9583 36.5967 14.1478 36.6434 10.3374C36.0837 10.1786 35.594 9.92909 35.1509 9.58887Z" fill="url(#paint77_radial)"/>
<path d="M35.1503 9.58887H33.6812C33.7278 12.0158 33.7744 14.4427 33.8211 16.8696C34.4274 18.0037 34.7539 18.5707 35.3602 19.6821C35.3835 16.3933 35.4302 13.1045 35.4535 9.793C35.3369 9.72496 35.2436 9.65691 35.1503 9.58887Z" fill="url(#paint78_radial)"/>
<path d="M40.7948 11.2436C40.0253 10.9488 39.2324 10.722 38.4161 10.5632C38.2529 10.5632 38.0897 10.5405 37.9497 10.5405C36.9003 10.5178 35.9209 10.1776 35.1513 9.58789H34.8948C34.9181 12.7179 34.9414 15.848 34.9647 18.978C37.3901 23.4463 39.8387 27.9145 42.264 32.3828L42.334 11.9921C41.8442 11.7426 41.3312 11.4931 40.7948 11.2436Z" fill="url(#paint79_radial)"/>
<path d="M40.7951 11.2436C40.0255 10.9488 39.2326 10.722 38.4164 10.5632C38.2532 10.5632 38.0899 10.5405 37.95 10.5405C36.9006 10.5178 35.9211 10.1776 35.1515 9.58789H33.729C33.7756 12.0602 33.799 14.5098 33.8456 16.9367C36.644 22.0854 39.4658 27.2341 42.2643 32.4055L42.3342 12.0148C41.8445 11.7426 41.3314 11.4931 40.7951 11.2436Z" fill="url(#paint80_radial)"/>
<path d="M40.7938 11.2464C40.0242 10.9516 39.2313 10.7248 38.4151 10.566C38.2519 10.566 38.0886 10.5433 37.9487 10.5433C37.5756 10.5433 37.2258 10.498 36.876 10.4072C36.876 14.4672 36.8527 18.4592 36.8527 22.4738C38.625 25.7172 39.5112 27.3503 41.2835 30.6164C41.3302 26.8059 41.3535 22.9954 41.3768 19.185C41.4001 17.2797 41.4001 15.5106 41.4001 13.7868C41.4001 13.0383 41.4001 12.3125 41.4001 11.564C41.2369 11.4506 41.027 11.3598 40.7938 11.2464Z" fill="url(#paint81_radial)"/>
<path d="M42.5425 51.3683C44.0816 50.7105 45.4808 49.9394 46.8334 48.9867C48.3959 47.7846 50.005 46.5144 51.3109 45.0401C51.8007 44.3143 52.1505 43.5659 52.5236 42.772C52.7801 42.2276 53.0833 41.706 53.4098 41.207V38.4852C53.3631 36.2171 53.3165 33.9035 53.2465 31.6127C53.1532 29.2312 53.0366 26.8042 52.9434 24.4454C52.2438 23.402 51.6374 22.2906 51.0544 21.1792C50.1449 19.4101 49.2821 17.6182 48.0927 16.0079C47.6963 15.5542 47.2765 15.146 46.8101 14.7604C45.131 13.5809 43.382 12.4922 41.5397 11.585L41.3765 51.8673C41.7496 51.7085 42.146 51.5497 42.5425 51.3683Z" fill="url(#paint82_radial)"/>
<path d="M42.5427 51.3661C44.0819 50.7083 45.4811 49.9372 46.8337 48.9846C48.3961 47.7824 50.0052 46.5123 51.3112 45.038C51.4744 44.8112 51.591 44.5843 51.7309 44.3575C51.7309 43.1327 51.7076 41.9079 51.7076 40.6831C51.6843 37.6211 51.6843 34.4911 51.6143 31.3384C51.5444 28.1856 51.4977 25.0556 51.4511 21.9482C51.3112 21.6987 51.1946 21.4492 51.0547 21.1997C50.1452 19.4306 49.2823 17.6387 48.093 16.0284C47.6965 15.5747 47.2768 15.1665 46.8104 14.7809C45.1313 13.6014 43.3823 12.5127 41.54 11.6055C41.4933 25.0329 41.4233 38.4603 41.3767 51.8878C41.7498 51.7063 42.1463 51.5476 42.5427 51.3661Z" fill="url(#paint83_radial)"/>
<path d="M48.0949 16.008C47.6985 15.5543 47.2787 15.1461 46.8123 14.7605C45.483 13.8306 44.1071 12.946 42.6846 12.1748C43.081 17.4823 43.5008 22.8578 43.9905 28.256C44.247 31.1819 44.5269 34.0398 44.8067 36.7615C45.0866 39.4606 45.4131 42.0463 45.7395 44.5186C46.3692 45.8115 46.9755 45.1991 47.5585 43.0216C47.7917 42.137 48.0249 40.9803 48.2581 39.5967C48.4913 38.2132 48.7479 36.6254 48.9111 34.7656C49.3309 29.7983 49.3076 23.8104 49.2376 17.7771C48.8878 17.1874 48.4913 16.5977 48.0949 16.008Z" fill="url(#paint84_radial)"/>
<path d="M42.5431 51.3671C44.0822 50.7093 45.4815 49.9382 46.834 48.9855C48.3965 47.7834 50.0056 46.5132 51.3115 45.039C51.8013 44.3131 52.1511 43.5647 52.5242 42.7708C52.7807 42.2264 53.0839 41.7048 53.4104 41.2058V25.1473C52.5242 23.8998 51.7546 22.5616 51.055 21.2007C50.1455 19.4316 49.2827 17.6397 48.0933 16.0293C47.6969 15.5757 47.2771 15.1674 46.8107 14.7819C45.1317 13.6024 43.3826 12.5137 41.5403 11.6064L41.3771 51.8888C41.7502 51.7073 42.1466 51.5485 42.5431 51.3671Z" fill="url(#paint85_radial)"/>
<path d="M42.2873 36.1468C42.6604 40.8646 43.1968 45.9679 43.6165 50.8898C44.7359 50.3454 45.8086 49.733 46.8347 48.9846C48.3972 47.7824 50.0063 46.5123 51.3123 45.038C51.802 44.3122 52.1518 43.5637 52.5249 42.7698C52.7814 42.2255 53.0846 41.7038 53.4111 41.2048V25.1463C52.5249 23.8988 51.7553 22.5606 51.0557 21.1997C50.1462 19.4306 49.2834 17.6387 48.094 16.0284C47.6976 15.5747 47.2778 15.1665 46.8114 14.7809C45.1324 13.6014 43.3833 12.5127 41.541 11.6055L41.5177 20.111C41.541 21.0183 41.5877 21.9936 41.6343 22.9916C41.7975 27.2557 41.9375 31.7013 42.2873 36.1468Z" fill="url(#paint86_radial)"/>
<path d="M45.5049 43.7719C45.7148 45.7225 45.9014 47.6277 46.0413 49.5103C46.2978 49.3288 46.5544 49.1701 46.8109 48.9886C48.3733 47.7865 49.9824 46.5163 51.2884 45.042C51.7781 44.3162 52.1279 43.5677 52.501 42.7739C52.7576 42.2295 53.0607 41.7079 53.3872 41.2089V25.1504C52.501 23.9029 51.7315 22.5647 51.0319 21.2038C50.1224 19.4346 49.2595 17.6428 48.0702 16.0324C47.6737 15.5788 47.254 15.1705 46.7876 14.7849C46.1113 14.3086 45.435 13.855 44.7354 13.4014C44.712 15.4654 44.6887 17.5294 44.6887 19.6388C44.6887 23.6761 44.712 27.8041 44.8753 32.0002C45.0385 35.6973 45.2717 39.7572 45.5049 43.7719Z" fill="url(#paint87_radial)"/>
<path d="M48.0243 44.1565C48.0709 45.4267 48.1176 46.6968 48.1642 47.9443C49.2836 47.0371 50.3796 46.1071 51.2891 45.0411C51.7788 44.3153 52.1287 43.5668 52.5018 42.7729C52.7583 42.2286 53.0615 41.7069 53.388 41.2079V25.1494C52.5018 23.9019 51.7322 22.5637 51.0326 21.2028C50.1231 19.4337 49.2602 17.6419 48.0709 16.0315C47.861 15.782 47.6278 15.5325 47.3713 15.3057C47.3713 15.6459 47.3713 15.9861 47.3713 16.3036C47.348 20.976 47.4413 26.0113 47.5345 30.9559C47.6511 35.2654 47.8377 39.7563 48.0243 44.1565Z" fill="url(#paint88_radial)"/>
<path d="M50.4968 44.0416C50.5201 44.654 50.5201 45.2437 50.5434 45.8561C50.8 45.6066 51.0565 45.3345 51.313 45.0623C51.8027 44.3365 52.1525 43.588 52.5257 42.7941C52.7822 42.2498 53.0854 41.7281 53.4118 41.2291V33.7669C53.3186 30.6822 53.1786 27.5522 52.9454 24.4902C52.2458 23.4468 51.6395 22.3354 51.0565 21.224C50.73 20.5663 50.4035 19.9312 50.0537 19.2734C49.564 24.8304 50.1703 33.336 50.3569 38.8476C50.4035 40.5487 50.4502 42.2951 50.4968 44.0416Z" fill="url(#paint89_radial)"/>
<path d="M48.7244 34.9474C48.7477 36.6938 48.7944 38.5764 48.8643 40.595C48.9576 42.7498 49.0509 44.9272 49.1675 47.1273C49.9371 46.4695 50.66 45.7891 51.2897 45.0633C51.7794 44.3375 52.1292 43.589 52.5023 42.7951C52.7588 42.2508 53.062 41.7291 53.3885 41.2301V25.149C52.5023 23.9015 51.7327 22.5633 51.0331 21.2024C50.2869 19.7734 49.5873 18.3218 48.7244 16.9609V16.9836C48.7011 18.7755 48.6778 20.59 48.6545 22.4272C48.6311 24.5366 48.6311 26.6686 48.6545 28.846C48.6545 30.842 48.6778 32.8607 48.7244 34.9474Z" fill="url(#paint90_radial)"/>
<path d="M49.7733 24.1965C49.82 25.9203 49.8433 27.6214 49.8899 29.2318C49.9133 30.502 49.9366 31.8629 50.0065 33.2237C50.1931 37.3745 50.403 41.5705 50.6129 45.7666C50.8461 45.5398 51.0793 45.2903 51.2892 45.0408C51.7789 44.315 52.1287 43.5665 52.5018 42.7727C52.7583 42.2283 53.0615 41.7066 53.388 41.2076V25.1491C52.5018 23.9017 51.7322 22.5635 51.0326 21.2026C50.5662 20.318 50.1231 19.4334 49.6567 18.5488C49.6567 19.1159 49.6801 19.7056 49.6801 20.2726C49.7267 21.5881 49.75 22.9037 49.7733 24.1965Z" fill="url(#paint91_radial)"/>
<path d="M51.5685 32.6113C51.6618 36.3991 51.7784 40.2096 51.895 44.0427C52.1049 43.6345 52.3148 43.2035 52.5247 42.7726C52.7812 42.2282 53.0843 41.7066 53.4108 41.2076V25.1491C52.6413 24.083 51.9883 22.949 51.3586 21.7695C51.382 23.017 51.4286 24.2418 51.4519 25.3759C51.4752 27.9843 51.5219 30.2751 51.5685 32.6113Z" fill="url(#paint92_radial)"/>
<path d="M52.619 35.1503C52.6657 37.5092 52.7123 39.8907 52.759 42.295C52.9455 41.9094 53.1787 41.5465 53.3886 41.2063V25.1478C53.0855 24.7168 52.7823 24.2632 52.5024 23.8096C52.5258 26.3953 52.5491 28.9583 52.5724 31.544C52.5957 32.7914 52.5957 33.9482 52.619 35.1503Z" fill="url(#paint93_radial)"/>
<path d="M53.3878 41.2077V31.0918C53.3878 31.7949 53.3645 32.498 53.3645 33.1785C53.3412 34.4033 53.3179 35.5827 53.3179 36.7622C53.3179 38.2591 53.3179 39.7788 53.3412 41.3211C53.3645 41.2758 53.3645 41.2531 53.3878 41.2077Z" fill="url(#paint94_radial)"/>
<path d="M43.3812 51.004C44.5939 50.437 45.7366 49.7792 46.8327 48.9853C48.3951 47.7832 50.0042 46.5131 51.3102 45.0388C51.7999 44.313 52.1497 43.5645 52.5228 42.7706C52.7793 42.2263 53.0825 41.7046 53.409 41.2056V25.1471C52.5228 23.8996 51.7533 22.5614 51.0536 21.2005C50.1441 19.4314 49.2813 17.6395 48.092 16.0291C47.6955 15.5755 47.2757 15.1672 46.8093 14.7817C45.8299 14.1012 44.8504 13.4435 43.8243 12.8311C43.8943 15.0538 43.871 17.1405 43.731 19.0458C43.6144 20.8376 43.5445 22.7882 43.4978 24.5801C43.4279 26.7348 43.3812 28.9122 43.3579 31.0896C43.3346 33.5166 43.3113 35.9662 43.3113 38.4384C43.3113 40.5932 43.3113 42.7706 43.3346 44.948C43.3346 46.9667 43.3579 48.9853 43.3812 51.004Z" fill="url(#paint95_radial)"/>
<path d="M46.8318 48.9868C48.3943 47.7847 50.0034 46.5145 51.3093 45.0402C51.7991 44.3144 52.1489 43.5659 52.522 42.7721C52.7785 42.2277 53.0817 41.7061 53.4082 41.2071V25.1486C52.522 23.9011 51.7524 22.5629 51.0528 21.202C50.1433 19.4328 49.2805 17.641 48.0911 16.0306C47.6947 15.577 47.2749 15.1687 46.8085 14.7831C46.6686 14.6924 46.5287 14.579 46.3887 14.4883C45.969 21.0886 45.4792 27.5301 44.9895 33.881C44.8962 35.0831 44.8496 36.444 44.8029 37.7141C44.7563 39.3472 44.6863 41.0483 44.6164 42.7721C44.5697 44.0649 44.5231 45.3578 44.4765 46.696C44.4298 47.9435 44.4065 49.2136 44.3599 50.5518C45.2227 50.0528 46.0389 49.5539 46.8318 48.9868Z" fill="url(#paint96_radial)"/>
<path d="M46.8331 48.9855C48.3955 47.7834 50.0046 46.5132 51.3106 45.0389C51.8003 44.3131 52.1501 43.5646 52.5232 42.7708C52.5232 42.7708 52.5232 42.7481 52.5465 42.7481C52.6165 36.5788 52.7098 30.4321 52.7797 24.2173C52.1501 23.242 51.5904 22.2214 51.054 21.2007C50.1446 19.4316 49.2817 17.6397 48.0924 16.0293C48.0224 15.9613 47.9758 15.8932 47.9058 15.8252C47.556 25.0339 47.1595 34.1065 46.7864 43.2017C46.7165 45.107 46.6465 47.0803 46.5999 49.167C46.6698 49.0989 46.7398 49.0536 46.8331 48.9855Z" fill="url(#paint97_radial)"/>
<path d="M51.2859 45.0633C51.3325 44.9726 51.4025 44.9046 51.4491 44.8138C51.5191 37.3743 51.5657 29.8441 51.589 22.2458C51.4025 21.9055 51.2159 21.5426 51.0293 21.2024C50.3764 19.9549 49.7467 18.6848 49.0238 17.46C48.674 27.0542 48.2542 36.5351 47.9744 46.0386C47.9511 46.7191 47.9511 47.4222 47.9277 48.1253C49.1404 47.1727 50.3064 46.1747 51.2859 45.0633Z" fill="url(#paint98_radial)"/>
<path d="M50.1911 46.1971C50.2144 45.3805 50.2377 44.564 50.2377 43.7475C50.3543 38.3719 50.6342 33.1552 50.8441 28.0065C50.9373 25.7837 51.0073 23.5382 51.0773 21.2701C51.0539 21.2474 51.0539 21.2247 51.0306 21.2021C50.6575 20.4762 50.2844 19.7278 49.8879 19.002C49.6081 25.1033 49.3049 31.1139 49.0484 37.1471C48.9085 40.436 48.8385 43.9062 48.8152 47.3992C49.2816 47.0136 49.748 46.6053 50.1911 46.1971Z" fill="url(#paint99_radial)"/>
<path d="M43.3368 51.0297C44.5728 50.4627 45.7155 49.8049 46.8116 49.011C48.374 47.8089 49.9831 46.5388 51.2891 45.0645C51.7788 44.3387 52.1286 43.5902 52.5017 42.7963C52.7582 42.252 53.0614 41.7303 53.3879 41.2313V25.1501C52.5017 23.9026 51.7321 22.5644 51.0325 21.2035C50.123 19.4344 49.2602 17.6426 48.0709 16.0322C47.6744 15.5785 47.2546 15.1703 46.7882 14.7847C46.2285 14.3991 45.6689 14.0135 45.0858 13.6279C45.0858 13.7187 45.0858 13.7867 45.0858 13.8774C45.0625 15.9868 45.0159 18.1189 44.9926 20.2736C44.9692 22.6325 44.9226 24.9687 44.9226 27.3275C44.8993 34.7444 43.0103 38.5095 43.1736 46.1305C43.2202 47.6728 43.2669 49.3286 43.3368 51.0297Z" fill="url(#paint100_radial)"/>
<path d="M51.2884 45.0626C51.7781 44.3368 52.1279 43.5883 52.501 42.7945C52.7575 42.2501 53.0607 41.7285 53.3872 41.2295V25.1483C52.501 23.9008 51.7314 22.5626 51.0318 21.2017C50.1223 19.4326 49.2595 17.6407 48.0702 16.0303C47.6737 15.5767 47.2539 15.1684 46.7875 14.7829C46.5077 14.5787 46.2278 14.3973 45.948 14.2158C46.7642 25.8968 47.5105 37.5324 47.7203 48.3061C49.003 47.2854 50.2623 46.2194 51.2884 45.0626Z" fill="url(#paint101_radial)"/>
<path d="M51.2895 45.0629C51.7793 44.3371 52.1291 43.5886 52.5022 42.7948C52.6421 42.4772 52.8054 42.1824 52.9919 41.8648C53.1085 37.2832 53.2251 32.7469 53.3884 28.2333V25.1486C52.5022 23.9011 51.7326 22.5629 51.033 21.202C50.4733 20.136 49.9369 19.0473 49.3539 18.0039C49.284 27.7569 49.1207 37.3739 49.0974 47.1723C49.8903 46.4918 50.6366 45.8114 51.2895 45.0629Z" fill="url(#paint102_radial)"/>
<path d="M51.2884 45.0642C51.4749 44.7693 51.6615 44.4744 51.8247 44.1796C51.9413 37.2391 52.1279 30.3666 52.3145 23.5168C51.8714 22.7683 51.4283 21.9971 51.0318 21.2033C51.0085 21.1579 50.9852 21.1352 50.9852 21.0898C50.8686 29.3913 50.682 37.5793 50.5654 45.8127C50.822 45.5632 51.0552 45.3137 51.2884 45.0642Z" fill="url(#paint103_radial)"/>
<path d="M51.896 42.8857C51.896 43.2486 51.9194 43.6342 51.9194 43.9971C52.1292 43.6115 52.3158 43.2032 52.5257 42.7723C52.7822 42.2279 53.0854 41.7063 53.4119 41.2073V25.1488C52.8988 24.423 52.4324 23.6745 51.9893 22.9033C51.966 24.0147 51.9427 25.1261 51.9194 26.2602C51.896 27.9159 51.8727 29.5944 51.8727 31.2955C51.8494 33.2461 51.8494 35.2194 51.8727 37.238C51.8494 39.0752 51.8727 40.9578 51.896 42.8857Z" fill="url(#paint104_radial)"/>
<path d="M52.5245 42.7709C52.7811 42.2266 53.0842 41.7049 53.4107 41.2059V25.1474C52.5245 23.8999 51.755 22.5617 51.0554 21.2008C50.9621 21.0194 50.8688 20.8152 50.7522 20.6338C51.2186 27.8465 51.8016 35.3767 52.4313 43.0204C52.4546 42.9297 52.4779 42.8616 52.5245 42.7709Z" fill="url(#paint105_radial)"/>
<path opacity="0.6" d="M37.7384 53.571V10.5442C36.7822 10.4762 35.8961 10.1359 35.1965 9.61426H33.8439V54.9999H36.2459C36.619 54.4329 37.132 53.9339 37.7384 53.571Z" fill="url(#paint106_linear)"/>
<path opacity="0.6" d="M51.2289 45.2832C51.8614 44.5408 52.3133 43.7752 52.7952 42.9632C53.1566 42.3832 53.5482 41.8032 54 41.2696V24.9832C52.8253 23.684 51.8012 22.292 50.8976 20.8536C50.2651 19.9024 49.6627 18.928 49 18V47C49.7831 46.4664 50.5361 45.8864 51.2289 45.2832Z" fill="url(#paint107_linear)"/>
<path opacity="0.6" d="M37.8082 53.5224C38.9276 52.8873 40.117 52.3884 41.3296 51.8894V11.4936C41.1664 11.4029 40.9798 11.3349 40.8166 11.2441C40.047 10.9493 39.2541 10.7225 38.4379 10.5637C38.2746 10.5637 38.1114 10.541 37.9715 10.541C37.9015 10.541 37.8082 10.541 37.7383 10.541V53.5678C37.7616 53.5451 37.7849 53.5224 37.8082 53.5224Z" fill="url(#paint108_linear)"/>
<path opacity="0.6" d="M12.4356 45.947C13.3218 46.9676 14.3012 47.8749 15.3506 48.7141C15.6072 48.8956 15.887 49.0997 16.1435 49.2811V14.4424C16.1202 14.4651 16.0969 14.4877 16.0736 14.5104C15.0241 16.0301 14.3712 17.7085 13.4384 19.2962C13.0652 19.9086 12.6688 20.4983 12.2723 21.0654V45.7201C12.3423 45.8109 12.3889 45.8789 12.4356 45.947Z" fill="url(#paint109_linear)"/>
<path opacity="0.6" d="M19.7581 51.5952V11.8799C18.9652 12.2428 18.2189 12.6511 17.5193 13.15C17.0296 13.5583 16.5865 13.9893 16.1667 14.4429V49.2817C17.3328 50.0982 18.5221 50.8694 19.7581 51.5952Z" fill="url(#paint110_linear)"/>
<path opacity="0.8" d="M31.5 54.9999C44.4787 54.9999 55 44.8181 55 32.2583C55 19.6984 44.4787 9.5166 31.5 9.5166C18.5213 9.5166 8 19.6984 8 32.2583C8 44.8181 18.5213 54.9999 31.5 54.9999Z" stroke="url(#paint111_linear)" stroke-width="2" stroke-miterlimit="10"/>
<defs>
<linearGradient id="paint0_linear" x1="-4.7703" y1="-1.94925" x2="69.9602" y2="67.2621" gradientUnits="userSpaceOnUse">
<stop stop-color="#969699"/>
<stop offset="0.2788" stop-color="#B7ADAE"/>
<stop offset="1" stop-color="#E5E5E5"/>
</linearGradient>
<linearGradient id="paint1_linear" x1="31.9972" y1="1.10156" x2="31.9972" y2="62.8983" gradientUnits="userSpaceOnUse">
<stop stop-color="#F1E6E1"/>
<stop offset="1" stop-color="#CDC6C5"/>
</linearGradient>
<linearGradient id="paint2_linear" x1="49.0113" y1="31.4996" x2="13.9845" y2="31.4996" gradientUnits="userSpaceOnUse">
<stop stop-color="#8C8A89"/>
<stop offset="0.4731" stop-color="#F5F5F5"/>
<stop offset="0.5578" stop-color="#EFEFEF"/>
<stop offset="0.671" stop-color="#DFDEDE"/>
<stop offset="0.8004" stop-color="#C4C3C2"/>
<stop offset="0.9408" stop-color="#9E9C9C"/>
<stop offset="1" stop-color="#8C8A89"/>
</linearGradient>
<linearGradient id="paint3_linear" x1="31.5422" y1="9.32031" x2="31.5422" y2="53.6798" gradientUnits="userSpaceOnUse">
<stop stop-color="#5D5D56"/>
<stop offset="0.1376" stop-color="#83837E"/>
<stop offset="0.384" stop-color="#C1C1C0"/>
<stop offset="0.5" stop-color="#DADADA"/>
<stop offset="0.556" stop-color="#D3D3D2"/>
<stop offset="0.6422" stop-color="#BEBEBD"/>
<stop offset="0.7479" stop-color="#9C9C99"/>
<stop offset="0.8689" stop-color="#6D6D68"/>
<stop offset="1" stop-color="#33332B"/>
</linearGradient>
<radialGradient id="paint4_radial" cx="0" cy="0" r="1" gradientUnits="userSpaceOnUse" gradientTransform="translate(10.7765 -238.982) rotate(56.8642) scale(20.5747 230.668)">
<stop stop-color="#B35018"/>
<stop offset="1" stop-color="#DE8D35"/>
</radialGradient>
<radialGradient id="paint5_radial" cx="0" cy="0" r="1" gradientUnits="userSpaceOnUse" gradientTransform="translate(11.3165 -249.524) rotate(56.8642) scale(17.0677 191.35)">
<stop stop-color="#B35018"/>
<stop offset="1" stop-color="#DE8D35"/>
</radialGradient>
<radialGradient id="paint6_radial" cx="0" cy="0" r="1" gradientUnits="userSpaceOnUse" gradientTransform="translate(15.3841 -24.7248) rotate(-123.13) scale(21.6028 199.973)">
<stop stop-color="#B35018"/>
<stop offset="1" stop-color="#DE8D35"/>
</radialGradient>
<radialGradient id="paint7_radial" cx="0" cy="0" r="1" gradientUnits="userSpaceOnUse" gradientTransform="translate(15.9894 -17.5866) rotate(-123.13) scale(17.3636 160.731)">
<stop stop-color="#B35018"/>
<stop offset="1" stop-color="#DE8D35"/>
</radialGradient>
<radialGradient id="paint8_radial" cx="0" cy="0" r="1" gradientUnits="userSpaceOnUse" gradientTransform="translate(16.7272 -11.0131) rotate(-123.13) scale(12.4519 115.264)">
<stop stop-color="#B35018"/>
<stop offset="1" stop-color="#DE8D35"/>
</radialGradient>
<radialGradient id="paint9_radial" cx="0" cy="0" r="1" gradientUnits="userSpaceOnUse" gradientTransform="translate(17.0969 -7.09135) rotate(-123.13) scale(7.53963 69.7928)">
<stop stop-color="#B35018"/>
<stop offset="1" stop-color="#DE8D35"/>
</radialGradient>
<radialGradient id="paint10_radial" cx="0" cy="0" r="1" gradientUnits="userSpaceOnUse" gradientTransform="translate(17.5182 -13.6396) rotate(-123.13) scale(4.42433 40.955)">
<stop stop-color="#B35018"/>
<stop offset="1" stop-color="#DE8D35"/>
</radialGradient>
<radialGradient id="paint11_radial" cx="0" cy="0" r="1" gradientUnits="userSpaceOnUse" gradientTransform="translate(19.0962 -63.205) rotate(-123.134) scale(10.0263 193.832)">
<stop stop-color="#B35018"/>
<stop offset="1" stop-color="#DE8D35"/>
</radialGradient>
<radialGradient id="paint12_radial" cx="0" cy="0" r="1" gradientUnits="userSpaceOnUse" gradientTransform="translate(18.8049 -60.6436) rotate(-123.134) scale(8.73276 168.826)">
<stop stop-color="#B35018"/>
<stop offset="1" stop-color="#DE8D35"/>
</radialGradient>
<radialGradient id="paint13_radial" cx="0" cy="0" r="1" gradientUnits="userSpaceOnUse" gradientTransform="translate(18.7699 -56.7937) rotate(-123.134) scale(8.1241 157.059)">
<stop stop-color="#B35018"/>
<stop offset="1" stop-color="#DE8D35"/>
</radialGradient>
<radialGradient id="paint14_radial" cx="0" cy="0" r="1" gradientUnits="userSpaceOnUse" gradientTransform="translate(18.7318 -49.535) rotate(-123.134) scale(6.9768 134.879)">
<stop stop-color="#B35018"/>
<stop offset="1" stop-color="#DE8D35"/>
</radialGradient>
<radialGradient id="paint15_radial" cx="0" cy="0" r="1" gradientUnits="userSpaceOnUse" gradientTransform="translate(19.0177 -28.004) rotate(-123.134) scale(6.85097 132.446)">
<stop stop-color="#B35018"/>
<stop offset="1" stop-color="#DE8D35"/>
</radialGradient>
<radialGradient id="paint16_radial" cx="0" cy="0" r="1" gradientUnits="userSpaceOnUse" gradientTransform="translate(13.8267 6.84538) rotate(-123.134) scale(11.9586 231.189)">
<stop stop-color="#B35018"/>
<stop offset="1" stop-color="#DE8D35"/>
</radialGradient>
<radialGradient id="paint17_radial" cx="0" cy="0" r="1" gradientUnits="userSpaceOnUse" gradientTransform="translate(14.0082 5.64311) rotate(-123.134) scale(9.64258 186.415)">
<stop stop-color="#B35018"/>
<stop offset="1" stop-color="#DE8D35"/>
</radialGradient>
<radialGradient id="paint18_radial" cx="0" cy="0" r="1" gradientUnits="userSpaceOnUse" gradientTransform="translate(13.9647 3.9125) rotate(-123.134) scale(8.75656 169.286)">
<stop stop-color="#B35018"/>
<stop offset="1" stop-color="#DE8D35"/>
</radialGradient>
<radialGradient id="paint19_radial" cx="0" cy="0" r="1" gradientUnits="userSpaceOnUse" gradientTransform="translate(13.9588 -2.02471) rotate(-123.134) scale(7.06125 136.511)">
<stop stop-color="#B35018"/>
<stop offset="1" stop-color="#DE8D35"/>
</radialGradient>
<radialGradient id="paint20_radial" cx="0" cy="0" r="1" gradientUnits="userSpaceOnUse" gradientTransform="translate(14.5731 -20.9898) rotate(-123.134) scale(7.30442 141.212)">
<stop stop-color="#B35018"/>
<stop offset="1" stop-color="#DE8D35"/>
</radialGradient>
<radialGradient id="paint21_radial" cx="0" cy="0" r="1" gradientUnits="userSpaceOnUse" gradientTransform="translate(26.1273 27.823) rotate(-123.134) scale(8.04093 155.451)">
<stop stop-color="#B35018"/>
<stop offset="1" stop-color="#DE8D35"/>
</radialGradient>
<radialGradient id="paint22_radial" cx="0" cy="0" r="1" gradientUnits="userSpaceOnUse" gradientTransform="translate(25.8779 26.3287) rotate(-123.134) scale(6.85684 132.56)">
<stop stop-color="#B35018"/>
<stop offset="1" stop-color="#DE8D35"/>
</radialGradient>
<radialGradient id="paint23_radial" cx="0" cy="0" r="1" gradientUnits="userSpaceOnUse" gradientTransform="translate(15.3477 -22.1335) rotate(50.9183) scale(13.1129 271.036)">
<stop stop-color="#B35018"/>
<stop offset="1" stop-color="#DE8D35"/>
</radialGradient>
<radialGradient id="paint24_radial" cx="0" cy="0" r="1" gradientUnits="userSpaceOnUse" gradientTransform="translate(15.2723 -17.6091) rotate(50.9183) scale(13.4423 277.843)">
<stop stop-color="#B35018"/>
<stop offset="1" stop-color="#DE8D35"/>
</radialGradient>
<radialGradient id="paint25_radial" cx="0" cy="0" r="1" gradientUnits="userSpaceOnUse" gradientTransform="translate(17.6132 -13.8067) rotate(50.9183) scale(7.91343 163.565)">
<stop stop-color="#B35018"/>
<stop offset="1" stop-color="#DE8D35"/>
</radialGradient>
<radialGradient id="paint26_radial" cx="0" cy="0" r="1" gradientUnits="userSpaceOnUse" gradientTransform="translate(17.2265 10.1315) rotate(50.9183) scale(8.2716 170.968)">
<stop stop-color="#B35018"/>
<stop offset="1" stop-color="#DE8D35"/>
</radialGradient>
<radialGradient id="paint27_radial" cx="0" cy="0" r="1" gradientUnits="userSpaceOnUse" gradientTransform="translate(21.9487 -52.8351) rotate(-123.134) scale(9.36264 181.003)">
<stop stop-color="#B35018"/>
<stop offset="1" stop-color="#DE8D35"/>
</radialGradient>
<radialGradient id="paint28_radial" cx="0" cy="0" r="1" gradientUnits="userSpaceOnUse" gradientTransform="translate(19.6166 -54.2928) rotate(-123.134) scale(10.8397 209.557)">
<stop stop-color="#B35018"/>
<stop offset="1" stop-color="#DE8D35"/>
</radialGradient>
<radialGradient id="paint29_radial" cx="0" cy="0" r="1" gradientUnits="userSpaceOnUse" gradientTransform="translate(21.6021 -40.0657) rotate(-123.134) scale(6.5254 126.152)">
<stop stop-color="#B35018"/>
<stop offset="1" stop-color="#DE8D35"/>
</radialGradient>
<radialGradient id="paint30_radial" cx="0" cy="0" r="1" gradientUnits="userSpaceOnUse" gradientTransform="translate(26.2127 251.213) rotate(56.8643) scale(20.5216 230.073)">
<stop stop-color="#B35018"/>
<stop offset="1" stop-color="#DE8D35"/>
</radialGradient>
<radialGradient id="paint31_radial" cx="0" cy="0" r="1" gradientUnits="userSpaceOnUse" gradientTransform="translate(26.6697 261.669) rotate(56.8643) scale(16.9721 190.279)">
<stop stop-color="#B35018"/>
<stop offset="1" stop-color="#DE8D35"/>
</radialGradient>
<radialGradient id="paint32_radial" cx="0" cy="0" r="1" gradientUnits="userSpaceOnUse" gradientTransform="translate(32.3188 82.1443) rotate(-123.13) scale(21.3441 197.578)">
<stop stop-color="#B35018"/>
<stop offset="1" stop-color="#DE8D35"/>
</radialGradient>
<radialGradient id="paint33_radial" cx="0" cy="0" r="1" gradientUnits="userSpaceOnUse" gradientTransform="translate(32.9686 77.7402) rotate(-123.13) scale(17.2062 159.274)">
<stop stop-color="#B35018"/>
<stop offset="1" stop-color="#DE8D35"/>
</radialGradient>
<radialGradient id="paint34_radial" cx="0" cy="0" r="1" gradientUnits="userSpaceOnUse" gradientTransform="translate(33.7444 74.165) rotate(-123.13) scale(12.2785 113.66)">
<stop stop-color="#B35018"/>
<stop offset="1" stop-color="#DE8D35"/>
</radialGradient>
<radialGradient id="paint35_radial" cx="0" cy="0" r="1" gradientUnits="userSpaceOnUse" gradientTransform="translate(34.141 71.8354) rotate(-123.13) scale(7.3373 67.9198)">
<stop stop-color="#B35018"/>
<stop offset="1" stop-color="#DE8D35"/>
</radialGradient>
<radialGradient id="paint36_radial" cx="0" cy="0" r="1" gradientUnits="userSpaceOnUse" gradientTransform="translate(34.2673 78.3547) rotate(-123.13) scale(4.52713 41.9067)">
<stop stop-color="#B35018"/>
<stop offset="1" stop-color="#DE8D35"/>
</radialGradient>
<radialGradient id="paint37_radial" cx="0" cy="0" r="1" gradientUnits="userSpaceOnUse" gradientTransform="translate(35.7149 124.76) rotate(-123.134) scale(9.83879 190.208)">
<stop stop-color="#B35018"/>
<stop offset="1" stop-color="#DE8D35"/>
</radialGradient>
<radialGradient id="paint38_radial" cx="0" cy="0" r="1" gradientUnits="userSpaceOnUse" gradientTransform="translate(35.4453 121.772) rotate(-123.134) scale(8.51641 164.643)">
<stop stop-color="#B35018"/>
<stop offset="1" stop-color="#DE8D35"/>
</radialGradient>
<radialGradient id="paint39_radial" cx="0" cy="0" r="1" gradientUnits="userSpaceOnUse" gradientTransform="translate(35.4379 118.353) rotate(-123.134) scale(7.81316 151.048)">
<stop stop-color="#B35018"/>
<stop offset="1" stop-color="#DE8D35"/>
</radialGradient>
<radialGradient id="paint40_radial" cx="0" cy="0" r="1" gradientUnits="userSpaceOnUse" gradientTransform="translate(35.4514 112.061) rotate(-123.134) scale(6.61101 127.807)">
<stop stop-color="#B35018"/>
<stop offset="1" stop-color="#DE8D35"/>
</radialGradient>
<radialGradient id="paint41_radial" cx="0" cy="0" r="1" gradientUnits="userSpaceOnUse" gradientTransform="translate(35.8888 94.6741) rotate(-123.134) scale(6.21829 120.215)">
<stop stop-color="#B35018"/>
<stop offset="1" stop-color="#DE8D35"/>
</radialGradient>
<radialGradient id="paint42_radial" cx="0" cy="0" r="1" gradientUnits="userSpaceOnUse" gradientTransform="translate(31.0058 51.0499) rotate(-123.134) scale(11.7011 226.211)">
<stop stop-color="#B35018"/>
<stop offset="1" stop-color="#DE8D35"/>
</radialGradient>
<radialGradient id="paint43_radial" cx="0" cy="0" r="1" gradientUnits="userSpaceOnUse" gradientTransform="translate(31.1783 52.4947) rotate(-123.134) scale(9.29934 179.779)">
<stop stop-color="#B35018"/>
<stop offset="1" stop-color="#DE8D35"/>
</radialGradient>
<radialGradient id="paint44_radial" cx="0" cy="0" r="1" gradientUnits="userSpaceOnUse" gradientTransform="translate(31.1206 53.8033) rotate(-123.134) scale(8.27188 159.916)">
<stop stop-color="#B35018"/>
<stop offset="1" stop-color="#DE8D35"/>
</radialGradient>
<radialGradient id="paint45_radial" cx="0" cy="0" r="1" gradientUnits="userSpaceOnUse" gradientTransform="translate(31.0751 58.8185) rotate(-123.134) scale(6.28472 121.499)">
<stop stop-color="#B35018"/>
<stop offset="1" stop-color="#DE8D35"/>
</radialGradient>
<radialGradient id="paint46_radial" cx="0" cy="0" r="1" gradientUnits="userSpaceOnUse" gradientTransform="translate(31.5457 76.4917) rotate(-123.134) scale(6.33183 122.41)">
<stop stop-color="#B35018"/>
<stop offset="1" stop-color="#DE8D35"/>
</radialGradient>
<radialGradient id="paint47_radial" cx="0" cy="0" r="1" gradientUnits="userSpaceOnUse" gradientTransform="translate(43.3227 67.9699) rotate(-123.134) scale(7.70888 149.032)">
<stop stop-color="#B35018"/>
<stop offset="1" stop-color="#DE8D35"/>
</radialGradient>
<radialGradient id="paint48_radial" cx="0" cy="0" r="1" gradientUnits="userSpaceOnUse" gradientTransform="translate(43.067 68.4157) rotate(-123.134) scale(6.76583 130.8)">
<stop stop-color="#B35018"/>
<stop offset="1" stop-color="#DE8D35"/>
</radialGradient>
<radialGradient id="paint49_radial" cx="0" cy="0" r="1" gradientUnits="userSpaceOnUse" gradientTransform="translate(32.3646 81.3745) rotate(56.8664) scale(12.721 245.928)">
<stop stop-color="#B35018"/>
<stop offset="1" stop-color="#DE8D35"/>
</radialGradient>
<radialGradient id="paint50_radial" cx="0" cy="0" r="1" gradientUnits="userSpaceOnUse" gradientTransform="translate(32.3291 77.2833) rotate(56.8663) scale(13.009 251.496)">
<stop stop-color="#B35018"/>
<stop offset="1" stop-color="#DE8D35"/>
</radialGradient>
<radialGradient id="paint51_radial" cx="0" cy="0" r="1" gradientUnits="userSpaceOnUse" gradientTransform="translate(34.3201 79.36) rotate(56.8664) scale(7.53225 145.617)">
<stop stop-color="#B35018"/>
<stop offset="1" stop-color="#DE8D35"/>
</radialGradient>
<radialGradient id="paint52_radial" cx="0" cy="0" r="1" gradientUnits="userSpaceOnUse" gradientTransform="translate(34.1776 57.2125) rotate(56.8664) scale(7.78153 150.436)">
<stop stop-color="#B35018"/>
<stop offset="1" stop-color="#DE8D35"/>
</radialGradient>
<radialGradient id="paint53_radial" cx="0" cy="0" r="1" gradientUnits="userSpaceOnUse" gradientTransform="translate(38.6136 123.777) rotate(-123.134) scale(9.17993 177.471)">
<stop stop-color="#B35018"/>
<stop offset="1" stop-color="#DE8D35"/>
</radialGradient>
<radialGradient id="paint54_radial" cx="0" cy="0" r="1" gradientUnits="userSpaceOnUse" gradientTransform="translate(36.2924 118.615) rotate(-123.134) scale(10.6172 205.257)">
<stop stop-color="#B35018"/>
<stop offset="1" stop-color="#DE8D35"/>
</radialGradient>
<radialGradient id="paint55_radial" cx="0" cy="0" r="1" gradientUnits="userSpaceOnUse" gradientTransform="translate(38.3612 111.932) rotate(-123.134) scale(6.1685 119.252)">
<stop stop-color="#B35018"/>
<stop offset="1" stop-color="#DE8D35"/>
</radialGradient>
<radialGradient id="paint56_radial" cx="0" cy="0" r="1" gradientUnits="userSpaceOnUse" gradientTransform="translate(27.0416 17.7053) rotate(56.8642) scale(20.5695 230.61)">
<stop stop-color="#B35018"/>
<stop offset="1" stop-color="#DE8D35"/>
</radialGradient>
<radialGradient id="paint57_radial" cx="0" cy="0" r="1" gradientUnits="userSpaceOnUse" gradientTransform="translate(27.493 27.4821) rotate(56.8643) scale(16.9805 190.372)">
<stop stop-color="#B35018"/>
<stop offset="1" stop-color="#DE8D35"/>
</radialGradient>
<radialGradient id="paint58_radial" cx="0" cy="0" r="1" gradientUnits="userSpaceOnUse" gradientTransform="translate(27.8153 34.4218) rotate(56.8643) scale(12.8612 144.19)">
<stop stop-color="#B35018"/>
<stop offset="1" stop-color="#DE8D35"/>
</radialGradient>
<radialGradient id="paint59_radial" cx="0" cy="0" r="1" gradientUnits="userSpaceOnUse" gradientTransform="translate(28.2743 21.8574) rotate(56.8643) scale(4.80565 53.8773)">
<stop stop-color="#B35018"/>
<stop offset="1" stop-color="#DE8D35"/>
</radialGradient>
<radialGradient id="paint60_radial" cx="0" cy="0" r="1" gradientUnits="userSpaceOnUse" gradientTransform="translate(33.1653 -152.716) rotate(-123.13) scale(21.4441 198.504)">
<stop stop-color="#B35018"/>
<stop offset="1" stop-color="#DE8D35"/>
</radialGradient>
<radialGradient id="paint61_radial" cx="0" cy="0" r="1" gradientUnits="userSpaceOnUse" gradientTransform="translate(33.7847 -149.226) rotate(-123.13) scale(17.2949 160.095)">
<stop stop-color="#B35018"/>
<stop offset="1" stop-color="#DE8D35"/>
</radialGradient>
<radialGradient id="paint62_radial" cx="0" cy="0" r="1" gradientUnits="userSpaceOnUse" gradientTransform="translate(34.5146 -140.181) rotate(-123.13) scale(12.3857 114.652)">
<stop stop-color="#B35018"/>
<stop offset="1" stop-color="#DE8D35"/>
</radialGradient>
<radialGradient id="paint63_radial" cx="0" cy="0" r="1" gradientUnits="userSpaceOnUse" gradientTransform="translate(36.4528 -78.0645) rotate(-123.134) scale(9.9303 191.977)">
<stop stop-color="#B35018"/>
<stop offset="1" stop-color="#DE8D35"/>
</radialGradient>
<radialGradient id="paint64_radial" cx="0" cy="0" r="1" gradientUnits="userSpaceOnUse" gradientTransform="translate(36.174 -77.0706) rotate(-123.134) scale(8.63031 166.845)">
<stop stop-color="#B35018"/>
<stop offset="1" stop-color="#DE8D35"/>
</radialGradient>
<radialGradient id="paint65_radial" cx="0" cy="0" r="1" gradientUnits="userSpaceOnUse" gradientTransform="translate(36.1526 -75.9896) rotate(-123.134) scale(7.87502 152.243)">
<stop stop-color="#B35018"/>
<stop offset="1" stop-color="#DE8D35"/>
</radialGradient>
<radialGradient id="paint66_radial" cx="0" cy="0" r="1" gradientUnits="userSpaceOnUse" gradientTransform="translate(36.1338 -78.7478) rotate(-123.134) scale(6.76713 130.825)">
<stop stop-color="#B35018"/>
<stop offset="1" stop-color="#DE8D35"/>
</radialGradient>
<radialGradient id="paint67_radial" cx="0" cy="0" r="1" gradientUnits="userSpaceOnUse" gradientTransform="translate(36.5558 -91.8579) rotate(-123.134) scale(6.59376 127.474)">
<stop stop-color="#B35018"/>
<stop offset="1" stop-color="#DE8D35"/>
</radialGradient>
<radialGradient id="paint68_radial" cx="0" cy="0" r="1" gradientUnits="userSpaceOnUse" gradientTransform="translate(31.8386 -177.048) rotate(-123.134) scale(11.7351 226.869)">
<stop stop-color="#B35018"/>
<stop offset="1" stop-color="#DE8D35"/>
</radialGradient>
<radialGradient id="paint69_radial" cx="0" cy="0" r="1" gradientUnits="userSpaceOnUse" gradientTransform="translate(31.9742 -165.817) rotate(-123.134) scale(9.31529 180.088)">
<stop stop-color="#B35018"/>
<stop offset="1" stop-color="#DE8D35"/>
</radialGradient>
<radialGradient id="paint70_radial" cx="0" cy="0" r="1" gradientUnits="userSpaceOnUse" gradientTransform="translate(31.9005 -158.88) rotate(-123.134) scale(8.23871 159.275)">
<stop stop-color="#B35018"/>
<stop offset="1" stop-color="#DE8D35"/>
</radialGradient>
<radialGradient id="paint71_radial" cx="0" cy="0" r="1" gradientUnits="userSpaceOnUse" gradientTransform="translate(31.8841 -148.584) rotate(-123.134) scale(6.32884 122.352)">
<stop stop-color="#B35018"/>
<stop offset="1" stop-color="#DE8D35"/>
</radialGradient>
<radialGradient id="paint72_radial" cx="0" cy="0" r="1" gradientUnits="userSpaceOnUse" gradientTransform="translate(32.2831 -127.421) rotate(-123.134) scale(6.29646 121.726)">
<stop stop-color="#B35018"/>
<stop offset="1" stop-color="#DE8D35"/>
</radialGradient>
<radialGradient id="paint73_radial" cx="0" cy="0" r="1" gradientUnits="userSpaceOnUse" gradientTransform="translate(43.9549 -105.479) rotate(-123.134) scale(7.69399 148.744)">
<stop stop-color="#B35018"/>
<stop offset="1" stop-color="#DE8D35"/>
</radialGradient>
<radialGradient id="paint74_radial" cx="0" cy="0" r="1" gradientUnits="userSpaceOnUse" gradientTransform="translate(43.6704 -98.5902) rotate(-123.134) scale(6.38224 123.384)">
<stop stop-color="#B35018"/>
<stop offset="1" stop-color="#DE8D35"/>
</radialGradient>
<radialGradient id="paint75_radial" cx="0" cy="0" r="1" gradientUnits="userSpaceOnUse" gradientTransform="translate(33.1547 -137.065) rotate(56.8663) scale(12.778 247.03)">
<stop stop-color="#B35018"/>
<stop offset="1" stop-color="#DE8D35"/>
</radialGradient>
<radialGradient id="paint76_radial" cx="0" cy="0" r="1" gradientUnits="userSpaceOnUse" gradientTransform="translate(33.1254 -136.178) rotate(56.8664) scale(13.1237 253.714)">
<stop stop-color="#B35018"/>
<stop offset="1" stop-color="#DE8D35"/>
</radialGradient>
<radialGradient id="paint77_radial" cx="0" cy="0" r="1" gradientUnits="userSpaceOnUse" gradientTransform="translate(35.0499 -124.436) rotate(56.8663) scale(7.61868 147.288)">
<stop stop-color="#B35018"/>
<stop offset="1" stop-color="#DE8D35"/>
</radialGradient>
<radialGradient id="paint78_radial" cx="0" cy="0" r="1" gradientUnits="userSpaceOnUse" gradientTransform="translate(34.8868 -141.195) rotate(56.8663) scale(7.83362 151.443)">
<stop stop-color="#B35018"/>
<stop offset="1" stop-color="#DE8D35"/>
</radialGradient>
<radialGradient id="paint79_radial" cx="0" cy="0" r="1" gradientUnits="userSpaceOnUse" gradientTransform="translate(39.2971 -65.1388) rotate(-123.134) scale(9.26529 179.121)">
<stop stop-color="#B35018"/>
<stop offset="1" stop-color="#DE8D35"/>
</radialGradient>
<radialGradient id="paint80_radial" cx="0" cy="0" r="1" gradientUnits="userSpaceOnUse" gradientTransform="translate(36.8719 -71.5743) rotate(-123.134) scale(10.9022 210.767)">
<stop stop-color="#B35018"/>
<stop offset="1" stop-color="#DE8D35"/>
</radialGradient>
<radialGradient id="paint81_radial" cx="0" cy="0" r="1" gradientUnits="userSpaceOnUse" gradientTransform="translate(39.0039 -67.6205) rotate(-123.134) scale(6.37437 123.232)">
<stop stop-color="#B35018"/>
<stop offset="1" stop-color="#DE8D35"/>
</radialGradient>
<radialGradient id="paint82_radial" cx="0" cy="0" r="1" gradientUnits="userSpaceOnUse" gradientTransform="translate(45.0046 -116.462) rotate(56.8643) scale(20.4704 229.498)">
<stop stop-color="#B35018"/>
<stop offset="1" stop-color="#DE8D35"/>
</radialGradient>
<radialGradient id="paint83_radial" cx="0" cy="0" r="1" gradientUnits="userSpaceOnUse" gradientTransform="translate(45.5306 -123.807) rotate(56.8643) scale(16.8893 189.35)">
<stop stop-color="#B35018"/>
<stop offset="1" stop-color="#DE8D35"/>
</radialGradient>
<radialGradient id="paint84_radial" cx="0" cy="0" r="1" gradientUnits="userSpaceOnUse" gradientTransform="translate(45.9015 -131.079) rotate(56.8642) scale(12.6882 142.25)">
<stop stop-color="#B35018"/>
<stop offset="1" stop-color="#DE8D35"/>
</radialGradient>
<radialGradient id="paint85_radial" cx="0" cy="0" r="1" gradientUnits="userSpaceOnUse" gradientTransform="translate(49.8349 40.5784) rotate(-123.13) scale(21.1199 195.502)">
<stop stop-color="#B35018"/>
<stop offset="1" stop-color="#DE8D35"/>
</radialGradient>
<radialGradient id="paint86_radial" cx="0" cy="0" r="1" gradientUnits="userSpaceOnUse" gradientTransform="translate(50.4454 46.1054) rotate(-123.13) scale(17.0731 158.042)">
<stop stop-color="#B35018"/>
<stop offset="1" stop-color="#DE8D35"/>
</radialGradient>
<radialGradient id="paint87_radial" cx="0" cy="0" r="1" gradientUnits="userSpaceOnUse" gradientTransform="translate(51.1853 51.3256) rotate(-123.13) scale(12.1288 112.274)">
<stop stop-color="#B35018"/>
<stop offset="1" stop-color="#DE8D35"/>
</radialGradient>
<radialGradient id="paint88_radial" cx="0" cy="0" r="1" gradientUnits="userSpaceOnUse" gradientTransform="translate(51.5625 54.3258) rotate(-123.13) scale(7.16344 66.3104)">
<stop stop-color="#B35018"/>
<stop offset="1" stop-color="#DE8D35"/>
</radialGradient>
<radialGradient id="paint89_radial" cx="0" cy="0" r="1" gradientUnits="userSpaceOnUse" gradientTransform="translate(51.8305 49.6121) rotate(-123.13) scale(4.15813 38.4909)">
<stop stop-color="#B35018"/>
<stop offset="1" stop-color="#DE8D35"/>
</radialGradient>
<radialGradient id="paint90_radial" cx="0" cy="0" r="1" gradientUnits="userSpaceOnUse" gradientTransform="translate(53.4876 15.5192) rotate(-123.134) scale(9.6933 187.395)">
<stop stop-color="#B35018"/>
<stop offset="1" stop-color="#DE8D35"/>
</radialGradient>
<radialGradient id="paint91_radial" cx="0" cy="0" r="1" gradientUnits="userSpaceOnUse" gradientTransform="translate(53.2087 17.2372) rotate(-123.134) scale(8.32293 160.903)">
<stop stop-color="#B35018"/>
<stop offset="1" stop-color="#DE8D35"/>
</radialGradient>
<radialGradient id="paint92_radial" cx="0" cy="0" r="1" gradientUnits="userSpaceOnUse" gradientTransform="translate(53.1743 20.0881) rotate(-123.134) scale(7.54494 145.862)">
<stop stop-color="#B35018"/>
<stop offset="1" stop-color="#DE8D35"/>
</radialGradient>
<radialGradient id="paint93_radial" cx="0" cy="0" r="1" gradientUnits="userSpaceOnUse" gradientTransform="translate(53.1446 25.3568) rotate(-123.134) scale(6.28751 121.553)">
<stop stop-color="#B35018"/>
<stop offset="1" stop-color="#DE8D35"/>
</radialGradient>
<radialGradient id="paint94_radial" cx="0" cy="0" r="1" gradientUnits="userSpaceOnUse" gradientTransform="translate(53.4495 40.8393) rotate(-123.134) scale(5.63102 108.862)">
<stop stop-color="#B35018"/>
<stop offset="1" stop-color="#DE8D35"/>
</radialGradient>
<radialGradient id="paint95_radial" cx="0" cy="0" r="1" gradientUnits="userSpaceOnUse" gradientTransform="translate(48.3268 62.4866) rotate(-123.134) scale(11.4506 221.368)">
<stop stop-color="#B35018"/>
<stop offset="1" stop-color="#DE8D35"/>
</radialGradient>
<radialGradient id="paint96_radial" cx="0" cy="0" r="1" gradientUnits="userSpaceOnUse" gradientTransform="translate(48.4902 61.8565) rotate(-123.134) scale(9.00037 173.999)">
<stop stop-color="#B35018"/>
<stop offset="1" stop-color="#DE8D35"/>
</radialGradient>
<radialGradient id="paint97_radial" cx="0" cy="0" r="1" gradientUnits="userSpaceOnUse" gradientTransform="translate(48.4445 60.6552) rotate(-123.134) scale(7.84415 151.647)">
<stop stop-color="#B35018"/>
<stop offset="1" stop-color="#DE8D35"/>
</radialGradient>
<radialGradient id="paint98_radial" cx="0" cy="0" r="1" gradientUnits="userSpaceOnUse" gradientTransform="translate(48.4326 56.4001) rotate(-123.134) scale(5.55027 107.3)">
<stop stop-color="#B35018"/>
<stop offset="1" stop-color="#DE8D35"/>
</radialGradient>
<radialGradient id="paint99_radial" cx="0" cy="0" r="1" gradientUnits="userSpaceOnUse" gradientTransform="translate(49.0276 43.3029) rotate(-123.134) scale(5.38746 104.153)">
<stop stop-color="#B35018"/>
<stop offset="1" stop-color="#DE8D35"/>
</radialGradient>
<radialGradient id="paint100_radial" cx="0" cy="0" r="1" gradientUnits="userSpaceOnUse" gradientTransform="translate(49.8665 41.5048) rotate(56.8663) scale(12.6739 245.017)">
<stop stop-color="#B35018"/>
<stop offset="1" stop-color="#DE8D35"/>
</radialGradient>
<radialGradient id="paint101_radial" cx="0" cy="0" r="1" gradientUnits="userSpaceOnUse" gradientTransform="translate(49.8082 44.6339) rotate(56.8663) scale(12.9312 249.992)">
<stop stop-color="#B35018"/>
<stop offset="1" stop-color="#DE8D35"/>
</radialGradient>
<radialGradient id="paint102_radial" cx="0" cy="0" r="1" gradientUnits="userSpaceOnUse" gradientTransform="translate(51.7929 48.6542) rotate(56.8663) scale(7.37737 142.623)">
<stop stop-color="#B35018"/>
<stop offset="1" stop-color="#DE8D35"/>
</radialGradient>
<radialGradient id="paint103_radial" cx="0" cy="0" r="1" gradientUnits="userSpaceOnUse" gradientTransform="translate(51.4949 66.3854) rotate(56.8663) scale(7.53223 145.617)">
<stop stop-color="#B35018"/>
<stop offset="1" stop-color="#DE8D35"/>
</radialGradient>
<radialGradient id="paint104_radial" cx="0" cy="0" r="1" gradientUnits="userSpaceOnUse" gradientTransform="translate(56.3534 24.7501) rotate(-123.134) scale(9.02588 174.492)">
<stop stop-color="#B35018"/>
<stop offset="1" stop-color="#DE8D35"/>
</radialGradient>
<radialGradient id="paint105_radial" cx="0" cy="0" r="1" gradientUnits="userSpaceOnUse" gradientTransform="translate(54.0266 22.2776) rotate(-123.134) scale(10.4194 201.433)">
<stop stop-color="#B35018"/>
<stop offset="1" stop-color="#DE8D35"/>
</radialGradient>
<linearGradient id="paint106_linear" x1="33.8549" y1="32.3094" x2="37.7295" y2="32.3094" gradientUnits="userSpaceOnUse">
<stop stop-color="white" stop-opacity="0.3"/>
<stop offset="0.2678" stop-color="#CCC5C0" stop-opacity="0.4875"/>
<stop offset="1" stop-color="#422918"/>
</linearGradient>
<linearGradient id="paint107_linear" x1="49.0111" y1="32.5137" x2="54.0157" y2="32.5137" gradientUnits="userSpaceOnUse">
<stop stop-color="white" stop-opacity="0.3"/>
<stop offset="0.2678" stop-color="#CCC5C0" stop-opacity="0.4875"/>
<stop offset="1" stop-color="#422918"/>
</linearGradient>
<linearGradient id="paint108_linear" x1="41.3265" y1="32.0544" x2="37.7294" y2="32.0544" gradientUnits="userSpaceOnUse">
<stop stop-color="white" stop-opacity="0.3"/>
<stop offset="0.2678" stop-color="#CCC5C0" stop-opacity="0.4875"/>
<stop offset="1" stop-color="#422918"/>
</linearGradient>
<linearGradient id="paint109_linear" x1="12.2849" y1="31.8612" x2="16.1595" y2="31.8612" gradientUnits="userSpaceOnUse">
<stop stop-color="white" stop-opacity="0.3"/>
<stop offset="0.2678" stop-color="#CCC5C0" stop-opacity="0.4875"/>
<stop offset="1" stop-color="#422918"/>
</linearGradient>
<linearGradient id="paint110_linear" x1="19.7565" y1="31.737" x2="16.1594" y2="31.737" gradientUnits="userSpaceOnUse">
<stop stop-color="white" stop-opacity="0.3"/>
<stop offset="0.2678" stop-color="#CCC5C0" stop-opacity="0.4875"/>
<stop offset="1" stop-color="#422918"/>
</linearGradient>
<linearGradient id="paint111_linear" x1="7.17904" y1="32.2583" x2="55.821" y2="32.2583" gradientUnits="userSpaceOnUse">
<stop/>
<stop offset="0.00429839" stop-color="#090909"/>
<stop offset="0.0277675" stop-color="#373737"/>
<stop offset="0.0542172" stop-color="#626262"/>
<stop offset="0.0826444" stop-color="#888888"/>
<stop offset="0.1136" stop-color="#A8A8A8"/>
<stop offset="0.1478" stop-color="#C4C4C4"/>
<stop offset="0.1864" stop-color="#DADADA"/>
<stop offset="0.2315" stop-color="#EBEBEB"/>
<stop offset="0.2872" stop-color="#F6F6F6"/>
<stop offset="0.3654" stop-color="#FDFDFD"/>
<stop offset="0.5824" stop-color="white"/>
<stop offset="0.6688" stop-color="#BBBBBB"/>
<stop offset="0.8455" stop-color="#363636"/>
<stop offset="0.9231"/>
</linearGradient>
</defs>
</svg>
