<svg width="64" height="64" viewBox="0 0 64 64" fill="none" xmlns="http://www.w3.org/2000/svg">
<path d="M61.9916 0H2C0.895431 0 0 0.895431 0 2V62C0 63.1046 0.895431 64 2 64H61.9916C63.0962 64 63.9916 63.1046 63.9916 62V2C63.9916 0.895431 63.0962 0 61.9916 0Z" fill="url(#paint0_linear)"/>
<path d="M60.8928 1.10156H3.10168C1.99712 1.10156 1.10168 1.99699 1.10168 3.10156V60.8983C1.10168 62.0028 1.99711 62.8983 3.10168 62.8983H60.8928C61.9973 62.8983 62.8928 62.0028 62.8928 60.8983V3.10156C62.8928 1.99699 61.9973 1.10156 60.8928 1.10156Z" fill="url(#paint1_linear)"/>
<path d="M35.3923 50.1602H27.8596V54.0735H35.3923V50.1602Z" fill="url(#paint2_linear)"/>
<path d="M34.1481 21.2953H29.1263C29.1263 17.2236 29.7823 13.1519 31.0717 9.23848L31.4337 8.15269C31.5015 7.9491 31.773 7.9491 31.8408 8.15269L32.2028 9.23848C32.8588 11.2065 33.3338 13.1971 33.6731 15.2103C33.9898 17.2462 34.1481 19.2594 34.1481 21.2953Z" fill="#E9DB94"/>
<path d="M32.2028 9.23848L31.8408 8.15269C31.773 7.9491 31.5015 7.9491 31.4337 8.15269L31.0717 9.23848C29.7823 13.1519 29.1263 17.2236 29.1263 21.2953H31.1848C31.1622 17.7439 31.6599 14.1924 32.6552 10.7314C32.5194 10.2338 32.3611 9.73614 32.2028 9.23848Z" fill="#F1C320"/>
<path d="M34.6458 21.1367V27.1086L34.5553 27.1312H28.7191L28.6287 27.1086V21.1367H29.1263V21.1593H34.1707V21.1367H34.6458Z" fill="url(#paint3_linear)"/>
<path d="M30.7775 21.1367V27.1086L30.7323 27.1312H28.6512L28.606 27.1086V21.1367H28.8095V21.1593H30.6192V21.1367H30.7775Z" fill="#E54728"/>
<path d="M36.2518 31.0892V51.1764H35.3922H27.8595H27.0226V31.0892L31.6372 28.8271L36.2518 31.0892Z" fill="url(#paint4_linear)"/>
<path d="M29.2394 31.0908V51.178H29.0358H27.2262H27.0226V31.0908H29.2394Z" fill="url(#paint5_linear)"/>
<path d="M34.6457 26.9287L36.2518 31.0909H27.0226L28.6287 26.9287L28.7191 26.9513H34.5553L34.6457 26.9287Z" fill="url(#paint6_linear)"/>
<path d="M34.4195 31.0908H32.6777V51.178H34.4195V31.0908Z" fill="url(#paint7_linear)"/>
<path d="M35.3923 55.0004H27.8596C27.3846 55.0004 27 54.6159 27 54.1408C27 53.6658 27.3846 53.2812 27.8596 53.2812H35.3923C35.8673 53.2812 36.2519 53.6658 36.2519 54.1408C36.2519 54.6159 35.8899 55.0004 35.3923 55.0004Z" fill="#E54728"/>
<path d="M29.8954 54.1184C29.8954 53.6433 30.28 53.2588 30.755 53.2588H27.8596C27.3846 53.2588 27 53.6433 27 54.1184C27 54.5934 27.3846 54.978 27.8596 54.978H30.755C30.28 55.0006 29.8954 54.616 29.8954 54.1184Z" fill="url(#paint8_linear)"/>
<defs>
<linearGradient id="paint0_linear" x1="-4.7703" y1="-1.94925" x2="69.9602" y2="67.2621" gradientUnits="userSpaceOnUse">
<stop stop-color="#969699"/>
<stop offset="0.2788" stop-color="#B7ADAE"/>
<stop offset="1" stop-color="#E5E5E5"/>
</linearGradient>
<linearGradient id="paint1_linear" x1="31.9972" y1="1.10156" x2="31.9972" y2="62.8983" gradientUnits="userSpaceOnUse">
<stop stop-color="#F1E6E1"/>
<stop offset="1" stop-color="#CDC6C5"/>
</linearGradient>
<linearGradient id="paint2_linear" x1="31.626" y1="50.1602" x2="31.626" y2="54.0735" gradientUnits="userSpaceOnUse">
<stop stop-color="#F79022"/>
<stop offset="1" stop-color="#F95428"/>
</linearGradient>
<linearGradient id="paint3_linear" x1="31.6372" y1="21.1367" x2="31.6372" y2="27.1312" gradientUnits="userSpaceOnUse">
<stop stop-color="#E54728"/>
<stop offset="1" stop-color="#F78C22"/>
</linearGradient>
<linearGradient id="paint4_linear" x1="31.6372" y1="28.8271" x2="31.6372" y2="51.1764" gradientUnits="userSpaceOnUse">
<stop stop-color="#F95428"/>
<stop offset="1" stop-color="#F3922B"/>
</linearGradient>
<linearGradient id="paint5_linear" x1="28.131" y1="31.0908" x2="28.131" y2="51.178" gradientUnits="userSpaceOnUse">
<stop stop-color="#F79022"/>
<stop offset="1" stop-color="#F95428"/>
</linearGradient>
<linearGradient id="paint6_linear" x1="31.6372" y1="26.9287" x2="31.6372" y2="31.0909" gradientUnits="userSpaceOnUse">
<stop stop-color="#E54728"/>
<stop offset="1" stop-color="#F95428"/>
</linearGradient>
<linearGradient id="paint7_linear" x1="33.5486" y1="31.0908" x2="33.5486" y2="51.178" gradientUnits="userSpaceOnUse">
<stop stop-color="#F3922B"/>
<stop offset="1" stop-color="#E54728"/>
</linearGradient>
<linearGradient id="paint8_linear" x1="28.8775" y1="53.2588" x2="28.8775" y2="54.9789" gradientUnits="userSpaceOnUse">
<stop stop-color="#F79022"/>
<stop offset="1" stop-color="#F95428"/>
</linearGradient>
</defs>
</svg>
