<svg width="64" height="64" viewBox="0 0 64 64" fill="none" xmlns="http://www.w3.org/2000/svg">
<path d="M61.9916 0H2C0.895431 0 0 0.895431 0 2V62C0 63.1046 0.895431 64 2 64H61.9916C63.0962 64 63.9916 63.1046 63.9916 62V2C63.9916 0.895431 63.0962 0 61.9916 0Z" fill="url(#paint0_linear)"/>
<path d="M60.8928 1.10156H3.10168C1.99712 1.10156 1.10168 1.99699 1.10168 3.10156V60.8983C1.10168 62.0028 1.99711 62.8983 3.10168 62.8983H60.8928C61.9973 62.8983 62.8928 62.0028 62.8928 60.8983V3.10156C62.8928 1.99699 61.9973 1.10156 60.8928 1.10156Z" fill="url(#paint1_linear)"/>
<path d="M42.3596 33.5728C42.4267 33.5058 42.6277 33.5728 42.6948 33.7068C42.8288 33.975 42.8288 34.3101 42.6277 34.5112C41.8904 35.3156 40.4827 35.7849 38.2706 35.3827C38.4047 34.7794 38.5388 34.2431 38.6058 33.7068C40.4157 34.3772 41.6893 34.1761 42.3596 33.5728Z" fill="#1D1D1B"/>
<path d="M37.8683 29.8192L37.7343 38.8015L38.9408 41.751H39.4101L43.432 38.6675L43.4991 38.3993V38.3323C43.9013 36.6565 44.1024 34.9807 44.1024 33.506C44.1024 32.9027 44.0353 32.2994 43.9683 31.6961C43.9683 31.562 43.9683 31.495 43.9013 31.3609C43.9013 31.2939 43.9013 31.2939 43.9013 31.2269C43.7002 30.4225 42.9628 29.8192 42.0914 29.9532C41.6221 30.0203 41.2199 30.0203 40.7507 30.0873C40.3485 30.0873 40.0134 29.9532 39.7452 29.6851C39.4771 29.417 39.343 29.0818 39.343 28.6796V25.7972C39.343 25.1939 38.8068 24.6577 38.2035 24.6577L37.8683 29.8192ZM43.1639 31.3609C43.1639 31.428 43.1639 31.428 43.1639 31.495C43.1639 31.6291 43.1639 31.6961 43.2309 31.8302C43.298 32.3664 43.365 32.9697 43.365 33.573C43.365 34.5785 43.365 35.2488 43.1639 36.1873C43.0298 36.9246 42.4265 37.4609 41.6221 37.4609H39.4771L39.4101 35.4499V34.5115L39.343 32.2994C39.343 31.562 39.8793 30.9587 40.6167 30.9587C41.0859 30.9587 41.5551 30.8917 42.0914 30.8247C42.2925 30.8247 42.4936 30.8247 42.6276 30.8917C42.7617 30.9587 42.8958 31.0928 42.9628 31.2269C43.0969 31.1598 43.1639 31.2939 43.1639 31.3609Z" fill="#303030"/>
<path d="M55.9672 40.6117L55.2969 47.6501C55.2969 48.2534 54.6936 48.7227 53.9562 48.7227C49.1969 48.5216 43.4321 47.5161 39.7453 46.3095C38.2036 45.7732 38.0695 47.1809 37.9354 47.1139V37.7293L54.8947 39.6062C55.565 39.6733 55.9672 40.1425 55.9672 40.6117Z" fill="#1D1D1B"/>
<path d="M52.8167 47.1133C48.7277 46.8452 41.9574 45.3034 40.3486 44.8342C40.0135 44.7671 39.8124 44.432 39.8124 44.1638V40.41C39.8124 40.0078 40.2146 39.6727 40.6838 39.6727L53.42 41.0803C53.8222 41.1474 54.1574 41.4825 54.1574 41.8847L53.7552 46.443C53.6211 46.8452 53.2189 47.1133 52.8167 47.1133Z" fill="#3C3C3B"/>
<path d="M33.9136 14.0003V14.8047H36.3938V14.0003H33.9136Z" fill="#1D1D1B"/>
<path d="M32.7739 47.1809C32.7739 47.5831 33.1091 47.9853 33.5113 48.1193C33.5113 48.1193 35.3212 48.5215 36.4607 48.8567C36.997 48.9908 37.4662 49.46 37.5332 50.0633C37.5332 50.2644 37.7343 50.3984 37.8684 50.3984H38.0025C38.2036 50.3984 38.3376 50.2644 38.3376 50.0633V48.2534V47.7842V16.0777C38.3376 15.7426 38.0695 15.5415 37.8014 15.4744L33.3102 15.0723C33.0421 15.0723 32.7739 15.2733 32.7739 15.5415V47.1809Z" fill="#3C3C3B"/>
<path d="M33.3772 14.7366V15.541H37.6002V14.7366H33.3772Z" fill="#3C3C3B"/>
<path d="M32.774 16.0106V18.2227C32.3048 18.2227 31.9696 17.8875 31.9696 17.4183V16.815C31.9696 16.3457 32.3718 16.0106 32.774 16.0106Z" fill="#1D1D1B"/>
<path d="M34.2487 15.4738V37.8627L36.0585 38.1308V38.3319L34.3157 38.0638V38.3319L36.1256 38.6V38.8011L34.3827 38.533V38.8011L36.1926 39.0693V39.2704L34.4498 39.0022V39.2704L36.2596 39.5385V39.7396L34.5168 39.4715V39.7396L36.3267 40.0077V40.2088L34.5838 39.9407V40.2088L36.3937 40.4769V40.678L34.6509 40.4099V40.678L36.4607 40.9462V41.1473L34.7179 40.8791V41.1473L36.5278 41.4154V41.6165L34.7849 41.3484L36.5948 41.6165V41.8176L34.852 41.5495V41.8176L36.6618 42.0857V42.2868L34.919 42.0187V42.2868L36.7289 42.555V42.7561L34.986 42.4879V42.689L36.7959 42.9572V43.1582L35.0531 42.8901V43.1582L36.8629 43.4264V43.6275L35.1201 43.3593V43.6275L36.93 43.8956V44.0967L35.1871 43.8286V44.0297L36.997 44.2978V44.4989L35.2541 44.2308V48.1857C35.2541 48.3868 35.3882 48.5879 35.6563 48.6549L37.4662 48.9901C37.7344 49.0571 38.0025 48.856 38.0025 48.5209V15.4738C38.0025 15.2057 37.8014 15.0045 37.5333 15.0045H35.7234C34.4498 15.0045 34.2487 15.2057 34.2487 15.4738Z" fill="#1D1D1B"/>
<path d="M52.2134 44.1644C52.2134 43.7201 51.8533 43.36 51.409 43.36C50.9648 43.36 50.6046 43.7201 50.6046 44.1644C50.6046 44.6086 50.9648 44.9688 51.409 44.9688C51.8533 44.9688 52.2134 44.6086 52.2134 44.1644Z" fill="#1D1D1B"/>
<path d="M20.6075 33.774C20.5405 33.7069 20.3394 33.774 20.2724 33.908C20.1383 34.1761 20.1383 34.5113 20.3394 34.7124C21.0768 35.5168 22.4845 35.986 24.6965 35.5838C24.5625 34.9805 24.4284 34.4443 24.3614 33.908C22.5515 34.5783 21.2779 34.3772 20.6075 33.774Z" fill="#1D1D1B"/>
<path d="M25.0988 30.0203L25.2329 39.0027L24.0263 41.9521H23.5571L19.5351 38.8686L19.4681 38.6005V38.5335C19.0659 36.8577 18.8648 35.1819 18.8648 33.7071C18.8648 33.1038 18.9318 32.5005 18.9989 31.8973C18.9989 31.7632 18.9989 31.6962 19.0659 31.5621C19.0659 31.4951 19.0659 31.4951 19.0659 31.428C19.267 30.6236 20.0044 30.0203 20.8758 30.1544C21.345 30.2214 21.7472 30.2214 22.2164 30.2885C22.6186 30.2885 22.9538 30.1544 23.2219 29.8863C23.4901 29.6181 23.6241 29.283 23.6241 28.8808V25.9984C23.6241 25.3951 24.1604 24.8588 24.7637 24.8588L25.0988 30.0203ZM19.8033 31.5621C19.8033 31.6291 19.8033 31.6291 19.8033 31.6962C19.8033 31.8302 19.8033 31.8973 19.7362 32.0313C19.6692 32.5676 19.6022 33.1709 19.6022 33.7742C19.6022 34.7797 19.6022 35.45 19.8033 36.3884C19.9373 37.1258 20.5406 37.6621 21.345 37.6621H23.4901L23.5571 35.6511V34.7126L23.6241 32.5006C23.6241 31.7632 23.0879 31.1599 22.3505 31.1599C21.8813 31.1599 21.4121 31.0929 20.8758 31.0258C20.6747 31.0258 20.4736 31.0258 20.3395 31.0929C20.2055 31.1599 20.0714 31.294 20.0044 31.428C19.8703 31.361 19.8033 31.4951 19.8033 31.5621Z" fill="#303030"/>
<path d="M6.99996 40.8129L7.67029 47.8513C7.67029 48.4546 8.27358 48.9238 9.01094 48.9238C13.7703 48.7227 19.5351 47.7172 23.2219 46.5107C24.7636 45.9744 24.8977 47.3821 25.0317 47.315V37.9305L8.07248 39.8074C7.40216 39.8744 6.99996 40.3437 6.99996 40.8129Z" fill="#1D1D1B"/>
<path d="M10.1505 47.3145C14.2394 47.0463 21.0097 45.5046 22.6185 45.0353C22.9537 44.9683 23.1548 44.6331 23.1548 44.365V40.6112C23.1548 40.209 22.7526 39.8738 22.2834 39.8738L9.54717 41.2815C9.14497 41.3486 8.8098 41.6837 8.8098 42.0859L9.212 46.6441C9.34607 47.0463 9.74826 47.3145 10.1505 47.3145Z" fill="#3C3C3B"/>
<path d="M29.0537 14.2015V15.0059H26.5735V14.2015H29.0537Z" fill="#1D1D1B"/>
<path d="M30.1934 47.382C30.1934 47.7842 29.8582 48.1864 29.456 48.3205C29.456 48.3205 27.6461 48.7227 26.5066 49.0579C25.9703 49.1919 25.5011 49.6612 25.434 50.2644C25.434 50.4655 25.2329 50.5996 25.0989 50.5996H24.9648C24.7637 50.5996 24.6297 50.4655 24.6297 50.2644V48.4546V47.9853L24.6297 16.2789C24.6297 15.9437 24.8978 15.7426 25.1659 15.6756L29.6571 15.2734C29.9252 15.2734 30.1934 15.4745 30.1934 15.7426L30.1934 47.382Z" fill="#3C3C3B"/>
<path d="M29.5901 14.9378V15.7422H25.367V14.9378H29.5901Z" fill="#3C3C3B"/>
<path d="M30.1933 16.2117V18.4238C30.6625 18.4238 30.9977 18.0887 30.9977 17.6194V17.0161C30.9977 16.5469 30.5955 16.2117 30.1933 16.2117Z" fill="#1D1D1B"/>
<path d="M28.7185 15.675L28.7185 38.0638L26.9086 38.332V38.5331L28.6515 38.2649V38.5331L26.8416 38.8012V39.0023L28.5844 38.7342V39.0023L26.7746 39.2704V39.4715L28.5174 39.2034V39.4715L26.7075 39.7397V39.9408L28.4504 39.6726V39.9408L26.6405 40.2089V40.41L28.3833 40.1419V40.41L26.5735 40.6781V40.8792L28.3163 40.6111V40.8792L26.5064 41.1473V41.3484L28.2493 41.0803V41.3484L26.4394 41.6166V41.8177L28.1822 41.5495L26.3724 41.8177V42.0188L28.1152 41.7506V42.0188L26.3053 42.2869V42.488L28.0482 42.2199V42.488L26.2383 42.7561V42.9572L27.9811 42.6891V42.8902L26.1713 43.1583V43.3594L27.9141 43.0913V43.3594L26.1042 43.6275V43.8286L27.8471 43.5605V43.8286L26.0372 44.0968V44.2979L27.78 44.0297V44.2308L25.9702 44.499V44.7001L27.713 44.4319V48.3869C27.713 48.588 27.579 48.7891 27.3108 48.8561L25.5009 49.1913C25.2328 49.2583 24.9647 49.0572 24.9647 48.722L24.9647 15.675C24.9647 15.4068 25.1658 15.2057 25.4339 15.2057H27.2438C28.5174 15.2057 28.7185 15.4068 28.7185 15.675Z" fill="#1D1D1B"/>
<path d="M10.7538 44.3655C10.7538 43.9213 11.1139 43.5611 11.5582 43.5611C12.0024 43.5611 12.3625 43.9213 12.3625 44.3655C12.3625 44.8098 12.0024 45.1699 11.5582 45.1699C11.1139 45.1699 10.7538 44.8098 10.7538 44.3655Z" fill="#1D1D1B"/>
<defs>
<linearGradient id="paint0_linear" x1="-4.7703" y1="-1.94925" x2="69.9602" y2="67.2621" gradientUnits="userSpaceOnUse">
<stop stop-color="#969699"/>
<stop offset="0.2788" stop-color="#B7ADAE"/>
<stop offset="1" stop-color="#E5E5E5"/>
</linearGradient>
<linearGradient id="paint1_linear" x1="31.9972" y1="1.10156" x2="31.9972" y2="62.8983" gradientUnits="userSpaceOnUse">
<stop stop-color="#F1E6E1"/>
<stop offset="1" stop-color="#CDC6C5"/>
</linearGradient>
</defs>
</svg>
