<svg width="64" height="64" viewBox="0 0 64 64" fill="none" xmlns="http://www.w3.org/2000/svg">
<path d="M61.9916 0H2C0.895431 0 0 0.895431 0 2V62C0 63.1046 0.895431 64 2 64H61.9916C63.0962 64 63.9916 63.1046 63.9916 62V2C63.9916 0.895431 63.0962 0 61.9916 0Z" fill="url(#paint0_linear)"/>
<path d="M60.8928 1.10156H3.10168C1.99712 1.10156 1.10168 1.99699 1.10168 3.10156V60.8983C1.10168 62.0028 1.99711 62.8983 3.10168 62.8983H60.8928C61.9973 62.8983 62.8928 62.0028 62.8928 60.8983V3.10156C62.8928 1.99699 61.9973 1.10156 60.8928 1.10156Z" fill="url(#paint1_linear)"/>
<path d="M31.5 55C44.4787 55 55 44.4787 55 31.5C55 18.5213 44.4787 8 31.5 8C18.5213 8 8 18.5213 8 31.5C8 44.4787 18.5213 55 31.5 55Z" fill="url(#paint2_linear)"/>
<path opacity="0.047619" d="M27.175 43.5607H36.2423C36.5126 43.5607 36.7414 43.3319 36.7414 43.0616V36.3235H43.1883C43.4587 36.3235 43.6874 36.0948 43.6874 35.8244V26.778C43.6874 26.5076 43.4587 26.2788 43.1883 26.2788H36.7414V19.9151C36.7414 19.6448 36.5126 19.416 36.2423 19.416H27.175C26.9047 19.416 26.6759 19.6448 26.6759 19.9151V26.2996H19.8131C19.5427 26.2996 19.314 26.5284 19.314 26.7988V35.866C19.314 36.1364 19.5427 36.3651 19.8131 36.3651H26.6759V43.1032C26.6759 43.3527 26.9047 43.5607 27.175 43.5607Z" fill="#F5F5F5"/>
<path opacity="0.0952381" d="M27.2374 43.4163H36.1799C36.4503 43.4163 36.6582 43.1876 36.6582 42.938V36.2831H43.0427C43.3131 36.2831 43.5211 36.0752 43.5211 35.8048V26.8623C43.5211 26.592 43.2923 26.384 43.0427 26.384H36.6582V20.0203C36.6582 19.75 36.4503 19.542 36.1799 19.542H27.2374C26.9671 19.542 26.7591 19.7708 26.7591 20.0203V26.3424H19.9587C19.6883 26.3424 19.4803 26.5712 19.4803 26.8208V35.7632C19.4803 36.0336 19.7091 36.2416 19.9587 36.2416H26.7383V42.8964C26.7383 43.2084 26.9671 43.4163 27.2374 43.4163Z" fill="#ECEBEB"/>
<path opacity="0.1429" d="M27.279 43.271H36.1174C36.3878 43.271 36.5958 43.063 36.5958 42.7927V36.2002H42.9387C43.209 36.2002 43.417 35.9922 43.417 35.7219V26.9042C43.417 26.6338 43.209 26.4258 42.9387 26.4258H36.5958V20.1453C36.5958 19.875 36.3878 19.667 36.1174 19.667H27.279C27.0086 19.667 26.8006 19.875 26.8006 20.1453V26.405H20.1042C19.8338 26.405 19.6259 26.613 19.6259 26.8834V35.7011C19.6259 35.9714 19.8338 36.1794 20.1042 36.1794H26.8006V42.7719C26.8006 43.063 27.0294 43.271 27.279 43.271Z" fill="#E2E0E0"/>
<path opacity="0.1905" d="M27.3408 43.1246H36.0545C36.3249 43.1246 36.5328 42.9167 36.5328 42.6463V36.137H42.8133C43.0837 36.137 43.2917 35.9291 43.2917 35.6587V26.9658C43.2917 26.6954 43.0837 26.4875 42.8133 26.4875H36.5328V20.2693C36.5328 19.999 36.3249 19.791 36.0545 19.791H27.3408C27.0704 19.791 26.8625 19.999 26.8625 20.2693V26.4875H20.2492C19.9788 26.4875 19.7709 26.6954 19.7709 26.9658V35.6795C19.7709 35.9499 19.9788 36.1578 20.2492 36.1578H26.8625V42.6671C26.8625 42.9167 27.0912 43.1246 27.3408 43.1246Z" fill="#D8D6D6"/>
<path opacity="0.2381" d="M27.4031 42.9803H35.992C36.2416 42.9803 36.4704 42.7723 36.4704 42.5019V36.055H42.6885C42.9381 36.055 43.1668 35.8471 43.1668 35.5767V27.0294C43.1668 26.7798 42.9589 26.5511 42.6885 26.5511H36.4704V20.3953C36.4704 20.1458 36.2624 19.917 35.992 19.917H27.4031C27.1535 19.917 26.9248 20.125 26.9248 20.3953V26.5511H20.3947C20.1451 26.5511 19.9164 26.759 19.9164 27.0294V35.6183C19.9164 35.8679 20.1243 36.0966 20.3947 36.0966H26.9248V42.5435C26.9248 42.7723 27.1328 42.9803 27.4031 42.9803Z" fill="#CECCCC"/>
<path opacity="0.2857" d="M27.4663 42.8346H35.9304C36.18 42.8346 36.388 42.6267 36.388 42.3771V36.0134H42.5437C42.7933 36.0134 43.0012 35.8054 43.0012 35.5559V27.0917C43.0012 26.8421 42.7933 26.6342 42.5437 26.6342H36.388V20.52C36.388 20.2705 36.18 20.0625 35.9304 20.0625H27.4663C27.2167 20.0625 27.0088 20.2705 27.0088 20.52V26.6134H20.5411C20.2707 26.6134 20.0627 26.8214 20.0627 27.0917V35.5559C20.0627 35.8054 20.2707 36.0134 20.5203 36.0134H26.988V42.3771C26.988 42.6267 27.1959 42.8346 27.4663 42.8346Z" fill="#C5C2C2"/>
<path opacity="0.3333" d="M27.5078 42.6893H35.8679C36.1175 42.6893 36.3255 42.4813 36.3255 42.2317V35.9304H42.4188C42.6684 35.9304 42.8763 35.7225 42.8763 35.4729V27.1335C42.8763 26.884 42.6684 26.676 42.4188 26.676H36.3255V20.645C36.3255 20.3955 36.1175 20.1875 35.8679 20.1875H27.5286C27.279 20.1875 27.071 20.3955 27.071 20.645V26.6968H20.6865C20.437 26.6968 20.229 26.9048 20.229 27.1543V35.4937C20.229 35.7432 20.437 35.9512 20.6865 35.9512H27.071V42.2525C27.0502 42.4813 27.2582 42.6893 27.5078 42.6893Z" fill="#BBB7B7"/>
<path opacity="0.381" d="M27.5695 42.5429H35.8049C36.0545 42.5429 36.2624 42.335 36.2624 42.0854V35.8673H42.2934C42.543 35.8673 42.7509 35.6593 42.7509 35.4098V27.1952C42.7509 26.9456 42.543 26.7376 42.2934 26.7376H36.2624V20.769C36.2624 20.5195 36.0545 20.3115 35.8049 20.3115H27.5695C27.32 20.3115 27.112 20.5195 27.112 20.769V26.7584H20.8107C20.5611 26.7584 20.3531 26.9664 20.3531 27.2159V35.4513C20.3531 35.7009 20.5611 35.9089 20.8107 35.9089H27.1328V42.127C27.1328 42.3558 27.32 42.5429 27.5695 42.5429Z" fill="#B1ADAD"/>
<path opacity="0.4286" d="M27.6319 42.3973H35.7425C35.9921 42.3973 36.1793 42.1893 36.1793 41.9606V35.8048H42.1686C42.4182 35.8048 42.6054 35.5969 42.6054 35.3681V27.2575C42.6054 27.0079 42.3974 26.8207 42.1686 26.8207H36.1793V20.8938C36.1793 20.6442 35.9921 20.457 35.7425 20.457H27.6319C27.3824 20.457 27.1952 20.665 27.1952 20.8938V26.8207H20.9563C20.7067 26.8207 20.5195 27.0287 20.5195 27.2575V35.3681C20.5195 35.6177 20.7067 35.8048 20.9563 35.8048H27.1744V41.9606C27.1952 42.2101 27.3824 42.3973 27.6319 42.3973Z" fill="#A8A3A3"/>
<path opacity="0.4762" d="M27.6951 42.2513H35.6809C35.9305 42.2513 36.1177 42.0641 36.1177 41.8145V35.742H42.0447C42.2942 35.742 42.4814 35.5548 42.4814 35.3052V27.3194C42.4814 27.0698 42.2942 26.8827 42.0447 26.8827H36.1177V20.9973C36.1177 20.7477 35.9305 20.5605 35.6809 20.5605H27.6951C27.4455 20.5605 27.2584 20.7477 27.2584 20.9973V26.8827H21.1026C20.8531 26.8827 20.6659 27.0698 20.6659 27.3194V35.3052C20.6659 35.5548 20.8531 35.742 21.1026 35.742H27.2376V41.8145C27.2584 42.0641 27.4455 42.2513 27.6951 42.2513Z" fill="#9E9999"/>
<path opacity="0.5238" d="M27.735 42.1069H35.5961C35.8249 42.1069 36.0328 41.9197 36.0328 41.6702V35.66H41.8974C42.1262 35.66 42.3342 35.4728 42.3342 35.2232V27.383C42.3342 27.1542 42.147 26.9463 41.8974 26.9463H36.0328V21.1232C36.0328 20.8945 35.8457 20.6865 35.5961 20.6865H27.735C27.5063 20.6865 27.2983 20.8737 27.2983 21.1232V26.9463H21.2465C21.0178 26.9463 20.8098 27.1334 20.8098 27.383V35.244C20.8098 35.4728 20.997 35.6808 21.2465 35.6808H27.3191V41.691C27.3191 41.9197 27.5063 42.1069 27.735 42.1069Z" fill="#948E8E"/>
<path opacity="0.5714" d="M27.7983 41.9612H35.5554C35.7841 41.9612 35.9713 41.7741 35.9713 41.5453V35.6183H41.7735C42.0023 35.6183 42.1894 35.4311 42.1894 35.2024V27.4453C42.1894 27.2165 42.0023 27.0294 41.7735 27.0294H35.9713V21.248C35.9713 21.0192 35.7841 20.832 35.5554 20.832H27.7983C27.5695 20.832 27.3824 21.0192 27.3824 21.248V27.0294H21.393C21.1642 27.0294 20.9771 27.2165 20.9771 27.4453V35.1816C20.9771 35.4104 21.1642 35.5975 21.393 35.5975H27.3824V41.5245C27.3824 41.7741 27.5695 41.9612 27.7983 41.9612Z" fill="#8A8484"/>
<path opacity="0.619" d="M27.8613 41.8149H35.4936C35.7224 41.8149 35.9096 41.6277 35.9096 41.399V35.5344H41.6494C41.8782 35.5344 42.0653 35.3472 42.0653 35.1184V27.5069C42.0653 27.2782 41.8782 27.091 41.6494 27.091H35.9096V21.372C35.9096 21.1432 35.7224 20.9561 35.4936 20.9561H27.8613C27.6326 20.9561 27.4454 21.1432 27.4454 21.372V27.091H21.5392C21.3105 27.091 21.1233 27.2782 21.1233 27.5069V35.1392C21.1233 35.368 21.3105 35.5552 21.5392 35.5552H27.4454V41.4198C27.4454 41.6277 27.6326 41.8149 27.8613 41.8149Z" fill="#817A7A"/>
<path opacity="0.6667" d="M27.9023 41.6695H35.4098C35.6386 41.6695 35.8258 41.4824 35.8258 41.2536V35.4722H41.5032C41.732 35.4722 41.9191 35.285 41.9191 35.0563V27.5695C41.9191 27.3408 41.732 27.1536 41.5032 27.1536H35.8258V21.497C35.8258 21.2682 35.6386 21.0811 35.4098 21.0811H27.9023C27.6735 21.0811 27.4864 21.2682 27.4864 21.497V27.1536H21.6634C21.4346 27.1536 21.2474 27.3408 21.2474 27.5695V35.0771C21.2474 35.3058 21.4346 35.493 21.6634 35.493H27.4864V41.2744C27.5072 41.4824 27.6943 41.6695 27.9023 41.6695Z" fill="#777070"/>
<path opacity="0.7143" d="M27.9647 41.5239H35.3474C35.5762 41.5239 35.7426 41.3367 35.7426 41.1288V35.4097H41.3576C41.5864 35.4097 41.7528 35.2226 41.7528 35.0146V27.6319C41.7528 27.4031 41.5656 27.2367 41.3576 27.2367H35.7426V21.6217C35.7426 21.3929 35.5554 21.2266 35.3474 21.2266H27.9647C27.7359 21.2266 27.5696 21.4137 27.5696 21.6217V27.2159H21.809C21.5802 27.2159 21.4138 27.4031 21.4138 27.6111V34.9938C21.4138 35.2226 21.601 35.389 21.809 35.389H27.5488V41.108C27.5696 41.3367 27.7567 41.5239 27.9647 41.5239Z" fill="#6D6565"/>
<path opacity="0.7619" d="M28.027 41.3786H35.285C35.5138 41.3786 35.6801 41.1914 35.6801 40.9834V35.3476H41.2536C41.4823 35.3476 41.6487 35.1604 41.6487 34.9524V27.6737C41.6487 27.4449 41.4615 27.2786 41.2536 27.2786H35.6801V21.7467C35.6801 21.5179 35.493 21.3516 35.285 21.3516H28.027C27.7983 21.3516 27.6319 21.5387 27.6319 21.7467V27.2994H21.9545C21.7257 27.2994 21.5593 27.4865 21.5593 27.6945V34.9524C21.5593 35.1812 21.7257 35.3476 21.9545 35.3476H27.6319V40.9834C27.6319 41.1914 27.7983 41.3786 28.027 41.3786Z" fill="#645B5B"/>
<path opacity="0.8095" d="M28.0902 41.2322H35.2442C35.4521 41.2322 35.6393 41.0659 35.6393 40.8371V35.2844H41.1504C41.3583 35.2844 41.5455 35.1181 41.5455 34.8893V27.7353C41.5455 27.5274 41.3791 27.3402 41.1504 27.3402H35.6393V21.8707C35.6393 21.6628 35.4729 21.4756 35.2442 21.4756H28.0902C27.8822 21.4756 27.6951 21.642 27.6951 21.8707V27.361H22.1008C21.8929 27.361 21.7057 27.5274 21.7057 27.7561V34.9101C21.7057 35.1181 21.8721 35.3052 22.1008 35.3052H27.6951V40.8579C27.6951 41.0659 27.8614 41.2322 28.0902 41.2322Z" fill="#5A5151"/>
<path opacity="0.8571" d="M28.1318 41.0878H35.161C35.369 41.0878 35.5353 40.9215 35.5353 40.7135V35.2232H40.984C41.192 35.2232 41.3584 35.0569 41.3584 34.8489V27.7989C41.3584 27.5909 41.192 27.4246 40.984 27.4246H35.5353V21.9759C35.5353 21.7679 35.369 21.6016 35.161 21.6016H28.1318C27.9238 21.6016 27.7575 21.7679 27.7575 21.9759V27.4038H22.2464C22.0384 27.4038 21.8721 27.5701 21.8721 27.7781V34.8073C21.8721 35.0153 22.0384 35.1816 22.2464 35.1816H27.7575V40.6719C27.7575 40.9215 27.9238 41.0878 28.1318 41.0878Z" fill="#504747"/>
<path opacity="0.9048" d="M28.1935 40.9415H35.0979C35.3059 40.9415 35.4723 40.7751 35.4723 40.5672V35.1601H40.8586C41.0665 35.1601 41.2329 34.9937 41.2329 34.7858V27.8605C41.2329 27.6526 41.0665 27.4862 40.8586 27.4862H35.4723V22.0999C35.4723 21.892 35.3059 21.7256 35.0979 21.7256H28.1935C27.9856 21.7256 27.8192 21.892 27.8192 22.0999V27.4862H22.3913C22.1833 27.4862 22.017 27.6526 22.017 27.8605V34.765C22.017 34.9729 22.1833 35.1393 22.3913 35.1393H27.8192V40.5464C27.8192 40.7751 27.9856 40.9415 28.1935 40.9415Z" fill="#463C3C"/>
<path opacity="0.9524" d="M28.256 40.7962H35.0356C35.2436 40.7962 35.4099 40.6298 35.4099 40.4218V35.0771H40.7338C40.9418 35.0771 41.1082 34.9108 41.1082 34.7028V27.9232C41.1082 27.7152 40.9418 27.5488 40.7338 27.5488H35.4099V22.2249C35.4099 22.017 35.2436 21.8506 35.0356 21.8506H28.256C28.048 21.8506 27.8816 22.017 27.8816 22.2249V27.5488H22.5369C22.329 27.5488 22.1626 27.7152 22.1626 27.9232V34.7028C22.1626 34.9108 22.329 35.0771 22.5369 35.0771H27.8816V40.4218C27.8816 40.6298 28.048 40.7962 28.256 40.7962Z" fill="#3D3232"/>
<path d="M40.6089 27.6105H35.3474V22.3489C35.3474 22.141 35.1811 21.9746 34.9731 21.9746H28.3182C28.1103 21.9746 27.9647 22.141 27.9647 22.3489V27.6105H22.6824C22.4744 27.6105 22.3289 27.7768 22.3289 27.964V34.6189C22.3289 34.8268 22.4952 34.9724 22.6824 34.9724H27.9439V40.2339C27.9439 40.4419 28.1103 40.6082 28.2974 40.6082H34.9523C35.1603 40.6082 35.3266 40.4419 35.3266 40.2339V34.9724H40.5881C40.7961 34.9724 40.9625 34.806 40.9625 34.6189V27.964C40.9625 27.7768 40.8169 27.6105 40.6089 27.6105Z" fill="#332828"/>
<path d="M41.8981 26.9242H35.9711C35.8464 26.9242 35.7424 26.8202 35.7424 26.6955V20.7685C35.7424 20.5397 35.5552 20.3525 35.3264 20.3525H27.5486C27.3198 20.3525 27.1326 20.5397 27.1326 20.7685V20.9972V26.6955C27.1326 26.8202 27.0287 26.9242 26.9039 26.9242H20.9561C20.7273 26.9242 20.5402 27.1114 20.5402 27.3401V35.118C20.5402 35.3468 20.7273 35.534 20.9561 35.534H26.8831C27.0079 35.534 27.1118 35.6379 27.1118 35.7627V41.4609V41.6897C27.1118 41.9185 27.299 42.1056 27.5278 42.1056H35.3056C35.5344 42.1056 35.7216 41.9185 35.7216 41.6897V35.7627C35.7216 35.6379 35.8256 35.534 35.9503 35.534H41.8981C42.1269 35.534 42.3141 35.3468 42.3141 35.118V27.3401C42.3141 27.1114 42.1269 26.9242 41.8981 26.9242Z" fill="white"/>
<path opacity="0.8" d="M31.5 55C44.4787 55 55 44.4787 55 31.5C55 18.5213 44.4787 8 31.5 8C18.5213 8 8 18.5213 8 31.5C8 44.4787 18.5213 55 31.5 55Z" stroke="url(#paint3_linear)" stroke-width="2" stroke-miterlimit="10"/>
<defs>
<linearGradient id="paint0_linear" x1="-4.7703" y1="-1.94925" x2="69.9602" y2="67.2621" gradientUnits="userSpaceOnUse">
<stop stop-color="#969699"/>
<stop offset="0.2788" stop-color="#B7ADAE"/>
<stop offset="1" stop-color="#E5E5E5"/>
</linearGradient>
<linearGradient id="paint1_linear" x1="31.9972" y1="1.10156" x2="31.9972" y2="62.8983" gradientUnits="userSpaceOnUse">
<stop stop-color="#F1E6E1"/>
<stop offset="1" stop-color="#CDC6C5"/>
</linearGradient>
<linearGradient id="paint2_linear" x1="7.99927" y1="31.5004" x2="54.9993" y2="31.5004" gradientUnits="userSpaceOnUse">
<stop stop-color="#BF1400"/>
<stop offset="0.3132" stop-color="#ED3000"/>
<stop offset="1" stop-color="#AB0000"/>
</linearGradient>
<linearGradient id="paint3_linear" x1="7.17904" y1="31.5" x2="55.821" y2="31.5" gradientUnits="userSpaceOnUse">
<stop/>
<stop offset="0.00429839" stop-color="#090909"/>
<stop offset="0.0277675" stop-color="#373737"/>
<stop offset="0.0542172" stop-color="#626262"/>
<stop offset="0.0826444" stop-color="#888888"/>
<stop offset="0.1136" stop-color="#A8A8A8"/>
<stop offset="0.1478" stop-color="#C4C4C4"/>
<stop offset="0.1864" stop-color="#DADADA"/>
<stop offset="0.2315" stop-color="#EBEBEB"/>
<stop offset="0.2872" stop-color="#F6F6F6"/>
<stop offset="0.3654" stop-color="#FDFDFD"/>
<stop offset="0.5824" stop-color="white"/>
<stop offset="0.6688" stop-color="#BBBBBB"/>
<stop offset="0.8455" stop-color="#363636"/>
<stop offset="0.9231"/>
</linearGradient>
</defs>
</svg>
