<svg width="64" height="64" viewBox="0 0 64 64" fill="none" xmlns="http://www.w3.org/2000/svg">
<path d="M61.9916 0H2C0.895431 0 0 0.895431 0 2V62C0 63.1046 0.895431 64 2 64H61.9916C63.0962 64 63.9916 63.1046 63.9916 62V2C63.9916 0.895431 63.0962 0 61.9916 0Z" fill="url(#paint0_linear)"/>
<path d="M60.8928 1.10156H3.10168C1.99712 1.10156 1.10168 1.99699 1.10168 3.10156V60.8983C1.10168 62.0028 1.99711 62.8983 3.10168 62.8983H60.8928C61.9973 62.8983 62.8928 62.0028 62.8928 60.8983V3.10156C62.8928 1.99699 61.9973 1.10156 60.8928 1.10156Z" fill="url(#paint1_linear)"/>
<path opacity="0.8" d="M31.5 58C46.1355 58 58 46.1355 58 31.5C58 16.8645 46.1355 5 31.5 5C16.8645 5 5 16.8645 5 31.5C5 46.1355 16.8645 58 31.5 58Z" stroke="url(#paint2_linear)" stroke-width="2" stroke-miterlimit="10"/>
<path d="M31.5 58C46.1355 58 58 46.1355 58 31.5C58 16.8645 46.1355 5 31.5 5C16.8645 5 5 16.8645 5 31.5C5 46.1355 16.8645 58 31.5 58Z" fill="url(#paint3_radial)"/>
<defs>
<linearGradient id="paint0_linear" x1="-4.7703" y1="-1.94925" x2="69.9602" y2="67.2621" gradientUnits="userSpaceOnUse">
<stop stop-color="#969699"/>
<stop offset="0.2788" stop-color="#B7ADAE"/>
<stop offset="1" stop-color="#E5E5E5"/>
</linearGradient>
<linearGradient id="paint1_linear" x1="31.9972" y1="1.10156" x2="31.9972" y2="62.8983" gradientUnits="userSpaceOnUse">
<stop stop-color="#F1E6E1"/>
<stop offset="1" stop-color="#CDC6C5"/>
</linearGradient>
<linearGradient id="paint2_linear" x1="4.07424" y1="31.5" x2="58.9258" y2="31.5" gradientUnits="userSpaceOnUse">
<stop/>
<stop offset="0.00429839" stop-color="#090909"/>
<stop offset="0.0277675" stop-color="#373737"/>
<stop offset="0.0542172" stop-color="#626262"/>
<stop offset="0.0826444" stop-color="#888888"/>
<stop offset="0.1136" stop-color="#A8A8A8"/>
<stop offset="0.1478" stop-color="#C4C4C4"/>
<stop offset="0.1864" stop-color="#DADADA"/>
<stop offset="0.2315" stop-color="#EBEBEB"/>
<stop offset="0.2872" stop-color="#F6F6F6"/>
<stop offset="0.3654" stop-color="#FDFDFD"/>
<stop offset="0.5824" stop-color="white"/>
<stop offset="0.6688" stop-color="#BBBBBB"/>
<stop offset="0.8455" stop-color="#363636"/>
<stop offset="0.9231"/>
</linearGradient>
<radialGradient id="paint3_radial" cx="0" cy="0" r="1" gradientUnits="userSpaceOnUse" gradientTransform="translate(31.5 31.5) scale(26.5)">
<stop stop-color="#EEE535"/>
<stop offset="0.3974" stop-color="#4183C4"/>
<stop offset="0.6828" stop-color="#6A59A2"/>
<stop offset="0.9846" stop-color="#2AFFAE"/>
</radialGradient>
</defs>
</svg>
