<svg width="160" height="173" viewBox="0 0 160 173" fill="none" xmlns="http://www.w3.org/2000/svg">
<circle cx="80" cy="83" r="80" fill="url(#paint0_linear)"/>
<path d="M125.573 62.166C126.094 70.107 121.929 80.3641 117.913 88.1396C117.095 66.8809 122.822 30.4847 96.6448 6C96.6448 6 109.361 35.696 88.3901 55.7139C88.3901 55.7139 78.8713 64.2339 71.7321 78.2961C69.7986 69.5279 63.8493 59.3535 49.7197 49.5927C49.7197 49.5927 64.5186 78.9579 50.9096 96.1633C50.9096 96.1633 56.4127 78.2961 41.6138 68.7007C41.6138 68.7007 47.5631 80.1159 39.7546 99.3894C39.7546 99.3894 20.7169 144.967 82.7383 163C146.991 141.659 125.573 62.166 125.573 62.166Z" fill="#F15A24"/>
<path d="M9.61304 66.1575C9.06418 73.3904 13.455 82.7329 17.689 89.8151C18.5515 70.4521 12.5141 37.3014 40.1137 15C40.1137 15 26.7059 42.0479 48.8169 60.2808C48.8169 60.2808 58.8531 68.0411 66.3803 80.8493C68.4189 72.863 74.6915 63.5959 89.589 54.7055C89.589 54.7055 73.9858 81.4521 88.3345 97.1233C88.3345 97.1233 82.5323 80.8493 98.1355 72.1096C98.1355 72.1096 91.8628 82.5068 100.096 100.062C100.096 100.062 120.168 141.575 54.7759 158C-12.9684 138.562 9.61304 66.1575 9.61304 66.1575Z" fill="url(#paint1_linear)"/>
<path d="M151.089 64.873C151.683 72.2071 146.93 81.6802 142.347 88.8614C141.413 69.2276 147.949 35.6133 118.073 13C118.073 13 132.586 40.4262 108.652 58.9141C108.652 58.9141 97.7878 66.7829 89.6399 79.7703C87.4332 71.6723 80.6432 62.2756 64.5171 53.2608C64.5171 53.2608 81.4071 80.3815 65.8751 96.2719C65.8751 96.2719 72.1558 79.7703 55.2657 70.9083C55.2657 70.9083 62.0557 81.451 53.1439 99.2513C53.1439 99.2513 31.416 141.346 102.201 158C175.533 138.29 151.089 64.873 151.089 64.873Z" fill="url(#paint2_linear)"/>
<path d="M42.5182 89.185C46.2209 66.6459 44.9207 26.8116 76.8905 4.30405C76.8905 4.30405 58.9957 34.2143 79.2022 58.5847C79.2022 58.5847 88.5598 68.9156 94.5932 84.9319C97.9249 75.7263 105.927 65.6993 122.648 57.2376C122.648 57.2376 102.427 86.6208 115.09 106.991C115.09 106.991 111.506 87.0576 129.055 78.9346C129.055 78.9346 120.879 90.3482 127.072 112.018C127.072 112.018 131.294 126.868 124.366 142.194C109.365 147.351 92.3393 151.315 72.8024 154.493C57.998 147.703 45.2946 139.768 33.9628 131.302C24.6683 97.9744 37.469 60.147 37.469 60.147C35.9662 68.6435 39.0679 80.3008 42.5182 89.185Z" fill="url(#paint3_linear)"/>
<path d="M31.0248 101.688C31.812 83.3482 26.5267 52.125 50.704 31C50.704 31 38.8965 56.5357 58.3508 73.8304C58.3508 73.8304 67.1221 81.1429 73.7568 93.2143C75.556 85.6696 81.0662 76.8482 94.2231 68.4911C94.2231 68.4911 80.5039 93.7946 93.0986 108.536C93.0986 108.536 88.0383 93.0982 101.757 84.8571C101.757 84.8571 96.2473 94.6071 103.444 111.321C103.444 111.321 112.216 130.705 97.2594 147.652C88.2632 152.759 77.1304 157.286 63.2987 161C52.7282 157.75 43.7319 153.571 36.0852 148.58C14.8316 122.232 23.9403 79.1696 23.9403 79.1696C23.378 86.1339 27.3139 94.9554 31.0248 101.688Z" fill="url(#paint4_linear)"/>
<path d="M124.975 94.9313C124.188 74.1938 129.473 38.8875 105.296 15C105.296 15 117.104 43.875 97.6492 63.4313C97.6492 63.4313 88.8779 71.7 82.2432 85.35C80.444 76.8188 74.9338 66.8438 61.7769 57.3938C61.7769 57.3938 75.4961 86.0063 62.9014 102.675C62.9014 102.675 67.9617 85.2188 54.2425 75.9C54.2425 75.9 59.7527 86.925 52.5557 105.825C52.5557 105.825 43.7844 127.744 58.7406 146.906C67.7368 152.681 78.8696 157.8 92.7013 162C103.272 158.325 112.268 153.6 119.915 147.956C141.168 118.163 132.06 69.4688 132.06 69.4688C132.622 77.3438 128.686 87.3188 124.975 94.9313Z" fill="url(#paint5_linear)"/>
<path d="M105.357 96.6823C99.9776 79.1319 97.2319 47.5838 68.5149 33.2261C68.5149 33.2261 86.371 54.9666 71.8974 76.602C71.8974 76.602 65.2497 85.8873 61.8678 99.2402C58.227 92.3916 50.6735 85.2415 35.8363 80.466C35.8363 80.466 55.4841 101.501 47.0063 118.938C47.0063 118.938 48.0171 102.723 32.665 98.2017C32.665 98.2017 40.4524 106.25 37.6952 124.238C37.6952 124.238 34.0865 145.206 52.8274 157.841C62.8196 160.519 74.7335 162.097 89.0548 162.21C98.4666 156.403 106.121 150.094 112.265 143.339C126.2 112.488 106.544 73.1061 106.544 73.1061C108.841 79.7045 107.253 89.2327 105.357 96.6823Z" fill="url(#paint6_linear)"/>
<defs>
<linearGradient id="paint0_linear" x1="80" y1="3" x2="80" y2="163" gradientUnits="userSpaceOnUse">
<stop offset="0.234375" stop-color="#F79221"/>
<stop offset="0.458333" stop-color="#F47521"/>
<stop offset="1" stop-color="#F15A24"/>
</linearGradient>
<linearGradient id="paint1_linear" x1="54.5" y1="15" x2="54.5" y2="158" gradientUnits="userSpaceOnUse">
<stop stop-color="#F15A24"/>
<stop offset="1" stop-color="#F15A24" stop-opacity="0"/>
</linearGradient>
<linearGradient id="paint2_linear" x1="102.5" y1="13" x2="102.5" y2="158" gradientUnits="userSpaceOnUse">
<stop stop-color="#F15A24"/>
<stop offset="1" stop-color="#F15A24" stop-opacity="0"/>
</linearGradient>
<linearGradient id="paint3_linear" x1="92.6383" y1="6.28328" x2="73.9923" y2="154.642" gradientUnits="userSpaceOnUse">
<stop stop-color="#F15A24"/>
<stop offset="1" stop-color="#C74D21" stop-opacity="0"/>
</linearGradient>
<linearGradient id="paint4_linear" x1="64" y1="31" x2="64" y2="161" gradientUnits="userSpaceOnUse">
<stop stop-color="#F04D13"/>
<stop offset="1" stop-color="#F9AA1F"/>
</linearGradient>
<linearGradient id="paint5_linear" x1="92" y1="15" x2="92" y2="162" gradientUnits="userSpaceOnUse">
<stop stop-color="#F15A24"/>
<stop offset="0.125" stop-color="#F26024"/>
<stop offset="1" stop-color="#F9AA1F"/>
</linearGradient>
<linearGradient id="paint6_linear" x1="55.6472" y1="36.5735" x2="88.3761" y2="162.386" gradientUnits="userSpaceOnUse">
<stop stop-color="#F79221"/>
<stop offset="0.625" stop-color="#F15A24"/>
<stop offset="1" stop-color="#F47622"/>
</linearGradient>
</defs>
</svg>
