<svg width="160" height="165" viewBox="0 0 160 165" fill="none" xmlns="http://www.w3.org/2000/svg">
<circle cx="80" cy="82" r="80" fill="url(#paint0_linear)"/>
<path d="M45 108L62 160L50.3968 155.755L45 108Z" fill="#1F7292"/>
<path d="M37 148L28.5789 118L12 118.536L16.7368 127.911L37 148Z" fill="url(#paint1_linear)"/>
<path d="M56 45L85.8903 48.534L97 73L60.2323 57.5049L56 45Z" fill="url(#paint2_linear)"/>
<path d="M88 42L117.89 45.534L129 70L92.2323 54.5049L88 42Z" fill="url(#paint3_linear)"/>
<path d="M106 86L135.89 90.4175L147 121L110.232 101.631L106 86Z" fill="url(#paint4_linear)"/>
<path d="M30 67.225L58.4613 88.95L109 95L58.4613 83.725L41.7037 62L30 67.225Z" fill="url(#paint5_linear)"/>
<path d="M29 117.483L20.6349 97.5843L18.4762 95L12 118L29 117.483Z" fill="url(#paint6_linear)"/>
<path d="M44.2897 111.765L47 120L30.4673 112.039L20.1682 96.9412L18 94.1961L26.1308 92L44.2897 111.765Z" fill="url(#paint7_linear)"/>
<path d="M58.5524 89L45 92.7108L47.1259 106.229L79.014 111L83 99.8675L58.5524 89Z" fill="url(#paint8_linear)"/>
<path d="M83.2105 99.8675L59 89L109 94.8313L79.2632 111L83.2105 99.8675Z" fill="url(#paint9_linear)"/>
<path d="M59 88.3958L45.2049 92.1875L47.3689 106L26 92.1875L30.0574 67L59 88.3958Z" fill="url(#paint10_linear)"/>
<path d="M56.4345 45L45 50.4545L64.6779 65.7273L93.1311 75L116 73.0909L79.0374 57.5455L56.4345 45Z" fill="url(#paint11_linear)"/>
<path d="M33.4345 36L22 41.4545L41.6779 56.7273L70.1311 66L93 64.0909L56.0374 48.5455L33.4345 36Z" fill="url(#paint12_linear)"/>
<path d="M87.4345 50L76 55.4545L95.6779 70.7273L124.131 80L147 78.0909L110.037 62.5455L87.4345 50Z" fill="url(#paint13_linear)"/>
<path d="M45.2093 51L42 62.8049L58.8488 84L65 66.0244L45.2093 51Z" fill="url(#paint14_linear)"/>
<path d="M65.0526 66L59 83.9907L109 95L93.2105 75.1296L65.0526 66Z" fill="url(#paint15_linear)"/>
<path d="M68 85.8108L87.4487 90.4054L109 95L93.2308 75L68 85.8108Z" fill="url(#paint16_linear)"/>
<path d="M94.7228 56L72 40L99 47.322L94.7228 56Z" fill="url(#paint17_linear)"/>
<path d="M87 67L77 69.4375L79.1622 80L79.4324 70.25L87 67Z" fill="url(#paint18_linear)"/>
<path d="M56 59L63.8077 66.1429L58.4231 84L64.6154 67.2418L77 69.7143L65.6923 64.7692L56 59Z" fill="#E5FFFF"/>
<path d="M109 91L81.6549 115.843L86.1681 165L79 115.843L109 91Z" fill="#EDFFFF"/>
<path d="M75 35.7419L110.428 44L136 34.1935L114.157 42.1935L91.7817 28L75 35.7419Z" fill="url(#paint19_linear)"/>
<path d="M39 40.7419L74.4279 49L100 39.1935L78.1572 47.1935L55.7817 33L39 40.7419Z" fill="url(#paint20_linear)"/>
<path d="M104.98 87.1471L88 135.059L90.6531 161L103.918 154.118L114 99.3235L112.673 80L104.98 87.1471Z" fill="url(#paint21_linear)"/>
<path d="M80.8544 137L57 143.795L61.9806 160H78.7573H84L80.8544 137Z" fill="url(#paint22_linear)"/>
<path d="M64 66.1569L49.4217 71L42 62.5882L54.1928 58L64 66.1569Z" fill="url(#paint23_linear)"/>
<path d="M26 92L41.7136 112.863L79 120L43.8442 110.941L26 92Z" fill="#EDFFFF"/>
<path d="M59 88.3958L47.3458 93.5417V106L45.1776 92.1875L57.3738 88.3958L30 67L59 88.3958Z" fill="#B6EBEF"/>
<path d="M72 34L87.7136 54.8627L125 62L89.8442 52.9412L72 34Z" fill="#EDFFFF"/>
<path d="M83 99.2286L76.9174 109L51 105.743L62.9008 90L83 99.2286Z" fill="url(#paint24_linear)"/>
<path d="M62.4412 89.2651L86 99.6024L79.3824 111L83.3529 99.8675L59 89L62.4412 89.2651Z" fill="#EDFFFF"/>
<path d="M106 69.4248L127.417 79.5981L157.937 75.0469L118.047 106.102L106 69.4248Z" fill="url(#paint25_linear)"/>
<path d="M89 93L110.417 103.173L140.937 98.6221L101.047 129.677L89 93Z" fill="url(#paint26_linear)"/>
<path d="M127.417 79.5981L118.047 106.102L106 69.4248L127.417 79.5981Z" fill="url(#paint27_linear)"/>
<path d="M119.15 107.795L108.173 140.457L95.8582 107.795L114.063 92L119.15 107.795Z" fill="url(#paint28_linear)"/>
<path d="M97.4647 95.4803L93.9843 102.976L82.7402 105.921L64 114.756L95.8584 107.795L114.063 92L97.4647 95.4803Z" fill="url(#paint29_linear)"/>
<path d="M95.8582 107.795L112.457 97.3543L117.811 110.205L108.173 140.457L119.417 112.079L119.15 107.795L114.063 92L95.8582 107.795Z" fill="#EDFFFF"/>
<path d="M30.2047 94.0483L1.99998 94.7477L8.54821 66.4471L42.8357 58.3394L30.2047 94.0483Z" fill="url(#paint30_linear)"/>
<path d="M10.9999 97.9455L33.1698 64.1575L42.7013 61.7866L30.2002 95.3577L10.9999 97.9455Z" fill="url(#paint31_linear)"/>
<path d="M140.698 49L124 60.6261L141.959 70.9574L140.698 49Z" fill="url(#paint32_linear)"/>
<path d="M127.465 76.4803L123.984 83.9764L112.74 86.9213L94 95.756L125.858 88.7953L144.063 73L127.465 76.4803Z" fill="url(#paint33_linear)"/>
<path d="M125.858 88.7953L142.457 78.3543L147.811 91.2048L138.173 121.457L149.417 93.0788L149.15 88.7953L144.063 73L125.858 88.7953Z" fill="#EDFFFF"/>
<path d="M149.15 88.7953L138.173 121.457L125.858 88.7953L144.063 73L149.15 88.7953Z" fill="url(#paint34_linear)"/>
<path d="M129.453 49.1302L127.798 59.6287L111.844 32.0324L108.764 15.968L121.217 21.7671L129.453 49.1302Z" fill="url(#paint35_linear)"/>
<path d="M106.612 45.3944L114.135 42.2789L111.845 32.0326L106.612 45.3944Z" fill="url(#paint36_linear)"/>
<path d="M114.135 42.28L127.799 59.63L112.989 55.6167L106.613 45.3955L114.135 42.28Z" fill="url(#paint37_linear)"/>
<path d="M121.669 24.0091L126.496 56.0233L113.544 34.7578L112.904 19.0642L121.669 24.0091Z" fill="url(#paint38_linear)"/>
<path d="M116.797 107.203L113.594 114.101L103.246 116.812L86 124.942L115.319 118.536L132.073 104L116.797 107.203Z" fill="url(#paint39_linear)"/>
<path d="M115.319 118.536L130.594 108.928L135.522 120.754L126.652 148.594L137 122.478L136.754 118.536L132.073 104L115.319 118.536Z" fill="#EDFFFF"/>
<path d="M136.754 118.536L126.652 148.594L115.319 118.536L132.073 104L136.754 118.536Z" fill="url(#paint40_linear)"/>
<path d="M59.7368 4L70 15.0727L67.1053 33L45 18.5L59.7368 4Z" fill="url(#paint41_linear)"/>
<path d="M141.453 55.1302L139.798 65.6287L123.844 38.0324L120.764 21.968L133.217 27.7671L141.453 55.1302Z" fill="url(#paint42_linear)"/>
<path d="M118.612 51.3944L126.135 48.2789L123.845 38.0326L118.612 51.3944Z" fill="url(#paint43_linear)"/>
<path d="M126.135 48.28L139.799 65.63L124.989 61.6167L118.613 51.3955L126.135 48.28Z" fill="url(#paint44_linear)"/>
<path d="M154.291 58.7953L143.315 91.4568L131 58.7953L149.205 43L154.291 58.7953Z" fill="url(#paint45_linear)"/>
<path d="M141 48.6464L129.218 81L116 48.6464L135.54 33L141 48.6464Z" fill="url(#paint46_linear)"/>
<path d="M117.858 47.7953L134.457 37.3543L139.811 50.2048L130.173 80.4568L141.417 52.0788L141.15 47.7953L136.063 32L117.858 47.7953Z" fill="#EDFFFF"/>
<path d="M125 48.7953L141.598 38.3543L146.953 51.2048L137.315 81.4568L148.559 53.0788L148.291 48.7953L143.205 33L125 48.7953Z" fill="#EDFFFF"/>
<path d="M120.086 35.5176L116.749 43.0941L105.968 46.0706L88 55L118.545 47.9647L136 32L120.086 35.5176Z" fill="url(#paint47_linear)"/>
<path d="M138.929 63L157.937 75.0473L127.417 79.5985L138.929 63Z" fill="url(#paint48_linear)"/>
<path d="M85.5118 15L104.52 27.0473L74 31.5985L85.5118 15Z" fill="url(#paint49_linear)"/>
<path d="M42.5118 17L61.5197 29.0473L31 33.5985L42.5118 17Z" fill="url(#paint50_linear)"/>
<path d="M25.5118 46L44.5197 58.0473L14 62.5985L25.5118 46Z" fill="url(#paint51_linear)"/>
<path d="M80.4529 37.1302L78.7985 47.6287L62.844 20.0324L59.7638 3.96797L72.217 9.76715L80.4529 37.1302Z" fill="url(#paint52_linear)"/>
<path d="M57.6122 33.3944L65.1349 30.2789L62.8446 20.0326L57.6122 33.3944Z" fill="url(#paint53_linear)"/>
<path d="M65.1352 30.28L78.7994 47.63L63.9893 43.6167L57.6125 33.3955L65.1352 30.28Z" fill="url(#paint54_linear)"/>
<path d="M72.6693 12.0091L77.4961 44.0233L64.5445 22.7578L63.9045 7.06424L72.6693 12.0091Z" fill="url(#paint55_linear)"/>
<path d="M108.737 16L119 27.0727L116.105 45L94 30.5L108.737 16Z" fill="url(#paint56_linear)"/>
<defs>
<linearGradient id="paint0_linear" x1="80" y1="2" x2="80" y2="162" gradientUnits="userSpaceOnUse">
<stop stop-color="#E5FFFF"/>
<stop offset="1" stop-color="#248AB0"/>
</linearGradient>
<linearGradient id="paint1_linear" x1="13.5297" y1="133.069" x2="49.2208" y2="132.907" gradientUnits="userSpaceOnUse">
<stop stop-color="#248AB0"/>
<stop offset="1" stop-color="#9FEEFA"/>
</linearGradient>
<linearGradient id="paint2_linear" x1="70.8449" y1="82.5146" x2="83.0274" y2="35.0984" gradientUnits="userSpaceOnUse">
<stop stop-color="#248AB0"/>
<stop offset="1" stop-color="#9FEEFA"/>
</linearGradient>
<linearGradient id="paint3_linear" x1="102.845" y1="79.5146" x2="115.027" y2="32.0984" gradientUnits="userSpaceOnUse">
<stop stop-color="#248AB0"/>
<stop offset="1" stop-color="#9FEEFA"/>
</linearGradient>
<linearGradient id="paint4_linear" x1="120.845" y1="132.893" x2="139.239" y2="75.6181" gradientUnits="userSpaceOnUse">
<stop stop-color="#248AB0"/>
<stop offset="1" stop-color="#9FEEFA"/>
</linearGradient>
<linearGradient id="paint5_linear" x1="69.3292" y1="66.372" x2="69.7349" y2="95.199" gradientUnits="userSpaceOnUse">
<stop offset="0.1451" stop-color="#A5E2FF"/>
<stop offset="0.7451" stop-color="#D6FFFF"/>
</linearGradient>
<linearGradient id="paint6_linear" x1="8.06814" y1="109.722" x2="38.2886" y2="102.476" gradientUnits="userSpaceOnUse">
<stop stop-color="#248AB0"/>
<stop offset="0.0107557" stop-color="#268BB1"/>
<stop offset="0.4839" stop-color="#6ABED8"/>
<stop offset="0.8259" stop-color="#95DDF0"/>
<stop offset="1" stop-color="#A5E9F9"/>
</linearGradient>
<linearGradient id="paint7_linear" x1="26.4775" y1="110.476" x2="48.9707" y2="98.1383" gradientUnits="userSpaceOnUse">
<stop stop-color="#248AB0"/>
<stop offset="1" stop-color="#9FEEFA"/>
</linearGradient>
<linearGradient id="paint8_linear" x1="57.2169" y1="120.533" x2="68.7881" y2="78.9369" gradientUnits="userSpaceOnUse">
<stop offset="0.0980392" stop-color="#248AB0"/>
<stop offset="1" stop-color="#8DE8FF"/>
</linearGradient>
<linearGradient id="paint9_linear" x1="84.2811" y1="96.9274" x2="86.4501" y2="130.389" gradientUnits="userSpaceOnUse">
<stop offset="0.1686" stop-color="#B2F5FF"/>
<stop offset="1" stop-color="#58BFEA"/>
</linearGradient>
<linearGradient id="paint10_linear" x1="33.2787" y1="90.6478" x2="77.2747" y2="57.0725" gradientUnits="userSpaceOnUse">
<stop stop-color="#248AB0"/>
<stop offset="1" stop-color="#9FEEFA"/>
</linearGradient>
<linearGradient id="paint11_linear" x1="60.0012" y1="73.755" x2="84.2227" y2="60.416" gradientUnits="userSpaceOnUse">
<stop offset="0.1451" stop-color="#A5E2FF"/>
<stop offset="0.7451" stop-color="#E5FFFF"/>
</linearGradient>
<linearGradient id="paint12_linear" x1="37.0012" y1="64.755" x2="61.2227" y2="51.416" gradientUnits="userSpaceOnUse">
<stop offset="0.1451" stop-color="#A5E2FF"/>
<stop offset="0.7451" stop-color="#E5FFFF"/>
</linearGradient>
<linearGradient id="paint13_linear" x1="91.0012" y1="78.755" x2="115.223" y2="65.416" gradientUnits="userSpaceOnUse">
<stop offset="0.1451" stop-color="#A5E2FF"/>
<stop offset="0.7451" stop-color="#E5FFFF"/>
</linearGradient>
<linearGradient id="paint14_linear" x1="37.4444" y1="69.1733" x2="73.5518" y2="65.1741" gradientUnits="userSpaceOnUse">
<stop stop-color="#248AB0"/>
<stop offset="1" stop-color="#9FEEFA"/>
</linearGradient>
<linearGradient id="paint15_linear" x1="64.4958" y1="104.466" x2="92.3719" y2="75.9937" gradientUnits="userSpaceOnUse">
<stop stop-color="#248AB0"/>
<stop offset="1" stop-color="#9FEEFA"/>
</linearGradient>
<linearGradient id="paint16_linear" x1="109.309" y1="24.1238" x2="81.6658" y2="107.456" gradientUnits="userSpaceOnUse">
<stop offset="0.0745098" stop-color="white"/>
<stop offset="1"/>
</linearGradient>
<linearGradient id="paint17_linear" x1="80.1658" y1="52.3417" x2="103.308" y2="21.8124" gradientUnits="userSpaceOnUse">
<stop offset="0.1451" stop-color="#A5E2FF"/>
<stop offset="0.7451" stop-color="#E5FFFF"/>
</linearGradient>
<linearGradient id="paint18_linear" x1="86.5284" y1="73.8659" x2="73.6036" y2="72.3217" gradientUnits="userSpaceOnUse">
<stop offset="0.2196" stop-color="#1F7292"/>
<stop offset="1" stop-color="#9BF7FF"/>
</linearGradient>
<linearGradient id="paint19_linear" x1="103.856" y1="38.6034" x2="92.2815" y2="65.7557" gradientUnits="userSpaceOnUse">
<stop offset="0.1451" stop-color="#A5E2FF"/>
<stop offset="0.7451" stop-color="#E5FFFF"/>
</linearGradient>
<linearGradient id="paint20_linear" x1="67.8559" y1="43.6034" x2="56.2815" y2="70.7557" gradientUnits="userSpaceOnUse">
<stop offset="0.1451" stop-color="#A5E2FF"/>
<stop offset="0.7451" stop-color="#E5FFFF"/>
</linearGradient>
<linearGradient id="paint21_linear" x1="85.2403" y1="70.9034" x2="115.186" y2="161.826" gradientUnits="userSpaceOnUse">
<stop stop-color="#55A8C4"/>
<stop offset="1" stop-color="#BCEFF7"/>
</linearGradient>
<linearGradient id="paint22_linear" x1="127.611" y1="221.632" x2="52.8537" y2="123.735" gradientUnits="userSpaceOnUse">
<stop offset="0.0745098" stop-color="white"/>
<stop offset="1"/>
</linearGradient>
<linearGradient id="paint23_linear" x1="144.873" y1="38.695" x2="40.8217" y2="69.8535" gradientUnits="userSpaceOnUse">
<stop offset="0.0745098" stop-color="white"/>
<stop offset="1"/>
</linearGradient>
<linearGradient id="paint24_linear" x1="88.7391" y1="63.4985" x2="58.2407" y2="115.32" gradientUnits="userSpaceOnUse">
<stop offset="0.0745098" stop-color="white"/>
<stop offset="1"/>
</linearGradient>
<linearGradient id="paint25_linear" x1="133.463" y1="111.359" x2="132.125" y2="74.7146" gradientUnits="userSpaceOnUse">
<stop offset="0.0980392" stop-color="#248AB0"/>
<stop offset="1" stop-color="#86E1FA"/>
</linearGradient>
<linearGradient id="paint26_linear" x1="116.463" y1="134.934" x2="115.125" y2="98.2898" gradientUnits="userSpaceOnUse">
<stop offset="0.0980392" stop-color="#248AB0"/>
<stop offset="1" stop-color="#86E1FA"/>
</linearGradient>
<linearGradient id="paint27_linear" x1="103.78" y1="90.0262" x2="157.993" y2="75.6364" gradientUnits="userSpaceOnUse">
<stop offset="0.0980392" stop-color="#248AB0"/>
<stop offset="1" stop-color="#8DE8FF"/>
</linearGradient>
<linearGradient id="paint28_linear" x1="131.668" y1="128.767" x2="92.682" y2="104.839" gradientUnits="userSpaceOnUse">
<stop offset="0.1686" stop-color="#EDFFFF"/>
<stop offset="0.9765" stop-color="#90E0F0"/>
</linearGradient>
<linearGradient id="paint29_linear" x1="93.8178" y1="118.164" x2="81.5475" y2="80.237" gradientUnits="userSpaceOnUse">
<stop offset="0.1686" stop-color="#EDFFFF"/>
<stop offset="0.9765" stop-color="#90E0F0"/>
</linearGradient>
<linearGradient id="paint30_linear" x1="18.0773" y1="53.7703" x2="25.3229" y2="91.7604" gradientUnits="userSpaceOnUse">
<stop stop-color="#248AB0"/>
<stop offset="1" stop-color="#9FEEFA"/>
</linearGradient>
<linearGradient id="paint31_linear" x1="65.8764" y1="114.14" x2="14.9495" y2="69.4714" gradientUnits="userSpaceOnUse">
<stop offset="0.0745098" stop-color="white"/>
<stop offset="1"/>
</linearGradient>
<linearGradient id="paint32_linear" x1="134.089" y1="56.2098" x2="156.047" y2="67.8342" gradientUnits="userSpaceOnUse">
<stop offset="0.0980392" stop-color="#248AB0"/>
<stop offset="1" stop-color="#8DE8FF"/>
</linearGradient>
<linearGradient id="paint33_linear" x1="123.818" y1="99.1637" x2="111.548" y2="61.237" gradientUnits="userSpaceOnUse">
<stop offset="0.1686" stop-color="#EDFFFF"/>
<stop offset="0.9765" stop-color="#90E0F0"/>
</linearGradient>
<linearGradient id="paint34_linear" x1="161.668" y1="109.767" x2="122.682" y2="85.8394" gradientUnits="userSpaceOnUse">
<stop offset="0.1686" stop-color="#EDFFFF"/>
<stop offset="0.9765" stop-color="#90E0F0"/>
</linearGradient>
<linearGradient id="paint35_linear" x1="103.655" y1="46.7335" x2="134.459" y2="28.0408" gradientUnits="userSpaceOnUse">
<stop stop-color="#248AB0"/>
<stop offset="0.0107557" stop-color="#268BB1"/>
<stop offset="0.4839" stop-color="#6ABED8"/>
<stop offset="0.8259" stop-color="#95DDF0"/>
<stop offset="1" stop-color="#A5E9F9"/>
</linearGradient>
<linearGradient id="paint36_linear" x1="107.694" y1="36.3359" x2="112.275" y2="43.461" gradientUnits="userSpaceOnUse">
<stop offset="0.1451" stop-color="#A5E2FF"/>
<stop offset="0.7451" stop-color="#D6FFFF"/>
</linearGradient>
<linearGradient id="paint37_linear" x1="95.8017" y1="54.176" x2="118.311" y2="51.3742" gradientUnits="userSpaceOnUse">
<stop stop-color="#248AB0"/>
<stop offset="0.0107557" stop-color="#268BB1"/>
<stop offset="0.4839" stop-color="#6ABED8"/>
<stop offset="0.8259" stop-color="#95DDF0"/>
<stop offset="1" stop-color="#A5E9F9"/>
</linearGradient>
<linearGradient id="paint38_linear" x1="170.458" y1="-48.6048" x2="102.731" y2="66.2236" gradientUnits="userSpaceOnUse">
<stop offset="0.0745098" stop-color="white"/>
<stop offset="1"/>
</linearGradient>
<linearGradient id="paint39_linear" x1="113.441" y1="128.078" x2="102.149" y2="93.1747" gradientUnits="userSpaceOnUse">
<stop offset="0.1686" stop-color="#EDFFFF"/>
<stop offset="0.9765" stop-color="#90E0F0"/>
</linearGradient>
<linearGradient id="paint40_linear" x1="148.275" y1="137.836" x2="112.396" y2="115.816" gradientUnits="userSpaceOnUse">
<stop offset="0.1686" stop-color="#EDFFFF"/>
<stop offset="0.9765" stop-color="#90E0F0"/>
</linearGradient>
<linearGradient id="paint41_linear" x1="48.2189" y1="1.79495" x2="66.5783" y2="31.3142" gradientUnits="userSpaceOnUse">
<stop stop-color="#248AB0"/>
<stop offset="0.0107557" stop-color="#268BB1"/>
<stop offset="0.4839" stop-color="#6ABED8"/>
<stop offset="0.8259" stop-color="#95DDF0"/>
<stop offset="1" stop-color="#A5E9F9"/>
</linearGradient>
<linearGradient id="paint42_linear" x1="115.655" y1="52.7335" x2="146.459" y2="34.0408" gradientUnits="userSpaceOnUse">
<stop stop-color="#248AB0"/>
<stop offset="0.0107557" stop-color="#268BB1"/>
<stop offset="0.4839" stop-color="#6ABED8"/>
<stop offset="0.8259" stop-color="#95DDF0"/>
<stop offset="1" stop-color="#A5E9F9"/>
</linearGradient>
<linearGradient id="paint43_linear" x1="119.694" y1="42.3359" x2="124.275" y2="49.461" gradientUnits="userSpaceOnUse">
<stop offset="0.1451" stop-color="#A5E2FF"/>
<stop offset="0.7451" stop-color="#D6FFFF"/>
</linearGradient>
<linearGradient id="paint44_linear" x1="107.802" y1="60.176" x2="130.311" y2="57.3742" gradientUnits="userSpaceOnUse">
<stop stop-color="#248AB0"/>
<stop offset="0.0107557" stop-color="#268BB1"/>
<stop offset="0.4839" stop-color="#6ABED8"/>
<stop offset="0.8259" stop-color="#95DDF0"/>
<stop offset="1" stop-color="#A5E9F9"/>
</linearGradient>
<linearGradient id="paint45_linear" x1="166.81" y1="79.7667" x2="127.824" y2="55.8394" gradientUnits="userSpaceOnUse">
<stop offset="0.1686" stop-color="#EDFFFF"/>
<stop offset="0.9765" stop-color="#90E0F0"/>
</linearGradient>
<linearGradient id="paint46_linear" x1="154.622" y1="69.8728" x2="114.679" y2="43.3095" gradientUnits="userSpaceOnUse">
<stop offset="0.1686" stop-color="#EDFFFF"/>
<stop offset="0.9765" stop-color="#90E0F0"/>
</linearGradient>
<linearGradient id="paint47_linear" x1="116.589" y1="58.4443" x2="103.652" y2="20.5108" gradientUnits="userSpaceOnUse">
<stop offset="0.1686" stop-color="#EDFFFF"/>
<stop offset="0.9765" stop-color="#90E0F0"/>
</linearGradient>
<linearGradient id="paint48_linear" x1="143.182" y1="75.8761" x2="151.437" y2="50.6663" gradientUnits="userSpaceOnUse">
<stop offset="0.1451" stop-color="#A5E2FF"/>
<stop offset="0.7451" stop-color="#D6FFFF"/>
</linearGradient>
<linearGradient id="paint49_linear" x1="89.7651" y1="27.8761" x2="98.0196" y2="2.66627" gradientUnits="userSpaceOnUse">
<stop offset="0.1451" stop-color="#A5E2FF"/>
<stop offset="0.7451" stop-color="#D6FFFF"/>
</linearGradient>
<linearGradient id="paint50_linear" x1="46.7651" y1="29.8761" x2="55.0196" y2="4.66627" gradientUnits="userSpaceOnUse">
<stop offset="0.1451" stop-color="#A5E2FF"/>
<stop offset="0.7451" stop-color="#D6FFFF"/>
</linearGradient>
<linearGradient id="paint51_linear" x1="29.7651" y1="58.8761" x2="38.0196" y2="33.6663" gradientUnits="userSpaceOnUse">
<stop offset="0.1451" stop-color="#A5E2FF"/>
<stop offset="0.7451" stop-color="#D6FFFF"/>
</linearGradient>
<linearGradient id="paint52_linear" x1="54.6546" y1="34.7335" x2="85.4594" y2="16.0408" gradientUnits="userSpaceOnUse">
<stop stop-color="#248AB0"/>
<stop offset="0.0107557" stop-color="#268BB1"/>
<stop offset="0.4839" stop-color="#6ABED8"/>
<stop offset="0.8259" stop-color="#95DDF0"/>
<stop offset="1" stop-color="#A5E9F9"/>
</linearGradient>
<linearGradient id="paint53_linear" x1="58.6943" y1="24.3359" x2="63.2751" y2="31.461" gradientUnits="userSpaceOnUse">
<stop offset="0.1451" stop-color="#A5E2FF"/>
<stop offset="0.7451" stop-color="#D6FFFF"/>
</linearGradient>
<linearGradient id="paint54_linear" x1="46.8017" y1="42.176" x2="69.3113" y2="39.3742" gradientUnits="userSpaceOnUse">
<stop stop-color="#248AB0"/>
<stop offset="0.0107557" stop-color="#268BB1"/>
<stop offset="0.4839" stop-color="#6ABED8"/>
<stop offset="0.8259" stop-color="#95DDF0"/>
<stop offset="1" stop-color="#A5E9F9"/>
</linearGradient>
<linearGradient id="paint55_linear" x1="121.458" y1="-60.6048" x2="53.7311" y2="54.2236" gradientUnits="userSpaceOnUse">
<stop offset="0.0745098" stop-color="white"/>
<stop offset="1"/>
</linearGradient>
<linearGradient id="paint56_linear" x1="97.2189" y1="13.7949" x2="115.578" y2="43.3142" gradientUnits="userSpaceOnUse">
<stop stop-color="#248AB0"/>
<stop offset="0.0107557" stop-color="#268BB1"/>
<stop offset="0.4839" stop-color="#6ABED8"/>
<stop offset="0.8259" stop-color="#95DDF0"/>
<stop offset="1" stop-color="#A5E9F9"/>
</linearGradient>
</defs>
</svg>
