<svg width="176" height="49" viewBox="0 0 176 49" fill="none" xmlns="http://www.w3.org/2000/svg">
<path d="M0.154053 5.96434C0.224729 -2.78697 26.4457 -0.613442 26.5164 4.24839C26.3043 16.7176 26.163 29.244 25.9509 41.7131C25.9509 41.7131 3.6172 40.3976 3.54652 28.1C3.47584 15.8024 0.154053 5.96434 0.154053 5.96434Z" fill="#1F6526"/>
<path d="M26.5204 4.18848C26.5204 4.18848 26.379 6.4192 18.2512 6.70519C10.0528 6.99118 6.80164 5.27524 6.80164 5.27524C6.80164 9.3363 6.80164 13.3402 6.80164 17.4012C13.3745 18.9456 19.9474 20.3755 26.5204 21.9199C26.5204 16.0285 26.5204 10.0799 26.5204 4.18848Z" fill="#37A552"/>
<path d="M176 13.2258C158.19 10.3659 112.957 14.2554 85.2515 15.4565C64.826 16.3717 46.0967 16.3717 25.5299 13.9694C17.0487 12.9398 0.227735 11.2239 0.157059 5.79004C0.157059 20.2612 -0.196323 27.1821 0.157059 39.4225C0.227735 42.5684 12.0307 47.0871 24.8231 48.0594C45.39 49.6038 63.8365 48.8602 81.7883 48.517C103.486 47.659 160.593 43.3692 176 47.7162C169.498 41.2528 162.501 34.8467 153.949 29.0125C159.391 23.2355 169.074 16.3145 176 13.2258Z" fill="url(#paint0_linear)"/>
<defs>
<linearGradient id="paint0_linear" x1="186.512" y1="32.0507" x2="0.0150067" y2="32.0507" gradientUnits="userSpaceOnUse">
<stop stop-color="#0C6019"/>
<stop offset="0.5" stop-color="#376B36"/>
<stop offset="1" stop-color="#37B65A"/>
</linearGradient>
</defs>
</svg>
