<svg width="16" height="19" viewBox="0 0 16 19" fill="none" xmlns="http://www.w3.org/2000/svg">
<path d="M14.2129 8.45605C14.2129 8.62207 14.208 8.87109 14.1982 9.20312C14.1982 9.53516 14.1885 9.91113 14.1689 10.3311C14.1494 10.7412 14.1201 11.1709 14.0811 11.6201C14.0518 12.0596 14.0078 12.4746 13.9492 12.8652C13.8906 13.2559 13.8174 13.5977 13.7295 13.8906C13.6514 14.1836 13.5537 14.3789 13.4365 14.4766C13.3486 14.5547 13.2314 14.6328 13.085 14.7109C12.9482 14.7891 12.8018 14.8623 12.6455 14.9307C12.499 14.999 12.3525 15.0625 12.2061 15.1211C12.0596 15.1699 11.9277 15.209 11.8105 15.2383C11.9961 15.6777 12.1768 16.1074 12.3525 16.5273C12.5283 16.957 12.7041 17.3916 12.8799 17.8311L10.7119 18.3438C10.4287 17.9336 10.1602 17.5234 9.90625 17.1133C9.66211 16.7031 9.39844 16.2979 9.11523 15.8975C9.03711 15.9072 8.95898 15.9121 8.88086 15.9121C8.80273 15.9121 8.72461 15.9121 8.64648 15.9121C8.48047 15.9121 8.23145 15.9023 7.89941 15.8828C7.57715 15.8633 7.21094 15.834 6.80078 15.7949C6.40039 15.7559 5.98047 15.707 5.54102 15.6484C5.10156 15.5898 4.69141 15.5264 4.31055 15.458C3.93945 15.3896 3.61719 15.3115 3.34375 15.2236C3.07031 15.1357 2.89453 15.043 2.81641 14.9453C2.67969 14.7793 2.5625 14.5059 2.46484 14.125C2.37695 13.7344 2.30371 13.3193 2.24512 12.8799C2.18652 12.4307 2.14258 12.001 2.11328 11.5908C2.08398 11.1709 2.06934 10.8535 2.06934 10.6387C2.05957 10.3945 2.05469 10.1553 2.05469 9.9209C2.05469 9.67676 2.05469 9.42773 2.05469 9.17383C2.05469 8.98828 2.05469 8.74902 2.05469 8.45605C2.06445 8.16309 2.08398 7.86035 2.11328 7.54785C2.14258 7.23535 2.19141 6.94238 2.25977 6.66895C2.32812 6.39551 2.43066 6.18555 2.56738 6.03906C2.64551 5.95117 2.81641 5.86816 3.08008 5.79004C3.35352 5.70215 3.67578 5.62402 4.04688 5.55566C4.41797 5.47754 4.81836 5.40918 5.24805 5.35059C5.67773 5.29199 6.09766 5.23828 6.50781 5.18945C6.91797 5.14062 7.29395 5.10645 7.63574 5.08691C7.9873 5.05762 8.26074 5.03809 8.45605 5.02832C8.73926 5.01855 9.02246 5.01367 9.30566 5.01367C9.58887 5.00391 9.87207 4.99902 10.1553 4.99902C10.5264 4.99902 10.917 5.00879 11.3271 5.02832C11.7471 5.03809 12.1426 5.10156 12.5137 5.21875C12.8945 5.32617 13.2266 5.50195 13.5098 5.74609C13.8027 5.99023 14.0078 6.33691 14.125 6.78613C14.1445 6.87402 14.1592 6.99121 14.1689 7.1377C14.1885 7.28418 14.1982 7.44043 14.1982 7.60645C14.208 7.77246 14.2129 7.93359 14.2129 8.08984C14.2129 8.24609 14.2129 8.36816 14.2129 8.45605ZM11.0488 9.30566C11.0488 9.25684 11.0488 9.19336 11.0488 9.11523C11.0488 9.03711 11.0439 8.95898 11.0342 8.88086C11.0244 8.80273 11.0049 8.72949 10.9756 8.66113C10.9561 8.59277 10.9268 8.53906 10.8877 8.5C10.8389 8.46094 10.7705 8.42676 10.6826 8.39746C10.5947 8.36816 10.4971 8.34863 10.3896 8.33887C10.292 8.3291 10.1895 8.32422 10.082 8.32422C9.98438 8.31445 9.90625 8.30957 9.84766 8.30957C9.71094 8.30957 9.49609 8.31934 9.20312 8.33887C8.91992 8.3584 8.59766 8.3877 8.23633 8.42676C7.88477 8.46582 7.51367 8.51465 7.12305 8.57324C6.73242 8.62207 6.37109 8.68066 6.03906 8.74902C5.70703 8.81738 5.41895 8.89062 5.1748 8.96875C4.94043 9.04688 4.79395 9.12988 4.73535 9.21777C4.69629 9.27637 4.67188 9.35449 4.66211 9.45215C4.66211 9.5498 4.66211 9.6377 4.66211 9.71582C4.66211 9.91113 4.67676 10.1553 4.70605 10.4482C4.73535 10.7412 4.77441 11.0439 4.82324 11.3564C4.87207 11.6689 4.9209 11.9717 4.96973 12.2646C5.02832 12.5576 5.08203 12.7969 5.13086 12.9824C5.36523 13.0703 5.5752 13.1436 5.76074 13.2021C5.94629 13.251 6.12695 13.29 6.30273 13.3193C6.47852 13.3486 6.65918 13.373 6.84473 13.3926C7.04004 13.4023 7.26465 13.4121 7.51855 13.4219L6.61035 11.957C6.86426 11.8301 7.10352 11.708 7.32812 11.5908C7.55273 11.4736 7.77734 11.3662 8.00195 11.2686C8.22656 11.1709 8.45605 11.083 8.69043 11.0049C8.93457 10.9268 9.19824 10.8535 9.48145 10.7852L10.4629 12.792C10.668 12.2354 10.8145 11.6641 10.9023 11.0781C11 10.4824 11.0488 9.8916 11.0488 9.30566Z" fill="url(#paint0_linear)"/>
<defs>
<linearGradient id="paint0_linear" x1="8.5" y1="0" x2="8.5" y2="19" gradientUnits="userSpaceOnUse">
<stop stop-color="#93679A"/>
<stop offset="1" stop-color="#C7A3C9"/>
</linearGradient>
</defs>
</svg>
