<svg width="176" height="50" viewBox="0 0 176 50" fill="none" xmlns="http://www.w3.org/2000/svg">
<path d="M0.154053 5.96434C0.224729 -2.78697 26.4457 -0.613442 26.5164 4.24839C26.3043 16.7176 26.163 29.244 25.9509 41.7131C25.9509 41.7131 3.6172 40.3976 3.54652 28.1C3.47584 15.8024 0.154053 5.96434 0.154053 5.96434Z" fill="#1F6526"/>
<path d="M26.5204 4.18848C26.5204 4.18848 26.379 6.4192 18.2512 6.70519C10.0528 6.99118 6.80164 5.27524 6.80164 5.27524C6.80164 9.3363 6.80164 13.3402 6.80164 17.4012C13.3745 18.9456 19.9474 20.3755 26.5204 21.9199C26.5204 16.0285 26.5204 10.0799 26.5204 4.18848Z" fill="#37A552"/>
<path d="M176 13.2258C158.19 10.3659 112.957 14.2554 85.2515 15.4565C64.826 16.3717 46.0967 16.3717 25.5299 13.9694C17.0487 12.9398 0.227735 11.2239 0.157059 5.79004C0.157059 20.2612 -0.196323 27.1821 0.157059 39.4225C0.227735 42.5684 12.0307 47.0871 24.8231 48.0594C45.39 49.6038 63.8365 48.8602 81.7883 48.517C103.486 47.659 160.593 43.3692 176 47.7162C169.498 41.2528 162.501 34.8467 153.949 29.0125C159.391 23.2355 169.074 16.3145 176 13.2258Z" fill="url(#paint0_linear)"/>
<path d="M21 13H54C55.1046 13 56 13.8954 56 15V48C56 49.1046 55.1046 50 54 50H21C19.8954 50 19 49.1046 19 48V15C19 13.8954 19.8954 13 21 13Z" fill="url(#paint1_linear)"/>
<path d="M21.6351 13.6357H53.3628C54.4674 13.6357 55.3628 14.5312 55.3628 15.6357V47.362C55.3628 48.4665 54.4674 49.362 53.3628 49.362H21.6351C20.5306 49.362 19.6351 48.4665 19.6351 47.362V15.6357C19.6351 14.5312 20.5306 13.6357 21.6351 13.6357Z" fill="url(#paint2_linear)"/>
<path opacity="0.8" d="M37 47C28.7157 47 22 40.2843 22 32C22 23.7157 28.7157 17 37 17C45.2843 17 52 23.7157 52 32C52 40.2843 45.2843 47 37 47Z" stroke="url(#paint3_linear)" stroke-width="2" stroke-miterlimit="10"/>
<path d="M37 47C28.7157 47 22 40.2843 22 32C22 23.7157 28.7157 17 37 17C45.2843 17 52 23.7157 52 32C52 40.2843 45.2843 47 37 47Z" fill="url(#paint4_linear)"/>
<path d="M43.0899 22.6592H43.761V41.8111H43.0899V22.6592Z" fill="#09323B"/>
<path d="M31.003 22.6592H31.6741V41.8111H31.003V22.6592Z" fill="#09323B"/>
<path opacity="0.3" d="M43.7905 22.6587C43.7905 22.6587 44.5649 27.0393 40.5162 29.8343C36.4675 32.6292 40.3835 32.7694 42.3746 35.498C44.3658 38.2266 44.1298 41.8033 44.1298 41.8033H30.7964C30.7964 41.8033 30.3982 37.2531 33.702 34.554C37.0059 31.8549 36.5339 31.2502 34.0486 29.6573C32.0501 28.3815 31.2168 25.0112 31.2168 22.6514H43.7905V22.6587Z" fill="white"/>
<path d="M43.6578 41.8035C43.6578 41.8035 43.562 39.3109 43.09 38.0793C42.618 36.8404 37.4926 34.9746 37.4926 34.9746C37.4926 34.9746 32.854 36.3979 31.969 37.8655C31.4307 38.7578 31.2316 40.7047 31.239 41.7445L43.6578 41.8035Z" fill="#FFB756"/>
<path d="M33.6725 28.5225H41.3199C41.3199 28.5225 40.5972 29.2747 39.2845 30.2629C37.9719 31.2584 37.7138 31.8484 37.6621 33.0505C37.6105 34.2599 37.581 36.8632 37.581 36.8632L37.2197 37.1065V33.1095C37.2197 33.1095 37.5146 31.2879 35.6857 30.1596C33.8568 29.0313 33.6725 28.5225 33.6725 28.5225Z" fill="#FFB756"/>
<path opacity="0.7" d="M42.3156 22.6968C42.323 22.7337 42.323 22.7927 42.3304 22.8443C42.3378 22.8959 42.3378 22.9549 42.3378 23.0065C42.3451 23.1171 42.3451 23.2278 42.3451 23.331C42.3451 23.5523 42.3378 23.7735 42.3156 23.9947C42.2788 24.4372 42.2124 24.8723 42.1092 25.3074C41.9027 26.1702 41.5561 27.0036 41.0398 27.7337L40.944 27.8738L40.8407 28.0065C40.7744 28.095 40.7006 28.1835 40.6269 28.272L40.4056 28.5375L40.1844 28.803C39.882 29.1496 39.5797 29.4962 39.2699 29.8354C38.9602 30.182 38.6431 30.5213 38.3776 30.9121C38.2522 31.1112 38.1342 31.3177 38.0752 31.5464C38.0162 31.775 38.0015 32.011 38.0015 32.2396C38.0162 32.011 38.0531 31.7823 38.1269 31.5685C38.2006 31.3546 38.326 31.1629 38.4661 30.9859C38.7463 30.6319 39.0929 30.3222 39.4248 30.0051C39.764 29.6879 40.0959 29.3708 40.4277 29.0464L40.6785 28.803L40.9218 28.5523C41.003 28.4711 41.0841 28.39 41.1652 28.3015L41.2832 28.1688L41.4086 28.0065C42.0207 27.2691 42.4705 26.3989 42.7729 25.4918C42.9204 25.0346 43.0384 24.5626 43.1121 24.0906C43.149 23.8546 43.1785 23.6112 43.2006 23.3679C43.208 23.2499 43.2154 23.1245 43.2227 23.0065C43.2227 22.9475 43.2301 22.8812 43.2301 22.8222C43.2301 22.7558 43.2301 22.7042 43.2301 22.623L42.3156 22.6968Z" fill="white"/>
<path d="M30 21H45V22.6593H30V21Z" fill="#09323B"/>
<path opacity="0.7" d="M39.6387 34.0977C39.9189 34.3115 40.1549 34.577 40.3761 34.8572C40.5974 35.1301 40.7817 35.4325 40.9514 35.7348C41.2906 36.3469 41.534 37.0033 41.7109 37.6744L41.8363 38.1758L41.9322 38.6921L41.9764 38.9502L42.0059 39.2083L42.0649 39.7245C42.0797 39.813 42.0797 39.8941 42.0797 39.9826L42.0944 40.2407L42.1166 40.7569L42.0944 41.7968H42.9056L42.8245 40.7127L42.7508 40.1744L42.7139 39.9089C42.6991 39.8204 42.6918 39.7319 42.6697 39.6434L42.559 39.1124L42.5 38.8469L42.4263 38.5814L42.2788 38.0578L42.0944 37.549C41.8363 36.8705 41.5266 36.2215 41.121 35.6242C40.9145 35.3292 40.7006 35.0416 40.4499 34.7835C40.1991 34.5328 39.9337 34.2894 39.6387 34.0977Z" fill="white"/>
<path d="M30 41.8037H45V43.463H30V41.8037Z" fill="#09323B"/>
<defs>
<linearGradient id="paint0_linear" x1="186.512" y1="32.0507" x2="0.0150067" y2="32.0507" gradientUnits="userSpaceOnUse">
<stop stop-color="#0C6019"/>
<stop offset="0.5" stop-color="#376B36"/>
<stop offset="1" stop-color="#37B65A"/>
</linearGradient>
<linearGradient id="paint1_linear" x1="58.7582" y1="11.8731" x2="15.5542" y2="51.8916" gradientUnits="userSpaceOnUse">
<stop stop-color="#969699"/>
<stop offset="0.2788" stop-color="#B7ADAE"/>
<stop offset="1" stop-color="#E5E5E5"/>
</linearGradient>
<linearGradient id="paint2_linear" x1="37.499" y1="13.6357" x2="37.499" y2="49.362" gradientUnits="userSpaceOnUse">
<stop stop-color="#FCF0EA"/>
<stop offset="1" stop-color="#C8C1C2"/>
</linearGradient>
<linearGradient id="paint3_linear" x1="52.524" y1="32" x2="21.476" y2="32" gradientUnits="userSpaceOnUse">
<stop/>
<stop offset="0.00429839" stop-color="#090909"/>
<stop offset="0.0277675" stop-color="#373737"/>
<stop offset="0.0542172" stop-color="#626262"/>
<stop offset="0.0826444" stop-color="#888888"/>
<stop offset="0.1136" stop-color="#A8A8A8"/>
<stop offset="0.1478" stop-color="#C4C4C4"/>
<stop offset="0.1864" stop-color="#DADADA"/>
<stop offset="0.2315" stop-color="#EBEBEB"/>
<stop offset="0.2872" stop-color="#F6F6F6"/>
<stop offset="0.3654" stop-color="#FDFDFD"/>
<stop offset="0.5824" stop-color="white"/>
<stop offset="0.6688" stop-color="#BBBBBB"/>
<stop offset="0.8455" stop-color="#363636"/>
<stop offset="0.9231"/>
</linearGradient>
<linearGradient id="paint4_linear" x1="37" y1="17" x2="37" y2="47" gradientUnits="userSpaceOnUse">
<stop offset="0.317708" stop-color="#A3A073"/>
<stop offset="1" stop-color="#FFF30C"/>
</linearGradient>
</defs>
</svg>
