<svg width="2750" height="2736" viewBox="0 0 2750 2736" fill="none" xmlns="http://www.w3.org/2000/svg">
<rect width="2750" height="2736" fill="white"/>
<path d="M0 0H2736V2736H0V0Z" fill="url(#paint0_linear)"/>
<path opacity="0.3" d="M2215.1 947.633C2156.68 1094.16 1887.46 1697.05 1284.86 1873.25C791.729 2015.69 396.809 1861.88 212.964 1765.57C355.109 1291.17 772.895 907.94 1319.55 813.868C1640.09 758.709 1952.09 811.638 2215.1 947.633Z" fill="#00FF1E"/>
<path d="M378.129 2330.43C495.795 2414.14 564.768 2519.17 532.866 2564.82C500.964 2610.47 377.945 2580.1 260.279 2496.39C142.614 2412.68 73.6405 2307.65 105.542 2262C137.444 2216.35 260.464 2246.72 378.129 2330.43Z" fill="#FFFF00"/>
<path d="M361.787 2386.65C422.86 2439.71 462.596 2498.14 469.822 2539.99C473.541 2555.73 428.397 2539.14 421.143 2547.83C391.92 2580.33 343.454 2577.82 261.058 2504.87C177.42 2430.88 90.0547 2353.78 118.035 2320.24C125.29 2311.54 181.635 2299.56 197.79 2300.4C238.179 2302.49 301.956 2334.63 361.787 2386.65Z" fill="#00AA59"/>
<path d="M370.494 2393.91C435.294 2450.08 477.72 2512.86 485.152 2556.98C440.206 2555.3 372.909 2522.33 308.109 2466.16C243.309 2409.99 200.883 2347.21 194.693 2304.13C238.397 2304.77 306.937 2338.78 370.494 2393.91Z" fill="#00540F"/>
<path opacity="0.56" d="M576.048 2597.01C610.857 2575.49 639.34 2382.26 404.127 2232.38C194.588 2099.7 45.1807 2225.76 45.5784 2255.58C45.9762 2285.41 184.19 2175.3 379.022 2310.45C575.095 2446.64 548.905 2614.4 576.048 2597.01Z" fill="#00540F"/>
<path opacity="0.3" d="M2582.84 2077.23C2468.84 2159.52 1980.24 2484.06 1483.01 2323.9C1077 2191.51 888.023 1883.07 812.606 1720.81C1149.92 1431.51 1627.36 1345.27 2044.99 1540.26C2289.87 1654.59 2474.04 1846.45 2582.84 2077.23Z" fill="#00FF1E"/>
<path d="M2312.16 1954.15C2250.76 1849.91 2243.76 1744.94 2297.5 1719.07C2350.36 1693.48 2442.94 1756.99 2504.04 1860.35C2565.14 1963.71 2572.73 2070.43 2518.99 2096.31C2465.25 2122.18 2373.55 2058.38 2312.16 1954.15Z" fill="#FFFF00"/>
<path d="M2501.11 2077.93C2490.01 2082.63 2447.55 2060.81 2433.79 2054.71C2397.78 2040.47 2358.48 1996.13 2333.47 1936.25C2307.57 1876.66 2330.34 1860.22 2345.16 1825.97C2346.61 1821.58 2345.71 1810.17 2342.46 1797.61C2337.12 1770.13 2326.79 1733.61 2334.68 1730.95C2375.58 1716.22 2448.02 1795.28 2482.75 1878.24C2518.35 1960.91 2542.6 2062.02 2501.11 2077.93Z" fill="#00AA59"/>
<path d="M2434.08 2055.59C2398.07 2041.35 2358.77 1997.01 2333.75 1937.12C2307.86 1877.53 2330.63 1861.1 2345.45 1826.84C2346.9 1822.45 2346 1811.05 2342.75 1798.48C2371.17 1819.17 2399.34 1856.53 2419.93 1903.26C2444.07 1963.44 2448.9 2021.33 2434.08 2055.59Z" fill="#00540F"/>
<path d="M2256.59 1733.8C2256.59 1733.8 2257.49 1739.35 2203.1 1743C2148.72 1746.66 2101.25 1709.94 2101.25 1709.94C2101.25 1709.94 2154.7 1796.36 2200.39 1824.89C2246.09 1853.43 2214.97 1917.56 2281.09 2038.74C2347.21 2159.93 2485.64 2200.21 2485.64 2200.21C2485.64 2200.21 2482.93 2171.85 2485.5 2147.57C2488.06 2123.29 2503.82 2109.21 2503.82 2109.21C2503.82 2109.21 2422.59 2134.58 2321.05 2000.91C2206.9 1850.03 2256.59 1733.8 2256.59 1733.8Z" fill="#008243"/>
<path opacity="0.56" d="M2143.58 440.862C2079.61 482.698 2024.46 887.824 1443.98 1386.63C1408.12 1418.02 1371.1 1448.08 1335.01 1474.95C1316.04 1406.48 1273.65 1332.53 1199.62 1265.01C1020.65 1107.41 756.807 1184.82 719.543 1231.63C685.325 1273.4 948.231 1199.18 1098.39 1332.38C1170.07 1397.22 1212.7 1475.7 1241.51 1542.64C756.189 1877.77 376.856 1853.07 376.856 1853.07C392.077 1891.73 384.546 2044.84 377.729 2147.7C522.289 2172.37 680.914 2170.54 847.979 2140.06C867.661 2137.01 889.453 2132.1 911.244 2127.2C970.057 2113.52 1027.7 2098.5 1086.28 2080.29C1373.56 1987.09 1670.22 1819.5 1942.3 1581.27C2035.1 1500.02 2122.05 1412.07 2199.15 1325.66L2303.91 1198.48C2303.91 1198.48 2116.97 1057.32 2171.39 787.533C2229.08 517.24 2208.73 400.365 2143.58 440.862Z" fill="#00540F"/>
<path d="M1780.02 2480.07C1661.89 2506.15 1559.92 2480.29 1551.97 2421.18C1544.03 2362.99 1633.09 2294.64 1750.29 2268.57C1867.5 2242.5 1971.32 2268.35 1979.27 2327.46C1987.23 2386.57 1898.15 2453.99 1780.02 2480.07Z" fill="#FFFF00"/>
<path d="M1956.26 2338.77C1957.3 2350.78 1923.39 2384.39 1913.33 2395.59C1888.64 2425.41 1834.3 2449.04 1769.61 2454.27C1704.93 2460.43 1696.36 2433.69 1668.38 2408.98C1664.66 2406.24 1653.53 2403.57 1640.58 2402.77C1612.8 2399.33 1574.87 2397.84 1574.79 2389.51C1573.46 2346.06 1671.07 2301.68 1760.71 2294.37C1850.34 2286.13 1953.99 2294.4 1956.26 2338.77Z" fill="#00AA59"/>
<path d="M1914.25 2395.58C1889.56 2425.41 1835.22 2449.04 1770.53 2454.27C1705.85 2460.43 1697.28 2433.69 1669.3 2408.98C1665.58 2406.24 1654.46 2403.57 1641.5 2402.77C1669.98 2382.15 1714.22 2366.94 1765.04 2361.84C1829.74 2357.54 1886.27 2370.88 1914.25 2395.58Z" fill="#00540F"/>
<path d="M1553.3 2464.63C1553.3 2464.63 1558.86 2465.51 1545.48 2518.35C1532.11 2571.19 1482.48 2604.94 1482.48 2604.94C1482.48 2604.94 1581.21 2580.9 1622.5 2546.29C1663.79 2511.69 1715.12 2561.14 1850.83 2535.83C1986.54 2510.51 2067.73 2391.37 2067.73 2391.37C2067.73 2391.37 2039.92 2385.16 2017.64 2375.2C1995.35 2365.23 1986.84 2345.89 1986.84 2345.89C1986.84 2345.89 1985.79 2430.98 1827.24 2486.11C1648.41 2547.9 1553.3 2464.63 1553.3 2464.63Z" fill="#008243"/>
<path d="M1019.17 2395.24C919.831 2464.28 815.685 2479.13 785.854 2427.48C756.382 2376.68 812.771 2279.61 911.262 2210.93C1009.75 2142.26 1115.6 2126.69 1145.43 2178.34C1175.26 2229.99 1118.52 2326.21 1019.17 2395.24Z" fill="#FFFF00"/>
<path d="M1128.45 2197.55C1133.97 2208.26 1115.4 2252.24 1110.34 2266.42C1098.84 2303.39 1057.57 2345.91 999.729 2375.34C942.249 2405.63 924.152 2384.16 888.883 2371.94C884.397 2370.82 873.094 2372.58 860.807 2376.77C833.809 2384.15 798.159 2397.19 794.923 2389.52C777.169 2349.84 850.576 2271.67 930.7 2230.83C1010.46 2189.13 1109.48 2157.37 1128.45 2197.55Z" fill="#00AA59"/>
<path d="M1111.19 2266.06C1099.7 2303.04 1058.42 2345.55 1000.58 2374.99C943.1 2405.27 925.003 2383.8 889.735 2371.58C885.248 2370.47 873.945 2372.23 861.658 2376.41C880.158 2346.52 915.299 2315.62 960.359 2291.59C1018.56 2263.01 1075.92 2253.85 1111.19 2266.06Z" fill="#00540F"/>
<path d="M803.606 2467.16C803.606 2467.16 809.078 2465.86 816.796 2519.81C824.515 2573.77 791.454 2623.86 791.454 2623.86C791.454 2623.86 873.625 2564.08 898.658 2516.38C923.691 2468.67 989.968 2494.9 1105.86 2419.88C1221.75 2344.87 1251.54 2203.81 1251.54 2203.81C1251.54 2203.81 1223.47 2208.64 1199.06 2207.9C1174.66 2207.15 1159.44 2192.5 1159.44 2192.5C1159.44 2192.5 1190.82 2271.6 1065.14 2382.87C923.232 2508.01 803.606 2467.16 803.606 2467.16Z" fill="#008243"/>
<path d="M1736.28 1463.29C1617.28 1441.52 1533.31 1378.15 1548.9 1320.57C1564.14 1263.86 1672.74 1235.39 1790.88 1256.8C1909.03 1278.22 1994.7 1342.3 1979.12 1399.87C1963.53 1457.44 1855.28 1485.05 1736.28 1463.29Z" fill="#FFFF00"/>
<path d="M1953.51 1401.37C1949.81 1412.84 1905.53 1430.68 1891.91 1437.09C1857.59 1455.01 1798.34 1455.72 1736.68 1435.46C1674.68 1416.06 1677.14 1388.09 1660.93 1354.47C1658.56 1350.5 1649.34 1343.72 1637.71 1337.96C1613.44 1324.02 1579.06 1307.94 1582.21 1300.24C1597.83 1259.67 1705.02 1256.6 1790.48 1284.62C1876.29 1311.77 1968.63 1359.59 1953.51 1401.37Z" fill="#00AA59"/>
<path d="M1892.76 1437.45C1858.44 1455.37 1799.19 1456.08 1737.53 1435.82C1675.53 1416.41 1677.99 1388.44 1661.79 1354.82C1659.41 1350.85 1650.2 1344.08 1638.57 1338.31C1672.81 1330.35 1719.49 1333.49 1768.31 1348.49C1829.61 1369.61 1876.56 1403.83 1892.76 1437.45Z" fill="#00540F"/>
<path d="M1533.28 1361.14C1533.28 1361.14 1538.06 1364.1 1505.25 1407.62C1472.43 1451.14 1413.6 1463.02 1413.6 1463.02C1413.6 1463.02 1513.93 1479.13 1565.41 1463.25C1616.89 1447.36 1645.02 1512.85 1779.93 1542.13C1914.84 1571.41 2035.87 1493.07 2035.87 1493.07C2035.87 1493.07 2012.65 1476.57 1995.97 1458.74C1979.29 1440.91 1978.95 1419.79 1978.95 1419.79C1978.95 1419.79 1944.99 1497.82 1777.47 1487.15C1588.67 1474.77 1533.28 1361.14 1533.28 1361.14Z" fill="#008243"/>
<path d="M2379.47 1007.49C2290.99 893.364 2255.29 772.89 2299.02 738.399C2342.74 703.909 2451.75 768.511 2540.23 882.637C2628.7 996.764 2664.4 1117.24 2620.68 1151.73C2576.95 1186.22 2467.95 1121.62 2379.47 1007.49Z" fill="#FFFF00"/>
<path d="M2411.36 958.383C2368.21 889.948 2347.04 822.53 2352.21 780.383C2353.19 764.236 2391.62 793.161 2401.08 786.931C2438.44 764.253 2484.12 780.655 2541.93 874.296C2600.64 969.289 2662.02 1068.33 2625.54 1092.36C2616.09 1098.59 2558.68 1093.79 2543.46 1088.32C2505.39 1074.66 2453.61 1025.47 2411.36 958.383Z" fill="#00AA59"/>
<path d="M2405.11 948.925C2359.29 876.437 2336.81 804.077 2342.43 759.689C2384.98 774.279 2439.89 825.28 2485.7 897.767C2531.52 970.255 2554.01 1042.62 2547.49 1085.65C2505.84 1072.41 2450.04 1020.06 2405.11 948.925Z" fill="#00540F"/>
<path opacity="0.56" d="M2266.97 695.109C2227.43 705.661 2144.36 882.435 2326.26 1093.86C2488.56 1281.4 2668 1203.86 2676.24 1175.19C2684.47 1146.52 2520.34 1212.03 2372.85 1026.36C2224.46 839.351 2297.98 686.305 2266.97 695.109Z" fill="#00540F"/>
<path d="M0 0H2052V1602C2052 1850.53 1850.53 2052 1602 2052H0V0Z" fill="url(#paint1_linear)"/>
<path d="M1723.63 1789.86C1702.75 1838.59 1612.28 1871.08 1574 1860.64C1567.04 1858.32 1561.24 1854.84 1558.92 1850.2C1541.53 1816.55 1576.32 1715.59 1615.76 1694.7C1644.76 1679.62 1673.75 1684.26 1695.79 1700.51C1722.47 1720.23 1736.39 1757.37 1723.63 1789.86Z" fill="#00D7FF"/>
<path opacity="0.5" d="M1884.85 1663.37C1880.21 1673.82 1877.89 1680.78 1876.73 1680.78C1874.41 1681.94 1861.65 1679.62 1843.1 1674.98C1834.98 1672.66 1825.7 1670.34 1815.26 1668.02C1749.15 1650.61 1648.24 1622.76 1594.88 1627.4C1539.21 1633.2 1516.01 1810.74 1489.33 1927.94C1483.53 1953.47 1477.73 1975.52 1471.93 1992.93C1464.97 2011.49 1458.01 2023.1 1449.89 2026.58C1448.73 2027.74 1446.41 2027.74 1444.09 2028.9C1445.25 2021.94 1447.57 2012.65 1448.73 2002.21C1470.77 1876.89 1527.61 1569.38 1554.28 1548.5C1577.48 1529.93 1739.87 1599.55 1832.66 1641.33C1840.78 1644.81 1848.9 1649.45 1857.02 1651.77C1867.45 1655.25 1877.89 1659.89 1884.85 1663.37Z" fill="white"/>
<path d="M1301.52 550.955C1291.36 498.916 1347.89 421.161 1385.41 408.264C1392.47 406.268 1399.22 405.884 1403.75 408.417C1437.06 426.453 1465.08 529.494 1444.23 568.947C1428.74 597.73 1402.15 610.204 1374.79 609.169C1341.64 607.866 1309.24 584.995 1301.52 550.955Z" fill="#00D7FF"/>
<path opacity="0.5" d="M1239.37 746.224C1237.33 734.98 1235.33 727.918 1236.29 727.266C1237.55 725.002 1249.41 719.743 1267.36 713.142C1275.38 710.493 1284.36 707.192 1294.29 703.239C1358.75 680.44 1457.84 646.702 1499.35 612.851C1542.11 576.736 1461.42 416.899 1417.55 304.994C1407.99 280.625 1400.38 259.134 1395.38 241.48C1390.69 222.215 1389.92 208.707 1394.68 201.261C1394.98 199.649 1396.9 198.344 1398.16 196.08C1401.12 202.489 1404.43 211.469 1409.34 220.756C1461.62 336.768 1587.6 622.979 1577.3 655.254C1568.56 683.654 1395.14 717.434 1294.92 735.092C1286.25 736.781 1276.93 737.511 1268.91 740.159C1258.32 743.153 1247.08 745.187 1239.37 746.224Z" fill="white"/>
<path d="M1183.64 1401.91C1166.33 1481.97 1115.74 1614.23 1094.44 1661.8C1089.11 1672.24 1086.45 1679.2 1085.12 1679.2C1082.45 1680.36 1067.81 1678.04 1046.5 1673.4C1037.18 1671.08 1026.53 1668.76 1014.55 1666.44C938.658 1649.04 822.823 1621.19 761.578 1625.83C697.669 1631.64 671.041 1809.15 640.418 1926.33C633.761 1951.86 627.103 1973.9 620.446 1991.31C612.458 2009.87 604.469 2021.47 595.149 2024.95C593.818 2026.11 591.155 2026.11 588.492 2027.27C519.258 2044.68 167.76 2067.88 43.9372 2036.55C17.3086 2029.59 1.33143 2021.47 0 2008.71C0 2007.55 6.65714 1998.27 17.3086 1984.34C23.9657 1976.22 30.6229 1966.94 39.9429 1956.5C95.8629 1888.05 199.714 1765.06 298.24 1665.28C358.155 1603.79 416.737 1551.58 459.343 1526.05C519.258 1491.25 648.406 1449.48 781.549 1413.51C913.361 1378.71 1049.17 1349.7 1126.39 1339.26C1137.04 1338.1 1147.69 1336.94 1155.68 1335.78C1171.66 1334.62 1182.31 1334.62 1186.3 1338.1C1192.96 1343.9 1190.3 1368.26 1183.64 1401.91Z" fill="#00D7FF"/>
<path opacity="0.5" d="M1093.6 1663C1088.23 1673.45 1085.54 1680.41 1084.2 1680.41C1081.52 1681.57 1066.74 1679.25 1045.26 1674.61C1035.86 1672.29 1025.11 1669.97 1013.03 1667.65C936.482 1650.24 819.649 1622.39 757.875 1627.03C693.415 1632.83 666.557 1810.37 635.67 1927.57C628.956 1953.1 622.241 1975.15 615.527 1992.56C607.469 2011.12 599.412 2022.73 590.011 2026.21C588.669 2027.37 585.983 2027.37 583.297 2028.53C584.64 2021.57 587.326 2012.28 588.669 2001.84C614.184 1876.52 679.986 1569.01 710.873 1548.13C737.731 1529.56 925.738 1599.18 1033.17 1640.96C1042.57 1644.44 1051.97 1649.08 1061.37 1651.4C1073.46 1654.88 1085.54 1659.52 1093.6 1663Z" fill="white"/>
<path d="M2002.5 875.388C1943.77 862.737 1846.69 825.57 1811.77 809.905C1804.11 805.986 1799 804.03 1798.99 803.046C1798.14 801.079 1799.81 790.244 1803.17 774.483C1804.86 767.587 1806.54 759.706 1808.22 750.841C1820.84 694.689 1841.04 608.982 1837.52 563.701C1833.15 516.454 1702.94 497.092 1616.95 474.664C1598.23 469.789 1582.05 464.907 1569.28 460.016C1555.65 454.144 1547.13 448.258 1544.56 441.372C1543.7 440.39 1543.7 438.421 1542.84 436.454C1529.95 385.29 1512.28 125.412 1535.02 33.7906C1540.07 14.0867 1546 2.25704 1555.35 1.24883C1556.2 1.24668 1563.02 6.15221 1573.25 14.0028C1579.22 18.9105 1586.04 23.816 1593.71 30.6885C1644.01 71.9127 1734.38 148.48 1807.73 221.151C1852.93 265.342 1891.33 308.565 1910.12 340.024C1935.76 384.264 1966.62 479.688 1993.25 578.076C2019.01 675.482 2040.54 775.852 2048.34 832.936C2049.21 840.811 2050.08 848.685 2050.94 854.59C2051.83 866.402 2051.85 874.279 2049.3 877.239C2045.06 882.172 2027.19 880.248 2002.5 875.388Z" fill="#00D7FF"/>
<path opacity="0.5" d="M1810.92 809.902C1803.26 805.983 1798.15 804.027 1798.14 803.042C1797.29 801.076 1798.96 790.241 1802.33 774.48C1804.01 767.584 1805.69 759.703 1807.37 750.838C1819.99 694.686 1840.19 608.979 1836.67 563.698C1832.3 516.45 1702.09 497.089 1616.1 474.661C1597.38 469.786 1581.2 464.904 1568.43 460.013C1554.8 454.141 1546.28 448.255 1543.71 441.369C1542.85 440.387 1542.85 438.418 1541.99 436.451C1547.1 437.423 1553.91 439.374 1561.57 440.34C1653.5 458.814 1879.07 506.487 1894.44 529.093C1908.1 548.749 1857.4 686.715 1826.97 765.556C1824.44 772.455 1821.05 779.355 1819.37 786.251C1816.84 795.119 1813.46 803.988 1810.92 809.902Z" fill="white"/>
<path d="M1473.84 778.366V808.536C1473.84 808.536 1372.93 885.123 1305.66 976.794C1304.5 977.954 1304.5 979.115 1303.34 979.115C1224.47 1090.51 1266.22 1226.28 1266.22 1226.28C1266.22 1226.28 1266.22 1226.28 1265.06 1225.12C1258.1 1220.48 1198.95 1175.22 1198.95 1097.47C1198.95 1093.99 1198.95 1090.51 1198.95 1087.03C1201.27 1049.9 1217.51 1001.16 1239.55 954.746C1245.34 940.822 1252.3 928.057 1259.26 915.293C1285.94 866.556 1317.26 827.103 1340.46 815.499C1345.1 813.178 1350.89 810.857 1356.69 808.536C1384.53 796.933 1418.17 788.81 1441.37 783.008C1462.24 779.527 1473.84 778.366 1473.84 778.366Z" fill="#0050D9"/>
<path d="M1298.72 1127.63C1298.72 1127.63 1309.16 1208.86 1404.27 1218.14C1500.54 1227.43 1557.37 1142.72 1562.01 1085.86C1566.65 1029 1514.46 954.735 1477.34 962.857C1441.38 969.82 1298.72 1127.63 1298.72 1127.63Z" fill="#0050D9"/>
<path d="M1478.49 961.705C1423.98 939.658 1303.35 977.951 1295.23 1089.35C1287.11 1200.75 1406.58 1226.28 1478.49 1192.62C1549.25 1158.97 1563.17 996.517 1478.49 961.705Z" fill="#00D7FF"/>
<path d="M1618.83 919.923C1618.83 921.083 1617.67 921.083 1617.67 922.244C1615.35 925.725 1609.55 933.848 1601.43 941.97C1580.56 962.857 1546.92 988.386 1513.28 961.697C1470.37 926.885 1481.97 856.101 1486.61 835.214C1486.61 834.054 1486.61 832.893 1487.77 831.733C1487.77 830.572 1487.77 830.573 1488.93 829.412L1531.84 859.582L1618.83 919.923Z" fill="#0050D9"/>
<path d="M1618.84 919.925C1618.84 921.085 1617.68 921.085 1617.68 922.246C1614.21 925.727 1606.09 929.208 1594.49 932.689C1566.65 940.812 1521.41 945.454 1501.7 929.208C1481.98 912.962 1479.66 866.547 1486.62 836.376C1486.62 835.216 1486.62 834.056 1487.78 832.895C1487.78 831.735 1487.78 831.735 1488.94 830.574C1490.1 827.093 1490.1 824.772 1491.26 822.452C1494.74 814.329 1498.22 808.527 1502.86 808.527C1580.57 795.763 1628.12 895.557 1618.84 919.925Z" fill="#00D7FF"/>
<path opacity="0.5" d="M1624.64 945.453C1624.64 945.453 1624.64 945.453 1620 970.981C1616.52 988.387 1611.88 1016.24 1602.6 1062.65C1599.12 1083.54 1594.48 1103.27 1587.52 1120.67C1557.36 1210.02 1494.73 1276.17 1353.22 1288.93C1215.2 1300.53 1168.8 1213.5 1198.96 1098.62C1205.92 1070.78 1218.68 1040.6 1234.91 1010.43C1244.19 994.189 1253.47 977.944 1263.91 962.859C1327.71 871.187 1411.22 814.328 1450.65 789.96C1464.57 781.837 1472.69 777.195 1472.69 777.195V778.356C1471.53 781.837 1465.73 786.478 1455.29 793.441C1454.13 794.601 1451.81 795.762 1450.65 796.922C1448.33 798.082 1446.01 800.403 1443.69 801.564C1442.53 802.724 1440.22 803.884 1439.06 805.045C1436.74 806.205 1434.42 807.366 1433.26 809.686C1428.62 813.168 1423.98 815.488 1419.34 820.13C1417.02 821.29 1414.7 823.611 1412.38 824.771C1394.98 837.536 1374.1 853.781 1354.38 873.508C1352.06 875.829 1348.58 879.31 1346.26 881.631C1336.99 890.914 1328.87 900.197 1320.75 910.641C1318.43 914.122 1314.95 917.603 1312.63 921.084C1303.35 932.688 1295.23 945.453 1287.11 958.217C1285.95 961.698 1283.63 964.019 1282.47 967.5C1280.15 970.981 1278.99 974.462 1276.67 977.944C1270.87 989.548 1265.07 1001.15 1260.43 1012.76C1259.27 1016.24 1256.95 1019.72 1255.79 1024.36C1251.15 1038.28 1246.51 1053.37 1243.03 1068.45C1241.87 1074.26 1240.71 1080.06 1239.55 1084.7C1238.39 1090.5 1237.23 1096.3 1236.07 1102.11C1236.07 1105.59 1234.91 1107.91 1234.91 1111.39C1233.76 1117.19 1233.75 1122.99 1233.75 1128.8C1233.75 1136.92 1233.75 1143.88 1233.75 1152C1233.75 1154.32 1233.76 1156.64 1234.91 1158.97C1234.91 1160.13 1234.91 1161.29 1234.91 1162.45C1234.91 1165.93 1236.07 1169.41 1236.07 1172.89C1236.07 1174.05 1237.23 1176.37 1237.23 1177.53C1238.39 1179.85 1238.39 1183.33 1239.55 1185.65C1239.55 1186.81 1240.71 1189.14 1240.71 1190.3C1241.87 1192.62 1241.87 1193.78 1243.03 1196.1C1244.19 1197.26 1244.19 1199.58 1245.35 1200.74C1248.83 1207.7 1253.47 1213.5 1258.11 1219.31C1259.27 1220.47 1259.27 1221.63 1260.43 1221.63C1261.59 1223.95 1263.91 1225.11 1265.07 1226.27C1265.07 1226.27 1265.07 1226.27 1266.23 1227.43C1267.39 1228.59 1268.55 1229.75 1270.87 1230.91C1272.03 1232.07 1273.19 1233.23 1275.51 1234.39C1277.83 1236.71 1281.31 1237.87 1284.79 1240.19C1287.11 1241.35 1290.59 1243.67 1292.91 1244.83C1294.07 1244.83 1294.07 1244.83 1294.07 1245.99C1297.55 1247.16 1299.87 1248.32 1303.35 1249.48C1304.51 1249.48 1304.51 1249.48 1305.67 1250.64C1307.99 1251.8 1310.31 1251.8 1313.79 1252.96C1319.59 1254.12 1324.23 1255.28 1330.03 1256.44C1332.35 1256.44 1334.67 1256.44 1335.83 1257.6C1338.14 1257.6 1339.3 1257.6 1341.62 1257.6C1342.78 1257.6 1343.94 1257.6 1345.1 1257.6C1422.82 1261.08 1517.93 1216.99 1550.4 1161.29C1553.88 1156.64 1556.2 1150.84 1558.52 1146.2C1560.84 1141.56 1563.16 1136.92 1565.48 1132.28C1566.64 1128.8 1568.96 1125.31 1570.12 1122.99C1571.28 1119.51 1572.44 1117.19 1573.6 1113.71C1578.24 1103.27 1581.72 1092.82 1585.2 1083.54C1587.52 1078.9 1588.68 1074.26 1589.84 1069.61C1593.32 1060.33 1595.64 1051.05 1597.96 1041.77C1599.12 1039.44 1599.12 1037.12 1600.28 1034.8C1603.76 1018.56 1607.24 1003.47 1609.56 991.868C1610.72 988.387 1610.72 986.066 1611.88 982.585C1613.04 980.264 1613.04 976.783 1614.2 974.462C1614.2 972.142 1615.36 969.821 1616.52 967.5C1616.52 966.34 1616.52 965.179 1617.68 965.179C1617.68 964.019 1618.84 962.859 1618.84 961.698C1620 959.377 1620 958.217 1621.16 957.057C1622.32 954.736 1623.48 953.575 1624.64 952.415L1625.8 951.255C1623.48 946.613 1623.48 945.453 1624.64 945.453Z" fill="white"/>
<path d="M104.789 1044.72L124.538 1046.24C124.538 1046.24 169.602 1116.14 226.23 1164.77C226.931 1165.59 227.691 1165.65 227.633 1166.41C296.591 1223.63 387.558 1203.12 387.558 1203.12C387.558 1203.12 387.558 1203.12 386.74 1203.82C383.352 1208.14 350.758 1244.59 299.867 1240.68C297.588 1240.51 295.309 1240.34 293.031 1240.16C268.841 1236.78 237.754 1223.7 208.478 1206.94C199.654 1202.45 191.649 1197.25 183.643 1192.06C153.08 1172.15 128.828 1149.67 122.397 1133.9C121.111 1130.74 119.883 1126.83 118.655 1122.92C112.457 1104.11 108.829 1081.69 106.196 1066.21C104.966 1052.37 104.789 1044.72 104.789 1044.72Z" fill="#0050D9"/>
<path d="M324.617 1176.9C324.617 1176.9 378.312 1174.14 389.164 1112.35C400.076 1049.8 347.481 1008.35 310.495 1002.45C273.509 996.56 222.275 1027 225.728 1051.7C228.48 1075.59 324.617 1176.9 324.617 1176.9Z" fill="#0050D9"/>
<path d="M225.031 1050.88C207.861 1085.46 226.87 1166.35 299.381 1177.25C371.892 1188.16 394.602 1111.24 376.186 1062.48C357.711 1014.48 252.07 997.207 225.031 1050.88Z" fill="#00D7FF"/>
<path d="M204.73 956.923C205.489 956.981 205.431 957.74 206.19 957.799C208.353 959.492 213.378 963.696 218.288 969.419C230.912 984.134 245.933 1007.43 226.774 1028.11C201.831 1054.46 156.08 1043.31 142.641 1039.22C141.881 1039.16 141.122 1039.11 140.42 1038.29C139.661 1038.23 139.661 1038.23 138.959 1037.41L160.863 1010.84L204.73 956.923Z" fill="#0050D9"/>
<path d="M204.733 956.913C205.492 956.971 205.434 957.73 206.194 957.788C208.298 960.241 210.169 965.731 211.865 973.498C215.784 992.127 216.551 1021.97 204.927 1034.06C193.302 1046.15 162.803 1045.34 143.404 1039.27C142.644 1039.21 141.884 1039.15 141.183 1038.34C140.424 1038.28 140.424 1038.28 139.722 1037.46C137.502 1036.53 135.983 1036.41 134.522 1035.53C129.379 1032.85 125.756 1030.28 125.989 1027.24C121.536 975.733 189.248 949.615 204.733 956.913Z" fill="#00D7FF"/>
<path opacity="0.5" d="M221.731 954.407C221.731 954.407 221.731 954.407 238.209 958.725C249.428 961.877 267.424 966.313 297.341 974.718C310.839 978.044 323.519 982.072 334.563 987.501C391.535 1011.73 431.686 1056.05 432.935 1149.32C433.599 1240.25 374.302 1266.25 300.618 1240.74C282.738 1234.79 263.63 1224.92 244.696 1212.77C234.528 1205.88 224.36 1199 215.01 1191.4C158.207 1145.04 125.182 1087.52 111.211 1060.48C106.593 1050.97 103.963 1045.42 103.963 1045.42L104.722 1045.48C106.943 1046.41 109.69 1050.44 113.723 1057.62C114.425 1058.44 115.068 1060.02 115.769 1060.83C116.412 1062.41 117.815 1064.05 118.458 1065.62C119.159 1066.44 119.802 1068.02 120.503 1068.83C121.147 1070.41 121.79 1071.99 123.251 1072.86C125.296 1076.08 126.582 1079.23 129.388 1082.5C130.031 1084.08 131.433 1085.71 132.077 1087.29C139.558 1099.32 149.144 1113.8 161.066 1127.7C162.469 1129.33 164.573 1131.78 165.976 1133.42C171.586 1139.96 177.255 1145.74 183.683 1151.58C185.846 1153.27 187.95 1155.73 190.112 1157.42C197.242 1164.08 205.189 1170.03 213.137 1175.99C215.357 1176.92 216.76 1178.56 218.98 1179.49C221.143 1181.18 223.363 1182.12 225.525 1183.81C232.83 1188.19 240.134 1192.57 247.497 1196.19C249.718 1197.12 251.88 1198.82 254.86 1199.81C263.742 1203.54 273.383 1207.34 283.083 1210.37C286.822 1211.42 290.562 1212.47 293.542 1213.47C297.282 1214.52 301.021 1215.57 304.761 1216.62C307.04 1216.79 308.501 1217.67 310.779 1217.84C314.519 1218.89 318.317 1219.19 322.115 1219.48C327.432 1219.89 331.989 1220.24 337.306 1220.64C338.825 1220.76 340.344 1220.88 341.922 1220.23C342.681 1220.29 343.441 1220.35 344.201 1220.41C346.479 1220.58 348.816 1220 351.095 1220.17C351.854 1220.23 353.432 1219.59 354.191 1219.65C355.769 1219 358.048 1219.18 359.625 1218.54C360.385 1218.59 361.962 1217.95 362.721 1218.01C364.299 1217.37 365.058 1217.43 366.636 1216.78C367.454 1216.08 368.973 1216.2 369.791 1215.5C374.523 1213.57 378.554 1210.82 382.584 1208.08C383.402 1207.38 384.162 1207.44 384.22 1206.68C385.797 1206.03 386.674 1204.57 387.491 1203.87C387.491 1203.87 387.491 1203.87 388.309 1203.17C389.127 1202.47 389.945 1201.77 390.821 1200.31C391.639 1199.61 392.457 1198.91 393.333 1197.45C394.968 1196.05 395.903 1193.83 397.596 1191.66C398.472 1190.2 400.166 1188.04 401.042 1186.58C401.101 1185.82 401.101 1185.82 401.86 1185.88C402.795 1183.66 403.671 1182.2 404.605 1179.98C404.663 1179.22 404.663 1179.22 405.481 1178.52C406.357 1177.06 406.474 1175.54 407.408 1173.32C408.459 1169.59 409.451 1166.61 410.502 1162.87C410.619 1161.35 410.735 1159.83 411.553 1159.13C411.669 1157.61 411.728 1156.85 411.844 1155.34C411.902 1154.58 411.961 1153.82 412.019 1153.06C418.2 1102.36 394.112 1037.89 359.284 1013.84C356.42 1011.33 352.739 1009.52 349.817 1007.76C346.895 1006.01 343.974 1004.26 341.052 1002.51C338.831 1001.58 336.669 999.882 335.208 999.006C332.988 998.072 331.527 997.197 329.306 996.262C322.703 992.701 316.042 989.899 310.14 987.155C307.218 985.403 304.238 984.411 301.258 983.419C295.356 980.675 289.396 978.69 283.436 976.706C281.975 975.83 280.456 975.713 278.995 974.837C268.536 971.744 258.836 968.709 251.357 966.608C249.136 965.673 247.617 965.557 245.397 964.623C243.936 963.747 241.657 963.572 240.196 962.696C238.677 962.58 237.216 961.704 235.755 960.828C234.996 960.77 234.236 960.712 234.294 959.953C233.535 959.894 232.834 959.077 232.074 959.019C230.613 958.143 229.853 958.084 229.152 957.267C227.691 956.391 226.99 955.574 226.289 954.756L225.587 953.939C222.432 955.224 221.673 955.166 221.731 954.407Z" fill="white"/>
<path d="M185.586 202.12L205.335 203.635C205.335 203.635 250.399 273.534 307.027 322.174C307.729 322.991 308.488 323.05 308.43 323.809C377.388 381.031 468.355 360.516 468.355 360.516C468.355 360.516 468.355 360.516 467.537 361.217C464.149 365.54 431.556 401.988 380.664 398.084C378.385 397.909 376.107 397.735 373.828 397.56C349.638 394.177 318.552 381.1 289.275 364.343C280.452 359.848 272.446 354.652 264.44 349.455C233.878 329.545 209.625 307.064 203.194 291.297C201.908 288.143 200.68 284.231 199.452 280.318C193.254 261.513 189.626 239.088 186.994 223.611C185.763 209.77 185.586 202.12 185.586 202.12Z" fill="#0050D9"/>
<path d="M405.415 334.295C405.415 334.295 459.109 331.54 469.962 269.749C480.873 207.198 428.278 165.741 391.292 159.849C354.306 153.957 303.072 184.393 306.526 209.097C309.277 232.983 405.415 334.295 405.415 334.295Z" fill="#0050D9"/>
<path d="M305.828 208.28C288.659 242.857 307.667 323.741 380.178 334.65C452.69 345.559 475.4 268.639 456.983 219.876C438.509 171.873 332.867 154.604 305.828 208.28Z" fill="#00D7FF"/>
<path d="M285.527 114.321C286.286 114.38 286.228 115.139 286.988 115.197C289.15 116.89 294.176 121.094 299.085 126.817C311.709 141.532 326.73 164.832 307.571 185.51C282.629 211.854 236.877 200.707 223.438 196.621C222.678 196.563 221.919 196.504 221.218 195.687C220.458 195.629 220.458 195.629 219.757 194.811L241.661 168.234L285.527 114.321Z" fill="#0050D9"/>
<path d="M285.53 114.312C286.29 114.37 286.232 115.13 286.991 115.188C289.095 117.64 290.966 123.13 292.663 130.897C296.582 149.527 297.348 179.37 285.724 191.462C274.1 203.553 243.601 202.741 224.201 196.67C223.442 196.612 222.682 196.554 221.981 195.736C221.221 195.678 221.221 195.678 220.52 194.86C218.299 193.926 216.78 193.81 215.319 192.934C210.177 190.248 206.554 187.679 206.787 184.642C202.334 133.132 270.045 107.014 285.53 114.312Z" fill="#00D7FF"/>
<path opacity="0.5" d="M302.529 111.804C302.529 111.804 302.529 111.804 319.006 116.123C330.225 119.275 348.222 123.71 378.139 132.115C391.636 135.442 404.316 139.469 415.36 144.899C472.333 169.126 512.483 213.446 513.732 306.715C514.397 397.647 455.099 423.646 381.416 398.137C363.536 392.183 344.427 382.316 325.494 370.172C315.326 363.282 305.158 356.393 295.808 348.802C239.005 302.44 205.98 244.92 192.009 217.882C187.391 208.363 184.76 202.815 184.76 202.815L185.52 202.873C187.74 203.807 190.487 207.837 194.521 215.019C195.222 215.837 195.865 217.414 196.566 218.231C197.209 219.808 198.612 221.443 199.255 223.02C199.956 223.837 200.6 225.414 201.301 226.232C201.944 227.808 202.587 229.385 204.048 230.261C206.094 233.473 207.38 236.626 210.185 239.896C210.828 241.473 212.231 243.108 212.874 244.685C220.356 256.714 229.941 271.196 241.864 285.094C243.266 286.729 245.37 289.182 246.773 290.817C252.384 297.357 258.052 303.138 264.481 308.977C266.643 310.67 268.747 313.123 270.909 314.816C278.039 321.473 285.987 327.428 293.934 333.384C296.155 334.318 297.557 335.953 299.778 336.887C301.94 338.58 304.161 339.514 306.323 341.208C313.627 345.587 320.932 349.966 328.294 353.585C330.515 354.519 332.677 356.213 335.657 357.205C344.539 360.941 354.181 364.736 363.88 367.771C367.62 368.821 371.359 369.872 374.34 370.864C378.079 371.915 381.819 372.966 385.558 374.016C387.837 374.191 389.298 375.067 391.577 375.242C395.316 376.292 399.114 376.584 402.912 376.875C408.229 377.283 412.787 377.632 418.104 378.04C419.623 378.157 421.142 378.273 422.719 377.631C423.479 377.689 424.238 377.747 424.998 377.806C427.277 377.98 429.614 377.396 431.892 377.571C432.652 377.629 434.229 376.986 434.989 377.045C436.566 376.402 438.845 376.577 440.422 375.934C441.182 375.992 442.759 375.35 443.519 375.408C445.096 374.765 445.856 374.823 447.433 374.181C448.251 373.48 449.77 373.596 450.588 372.895C455.32 370.967 459.351 368.222 463.382 365.476C464.2 364.775 464.959 364.833 465.018 364.074C466.595 363.431 467.471 361.971 468.289 361.27C468.289 361.27 468.289 361.27 469.107 360.569C469.924 359.868 470.742 359.167 471.618 357.707C472.436 357.006 473.254 356.305 474.13 354.845C475.766 353.443 476.7 351.224 478.394 349.062C479.27 347.602 480.964 345.441 481.84 343.981C481.898 343.222 481.898 343.222 482.658 343.28C483.592 341.06 484.468 339.6 485.402 337.381C485.461 336.622 485.461 336.622 486.278 335.921C487.155 334.46 487.271 332.942 488.205 330.722C489.256 326.984 490.249 324.006 491.299 320.268C491.416 318.749 491.532 317.231 492.35 316.53C492.467 315.011 492.525 314.252 492.642 312.734C492.7 311.974 492.758 311.215 492.816 310.456C498.997 259.762 474.91 195.29 440.081 171.234C437.218 168.723 433.536 166.913 430.615 165.162C427.693 163.41 424.771 161.659 421.849 159.907C419.629 158.973 417.467 157.28 416.006 156.404C413.785 155.47 412.324 154.594 410.104 153.66C403.501 150.099 396.839 147.296 390.937 144.552C388.016 142.801 385.036 141.809 382.055 140.816C376.154 138.072 370.194 136.088 364.233 134.103C362.773 133.227 361.253 133.111 359.793 132.235C349.333 129.141 339.634 126.106 332.154 124.005C329.934 123.071 328.415 122.954 326.194 122.02C324.733 121.145 322.455 120.97 320.994 120.094C319.475 119.977 318.014 119.102 316.553 118.226C315.793 118.168 315.034 118.109 315.092 117.35C314.332 117.292 313.631 116.474 312.871 116.416C311.41 115.54 310.651 115.482 309.95 114.664C308.489 113.789 307.787 112.971 307.086 112.154L306.385 111.336C303.23 112.621 302.47 112.563 302.529 111.804Z" fill="white"/>
<path d="M618.302 971.853L638.051 973.368C638.051 973.368 683.115 1043.27 739.743 1091.91C740.444 1092.72 741.204 1092.78 741.145 1093.54C810.104 1150.76 901.071 1130.25 901.071 1130.25C901.071 1130.25 901.071 1130.25 900.253 1130.95C896.865 1135.27 864.271 1171.72 813.38 1167.82C811.101 1167.64 808.822 1167.47 806.544 1167.29C782.354 1163.91 751.267 1150.83 721.991 1134.08C713.167 1129.58 705.161 1124.38 697.156 1119.19C666.593 1099.28 642.34 1076.8 635.91 1061.03C634.624 1057.88 633.396 1053.96 632.168 1050.05C625.97 1031.25 622.342 1008.82 619.709 993.345C618.479 979.504 618.302 971.853 618.302 971.853Z" fill="#0050D9"/>
<path d="M838.13 1104.03C838.13 1104.03 891.825 1101.27 902.677 1039.48C913.588 976.93 860.994 935.473 824.008 929.581C787.022 923.688 735.788 954.125 739.241 978.828C741.993 1002.71 838.13 1104.03 838.13 1104.03Z" fill="#0050D9"/>
<path d="M738.544 978.013C721.374 1012.59 740.383 1093.47 812.894 1104.38C885.405 1115.29 908.115 1038.37 889.699 989.609C871.224 941.605 765.583 924.336 738.544 978.013Z" fill="#00D7FF"/>
<path d="M718.242 884.053C719.002 884.111 718.944 884.87 719.703 884.929C721.866 886.622 726.891 890.826 731.801 896.548C744.425 911.264 759.446 934.564 740.287 955.241C715.344 981.585 669.593 970.438 656.154 966.352C655.394 966.294 654.634 966.236 653.933 965.418C653.174 965.36 653.174 965.36 652.472 964.542L674.376 937.966L718.242 884.053Z" fill="#0050D9"/>
<path d="M718.246 884.044C719.006 884.102 718.947 884.861 719.707 884.919C721.811 887.372 723.682 892.861 725.378 900.629C729.297 919.258 730.064 949.102 718.44 961.193C706.815 973.284 676.316 972.472 656.917 966.402C656.157 966.343 655.397 966.285 654.696 965.467C653.937 965.409 653.937 965.409 653.235 964.592C651.015 963.658 649.496 963.541 648.035 962.665C642.892 959.98 639.269 957.411 639.502 954.374C635.05 902.863 702.761 876.746 718.246 884.044Z" fill="#00D7FF"/>
<path opacity="0.5" d="M735.244 881.535C735.244 881.535 735.244 881.535 751.722 885.854C762.941 889.006 780.937 893.442 810.854 901.846C824.352 905.173 837.032 909.201 848.076 914.63C905.048 938.857 945.199 983.178 946.448 1076.45C947.112 1167.38 887.815 1193.38 814.131 1167.87C796.251 1161.91 777.143 1152.05 758.209 1139.9C748.041 1133.01 737.873 1126.12 728.523 1118.53C671.72 1072.17 638.695 1014.65 624.724 987.613C620.106 978.094 617.476 972.547 617.476 972.547L618.235 972.605C620.456 973.539 623.203 977.568 627.236 984.751C627.938 985.568 628.581 987.145 629.282 987.963C629.925 989.539 631.328 991.174 631.971 992.751C632.672 993.569 633.315 995.145 634.016 995.963C634.66 997.54 635.303 999.117 636.764 999.992C638.809 1003.2 640.095 1006.36 642.901 1009.63C643.544 1011.2 644.946 1012.84 645.59 1014.42C653.071 1026.45 662.657 1040.93 674.579 1054.83C675.982 1056.46 678.086 1058.91 679.489 1060.55C685.099 1067.09 690.768 1072.87 697.196 1078.71C699.359 1080.4 701.463 1082.85 703.625 1084.55C710.755 1091.2 718.702 1097.16 726.65 1103.12C728.87 1104.05 730.273 1105.68 732.493 1106.62C734.656 1108.31 736.876 1109.25 739.038 1110.94C746.343 1115.32 753.647 1119.7 761.01 1123.32C763.231 1124.25 765.393 1125.94 768.373 1126.94C777.255 1130.67 786.896 1134.47 796.596 1137.5C800.335 1138.55 804.075 1139.6 807.055 1140.6C810.795 1141.65 814.534 1142.7 818.274 1143.75C820.553 1143.92 822.014 1144.8 824.292 1144.97C828.032 1146.02 831.83 1146.32 835.628 1146.61C840.945 1147.01 845.502 1147.36 850.819 1147.77C852.338 1147.89 853.857 1148 855.435 1147.36C856.194 1147.42 856.954 1147.48 857.714 1147.54C859.992 1147.71 862.329 1147.13 864.608 1147.3C865.367 1147.36 866.945 1146.72 867.704 1146.78C869.282 1146.13 871.561 1146.31 873.138 1145.67C873.898 1145.72 875.475 1145.08 876.234 1145.14C877.812 1144.5 878.571 1144.55 880.149 1143.91C880.967 1143.21 882.486 1143.33 883.304 1142.63C888.036 1140.7 892.067 1137.95 896.097 1135.21C896.915 1134.51 897.675 1134.56 897.733 1133.81C899.31 1133.16 900.187 1131.7 901.004 1131C901.004 1131 901.004 1131 901.822 1130.3C902.64 1129.6 903.458 1128.9 904.334 1127.44C905.152 1126.74 905.97 1126.04 906.846 1124.58C908.481 1123.17 909.416 1120.96 911.109 1118.79C911.985 1117.33 913.679 1115.17 914.555 1113.71C914.614 1112.95 914.614 1112.95 915.373 1113.01C916.308 1110.79 917.184 1109.33 918.118 1107.11C918.176 1106.35 918.176 1106.35 918.994 1105.65C919.87 1104.19 919.987 1102.67 920.921 1100.45C921.972 1096.72 922.964 1093.74 924.015 1090C924.132 1088.48 924.248 1086.96 925.066 1086.26C925.182 1084.74 925.241 1083.98 925.357 1082.47C925.415 1081.71 925.474 1080.95 925.532 1080.19C931.713 1029.49 907.625 965.021 872.797 940.965C869.933 938.455 866.252 936.645 863.33 934.893C860.408 933.142 857.487 931.39 854.565 929.638C852.344 928.704 850.182 927.011 848.721 926.135C846.501 925.201 845.04 924.325 842.819 923.391C836.216 919.83 829.555 917.028 823.653 914.284C820.731 912.532 817.751 911.54 814.771 910.548C808.869 907.804 802.909 905.819 796.949 903.835C795.488 902.959 793.969 902.842 792.508 901.966C782.049 898.873 772.349 895.838 764.87 893.736C762.649 892.802 761.13 892.686 758.91 891.752C757.449 890.876 755.17 890.701 753.709 889.825C752.19 889.709 750.729 888.833 749.268 887.957C748.509 887.899 747.749 887.841 747.807 887.081C747.048 887.023 746.347 886.206 745.587 886.147C744.126 885.272 743.366 885.213 742.665 884.396C741.204 883.52 740.503 882.703 739.802 881.885L739.1 881.068C735.945 882.353 735.186 882.295 735.244 881.535Z" fill="white"/>
<path d="M1619.48 1273.84L1641.39 1301.2C1641.39 1301.2 1688.59 1354.26 1745.22 1402.9C1745.92 1403.72 1746.68 1403.77 1746.63 1404.53C1815.58 1461.76 1906.55 1441.24 1906.55 1441.24C1906.55 1441.24 1906.55 1441.24 1905.73 1441.94C1902.34 1446.26 1869.75 1482.71 1818.86 1478.81C1816.58 1478.63 1814.3 1478.46 1812.02 1478.28C1787.83 1474.9 1756.75 1461.82 1727.47 1445.07C1718.65 1440.57 1710.64 1435.38 1702.64 1430.18C1672.07 1410.27 1647.82 1387.79 1641.39 1372.02C1640.1 1368.87 1638.88 1364.95 1637.65 1361.04C1631.45 1342.24 1627.82 1319.81 1625.19 1304.34C1623.96 1290.49 1619.48 1273.84 1619.48 1273.84Z" fill="#0050D9"/>
<path d="M1843.61 1415.02C1843.61 1415.02 1897.3 1412.27 1908.16 1350.47C1919.07 1287.92 1866.47 1246.47 1829.49 1240.57C1792.5 1234.68 1741.27 1265.12 1744.72 1289.82C1747.47 1313.71 1843.61 1415.02 1843.61 1415.02Z" fill="#0050D9"/>
<path d="M1744.02 1289.01C1726.85 1323.58 1745.86 1404.47 1818.37 1415.38C1890.89 1426.28 1913.6 1349.36 1895.18 1300.6C1876.7 1252.6 1771.06 1235.33 1744.02 1289.01Z" fill="#00D7FF"/>
<path d="M1723.72 1195.04C1724.48 1195.1 1724.42 1195.86 1725.18 1195.92C1727.35 1197.61 1732.37 1201.82 1737.28 1207.54C1749.9 1222.26 1764.93 1245.56 1745.77 1266.23C1720.82 1292.58 1675.07 1281.43 1661.63 1277.34C1660.87 1277.29 1660.11 1277.23 1659.41 1276.41C1658.65 1276.35 1658.65 1276.35 1657.95 1275.53L1679.86 1248.96L1723.72 1195.04Z" fill="#0050D9"/>
<path d="M1723.73 1195.03C1724.49 1195.09 1724.43 1195.85 1725.19 1195.91C1727.29 1198.36 1729.16 1203.85 1730.86 1211.62C1734.78 1230.25 1735.54 1260.09 1723.92 1272.18C1712.3 1284.28 1681.8 1283.46 1662.4 1277.39C1661.64 1277.33 1660.88 1277.28 1660.18 1276.46C1659.42 1276.4 1659.42 1276.4 1658.72 1275.58C1656.5 1274.65 1654.98 1274.53 1653.51 1273.66C1648.37 1270.97 1644.75 1268.4 1644.98 1265.36C1640.53 1213.85 1708.24 1187.74 1723.73 1195.03Z" fill="#00D7FF"/>
<path opacity="0.5" d="M1740.72 1192.53C1740.72 1192.53 1740.72 1192.53 1757.2 1196.85C1768.42 1200 1786.42 1204.43 1816.33 1212.84C1829.83 1216.17 1842.51 1220.19 1853.56 1225.62C1910.53 1249.85 1950.68 1294.17 1951.93 1387.44C1952.59 1478.37 1893.29 1504.37 1819.61 1478.86C1801.73 1472.91 1782.62 1463.04 1763.69 1450.9C1753.52 1444.01 1743.35 1437.12 1734 1429.53C1677.2 1383.16 1644.18 1325.64 1630.2 1298.61C1625.59 1289.09 1622.96 1283.54 1622.96 1283.54L1623.72 1283.6C1625.94 1284.53 1628.68 1288.56 1632.72 1295.74C1633.42 1296.56 1634.06 1298.14 1634.76 1298.96C1635.41 1300.53 1636.81 1302.17 1637.45 1303.74C1638.15 1304.56 1638.8 1306.14 1639.5 1306.96C1640.14 1308.53 1640.78 1310.11 1642.24 1310.99C1644.29 1314.2 1645.58 1317.35 1648.38 1320.62C1649.02 1322.2 1650.43 1323.83 1651.07 1325.41C1658.55 1337.44 1668.14 1351.92 1680.06 1365.82C1681.46 1367.45 1683.57 1369.91 1684.97 1371.54C1690.58 1378.08 1696.25 1383.86 1702.68 1389.7C1704.84 1391.39 1706.94 1393.85 1709.1 1395.54C1716.23 1402.2 1724.18 1408.15 1732.13 1414.11C1734.35 1415.04 1735.75 1416.68 1737.97 1417.61C1740.14 1419.3 1742.36 1420.24 1744.52 1421.93C1751.82 1426.31 1759.13 1430.69 1766.49 1434.31C1768.71 1435.24 1770.87 1436.94 1773.85 1437.93C1782.73 1441.67 1792.38 1445.46 1802.08 1448.5C1805.82 1449.55 1809.56 1450.6 1812.54 1451.59C1816.27 1452.64 1820.01 1453.69 1823.75 1454.74C1826.03 1454.92 1827.49 1455.79 1829.77 1455.97C1833.51 1457.02 1837.31 1457.31 1841.11 1457.6C1846.42 1458.01 1850.98 1458.36 1856.3 1458.77C1857.82 1458.88 1859.34 1459 1860.91 1458.36C1861.67 1458.41 1862.43 1458.47 1863.19 1458.53C1865.47 1458.7 1867.81 1458.12 1870.09 1458.3C1870.85 1458.35 1872.42 1457.71 1873.18 1457.77C1874.76 1457.13 1877.04 1457.3 1878.62 1456.66C1879.38 1456.72 1880.95 1456.07 1881.71 1456.13C1883.29 1455.49 1884.05 1455.55 1885.63 1454.91C1886.45 1454.2 1887.97 1454.32 1888.78 1453.62C1893.52 1451.69 1897.55 1448.95 1901.58 1446.2C1902.4 1445.5 1903.15 1445.56 1903.21 1444.8C1904.79 1444.16 1905.67 1442.7 1906.48 1441.99C1906.48 1441.99 1906.48 1441.99 1907.3 1441.29C1908.12 1440.59 1908.94 1439.89 1909.81 1438.43C1910.63 1437.73 1911.45 1437.03 1912.33 1435.57C1913.96 1434.17 1914.9 1431.95 1916.59 1429.79C1917.47 1428.33 1919.16 1426.17 1920.04 1424.71C1920.09 1423.95 1920.09 1423.95 1920.85 1424C1921.79 1421.79 1922.66 1420.32 1923.6 1418.11C1923.66 1417.35 1923.66 1417.35 1924.47 1416.65C1925.35 1415.18 1925.47 1413.67 1926.4 1411.45C1927.45 1407.71 1928.44 1404.73 1929.5 1400.99C1929.61 1399.47 1929.73 1397.96 1930.55 1397.25C1930.66 1395.74 1930.72 1394.98 1930.84 1393.46C1930.9 1392.7 1930.95 1391.94 1931.01 1391.18C1937.19 1340.49 1913.11 1276.01 1878.28 1251.96C1875.41 1249.45 1871.73 1247.64 1868.81 1245.89C1865.89 1244.13 1862.97 1242.38 1860.04 1240.63C1857.82 1239.7 1855.66 1238 1854.2 1237.13C1851.98 1236.19 1850.52 1235.32 1848.3 1234.38C1841.7 1230.82 1835.03 1228.02 1829.13 1225.28C1826.21 1223.53 1823.23 1222.53 1820.25 1221.54C1814.35 1218.8 1808.39 1216.81 1802.43 1214.83C1800.97 1213.95 1799.45 1213.84 1797.99 1212.96C1787.53 1209.87 1777.83 1206.83 1770.35 1204.73C1768.13 1203.8 1766.61 1203.68 1764.39 1202.74C1762.93 1201.87 1760.65 1201.69 1759.19 1200.82C1757.67 1200.7 1756.21 1199.83 1754.75 1198.95C1753.99 1198.89 1753.23 1198.83 1753.29 1198.07C1752.53 1198.02 1751.83 1197.2 1751.07 1197.14C1749.61 1196.26 1748.85 1196.21 1748.15 1195.39C1746.68 1194.51 1745.98 1193.7 1745.28 1192.88L1744.58 1192.06C1741.43 1193.35 1740.67 1193.29 1740.72 1192.53Z" fill="white"/>
<path d="M831.71 1784.9L851.459 1786.42C851.459 1786.42 896.523 1856.32 953.151 1904.95C953.852 1905.77 954.612 1905.83 954.554 1906.59C1023.51 1963.81 1114.48 1943.3 1114.48 1943.3C1114.48 1943.3 1114.48 1943.3 1113.66 1944C1110.27 1948.32 1077.68 1984.77 1026.79 1980.87C1024.51 1980.69 1022.23 1980.52 1019.95 1980.34C995.762 1976.96 964.675 1963.88 935.399 1947.12C926.575 1942.63 918.57 1937.43 910.564 1932.24C880.001 1912.33 855.749 1889.85 849.318 1874.08C848.032 1870.92 846.804 1867.01 845.576 1863.1C839.378 1844.29 835.75 1821.87 833.117 1806.39C831.887 1792.55 831.71 1784.9 831.71 1784.9Z" fill="#0050D9"/>
<path d="M1051.54 1917.08C1051.54 1917.08 1105.23 1914.32 1116.09 1852.53C1127 1789.98 1074.4 1748.52 1037.42 1742.63C1000.43 1736.74 949.196 1767.17 952.649 1791.88C955.401 1815.76 1051.54 1917.08 1051.54 1917.08Z" fill="#0050D9"/>
<path d="M951.952 1791.06C934.782 1825.64 953.791 1906.52 1026.3 1917.43C1098.81 1928.34 1121.52 1851.42 1103.11 1802.66C1084.63 1754.65 978.991 1737.38 951.952 1791.06Z" fill="#00D7FF"/>
<path d="M931.651 1697.1C932.41 1697.16 932.352 1697.92 933.112 1697.98C935.274 1699.67 940.3 1703.87 945.209 1709.6C957.833 1724.31 972.854 1747.61 953.695 1768.29C928.753 1794.63 883.001 1783.49 869.562 1779.4C868.802 1779.34 868.043 1779.28 867.341 1778.47C866.582 1778.41 866.582 1778.41 865.88 1777.59L887.784 1751.01L931.651 1697.1Z" fill="#0050D9"/>
<path d="M931.654 1697.09C932.414 1697.15 932.355 1697.91 933.115 1697.97C935.219 1700.42 937.09 1705.91 938.786 1713.68C942.705 1732.31 943.472 1762.15 931.848 1774.24C920.224 1786.33 889.724 1785.52 870.325 1779.45C869.565 1779.39 868.806 1779.33 868.104 1778.51C867.345 1778.46 867.345 1778.46 866.643 1777.64C864.423 1776.7 862.904 1776.59 861.443 1775.71C856.301 1773.03 852.678 1770.46 852.911 1767.42C848.458 1715.91 916.169 1689.79 931.654 1697.09Z" fill="#00D7FF"/>
<path opacity="0.5" d="M948.652 1694.59C948.652 1694.59 948.652 1694.59 965.13 1698.9C976.349 1702.06 994.345 1706.49 1024.26 1714.9C1037.76 1718.22 1050.44 1722.25 1061.48 1727.68C1118.46 1751.91 1158.61 1796.23 1159.86 1889.5C1160.52 1980.43 1101.22 2006.43 1027.54 1980.92C1009.66 1974.96 990.551 1965.1 971.618 1952.95C961.45 1946.06 951.281 1939.17 941.931 1931.58C885.129 1885.22 852.103 1827.7 838.133 1800.66C833.515 1791.14 830.884 1785.6 830.884 1785.6L831.644 1785.65C833.864 1786.59 836.611 1790.62 840.644 1797.8C841.346 1798.62 841.989 1800.19 842.69 1801.01C843.333 1802.59 844.736 1804.22 845.379 1805.8C846.08 1806.62 846.723 1808.2 847.425 1809.01C848.068 1810.59 848.711 1812.17 850.172 1813.04C852.217 1816.25 853.504 1819.41 856.309 1822.68C856.952 1824.25 858.355 1825.89 858.998 1827.47C866.479 1839.5 876.065 1853.98 887.987 1867.88C889.39 1869.51 891.494 1871.96 892.897 1873.6C898.507 1880.14 904.176 1885.92 910.605 1891.76C912.767 1893.45 914.871 1895.9 917.033 1897.6C924.163 1904.25 932.11 1910.21 940.058 1916.17C942.278 1917.1 943.681 1918.73 945.901 1919.67C948.064 1921.36 950.284 1922.3 952.446 1923.99C959.751 1928.37 967.055 1932.75 974.418 1936.37C976.639 1937.3 978.801 1938.99 981.781 1939.99C990.663 1943.72 1000.3 1947.52 1010 1950.55C1013.74 1951.6 1017.48 1952.65 1020.46 1953.65C1024.2 1954.7 1027.94 1955.75 1031.68 1956.8C1033.96 1956.97 1035.42 1957.85 1037.7 1958.02C1041.44 1959.07 1045.24 1959.36 1049.04 1959.66C1054.35 1960.06 1058.91 1960.41 1064.23 1960.82C1065.75 1960.94 1067.27 1961.05 1068.84 1960.41C1069.6 1960.47 1070.36 1960.53 1071.12 1960.59C1073.4 1960.76 1075.74 1960.18 1078.02 1960.35C1078.78 1960.41 1080.35 1959.77 1081.11 1959.83C1082.69 1959.18 1084.97 1959.36 1086.55 1958.72C1087.31 1958.77 1088.88 1958.13 1089.64 1958.19C1091.22 1957.55 1091.98 1957.6 1093.56 1956.96C1094.37 1956.26 1095.89 1956.38 1096.71 1955.68C1101.44 1953.75 1105.47 1951 1109.51 1948.26C1110.32 1947.56 1111.08 1947.61 1111.14 1946.86C1112.72 1946.21 1113.59 1944.75 1114.41 1944.05C1114.41 1944.05 1114.41 1944.05 1115.23 1943.35C1116.05 1942.65 1116.87 1941.95 1117.74 1940.49C1118.56 1939.79 1119.38 1939.09 1120.25 1937.63C1121.89 1936.22 1122.82 1934 1124.52 1931.84C1125.39 1930.38 1127.09 1928.22 1127.96 1926.76C1128.02 1926 1128.02 1926 1128.78 1926.06C1129.72 1923.84 1130.59 1922.38 1131.53 1920.16C1131.58 1919.4 1131.58 1919.4 1132.4 1918.7C1133.28 1917.24 1133.39 1915.72 1134.33 1913.5C1135.38 1909.77 1136.37 1906.79 1137.42 1903.05C1137.54 1901.53 1137.66 1900.01 1138.47 1899.31C1138.59 1897.79 1138.65 1897.03 1138.77 1895.51C1138.82 1894.76 1138.88 1894 1138.94 1893.24C1145.12 1842.54 1121.03 1778.07 1086.2 1754.02C1083.34 1751.5 1079.66 1749.69 1076.74 1747.94C1073.82 1746.19 1070.89 1744.44 1067.97 1742.69C1065.75 1741.75 1063.59 1740.06 1062.13 1739.19C1059.91 1738.25 1058.45 1737.38 1056.23 1736.44C1049.62 1732.88 1042.96 1730.08 1037.06 1727.33C1034.14 1725.58 1031.16 1724.59 1028.18 1723.6C1022.28 1720.85 1016.32 1718.87 1010.36 1716.88C1008.9 1716.01 1007.38 1715.89 1005.92 1715.02C995.457 1711.92 985.757 1708.89 978.278 1706.79C976.057 1705.85 974.538 1705.74 972.318 1704.8C970.857 1703.93 968.578 1703.75 967.117 1702.88C965.598 1702.76 964.137 1701.88 962.676 1701.01C961.917 1700.95 961.157 1700.89 961.216 1700.13C960.456 1700.07 959.755 1699.26 958.995 1699.2C957.534 1698.32 956.775 1698.26 956.073 1697.45C954.612 1696.57 953.911 1695.75 953.21 1694.93L952.508 1694.12C949.354 1695.4 948.594 1695.34 948.652 1694.59Z" fill="white"/>
<path opacity="0.5" d="M1031.14 1351.9C1023.02 1353.06 1012.58 1353.06 999.824 1355.38C994.024 1356.54 987.065 1356.54 978.946 1357.7C894.274 1365.82 745.808 1384.39 619.38 1413.4C539.348 1431.97 468.595 1454.01 427.999 1481.86C395.522 1503.91 357.246 1543.37 316.65 1592.1C221.539 1704.66 117.149 1862.47 63.7939 1946.02C62.634 1948.34 61.4741 1950.66 60.3142 1951.82C51.0351 1966.91 44.0758 1978.51 38.2763 1986.64C15.0785 1979.67 1.15989 1971.55 0 1958.79C0 1957.63 5.79943 1948.34 15.0785 1934.42C20.878 1926.3 26.6774 1917.01 34.7967 1906.57C83.512 1838.11 173.983 1715.1 259.815 1615.31C312.01 1553.81 363.045 1501.59 400.162 1476.06C452.356 1441.25 564.866 1399.48 680.854 1363.5C795.683 1328.69 913.992 1299.68 981.266 1289.24C990.545 1288.08 999.824 1286.92 1006.78 1285.76C1020.7 1284.6 1029.98 1284.6 1033.46 1288.08C1039.26 1293.88 1036.94 1318.25 1031.14 1351.9Z" fill="white"/>
<path d="M0 0H1357.81V911.193C1357.81 1159.72 1156.34 1361.19 907.811 1361.19H0V0Z" fill="url(#paint2_linear)"/>
<path d="M88.9149 815.455C124.194 805.887 187.041 798.883 210.288 797.607C215.526 797.586 218.833 797.218 219.109 797.75C220.121 798.577 222.238 804.916 224.816 814.397C225.83 818.604 227.119 823.345 228.684 828.618C237.526 862.573 250.514 914.662 265.047 938.215C280.591 962.593 356.382 936.676 409.119 924.787C420.603 922.192 430.71 920.314 438.979 919.392C447.984 918.764 454.233 919.571 457.542 922.583C458.278 922.877 458.83 923.942 459.841 924.769C481.082 948.888 563.128 1084.76 576.394 1140.77C579.158 1152.86 579.255 1160.93 574.479 1164.09C574.019 1164.33 568.965 1163.57 561.246 1162.18C556.651 1161.19 551.596 1160.44 545.531 1158.86C506.841 1150.59 436.629 1134.37 376.706 1115.5C339.944 1104.19 307.133 1091.51 288.197 1079.72C261.998 1062.91 218.693 1019.84 176.856 973.968C135.754 928.393 96.1214 880.024 75.9805 851.273C73.3133 847.25 70.6461 843.227 68.5309 840.269C64.7597 834.115 62.5518 829.852 63.1017 827.537C64.0183 823.678 74.2154 819.723 88.9149 815.455Z" fill="#AAA49C"/>
<path opacity="0.5" d="M210.75 797.365C215.988 797.345 219.295 796.976 219.571 797.509C220.583 798.335 222.7 804.674 225.279 814.155C226.292 818.363 227.581 823.103 229.147 828.376C237.988 862.331 250.976 914.421 265.509 937.973C281.053 962.352 356.844 936.434 409.581 924.545C421.065 921.95 431.172 920.072 439.441 919.151C448.446 918.523 454.695 919.329 458.004 922.341C458.74 922.635 459.292 923.701 460.303 924.527C457.271 925.429 453.045 926.275 448.635 927.894C393.788 943.588 258.551 980.827 243.936 972.876C231.068 966.044 219.987 877.111 214.443 825.882C213.889 821.436 213.794 816.75 212.781 812.542C211.675 807.03 211.028 801.279 210.75 797.365Z" fill="white"/>
<path d="M554.946 92.9405C552.38 129.484 538.347 191.288 531.917 213.717C530.216 218.682 529.478 221.935 528.885 222.021C527.774 222.708 521.106 222.631 511.325 221.96C507.027 221.538 502.137 221.202 496.654 220.953C461.754 218.176 408.404 213.371 381.438 219.398C353.362 226.111 352.901 306.38 346.79 360.214C345.465 371.94 343.917 382.125 342.07 390.257C339.706 398.989 336.894 404.641 332.969 406.786C332.45 407.385 331.265 407.558 330.154 408.244C300.452 420.436 145.473 453.507 88.3433 447.68C76.0428 446.328 68.4094 443.771 66.9976 438.211C66.9232 437.697 69.2908 433.159 73.1387 426.308C75.5809 422.282 77.9486 417.744 81.4272 412.519C101.926 378.604 140.262 317.452 177.717 266.912C200.441 235.818 223.168 208.917 240.496 194.859C264.932 175.572 319.742 148.712 376.701 124.161C433.143 100.209 491.735 78.5645 525.44 68.9343C530.107 67.7299 534.774 66.5256 538.256 65.4939C545.293 63.944 550.035 63.253 552.036 64.5339C555.372 66.6687 555.75 77.6216 554.946 92.9405Z" fill="#AAA49C"/>
<path opacity="0.5" d="M531.987 214.227C530.287 219.192 529.548 222.445 528.956 222.531C527.845 223.217 521.176 223.141 511.395 222.47C507.098 222.048 502.207 221.712 496.724 221.463C461.825 218.686 408.474 213.881 381.509 219.908C353.432 226.621 352.972 306.89 346.861 360.724C345.536 372.45 343.987 382.635 342.141 390.767C339.776 399.499 336.965 405.151 333.039 407.295C332.521 407.895 331.336 408.068 330.225 408.754C330.371 405.588 330.96 401.308 330.883 396.602C334.102 339.519 343.41 199.251 355.701 188.024C366.363 178.083 453.807 196.79 503.902 208.36C508.274 209.296 512.721 210.744 517.018 211.166C522.576 211.929 528.208 213.205 531.987 214.227Z" fill="white"/>
<path d="M1290.44 209.196C1290.34 237.191 1280.67 286.176 1275.85 304.179C1274.51 308.212 1274 310.79 1273.43 310.956C1272.38 311.661 1265.83 312.731 1256.19 313.878C1251.95 314.286 1247.13 314.86 1241.73 315.599C1207.31 319.406 1154.65 324.802 1128.59 333.907C1101.49 343.717 1106.36 404.334 1103.93 445.969C1103.41 455.036 1102.57 462.98 1101.29 469.425C1099.55 476.411 1097.17 481.149 1093.46 483.43C1092.99 483.97 1091.84 484.3 1090.79 485.006C1062.46 499.223 912.606 550.369 856.171 555.634C844.014 556.693 836.355 556.056 834.602 552.101C834.494 551.726 836.517 547.903 839.838 542.085C841.967 538.636 843.989 534.813 847.056 530.284C864.92 501.239 898.478 448.637 931.875 404.187C952.109 376.894 972.623 352.762 988.692 339.23C1011.39 320.552 1063.38 291.028 1117.64 262.88C1171.42 235.273 1227.47 209.042 1259.9 196.08C1264.4 194.382 1268.9 192.685 1272.25 191.318C1279.05 188.959 1283.65 187.637 1285.7 188.264C1289.12 189.31 1290.21 197.507 1290.44 209.196Z" fill="#AAA49C"/>
<path opacity="0.5" d="M1275.95 304.56C1274.61 308.593 1274.1 311.171 1273.53 311.336C1272.48 312.042 1265.94 313.111 1256.3 314.259C1252.05 314.667 1247.23 315.241 1241.84 315.98C1207.41 319.787 1154.75 325.183 1128.7 334.288C1101.6 344.098 1106.46 404.715 1104.04 446.35C1103.51 455.417 1102.67 463.361 1101.4 469.806C1099.65 476.791 1097.27 481.529 1093.56 483.81C1093.09 484.35 1091.94 484.681 1090.9 485.386C1090.83 482.974 1091.13 479.646 1090.74 476.11C1090.11 432.514 1089.95 325.15 1101.27 314.605C1111.07 305.304 1198.1 304.629 1248.01 304.884C1252.36 304.851 1256.82 305.191 1261.06 304.783C1266.57 304.419 1272.18 304.429 1275.95 304.56Z" fill="white"/>
<path d="M1204.57 844.985C1209.34 872.568 1208.35 922.493 1206.73 941.063C1206.11 945.268 1206.06 947.895 1205.52 948.159C1204.62 949.036 1198.36 951.234 1189.06 954.05C1184.96 955.194 1180.31 956.602 1175.12 958.273C1141.89 968.041 1090.98 982.564 1066.91 996.085C1041.93 1010.48 1057.27 1069.32 1062.13 1110.74C1063.19 1119.76 1063.74 1127.73 1063.61 1134.3C1063.11 1141.48 1061.59 1146.56 1058.33 1149.46C1057.97 1150.07 1056.89 1150.6 1055.98 1151.48C1030.56 1170.43 891.905 1247 837.252 1262.05C825.465 1265.22 817.813 1265.93 815.398 1262.34C815.228 1261.99 816.553 1257.87 818.811 1251.57C820.307 1247.8 821.633 1243.68 823.864 1238.68C836.399 1206.96 860.288 1149.3 885.437 1099.69C900.61 1069.27 916.61 1041.93 930.076 1025.79C949.174 1003.43 995.231 965.267 1043.76 928.064C1091.91 891.474 1142.54 855.844 1172.21 837.41C1176.35 834.952 1180.48 832.494 1183.54 830.562C1189.83 827.05 1194.13 824.942 1196.26 825.202C1199.8 825.635 1202.31 833.514 1204.57 844.985Z" fill="#AAA49C"/>
<path opacity="0.5" d="M1206.9 941.417C1206.28 945.622 1206.23 948.249 1205.69 948.513C1204.78 949.39 1198.52 951.588 1189.23 954.404C1185.12 955.548 1180.47 956.956 1175.29 958.627C1142.06 968.395 1091.14 982.918 1067.07 996.439C1042.1 1010.84 1057.44 1069.67 1062.29 1111.09C1063.36 1120.11 1063.91 1128.08 1063.78 1134.65C1063.28 1141.84 1061.75 1146.92 1058.5 1149.81C1058.13 1150.43 1057.06 1150.95 1056.15 1151.83C1055.66 1149.47 1055.38 1146.14 1054.38 1142.72C1046.18 1099.91 1027.33 994.217 1036.64 981.855C1044.67 970.983 1130.24 955.099 1179.44 946.622C1183.72 945.828 1188.17 945.384 1192.27 944.24C1197.63 942.918 1203.16 941.947 1206.9 941.417Z" fill="white"/>
<path d="M268.643 653.237C262.576 622.066 296.352 575.493 318.773 567.768C322.991 566.573 327.027 566.343 329.733 567.86C349.641 578.663 366.384 640.382 353.921 664.014C344.665 681.254 328.779 688.726 312.43 688.106C292.619 687.325 273.261 673.626 268.643 653.237Z" fill="#7B756C"/>
<path opacity="0.5" d="M231.504 770.2C230.286 763.465 229.091 759.236 229.664 758.845C230.42 757.489 237.504 754.339 248.233 750.385C253.025 748.798 258.389 746.821 264.327 744.453C302.841 730.797 362.058 710.589 386.858 690.313C412.414 668.682 364.197 572.943 337.981 505.915C332.266 491.318 327.72 478.446 324.734 467.872C321.932 456.332 321.469 448.241 324.311 443.781C324.494 442.816 325.64 442.034 326.396 440.678C328.163 444.517 330.137 449.896 333.075 455.458C364.313 524.946 439.597 696.38 433.438 715.712C428.218 732.722 324.588 752.956 264.702 763.533C259.521 764.544 253.949 764.981 249.158 766.568C242.83 768.361 236.112 769.579 231.504 770.2Z" fill="#B6B1AB"/>
<path d="M764.306 246.597C758.239 215.427 792.015 168.854 814.437 161.129C818.655 159.933 822.69 159.703 825.397 161.22C845.304 172.023 862.047 233.743 849.585 257.374C840.329 274.615 824.443 282.086 808.094 281.466C788.283 280.686 768.924 266.986 764.306 246.597Z" fill="#7B756C"/>
<path opacity="0.5" d="M727.166 363.561C725.948 356.826 724.754 352.596 725.327 352.205C726.083 350.849 733.167 347.699 743.896 343.745C748.687 342.159 754.052 340.182 759.989 337.814C798.504 324.158 857.72 303.949 882.52 283.674C908.076 262.042 859.859 166.304 833.644 99.2749C827.928 84.6784 823.382 71.8059 820.397 61.2321C817.594 49.6928 817.132 41.6014 819.973 37.1418C820.156 36.1763 821.302 35.3947 822.058 34.0384C823.826 37.8771 825.8 43.256 828.737 48.8187C859.975 118.307 935.26 289.74 929.101 309.072C923.88 326.083 820.251 346.316 760.365 356.893C755.183 357.905 749.612 358.342 744.82 359.928C738.493 361.721 731.775 362.94 727.166 363.561Z" fill="#B6B1AB"/>
<path d="M207.144 1127.74C201.077 1096.57 234.853 1050 257.274 1042.28C261.492 1041.08 265.528 1040.85 268.234 1042.37C288.141 1053.17 304.885 1114.89 292.422 1138.52C283.166 1155.76 267.28 1163.23 250.931 1162.61C231.12 1161.83 211.762 1148.13 207.144 1127.74Z" fill="#7B756C"/>
<path opacity="0.5" d="M170.006 1244.71C168.788 1237.97 167.593 1233.74 168.167 1233.35C168.923 1232 176.006 1228.85 186.735 1224.89C191.527 1223.31 196.891 1221.33 202.829 1218.96C241.343 1205.31 300.56 1185.1 325.36 1164.82C350.916 1143.19 302.699 1047.45 276.484 980.422C270.768 965.826 266.222 952.953 263.236 942.38C260.434 930.84 259.972 922.749 262.813 918.289C262.996 917.324 264.142 916.542 264.898 915.186C266.665 919.025 268.639 924.403 271.577 929.966C302.815 999.454 378.099 1170.89 371.94 1190.22C366.72 1207.23 263.09 1227.46 203.204 1238.04C198.023 1239.05 192.451 1239.49 187.66 1241.08C181.332 1242.87 174.614 1244.09 170.006 1244.71Z" fill="#B6B1AB"/>
<path d="M1079.01 1112.56C1072.94 1081.39 1106.71 1034.82 1129.14 1027.09C1133.35 1025.9 1137.39 1025.67 1140.1 1027.18C1160 1037.99 1176.75 1099.71 1164.28 1123.34C1155.03 1140.58 1139.14 1148.05 1122.79 1147.43C1102.98 1146.65 1083.62 1132.95 1079.01 1112.56Z" fill="#7B756C"/>
<path opacity="0.5" d="M1041.87 1229.52C1040.65 1222.79 1039.45 1218.56 1040.03 1218.17C1040.78 1216.81 1047.87 1213.66 1058.6 1209.71C1063.39 1208.12 1068.75 1206.14 1074.69 1203.78C1113.2 1190.12 1172.42 1169.91 1197.22 1149.64C1222.78 1128 1174.56 1032.27 1148.34 965.238C1142.63 950.641 1138.08 937.769 1135.1 927.195C1132.29 915.656 1131.83 907.564 1134.67 903.105C1134.86 902.139 1136 901.358 1136.76 900.001C1138.53 903.84 1140.5 909.219 1143.44 914.782C1174.68 984.27 1249.96 1155.7 1243.8 1175.04C1238.58 1192.05 1134.95 1212.28 1075.06 1222.86C1069.88 1223.87 1064.31 1224.3 1059.52 1225.89C1053.19 1227.68 1046.48 1228.9 1041.87 1229.52Z" fill="#B6B1AB"/>
<path d="M1179.38 691.499C1147.96 695.587 1103.74 658.838 1097.48 635.918C1096.55 631.622 1096.58 627.571 1098.26 624.96C1110.29 605.733 1172.8 592.908 1195.53 606.877C1212.11 617.232 1218.54 633.599 1216.88 649.914C1214.85 669.682 1199.98 688.176 1179.38 691.499Z" fill="#7B756C"/>
<path opacity="0.5" d="M1293.47 736.075C1286.69 736.866 1282.4 737.791 1282.05 737.193C1280.75 736.351 1278.06 729.064 1274.81 718.08C1273.53 713.186 1271.91 707.694 1269.93 701.604C1258.78 662.209 1242.42 601.687 1223.81 575.59C1203.9 548.65 1105.52 590.797 1037.11 612.759C1022.22 617.549 1009.11 621.278 998.395 623.593C986.728 625.662 978.643 625.61 974.383 622.485C973.433 622.24 972.728 621.044 971.426 620.202C975.36 618.678 980.841 617.045 986.566 614.46C1057.74 587.629 1233.2 523.218 1252.06 530.609C1268.67 536.912 1282.22 641.863 1288.94 702.442C1289.62 707.689 1289.7 713.291 1290.98 718.184C1292.36 724.628 1293.15 731.426 1293.47 736.075Z" fill="#B6B1AB"/>
<path d="M710.674 890.622C679.254 894.71 635.032 857.961 628.767 835.041C627.845 830.745 627.872 826.694 629.555 824.083C641.576 804.856 704.089 792.031 726.825 806C743.402 816.355 749.83 832.722 748.174 849.037C746.137 868.805 731.267 887.299 710.674 890.622Z" fill="#7B756C"/>
<path opacity="0.5" d="M824.763 935.198C817.98 935.989 813.693 936.914 813.34 936.316C812.038 935.474 809.353 928.187 806.098 917.203C804.823 912.31 803.196 906.818 801.216 900.727C790.068 861.332 773.713 800.81 755.103 774.713C735.19 747.773 636.806 789.92 568.404 811.882C553.508 816.672 540.403 820.401 529.685 822.716C518.018 824.785 509.933 824.733 505.673 821.608C504.724 821.363 504.019 820.167 502.716 819.325C506.651 817.801 512.131 816.168 517.856 813.583C589.026 786.752 764.495 722.341 783.351 729.732C799.955 736.035 813.512 840.986 820.235 901.565C820.913 906.812 820.994 912.414 822.269 917.308C823.652 923.751 824.438 930.549 824.763 935.198Z" fill="#B6B1AB"/>
<path d="M0 0H683.964V234C683.964 482.528 482.492 684 233.964 684H0V0Z" fill="url(#paint3_linear)"/>
<path opacity="0.5" d="M621 255.282C621 452.074 446.495 611 231.817 611C151.469 611 76.1437 588.624 14 550.184C14 550.184 24.0434 509.448 78.6546 483.63C132.638 457.812 71.122 413.06 55.4292 390.684C40.364 368.308 71.122 341.916 115.69 372.324C160.257 402.733 111.923 301.755 167.79 245.528C223.657 189.302 258.181 310.361 281.406 332.736C304.632 355.112 363.637 398.716 412.599 352.244C461.561 305.771 429.547 117.01 463.444 63.6527C491.063 19.4748 507.384 10.295 511.778 8.57374C513.033 8 513.033 8 513.033 8L526.215 23.491L526.843 24.0647L544.419 44.1456C592.753 103.241 621 176.106 621 255.282Z" fill="url(#paint4_linear)"/>
<path d="M108.485 495.708C105.742 495.021 104.714 493.306 103.618 490.699C98.2741 479.45 114.673 459.363 141.425 445.659C168.176 431.955 194.031 429.979 200.266 441.16C201.362 443.767 201.567 446.441 200.88 449.184C198.132 460.156 183.175 475.648 162.459 486.2C139.961 496.888 118.7 500.308 108.485 495.708Z" fill="#D23C00"/>
<path d="M108.487 495.708C111.235 484.737 126.26 470.136 146.907 458.693C168.446 447.181 189.706 443.762 199.99 449.253C197.242 460.225 182.285 475.717 161.57 486.269C139.963 496.889 118.703 500.308 108.487 495.708Z" fill="#8C0000"/>
<path opacity="0.5" d="M639.129 378.308C629.935 513.58 498.457 614.391 345.844 604.018C288.726 600.135 236.223 581.115 193.841 551.688C193.841 551.688 202.884 524.173 242.913 509.064C282.495 493.926 240.855 460.192 230.744 444.053C221.08 427.944 244.179 411.289 274.441 434.345C304.703 457.4 275.06 385.654 317.402 349.704C359.744 313.755 378.631 398.637 394.096 415.14C409.562 431.643 449.471 464.467 486.448 434.888C523.426 405.309 509.486 274.012 536.076 238.972C557.774 209.94 569.805 204.418 573.009 203.447C573.929 203.114 573.929 203.114 573.929 203.114L582.576 214.399L582.995 214.824L594.552 229.476C626.151 272.433 642.828 323.884 639.129 378.308Z" fill="url(#paint5_linear)"/>
<path d="M140.686 638.49C137.875 638.185 136.622 636.627 135.18 634.195C128.347 623.783 141.843 601.64 166.467 584.404C191.091 567.167 216.432 561.67 224.139 571.893C225.581 574.325 226.15 576.946 225.844 579.758C224.624 591.002 211.928 608.396 192.852 621.684C172.028 635.351 151.436 641.648 140.686 638.49Z" fill="#D23C00"/>
<path d="M140.688 638.491C141.909 627.247 154.795 610.727 173.681 596.565C193.441 582.213 214.034 575.916 224.973 579.948C223.752 591.193 211.056 608.587 191.98 621.875C172.03 635.352 151.438 641.649 140.688 638.491Z" fill="#8C0000"/>
<path d="M516.975 91.1331C514.984 89.1252 514.993 87.1258 515.404 84.3282C516.656 71.9368 541.085 63.242 571.067 65.3678C601.048 67.4936 624.192 79.1881 623.738 91.9828C623.326 94.7804 622.117 97.1746 620.109 99.1657C612.078 107.13 591.261 112.641 568.076 110.943C543.294 108.439 523.334 100.357 516.975 91.1331Z" fill="#D23C00"/>
<path d="M516.977 91.1354C525.008 83.1713 545.421 78.4586 569.01 79.3578C593.397 80.6602 613.356 88.7423 619.312 98.7647C611.281 106.729 590.465 112.24 567.279 110.542C543.295 108.442 523.336 100.36 516.977 91.1354Z" fill="#8C0000"/>
<path d="M75.2287 223.691C71.4544 221.117 69.5846 218.183 68.3496 215.129C62.2089 196.564 93.1613 169.011 137.667 154.019C182.172 139.026 223.45 141.74 230.226 160.185C231.581 163.874 231.152 168.558 229.333 172.847C222.692 189.884 196.132 209.373 160.909 221.295C124.416 233.457 89.6909 234.106 75.2287 223.691Z" fill="#D23C00"/>
<path d="M75.2286 223.689C81.8694 206.652 108.429 187.163 143.653 175.242C180.145 163.08 214.236 162.55 228.578 172.331C221.937 189.368 195.377 208.857 160.154 220.779C124.416 233.455 89.6908 234.105 75.2286 223.689Z" fill="#8C0000"/>
<path d="M368.305 538.962C365.532 535.331 364.68 531.958 364.469 528.67C364.481 509.116 402.53 492.702 449.491 492.475C496.453 492.248 534.781 507.812 535.41 527.452C535.535 531.38 533.654 535.691 530.578 539.19C518.915 553.272 487.572 563.414 450.387 563.647C411.921 563.709 378.755 553.399 368.305 538.962Z" fill="#D23C00"/>
<path d="M368.305 538.96C379.968 524.878 411.311 514.736 448.496 514.503C486.962 514.441 519.487 524.665 530.024 538.462C518.36 552.544 487.018 562.686 449.832 562.919C411.921 563.707 378.755 553.397 368.305 538.96Z" fill="#8C0000"/>
<path d="M375.339 259.773C373.062 255.46 372.761 251.757 373.12 248.259C376.591 227.674 419.553 217.122 469.036 225.189C518.519 233.255 556.119 256.421 553.307 277.21C552.745 281.367 550.002 285.573 546.145 288.713C531.375 301.476 496.583 306.611 457.392 300.279C416.883 293.541 383.788 276.821 375.339 259.773Z" fill="#D23C00"/>
<path d="M375.339 259.77C390.109 247.007 424.901 241.873 464.092 248.204C504.601 254.942 537.036 271.459 545.69 287.848C530.919 300.611 496.128 305.746 456.937 299.415C416.883 293.539 383.789 276.819 375.339 259.77Z" fill="#8C0000"/>
<defs>
<linearGradient id="paint0_linear" x1="1368" y1="0" x2="1368" y2="2736" gradientUnits="userSpaceOnUse">
<stop offset="0.395833" stop-color="#00AA59"/>
<stop offset="1" stop-color="#00540F"/>
</linearGradient>
<linearGradient id="paint1_linear" x1="1026" y1="0" x2="1026" y2="2052" gradientUnits="userSpaceOnUse">
<stop stop-color="#11B0E8"/>
<stop offset="0.484375" stop-color="#10A7E2"/>
<stop offset="1" stop-color="#044FAA"/>
</linearGradient>
<linearGradient id="paint2_linear" x1="678.906" y1="-39.985" x2="678.906" y2="1361.19" gradientUnits="userSpaceOnUse">
<stop stop-color="#EEEDEB"/>
<stop offset="0.500012" stop-color="#A09A91"/>
<stop offset="1" stop-color="#757068"/>
</linearGradient>
<linearGradient id="paint3_linear" x1="341.982" y1="0" x2="341.982" y2="684" gradientUnits="userSpaceOnUse">
<stop offset="0.0208333" stop-color="#C32000"/>
<stop offset="0.400163" stop-color="#FAA200"/>
<stop offset="0.536458" stop-color="#E26900"/>
<stop offset="1" stop-color="#BD1B00"/>
</linearGradient>
<linearGradient id="paint4_linear" x1="317.5" y1="8" x2="317.5" y2="611" gradientUnits="userSpaceOnUse">
<stop stop-color="#C60000"/>
<stop offset="1" stop-color="#941B1B"/>
</linearGradient>
<linearGradient id="paint5_linear" x1="434.926" y1="193.665" x2="406.752" y2="608.158" gradientUnits="userSpaceOnUse">
<stop stop-color="#FFA500"/>
<stop offset="1" stop-color="#FAA000"/>
</linearGradient>
</defs>
</svg>
