<svg width="1600" height="1600" viewBox="0 0 1600 1600" fill="none" xmlns="http://www.w3.org/2000/svg">
<rect width="1600" height="1600" fill="url(#paint0_linear)"/>
<path d="M1343.96 1395.6C1327.68 1433.6 1257.14 1458.94 1227.29 1450.79C1221.87 1448.99 1217.34 1446.27 1215.54 1442.65C1201.97 1416.41 1229.1 1337.7 1259.85 1321.41C1282.46 1309.65 1305.07 1313.27 1322.25 1325.93C1343.06 1341.32 1353.91 1370.27 1343.96 1395.6Z" fill="#00D7FF"/>
<path opacity="0.5" d="M1469.67 1296.98C1466.05 1305.12 1464.24 1310.55 1463.34 1310.55C1461.53 1311.46 1451.58 1309.65 1437.11 1306.03C1430.78 1304.22 1423.55 1302.41 1415.41 1300.6C1363.86 1287.03 1285.17 1265.31 1243.57 1268.93C1200.16 1273.45 1182.07 1411.89 1161.27 1503.27C1156.75 1523.18 1152.23 1540.37 1147.71 1553.94C1142.28 1568.42 1136.85 1577.46 1130.52 1580.18C1129.62 1581.08 1127.81 1581.08 1126 1581.99C1126.9 1576.56 1128.71 1569.32 1129.62 1561.18C1146.8 1463.46 1191.12 1223.69 1211.92 1207.4C1230.01 1192.93 1356.62 1247.21 1428.97 1279.79C1435.3 1282.5 1441.63 1286.12 1447.97 1287.93C1456.1 1290.64 1464.24 1294.26 1469.67 1296.98Z" fill="white"/>
<path d="M760.78 318.706C752.863 278.13 796.936 217.502 826.193 207.447C831.697 205.89 836.963 205.591 840.494 207.566C866.47 221.629 888.317 301.973 872.055 332.735C859.978 355.179 839.249 364.905 817.916 364.098C792.066 363.082 766.806 345.248 760.78 318.706Z" fill="#00D7FF"/>
<path opacity="0.5" d="M712.322 470.961C710.732 462.194 709.174 456.688 709.921 456.179C710.908 454.414 720.151 450.314 734.151 445.166C740.403 443.101 747.403 440.527 755.15 437.445C805.406 419.668 882.675 393.361 915.035 366.967C948.382 338.807 885.466 214.178 851.259 126.922C843.8 107.921 837.869 91.1638 833.973 77.3991C830.316 62.3776 829.713 51.8445 833.421 46.0391C833.659 44.7823 835.155 43.7647 836.141 41.9992C838.447 46.9963 841.023 53.9984 844.856 61.2398C885.617 151.697 983.852 374.864 975.815 400.03C969.004 422.174 833.782 448.513 755.64 462.281C748.879 463.598 741.609 464.167 735.357 466.232C727.1 468.567 718.335 470.153 712.322 470.961Z" fill="white"/>
<path d="M922.917 1093.11C909.421 1155.53 869.971 1258.66 853.361 1295.75C849.208 1303.89 847.132 1309.32 846.094 1309.32C844.017 1310.23 832.598 1308.42 815.987 1304.8C808.72 1302.99 800.415 1301.18 791.072 1299.37C731.897 1285.8 641.578 1264.09 593.823 1267.71C543.992 1272.23 523.229 1410.64 499.351 1502.01C494.16 1521.92 488.969 1539.1 483.779 1552.67C477.55 1567.15 471.321 1576.2 464.054 1578.91C463.016 1579.81 460.939 1579.81 458.863 1580.72C404.879 1594.29 130.807 1612.38 34.259 1587.96C13.496 1582.53 1.03815 1576.2 0 1566.24C0 1565.34 5.19075 1558.1 13.496 1547.25C18.6867 1540.91 23.8775 1533.68 31.1446 1525.53C74.7469 1472.16 155.723 1376.27 232.546 1298.46C279.263 1250.52 324.942 1209.81 358.162 1189.91C404.879 1162.77 505.58 1130.2 609.395 1102.15C712.172 1075.01 818.064 1052.4 878.276 1044.26C886.582 1043.35 894.887 1042.45 901.116 1041.54C913.574 1040.64 921.879 1040.64 924.993 1043.35C930.184 1047.87 928.108 1066.87 922.917 1093.11Z" fill="#00D7FF"/>
<path opacity="0.5" d="M852.711 1296.69C848.523 1304.83 846.428 1310.26 845.381 1310.26C843.287 1311.17 831.769 1309.36 815.015 1305.74C807.686 1303.93 799.309 1302.12 789.885 1300.31C730.2 1286.74 639.102 1265.02 590.936 1268.64C540.675 1273.17 519.733 1411.6 495.649 1502.98C490.414 1522.89 485.178 1540.08 479.943 1553.65C473.66 1568.13 467.378 1577.18 460.048 1579.89C459.001 1580.8 456.907 1580.8 454.812 1581.7C455.86 1576.27 457.954 1569.03 459.001 1560.89C478.896 1463.17 530.204 1223.4 554.287 1207.12C575.229 1192.64 721.823 1246.93 805.591 1279.5C812.921 1282.21 820.251 1285.83 827.581 1287.64C837.005 1290.36 846.428 1293.98 852.711 1296.69Z" fill="white"/>
<path d="M1561.41 682.564C1515.61 672.7 1439.92 643.719 1412.69 631.505C1406.71 628.449 1402.73 626.924 1402.72 626.156C1402.06 624.623 1403.36 616.175 1405.98 603.885C1407.3 598.508 1408.61 592.363 1409.92 585.451C1419.76 541.668 1435.51 474.84 1432.77 439.533C1429.36 402.693 1327.83 387.596 1260.78 370.109C1246.18 366.307 1233.57 362.501 1223.61 358.687C1212.98 354.108 1206.34 349.519 1204.33 344.15C1203.67 343.384 1203.66 341.849 1203 340.315C1192.94 300.421 1179.17 97.7869 1196.9 26.3474C1200.84 10.9838 1205.46 1.75987 1212.75 0.973746C1213.41 0.972069 1218.73 4.79704 1226.71 10.9184C1231.36 14.745 1236.68 18.57 1242.66 23.9287C1281.88 56.0723 1352.35 115.774 1409.54 172.438C1444.78 206.894 1474.72 240.597 1489.37 265.126C1509.36 299.621 1533.43 374.025 1554.19 450.741C1574.28 526.691 1591.06 604.953 1597.14 649.463C1597.82 655.603 1598.5 661.743 1599.18 666.347C1599.86 675.557 1599.88 681.699 1597.89 684.007C1594.59 687.854 1580.65 686.354 1561.41 682.564Z" fill="#00D7FF"/>
<path opacity="0.5" d="M1412.02 631.502C1406.05 628.446 1402.06 626.921 1402.06 626.153C1401.39 624.62 1402.7 616.172 1405.32 603.882C1406.63 598.505 1407.95 592.36 1409.25 585.448C1419.09 541.665 1434.85 474.837 1432.1 439.53C1428.69 402.69 1327.16 387.593 1260.12 370.106C1245.52 366.304 1232.9 362.498 1222.94 358.684C1212.32 354.105 1205.67 349.516 1203.67 344.147C1203 343.381 1203 341.846 1202.33 340.312C1206.32 341.07 1211.63 342.592 1217.6 343.344C1289.28 357.749 1465.16 394.921 1477.14 412.547C1487.79 427.874 1448.27 535.45 1424.54 596.925C1422.56 602.303 1419.92 607.684 1418.61 613.061C1416.64 619.975 1414 626.891 1412.02 631.502Z" fill="white"/>
<path d="M1149.2 606.916V630.441C1149.2 630.441 1070.51 690.157 1018.06 761.635C1017.15 762.54 1017.15 763.445 1016.25 763.445C954.75 850.305 987.309 956.165 987.309 956.165C987.309 956.165 987.309 956.165 986.404 955.261C980.978 951.642 934.854 916.355 934.854 855.734C934.854 853.019 934.854 850.305 934.854 847.591C936.662 818.637 949.324 780.636 966.507 744.444C971.029 733.587 976.456 723.634 981.882 713.681C1002.68 675.68 1027.1 644.917 1045.19 635.869C1048.81 634.06 1053.33 632.25 1057.85 630.441C1079.56 621.393 1105.78 615.059 1123.87 610.535C1140.15 607.821 1149.2 606.916 1149.2 606.916Z" fill="#0050D9"/>
<path d="M1012.64 879.247C1012.64 879.247 1020.78 942.583 1094.94 949.821C1170.01 957.059 1214.32 891.01 1217.94 846.675C1221.56 802.34 1180.86 744.434 1151.92 750.767C1123.89 756.196 1012.64 879.247 1012.64 879.247Z" fill="#0050D9"/>
<path d="M1152.82 749.867C1110.32 732.676 1016.26 762.534 1009.93 849.394C1003.6 936.254 1096.75 956.159 1152.82 929.92C1207.99 903.681 1218.84 777.011 1152.82 749.867Z" fill="#00D7FF"/>
<path d="M1262.25 717.289C1262.25 718.193 1261.34 718.193 1261.34 719.098C1259.53 721.813 1255.01 728.146 1248.68 734.48C1232.4 750.766 1206.17 770.671 1179.95 749.861C1146.48 722.717 1155.53 667.525 1159.15 651.239C1159.15 650.334 1159.15 649.429 1160.05 648.524C1160.05 647.62 1160.05 647.62 1160.95 646.715L1194.42 670.239L1262.25 717.289Z" fill="#0050D9"/>
<path d="M1262.26 717.292C1262.26 718.197 1261.35 718.197 1261.35 719.102C1258.64 721.816 1252.31 724.53 1243.26 727.245C1221.56 733.578 1186.29 737.197 1170.91 724.53C1155.54 711.863 1153.73 675.672 1159.16 652.147C1159.16 651.242 1159.16 650.337 1160.06 649.433C1160.06 648.528 1160.06 648.528 1160.96 647.623C1161.87 644.909 1161.87 643.099 1162.77 641.289C1165.49 634.956 1168.2 630.432 1171.82 630.432C1232.41 620.479 1269.49 698.291 1262.26 717.292Z" fill="#00D7FF"/>
<path opacity="0.5" d="M1266.77 737.195C1266.77 737.195 1266.77 737.195 1263.16 757.1C1260.44 770.672 1256.83 792.387 1249.59 828.579C1246.88 844.865 1243.26 860.246 1237.83 873.818C1214.32 943.487 1165.48 995.06 1055.14 1005.01C947.522 1014.06 911.346 946.202 934.86 856.627C940.286 834.912 950.235 811.388 962.896 787.863C970.132 775.196 977.367 762.529 985.506 750.767C1035.25 679.288 1100.36 634.953 1131.11 615.953C1141.97 609.619 1148.3 606 1148.3 606V606.905C1147.39 609.619 1142.87 613.238 1134.73 618.667C1133.83 619.572 1132.02 620.477 1131.11 621.381C1129.31 622.286 1127.5 624.096 1125.69 625.001C1124.78 625.905 1122.97 626.81 1122.07 627.715C1120.26 628.62 1118.45 629.525 1117.55 631.334C1113.93 634.049 1110.31 635.858 1106.7 639.477C1104.89 640.382 1103.08 642.192 1101.27 643.096C1087.7 653.049 1071.42 665.716 1056.05 681.098C1054.24 682.907 1051.53 685.622 1049.72 687.431C1042.48 694.67 1036.15 701.908 1029.82 710.051C1028.01 712.765 1025.3 715.48 1023.49 718.194C1016.26 727.242 1009.93 737.195 1003.59 747.147C1002.69 749.862 1000.88 751.671 999.977 754.386C998.168 757.1 997.263 759.815 995.455 762.529C990.933 771.577 986.411 780.625 982.793 789.673C981.889 792.387 980.08 795.101 979.175 798.721C975.558 809.578 971.94 821.34 969.227 833.103C968.323 837.627 967.418 842.151 966.514 845.77C965.61 850.294 964.705 854.818 963.801 859.342C963.801 862.056 962.896 863.866 962.896 866.58C961.992 871.104 961.992 875.628 961.992 880.152C961.992 886.485 961.992 891.914 961.992 898.248C961.992 900.057 961.992 901.867 962.896 903.676C962.896 904.581 962.896 905.486 962.896 906.391C962.896 909.105 963.801 911.82 963.801 914.534C963.801 915.439 964.705 917.248 964.705 918.153C965.61 919.963 965.61 922.677 966.514 924.487C966.514 925.391 967.418 927.201 967.418 928.106C968.323 929.915 968.323 930.82 969.227 932.63C970.132 933.535 970.132 935.344 971.036 936.249C973.749 941.678 977.367 946.202 980.984 950.726C981.889 951.63 981.889 952.535 982.793 952.535C983.697 954.345 985.506 955.25 986.411 956.154C986.411 956.154 986.411 956.154 987.315 957.059C988.219 957.964 989.124 958.869 990.933 959.774C991.837 960.678 992.741 961.583 994.55 962.488C996.359 964.297 999.072 965.202 1001.79 967.012C1003.59 967.917 1006.31 969.726 1008.12 970.631C1009.02 970.631 1009.02 970.631 1009.02 971.536C1011.73 972.441 1013.54 973.345 1016.26 974.25C1017.16 974.25 1017.16 974.25 1018.06 975.155C1019.87 976.06 1021.68 976.06 1024.4 976.964C1028.92 977.869 1032.53 978.774 1037.06 979.679C1038.87 979.679 1040.67 979.679 1041.58 980.584C1043.39 980.584 1044.29 980.584 1046.1 980.584C1047.01 980.584 1047.91 980.584 1048.81 980.584C1109.41 983.298 1183.57 948.916 1208.89 905.486C1211.61 901.867 1213.41 897.343 1215.22 893.724C1217.03 890.105 1218.84 886.485 1220.65 882.866C1221.55 880.152 1223.36 877.437 1224.27 875.628C1225.17 872.913 1226.08 871.104 1226.98 868.39C1230.6 860.246 1233.31 852.103 1236.02 844.865C1237.83 841.246 1238.74 837.627 1239.64 834.007C1242.35 826.769 1244.16 819.531 1245.97 812.292C1246.88 810.483 1246.88 808.673 1247.78 806.864C1250.49 794.197 1253.21 782.434 1255.02 773.386C1255.92 770.672 1255.92 768.862 1256.83 766.148C1257.73 764.339 1257.73 761.624 1258.63 759.815C1258.63 758.005 1259.54 756.195 1260.44 754.386C1260.44 753.481 1260.44 752.576 1261.35 752.576C1261.35 751.671 1262.25 750.767 1262.25 749.862C1263.16 748.052 1263.16 747.147 1264.06 746.243C1264.96 744.433 1265.87 743.528 1266.77 742.624L1267.68 741.719C1265.87 738.1 1265.87 737.195 1266.77 737.195Z" fill="white"/>
<path d="M81.707 814.602L97.1057 815.783C97.1057 815.783 132.244 870.286 176.398 908.212C176.945 908.849 177.537 908.895 177.492 909.487C231.26 954.105 302.19 938.109 302.19 938.109C302.19 938.109 302.19 938.109 301.552 938.655C298.91 942.025 273.496 970.445 233.815 967.401C232.038 967.265 230.261 967.129 228.484 966.992C209.623 964.354 185.384 954.158 162.556 941.093C155.676 937.587 149.434 933.535 143.192 929.484C119.361 913.959 100.451 896.431 95.4364 884.136C94.4336 881.677 93.4761 878.626 92.5187 875.576C87.6861 860.913 84.8574 843.427 82.8044 831.36C81.8451 820.568 81.707 814.602 81.707 814.602Z" fill="#0050D9"/>
<path d="M253.113 917.661C253.113 917.661 294.98 915.514 303.442 867.333C311.95 818.561 270.94 786.236 242.101 781.642C213.262 777.047 173.314 800.779 176.006 820.042C178.152 838.666 253.113 917.661 253.113 917.661Z" fill="#0050D9"/>
<path d="M175.463 819.405C162.075 846.366 176.897 909.433 233.436 917.939C289.975 926.445 307.682 866.468 293.322 828.447C278.917 791.017 196.546 777.552 175.463 819.405Z" fill="#00D7FF"/>
<path d="M159.633 746.142C160.225 746.187 160.18 746.779 160.772 746.824C162.458 748.145 166.377 751.423 170.205 755.885C180.048 767.359 191.761 785.526 176.822 801.649C157.373 822.19 121.7 813.499 111.221 810.313C110.628 810.267 110.036 810.222 109.489 809.584C108.897 809.539 108.897 809.539 108.35 808.902L125.429 788.179L159.633 746.142Z" fill="#0050D9"/>
<path d="M159.636 746.136C160.228 746.182 160.182 746.774 160.775 746.819C162.415 748.732 163.874 753.012 165.197 759.068C168.253 773.594 168.85 796.864 159.787 806.292C150.723 815.72 126.942 815.086 111.816 810.353C111.223 810.308 110.631 810.262 110.084 809.625C109.492 809.579 109.492 809.579 108.945 808.942C107.214 808.214 106.029 808.123 104.89 807.44C100.881 805.346 98.0555 803.343 98.2371 800.975C94.7651 760.811 147.562 740.446 159.636 746.136Z" fill="#00D7FF"/>
<path opacity="0.5" d="M172.89 744.179C172.89 744.179 172.89 744.179 185.738 747.547C194.486 750.004 208.518 753.463 231.845 760.016C242.37 762.61 252.256 765.751 260.868 769.984C305.291 788.875 336.597 823.433 337.571 896.156C338.089 967.059 291.853 987.331 234.4 967.441C220.459 962.799 205.559 955.105 190.797 945.636C182.868 940.264 174.94 934.892 167.649 928.973C123.359 892.823 97.6079 847.973 86.7146 826.891C83.1138 819.469 81.0627 815.143 81.0627 815.143L81.655 815.189C83.3863 815.917 85.5283 819.059 88.6731 824.659C89.2199 825.297 89.7214 826.526 90.2682 827.164C90.7696 828.393 91.8633 829.668 92.3647 830.897C92.9116 831.535 93.413 832.764 93.9599 833.402C94.4613 834.631 94.9627 835.86 96.1018 836.543C97.6969 839.048 98.6998 841.507 100.887 844.056C101.389 845.286 102.482 846.561 102.984 847.79C108.817 857.17 116.291 868.462 125.588 879.298C126.681 880.573 128.322 882.486 129.416 883.76C133.79 888.86 138.211 893.367 143.223 897.92C144.909 899.241 146.549 901.153 148.235 902.473C153.795 907.664 159.992 912.307 166.189 916.951C167.92 917.679 169.014 918.954 170.745 919.683C172.431 921.003 174.162 921.731 175.848 923.052C181.544 926.466 187.239 929.88 192.98 932.703C194.712 933.431 196.397 934.751 198.721 935.525C205.647 938.438 213.164 941.397 220.727 943.764C223.643 944.583 226.559 945.402 228.883 946.176C231.799 946.995 234.715 947.814 237.63 948.633C239.407 948.77 240.546 949.452 242.323 949.589C245.239 950.408 248.2 950.635 251.162 950.862C255.307 951.18 258.861 951.453 263.007 951.771C264.191 951.862 265.376 951.953 266.606 951.452C267.198 951.497 267.79 951.543 268.382 951.588C270.159 951.724 271.981 951.269 273.758 951.405C274.35 951.45 275.58 950.949 276.173 950.995C277.403 950.493 279.179 950.63 280.409 950.129C281.002 950.174 282.232 949.673 282.824 949.718C284.054 949.217 284.646 949.263 285.876 948.762C286.514 948.215 287.698 948.306 288.336 947.759C292.026 946.256 295.169 944.115 298.312 941.974C298.949 941.428 299.541 941.473 299.587 940.881C300.817 940.38 301.5 939.241 302.138 938.695C302.138 938.695 302.138 938.695 302.775 938.148C303.413 937.602 304.051 937.055 304.734 935.917C305.371 935.37 306.009 934.824 306.692 933.685C307.967 932.592 308.696 930.861 310.017 929.176C310.7 928.038 312.021 926.352 312.704 925.214C312.749 924.622 312.749 924.622 313.341 924.667C314.07 922.937 314.753 921.798 315.481 920.068C315.527 919.476 315.527 919.476 316.165 918.929C316.848 917.79 316.938 916.607 317.667 914.876C318.486 911.961 319.26 909.639 320.08 906.724C320.17 905.54 320.261 904.356 320.899 903.81C320.99 902.626 321.035 902.034 321.126 900.85C321.171 900.258 321.217 899.666 321.262 899.074C326.082 859.546 307.3 809.275 280.143 790.518C277.911 788.561 275.04 787.149 272.762 785.784C270.484 784.418 268.206 783.052 265.927 781.686C264.196 780.958 262.51 779.638 261.371 778.955C259.64 778.227 258.5 777.544 256.769 776.816C251.62 774.039 246.426 771.854 241.825 769.714C239.546 768.348 237.223 767.575 234.899 766.801C230.297 764.661 225.65 763.114 221.003 761.566C219.864 760.884 218.679 760.793 217.54 760.11C209.385 757.698 201.822 755.331 195.99 753.693C194.258 752.964 193.074 752.874 191.343 752.145C190.203 751.462 188.427 751.326 187.288 750.643C186.103 750.552 184.964 749.869 183.825 749.187C183.233 749.141 182.64 749.096 182.686 748.504C182.093 748.458 181.547 747.821 180.954 747.775C179.815 747.092 179.223 747.047 178.676 746.41C177.537 745.727 176.99 745.089 176.443 744.452L175.897 743.814C173.437 744.817 172.844 744.771 172.89 744.179Z" fill="white"/>
<path d="M144.707 157.602L160.106 158.783C160.106 158.783 195.244 213.286 239.398 251.212C239.945 251.849 240.537 251.895 240.492 252.487C294.26 297.105 365.19 281.109 365.19 281.109C365.19 281.109 365.19 281.109 364.552 281.655C361.91 285.025 336.496 313.445 296.815 310.401C295.038 310.265 293.261 310.129 291.484 309.992C272.623 307.354 248.384 297.158 225.556 284.093C218.676 280.587 212.434 276.535 206.192 272.484C182.361 256.959 163.451 239.431 158.436 227.136C157.434 224.677 156.476 221.626 155.519 218.576C150.686 203.913 147.857 186.427 145.804 174.36C144.845 163.568 144.707 157.602 144.707 157.602Z" fill="#0050D9"/>
<path d="M316.113 260.661C316.113 260.661 357.98 258.514 366.442 210.333C374.95 161.561 333.94 129.236 305.101 124.642C276.262 120.047 236.314 143.779 239.006 163.042C241.152 181.666 316.113 260.661 316.113 260.661Z" fill="#0050D9"/>
<path d="M238.463 162.405C225.075 189.366 239.897 252.433 296.436 260.939C352.975 269.445 370.682 209.468 356.322 171.447C341.917 134.017 259.546 120.552 238.463 162.405Z" fill="#00D7FF"/>
<path d="M222.633 89.1415C223.225 89.1869 223.18 89.7789 223.772 89.8244C225.458 91.1447 229.377 94.4227 233.205 98.8848C243.048 110.359 254.761 128.526 239.822 144.649C220.373 165.19 184.7 156.499 174.221 153.313C173.628 153.267 173.036 153.222 172.489 152.584C171.897 152.539 171.897 152.539 171.35 151.902L188.429 131.179L222.633 89.1415Z" fill="#0050D9"/>
<path d="M222.636 89.1364C223.228 89.1818 223.182 89.7738 223.775 89.8192C225.415 91.7316 226.874 96.0119 228.197 102.068C231.253 116.594 231.85 139.864 222.787 149.292C213.723 158.72 189.942 158.086 174.816 153.353C174.223 153.308 173.631 153.262 173.084 152.625C172.492 152.579 172.492 152.579 171.945 151.942C170.214 151.214 169.029 151.123 167.89 150.44C163.881 148.346 161.055 146.343 161.237 143.975C157.765 103.811 210.562 83.4462 222.636 89.1364Z" fill="#00D7FF"/>
<path opacity="0.5" d="M235.89 87.1793C235.89 87.1793 235.89 87.1793 248.738 90.5469C257.486 93.0044 271.518 96.4629 294.845 103.016C305.37 105.61 315.256 108.751 323.868 112.984C368.291 131.875 399.597 166.433 400.571 239.156C401.089 310.059 354.853 330.331 297.4 310.441C283.459 305.799 268.559 298.105 253.797 288.636C245.868 283.264 237.94 277.892 230.649 271.973C186.359 235.823 160.608 190.973 149.715 169.891C146.114 162.469 144.063 158.143 144.063 158.143L144.655 158.189C146.386 158.917 148.528 162.059 151.673 167.659C152.22 168.297 152.721 169.526 153.268 170.164C153.77 171.393 154.863 172.668 155.365 173.897C155.912 174.535 156.413 175.764 156.96 176.402C157.461 177.631 157.963 178.86 159.102 179.543C160.697 182.048 161.7 184.507 163.887 187.056C164.389 188.286 165.482 189.561 165.984 190.79C171.817 200.17 179.291 211.462 188.588 222.298C189.681 223.573 191.322 225.486 192.416 226.76C196.79 231.86 201.211 236.367 206.223 240.92C207.909 242.241 209.549 244.153 211.235 245.473C216.795 250.664 222.992 255.307 229.189 259.951C230.92 260.679 232.014 261.954 233.745 262.683C235.431 264.003 237.162 264.731 238.848 266.052C244.544 269.466 250.239 272.88 255.98 275.703C257.712 276.431 259.397 277.751 261.721 278.525C268.647 281.438 276.164 284.397 283.727 286.764C286.643 287.583 289.559 288.402 291.883 289.176C294.799 289.995 297.715 290.814 300.63 291.633C302.407 291.77 303.546 292.452 305.323 292.589C308.239 293.408 311.2 293.635 314.162 293.862C318.307 294.18 321.861 294.453 326.007 294.771C327.191 294.862 328.376 294.953 329.606 294.452C330.198 294.497 330.79 294.543 331.382 294.588C333.159 294.724 334.981 294.269 336.758 294.405C337.35 294.45 338.58 293.949 339.173 293.995C340.403 293.493 342.179 293.63 343.409 293.129C344.002 293.174 345.232 292.673 345.824 292.718C347.054 292.217 347.646 292.263 348.876 291.762C349.514 291.215 350.698 291.306 351.336 290.759C355.026 289.256 358.169 287.115 361.312 284.974C361.949 284.428 362.541 284.473 362.587 283.881C363.817 283.38 364.5 282.241 365.138 281.695C365.138 281.695 365.138 281.695 365.775 281.148C366.413 280.602 367.051 280.055 367.734 278.917C368.371 278.37 369.009 277.824 369.692 276.685C370.967 275.592 371.696 273.861 373.017 272.176C373.7 271.038 375.021 269.352 375.704 268.214C375.749 267.622 375.749 267.622 376.341 267.667C377.07 265.937 377.753 264.798 378.481 263.068C378.527 262.476 378.527 262.476 379.165 261.929C379.848 260.79 379.938 259.607 380.667 257.876C381.486 254.961 382.26 252.639 383.08 249.724C383.17 248.54 383.261 247.356 383.899 246.81C383.99 245.626 384.035 245.034 384.126 243.85C384.171 243.258 384.217 242.666 384.262 242.074C389.082 202.546 370.3 152.275 343.143 133.518C340.911 131.561 338.04 130.149 335.762 128.784C333.484 127.418 331.206 126.052 328.927 124.686C327.196 123.958 325.51 122.638 324.371 121.955C322.64 121.227 321.5 120.544 319.769 119.816C314.62 117.039 309.426 114.854 304.825 112.714C302.546 111.348 300.223 110.575 297.899 109.801C293.297 107.661 288.65 106.114 284.003 104.566C282.864 103.884 281.679 103.793 280.54 103.11C272.385 100.698 264.822 98.3311 258.99 96.6927C257.258 95.9644 256.074 95.8735 254.343 95.1452C253.203 94.4623 251.427 94.326 250.288 93.6432C249.103 93.5523 247.964 92.8694 246.825 92.1866C246.233 92.1411 245.64 92.0957 245.686 91.5037C245.093 91.4582 244.547 90.8208 243.954 90.7754C242.815 90.0925 242.223 90.0471 241.676 89.4096C240.537 88.7268 239.99 88.0893 239.443 87.4519L238.897 86.8144C236.437 87.8167 235.844 87.7713 235.89 87.1793Z" fill="white"/>
<path opacity="0.5" d="M804.008 1054.11C797.678 1055.02 789.538 1055.02 779.59 1056.83C775.068 1057.73 769.641 1057.73 763.311 1058.64C697.29 1064.97 581.527 1079.45 482.948 1102.07C420.544 1116.54 365.376 1133.74 333.722 1155.45C308.399 1172.64 278.554 1203.4 246.9 1241.41C172.74 1329.17 91.344 1452.22 49.7418 1517.37C48.8374 1519.18 47.933 1520.99 47.0286 1521.89C39.7934 1533.65 34.3671 1542.7 29.8451 1549.04C11.7571 1543.61 0.904396 1537.27 0 1527.32C0 1526.42 4.52197 1519.18 11.7571 1508.32C16.2791 1501.99 20.8011 1494.75 27.1319 1486.6C65.1165 1433.22 135.659 1337.31 202.585 1259.5C243.283 1211.55 283.076 1170.83 312.017 1150.93C352.715 1123.78 440.441 1091.21 530.881 1063.16C620.416 1036.02 712.664 1013.4 765.119 1005.26C772.354 1004.35 779.59 1003.45 785.016 1002.54C795.869 1001.64 803.104 1001.64 805.817 1004.35C810.339 1008.87 808.53 1027.88 804.008 1054.11Z" fill="white"/>
<defs>
<linearGradient id="paint0_linear" x1="800" y1="0" x2="800" y2="1600" gradientUnits="userSpaceOnUse">
<stop stop-color="#11B0E8"/>
<stop offset="0.484375" stop-color="#10A7E2"/>
<stop offset="1" stop-color="#044FAA"/>
</linearGradient>
</defs>
</svg>
