<svg width="37" height="37" viewBox="0 0 37 37" fill="none" xmlns="http://www.w3.org/2000/svg">
<path d="M34.9951 0H2C0.895431 0 0 0.895431 0 2V35C0 36.1046 0.895431 37 2 37H34.9951C36.0997 37 36.9951 36.1046 36.9951 35V2C36.9951 0.89543 36.0997 0 34.9951 0Z" fill="url(#paint0_linear)"/>
<path d="M34.3599 0.636719H2.63696C1.53239 0.636719 0.636963 1.53215 0.636963 2.63672V34.3629C0.636963 35.4675 1.53239 36.3629 2.63696 36.3629H34.3599C35.4645 36.3629 36.3599 35.4675 36.3599 34.3629V2.63672C36.3599 1.53215 35.4645 0.636719 34.3599 0.636719Z" fill="url(#paint1_linear)"/>
<path opacity="0.8" d="M18.0312 34.0147C26.885 34.0147 34.0625 26.848 34.0625 18.0073C34.0625 9.16673 26.885 2 18.0312 2C9.17742 2 2 9.16673 2 18.0073C2 26.848 9.17742 34.0147 18.0312 34.0147Z" stroke="url(#paint2_linear)" stroke-miterlimit="10"/>
<path d="M18 33C26.2843 33 33 26.2843 33 18C33 9.71573 26.2843 3 18 3C9.71573 3 3 9.71573 3 18C3 26.2843 9.71573 33 18 33Z" fill="url(#paint3_linear)"/>
<path d="M25.4069 10.7929C25.1281 10.9124 24.8759 10.9787 24.6237 11.0318C24.4113 11.0717 24.2387 11.0849 24.0795 11.0849C23.8671 11.0849 23.668 11.0451 23.4954 10.9655C22.9777 10.7531 22.6591 10.1823 22.6856 9.63803C22.6989 9.25308 22.8582 8.89467 22.9777 8.53626C23.2166 7.80617 23.429 7.06281 23.6414 6.31945C23.575 6.45219 23.4821 6.55839 23.3892 6.67786C22.9511 7.23538 22.5662 7.81945 22.1414 8.37697C22.0219 8.53626 21.9025 8.69555 21.7697 8.84157C21.637 9.00086 21.4777 9.1867 21.2653 9.2398C20.9202 9.33272 20.4821 9.01414 20.2432 8.78847C19.9113 8.48317 19.7387 8.08494 19.5795 7.66016C19.4334 7.26193 19.2874 6.85042 19.1414 6.45219C19.1149 6.37255 19.0219 6.2398 19.0352 6.16016L18.8892 8.2044C18.8626 8.3637 18.8228 8.50971 18.783 8.65573L18.7697 8.69555C18.6635 9.02741 18.5441 9.30617 18.3848 9.54511C18.1724 9.8637 17.9202 10.0628 17.6149 10.1425C17.4556 10.1823 17.283 10.1956 17.1237 10.1557C16.9644 10.1292 16.8317 10.0628 16.7255 10.0097C16.6724 9.98316 15.6768 8.97432 15.6237 8.94777L15.8759 10.169C15.8626 10.2619 15.8361 10.3416 15.8095 10.4345C15.7564 10.5805 15.6768 10.7 15.5573 10.7796C15.4379 10.8858 15.2387 10.9389 15.0396 10.9522C14.6281 10.9655 14.2166 10.7929 13.9113 10.6469C13.5927 10.4876 13.2609 10.3017 12.8626 10.023C12.5706 9.82387 12.2918 9.61148 12.0131 9.38582L9.53078 7.12918L11.3095 9.85042C11.5219 10.2221 11.6945 10.5672 11.8405 10.8991C12.0662 11.4035 12.2387 11.8416 12.3449 12.2398C12.491 12.7841 12.5308 13.2088 12.4777 13.5805C12.4379 13.8327 12.3449 14.0451 12.2122 14.1911C12.0795 14.3637 11.8671 14.4832 11.6414 14.5363C11.4025 14.5894 11.1503 14.6026 10.8582 14.5628L9.91574 14.4168L10.4334 15.1734C10.4998 15.2664 10.5529 15.3593 10.5927 15.4522C10.6857 15.6513 10.7122 15.8371 10.6989 15.9964C10.6724 16.1956 10.5529 16.3814 10.3671 16.5141C10.1812 16.6469 9.96884 16.7265 9.80954 16.7664C9.59716 16.8327 9.39804 16.8593 9.2122 16.8858C8.72105 16.9389 8.16353 16.9522 7.51308 16.9124L4.88477 16.5009L7.38034 17.7619C7.75202 17.9743 8.11043 18.2 8.41574 18.4389C8.78742 18.7177 9.06618 18.9699 9.27857 19.2354C9.42459 19.4079 9.51751 19.5672 9.58388 19.7133C9.66353 19.8858 9.70335 20.0717 9.69008 20.231C9.6768 20.3902 9.6237 20.5363 9.51751 20.669C9.43786 20.7619 9.34494 20.8548 9.22547 20.9345L8.6414 21.3327L9.34494 21.6646C9.59716 21.784 9.80954 21.9301 9.98211 22.1026C10.1016 22.2354 10.2078 22.3814 10.2741 22.5274C10.3405 22.6734 10.3803 22.846 10.3936 23.0451C10.4069 23.3637 10.3405 23.6823 10.168 24.054C10.0087 24.3858 9.783 24.7442 9.47769 25.0894L7.64583 26.7354L10.075 25.7663C10.4733 25.6602 10.8317 25.5938 11.1635 25.554C11.5883 25.5009 11.9467 25.5009 12.2653 25.554C12.4777 25.5805 12.6503 25.6336 12.8095 25.7C12.9821 25.7796 13.1414 25.8858 13.2609 26.0053C13.3671 26.1248 13.46 26.2575 13.5131 26.3902V26.4035C13.5396 26.4832 13.5662 26.5628 13.5795 26.6425L13.5131 27.731L14.283 27.0009C14.3892 26.9478 14.5087 26.9079 14.6414 26.8814C14.9069 26.8283 15.2653 26.8814 15.5441 27.0141C15.8228 27.1469 16.0883 27.346 16.314 27.6115V27.6248C16.4069 27.731 16.5131 27.8504 16.6193 27.9964C16.6724 28.0628 16.7255 28.1425 16.7786 28.2221L17.4157 29.523L17.6281 28.1956C17.6812 28.023 17.7476 27.877 17.8272 27.731C17.9998 27.4256 18.2122 27.2265 18.4777 27.1071C18.6237 27.0407 18.783 27.0141 18.9423 27.0141C19.075 27.0141 19.221 27.0407 19.3671 27.0938C19.5396 27.1469 19.6989 27.2265 19.8715 27.3327L20.4821 27.731L20.575 27.0938C20.575 27.0672 20.5883 27.0407 20.5883 27.0009C20.6016 26.9478 20.6281 26.8814 20.6547 26.8283C20.7078 26.7487 20.7741 26.6956 20.8538 26.669C20.9334 26.6425 21.0264 26.6292 21.1458 26.6557C21.2387 26.669 21.3317 26.7088 21.398 26.7354C21.7166 26.8814 21.9821 27.0938 22.221 27.2929C22.3272 27.3858 22.4467 27.492 22.5662 27.5982L24.6901 29.9478L23.3361 27.2265C23.2299 26.9345 23.1237 26.6425 23.0573 26.3637C22.9379 25.9389 22.898 25.554 22.898 25.2221C22.898 25.0097 22.9379 24.8371 22.991 24.6779C23.0573 24.492 23.1635 24.346 23.3095 24.2265C23.4423 24.1203 23.6016 24.0407 23.8007 24.0141C23.8538 24.0009 23.9069 24.0009 23.9733 24.0009L25.4069 24.3858L24.3051 23.4035C24.2918 23.377 24.2786 23.3637 24.2653 23.3504C24.1724 23.1779 24.1326 23.0318 24.1326 22.8725C24.1326 22.7 24.2255 22.5009 24.3715 22.3681C24.5308 22.2221 24.7166 22.1557 24.8892 22.1026C25.221 22.0097 25.606 21.9832 26.0839 22.023C26.3759 22.0495 26.6812 22.0894 26.9865 22.1557L29.5352 22.9389L27.3582 21.4124C27.2387 21.3062 27.1326 21.2 27.0396 21.1071C26.814 20.8814 26.5352 20.5761 26.3361 20.231C26.2697 20.1115 26.1768 19.9256 26.137 19.7133C26.1104 19.5274 26.137 19.3283 26.2299 19.1956C26.3095 19.0761 26.429 18.9699 26.5883 18.9035C26.6945 18.8504 26.8007 18.8239 26.9467 18.7973L27.637 18.6513L27.1458 18.1203C27.1193 18.0805 27.0795 18.0407 27.0529 18.0141C26.9467 17.8681 26.8936 17.6956 26.9069 17.5495C26.9202 17.4035 27.0131 17.2442 27.1591 17.1115C27.2653 17.0053 27.398 16.9124 27.5839 16.8194C27.7564 16.7265 27.9423 16.6602 28.0883 16.6071C28.3803 16.5009 28.6989 16.4079 29.0441 16.3283L32.0972 15.9566L28.9777 15.5053C28.8317 15.4655 28.6857 15.4124 28.5529 15.3725C28.1414 15.2265 27.8228 15.0672 27.5706 14.8681C27.4113 14.7487 27.2918 14.6159 27.2255 14.4832C27.1458 14.3504 27.1193 14.1911 27.1193 14.0451C27.1326 13.9124 27.1724 13.7796 27.2387 13.6469L27.5042 13.1823L26.9069 13.023C26.8803 13.023 26.8671 13.0097 26.8405 13.0097C26.6414 12.9433 26.429 12.8637 26.2299 12.6646C26.137 12.5584 26.0573 12.4389 26.0042 12.3062C25.9644 12.1867 25.9379 12.0407 25.9511 11.8947C25.9511 11.7221 25.991 11.5363 26.0706 11.3371L27.252 9.7044L25.4069 10.7929Z" fill="#FFF200"/>
<path d="M21.106 11.8149C21.1325 11.8149 23.0573 11.2441 23.721 11.3901C24.2918 11.5096 24.9024 11.9078 25.0484 12.8901C25.1945 13.8724 24.836 14.1512 24.8228 14.6821C24.8095 15.2131 24.9688 15.9565 24.8228 16.6335C24.7033 17.191 24.2652 17.3636 23.9865 17.4432C23.4688 17.5892 23.0573 17.4299 22.8714 17.2706C22.6856 17.1113 22.1812 16.5406 22.0883 15.9167C21.9953 15.306 21.836 14.8414 22.1546 13.8591C22.3537 13.2618 21.1458 13.2751 21.1458 13.2751L21.106 11.8149Z" fill="#F4BA8E"/>
<path d="M25.2211 13.3811C25.2211 13.7395 25.1414 13.9785 25.0618 14.2041C25.0087 14.3767 24.9556 14.5227 24.9556 14.7085V14.7351C24.9556 14.9077 24.9689 15.0935 24.9821 15.3059C24.9954 15.5448 25.022 15.797 25.022 16.0625C25.022 16.3015 24.9954 16.5006 24.9556 16.6997C24.8096 17.3767 24.2255 17.5493 24.0264 17.6024C23.4821 17.7484 23.0308 17.5891 22.8052 17.4165C22.5928 17.2439 22.0751 16.6333 21.9821 15.9962C21.9689 15.9165 21.9556 15.8369 21.9423 15.7572C21.9025 15.4917 21.8494 15.2528 21.8627 14.9608C21.8627 14.6289 21.929 14.2838 22.0618 13.8855C22.0883 13.7926 22.0751 13.7262 22.022 13.6731C21.8494 13.5006 21.345 13.4608 21.1724 13.474H21.0529L20.9866 11.7218L21.0928 11.6953C21.5574 11.5625 23.137 11.1378 23.7609 11.2705C24.2122 11.3634 25.0087 11.7085 25.1945 12.8767C25.2078 13.0625 25.2211 13.2218 25.2211 13.3811ZM24.7034 14.7218V14.6953C24.7034 14.4829 24.7698 14.3103 24.8229 14.1245C24.8892 13.9121 24.9556 13.6997 24.9689 13.3811C24.9689 13.2351 24.9556 13.0891 24.929 12.9298C24.783 11.9608 24.1724 11.6289 23.6945 11.5227C23.3892 11.4563 21.7432 11.6555 22.2609 12.5581C22.2609 12.5581 21.9556 13.2351 22.1813 13.4608C22.2609 13.5404 22.314 13.6466 22.314 13.7661C22.314 13.8192 22.3007 13.8723 22.2875 13.9254C22.168 14.297 22.1149 14.7484 22.168 14.9608C22.2344 15.2262 22.699 15.651 22.46 15.797C22.3937 15.8369 22.2078 15.8369 22.2211 15.9298C22.314 16.5139 23.0308 16.474 23.0706 16.7926C23.0972 17.0183 23.5087 17.4696 23.96 17.3501C24.2388 17.2705 24.6105 17.1112 24.7167 16.6333C24.7565 16.4608 24.7698 16.2616 24.783 16.0493C24.783 15.797 24.7698 15.5581 24.7432 15.3192C24.7167 15.0935 24.7034 14.8944 24.7034 14.7218Z" fill="#231F20"/>
<path d="M23.9332 14.6699C24.2651 14.6699 24.7297 14.5504 24.7695 14.6168C24.9022 14.8822 24.8889 16.3822 24.796 16.5946C24.7031 16.807 24.4774 16.8336 24.2385 16.807C23.9996 16.7805 23.296 16.369 23.1367 16.0902C22.9774 15.8114 23.0836 15.2141 23.2031 15.0017C23.3093 14.7628 23.5482 14.6699 23.9332 14.6699Z" fill="#F7D7C6"/>
<path d="M24.9421 15.7308C24.9421 16.076 24.9155 16.5008 24.8624 16.6202C24.743 16.899 24.4509 16.899 24.212 16.8724C23.9465 16.8459 23.2164 16.4211 23.0438 16.1025C22.9642 15.9565 22.9509 15.7707 22.9509 15.6379C22.9509 15.3724 23.0173 15.0804 23.1102 14.9211C23.2562 14.6689 23.5085 14.5627 23.92 14.5627C24.066 14.5627 24.2385 14.5362 24.3978 14.5229C24.6633 14.4831 24.7828 14.4698 24.8226 14.5494C24.9421 14.7751 24.9421 15.5185 24.9421 15.7308ZM23.1235 15.6512C23.1235 15.8105 23.15 15.9432 23.1899 16.0362C23.3359 16.3016 23.9996 16.6866 24.2253 16.7131C24.504 16.7397 24.6368 16.6999 24.7031 16.5539C24.7297 16.4875 24.7695 16.1822 24.7695 15.7308C24.7695 15.2397 24.743 14.8149 24.6899 14.6689C24.6368 14.6689 24.5173 14.6822 24.4111 14.6954C24.2518 14.722 24.066 14.7485 23.92 14.7485C23.5748 14.7485 23.3624 14.8282 23.243 15.0273C23.1899 15.1335 23.1235 15.399 23.1235 15.6512Z" fill="#231F20"/>
<path d="M18.4247 11.3371C17.9734 11.43 17.5752 11.5893 17.2699 11.6158C15.1592 11.8017 13.8451 11.6424 12.9424 12.3194C12.0929 12.9566 12.0796 13.8858 12.0929 14.4831C12.1061 14.9344 12.2256 15.253 12.3185 15.4787C12.3451 15.545 12.5176 15.9698 12.4513 16.2088C12.3982 16.3813 12.3185 16.6468 12.2256 16.8592C12.146 17.045 11.9734 17.3902 11.9734 17.9212C11.9734 18.0539 11.9867 18.1866 11.9999 18.3194C12.0929 19.0362 12.5442 19.607 12.8097 19.8725C12.8495 19.9123 12.969 20.1512 12.8628 20.5893C12.7964 20.8813 12.7035 21.2132 12.7035 21.5185C12.7035 21.5981 12.7035 21.6778 12.7168 21.7574C12.7964 22.2619 13.0486 22.5804 13.2875 22.7928C13.4601 22.9521 13.553 23.0981 13.5929 23.2442C13.646 23.43 13.5663 23.6822 13.5265 23.815C13.4468 24.0937 13.5132 24.4389 13.5265 24.5318C13.6327 25.0893 13.9778 25.3813 14.5884 25.6999C15.2256 26.045 16.5132 26.0849 17.2168 26.0052C17.615 25.9654 17.9999 25.9521 18.4247 25.9521C19.3141 25.9389 19.9645 26.1778 20.7743 25.7132C21.73 25.1822 22.0752 24.253 22.0884 23.2176C22.0884 22.8592 22.0486 22.7265 22.0088 22.5008C22.1814 22.3282 22.6592 21.8371 22.7123 20.6955C22.7389 20.138 22.5398 19.6866 22.2477 19.222C22.7787 18.8371 23.1371 17.961 23.1504 17.1114C23.1504 16.5539 23.0309 15.5185 21.9291 15.0804C22.0884 14.7884 22.407 14.0981 22.4203 13.315C22.4203 13.0362 22.3672 12.7707 22.2875 12.5318C21.9822 11.6822 20.9468 11.1645 20.2699 11.0981C19.8716 11.0716 19.1017 11.2043 18.4247 11.3371ZM20.1769 11.43C20.761 11.4964 21.8495 12.1468 22.0486 12.638C22.1283 12.8371 22.1681 13.076 22.1681 13.3282C22.1548 14.2442 21.6371 14.6955 21.4911 14.8282C21.2256 15.0672 18.7964 14.961 17.3495 15.2796C17.0575 15.3459 16.8849 15.4256 16.646 15.4123C16.4336 15.399 15.3583 15.3459 15.0398 15.2132C15.2787 15.4389 16.3406 15.4521 16.407 15.5052C16.4734 15.5583 16.1548 15.6247 15.6106 15.6645C16.1681 15.7442 16.5398 15.6247 17.5884 15.4389C18.3982 15.2928 21.4645 15.3327 21.6769 15.3858C22.5132 15.638 22.8451 16.5273 22.8318 17.045C22.8185 17.961 22.2876 18.4787 21.876 18.7973C21.6637 18.9698 20.907 18.7442 19.5265 18.9566C18.1991 19.1557 17.1371 19.3548 15.6902 19.1291C15.969 19.2751 16.3008 19.3548 16.7654 19.3946C16.8318 19.3946 16.4336 19.4477 16.115 19.5273C16.5929 19.5672 17.3097 19.3946 17.376 19.3946C17.9734 19.3946 18.438 19.315 18.8229 19.2619C20.2168 19.0627 21.6106 19.2486 21.7831 19.3548C21.9557 19.461 22.3008 19.9787 22.2875 20.7619C22.2743 21.6911 21.7433 22.1557 21.5575 22.3415C21.053 22.8194 17.1769 22.3415 15.5176 22.7397C15.8229 22.7265 16.3406 22.6734 16.6061 22.7265C16.6725 22.7397 16.1946 22.8725 16.0221 23.0981C16.3141 22.9787 16.553 22.8194 16.9911 22.7265C18.6504 22.7663 20.5353 22.8858 21.584 22.6468C21.584 22.6468 21.73 22.9654 21.73 23.2442C21.7168 24.1866 21.3052 24.9831 20.6415 25.3813C20.1371 25.6866 19.2743 25.6335 18.4513 25.6468C18.0265 25.6468 17.5884 25.7132 17.1769 25.7663C16.5265 25.8459 15.2787 25.8061 14.6946 25.4875C14.1371 25.1955 13.8583 24.93 13.7522 24.4654C13.6858 24.1468 13.7787 23.7486 13.8982 23.4964C14.0309 23.2176 14.2831 23.3371 15.0132 23.1911C14.4291 23.0716 13.8982 22.9787 13.4867 22.5804C13.2743 22.3681 13.0221 22.1424 12.9424 21.7176C12.9291 21.6512 12.9291 21.5981 12.9291 21.5318C12.9291 21.253 13.0486 20.961 13.115 20.6822C13.2875 20.0185 13.6194 19.7663 14.2964 19.5141C13.6592 19.4477 13.3141 19.5406 12.9822 19.4477C12.6504 19.3548 12.3451 18.9167 12.2654 18.2796C12.2522 18.1601 12.2389 18.0406 12.2389 17.9212C12.2389 17.4565 12.3451 17.1911 12.438 16.9787C12.5309 16.7796 12.73 16.5141 12.8893 16.3548C13.1946 16.0495 13.6327 15.784 14.0176 15.6512C13.5398 15.5583 12.9822 15.8371 12.7566 15.5981C12.584 15.4256 12.3982 14.8681 12.3849 14.4565C12.3583 13.7397 12.6106 13.0495 13.1283 12.638C13.8716 12.0539 15.2389 12.0273 17.3097 11.8548C17.6283 11.8282 18.053 11.7486 18.5044 11.6557C19.1415 11.5229 19.8318 11.3902 20.1769 11.43Z" fill="#231F20"/>
<path d="M20.1766 11.43C20.7606 11.4964 21.8491 12.1468 22.0483 12.638C22.1279 12.8371 22.1677 13.0761 22.1677 13.3283C22.1545 14.2442 21.6368 14.6955 21.4907 14.8283C21.2253 15.0672 18.796 14.961 17.3491 15.2796C17.0571 15.346 16.8845 15.4256 16.6456 15.4123C16.4332 15.3991 15.358 15.346 15.0394 15.2132C15.2783 15.4389 16.3403 15.4522 16.4067 15.5053C16.473 15.5584 16.1545 15.6247 15.6102 15.6645C16.1677 15.7442 16.5394 15.6247 17.5881 15.4389C18.3978 15.2929 21.4642 15.3327 21.6766 15.3858C22.5129 15.638 22.8447 16.5274 22.8314 17.0451C22.8182 17.961 22.2872 18.4787 21.8757 18.7973C21.6633 18.9699 20.9067 18.7442 19.5261 18.9566C18.1987 19.1557 17.1368 19.3548 15.6899 19.1291C15.9686 19.2752 16.3005 19.3548 16.7651 19.3946C16.8314 19.3946 16.4332 19.4477 16.1146 19.5274C16.5925 19.5672 17.3093 19.3946 17.3757 19.3946C17.973 19.3946 18.4376 19.315 18.8226 19.2619C20.2164 19.0628 21.6102 19.2486 21.7828 19.3548C21.9553 19.461 22.3005 19.9787 22.2872 20.7619C22.2739 21.6911 21.7429 22.1557 21.5571 22.3415C21.0527 22.8194 17.1766 22.3415 15.5173 22.7398C15.8226 22.7265 16.3403 22.6734 16.6058 22.7265C16.6722 22.7398 16.1943 22.8725 16.0217 23.0982C16.3137 22.9787 16.5527 22.8194 16.9907 22.7265C18.65 22.7663 20.535 22.8858 21.5837 22.6468C21.5837 22.6468 21.7297 22.9654 21.7297 23.2442C21.7164 24.1867 21.3049 24.9831 20.6412 25.3814C20.1368 25.6867 19.2739 25.6336 18.4509 25.6468C18.0261 25.6468 17.5881 25.7132 17.1766 25.7663C16.5261 25.846 15.2783 25.8061 14.6943 25.4876C14.1368 25.1955 13.858 24.93 13.7518 24.4654C13.6854 24.1468 13.7783 23.7486 13.8978 23.4964C14.0306 23.2176 14.2828 23.3371 15.0129 23.1911C14.4288 23.0716 13.8978 22.9787 13.4863 22.5805C13.2739 22.3681 13.0217 22.1424 12.9421 21.7176C12.9288 21.6513 12.9288 21.5982 12.9288 21.5318C12.9288 21.253 13.0483 20.961 13.1146 20.6822C13.2872 20.0185 13.6191 19.7663 14.296 19.5141C13.6589 19.4477 13.3137 19.5407 12.9819 19.4477C12.65 19.3548 12.3447 18.9168 12.2651 18.2796C12.2518 18.1601 12.2385 18.0407 12.2385 17.9212C12.2385 17.4566 12.3447 17.1911 12.4376 16.9787C12.5306 16.7796 12.7297 16.5141 12.889 16.3548C13.1943 16.0495 13.6323 15.784 14.0173 15.6513C13.5394 15.5584 12.9819 15.8371 12.7562 15.5982C12.5837 15.4256 12.3978 14.8681 12.3845 14.4566C12.358 13.7398 12.6102 13.0495 13.1279 12.638C13.8713 12.0539 15.2385 12.0274 17.3093 11.8548C17.6279 11.8283 18.0527 11.7486 18.504 11.6557C19.1412 11.523 19.8314 11.3902 20.1766 11.43Z" fill="#F4BA8E"/>
<defs>
<linearGradient id="paint0_linear" x1="-2.75783" y1="-1.12691" x2="40.4458" y2="38.8859" gradientUnits="userSpaceOnUse">
<stop stop-color="#969699"/>
<stop offset="0.2788" stop-color="#B7ADAE"/>
<stop offset="1" stop-color="#E5E5E5"/>
</linearGradient>
<linearGradient id="paint1_linear" x1="18.4984" y1="0.636719" x2="18.4984" y2="36.3629" gradientUnits="userSpaceOnUse">
<stop stop-color="#F1E6E1"/>
<stop offset="1" stop-color="#CDC6C5"/>
</linearGradient>
<linearGradient id="paint2_linear" x1="1.43996" y1="18.0073" x2="34.6225" y2="18.0073" gradientUnits="userSpaceOnUse">
<stop/>
<stop offset="0.00429839" stop-color="#090909"/>
<stop offset="0.0277675" stop-color="#373737"/>
<stop offset="0.0542172" stop-color="#626262"/>
<stop offset="0.0826444" stop-color="#888888"/>
<stop offset="0.1136" stop-color="#A8A8A8"/>
<stop offset="0.1478" stop-color="#C4C4C4"/>
<stop offset="0.1864" stop-color="#DADADA"/>
<stop offset="0.2315" stop-color="#EBEBEB"/>
<stop offset="0.2872" stop-color="#F6F6F6"/>
<stop offset="0.3654" stop-color="#FDFDFD"/>
<stop offset="0.5824" stop-color="white"/>
<stop offset="0.6688" stop-color="#BBBBBB"/>
<stop offset="0.8455" stop-color="#363636"/>
<stop offset="0.9231"/>
</linearGradient>
<linearGradient id="paint3_linear" x1="3.00173" y1="17.9934" x2="33.0017" y2="17.9934" gradientUnits="userSpaceOnUse">
<stop stop-color="#BF1400"/>
<stop offset="0.3132" stop-color="#ED3000"/>
<stop offset="1" stop-color="#AB0000"/>
</linearGradient>
</defs>
</svg>
