<svg width="64" height="64" viewBox="0 0 64 64" fill="none" xmlns="http://www.w3.org/2000/svg">
<path d="M61.9916 0H2C0.895431 0 0 0.895431 0 2V62C0 63.1046 0.895431 64 2 64H61.9916C63.0962 64 63.9916 63.1046 63.9916 62V2C63.9916 0.895431 63.0962 0 61.9916 0Z" fill="url(#paint0_linear)"/>
<path d="M60.8929 1.10156H3.10181C1.99724 1.10156 1.10181 1.99699 1.10181 3.10156V60.8983C1.10181 62.0028 1.99724 62.8983 3.10181 62.8983H60.8929C61.9975 62.8983 62.8929 62.0028 62.8929 60.8983V3.10156C62.8929 1.99699 61.9975 1.10156 60.8929 1.10156Z" fill="url(#paint1_linear)"/>
<path d="M31.5 53.9996C44.4787 53.9996 55 43.9259 55 31.4993C55 19.0727 44.4787 8.99902 31.5 8.99902C18.5213 8.99902 8 19.0727 8 31.4993C8 43.9259 18.5213 53.9996 31.5 53.9996Z" fill="url(#paint2_linear)"/>
<path opacity="0.8" d="M31.5 54.4829C44.4787 54.4829 55 44.301 55 31.741C55 19.1809 44.4787 8.99902 31.5 8.99902C18.5213 8.99902 8 19.1809 8 31.741C8 44.301 18.5213 54.4829 31.5 54.4829Z" stroke="url(#paint3_linear)" stroke-width="2" stroke-miterlimit="10"/>
<path d="M31.9815 10.9995C32.5323 10.9823 32.997 11.4298 33.0142 11.9978C33.0314 12.5485 32.5839 13.0132 32.0332 13.0305C31.4824 13.0477 31.0177 12.6002 31.0005 12.0494C30.9833 11.4814 31.4136 11.0167 31.9815 10.9995Z" fill="url(#paint4_linear)"/>
<path d="M31.9815 11.1904C32.4462 11.1904 32.8249 11.5519 32.8249 11.9994C32.8421 12.4641 32.4635 12.8427 32.016 12.8427C31.5513 12.8599 31.1898 12.4985 31.1726 12.0338C31.1726 11.5691 31.534 11.1904 31.9815 11.1904Z" fill="url(#paint5_linear)"/>
<path d="M31.9988 11.3428C32.3602 11.3428 32.67 11.6182 32.67 11.9968C32.67 12.3582 32.3946 12.6681 32.016 12.6681C31.6545 12.6681 31.3447 12.3927 31.3447 12.014C31.3447 11.6526 31.6201 11.36 31.9988 11.3428Z" fill="url(#paint6_radial)"/>
<path d="M32.4808 11.9463V12.0668L31.4998 12.084V11.9635L32.4808 11.9463ZM32.0505 11.5332H31.93L31.9472 11.9635H32.0677L32.0505 11.5332ZM32.0505 12.0668H31.93L31.9472 12.497H32.0677L32.0505 12.0668Z" fill="#5C5B5F"/>
<path d="M31.9815 50.0005C32.5323 49.9833 32.997 50.4308 33.0142 50.9987C33.0314 51.5495 32.5839 52.0142 32.0332 52.0314C31.4824 52.0486 31.0177 51.6011 31.0005 51.0504C30.9833 50.4824 31.4136 50.0177 31.9815 50.0005Z" fill="url(#paint7_linear)"/>
<path d="M31.9815 50.1914C32.4462 50.1914 32.8249 50.5528 32.8249 51.0003C32.8421 51.4651 32.4635 51.8437 32.016 51.8437C31.5513 51.8609 31.1898 51.4995 31.1726 51.0348C31.1726 50.5701 31.534 50.1914 31.9815 50.1914Z" fill="url(#paint8_linear)"/>
<path d="M31.9988 50.3447C32.3602 50.3447 32.67 50.6201 32.67 50.9988C32.67 51.3602 32.3946 51.67 32.016 51.67C31.6545 51.67 31.3447 51.3946 31.3447 51.016C31.3447 50.6545 31.6201 50.3619 31.9988 50.3447Z" fill="url(#paint9_radial)"/>
<path d="M32.4808 50.9482V51.0687L31.4998 51.0859V50.9654L32.4808 50.9482ZM32.0505 50.5352H31.93L31.9472 50.9654H32.0677L32.0505 50.5352ZM32.0505 51.0687H31.93L31.9472 51.499H32.0677L32.0505 51.0687Z" fill="#5C5B5F"/>
<path d="M39.9815 13.0005C40.5323 12.9833 40.997 13.4308 41.0142 13.9987C41.0314 14.5495 40.5839 15.0142 40.0332 15.0314C39.4824 15.0486 39.0177 14.6011 39.0005 14.0504C38.9833 13.4824 39.4136 13.0177 39.9815 13.0005Z" fill="url(#paint10_linear)"/>
<path d="M39.9815 13.1895C40.4462 13.1895 40.8249 13.5509 40.8249 13.9984C40.8421 14.4631 40.4635 14.8417 40.016 14.8417C39.5513 14.859 39.1898 14.4975 39.1726 14.0328C39.1726 13.5681 39.534 13.1895 39.9815 13.1895Z" fill="url(#paint11_linear)"/>
<path d="M39.9988 13.3438C40.3602 13.3438 40.67 13.6191 40.67 13.9978C40.67 14.3592 40.3946 14.669 40.016 14.669C39.6545 14.669 39.3447 14.3936 39.3447 14.015C39.3447 13.6536 39.6201 13.361 39.9988 13.3438Z" fill="url(#paint12_radial)"/>
<path d="M40.4808 13.9463V14.0668L39.4998 14.084V13.9635L40.4808 13.9463ZM40.0505 13.5332H39.93L39.9472 13.9635H40.0677L40.0505 13.5332ZM40.0505 14.0668H39.93L39.9472 14.497H40.0677L40.0505 14.0668Z" fill="#5C5B5F"/>
<path d="M44.9815 16.9995C45.5323 16.9823 45.997 17.4298 46.0142 17.9978C46.0314 18.5485 45.5839 19.0132 45.0332 19.0305C44.4824 19.0477 44.0177 18.6002 44.0005 18.0494C43.9833 17.4814 44.4136 17.0167 44.9815 16.9995Z" fill="url(#paint13_linear)"/>
<path d="M44.9815 17.1895C45.4462 17.1895 45.8249 17.5509 45.8249 17.9984C45.8421 18.4631 45.4635 18.8417 45.016 18.8417C44.5513 18.859 44.1898 18.4975 44.1726 18.0328C44.1726 17.5681 44.534 17.1895 44.9815 17.1895Z" fill="url(#paint14_linear)"/>
<path d="M44.9988 17.3438C45.3602 17.3438 45.67 17.6191 45.67 17.9978C45.67 18.3592 45.3946 18.669 45.016 18.669C44.6545 18.669 44.3447 18.3936 44.3447 18.015C44.3447 17.6536 44.6201 17.361 44.9988 17.3438Z" fill="url(#paint15_radial)"/>
<path d="M45.4808 17.9473V18.0677L44.4998 18.0849V17.9645L45.4808 17.9473ZM45.0505 17.5342H44.93L44.9472 17.9645H45.0677L45.0505 17.5342ZM45.0505 18.0677H44.93L44.9472 18.498H45.0677L45.0505 18.0677Z" fill="#5C5B5F"/>
<path d="M48.9815 21.9995C49.5323 21.9823 49.997 22.4298 50.0142 22.9978C50.0314 23.5485 49.5839 24.0132 49.0332 24.0305C48.4824 24.0477 48.0177 23.6002 48.0005 23.0494C47.9833 22.4814 48.4136 22.0167 48.9815 21.9995Z" fill="url(#paint16_linear)"/>
<path d="M48.9815 22.1904C49.4462 22.1904 49.8249 22.5519 49.8249 22.9994C49.8421 23.4641 49.4635 23.8427 49.016 23.8427C48.5513 23.8599 48.1898 23.4985 48.1726 23.0338C48.1726 22.5691 48.534 22.1904 48.9815 22.1904Z" fill="url(#paint17_linear)"/>
<path d="M49.4808 22.9463V23.0668L48.4998 23.084V22.9635L49.4808 22.9463ZM49.0505 22.5332H48.93L48.9472 22.9635H49.0677L49.0505 22.5332ZM49.0505 23.0668H48.93L48.9472 23.497H49.0677L49.0505 23.0668Z" fill="#5C5B5F"/>
<path d="M45.9815 43.9995C46.5323 43.9823 46.997 44.4298 47.0142 44.9978C47.0314 45.5485 46.5839 46.0132 46.0332 46.0305C45.4824 46.0477 45.0177 45.6002 45.0005 45.0494C44.9833 44.4814 45.4136 44.0167 45.9815 43.9995Z" fill="url(#paint18_linear)"/>
<path d="M45.9815 44.1895C46.4462 44.1895 46.8249 44.5509 46.8249 44.9984C46.8421 45.4631 46.4635 45.8417 46.016 45.8417C45.5513 45.859 45.1898 45.4975 45.1726 45.0328C45.1726 44.5681 45.534 44.1895 45.9815 44.1895Z" fill="url(#paint19_linear)"/>
<path d="M45.9988 44.3438C46.3602 44.3438 46.67 44.6191 46.67 44.9978C46.67 45.3592 46.3946 45.669 46.016 45.669C45.6545 45.669 45.3447 45.3936 45.3447 45.015C45.3447 44.6536 45.6201 44.361 45.9988 44.3438Z" fill="url(#paint20_radial)"/>
<path d="M46.4806 44.9473V45.0677L45.4995 45.0849V44.9645L46.4806 44.9473ZM46.0503 44.5342H45.9298L45.947 44.9645H46.0675L46.0503 44.5342ZM46.0503 45.0677H45.9298L45.947 45.498H46.0675L46.0503 45.0677Z" fill="#5C5B5F"/>
<path d="M39.9815 47.9995C40.5323 47.9823 40.997 48.4298 41.0142 48.9978C41.0314 49.5485 40.5839 50.0132 40.0332 50.0305C39.4824 50.0477 39.0177 49.6002 39.0005 49.0494C38.9833 48.4814 39.4136 48.0167 39.9815 47.9995Z" fill="url(#paint21_linear)"/>
<path d="M39.9815 48.1895C40.4462 48.1895 40.8249 48.5509 40.8249 48.9984C40.8421 49.4631 40.4635 49.8417 40.016 49.8417C39.5513 49.859 39.1898 49.4975 39.1726 49.0328C39.1726 48.5681 39.534 48.1895 39.9815 48.1895Z" fill="url(#paint22_linear)"/>
<path d="M39.9988 48.3438C40.3602 48.3438 40.67 48.6191 40.67 48.9978C40.67 49.3592 40.3946 49.669 40.016 49.669C39.6545 49.669 39.3447 49.3936 39.3447 49.015C39.3447 48.6536 39.6201 48.361 39.9988 48.3438Z" fill="url(#paint23_radial)"/>
<path d="M40.4808 48.9463V49.0668L39.4998 49.084V48.9635L40.4808 48.9463ZM40.0505 48.5332H39.93L39.9472 48.9635H40.0677L40.0505 48.5332ZM40.0505 49.0668H39.93L39.9472 49.497H40.0677L40.0505 49.0668Z" fill="#5C5B5F"/>
<path d="M50.9813 29.9995C51.5321 29.9823 51.9968 30.4298 52.014 30.9978C52.0312 31.5485 51.5837 32.0132 51.0329 32.0305C50.4822 32.0477 50.0175 31.6002 50.0003 31.0494C49.983 30.4814 50.4133 30.0167 50.9813 29.9995Z" fill="url(#paint24_linear)"/>
<path d="M50.9815 30.1895C51.4462 30.1895 51.8249 30.5509 51.8249 30.9984C51.8421 31.4631 51.4635 31.8417 51.016 31.8417C50.5513 31.859 50.1898 31.4975 50.1726 31.0328C50.1726 30.5681 50.534 30.1895 50.9815 30.1895Z" fill="url(#paint25_linear)"/>
<path d="M50.9988 30.3438C51.3602 30.3438 51.67 30.6191 51.67 30.9978C51.67 31.3592 51.3946 31.669 51.016 31.669C50.6545 31.669 50.3447 31.3936 50.3447 31.015C50.3447 30.6536 50.6201 30.361 50.9988 30.3438Z" fill="url(#paint26_radial)"/>
<path d="M51.4806 30.9473V31.0677L50.4995 31.0849V30.9645L51.4806 30.9473ZM51.0503 30.5342H50.9298L50.947 30.9645H51.0675L51.0503 30.5342ZM51.0503 31.0677H50.9298L50.947 31.498H51.0675L51.0503 31.0677Z" fill="#5C5B5F"/>
<path d="M49.9818 37.9995C50.5325 37.9823 50.9972 38.4298 51.0145 38.9978C51.0317 39.5485 50.5842 40.0132 50.0334 40.0305C49.4827 40.0477 49.018 39.6002 49.0007 39.0494C48.9835 38.4814 49.4138 38.0167 49.9818 37.9995Z" fill="url(#paint27_linear)"/>
<path d="M49.9815 38.1904C50.4462 38.1904 50.8249 38.5519 50.8249 38.9994C50.8421 39.4641 50.4635 39.8427 50.016 39.8427C49.5513 39.8599 49.1898 39.4985 49.1726 39.0338C49.1726 38.5691 49.534 38.1904 49.9815 38.1904Z" fill="url(#paint28_linear)"/>
<path d="M49.9988 38.3447C50.3602 38.3447 50.67 38.6201 50.67 38.9988C50.67 39.3602 50.3946 39.67 50.016 39.67C49.6545 39.67 49.3447 39.3946 49.3447 39.016C49.3447 38.6545 49.6201 38.3619 49.9988 38.3447Z" fill="url(#paint29_radial)"/>
<path d="M50.4808 38.9463V39.0668L49.4998 39.084V38.9635L50.4808 38.9463ZM50.0505 38.5332H49.93L49.9472 38.9635H50.0677L50.0505 38.5332ZM50.0505 39.0668H49.93L49.9472 39.497H50.0677L50.0505 39.0668Z" fill="#5C5B5F"/>
<path d="M24.0331 13.0005C23.4824 12.9833 23.0176 13.4308 23.0004 13.9987C22.9832 14.5495 23.4307 15.0142 23.9815 15.0314C24.5322 15.0486 24.9969 14.6011 25.0141 14.0504C25.0314 13.4824 24.6011 13.0177 24.0331 13.0005Z" fill="url(#paint30_linear)"/>
<path d="M24.0331 13.1895C23.5684 13.1895 23.1898 13.5509 23.1898 13.9984C23.1726 14.4631 23.5512 14.8417 23.9987 14.8417C24.4634 14.859 24.8248 14.4975 24.842 14.0328C24.842 13.5681 24.4806 13.1895 24.0331 13.1895Z" fill="url(#paint31_linear)"/>
<path d="M24.0159 13.3438C23.6545 13.3438 23.3447 13.6191 23.3447 13.9978C23.3447 14.3592 23.62 14.669 23.9987 14.669C24.3601 14.669 24.6699 14.3936 24.6699 14.015C24.6699 13.6536 24.3945 13.361 24.0159 13.3438Z" fill="url(#paint32_radial)"/>
<path d="M23.5339 13.9463V14.0668L24.5149 14.084V13.9635L23.5339 13.9463ZM23.9641 13.5332H24.0846L24.0674 13.9635H23.9469L23.9641 13.5332ZM23.9641 14.0668H24.0846L24.0674 14.497H23.9469L23.9641 14.0668Z" fill="#5C5B5F"/>
<path d="M19.0329 16.9995C18.4821 16.9823 18.0174 17.4298 18.0002 17.9978C17.983 18.5485 18.4305 19.0132 18.9812 19.0305C19.532 19.0477 19.9967 18.6002 20.0139 18.0494C20.0311 17.4814 19.6008 17.0167 19.0329 16.9995Z" fill="url(#paint33_linear)"/>
<path d="M19.0331 17.1895C18.5684 17.1895 18.1898 17.5509 18.1898 17.9984C18.1726 18.4631 18.5512 18.8417 18.9987 18.8417C19.4634 18.859 19.8248 18.4975 19.842 18.0328C19.842 17.5681 19.4806 17.1895 19.0331 17.1895Z" fill="url(#paint34_linear)"/>
<path d="M19.0159 17.3438C18.6545 17.3438 18.3447 17.6191 18.3447 17.9978C18.3447 18.3592 18.62 18.669 18.9987 18.669C19.3601 18.669 19.6699 18.3936 19.6699 18.015C19.6699 17.6536 19.3945 17.361 19.0159 17.3438Z" fill="url(#paint35_radial)"/>
<path d="M18.5336 17.9473V18.0677L19.5146 18.0849V17.9645L18.5336 17.9473ZM18.9639 17.5342H19.0844L19.0672 17.9645H18.9467L18.9639 17.5342ZM18.9639 18.0677H19.0844L19.0672 18.498H18.9467L18.9639 18.0677Z" fill="#5C5B5F"/>
<path d="M15.0331 21.9995C14.4824 21.9823 14.0176 22.4298 14.0004 22.9978C13.9832 23.5485 14.4307 24.0132 14.9815 24.0305C15.5322 24.0477 15.9969 23.6002 16.0141 23.0494C16.0314 22.4814 15.6011 22.0167 15.0331 21.9995Z" fill="url(#paint36_linear)"/>
<path d="M15.0331 22.1904C14.5684 22.1904 14.1898 22.5519 14.1898 22.9994C14.1726 23.4641 14.5512 23.8427 14.9987 23.8427C15.4634 23.8599 15.8248 23.4985 15.842 23.0338C15.842 22.5691 15.4806 22.1904 15.0331 22.1904Z" fill="url(#paint37_linear)"/>
<path d="M14.5341 22.9463V23.0668L15.5151 23.084V22.9635L14.5341 22.9463ZM14.9644 22.5332H15.0849L15.0676 22.9635H14.9472L14.9644 22.5332ZM14.9644 23.0668H15.0849L15.0676 23.497H14.9472L14.9644 23.0668Z" fill="#5C5B5F"/>
<path d="M18.0334 43.9995C17.4826 43.9823 17.0179 44.4298 17.0007 44.9978C16.9835 45.5485 17.431 46.0132 17.9817 46.0305C18.5325 46.0477 18.9972 45.6002 19.0144 45.0494C19.0316 44.4814 18.6013 44.0167 18.0334 43.9995Z" fill="url(#paint38_linear)"/>
<path d="M18.0331 44.1895C17.5684 44.1895 17.1898 44.5509 17.1898 44.9984C17.1726 45.4631 17.5512 45.8417 17.9987 45.8417C18.4634 45.859 18.8248 45.4975 18.842 45.0328C18.842 44.5681 18.4806 44.1895 18.0331 44.1895Z" fill="url(#paint39_linear)"/>
<path d="M18.0159 44.3438C17.6545 44.3438 17.3447 44.6191 17.3447 44.9978C17.3447 45.3592 17.62 45.669 17.9987 45.669C18.3601 45.669 18.6699 45.3936 18.6699 45.015C18.6699 44.6536 18.3945 44.361 18.0159 44.3438Z" fill="url(#paint40_radial)"/>
<path d="M17.5339 44.9473V45.0677L18.5149 45.0849V44.9645L17.5339 44.9473ZM17.9641 44.5342H18.0846L18.0674 44.9645H17.9469L17.9641 44.5342ZM17.9641 45.0677H18.0846L18.0674 45.498H17.9469L17.9641 45.0677Z" fill="#5C5B5F"/>
<path d="M24.0331 47.9995C23.4824 47.9823 23.0176 48.4298 23.0004 48.9978C22.9832 49.5485 23.4307 50.0132 23.9815 50.0305C24.5322 50.0477 24.9969 49.6002 25.0141 49.0494C25.0314 48.4814 24.6011 48.0167 24.0331 47.9995Z" fill="url(#paint41_linear)"/>
<path d="M24.0331 48.1895C23.5684 48.1895 23.1898 48.5509 23.1898 48.9984C23.1726 49.4631 23.5512 49.8417 23.9987 49.8417C24.4634 49.859 24.8248 49.4975 24.842 49.0328C24.842 48.5681 24.4806 48.1895 24.0331 48.1895Z" fill="url(#paint42_linear)"/>
<path d="M24.0159 48.3438C23.6545 48.3438 23.3447 48.6191 23.3447 48.9978C23.3447 49.3592 23.62 49.669 23.9987 49.669C24.3601 49.669 24.6699 49.3936 24.6699 49.015C24.6699 48.6536 24.3945 48.361 24.0159 48.3438Z" fill="url(#paint43_radial)"/>
<path d="M23.5339 48.9463V49.0668L24.5149 49.084V48.9635L23.5339 48.9463ZM23.9641 48.5332H24.0846L24.0674 48.9635H23.9469L23.9641 48.5332ZM23.9641 49.0668H24.0846L24.0674 49.497H23.9469L23.9641 49.0668Z" fill="#5C5B5F"/>
<path d="M13.0331 29.9995C12.4824 29.9823 12.0176 30.4298 12.0004 30.9978C11.9832 31.5485 12.4307 32.0132 12.9815 32.0305C13.5322 32.0477 13.9969 31.6002 14.0141 31.0494C14.0314 30.4814 13.6011 30.0167 13.0331 29.9995Z" fill="url(#paint44_linear)"/>
<path d="M13.0334 30.1895C12.5687 30.1895 12.19 30.5509 12.19 30.9984C12.1728 31.4631 12.5514 31.8417 12.9989 31.8417C13.4636 31.859 13.8251 31.4975 13.8423 31.0328C13.8423 30.5681 13.4809 30.1895 13.0334 30.1895Z" fill="url(#paint45_linear)"/>
<path d="M13.0161 30.3438C12.6547 30.3438 12.3449 30.6191 12.3449 30.9978C12.3449 31.3592 12.6203 31.669 12.9989 31.669C13.3604 31.669 13.6702 31.3936 13.6702 31.015C13.6702 30.6536 13.3948 30.361 13.0161 30.3438Z" fill="url(#paint46_radial)"/>
<path d="M12.5336 30.9473V31.0677L13.5146 31.0849V30.9645L12.5336 30.9473ZM12.9639 30.5342H13.0844L13.0672 30.9645H12.9467L12.9639 30.5342ZM12.9639 31.0677H13.0844L13.0672 31.498H12.9467L12.9639 31.0677Z" fill="#5C5B5F"/>
<path d="M14.0329 37.9995C13.4821 37.9823 13.0174 38.4298 13.0002 38.9978C12.983 39.5485 13.4305 40.0132 13.9812 40.0305C14.532 40.0477 14.9967 39.6002 15.0139 39.0494C15.0311 38.4814 14.6008 38.0167 14.0329 37.9995Z" fill="url(#paint47_linear)"/>
<path d="M14.0331 38.1904C13.5684 38.1904 13.1898 38.5519 13.1898 38.9994C13.1726 39.4641 13.5512 39.8427 13.9987 39.8427C14.4634 39.8599 14.8248 39.4985 14.842 39.0338C14.842 38.5691 14.4806 38.1904 14.0331 38.1904Z" fill="url(#paint48_linear)"/>
<path d="M14.0159 38.3447C13.6545 38.3447 13.3447 38.6201 13.3447 38.9988C13.3447 39.3602 13.62 39.67 13.9987 39.67C14.3601 39.67 14.6699 39.3946 14.6699 39.016C14.6699 38.6545 14.3945 38.3619 14.0159 38.3447Z" fill="url(#paint49_radial)"/>
<path d="M13.5339 38.9463V39.0668L14.5149 39.084V38.9635L13.5339 38.9463ZM13.9641 38.5332H14.0846L14.0674 38.9635H13.9469L13.9641 38.5332ZM13.9641 39.0668H14.0846L14.0674 39.497H13.9469L13.9641 39.0668Z" fill="#5C5B5F"/>
<defs>
<linearGradient id="paint0_linear" x1="-4.7703" y1="-1.94925" x2="69.9602" y2="67.2621" gradientUnits="userSpaceOnUse">
<stop stop-color="#969699"/>
<stop offset="0.2788" stop-color="#B7ADAE"/>
<stop offset="1" stop-color="#E5E5E5"/>
</linearGradient>
<linearGradient id="paint1_linear" x1="31.9974" y1="1.10156" x2="31.9974" y2="62.8983" gradientUnits="userSpaceOnUse">
<stop stop-color="#F1E6E1"/>
<stop offset="1" stop-color="#CDC6C5"/>
</linearGradient>
<linearGradient id="paint2_linear" x1="55.0035" y1="31.4993" x2="7.99593" y2="31.4993" gradientUnits="userSpaceOnUse">
<stop stop-color="#545454"/>
<stop offset="0.3125" stop-color="#9A999E"/>
<stop offset="0.640625" stop-color="#F3F4F5"/>
<stop offset="1" stop-color="#414141"/>
</linearGradient>
<linearGradient id="paint3_linear" x1="7.17904" y1="31.741" x2="55.821" y2="31.741" gradientUnits="userSpaceOnUse">
<stop/>
<stop offset="0.00429839" stop-color="#090909"/>
<stop offset="0.0277675" stop-color="#373737"/>
<stop offset="0.0542172" stop-color="#626262"/>
<stop offset="0.0826444" stop-color="#888888"/>
<stop offset="0.1136" stop-color="#A8A8A8"/>
<stop offset="0.1478" stop-color="#C4C4C4"/>
<stop offset="0.1864" stop-color="#DADADA"/>
<stop offset="0.2315" stop-color="#EBEBEB"/>
<stop offset="0.2872" stop-color="#F6F6F6"/>
<stop offset="0.3654" stop-color="#FDFDFD"/>
<stop offset="0.5824" stop-color="white"/>
<stop offset="0.6688" stop-color="#BBBBBB"/>
<stop offset="0.8455" stop-color="#363636"/>
<stop offset="0.9231"/>
</linearGradient>
<linearGradient id="paint4_linear" x1="32.0209" y1="13.0191" x2="31.9783" y2="10.9972" gradientUnits="userSpaceOnUse">
<stop/>
<stop offset="0.2131" stop-color="#555558"/>
<stop offset="0.692" stop-color="#B1B1B6"/>
<stop offset="1" stop-color="#EDEEF0"/>
</linearGradient>
<linearGradient id="paint5_linear" x1="32.0252" y1="12.8121" x2="31.9902" y2="11.1519" gradientUnits="userSpaceOnUse">
<stop stop-color="#EDEEF0"/>
<stop offset="0.308" stop-color="#B1B1B6"/>
<stop offset="0.7869" stop-color="#555558"/>
<stop offset="1"/>
</linearGradient>
<radialGradient id="paint6_radial" cx="0" cy="0" r="1" gradientUnits="userSpaceOnUse" gradientTransform="translate(32.0114 12.0182) rotate(-91.2074) scale(0.664549)">
<stop stop-color="#D8DADE"/>
<stop offset="0.6496" stop-color="#969499"/>
<stop offset="1" stop-color="#737377"/>
</radialGradient>
<linearGradient id="paint7_linear" x1="32.0209" y1="52.02" x2="31.9783" y2="49.9981" gradientUnits="userSpaceOnUse">
<stop/>
<stop offset="0.2131" stop-color="#555558"/>
<stop offset="0.692" stop-color="#B1B1B6"/>
<stop offset="1" stop-color="#EDEEF0"/>
</linearGradient>
<linearGradient id="paint8_linear" x1="32.0252" y1="51.8131" x2="31.9902" y2="50.1529" gradientUnits="userSpaceOnUse">
<stop stop-color="#EDEEF0"/>
<stop offset="0.308" stop-color="#B1B1B6"/>
<stop offset="0.7869" stop-color="#555558"/>
<stop offset="1"/>
</linearGradient>
<radialGradient id="paint9_radial" cx="0" cy="0" r="1" gradientUnits="userSpaceOnUse" gradientTransform="translate(32.0114 51.0201) rotate(-91.2074) scale(0.664549)">
<stop stop-color="#D8DADE"/>
<stop offset="0.6496" stop-color="#969499"/>
<stop offset="1" stop-color="#737377"/>
</radialGradient>
<linearGradient id="paint10_linear" x1="40.0209" y1="15.02" x2="39.9783" y2="12.9981" gradientUnits="userSpaceOnUse">
<stop/>
<stop offset="0.2131" stop-color="#555558"/>
<stop offset="0.692" stop-color="#B1B1B6"/>
<stop offset="1" stop-color="#EDEEF0"/>
</linearGradient>
<linearGradient id="paint11_linear" x1="40.0252" y1="14.8111" x2="39.9902" y2="13.151" gradientUnits="userSpaceOnUse">
<stop stop-color="#EDEEF0"/>
<stop offset="0.308" stop-color="#B1B1B6"/>
<stop offset="0.7869" stop-color="#555558"/>
<stop offset="1"/>
</linearGradient>
<radialGradient id="paint12_radial" cx="0" cy="0" r="1" gradientUnits="userSpaceOnUse" gradientTransform="translate(40.0114 14.0191) rotate(-91.2074) scale(0.664549)">
<stop stop-color="#D8DADE"/>
<stop offset="0.6496" stop-color="#969499"/>
<stop offset="1" stop-color="#737377"/>
</radialGradient>
<linearGradient id="paint13_linear" x1="45.0209" y1="19.0191" x2="44.9783" y2="16.9972" gradientUnits="userSpaceOnUse">
<stop/>
<stop offset="0.2131" stop-color="#555558"/>
<stop offset="0.692" stop-color="#B1B1B6"/>
<stop offset="1" stop-color="#EDEEF0"/>
</linearGradient>
<linearGradient id="paint14_linear" x1="45.0252" y1="18.8111" x2="44.9902" y2="17.151" gradientUnits="userSpaceOnUse">
<stop stop-color="#EDEEF0"/>
<stop offset="0.308" stop-color="#B1B1B6"/>
<stop offset="0.7869" stop-color="#555558"/>
<stop offset="1"/>
</linearGradient>
<radialGradient id="paint15_radial" cx="0" cy="0" r="1" gradientUnits="userSpaceOnUse" gradientTransform="translate(45.0114 18.0191) rotate(-91.2074) scale(0.664549)">
<stop stop-color="#D8DADE"/>
<stop offset="0.6496" stop-color="#969499"/>
<stop offset="1" stop-color="#737377"/>
</radialGradient>
<linearGradient id="paint16_linear" x1="49.0209" y1="24.0191" x2="48.9783" y2="21.9972" gradientUnits="userSpaceOnUse">
<stop/>
<stop offset="0.2131" stop-color="#555558"/>
<stop offset="0.692" stop-color="#B1B1B6"/>
<stop offset="1" stop-color="#EDEEF0"/>
</linearGradient>
<linearGradient id="paint17_linear" x1="49.0252" y1="23.8121" x2="48.9902" y2="22.1519" gradientUnits="userSpaceOnUse">
<stop stop-color="#EDEEF0"/>
<stop offset="0.308" stop-color="#B1B1B6"/>
<stop offset="0.7869" stop-color="#555558"/>
<stop offset="1"/>
</linearGradient>
<linearGradient id="paint18_linear" x1="46.0209" y1="46.0191" x2="45.9783" y2="43.9972" gradientUnits="userSpaceOnUse">
<stop/>
<stop offset="0.2131" stop-color="#555558"/>
<stop offset="0.692" stop-color="#B1B1B6"/>
<stop offset="1" stop-color="#EDEEF0"/>
</linearGradient>
<linearGradient id="paint19_linear" x1="46.0252" y1="45.8111" x2="45.9902" y2="44.151" gradientUnits="userSpaceOnUse">
<stop stop-color="#EDEEF0"/>
<stop offset="0.308" stop-color="#B1B1B6"/>
<stop offset="0.7869" stop-color="#555558"/>
<stop offset="1"/>
</linearGradient>
<radialGradient id="paint20_radial" cx="0" cy="0" r="1" gradientUnits="userSpaceOnUse" gradientTransform="translate(46.0114 45.0191) rotate(-91.2074) scale(0.664549)">
<stop stop-color="#D8DADE"/>
<stop offset="0.6496" stop-color="#969499"/>
<stop offset="1" stop-color="#737377"/>
</radialGradient>
<linearGradient id="paint21_linear" x1="40.0209" y1="50.0191" x2="39.9783" y2="47.9972" gradientUnits="userSpaceOnUse">
<stop/>
<stop offset="0.2131" stop-color="#555558"/>
<stop offset="0.692" stop-color="#B1B1B6"/>
<stop offset="1" stop-color="#EDEEF0"/>
</linearGradient>
<linearGradient id="paint22_linear" x1="40.0252" y1="49.8111" x2="39.9902" y2="48.151" gradientUnits="userSpaceOnUse">
<stop stop-color="#EDEEF0"/>
<stop offset="0.308" stop-color="#B1B1B6"/>
<stop offset="0.7869" stop-color="#555558"/>
<stop offset="1"/>
</linearGradient>
<radialGradient id="paint23_radial" cx="0" cy="0" r="1" gradientUnits="userSpaceOnUse" gradientTransform="translate(40.0114 49.0191) rotate(-91.2074) scale(0.664549)">
<stop stop-color="#D8DADE"/>
<stop offset="0.6496" stop-color="#969499"/>
<stop offset="1" stop-color="#737377"/>
</radialGradient>
<linearGradient id="paint24_linear" x1="51.0207" y1="32.0191" x2="50.978" y2="29.9972" gradientUnits="userSpaceOnUse">
<stop/>
<stop offset="0.2131" stop-color="#555558"/>
<stop offset="0.692" stop-color="#B1B1B6"/>
<stop offset="1" stop-color="#EDEEF0"/>
</linearGradient>
<linearGradient id="paint25_linear" x1="51.0252" y1="31.8111" x2="50.9902" y2="30.151" gradientUnits="userSpaceOnUse">
<stop stop-color="#EDEEF0"/>
<stop offset="0.308" stop-color="#B1B1B6"/>
<stop offset="0.7869" stop-color="#555558"/>
<stop offset="1"/>
</linearGradient>
<radialGradient id="paint26_radial" cx="0" cy="0" r="1" gradientUnits="userSpaceOnUse" gradientTransform="translate(51.0114 31.0191) rotate(-91.2074) scale(0.664549)">
<stop stop-color="#D8DADE"/>
<stop offset="0.6496" stop-color="#969499"/>
<stop offset="1" stop-color="#737377"/>
</radialGradient>
<linearGradient id="paint27_linear" x1="50.0211" y1="40.0191" x2="49.9785" y2="37.9972" gradientUnits="userSpaceOnUse">
<stop/>
<stop offset="0.2131" stop-color="#555558"/>
<stop offset="0.692" stop-color="#B1B1B6"/>
<stop offset="1" stop-color="#EDEEF0"/>
</linearGradient>
<linearGradient id="paint28_linear" x1="50.0252" y1="39.8121" x2="49.9902" y2="38.1519" gradientUnits="userSpaceOnUse">
<stop stop-color="#EDEEF0"/>
<stop offset="0.308" stop-color="#B1B1B6"/>
<stop offset="0.7869" stop-color="#555558"/>
<stop offset="1"/>
</linearGradient>
<radialGradient id="paint29_radial" cx="0" cy="0" r="1" gradientUnits="userSpaceOnUse" gradientTransform="translate(50.0114 39.0201) rotate(-91.2074) scale(0.664549)">
<stop stop-color="#D8DADE"/>
<stop offset="0.6496" stop-color="#969499"/>
<stop offset="1" stop-color="#737377"/>
</radialGradient>
<linearGradient id="paint30_linear" x1="23.9937" y1="15.02" x2="24.0364" y2="12.9981" gradientUnits="userSpaceOnUse">
<stop/>
<stop offset="0.2131" stop-color="#555558"/>
<stop offset="0.692" stop-color="#B1B1B6"/>
<stop offset="1" stop-color="#EDEEF0"/>
</linearGradient>
<linearGradient id="paint31_linear" x1="23.9895" y1="14.8111" x2="24.0245" y2="13.151" gradientUnits="userSpaceOnUse">
<stop stop-color="#EDEEF0"/>
<stop offset="0.308" stop-color="#B1B1B6"/>
<stop offset="0.7869" stop-color="#555558"/>
<stop offset="1"/>
</linearGradient>
<radialGradient id="paint32_radial" cx="0" cy="0" r="1" gradientUnits="userSpaceOnUse" gradientTransform="translate(24.0033 14.0191) rotate(-88.7926) scale(0.664549)">
<stop stop-color="#D8DADE"/>
<stop offset="0.6496" stop-color="#969499"/>
<stop offset="1" stop-color="#737377"/>
</radialGradient>
<linearGradient id="paint33_linear" x1="18.9935" y1="19.0191" x2="19.0361" y2="16.9972" gradientUnits="userSpaceOnUse">
<stop/>
<stop offset="0.2131" stop-color="#555558"/>
<stop offset="0.692" stop-color="#B1B1B6"/>
<stop offset="1" stop-color="#EDEEF0"/>
</linearGradient>
<linearGradient id="paint34_linear" x1="18.9895" y1="18.8111" x2="19.0245" y2="17.151" gradientUnits="userSpaceOnUse">
<stop stop-color="#EDEEF0"/>
<stop offset="0.308" stop-color="#B1B1B6"/>
<stop offset="0.7869" stop-color="#555558"/>
<stop offset="1"/>
</linearGradient>
<radialGradient id="paint35_radial" cx="0" cy="0" r="1" gradientUnits="userSpaceOnUse" gradientTransform="translate(19.0033 18.0191) rotate(-88.7926) scale(0.664549)">
<stop stop-color="#D8DADE"/>
<stop offset="0.6496" stop-color="#969499"/>
<stop offset="1" stop-color="#737377"/>
</radialGradient>
<linearGradient id="paint36_linear" x1="14.9937" y1="24.0191" x2="15.0364" y2="21.9972" gradientUnits="userSpaceOnUse">
<stop/>
<stop offset="0.2131" stop-color="#555558"/>
<stop offset="0.692" stop-color="#B1B1B6"/>
<stop offset="1" stop-color="#EDEEF0"/>
</linearGradient>
<linearGradient id="paint37_linear" x1="14.9895" y1="23.8121" x2="15.0245" y2="22.1519" gradientUnits="userSpaceOnUse">
<stop stop-color="#EDEEF0"/>
<stop offset="0.308" stop-color="#B1B1B6"/>
<stop offset="0.7869" stop-color="#555558"/>
<stop offset="1"/>
</linearGradient>
<linearGradient id="paint38_linear" x1="17.994" y1="46.0191" x2="18.0366" y2="43.9972" gradientUnits="userSpaceOnUse">
<stop/>
<stop offset="0.2131" stop-color="#555558"/>
<stop offset="0.692" stop-color="#B1B1B6"/>
<stop offset="1" stop-color="#EDEEF0"/>
</linearGradient>
<linearGradient id="paint39_linear" x1="17.9895" y1="45.8111" x2="18.0245" y2="44.151" gradientUnits="userSpaceOnUse">
<stop stop-color="#EDEEF0"/>
<stop offset="0.308" stop-color="#B1B1B6"/>
<stop offset="0.7869" stop-color="#555558"/>
<stop offset="1"/>
</linearGradient>
<radialGradient id="paint40_radial" cx="0" cy="0" r="1" gradientUnits="userSpaceOnUse" gradientTransform="translate(18.0033 45.0191) rotate(-88.7926) scale(0.664549)">
<stop stop-color="#D8DADE"/>
<stop offset="0.6496" stop-color="#969499"/>
<stop offset="1" stop-color="#737377"/>
</radialGradient>
<linearGradient id="paint41_linear" x1="23.9937" y1="50.0191" x2="24.0364" y2="47.9972" gradientUnits="userSpaceOnUse">
<stop/>
<stop offset="0.2131" stop-color="#555558"/>
<stop offset="0.692" stop-color="#B1B1B6"/>
<stop offset="1" stop-color="#EDEEF0"/>
</linearGradient>
<linearGradient id="paint42_linear" x1="23.9895" y1="49.8111" x2="24.0245" y2="48.151" gradientUnits="userSpaceOnUse">
<stop stop-color="#EDEEF0"/>
<stop offset="0.308" stop-color="#B1B1B6"/>
<stop offset="0.7869" stop-color="#555558"/>
<stop offset="1"/>
</linearGradient>
<radialGradient id="paint43_radial" cx="0" cy="0" r="1" gradientUnits="userSpaceOnUse" gradientTransform="translate(24.0033 49.0191) rotate(-88.7926) scale(0.664549)">
<stop stop-color="#D8DADE"/>
<stop offset="0.6496" stop-color="#969499"/>
<stop offset="1" stop-color="#737377"/>
</radialGradient>
<linearGradient id="paint44_linear" x1="12.9937" y1="32.0191" x2="13.0364" y2="29.9972" gradientUnits="userSpaceOnUse">
<stop/>
<stop offset="0.2131" stop-color="#555558"/>
<stop offset="0.692" stop-color="#B1B1B6"/>
<stop offset="1" stop-color="#EDEEF0"/>
</linearGradient>
<linearGradient id="paint45_linear" x1="12.9897" y1="31.8111" x2="13.0247" y2="30.151" gradientUnits="userSpaceOnUse">
<stop stop-color="#EDEEF0"/>
<stop offset="0.308" stop-color="#B1B1B6"/>
<stop offset="0.7869" stop-color="#555558"/>
<stop offset="1"/>
</linearGradient>
<radialGradient id="paint46_radial" cx="0" cy="0" r="1" gradientUnits="userSpaceOnUse" gradientTransform="translate(13.0035 31.0191) rotate(-88.7926) scale(0.664549)">
<stop stop-color="#D8DADE"/>
<stop offset="0.6496" stop-color="#969499"/>
<stop offset="1" stop-color="#737377"/>
</radialGradient>
<linearGradient id="paint47_linear" x1="13.9935" y1="40.0191" x2="14.0361" y2="37.9972" gradientUnits="userSpaceOnUse">
<stop/>
<stop offset="0.2131" stop-color="#555558"/>
<stop offset="0.692" stop-color="#B1B1B6"/>
<stop offset="1" stop-color="#EDEEF0"/>
</linearGradient>
<linearGradient id="paint48_linear" x1="13.9895" y1="39.8121" x2="14.0245" y2="38.1519" gradientUnits="userSpaceOnUse">
<stop stop-color="#EDEEF0"/>
<stop offset="0.308" stop-color="#B1B1B6"/>
<stop offset="0.7869" stop-color="#555558"/>
<stop offset="1"/>
</linearGradient>
<radialGradient id="paint49_radial" cx="0" cy="0" r="1" gradientUnits="userSpaceOnUse" gradientTransform="translate(14.0033 39.0201) rotate(-88.7926) scale(0.664549)">
<stop stop-color="#D8DADE"/>
<stop offset="0.6496" stop-color="#969499"/>
<stop offset="1" stop-color="#737377"/>
</radialGradient>
</defs>
</svg>
