<svg width="37" height="37" viewBox="0 0 37 37" fill="none" xmlns="http://www.w3.org/2000/svg">
<path d="M35 0H2C0.895431 0 0 0.895431 0 2V35C0 36.1046 0.895432 37 2 37H35C36.1046 37 37 36.1046 37 35V2C37 0.89543 36.1046 0 35 0Z" fill="url(#paint0_linear)"/>
<path d="M34.3649 0.635742H2.63721C1.53264 0.635742 0.637207 1.53117 0.637207 2.63574V34.362C0.637207 35.4665 1.53264 36.362 2.63721 36.362H34.3649C35.4694 36.362 36.3649 35.4665 36.3649 34.362V2.63574C36.3649 1.53117 35.4694 0.635742 34.3649 0.635742Z" fill="url(#paint1_linear)"/>
<path opacity="0.8" d="M19 33C27.2843 33 34 26.2843 34 18C34 9.71573 27.2843 3 19 3C10.7157 3 4 9.71573 4 18C4 26.2843 10.7157 33 19 33Z" stroke="url(#paint2_linear)" stroke-width="2" stroke-miterlimit="10"/>
<path d="M19 33C27.2843 33 34 26.2843 34 18C34 9.71573 27.2843 3 19 3C10.7157 3 4 9.71573 4 18C4 26.2843 10.7157 33 19 33Z" fill="url(#paint3_linear)"/>
<path d="M12.9101 8.65918H12.239V27.8111H12.9101V8.65918Z" fill="#09323B"/>
<path d="M24.997 8.65918H24.3259V27.8111H24.997V8.65918Z" fill="#09323B"/>
<path opacity="0.3" d="M12.2095 8.65874C12.2095 8.65874 11.4351 13.0393 15.4838 15.8343C19.5325 18.6292 15.6165 18.7694 13.6254 21.498C11.6342 24.2266 11.8702 27.8033 11.8702 27.8033H25.2036C25.2036 27.8033 25.6018 23.2531 22.298 20.554C18.9941 17.8549 19.4661 17.2502 21.9514 15.6573C23.9499 14.3815 24.7832 11.0112 24.7832 8.65137H12.2095V8.65874Z" fill="white"/>
<path d="M12.342 27.8035C12.342 27.8035 12.4379 25.3109 12.9099 24.0793C13.3819 22.8404 18.5072 20.9746 18.5072 20.9746C18.5072 20.9746 23.1459 22.3979 24.0308 23.8655C24.5692 24.7578 24.7683 26.7047 24.7609 27.7445L12.342 27.8035Z" fill="#FFB756"/>
<path d="M22.3274 14.5225H14.6799C14.6799 14.5225 15.4026 15.2747 16.7153 16.2629C18.028 17.2584 18.2861 17.8484 18.3377 19.0505C18.3894 20.2599 18.4189 22.8632 18.4189 22.8632L18.7802 23.1065V19.1095C18.7802 19.1095 18.4852 17.2879 20.3142 16.1596C22.1431 15.0313 22.3274 14.5225 22.3274 14.5225Z" fill="#FFB756"/>
<path opacity="0.7" d="M13.6845 8.69679C13.6771 8.73367 13.6771 8.79266 13.6697 8.84429C13.6623 8.89591 13.6623 8.95491 13.6623 9.00653C13.655 9.11715 13.655 9.22777 13.655 9.33101C13.655 9.55225 13.6624 9.77349 13.6845 9.99473C13.7213 10.4372 13.7877 10.8723 13.891 11.3074C14.0975 12.1702 14.4441 13.0036 14.9603 13.7337L15.0562 13.8738L15.1594 14.0065C15.2258 14.095 15.2995 14.1835 15.3733 14.272L15.5945 14.5375L15.8157 14.803C16.1181 15.1496 16.4205 15.4962 16.7302 15.8354C17.0399 16.182 17.357 16.5213 17.6225 16.9121C17.7479 17.1112 17.8659 17.3177 17.9249 17.5464C17.9839 17.775 17.9986 18.011 17.9986 18.2396C17.9839 18.011 17.947 17.7823 17.8733 17.5685C17.7995 17.3546 17.6741 17.1629 17.534 16.9859C17.2538 16.6319 16.9072 16.3222 16.5753 16.0051C16.2361 15.6879 15.9042 15.3708 15.5724 15.0464L15.3216 14.803L15.0783 14.5523C14.9972 14.4711 14.916 14.39 14.8349 14.3015L14.7169 14.1688L14.5916 14.0065C13.9795 13.2691 13.5296 12.3989 13.2272 11.4918C13.0798 11.0346 12.9618 10.5626 12.888 10.0906C12.8511 9.85461 12.8216 9.61125 12.7995 9.36788C12.7921 9.24989 12.7848 9.12452 12.7774 9.00653C12.7774 8.94753 12.77 8.88116 12.77 8.82216C12.77 8.75579 12.77 8.70417 12.77 8.62305L13.6845 8.69679Z" fill="white"/>
<path d="M26 7H11V8.65929H26V7Z" fill="#09323B"/>
<path opacity="0.7" d="M16.3614 20.0977C16.0812 20.3115 15.8452 20.577 15.624 20.8572C15.4027 21.1301 15.2184 21.4325 15.0488 21.7348C14.7095 22.3469 14.4662 23.0033 14.2892 23.6744L14.1638 24.1758L14.0679 24.6921L14.0237 24.9502L13.9942 25.2083L13.9352 25.7245C13.9204 25.813 13.9204 25.8941 13.9204 25.9826L13.9057 26.2407L13.8836 26.7569L13.9057 27.7968H13.0945L13.1756 26.7127L13.2493 26.1744L13.2862 25.9089C13.301 25.8204 13.3083 25.7319 13.3305 25.6434L13.4411 25.1124L13.5001 24.8469L13.5738 24.5814L13.7213 24.0578L13.9057 23.549C14.1638 22.8705 14.4735 22.2215 14.8791 21.6242C15.0856 21.3292 15.2995 21.0416 15.5502 20.7835C15.801 20.5328 16.0665 20.2894 16.3614 20.0977Z" fill="white"/>
<path d="M26 27.8037H11V29.463H26V27.8037Z" fill="#09323B"/>
<defs>
<linearGradient id="paint0_linear" x1="-2.75819" y1="-1.12691" x2="40.4458" y2="38.8916" gradientUnits="userSpaceOnUse">
<stop stop-color="#969699"/>
<stop offset="0.2788" stop-color="#B7ADAE"/>
<stop offset="1" stop-color="#E5E5E5"/>
</linearGradient>
<linearGradient id="paint1_linear" x1="18.501" y1="0.635742" x2="18.501" y2="36.362" gradientUnits="userSpaceOnUse">
<stop stop-color="#EAE0DC"/>
<stop offset="1" stop-color="#D3CCCA"/>
</linearGradient>
<linearGradient id="paint2_linear" x1="3.47598" y1="18" x2="34.524" y2="18" gradientUnits="userSpaceOnUse">
<stop/>
<stop offset="0.00429839" stop-color="#090909"/>
<stop offset="0.0277675" stop-color="#373737"/>
<stop offset="0.0542172" stop-color="#626262"/>
<stop offset="0.0826444" stop-color="#888888"/>
<stop offset="0.1136" stop-color="#A8A8A8"/>
<stop offset="0.1478" stop-color="#C4C4C4"/>
<stop offset="0.1864" stop-color="#DADADA"/>
<stop offset="0.2315" stop-color="#EBEBEB"/>
<stop offset="0.2872" stop-color="#F6F6F6"/>
<stop offset="0.3654" stop-color="#FDFDFD"/>
<stop offset="0.5824" stop-color="white"/>
<stop offset="0.6688" stop-color="#BBBBBB"/>
<stop offset="0.8455" stop-color="#363636"/>
<stop offset="0.9231"/>
</linearGradient>
<linearGradient id="paint3_linear" x1="19" y1="3" x2="19" y2="33" gradientUnits="userSpaceOnUse">
<stop offset="0.317708" stop-color="#A3A073"/>
<stop offset="1" stop-color="#FFF30C"/>
</linearGradient>
</defs>
</svg>
