<svg width="37" height="37" viewBox="0 0 37 37" fill="none" xmlns="http://www.w3.org/2000/svg">
<path d="M35 0H2C0.895431 0 0 0.895431 0 2V35C0 36.1046 0.895432 37 2 37H35C36.1046 37 37 36.1046 37 35V2C37 0.89543 36.1046 0 35 0Z" fill="url(#paint0_linear)"/>
<path d="M34.3649 0.636719H2.63721C1.53264 0.636719 0.637207 1.53215 0.637207 2.63672V34.3629C0.637207 35.4675 1.53264 36.3629 2.63721 36.3629H34.3649C35.4694 36.3629 36.3649 35.4675 36.3649 34.3629V2.63672C36.3649 1.53215 35.4694 0.636719 34.3649 0.636719Z" fill="url(#paint1_linear)"/>
<path d="M18.4984 30.3999C25.0965 30.3999 30.4454 25.0598 30.4454 18.4724C30.4454 11.885 25.0965 6.54492 18.4984 6.54492C11.9003 6.54492 6.55151 11.885 6.55151 18.4724C6.55151 25.0598 11.9003 30.3999 18.4984 30.3999Z" fill="url(#paint2_linear)"/>
<path d="M3.39624 18.4714C3.39624 14.4293 4.97589 10.639 7.82988 7.7897C10.6839 4.94036 14.4803 3.36328 18.529 3.36328C22.5777 3.36328 26.3742 4.94036 29.2281 7.7897C32.0821 10.639 33.6618 14.4293 33.6618 18.4714C33.6618 22.5135 32.0821 26.3038 29.2281 29.1531C26.3742 32.0025 22.5644 33.5796 18.529 33.5796C14.4936 33.5796 10.6839 32.0025 7.82988 29.1531C4.97589 26.3038 3.39624 22.5135 3.39624 18.4714ZM33.3299 18.4714C33.3299 10.321 26.6927 3.6946 18.529 3.6946C10.3653 3.6946 3.7281 10.321 3.7281 18.4714C3.7281 26.6219 10.3653 33.2482 18.529 33.2482C26.6927 33.2482 33.3299 26.6219 33.3299 18.4714ZM6.2635 18.4714C6.2635 15.198 7.53784 12.1234 9.86085 9.80412C12.1706 7.49814 15.2502 6.22588 18.529 6.22588C21.8078 6.22588 24.8874 7.49814 27.2104 9.81737C29.5335 12.1366 30.8078 15.2112 30.8078 18.4847C30.8078 21.7581 29.5335 24.8327 27.2104 27.152C24.8874 29.4712 21.8078 30.7435 18.529 30.7435C15.2502 30.7435 12.1706 29.4712 9.84758 27.152C7.53784 24.8195 6.2635 21.7449 6.2635 18.4714ZM30.4759 18.4714C30.4759 11.8981 25.1131 6.54394 18.529 6.54394C11.9449 6.54394 6.58209 11.8981 6.58209 18.4714C6.58209 25.0448 11.9449 30.3989 18.529 30.3989C25.1131 30.3989 30.4759 25.0448 30.4759 18.4714Z" fill="url(#paint3_linear)"/>
<path d="M4.63223 26.9835C4.8868 27.447 5.1891 27.8951 5.49141 28.3122C6.09602 29.0075 6.76427 29.6255 7.48025 30.1971C8.00531 30.5679 8.53036 30.9387 9.07133 31.294C9.10315 30.4289 9.15089 29.5637 9.18271 28.683C9.3259 25.284 9.45319 21.8387 9.58048 18.4397C9.75549 14.1601 9.86687 9.80326 9.94642 5.36914C9.6123 5.55454 9.27817 5.73994 8.95996 5.97169C8.60992 6.26523 8.2917 6.57423 7.9894 6.89868C7.27341 7.93382 6.82791 9.07711 6.19148 10.1586C5.4755 11.3637 4.53676 12.4297 3.88442 13.6657C3.78895 13.8511 3.67758 14.0056 3.55029 14.1601V25.9175C3.99579 26.1647 4.37765 26.52 4.63223 26.9835Z" fill="url(#paint4_radial)"/>
<path d="M4.63296 26.9836C4.88753 27.4471 5.18984 27.8951 5.49214 28.3123C5.77853 28.6367 6.08084 28.9611 6.39905 29.2547C7.17868 22.7966 7.57645 15.6279 7.95831 8.55185C7.99013 7.98021 8.02195 7.40856 8.05377 6.83691C8.03786 6.85236 8.00604 6.88326 7.99013 6.89871C7.27415 7.93386 6.82864 9.07715 6.19221 10.1586C5.47623 11.3637 4.53749 12.4298 3.88515 13.6658C3.78969 13.8512 3.67831 14.0057 3.55103 14.1602V25.9175C3.99653 26.1647 4.37839 26.5201 4.63296 26.9836Z" fill="url(#paint5_radial)"/>
<path d="M4.63223 26.9839C4.8868 27.4474 5.1891 27.8955 5.49141 28.3126C6.09602 29.0079 6.76427 29.6259 7.48025 30.1975C9.40546 31.588 11.4898 32.8394 13.6855 33.8128H13.94L14.0673 4.45801C13.6059 4.45801 13.1445 4.48891 12.6831 4.53526C11.9353 4.65886 11.2034 4.84425 10.5033 5.09145C9.96233 5.33865 9.45319 5.6322 8.95995 5.95665C8.60992 6.25019 8.2917 6.55919 7.9894 6.88364C7.27341 7.91878 6.82791 9.06207 6.19148 10.1436C5.4755 11.3641 4.53676 12.4301 3.88442 13.6661C3.78895 13.8515 3.67758 14.006 3.55029 14.1605V25.9179C3.99579 26.1651 4.37765 26.5204 4.63223 26.9839Z" fill="url(#paint6_radial)"/>
<path d="M3.82422 26.0878C4.15834 26.3196 4.42883 26.6286 4.63567 26.9839C4.89024 27.4474 5.19254 27.8955 5.49485 28.3126C6.09946 29.0079 6.76771 29.6259 7.4837 30.1975C9.36117 31.5571 11.3977 32.7776 13.5457 33.7355C13.8639 25.9179 13.9912 17.8067 13.9912 9.51012C13.9912 7.82608 13.9912 6.14205 13.9912 4.45801C13.5616 4.45801 13.1161 4.48891 12.6865 4.51981C11.9387 4.64341 11.2068 4.8288 10.5067 5.076C9.96578 5.3232 9.45663 5.61675 8.9634 5.9412C8.61336 6.23474 8.29515 6.54374 7.99284 6.86819C7.27686 7.90333 6.83135 9.04662 6.19492 10.1281C5.47894 11.3641 4.5402 12.4301 3.88786 13.6661C3.88786 13.6661 3.88786 13.6816 3.87195 13.6816C3.91968 17.884 3.88786 22.0091 3.82422 26.0878Z" fill="url(#paint7_radial)"/>
<path d="M5.62158 28.467C6.19437 29.1005 6.81489 29.6721 7.48314 30.2129C8.93102 31.2635 10.4903 32.2368 12.0973 33.0556C12.3041 27.4319 12.495 21.7618 12.6382 16.0453C12.7019 13.357 12.7655 10.6533 12.7973 7.91868C12.8133 6.79084 12.8292 5.663 12.8292 4.53516C12.7814 4.53516 12.7337 4.55061 12.686 4.55061C11.9382 4.67421 11.2063 4.8596 10.5062 5.1068C9.96522 5.354 9.45608 5.64755 8.96284 5.972C8.61281 6.26554 8.29459 6.57454 7.99229 6.89899C7.2763 7.93413 6.8308 9.07742 6.19437 10.1589C6.01935 10.4525 5.82842 10.746 5.62158 11.0396C5.63749 11.9202 5.63749 12.8008 5.6534 13.6815C5.68523 18.6718 5.66931 23.5849 5.62158 28.467Z" fill="url(#paint8_radial)"/>
<path d="M7.24444 23.7858C7.24444 25.856 7.24444 27.9263 7.22853 29.9966C7.30808 30.0739 7.40355 30.1357 7.4831 30.2129C8.62868 31.0472 9.82198 31.8197 11.063 32.5149C11.1903 29.1932 11.3017 25.8251 11.3812 22.4262C11.4449 19.5525 11.5085 16.617 11.5244 13.6815C11.5403 10.7615 11.5403 7.77968 11.5403 4.79785C11.1903 4.89055 10.8244 4.9987 10.4902 5.1223C9.94927 5.3695 9.44012 5.66305 8.94689 5.98749C8.59685 6.28104 8.27864 6.59004 7.97633 6.91449C7.61039 7.43978 7.32399 7.99598 7.0376 8.55217C7.10124 10.4834 7.14897 12.3837 7.18079 14.2377C7.24444 17.4359 7.24444 20.634 7.24444 23.7858Z" fill="url(#paint9_radial)"/>
<path d="M8.96199 5.97241C8.75515 6.14236 8.56422 6.31231 8.37329 6.49771C8.37329 8.1045 8.3892 9.72674 8.40511 11.3644C8.42102 13.0639 8.43693 14.7943 8.46876 16.5865C8.5324 19.8155 9.1211 22.9055 9.34385 20.6962C9.48705 19.3211 9.61433 17.8997 9.7098 16.432C9.82117 14.9642 9.91664 13.4502 9.96437 11.8897C10.0439 9.72674 10.1076 7.5174 10.1553 5.26172C9.74162 5.46257 9.34385 5.70977 8.96199 5.97241Z" fill="url(#paint10_radial)"/>
<path d="M7.68902 15.7203C7.6572 20.5871 7.57764 25.4074 7.48218 30.1969C9.20054 31.4329 11.0462 32.5607 12.9714 33.4723C13.1464 25.8091 13.2737 18.0687 13.3214 10.1893C13.3214 8.6443 13.3373 7.09931 13.3214 5.53887C13.3214 5.18353 13.3214 4.84363 13.3214 4.48828C13.1146 4.50373 12.8918 4.51918 12.685 4.53463C11.9372 4.65823 11.2053 4.84363 10.5052 5.09083C9.96426 5.33802 9.45511 5.63157 8.96188 5.95602C8.61184 6.24957 8.29363 6.55857 7.99132 6.88301C7.86404 7.05296 7.75266 7.22291 7.6572 7.40831C7.68902 10.2356 7.72084 13.0166 7.68902 15.7203Z" fill="url(#paint11_radial)"/>
<path d="M8.88238 31.1561C9.99613 31.8977 11.1576 32.562 12.3509 33.1646C12.5419 23.7247 12.6532 14.1612 12.701 4.52051C11.9532 4.64411 11.2213 4.82951 10.5212 5.0767C9.98022 5.3239 9.47108 5.61745 8.97784 5.9419C8.88238 6.0346 8.771 6.11185 8.67554 6.20455C8.85056 14.702 8.94602 23.0758 8.88238 31.1561Z" fill="url(#paint12_radial)"/>
<path d="M9.51922 31.5731C10.2511 32.0366 11.0148 32.4692 11.7785 32.8863C11.7945 31.913 11.8263 30.9396 11.8422 29.9663C12.0172 21.7469 12.0331 13.2186 12.0172 4.6748C11.4922 4.78295 10.9989 4.922 10.5057 5.09195C10.1079 5.27735 9.72606 5.4782 9.36011 5.70995C9.48739 14.4546 9.56695 23.1065 9.51922 31.5731Z" fill="url(#paint13_radial)"/>
<path d="M10.0132 31.8818C10.411 32.1136 10.8087 32.3453 11.2065 32.5771C11.3338 23.4308 11.3656 14.1299 11.3815 4.8291C11.0792 4.90635 10.7928 4.99905 10.5064 5.1072C10.2996 5.1999 10.1087 5.30805 9.91772 5.40075C10.0291 14.3771 10.0927 23.2763 10.0132 31.8818Z" fill="url(#paint14_radial)"/>
<path d="M10.5375 25.471C10.5216 27.6958 10.4738 29.9206 10.4261 32.1145C10.5375 32.1763 10.6489 32.2381 10.7602 32.2999C10.9671 23.3389 11.0944 14.239 11.0148 4.90723C10.8398 4.95358 10.6648 5.01538 10.5057 5.07718C10.4738 5.09263 10.4261 5.10808 10.3943 5.12352C10.5057 12.0605 10.6011 18.9048 10.5375 25.471Z" fill="url(#paint15_radial)"/>
<path d="M4.63149 26.984C4.88607 27.4475 5.18837 27.8956 5.49067 28.3127C6.09528 29.008 6.76354 29.626 7.47952 30.1976C8.46599 30.9238 9.5161 31.6036 10.5821 32.2215C10.6139 29.7032 10.6458 27.1849 10.6776 24.6511C10.6935 23.0752 10.7094 21.4839 10.7253 19.8925C10.7412 18.1467 10.7571 16.4163 10.7731 14.7014C10.789 11.4724 10.8208 8.22787 10.8367 4.9834C10.7094 5.02975 10.598 5.06065 10.5026 5.09155C9.9616 5.33875 9.45246 5.63229 8.95922 5.95674C8.60919 6.25029 8.29097 6.55929 7.98867 6.88373C7.27268 7.91888 6.82718 9.06217 6.19075 10.1437C5.47476 11.3642 4.53603 12.4302 3.88369 13.6662C3.78822 13.8516 3.67685 14.0061 3.54956 14.1606V25.918C3.99506 26.1652 4.37692 26.5205 4.63149 26.984Z" fill="url(#paint16_radial)"/>
<path d="M4.63324 26.9836C4.88782 27.4471 5.19012 27.8952 5.49243 28.3123C6.09703 29.0076 6.76529 29.6256 7.48127 30.1972C8.27681 30.7843 9.12008 31.3405 9.96335 31.8503C9.99517 24.8515 10.0111 17.8373 10.0429 10.854C10.0429 9.40166 10.0588 7.99572 10.0588 6.55888C10.0588 6.14174 10.0588 5.70914 10.0588 5.29199C9.67696 5.49284 9.2951 5.70914 8.92915 5.95634C8.57911 6.24989 8.2609 6.55888 7.9586 6.88333C7.24261 7.91847 6.79711 9.06176 6.16068 10.1433C5.47651 11.3638 4.53778 12.4298 3.88544 13.6658C3.82179 13.7894 3.74224 13.8976 3.66269 14.0057C3.63087 16.4777 3.58313 18.9342 3.5354 21.3908V25.9021C3.99681 26.1648 4.37867 26.5201 4.63324 26.9836Z" fill="url(#paint17_radial)"/>
<path d="M4.63324 26.9836C4.88781 27.4471 5.19012 27.8952 5.49242 28.3123C6.09703 29.0076 6.76528 29.6256 7.48127 30.1972C8.05406 30.6144 8.64275 31.0161 9.24736 31.4023C9.26327 22.8431 9.31101 14.3147 9.31101 5.72461C9.18372 5.80186 9.07235 5.87911 8.94506 5.95636C8.59502 6.24991 8.27681 6.5589 7.9745 6.88335C7.25852 7.91849 6.81302 9.06178 6.17658 10.1433C5.71517 10.9158 5.1583 11.6419 4.64915 12.399C4.52186 17.0803 4.39458 21.7925 4.2832 26.5202C4.4264 26.6592 4.53778 26.8137 4.63324 26.9836Z" fill="url(#paint18_radial)"/>
<path d="M7.49641 30.1974C7.7669 30.3982 8.03738 30.5836 8.30786 30.769C8.37151 22.627 8.48288 14.5158 8.53062 6.34277C8.33969 6.51272 8.16467 6.69812 7.98965 6.89897C7.27366 7.93411 6.82816 9.0774 6.19173 10.1589C6.08036 10.3288 5.96898 10.5142 5.85761 10.6842C5.74623 16.586 5.63485 22.4725 5.50757 28.3434C6.11218 29.0232 6.76452 29.6412 7.49641 30.1974Z" fill="url(#paint19_radial)"/>
<path d="M7.29026 30.0259C7.40163 22.5327 7.51301 15.0395 7.60847 7.5C7.29026 8.0562 7.00386 8.62784 6.71747 9.19949C6.622 15.9047 6.49472 22.5482 6.36743 29.1916C6.63791 29.4852 6.95613 29.7633 7.29026 30.0259Z" fill="url(#paint20_radial)"/>
<path d="M12.303 9.75634C12.3348 17.6358 12.2075 25.3298 12.1121 33.0548C12.6371 33.3174 13.1622 33.5646 13.6872 33.8118H13.9418L14.0691 4.45703C13.6077 4.45703 13.1463 4.48793 12.6848 4.53428C12.5417 4.54973 12.4144 4.58063 12.2712 4.61153C12.2712 4.84328 12.2712 5.09048 12.2712 5.32222C12.2871 6.78996 12.2871 8.27315 12.303 9.75634Z" fill="url(#paint21_radial)"/>
<path d="M13.7027 33.811H13.9573C13.9891 24.0312 14.0369 14.2515 14.0687 4.47168C13.655 4.47168 13.2413 4.48713 12.8277 4.53348C12.8117 5.01243 12.7958 5.49137 12.7958 5.97032C12.7799 6.89731 12.7481 7.8552 12.7481 8.844C12.7163 16.9088 12.6526 25.1282 12.5413 33.2703C12.9072 33.4557 13.305 33.6411 13.7027 33.811Z" fill="url(#paint22_radial)"/>
<path d="M3.86938 26.1178C4.17169 26.3496 4.44217 26.6277 4.6331 26.983C4.88767 27.4465 5.18998 27.8946 5.49228 28.3117C6.09689 29.0069 6.76515 29.6249 7.48113 30.1966C8.59488 31 9.75637 31.757 10.9656 32.4368C11.1565 28.2654 11.3793 24.1248 11.5384 19.9997C11.602 18.5937 11.6179 17.1723 11.6498 15.8745C11.6816 14.3141 11.6975 12.7691 11.7134 11.2241C11.7293 9.52464 11.7452 7.8097 11.7452 6.09477C11.7452 5.63127 11.7452 5.18322 11.7452 4.71973C11.3156 4.82788 10.9019 4.95147 10.4883 5.09052C9.9473 5.33772 9.43816 5.63127 8.94492 5.95572C8.59488 6.24927 8.27667 6.55826 7.97436 6.88271C7.25838 7.91785 6.81288 9.06114 6.17645 10.1426C5.47637 11.3632 4.53764 12.4292 3.8853 13.6652C3.93303 15.2102 3.94894 16.7243 3.94894 18.1766C3.94894 20.4168 3.8853 22.6879 3.86938 24.9436C3.86938 25.3299 3.86938 25.7316 3.86938 26.1178Z" fill="url(#paint23_radial)"/>
<path d="M7.49823 30.1958C8.03919 30.5975 8.59607 30.9683 9.16886 31.3391C9.42343 22.6253 9.74164 13.9889 9.99622 5.33691C9.64618 5.52231 9.29614 5.72316 8.96202 5.95491C8.61198 6.24846 8.29376 6.55746 7.99146 6.8819C7.27548 7.91705 6.82997 9.06034 6.19354 10.1418C6.16172 10.2036 6.11399 10.2654 6.08217 10.3272C6.01852 16.4454 5.92306 22.5481 5.84351 28.6662C6.33674 29.2379 6.89362 29.7323 7.49823 30.1958Z" fill="url(#paint24_radial)"/>
<path d="M7.49785 30.1978C7.84789 30.445 8.19793 30.6922 8.56388 30.9394C8.77072 22.5192 9.05711 14.1453 9.24804 5.77148C9.15257 5.83328 9.05711 5.89508 8.96165 5.95688C8.61161 6.25043 8.29339 6.55943 7.99109 6.88388C7.5615 7.50187 7.22737 8.16622 6.89324 8.83056C6.79778 15.6594 6.6864 22.5346 6.63867 29.4562C6.90916 29.7188 7.19555 29.966 7.49785 30.1978Z" fill="url(#paint25_radial)"/>
<path d="M7.49822 30.1971C7.67324 30.3207 7.84826 30.4443 8.02328 30.5679C8.21421 24.4806 8.45287 18.4397 8.61198 12.3988C8.67562 10.3594 8.70744 8.25824 8.73926 6.1416C8.46878 6.37335 8.21421 6.62055 7.99146 6.8832C7.94373 6.96045 7.88008 7.0377 7.83235 7.11494C7.83235 7.28489 7.83235 7.43939 7.81644 7.60934C7.72098 13.2485 7.53005 18.7951 7.37094 24.2952C7.32321 26.1647 7.27547 28.0804 7.24365 29.9962C7.32321 30.0735 7.40276 30.1353 7.49822 30.1971Z" fill="url(#paint26_radial)"/>
<path d="M10.5365 25.4689C10.5205 27.6319 10.616 29.9648 10.7115 32.2823C11.682 32.8385 12.6844 33.3483 13.7027 33.7964H13.9573L14.0686 4.45703C13.6072 4.45703 13.1458 4.48793 12.6844 4.53428C11.9366 4.65788 11.2047 4.84328 10.5046 5.09048C10.3137 5.18318 10.1228 5.27588 9.94775 5.36857C10.2978 12.321 10.6001 19.1808 10.5365 25.4689Z" fill="url(#paint27_radial)"/>
<path d="M13.6233 33.7801C13.6393 33.3012 13.6393 32.8222 13.6552 32.3433C13.8461 23.2896 13.8302 13.8652 13.8143 4.47168C13.4324 4.48713 13.0665 4.50258 12.6846 4.53348C11.9845 4.65708 11.2845 4.82703 10.6162 5.05878C11.0776 14.5605 11.4277 23.8922 11.4754 32.7141C12.1755 33.1003 12.8915 33.4557 13.6233 33.7801Z" fill="url(#paint28_radial)"/>
<path d="M11.9525 32.9771C12.3185 33.1625 12.6844 33.3479 13.0663 33.5333C13.1777 23.9543 13.2095 14.2209 13.2254 4.50293C13.0504 4.51838 12.8594 4.53383 12.6844 4.54928C12.398 4.59563 12.0957 4.65743 11.8093 4.71923C11.9525 14.2827 12.0321 23.7844 11.9525 32.9771Z" fill="url(#paint29_radial)"/>
<path d="M13.7033 33.8122H21.595C21.5473 31.4175 21.4836 29.0073 21.4041 26.5662C21.2927 23.3526 21.1972 20.1236 21.0859 16.8791C21.0063 14.4844 20.9108 12.1515 20.8154 9.84945C19.6698 7.74827 18.5083 5.64708 17.3627 3.5459H16.3126C15.7398 4.10209 14.9602 4.45744 14.0851 4.45744C13.8783 4.45744 13.6874 4.45744 13.4805 4.47289C13.4487 14.2063 13.401 23.9397 13.3691 33.6577C13.4964 33.7195 13.5919 33.7659 13.7033 33.8122Z" fill="url(#paint30_radial)"/>
<path d="M13.7015 33.8103H19.8749C19.8272 32.6206 19.7635 31.431 19.7158 30.2413C19.3021 21.9757 18.9043 13.6018 17.9179 4.56364C17.711 4.19284 17.536 3.86839 17.361 3.54395H16.3109C15.7381 4.10014 14.9585 4.45549 14.0834 4.45549C13.9243 4.45549 13.7811 4.45549 13.622 4.47094C13.5742 4.88809 13.5265 5.33613 13.4788 5.83053L13.3833 33.6712C13.4947 33.7176 13.5901 33.7639 13.7015 33.8103Z" fill="url(#paint31_radial)"/>
<path d="M22.8042 33.4723C23.7589 32.9316 24.7772 32.5453 25.7955 32.1127L25.8432 19.073C23.027 13.8973 20.1949 8.72161 17.3627 3.5459H16.3126C15.7398 4.10209 14.9602 4.45744 14.0851 4.45744C13.8783 4.45744 13.6874 4.45744 13.4805 4.47289C13.4487 14.2063 13.401 23.9397 13.3691 33.6577C13.4646 33.7041 13.576 33.7504 13.6874 33.7968H22.3269C22.4701 33.6732 22.6292 33.565 22.8042 33.4723Z" fill="url(#paint32_radial)"/>
<path d="M22.8051 33.4723C23.6961 32.9625 24.6667 32.5917 25.6054 32.19C25.51 27.4778 25.3509 22.6729 25.1122 17.7289C22.5347 13.0012 19.9412 8.27356 17.3637 3.5459H16.3135C16.1385 3.71585 15.9476 3.87035 15.7408 3.99395C15.7726 8.39716 15.7567 12.7231 15.6612 16.9255C15.5976 19.6601 15.4862 22.3175 15.343 24.9285C15.168 28.0649 14.8498 30.954 14.5156 33.8122H22.3119C22.471 33.6732 22.6301 33.565 22.8051 33.4723Z" fill="url(#paint33_radial)"/>
<path d="M22.8044 33.4731C23.2818 33.195 23.7909 32.9632 24.3 32.7469C24.1728 26.9841 23.9818 21.1595 23.775 15.2886C21.6907 11.4724 19.6223 7.67177 17.538 3.87109C17.5698 9.1395 17.5698 14.377 17.4584 19.4291C17.4107 21.8702 17.3311 24.2804 17.2197 26.6442C17.1084 29.0544 16.997 31.48 16.8379 33.813H22.3271C22.4703 33.6739 22.6294 33.5658 22.8044 33.4731Z" fill="url(#paint34_radial)"/>
<path d="M22.8053 33.4733C22.9644 33.3806 23.1235 33.3034 23.2826 33.2261C23.2667 31.6039 23.2349 29.9662 23.203 28.344C23.1076 23.4618 22.9644 18.4715 22.7416 13.4194C21.2937 10.7774 20.5778 9.4642 19.1458 6.82227C19.1458 9.72684 19.1299 12.616 19.114 15.4742C19.0821 18.1161 19.0662 20.8044 18.9867 23.3073C18.8594 26.8453 18.6685 30.3524 18.4775 33.8132H22.3279C22.4711 33.6742 22.6303 33.566 22.8053 33.4733Z" fill="url(#paint35_radial)"/>
<path d="M21.7541 33.8133C21.7541 33.5816 21.7382 33.3653 21.7382 33.1335C21.6904 31.6658 21.6109 30.1362 21.5154 28.6222C21.42 27.0926 21.3086 25.5631 21.1813 24.0026C20.9745 21.4998 20.3698 22.4113 20.2744 24.9451C20.2267 26.351 20.1948 27.757 20.1789 29.1474C20.1471 30.5534 20.1312 31.9593 20.1153 33.3498C20.1153 33.5043 20.1153 33.6588 20.0994 33.8133H21.7541Z" fill="url(#paint36_radial)"/>
<path d="M22.3276 33.8133C22.4708 33.6897 22.6458 33.5661 22.8208 33.4734C23.5209 33.0872 24.2528 32.7627 24.9847 32.4537C24.9369 27.3553 24.8415 22.2105 24.746 17.0348C22.9322 13.7439 21.1502 10.4686 19.3523 7.17773C19.4318 12.6624 19.4955 18.1626 19.4955 23.4928C19.4955 27.0308 19.4 30.4607 19.2727 33.8133H22.3276Z" fill="url(#paint37_radial)"/>
<path d="M22.3275 33.8123C22.4707 33.6887 22.6457 33.5651 22.8207 33.4724C23.314 33.1943 23.8231 32.9471 24.3482 32.7308C24.3164 27.1843 24.2368 21.576 24.1413 15.9368C22.7889 13.4648 22.1207 12.2288 20.7682 9.75684C20.8478 18.0689 20.6887 26.0565 20.4182 33.8123H22.3275Z" fill="url(#paint38_radial)"/>
<path d="M22.3273 33.8133C22.4705 33.6897 22.6455 33.5661 22.8205 33.4734C23.1387 33.3034 23.457 33.1335 23.7752 32.9944C23.7752 29.8118 23.7593 26.5827 23.7115 23.3228C23.6638 20.5264 23.632 17.7145 23.5843 14.9181C22.7251 13.3267 22.2796 12.5388 21.4204 10.9629C21.4681 18.7805 21.3408 26.3664 21.1499 33.8287H22.3273V33.8133Z" fill="url(#paint39_radial)"/>
<path d="M22.3275 33.8136C22.4707 33.69 22.6457 33.5664 22.8207 33.4737C22.9162 33.4119 23.0275 33.3655 23.123 33.3037C23.1389 26.892 23.123 20.4494 23.0435 13.9296C22.5661 13.0644 22.3275 12.6318 21.8661 11.7666C21.882 12.7554 21.8979 13.7596 21.9138 14.7175C21.9615 21.191 21.882 27.5409 21.7388 33.8136H22.3275Z" fill="url(#paint40_radial)"/>
<path d="M22.264 33.8125H22.3118C22.455 33.6889 22.6141 33.5808 22.7732 33.4881C22.7891 26.8137 22.6777 19.9385 22.5345 13.0324C22.4072 12.8007 22.3436 12.6771 22.2163 12.4453C22.2959 16.1224 22.3595 19.8149 22.3754 23.3684C22.3913 26.891 22.3436 30.3672 22.264 33.8125Z" fill="url(#paint41_radial)"/>
<path d="M14.7061 33.8122H22.3273C22.391 33.7504 22.4705 33.7041 22.5501 33.6423C22.5501 33.426 22.5501 33.2097 22.5501 32.9934C22.5501 31.5256 22.5501 30.0424 22.5501 28.5593C22.5501 27.1997 22.5501 25.8401 22.5342 24.465C22.5182 20.6026 22.4864 16.7247 22.4546 12.8467C20.7521 9.7413 19.0656 6.65133 17.3632 3.5459H16.313C15.8994 3.96305 15.3584 4.25659 14.7697 4.38019C14.8333 12.8158 14.897 21.2515 14.7697 29.3627C14.7538 30.8304 14.722 32.3136 14.7061 33.8122Z" fill="url(#paint42_radial)"/>
<path d="M17.3638 3.5459H16.3137C16.0591 3.80855 15.7409 4.00939 15.4067 4.17934C15.534 13.6965 15.6136 23.1673 15.4226 32.2209C15.4226 32.7616 15.4386 33.2869 15.4386 33.8122H21.787C21.8188 26.489 21.8506 19.1657 21.8665 11.8425C20.3868 9.07696 18.8753 6.31143 17.3638 3.5459Z" fill="url(#paint43_radial)"/>
<path d="M17.3629 3.5459H16.3128C16.281 3.5768 16.2332 3.62315 16.2014 3.65405C16.3128 11.1163 16.5037 18.7177 16.6628 26.18C16.6947 27.4314 16.6947 28.652 16.7265 29.7953C16.7583 31.1548 16.7901 32.5144 16.806 33.8122H21.0542C21.1178 26.0873 21.1178 18.2851 21.1815 10.5601C19.9086 8.21176 18.6358 5.87883 17.3629 3.5459Z" fill="url(#paint44_radial)"/>
<path d="M20.2595 33.8136C20.2754 25.517 20.1958 17.0813 20.2118 8.76929C19.0821 6.699 18.5252 5.66386 17.3796 3.57812C17.5547 13.7133 17.666 23.7866 17.7615 33.7981H20.2595V33.8136Z" fill="url(#paint45_radial)"/>
<path d="M18.5093 33.8145H19.3684C19.3525 24.9308 19.2571 15.8308 19.1934 6.86986C18.8116 6.17462 18.6206 5.81927 18.2388 5.12402C18.3501 14.7184 18.5093 24.4364 18.5093 33.8145Z" fill="url(#paint46_radial)"/>
<path d="M25.7953 32.1131L25.843 19.0734C25.0952 17.6984 24.7293 17.0186 23.9814 15.6436C23.9974 21.3446 24.061 27.1383 24.061 32.8393C24.6338 32.5921 25.2225 32.3603 25.7953 32.1131Z" fill="url(#paint47_radial)"/>
<path d="M25.7963 32.1122C25.8122 27.7708 25.8281 23.4294 25.844 19.0725C25.2394 17.9756 24.953 17.4348 24.3484 16.3379C24.412 21.7917 24.4439 27.2764 24.4439 32.6684C24.9053 32.483 25.3508 32.2976 25.7963 32.1122Z" fill="url(#paint48_radial)"/>
<path d="M22.8054 33.4713C22.9963 33.3632 23.2032 33.255 23.3941 33.1623C23.3782 32.4053 23.3623 31.6019 23.3305 30.7831C23.1236 25.0666 22.8213 19.0257 22.6622 13.2783C20.912 10.0184 19.13 6.7894 17.3639 3.54492H16.3138C16.1547 3.69942 15.9797 3.83847 15.7888 3.96207C15.7888 4.27107 15.7888 4.58006 15.7888 4.88906C15.7888 6.8512 15.8524 8.98328 15.8206 10.8527C15.7251 18.5313 14.7068 25.561 14.5955 33.2551C14.5955 33.4404 14.5955 33.6104 14.5955 33.7958H22.3281C22.4713 33.6722 22.6304 33.564 22.8054 33.4713Z" fill="url(#paint49_radial)"/>
<path d="M17.8562 31.3718C17.8562 32.1752 17.8403 32.9941 17.8244 33.7975H21.5794C21.3725 25.9489 21.1339 17.9459 20.9748 10.1282C19.686 7.76441 19.0336 6.57477 17.7449 4.21094C17.7767 13.28 17.904 22.5345 17.8562 31.3718Z" fill="url(#paint50_radial)"/>
<path d="M20.9277 33.8125C20.7686 25.655 20.5299 17.2502 20.4026 9.09268C19.6707 7.74854 19.3048 7.06875 18.5729 5.72461C18.557 14.9791 18.6843 24.6198 18.7161 33.8125H20.9277Z" fill="url(#paint51_radial)"/>
<path d="M19.5749 30.6461C19.5908 31.6812 19.5908 32.7473 19.6068 33.7979H20.4659C20.45 32.1602 20.4341 30.507 20.3864 28.8539C20.2273 22.0251 19.9886 14.949 19.8295 8.05836C19.5431 7.53306 19.3999 7.27041 19.1135 6.74512C19.1294 9.5879 19.1613 12.477 19.2408 15.3816C19.3681 20.4801 19.5113 25.6403 19.5749 30.6461Z" fill="url(#paint52_radial)"/>
<path d="M22.8056 33.4717C23.7603 32.931 24.7786 32.5448 25.7969 32.1122L25.8446 19.0725C24.6035 16.8013 23.983 15.6735 22.742 13.4023C22.7102 16.8786 22.3601 19.8295 22.3601 23.3521C22.376 27.0291 22.2169 30.4745 21.9783 33.7962H22.2965C22.4715 33.6726 22.6306 33.5644 22.8056 33.4717Z" fill="url(#paint53_radial)"/>
<path d="M22.8206 33.4575C23.6956 32.9631 24.6344 32.5923 25.5731 32.2061C25.5572 30.3058 25.5413 28.4054 25.5254 26.4742C25.4777 23.7396 25.4458 20.9895 25.3981 18.2394C24.5867 16.7562 24.1889 16.0301 23.3774 14.5469C23.4252 21.1594 23.1865 27.4166 22.8206 33.4575Z" fill="url(#paint54_radial)"/>
<path d="M23.7441 32.9938C24.1419 32.8084 24.5556 32.6385 24.9693 32.4531C24.9693 27.4473 24.9534 22.3952 24.8897 17.3276C24.4442 16.5243 24.2215 16.1226 23.7919 15.3037C23.8078 16.3543 23.8237 17.4203 23.8396 18.44C23.8714 23.3686 23.8237 28.2044 23.7441 32.9938Z" fill="url(#paint55_radial)"/>
<path d="M22.8988 4.19479C22.1828 4.17934 21.5145 3.9476 20.9895 3.5459H17.3618C19.287 7.08392 21.2281 10.6219 23.1533 14.16C23.1852 11.9197 23.1852 9.6795 23.2011 7.57832C23.217 6.43503 23.217 5.32264 23.217 4.21024C23.1215 4.21024 23.0101 4.21024 22.8988 4.19479Z" fill="url(#paint56_radial)"/>
<path d="M20.9895 3.5459H17.3618C18.9211 6.38868 20.4644 9.23146 22.0237 12.0897C22.0873 10.4983 22.0873 8.99971 22.1032 7.56287C22.1032 6.41958 22.1032 5.26084 22.1032 4.10209C21.6895 3.9785 21.3077 3.7931 20.9895 3.5459Z" fill="url(#paint57_radial)"/>
<path d="M17.3618 3.5459C18.4597 5.55438 19.5575 7.56287 20.6553 9.57135C20.6872 7.93367 20.719 6.31143 20.719 4.67374C20.719 4.30294 20.719 3.9167 20.719 3.5459H17.3618V3.5459Z" fill="url(#paint58_radial)"/>
<path d="M17.3618 3.5459C17.4573 3.7313 17.5687 3.9167 17.68 4.11754C17.68 3.96305 17.6959 3.77765 17.6959 3.5459H17.3618Z" fill="url(#paint59_radial)"/>
<path d="M25.0472 4.76546C24.9836 4.73456 24.9199 4.70366 24.8563 4.67276C24.3312 4.47192 23.7903 4.31742 23.2334 4.20927C23.122 4.20927 23.0106 4.19382 22.9152 4.19382C22.1992 4.17837 21.5309 3.94662 21.0059 3.54492H17.3623C19.8444 8.08719 22.3265 12.6295 24.8085 17.1872C24.8085 16.7546 24.8085 16.3065 24.8085 15.8739C24.8085 13.5255 24.8085 11.1154 24.8563 8.90603C24.904 7.50009 24.9517 6.12505 25.0472 4.76546Z" fill="url(#paint60_radial)"/>
<path d="M23.2334 4.20927C23.122 4.20927 23.0106 4.19382 22.9152 4.19382C22.1992 4.17837 21.5309 3.94662 21.0059 3.54492H17.3623C19.4784 7.42284 21.6105 11.3008 23.7266 15.1941C23.7584 14.0972 23.7903 13.0003 23.8221 11.9342C23.8857 9.38498 24.013 6.89755 24.1562 4.45647C23.838 4.34832 23.5357 4.27107 23.2334 4.20927Z" fill="url(#paint61_radial)"/>
<path d="M20.9914 3.5459H18.4775C18.4934 3.7622 18.5094 3.99395 18.5253 4.21024C18.5571 4.78189 18.6207 5.35354 18.6526 5.90973C19.9095 8.21176 20.5459 9.35506 21.8029 11.6571C21.8188 11.518 21.8347 11.379 21.8506 11.2399C22.137 8.93791 22.4075 6.57408 22.6462 4.17934C22.0256 4.13299 21.4529 3.90125 20.9914 3.5459Z" fill="url(#paint62_radial)"/>
<path d="M23.2326 4.21024C23.1212 4.21024 23.0099 4.19479 22.9144 4.19479C22.1984 4.17934 21.5302 3.9476 21.0051 3.5459H18.6821C18.6821 4.34929 18.698 5.16814 18.698 5.97153C20.5755 9.41685 22.453 12.8622 24.3305 16.3075C24.3941 12.3678 24.5055 8.45896 24.6009 4.59649C24.1554 4.44199 23.694 4.30294 23.2326 4.21024Z" fill="url(#paint63_radial)"/>
<path d="M23.2339 4.21024C23.1225 4.21024 23.0111 4.19479 22.9157 4.19479C22.1997 4.17934 21.5314 3.9476 21.0064 3.5459H18.938C18.938 4.50379 18.9539 5.47713 18.9539 6.43503C20.72 9.6795 22.502 12.9085 24.2681 16.153C24.3158 12.2596 24.3795 8.38171 24.4431 4.51924C24.0294 4.39564 23.6317 4.28749 23.2339 4.21024Z" fill="url(#paint64_radial)"/>
<path d="M23.2341 4.21024C23.1228 4.21024 23.0114 4.19479 22.9159 4.19479C22.1999 4.17934 21.5317 3.9476 21.0066 3.5459H19.4951C19.4951 4.84369 19.511 6.15693 19.511 7.45472C21.0544 10.2666 22.5818 13.0785 24.1252 15.8904C24.1729 12.136 24.1729 8.25811 24.1729 4.44199C23.8547 4.34929 23.5365 4.27204 23.2341 4.21024Z" fill="url(#paint65_radial)"/>
<path d="M23.234 4.21024C23.1227 4.21024 23.0113 4.19479 22.9158 4.19479C22.1998 4.17934 21.5316 3.9476 21.0065 3.5459H20.0996C20.0996 5.21449 20.0996 6.88307 20.0996 8.55166C21.4043 10.9309 22.0566 12.1206 23.3613 14.5153C23.3931 11.9197 23.409 9.29326 23.425 6.69768C23.425 5.86338 23.4409 5.05999 23.4409 4.27204C23.3613 4.24114 23.2977 4.22569 23.234 4.21024Z" fill="url(#paint66_radial)"/>
<path d="M21.2925 3.74805C21.2289 5.94193 21.213 8.29031 21.1812 10.5305C21.6903 11.4575 21.9449 11.921 22.454 12.848C22.5177 9.97435 22.5654 7.08522 22.5972 4.18064C22.1199 4.13429 21.6903 3.9798 21.2925 3.74805Z" fill="url(#paint67_radial)"/>
<path d="M20.9907 3.5459H17.363C18.6359 5.86338 19.9088 8.19631 21.1816 10.5138C21.2294 8.24266 21.3248 6.01788 21.4044 3.80855C21.2612 3.7313 21.118 3.6386 20.9907 3.5459Z" fill="url(#paint68_radial)"/>
<path d="M17.363 3.5459C18.4131 5.47713 19.4792 7.40837 20.5293 9.33961C20.6088 7.42382 20.6884 5.49258 20.7679 3.5459H17.363Z" fill="url(#paint69_radial)"/>
<path d="M17.363 3.5459C18.3972 5.43078 19.0496 6.62043 20.1952 8.73706C20.2429 7.02212 20.2906 5.29174 20.3224 3.5459H17.363Z" fill="url(#paint70_radial)"/>
<path d="M17.6346 3.54572C17.6346 3.70022 17.6187 3.85472 17.6187 4.00922C18.3983 5.43061 18.7801 6.12585 19.5598 7.54724C19.5757 6.21855 19.5757 4.87441 19.5916 3.53027H17.6346V3.54572Z" fill="url(#paint71_radial)"/>
<path d="M18.174 3.5459C18.158 4.02484 18.1421 4.48834 18.1262 4.96729C18.2694 5.24539 18.349 5.36899 18.4922 5.64708C18.5081 4.95184 18.5399 4.24114 18.5558 3.5459H18.174Z" fill="url(#paint72_radial)"/>
<path d="M24.841 4.67368C24.6501 4.61188 24.475 4.53463 24.2841 4.48828C24.2523 5.84787 24.2205 7.20746 24.1886 8.56705C24.125 10.9618 24.0773 13.3411 24.0295 15.7358C24.7614 17.0799 25.1274 17.7443 25.8593 19.073L25.907 5.18353C25.557 5.01358 25.2069 4.84363 24.841 4.67368Z" fill="url(#paint73_radial)"/>
<path d="M25.1115 4.8125C24.9047 8.73677 24.7297 12.7228 24.5706 16.7553C25.0797 17.6823 25.3343 18.1612 25.8434 19.0882C25.8593 14.4532 25.8752 9.83371 25.8911 5.19875C25.6366 5.0597 25.382 4.92065 25.1115 4.8125Z" fill="url(#paint74_radial)"/>
<path d="M22.8993 4.19382C22.1833 4.17837 21.515 3.94662 20.99 3.54492H17.3623C19.2716 7.0366 21.1809 10.5283 23.0902 14.0199C23.122 10.7446 23.1697 7.48464 23.2016 4.20927C23.1061 4.20927 23.0106 4.20927 22.8993 4.19382Z" fill="url(#paint75_radial)"/>
<path d="M20.9906 3.5459H17.8562C17.8562 3.65405 17.8562 3.7622 17.8721 3.87035C17.8721 4.08664 17.888 4.28749 17.888 4.50379C19.5905 7.62467 20.4497 9.18511 22.1521 12.3214C22.2317 9.60225 22.2953 6.88307 22.3589 4.16389C21.8498 4.05574 21.3884 3.83945 20.9906 3.5459Z" fill="url(#paint76_radial)"/>
<path d="M20.991 3.5459H18.6521C18.6521 4.33384 18.668 5.13724 18.668 5.92518C19.9568 8.28901 20.6091 9.4632 21.8979 11.827C21.9456 9.24691 21.9775 6.65133 22.0093 4.05574C21.6274 3.9476 21.2933 3.77765 20.991 3.5459Z" fill="url(#paint77_radial)"/>
<path d="M20.9909 3.5459H19.9885C20.0203 5.19904 20.0522 6.85217 20.084 8.50531C20.4977 9.27781 20.7204 9.66405 21.1341 10.4211C21.15 8.18086 21.1818 5.94063 21.1977 3.68495C21.1182 3.6386 21.0545 3.59225 20.9909 3.5459Z" fill="url(#paint78_radial)"/>
<path d="M24.8418 4.67374C24.3168 4.47289 23.7758 4.31839 23.2189 4.21024C23.1076 4.21024 22.9962 4.19479 22.9007 4.19479C22.1847 4.17934 21.5165 3.9476 20.9914 3.5459H20.8164C20.8323 5.67798 20.8482 7.81007 20.8641 9.94215C22.5189 12.9858 24.1895 16.0294 25.8442 19.073L25.8919 5.18359C25.5578 5.01364 25.2078 4.84369 24.8418 4.67374Z" fill="url(#paint79_radial)"/>
<path d="M24.8417 4.67374C24.3167 4.47289 23.7757 4.31839 23.2188 4.21024C23.1074 4.21024 22.9961 4.19479 22.9006 4.19479C22.1846 4.17934 21.5164 3.9476 20.9913 3.5459H20.0208C20.0526 5.22994 20.0685 6.89852 20.1003 8.55166C22.0096 12.0588 23.9348 15.5659 25.8441 19.0885L25.8918 5.19904C25.5577 5.01364 25.2077 4.84369 24.8417 4.67374Z" fill="url(#paint80_radial)"/>
<path d="M24.841 4.67418C24.316 4.47334 23.775 4.31884 23.2181 4.21069C23.1067 4.21069 22.9954 4.19524 22.8999 4.19524C22.6453 4.19524 22.4067 4.16434 22.168 4.10254C22.168 6.86807 22.1521 9.58725 22.1521 12.3219C23.3613 14.5312 23.9659 15.6436 25.1751 17.8684C25.207 15.2728 25.2229 12.6772 25.2388 10.0816C25.2547 8.78385 25.2547 7.57876 25.2547 6.40457C25.2547 5.89473 25.2547 5.40033 25.2547 4.89048C25.1433 4.81323 25.0001 4.75143 24.841 4.67418Z" fill="url(#paint81_radial)"/>
<path d="M26.0341 32.0063C27.0842 31.5583 28.0388 31.033 28.9616 30.3841C30.0277 29.5652 31.1255 28.7001 32.0165 27.6958C32.3506 27.2014 32.5893 26.6916 32.8439 26.1508C33.0189 25.78 33.2257 25.4247 33.4485 25.0848V23.2308C33.4167 21.6858 33.3848 20.1099 33.3371 18.5495C33.2735 16.9272 33.1939 15.2741 33.1303 13.6673C32.6529 12.9566 32.2393 12.1996 31.8415 11.4425C31.221 10.2374 30.6323 9.0169 29.8208 7.91995C29.5503 7.61096 29.264 7.33286 28.9457 7.07021C27.8002 6.26682 26.6069 5.52522 25.3499 4.90723L25.2385 32.3462C25.4931 32.2381 25.7636 32.1299 26.0341 32.0063Z" fill="url(#paint82_radial)"/>
<path d="M26.0338 32.0036C27.0839 31.5555 28.0386 31.0302 28.9614 30.3813C30.0274 29.5625 31.1253 28.6973 32.0163 27.6931C32.1276 27.5386 32.2072 27.3841 32.3027 27.2296C32.3027 26.3953 32.2868 25.561 32.2868 24.7267C32.2708 22.6409 32.2708 20.5089 32.2231 18.3613C32.1754 16.2138 32.1436 14.0817 32.1117 11.9651C32.0163 11.7951 31.9367 11.6252 31.8413 11.4552C31.2207 10.2501 30.632 9.02959 29.8206 7.93265C29.5501 7.62365 29.2637 7.34555 28.9455 7.08291C27.7999 6.27951 26.6066 5.53792 25.3497 4.91992C25.3178 14.0663 25.2701 23.2126 25.2383 32.3589C25.4929 32.2353 25.7633 32.1272 26.0338 32.0036Z" fill="url(#paint83_radial)"/>
<path d="M29.8219 7.91963C29.5514 7.61063 29.265 7.33253 28.9468 7.06988C28.0399 6.43644 27.1012 5.83389 26.1306 5.30859C26.4011 8.92387 26.6875 12.5855 27.0216 16.2626C27.1966 18.2556 27.3876 20.2023 27.5785 22.0563C27.7694 23.8948 27.9922 25.6561 28.2149 27.3401C28.6445 28.2208 29.0582 27.8036 29.456 26.3204C29.6151 25.7179 29.7742 24.93 29.9333 23.9875C30.0924 23.0451 30.2674 21.9636 30.3788 20.6967C30.6652 17.3132 30.6493 13.2344 30.6015 9.12472C30.3629 8.72302 30.0924 8.32132 29.8219 7.91963Z" fill="url(#paint84_radial)"/>
<path d="M26.0341 32.0036C27.0842 31.5555 28.0388 31.0302 28.9616 30.3813C30.0277 29.5625 31.1255 28.6973 32.0165 27.6931C32.3506 27.1987 32.5893 26.6888 32.8439 26.1481C33.0189 25.7773 33.2257 25.4219 33.4485 25.082V14.1435C32.8439 13.2938 32.3188 12.3822 31.8415 11.4552C31.221 10.2501 30.6323 9.02959 29.8208 7.93265C29.5503 7.62365 29.264 7.34555 28.9457 7.08291C27.8002 6.27951 26.6069 5.53792 25.3499 4.91992L25.2385 32.3589C25.4931 32.2353 25.7636 32.1272 26.0341 32.0036Z" fill="url(#paint85_radial)"/>
<path d="M25.8593 21.6377C26.1139 24.8513 26.4798 28.3275 26.7662 31.6801C27.5299 31.3093 28.2618 30.8922 28.9619 30.3823C30.0279 29.5635 31.1258 28.6983 32.0168 27.694C32.3509 27.1996 32.5895 26.6898 32.8441 26.149C33.0191 25.7782 33.226 25.4229 33.4487 25.083V14.1445C32.8441 13.2947 32.3191 12.3832 31.8417 11.4562C31.2212 10.2511 30.6325 9.03057 29.8211 7.93363C29.5506 7.62463 29.2642 7.34653 28.946 7.08388C27.8004 6.28049 26.6071 5.53889 25.3501 4.9209L25.3342 10.7146C25.3501 11.3326 25.382 11.9969 25.4138 12.6767C25.5252 15.5813 25.6206 18.6095 25.8593 21.6377Z" fill="url(#paint86_radial)"/>
<path d="M28.0549 26.83C28.1981 28.1587 28.3254 29.4565 28.4209 30.7388C28.5959 30.6152 28.7709 30.507 28.9459 30.3834C30.0119 29.5646 31.1098 28.6994 32.0008 27.6952C32.3349 27.2008 32.5736 26.6909 32.8282 26.1502C33.0032 25.7794 33.21 25.424 33.4328 25.0841V14.1456C32.8282 13.2959 32.3031 12.3843 31.8258 11.4573C31.2053 10.2522 30.6166 9.03171 29.8051 7.93476C29.5346 7.62577 29.2482 7.34767 28.93 7.08502C28.4686 6.76057 28.0072 6.45158 27.5299 6.14258C27.514 7.54852 27.498 8.95446 27.498 10.3913C27.498 13.1414 27.514 15.9533 27.6253 18.8115C27.7367 21.3298 27.8958 24.0953 28.0549 26.83Z" fill="url(#paint87_radial)"/>
<path d="M29.7737 27.0927C29.8055 27.9579 29.8373 28.8231 29.8691 29.6728C30.6328 29.0548 31.3806 28.4214 32.0012 27.6952C32.3353 27.2008 32.574 26.691 32.8285 26.1502C33.0035 25.7794 33.2104 25.4241 33.4331 25.0842V14.1457C32.8285 13.2959 32.3035 12.3844 31.8261 11.4574C31.2056 10.2523 30.6169 9.03177 29.8055 7.93483C29.6623 7.76488 29.5032 7.59493 29.3282 7.44043C29.3282 7.67218 29.3282 7.90393 29.3282 8.12022C29.3122 11.3029 29.3759 14.7328 29.4395 18.1009C29.5191 21.0363 29.6464 24.0954 29.7737 27.0927Z" fill="url(#paint88_radial)"/>
<path d="M31.4603 27.0148C31.4762 27.432 31.4762 27.8337 31.4922 28.2508C31.6672 28.0809 31.8422 27.8955 32.0172 27.7101C32.3513 27.2157 32.59 26.7058 32.8446 26.1651C33.0196 25.7943 33.2264 25.4389 33.4492 25.099V20.016C33.3855 17.9148 33.2901 15.7828 33.131 13.697C32.6536 12.9863 32.24 12.2293 31.8422 11.4722C31.6194 11.0242 31.3967 10.5916 31.158 10.1436C30.8239 13.9288 31.2376 19.7225 31.3649 23.4768C31.3967 24.6355 31.4285 25.8252 31.4603 27.0148Z" fill="url(#paint89_radial)"/>
<path d="M30.2513 20.8201C30.2672 22.0098 30.299 23.2921 30.3468 24.6671C30.4104 26.1349 30.4741 27.6181 30.5536 29.1167C31.0787 28.6687 31.5719 28.2052 32.0015 27.7108C32.3356 27.2164 32.5743 26.7065 32.8289 26.1658C33.0039 25.795 33.2107 25.4396 33.4335 25.0997V14.1458C32.8289 13.296 32.3038 12.3845 31.8265 11.4575C31.3173 10.4841 30.84 9.49535 30.2513 8.56836V8.58381C30.2354 9.80435 30.2195 11.0403 30.2036 12.2918C30.1877 13.7286 30.1877 15.1809 30.2036 16.6641C30.2036 18.0237 30.2195 19.3987 30.2513 20.8201Z" fill="url(#paint90_radial)"/>
<path d="M30.967 13.4974C30.9988 14.6716 31.0147 15.8303 31.0466 16.9273C31.0625 17.7925 31.0784 18.7195 31.1261 19.6465C31.2534 22.4738 31.3966 25.332 31.5398 28.1903C31.6989 28.0358 31.858 27.8658 32.0012 27.6959C32.3353 27.2015 32.574 26.6916 32.8286 26.1509C33.0036 25.7801 33.2104 25.4247 33.4332 25.0848V14.1463C32.8286 13.2966 32.3035 12.385 31.8262 11.458C31.508 10.8555 31.2057 10.2529 30.8875 9.65039C30.8875 10.0366 30.9034 10.4383 30.9034 10.8246C30.9352 11.7207 30.9511 12.6168 30.967 13.4974Z" fill="url(#paint91_radial)"/>
<path d="M32.192 19.2288C32.2557 21.8089 32.3352 24.4045 32.4148 27.0155C32.558 26.7374 32.7012 26.4439 32.8444 26.1503C33.0194 25.7795 33.2262 25.4242 33.449 25.0843V14.1458C32.9239 13.4196 32.4784 12.6471 32.0488 11.8438C32.0647 12.6935 32.0966 13.5278 32.1125 14.3003C32.1284 16.077 32.1602 17.6375 32.192 19.2288Z" fill="url(#paint92_radial)"/>
<path d="M32.9087 20.9593C32.9405 22.5661 32.9723 24.1883 33.0041 25.826C33.1314 25.5634 33.2905 25.3162 33.4337 25.0844V14.1459C33.2269 13.8524 33.02 13.5434 32.8291 13.2344C32.845 14.9957 32.8609 16.7415 32.8768 18.5028C32.8927 19.3525 32.8927 20.1405 32.9087 20.9593Z" fill="url(#paint93_radial)"/>
<path d="M33.433 25.085V18.1943C33.433 18.6733 33.4171 19.1522 33.4171 19.6157C33.4012 20.45 33.3853 21.2534 33.3853 22.0568C33.3853 23.0765 33.3853 24.1116 33.4012 25.1622C33.4171 25.1313 33.4171 25.1159 33.433 25.085Z" fill="url(#paint94_radial)"/>
<path d="M26.6058 31.758C27.4332 31.3718 28.2128 30.9237 28.9606 30.383C30.0267 29.5641 31.1245 28.6989 32.0155 27.6947C32.3496 27.2003 32.5883 26.6905 32.8429 26.1497C33.0179 25.7789 33.2247 25.4236 33.4475 25.0837V14.1451C32.8429 13.2954 32.3178 12.3839 31.8405 11.4569C31.22 10.2518 30.6313 9.03123 29.8198 7.93429C29.5493 7.6253 29.2629 7.3472 28.9447 7.08455C28.2765 6.62105 27.6082 6.17301 26.9081 5.75586C26.9559 7.26995 26.94 8.69134 26.8445 9.98913C26.7649 11.2097 26.7172 12.5384 26.6854 13.7589C26.6377 15.2266 26.6058 16.7098 26.5899 18.193C26.574 19.8462 26.5581 21.5147 26.5581 23.1988C26.5581 24.6665 26.5581 26.1497 26.574 27.6329C26.574 29.0079 26.5899 30.383 26.6058 31.758Z" fill="url(#paint95_radial)"/>
<path d="M28.9602 30.384C30.0262 29.5652 31.1241 28.7 32.0151 27.6958C32.3492 27.2014 32.5879 26.6915 32.8425 26.1508C33.0175 25.78 33.2243 25.4246 33.4471 25.0847V14.1462C32.8424 13.2965 32.3174 12.3849 31.8401 11.4579C31.2196 10.2528 30.6309 9.0323 29.8194 7.93536C29.5489 7.62636 29.2625 7.34826 28.9443 7.08561C28.8488 7.02381 28.7534 6.94657 28.6579 6.88477C28.3715 11.3807 28.0374 15.7685 27.7033 20.0944C27.6396 20.9133 27.6078 21.8403 27.576 22.7055C27.5442 23.8178 27.4964 24.9766 27.4487 26.1508C27.4169 27.0314 27.3851 27.9121 27.3532 28.8236C27.3214 29.6733 27.3055 30.5385 27.2737 31.4501C27.8624 31.1102 28.4193 30.7703 28.9602 30.384Z" fill="url(#paint96_radial)"/>
<path d="M28.9609 30.3827C30.0269 29.5638 31.1247 28.6986 32.0157 27.6944C32.3499 27.2 32.5885 26.6901 32.8431 26.1494C32.8431 26.1494 32.8431 26.1339 32.859 26.1339C32.9067 21.9316 32.9704 17.7446 33.0181 13.5114C32.5885 12.847 32.2067 12.1518 31.8407 11.4565C31.2202 10.2515 30.6315 9.03091 29.82 7.93397C29.7723 7.88762 29.7405 7.84127 29.6928 7.79492C29.4541 14.0676 29.1836 20.2475 28.929 26.4429C28.8813 27.7407 28.8336 29.0849 28.8018 30.5063C28.8495 30.4599 28.8972 30.429 28.9609 30.3827Z" fill="url(#paint97_radial)"/>
<path d="M31.9989 27.7117C32.0307 27.6499 32.0785 27.6035 32.1103 27.5417C32.158 22.4742 32.1898 17.3448 32.2058 12.1691C32.0785 11.9374 31.9512 11.6902 31.8239 11.4584C31.3784 10.6087 30.9488 9.74347 30.4556 8.90918C30.2169 15.4445 29.9305 21.9025 29.7396 28.376C29.7237 28.8395 29.7237 29.3185 29.7078 29.7974C30.5351 29.1485 31.3307 28.4687 31.9989 27.7117Z" fill="url(#paint98_radial)"/>
<path d="M31.2522 28.4824C31.2681 27.9262 31.284 27.37 31.284 26.8138C31.3636 23.1522 31.5545 19.5987 31.6977 16.0916C31.7614 14.5775 31.8091 13.048 31.8568 11.503C31.8409 11.4875 31.8409 11.4721 31.825 11.4566C31.5704 10.9623 31.3159 10.4524 31.0454 9.95801C30.8544 14.114 30.6476 18.2082 30.4726 22.3179C30.3771 24.5582 30.3294 26.922 30.3135 29.3013C30.6317 29.0386 30.9499 28.7605 31.2522 28.4824Z" fill="url(#paint99_radial)"/>
<path d="M26.5757 31.7747C27.419 31.3885 28.1986 30.9404 28.9464 30.3997C30.0124 29.5808 31.1103 28.7156 32.0013 27.7114C32.3354 27.217 32.5741 26.7071 32.8287 26.1664C33.0037 25.7956 33.2105 25.4403 33.4333 25.1004V14.1464C32.8287 13.2966 32.3036 12.3851 31.8263 11.4581C31.2058 10.253 30.6171 9.03248 29.8056 7.93554C29.5351 7.62654 29.2487 7.34844 28.9305 7.0858C28.5487 6.82315 28.1668 6.5605 27.769 6.29785C27.769 6.35965 27.769 6.406 27.769 6.4678C27.7531 7.90464 27.7213 9.35693 27.7054 10.8247C27.6895 12.4315 27.6577 14.0228 27.6577 15.6296C27.6417 20.6817 26.353 23.2464 26.4643 28.4375C26.4962 29.4881 26.528 30.616 26.5757 31.7747Z" fill="url(#paint100_radial)"/>
<path d="M32.0005 27.7111C32.3346 27.2167 32.5733 26.7068 32.8279 26.1661C33.0029 25.7953 33.2097 25.4399 33.4325 25.1V14.1461C32.8279 13.2963 32.3028 12.3848 31.8255 11.4578C31.205 10.2527 30.6163 9.03215 29.8048 7.93521C29.5343 7.62621 29.2479 7.34811 28.9297 7.08547C28.7388 6.94642 28.5479 6.82282 28.3569 6.69922C28.9138 14.6559 29.423 22.5817 29.5662 29.9204C30.4412 29.2252 31.3004 28.499 32.0005 27.7111Z" fill="url(#paint101_radial)"/>
<path d="M32.0017 27.711C32.3358 27.2166 32.5745 26.7068 32.8291 26.166C32.9245 25.9497 33.0359 25.7489 33.1632 25.5326C33.2428 22.4117 33.3223 19.3217 33.4337 16.2472V14.146C32.8291 13.2963 32.304 12.3847 31.8267 11.4577C31.4448 10.7316 31.0789 9.98999 30.6811 9.2793C30.6334 15.9227 30.522 22.4735 30.5061 29.1479C31.0471 28.6844 31.5562 28.2209 32.0017 27.711Z" fill="url(#paint102_radial)"/>
<path d="M32.0008 27.7124C32.1281 27.5115 32.2554 27.3107 32.3668 27.1098C32.4463 22.3822 32.5736 17.7008 32.7009 13.035C32.3986 12.5251 32.0963 11.9998 31.8258 11.4591C31.8099 11.4282 31.794 11.4127 31.794 11.3818C31.7144 17.0365 31.5871 22.6139 31.5076 28.2222C31.6826 28.0523 31.8417 27.8823 32.0008 27.7124Z" fill="url(#paint103_radial)"/>
<path d="M32.4153 26.2276C32.4153 26.4748 32.4312 26.7374 32.4312 26.9846C32.5744 26.722 32.7017 26.4439 32.8449 26.1503C33.0199 25.7795 33.2267 25.4242 33.4495 25.0843V14.1457C33.0995 13.6514 32.7812 13.1415 32.4789 12.6162C32.463 13.3733 32.4471 14.1303 32.4312 14.9028C32.4153 16.0306 32.3994 17.1739 32.3994 18.3327C32.3835 19.6614 32.3835 21.0055 32.3994 22.3805C32.3835 23.632 32.3994 24.9143 32.4153 26.2276Z" fill="url(#paint104_radial)"/>
<path d="M32.844 26.1494C33.019 25.7786 33.2258 25.4233 33.4486 25.0834V14.1448C32.844 13.2951 32.3189 12.3836 31.8416 11.4566C31.778 11.333 31.7143 11.1939 31.6348 11.0703C31.953 15.9834 32.3507 21.1127 32.7803 26.3193C32.7963 26.2575 32.8122 26.2112 32.844 26.1494Z" fill="url(#paint105_radial)"/>
<path opacity="0.6" d="M22.7562 33.5044V4.19595C22.1039 4.1496 21.4993 3.91785 21.0219 3.5625H20.0991V34.4777H21.7379C21.9925 34.0915 22.3425 33.7516 22.7562 33.5044Z" fill="url(#paint106_linear)"/>
<path opacity="0.6" d="M32.0006 27.7111C32.3348 27.2167 32.5734 26.7068 32.828 26.1661C33.0189 25.7798 33.2258 25.3936 33.4644 25.0382V14.1924C32.8439 13.3272 32.3029 12.4002 31.8256 11.4423C31.4915 10.8089 31.1733 10.16 30.8232 9.54199V28.8544C31.2369 28.499 31.6347 28.1128 32.0006 27.7111Z" fill="url(#paint107_linear)"/>
<path opacity="0.6" d="M22.8036 33.4728C23.5673 33.0402 24.3788 32.7004 25.2061 32.3605V4.84421C25.0947 4.78241 24.9675 4.73606 24.8561 4.67426C24.331 4.47341 23.7901 4.31891 23.2332 4.21076C23.1218 4.21076 23.0104 4.19531 22.915 4.19531C22.8672 4.19531 22.8036 4.19531 22.7559 4.19531V33.5037C22.7718 33.4883 22.7877 33.4728 22.8036 33.4728Z" fill="url(#paint108_linear)"/>
<path opacity="0.6" d="M5.49272 28.3134C6.09733 29.0087 6.76558 29.6266 7.48157 30.1983C7.65659 30.3219 7.84752 30.4609 8.02254 30.5845V6.85352C8.00662 6.86897 7.99071 6.88442 7.9748 6.89987C7.25882 7.93501 6.81332 9.0783 6.17689 10.1598C5.92231 10.5769 5.65183 10.9786 5.38135 11.3649V28.1589C5.42908 28.2207 5.4609 28.2671 5.49272 28.3134Z" fill="url(#paint109_linear)"/>
<path opacity="0.6" d="M10.4886 32.1592V5.10645C9.94762 5.35364 9.43848 5.63174 8.96115 5.97164C8.62703 6.24974 8.32472 6.54328 8.03833 6.85228V30.5833C8.83387 31.1395 9.64532 31.6648 10.4886 32.1592Z" fill="url(#paint110_linear)"/>
<path opacity="0.8" d="M18.4999 34.4788C27.3548 34.4788 34.5332 27.5433 34.5332 18.9879C34.5332 10.4326 27.3548 3.49707 18.4999 3.49707C9.64492 3.49707 2.46655 10.4326 2.46655 18.9879C2.46655 27.5433 9.64492 34.4788 18.4999 34.4788Z" stroke="url(#paint111_linear)" stroke-miterlimit="10"/>
<defs>
<linearGradient id="paint0_linear" x1="-2.75819" y1="-1.12691" x2="40.4458" y2="38.8916" gradientUnits="userSpaceOnUse">
<stop stop-color="#969699"/>
<stop offset="0.2788" stop-color="#B7ADAE"/>
<stop offset="1" stop-color="#E5E5E5"/>
</linearGradient>
<linearGradient id="paint1_linear" x1="18.501" y1="0.636719" x2="18.501" y2="36.3629" gradientUnits="userSpaceOnUse">
<stop stop-color="#ECE2DE"/>
<stop offset="1" stop-color="#D1CAC8"/>
</linearGradient>
<linearGradient id="paint2_linear" x1="30.4471" y1="18.4724" x2="6.54944" y2="18.4724" gradientUnits="userSpaceOnUse">
<stop stop-color="#8C8A89"/>
<stop offset="0.4731" stop-color="#F5F5F5"/>
<stop offset="0.5578" stop-color="#EFEFEF"/>
<stop offset="0.671" stop-color="#DFDEDE"/>
<stop offset="0.8004" stop-color="#C4C3C2"/>
<stop offset="0.9408" stop-color="#9E9C9C"/>
<stop offset="1" stop-color="#8C8A89"/>
</linearGradient>
<linearGradient id="paint3_linear" x1="18.5289" y1="3.36328" x2="18.5289" y2="33.5796" gradientUnits="userSpaceOnUse">
<stop stop-color="#5D5D56"/>
<stop offset="0.1376" stop-color="#83837E"/>
<stop offset="0.384" stop-color="#C1C1C0"/>
<stop offset="0.5" stop-color="#DADADA"/>
<stop offset="0.556" stop-color="#D3D3D2"/>
<stop offset="0.6422" stop-color="#BEBEBD"/>
<stop offset="0.7479" stop-color="#9C9C99"/>
<stop offset="0.8689" stop-color="#6D6D68"/>
<stop offset="1" stop-color="#33332B"/>
</linearGradient>
<radialGradient id="paint4_radial" cx="0" cy="0" r="1" gradientUnits="userSpaceOnUse" gradientTransform="translate(4.36044 -165.774) rotate(56.8218) scale(14.0216 157.302)">
<stop stop-color="#B35018"/>
<stop offset="1" stop-color="#DE8D35"/>
</radialGradient>
<radialGradient id="paint5_radial" cx="0" cy="0" r="1" gradientUnits="userSpaceOnUse" gradientTransform="translate(4.72905 -172.954) rotate(56.8218) scale(11.6316 130.489)">
<stop stop-color="#B35018"/>
<stop offset="1" stop-color="#DE8D35"/>
</radialGradient>
<radialGradient id="paint6_radial" cx="0" cy="0" r="1" gradientUnits="userSpaceOnUse" gradientTransform="translate(7.50335 -19.8273) rotate(-123.173) scale(14.7222 136.369)">
<stop stop-color="#B35018"/>
<stop offset="1" stop-color="#DE8D35"/>
</radialGradient>
<radialGradient id="paint7_radial" cx="0" cy="0" r="1" gradientUnits="userSpaceOnUse" gradientTransform="translate(7.91863 -14.9651) rotate(-123.173) scale(11.8332 109.609)">
<stop stop-color="#B35018"/>
<stop offset="1" stop-color="#DE8D35"/>
</radialGradient>
<radialGradient id="paint8_radial" cx="0" cy="0" r="1" gradientUnits="userSpaceOnUse" gradientTransform="translate(8.42174 -10.4867) rotate(-123.173) scale(8.48592 78.6034)">
<stop stop-color="#B35018"/>
<stop offset="1" stop-color="#DE8D35"/>
</radialGradient>
<radialGradient id="paint9_radial" cx="0" cy="0" r="1" gradientUnits="userSpaceOnUse" gradientTransform="translate(8.6741 -7.81608) rotate(-123.173) scale(5.13824 47.5945)">
<stop stop-color="#B35018"/>
<stop offset="1" stop-color="#DE8D35"/>
</radialGradient>
<radialGradient id="paint10_radial" cx="0" cy="0" r="1" gradientUnits="userSpaceOnUse" gradientTransform="translate(8.9616 -12.2757) rotate(-123.173) scale(3.01516 27.9289)">
<stop stop-color="#B35018"/>
<stop offset="1" stop-color="#DE8D35"/>
</radialGradient>
<radialGradient id="paint11_radial" cx="0" cy="0" r="1" gradientUnits="userSpaceOnUse" gradientTransform="translate(10.0372 -46.0391) rotate(-123.176) scale(6.83286 132.182)">
<stop stop-color="#B35018"/>
<stop offset="1" stop-color="#DE8D35"/>
</radialGradient>
<radialGradient id="paint12_radial" cx="0" cy="0" r="1" gradientUnits="userSpaceOnUse" gradientTransform="translate(9.83867 -44.2941) rotate(-123.176) scale(5.95135 115.129)">
<stop stop-color="#B35018"/>
<stop offset="1" stop-color="#DE8D35"/>
</radialGradient>
<radialGradient id="paint13_radial" cx="0" cy="0" r="1" gradientUnits="userSpaceOnUse" gradientTransform="translate(9.81461 -41.6717) rotate(-123.176) scale(5.53655 107.105)">
<stop stop-color="#B35018"/>
<stop offset="1" stop-color="#DE8D35"/>
</radialGradient>
<radialGradient id="paint14_radial" cx="0" cy="0" r="1" gradientUnits="userSpaceOnUse" gradientTransform="translate(9.78885 -36.7273) rotate(-123.176) scale(4.75467 91.9791)">
<stop stop-color="#B35018"/>
<stop offset="1" stop-color="#DE8D35"/>
</radialGradient>
<radialGradient id="paint15_radial" cx="0" cy="0" r="1" gradientUnits="userSpaceOnUse" gradientTransform="translate(9.98394 -22.0608) rotate(-123.176) scale(4.66891 90.3202)">
<stop stop-color="#B35018"/>
<stop offset="1" stop-color="#DE8D35"/>
</radialGradient>
<radialGradient id="paint16_radial" cx="0" cy="0" r="1" gradientUnits="userSpaceOnUse" gradientTransform="translate(6.4406 1.67712) rotate(-123.176) scale(8.14974 157.657)">
<stop stop-color="#B35018"/>
<stop offset="1" stop-color="#DE8D35"/>
</radialGradient>
<radialGradient id="paint17_radial" cx="0" cy="0" r="1" gradientUnits="userSpaceOnUse" gradientTransform="translate(6.56575 0.858116) rotate(-123.176) scale(6.57139 127.124)">
<stop stop-color="#B35018"/>
<stop offset="1" stop-color="#DE8D35"/>
</radialGradient>
<radialGradient id="paint18_radial" cx="0" cy="0" r="1" gradientUnits="userSpaceOnUse" gradientTransform="translate(6.53593 -0.321154) rotate(-123.176) scale(5.96757 115.443)">
<stop stop-color="#B35018"/>
<stop offset="1" stop-color="#DE8D35"/>
</radialGradient>
<radialGradient id="paint19_radial" cx="0" cy="0" r="1" gradientUnits="userSpaceOnUse" gradientTransform="translate(6.53187 -4.36519) rotate(-123.176) scale(4.81222 93.0925)">
<stop stop-color="#B35018"/>
<stop offset="1" stop-color="#DE8D35"/>
</radialGradient>
<radialGradient id="paint20_radial" cx="0" cy="0" r="1" gradientUnits="userSpaceOnUse" gradientTransform="translate(6.95115 -17.2852) rotate(-123.176) scale(4.97794 96.2983)">
<stop stop-color="#B35018"/>
<stop offset="1" stop-color="#DE8D35"/>
</radialGradient>
<radialGradient id="paint21_radial" cx="0" cy="0" r="1" gradientUnits="userSpaceOnUse" gradientTransform="translate(14.8343 15.9656) rotate(-123.176) scale(5.47987 106.008)">
<stop stop-color="#B35018"/>
<stop offset="1" stop-color="#DE8D35"/>
</radialGradient>
<radialGradient id="paint22_radial" cx="0" cy="0" r="1" gradientUnits="userSpaceOnUse" gradientTransform="translate(14.6639 14.9477) rotate(-123.176) scale(4.67292 90.3976)">
<stop stop-color="#B35018"/>
<stop offset="1" stop-color="#DE8D35"/>
</radialGradient>
<radialGradient id="paint23_radial" cx="0" cy="0" r="1" gradientUnits="userSpaceOnUse" gradientTransform="translate(7.53034 -19.2422) rotate(56.8239) scale(8.71275 168.548)">
<stop stop-color="#B35018"/>
<stop offset="1" stop-color="#DE8D35"/>
</radialGradient>
<radialGradient id="paint24_radial" cx="0" cy="0" r="1" gradientUnits="userSpaceOnUse" gradientTransform="translate(7.48696 -16.0013) rotate(56.8239) scale(8.93157 172.781)">
<stop stop-color="#B35018"/>
<stop offset="1" stop-color="#DE8D35"/>
</radialGradient>
<radialGradient id="paint25_radial" cx="0" cy="0" r="1" gradientUnits="userSpaceOnUse" gradientTransform="translate(8.83679 -13.2764) rotate(56.8239) scale(5.25799 101.716)">
<stop stop-color="#B35018"/>
<stop offset="1" stop-color="#DE8D35"/>
</radialGradient>
<radialGradient id="paint26_radial" cx="0" cy="0" r="1" gradientUnits="userSpaceOnUse" gradientTransform="translate(8.61399 3.87241) rotate(56.8239) scale(5.49598 106.32)">
<stop stop-color="#B35018"/>
<stop offset="1" stop-color="#DE8D35"/>
</radialGradient>
<radialGradient id="paint27_radial" cx="0" cy="0" r="1" gradientUnits="userSpaceOnUse" gradientTransform="translate(11.9832 -38.9762) rotate(-123.176) scale(6.38061 123.433)">
<stop stop-color="#B35018"/>
<stop offset="1" stop-color="#DE8D35"/>
</radialGradient>
<radialGradient id="paint28_radial" cx="0" cy="0" r="1" gradientUnits="userSpaceOnUse" gradientTransform="translate(10.392 -39.9684) rotate(-123.176) scale(7.38719 142.905)">
<stop stop-color="#B35018"/>
<stop offset="1" stop-color="#DE8D35"/>
</radialGradient>
<radialGradient id="paint29_radial" cx="0" cy="0" r="1" gradientUnits="userSpaceOnUse" gradientTransform="translate(11.7467 -30.2774) rotate(-123.176) scale(4.44704 86.028)">
<stop stop-color="#B35018"/>
<stop offset="1" stop-color="#DE8D35"/>
</radialGradient>
<radialGradient id="paint30_radial" cx="0" cy="0" r="1" gradientUnits="userSpaceOnUse" gradientTransform="translate(14.8925 168.132) rotate(56.8218) scale(13.9854 156.896)">
<stop stop-color="#B35018"/>
<stop offset="1" stop-color="#DE8D35"/>
</radialGradient>
<radialGradient id="paint31_radial" cx="0" cy="0" r="1" gradientUnits="userSpaceOnUse" gradientTransform="translate(15.2028 175.255) rotate(56.8218) scale(11.5665 129.759)">
<stop stop-color="#B35018"/>
<stop offset="1" stop-color="#DE8D35"/>
</radialGradient>
<radialGradient id="paint32_radial" cx="0" cy="0" r="1" gradientUnits="userSpaceOnUse" gradientTransform="translate(19.0584 52.969) rotate(-123.173) scale(14.546 134.736)">
<stop stop-color="#B35018"/>
<stop offset="1" stop-color="#DE8D35"/>
</radialGradient>
<radialGradient id="paint33_radial" cx="0" cy="0" r="1" gradientUnits="userSpaceOnUse" gradientTransform="translate(19.502 49.969) rotate(-123.173) scale(11.726 108.615)">
<stop stop-color="#B35018"/>
<stop offset="1" stop-color="#DE8D35"/>
</radialGradient>
<radialGradient id="paint34_radial" cx="0" cy="0" r="1" gradientUnits="userSpaceOnUse" gradientTransform="translate(20.0311 47.5336) rotate(-123.173) scale(8.36779 77.5092)">
<stop stop-color="#B35018"/>
<stop offset="1" stop-color="#DE8D35"/>
</radialGradient>
<radialGradient id="paint35_radial" cx="0" cy="0" r="1" gradientUnits="userSpaceOnUse" gradientTransform="translate(20.302 45.9465) rotate(-123.173) scale(5.00035 46.3172)">
<stop stop-color="#B35018"/>
<stop offset="1" stop-color="#DE8D35"/>
</radialGradient>
<radialGradient id="paint36_radial" cx="0" cy="0" r="1" gradientUnits="userSpaceOnUse" gradientTransform="translate(20.3878 50.388) rotate(-123.173) scale(3.08522 28.5778)">
<stop stop-color="#B35018"/>
<stop offset="1" stop-color="#DE8D35"/>
</radialGradient>
<radialGradient id="paint37_radial" cx="0" cy="0" r="1" gradientUnits="userSpaceOnUse" gradientTransform="translate(21.3758 81.9973) rotate(-123.176) scale(6.7051 129.71)">
<stop stop-color="#B35018"/>
<stop offset="1" stop-color="#DE8D35"/>
</radialGradient>
<radialGradient id="paint38_radial" cx="0" cy="0" r="1" gradientUnits="userSpaceOnUse" gradientTransform="translate(21.1917 79.962) rotate(-123.176) scale(5.80391 112.277)">
<stop stop-color="#B35018"/>
<stop offset="1" stop-color="#DE8D35"/>
</radialGradient>
<radialGradient id="paint39_radial" cx="0" cy="0" r="1" gradientUnits="userSpaceOnUse" gradientTransform="translate(21.1866 77.6334) rotate(-123.176) scale(5.32464 103.005)">
<stop stop-color="#B35018"/>
<stop offset="1" stop-color="#DE8D35"/>
</radialGradient>
<radialGradient id="paint40_radial" cx="0" cy="0" r="1" gradientUnits="userSpaceOnUse" gradientTransform="translate(21.196 73.3474) rotate(-123.176) scale(4.50538 87.1568)">
<stop stop-color="#B35018"/>
<stop offset="1" stop-color="#DE8D35"/>
</radialGradient>
<radialGradient id="paint41_radial" cx="0" cy="0" r="1" gradientUnits="userSpaceOnUse" gradientTransform="translate(21.4944 61.5035) rotate(-123.176) scale(4.23775 81.9793)">
<stop stop-color="#B35018"/>
<stop offset="1" stop-color="#DE8D35"/>
</radialGradient>
<radialGradient id="paint42_radial" cx="0" cy="0" r="1" gradientUnits="userSpaceOnUse" gradientTransform="translate(18.1628 31.7884) rotate(-123.176) scale(7.97425 154.262)">
<stop stop-color="#B35018"/>
<stop offset="1" stop-color="#DE8D35"/>
</radialGradient>
<radialGradient id="paint43_radial" cx="0" cy="0" r="1" gradientUnits="userSpaceOnUse" gradientTransform="translate(18.2809 32.7733) rotate(-123.176) scale(6.33747 122.598)">
<stop stop-color="#B35018"/>
<stop offset="1" stop-color="#DE8D35"/>
</radialGradient>
<radialGradient id="paint44_radial" cx="0" cy="0" r="1" gradientUnits="userSpaceOnUse" gradientTransform="translate(18.2413 33.6646) rotate(-123.176) scale(5.63726 109.053)">
<stop stop-color="#B35018"/>
<stop offset="1" stop-color="#DE8D35"/>
</radialGradient>
<radialGradient id="paint45_radial" cx="0" cy="0" r="1" gradientUnits="userSpaceOnUse" gradientTransform="translate(18.2104 37.0798) rotate(-123.176) scale(4.28302 82.855)">
<stop stop-color="#B35018"/>
<stop offset="1" stop-color="#DE8D35"/>
</radialGradient>
<radialGradient id="paint46_radial" cx="0" cy="0" r="1" gradientUnits="userSpaceOnUse" gradientTransform="translate(18.531 49.1202) rotate(-123.176) scale(4.31512 83.4762)">
<stop stop-color="#B35018"/>
<stop offset="1" stop-color="#DE8D35"/>
</radialGradient>
<radialGradient id="paint47_radial" cx="0" cy="0" r="1" gradientUnits="userSpaceOnUse" gradientTransform="translate(26.5664 43.3148) rotate(-123.176) scale(5.25358 101.631)">
<stop stop-color="#B35018"/>
<stop offset="1" stop-color="#DE8D35"/>
</radialGradient>
<radialGradient id="paint48_radial" cx="0" cy="0" r="1" gradientUnits="userSpaceOnUse" gradientTransform="translate(26.3919 43.6183) rotate(-123.176) scale(4.61089 89.1978)">
<stop stop-color="#B35018"/>
<stop offset="1" stop-color="#DE8D35"/>
</radialGradient>
<radialGradient id="paint49_radial" cx="0" cy="0" r="1" gradientUnits="userSpaceOnUse" gradientTransform="translate(19.0898 52.4436) rotate(56.8239) scale(8.66931 167.708)">
<stop stop-color="#B35018"/>
<stop offset="1" stop-color="#DE8D35"/>
</radialGradient>
<radialGradient id="paint50_radial" cx="0" cy="0" r="1" gradientUnits="userSpaceOnUse" gradientTransform="translate(19.0658 49.6577) rotate(56.8239) scale(8.86559 171.505)">
<stop stop-color="#B35018"/>
<stop offset="1" stop-color="#DE8D35"/>
</radialGradient>
<radialGradient id="paint51_radial" cx="0" cy="0" r="1" gradientUnits="userSpaceOnUse" gradientTransform="translate(20.4242 51.0719) rotate(56.8239) scale(5.1332 99.3019)">
<stop stop-color="#B35018"/>
<stop offset="1" stop-color="#DE8D35"/>
</radialGradient>
<radialGradient id="paint52_radial" cx="0" cy="0" r="1" gradientUnits="userSpaceOnUse" gradientTransform="translate(20.3271 35.9858) rotate(56.8239) scale(5.30309 102.588)">
<stop stop-color="#B35018"/>
<stop offset="1" stop-color="#DE8D35"/>
</radialGradient>
<radialGradient id="paint53_radial" cx="0" cy="0" r="1" gradientUnits="userSpaceOnUse" gradientTransform="translate(23.3533 81.3264) rotate(-123.176) scale(6.25609 121.024)">
<stop stop-color="#B35018"/>
<stop offset="1" stop-color="#DE8D35"/>
</radialGradient>
<radialGradient id="paint54_radial" cx="0" cy="0" r="1" gradientUnits="userSpaceOnUse" gradientTransform="translate(21.7695 77.8111) rotate(-123.176) scale(7.23559 139.973)">
<stop stop-color="#B35018"/>
<stop offset="1" stop-color="#DE8D35"/>
</radialGradient>
<radialGradient id="paint55_radial" cx="0" cy="0" r="1" gradientUnits="userSpaceOnUse" gradientTransform="translate(23.1813 73.2588) rotate(-123.176) scale(4.20382 81.3229)">
<stop stop-color="#B35018"/>
<stop offset="1" stop-color="#DE8D35"/>
</radialGradient>
<radialGradient id="paint56_radial" cx="0" cy="0" r="1" gradientUnits="userSpaceOnUse" gradientTransform="translate(15.4582 9.07321) rotate(56.8218) scale(14.0181 157.262)">
<stop stop-color="#B35018"/>
<stop offset="1" stop-color="#DE8D35"/>
</radialGradient>
<radialGradient id="paint57_radial" cx="0" cy="0" r="1" gradientUnits="userSpaceOnUse" gradientTransform="translate(15.7661 15.7329) rotate(56.8218) scale(11.5721 129.822)">
<stop stop-color="#B35018"/>
<stop offset="1" stop-color="#DE8D35"/>
</radialGradient>
<radialGradient id="paint58_radial" cx="0" cy="0" r="1" gradientUnits="userSpaceOnUse" gradientTransform="translate(15.9861 20.4599) rotate(56.8218) scale(8.76485 98.3287)">
<stop stop-color="#B35018"/>
<stop offset="1" stop-color="#DE8D35"/>
</radialGradient>
<radialGradient id="paint59_radial" cx="0" cy="0" r="1" gradientUnits="userSpaceOnUse" gradientTransform="translate(16.2992 11.9015) rotate(56.8219) scale(3.27504 36.7411)">
<stop stop-color="#B35018"/>
<stop offset="1" stop-color="#DE8D35"/>
</radialGradient>
<radialGradient id="paint60_radial" cx="0" cy="0" r="1" gradientUnits="userSpaceOnUse" gradientTransform="translate(19.6356 -107.011) rotate(-123.173) scale(14.6141 135.368)">
<stop stop-color="#B35018"/>
<stop offset="1" stop-color="#DE8D35"/>
</radialGradient>
<radialGradient id="paint61_radial" cx="0" cy="0" r="1" gradientUnits="userSpaceOnUse" gradientTransform="translate(20.0582 -104.634) rotate(-123.173) scale(11.7864 109.175)">
<stop stop-color="#B35018"/>
<stop offset="1" stop-color="#DE8D35"/>
</radialGradient>
<radialGradient id="paint62_radial" cx="0" cy="0" r="1" gradientUnits="userSpaceOnUse" gradientTransform="translate(20.557 -98.4721) rotate(-123.173) scale(8.44082 78.1857)">
<stop stop-color="#B35018"/>
<stop offset="1" stop-color="#DE8D35"/>
</radialGradient>
<radialGradient id="paint63_radial" cx="0" cy="0" r="1" gradientUnits="userSpaceOnUse" gradientTransform="translate(21.8792 -56.1607) rotate(-123.176) scale(6.76747 130.917)">
<stop stop-color="#B35018"/>
<stop offset="1" stop-color="#DE8D35"/>
</radialGradient>
<radialGradient id="paint64_radial" cx="0" cy="0" r="1" gradientUnits="userSpaceOnUse" gradientTransform="translate(21.6887 -55.483) rotate(-123.176) scale(5.88153 113.778)">
<stop stop-color="#B35018"/>
<stop offset="1" stop-color="#DE8D35"/>
</radialGradient>
<radialGradient id="paint65_radial" cx="0" cy="0" r="1" gradientUnits="userSpaceOnUse" gradientTransform="translate(21.6745 -54.7467) rotate(-123.176) scale(5.3668 103.821)">
<stop stop-color="#B35018"/>
<stop offset="1" stop-color="#DE8D35"/>
</radialGradient>
<radialGradient id="paint66_radial" cx="0" cy="0" r="1" gradientUnits="userSpaceOnUse" gradientTransform="translate(21.6616 -56.6255) rotate(-123.176) scale(4.61178 89.2149)">
<stop stop-color="#B35018"/>
<stop offset="1" stop-color="#DE8D35"/>
</radialGradient>
<radialGradient id="paint67_radial" cx="0" cy="0" r="1" gradientUnits="userSpaceOnUse" gradientTransform="translate(21.9496 -65.5558) rotate(-123.176) scale(4.49362 86.9292)">
<stop stop-color="#B35018"/>
<stop offset="1" stop-color="#DE8D35"/>
</radialGradient>
<radialGradient id="paint68_radial" cx="0" cy="0" r="1" gradientUnits="userSpaceOnUse" gradientTransform="translate(18.7315 -123.586) rotate(-123.176) scale(7.99744 154.711)">
<stop stop-color="#B35018"/>
<stop offset="1" stop-color="#DE8D35"/>
</radialGradient>
<radialGradient id="paint69_radial" cx="0" cy="0" r="1" gradientUnits="userSpaceOnUse" gradientTransform="translate(18.824 -115.936) rotate(-123.176) scale(6.34834 122.809)">
<stop stop-color="#B35018"/>
<stop offset="1" stop-color="#DE8D35"/>
</radialGradient>
<radialGradient id="paint70_radial" cx="0" cy="0" r="1" gradientUnits="userSpaceOnUse" gradientTransform="translate(18.7737 -111.211) rotate(-123.176) scale(5.61466 108.616)">
<stop stop-color="#B35018"/>
<stop offset="1" stop-color="#DE8D35"/>
</radialGradient>
<radialGradient id="paint71_radial" cx="0" cy="0" r="1" gradientUnits="userSpaceOnUse" gradientTransform="translate(18.7622 -104.197) rotate(-123.176) scale(4.31308 83.4367)">
<stop stop-color="#B35018"/>
<stop offset="1" stop-color="#DE8D35"/>
</radialGradient>
<radialGradient id="paint72_radial" cx="0" cy="0" r="1" gradientUnits="userSpaceOnUse" gradientTransform="translate(19.0346 -89.7804) rotate(-123.176) scale(4.29102 83.0099)">
<stop stop-color="#B35018"/>
<stop offset="1" stop-color="#DE8D35"/>
</radialGradient>
<radialGradient id="paint73_radial" cx="0" cy="0" r="1" gradientUnits="userSpaceOnUse" gradientTransform="translate(26.9978 -74.8356) rotate(-123.176) scale(5.24343 101.434)">
<stop stop-color="#B35018"/>
<stop offset="1" stop-color="#DE8D35"/>
</radialGradient>
<radialGradient id="paint74_radial" cx="0" cy="0" r="1" gradientUnits="userSpaceOnUse" gradientTransform="translate(26.8035 -70.1441) rotate(-123.176) scale(4.34947 84.1406)">
<stop stop-color="#B35018"/>
<stop offset="1" stop-color="#DE8D35"/>
</radialGradient>
<radialGradient id="paint75_radial" cx="0" cy="0" r="1" gradientUnits="userSpaceOnUse" gradientTransform="translate(19.6283 -96.35) rotate(56.8239) scale(8.70815 168.459)">
<stop stop-color="#B35018"/>
<stop offset="1" stop-color="#DE8D35"/>
</radialGradient>
<radialGradient id="paint76_radial" cx="0" cy="0" r="1" gradientUnits="userSpaceOnUse" gradientTransform="translate(19.6091 -95.7455) rotate(56.8239) scale(8.94378 173.018)">
<stop stop-color="#B35018"/>
<stop offset="1" stop-color="#DE8D35"/>
</radialGradient>
<radialGradient id="paint77_radial" cx="0" cy="0" r="1" gradientUnits="userSpaceOnUse" gradientTransform="translate(20.9221 -87.7473) rotate(56.8239) scale(5.1921 100.441)">
<stop stop-color="#B35018"/>
<stop offset="1" stop-color="#DE8D35"/>
</radialGradient>
<radialGradient id="paint78_radial" cx="0" cy="0" r="1" gradientUnits="userSpaceOnUse" gradientTransform="translate(20.8111 -99.1629) rotate(56.8239) scale(5.33858 103.275)">
<stop stop-color="#B35018"/>
<stop offset="1" stop-color="#DE8D35"/>
</radialGradient>
<radialGradient id="paint79_radial" cx="0" cy="0" r="1" gradientUnits="userSpaceOnUse" gradientTransform="translate(23.82 -47.3555) rotate(-123.176) scale(6.31427 122.15)">
<stop stop-color="#B35018"/>
<stop offset="1" stop-color="#DE8D35"/>
</radialGradient>
<radialGradient id="paint80_radial" cx="0" cy="0" r="1" gradientUnits="userSpaceOnUse" gradientTransform="translate(22.1651 -51.7391) rotate(-123.176) scale(7.42983 143.73)">
<stop stop-color="#B35018"/>
<stop offset="1" stop-color="#DE8D35"/>
</radialGradient>
<radialGradient id="paint81_radial" cx="0" cy="0" r="1" gradientUnits="userSpaceOnUse" gradientTransform="translate(23.6198 -49.0474) rotate(-123.176) scale(4.34411 84.0369)">
<stop stop-color="#B35018"/>
<stop offset="1" stop-color="#DE8D35"/>
</radialGradient>
<radialGradient id="paint82_radial" cx="0" cy="0" r="1" gradientUnits="userSpaceOnUse" gradientTransform="translate(27.7139 -82.3141) rotate(56.8218) scale(13.9505 156.504)">
<stop stop-color="#B35018"/>
<stop offset="1" stop-color="#DE8D35"/>
</radialGradient>
<radialGradient id="paint83_radial" cx="0" cy="0" r="1" gradientUnits="userSpaceOnUse" gradientTransform="translate(28.0723 -87.3188) rotate(56.8218) scale(11.51 129.125)">
<stop stop-color="#B35018"/>
<stop offset="1" stop-color="#DE8D35"/>
</radialGradient>
<radialGradient id="paint84_radial" cx="0" cy="0" r="1" gradientUnits="userSpaceOnUse" gradientTransform="translate(28.3254 -92.2713) rotate(56.8218) scale(8.64696 97.0062)">
<stop stop-color="#B35018"/>
<stop offset="1" stop-color="#DE8D35"/>
</radialGradient>
<radialGradient id="paint85_radial" cx="0" cy="0" r="1" gradientUnits="userSpaceOnUse" gradientTransform="translate(31.009 24.6547) rotate(-123.173) scale(14.3931 133.321)">
<stop stop-color="#B35018"/>
<stop offset="1" stop-color="#DE8D35"/>
</radialGradient>
<radialGradient id="paint86_radial" cx="0" cy="0" r="1" gradientUnits="userSpaceOnUse" gradientTransform="translate(31.4253 28.4211) rotate(-123.173) scale(11.6352 107.775)">
<stop stop-color="#B35018"/>
<stop offset="1" stop-color="#DE8D35"/>
</radialGradient>
<radialGradient id="paint87_radial" cx="0" cy="0" r="1" gradientUnits="userSpaceOnUse" gradientTransform="translate(31.9305 31.9753) rotate(-123.173) scale(8.26572 76.5638)">
<stop stop-color="#B35018"/>
<stop offset="1" stop-color="#DE8D35"/>
</radialGradient>
<radialGradient id="paint88_radial" cx="0" cy="0" r="1" gradientUnits="userSpaceOnUse" gradientTransform="translate(32.1877 34.0197) rotate(-123.173) scale(4.88186 45.2197)">
<stop stop-color="#B35018"/>
<stop offset="1" stop-color="#DE8D35"/>
</radialGradient>
<radialGradient id="paint89_radial" cx="0" cy="0" r="1" gradientUnits="userSpaceOnUse" gradientTransform="translate(32.3702 30.8093) rotate(-123.173) scale(2.83375 26.2485)">
<stop stop-color="#B35018"/>
<stop offset="1" stop-color="#DE8D35"/>
</radialGradient>
<radialGradient id="paint90_radial" cx="0" cy="0" r="1" gradientUnits="userSpaceOnUse" gradientTransform="translate(33.5011 7.58629) rotate(-123.176) scale(6.60596 127.792)">
<stop stop-color="#B35018"/>
<stop offset="1" stop-color="#DE8D35"/>
</radialGradient>
<radialGradient id="paint91_radial" cx="0" cy="0" r="1" gradientUnits="userSpaceOnUse" gradientTransform="translate(33.3109 8.75698) rotate(-123.176) scale(5.67205 109.726)">
<stop stop-color="#B35018"/>
<stop offset="1" stop-color="#DE8D35"/>
</radialGradient>
<radialGradient id="paint92_radial" cx="0" cy="0" r="1" gradientUnits="userSpaceOnUse" gradientTransform="translate(33.2876 10.6984) rotate(-123.176) scale(5.14185 99.4692)">
<stop stop-color="#B35018"/>
<stop offset="1" stop-color="#DE8D35"/>
</radialGradient>
<radialGradient id="paint93_radial" cx="0" cy="0" r="1" gradientUnits="userSpaceOnUse" gradientTransform="translate(33.2672 14.2883) rotate(-123.176) scale(4.28492 82.8918)">
<stop stop-color="#B35018"/>
<stop offset="1" stop-color="#DE8D35"/>
</radialGradient>
<radialGradient id="paint94_radial" cx="0" cy="0" r="1" gradientUnits="userSpaceOnUse" gradientTransform="translate(33.4751 24.834) rotate(-123.176) scale(3.83752 74.2373)">
<stop stop-color="#B35018"/>
<stop offset="1" stop-color="#DE8D35"/>
</radialGradient>
<radialGradient id="paint95_radial" cx="0" cy="0" r="1" gradientUnits="userSpaceOnUse" gradientTransform="translate(29.98 39.5796) rotate(-123.176) scale(7.80354 150.96)">
<stop stop-color="#B35018"/>
<stop offset="1" stop-color="#DE8D35"/>
</radialGradient>
<radialGradient id="paint96_radial" cx="0" cy="0" r="1" gradientUnits="userSpaceOnUse" gradientTransform="translate(30.0917 39.1505) rotate(-123.176) scale(6.13372 118.657)">
<stop stop-color="#B35018"/>
<stop offset="1" stop-color="#DE8D35"/>
</radialGradient>
<radialGradient id="paint97_radial" cx="0" cy="0" r="1" gradientUnits="userSpaceOnUse" gradientTransform="translate(30.0603 38.3317) rotate(-123.176) scale(5.34576 103.414)">
<stop stop-color="#B35018"/>
<stop offset="1" stop-color="#DE8D35"/>
</radialGradient>
<radialGradient id="paint98_radial" cx="0" cy="0" r="1" gradientUnits="userSpaceOnUse" gradientTransform="translate(30.0522 35.4339) rotate(-123.176) scale(3.78249 73.1724)">
<stop stop-color="#B35018"/>
<stop offset="1" stop-color="#DE8D35"/>
</radialGradient>
<radialGradient id="paint99_radial" cx="0" cy="0" r="1" gradientUnits="userSpaceOnUse" gradientTransform="translate(30.4584 26.511) rotate(-123.176) scale(3.67154 71.026)">
<stop stop-color="#B35018"/>
<stop offset="1" stop-color="#DE8D35"/>
</radialGradient>
<radialGradient id="paint100_radial" cx="0" cy="0" r="1" gradientUnits="userSpaceOnUse" gradientTransform="translate(31.0307 25.2866) rotate(56.8239) scale(8.63719 167.087)">
<stop stop-color="#B35018"/>
<stop offset="1" stop-color="#DE8D35"/>
</radialGradient>
<radialGradient id="paint101_radial" cx="0" cy="0" r="1" gradientUnits="userSpaceOnUse" gradientTransform="translate(30.9907 27.4191) rotate(56.8239) scale(8.81259 170.48)">
<stop stop-color="#B35018"/>
<stop offset="1" stop-color="#DE8D35"/>
</radialGradient>
<radialGradient id="paint102_radial" cx="0" cy="0" r="1" gradientUnits="userSpaceOnUse" gradientTransform="translate(32.3452 30.1573) rotate(56.8239) scale(5.02765 97.2601)">
<stop stop-color="#B35018"/>
<stop offset="1" stop-color="#DE8D35"/>
</radialGradient>
<radialGradient id="paint103_radial" cx="0" cy="0" r="1" gradientUnits="userSpaceOnUse" gradientTransform="translate(32.1417 42.2357) rotate(56.8239) scale(5.13319 99.3017)">
<stop stop-color="#B35018"/>
<stop offset="1" stop-color="#DE8D35"/>
</radialGradient>
<radialGradient id="paint104_radial" cx="0" cy="0" r="1" gradientUnits="userSpaceOnUse" gradientTransform="translate(35.4564 13.8742) rotate(-123.176) scale(6.15111 118.993)">
<stop stop-color="#B35018"/>
<stop offset="1" stop-color="#DE8D35"/>
</radialGradient>
<radialGradient id="paint105_radial" cx="0" cy="0" r="1" gradientUnits="userSpaceOnUse" gradientTransform="translate(33.8688 12.19) rotate(-123.176) scale(7.10081 137.365)">
<stop stop-color="#B35018"/>
<stop offset="1" stop-color="#DE8D35"/>
</radialGradient>
<linearGradient id="paint106_linear" x1="20.1066" y1="19.0217" x2="22.7502" y2="19.0217" gradientUnits="userSpaceOnUse">
<stop stop-color="white" stop-opacity="0.3"/>
<stop offset="0.2678" stop-color="#CCC5C0" stop-opacity="0.4875"/>
<stop offset="1" stop-color="#422918"/>
</linearGradient>
<linearGradient id="paint107_linear" x1="30.8291" y1="19.2073" x2="33.4727" y2="19.2073" gradientUnits="userSpaceOnUse">
<stop stop-color="white" stop-opacity="0.3"/>
<stop offset="0.2678" stop-color="#CCC5C0" stop-opacity="0.4875"/>
<stop offset="1" stop-color="#422918"/>
</linearGradient>
<linearGradient id="paint108_linear" x1="25.204" y1="18.8496" x2="22.7498" y2="18.8496" gradientUnits="userSpaceOnUse">
<stop stop-color="white" stop-opacity="0.3"/>
<stop offset="0.2678" stop-color="#CCC5C0" stop-opacity="0.4875"/>
<stop offset="1" stop-color="#422918"/>
</linearGradient>
<linearGradient id="paint109_linear" x1="5.38989" y1="18.7187" x2="8.03345" y2="18.7187" gradientUnits="userSpaceOnUse">
<stop stop-color="white" stop-opacity="0.3"/>
<stop offset="0.2678" stop-color="#CCC5C0" stop-opacity="0.4875"/>
<stop offset="1" stop-color="#422918"/>
</linearGradient>
<linearGradient id="paint110_linear" x1="10.4875" y1="18.6325" x2="8.03334" y2="18.6325" gradientUnits="userSpaceOnUse">
<stop stop-color="white" stop-opacity="0.3"/>
<stop offset="0.2678" stop-color="#CCC5C0" stop-opacity="0.4875"/>
<stop offset="1" stop-color="#422918"/>
</linearGradient>
<linearGradient id="paint111_linear" x1="1.90644" y1="18.9879" x2="35.0933" y2="18.9879" gradientUnits="userSpaceOnUse">
<stop/>
<stop offset="0.00429839" stop-color="#090909"/>
<stop offset="0.0277675" stop-color="#373737"/>
<stop offset="0.0542172" stop-color="#626262"/>
<stop offset="0.0826444" stop-color="#888888"/>
<stop offset="0.1136" stop-color="#A8A8A8"/>
<stop offset="0.1478" stop-color="#C4C4C4"/>
<stop offset="0.1864" stop-color="#DADADA"/>
<stop offset="0.2315" stop-color="#EBEBEB"/>
<stop offset="0.2872" stop-color="#F6F6F6"/>
<stop offset="0.3654" stop-color="#FDFDFD"/>
<stop offset="0.5824" stop-color="white"/>
<stop offset="0.6688" stop-color="#BBBBBB"/>
<stop offset="0.8455" stop-color="#363636"/>
<stop offset="0.9231"/>
</linearGradient>
</defs>
</svg>
