<svg width="37" height="37" viewBox="0 0 37 37" fill="none" xmlns="http://www.w3.org/2000/svg">
<path d="M34.9951 0H2C0.895431 0 0 0.895431 0 2V35C0 36.1046 0.895431 37 2 37H34.9951C36.0997 37 36.9951 36.1046 36.9951 35V2C36.9951 0.89543 36.0997 0 34.9951 0Z" fill="url(#paint0_linear)"/>
<path d="M34.3599 0.636719H2.63696C1.53239 0.636719 0.636963 1.53215 0.636963 2.63672V34.3629C0.636963 35.4675 1.53239 36.3629 2.63696 36.3629H34.3599C35.4645 36.3629 36.3599 35.4675 36.3599 34.3629V2.63672C36.3599 1.53215 35.4645 0.636719 34.3599 0.636719Z" fill="url(#paint1_linear)"/>
<path d="M18.4975 34.4766C27.3513 34.4766 34.5288 27.3099 34.5288 18.4693C34.5288 9.62865 27.3513 2.46191 18.4975 2.46191C9.64373 2.46191 2.46631 9.62865 2.46631 18.4693C2.46631 27.3099 9.64373 34.4766 18.4975 34.4766Z" fill="url(#paint2_linear)"/>
<path opacity="0.047619" d="M15.547 26.6867H21.7325C21.9169 26.6867 22.073 26.5309 22.073 26.3467V23.757C22.073 22.6525 22.9684 21.757 24.073 21.757H26.4709C26.6553 21.757 26.8114 21.6012 26.8114 21.417V15.2549C26.8114 15.0708 26.6553 14.9149 26.4709 14.9149H24.073C22.9684 14.9149 22.073 14.0195 22.073 12.9149V10.5802C22.073 10.3961 21.9169 10.2402 21.7325 10.2402H15.547C15.3626 10.2402 15.2065 10.3961 15.2065 10.5802V12.9291C15.2065 14.0337 14.3111 14.9291 13.2065 14.9291H10.5248C10.3404 14.9291 10.1843 15.0849 10.1843 15.2691V21.4454C10.1843 21.6295 10.3404 21.7854 10.5248 21.7854H13.2065C14.3111 21.7854 15.2065 22.6808 15.2065 23.7854V26.3751C15.2065 26.5451 15.3626 26.6867 15.547 26.6867Z" fill="#F5F5F5"/>
<path opacity="0.0952381" d="M15.5896 26.5865H21.69C21.8744 26.5865 22.0163 26.4307 22.0163 26.2607V23.7277C22.0163 22.6231 22.9117 21.7277 24.0163 21.7277H26.3716C26.5561 21.7277 26.6979 21.586 26.6979 21.4019V15.3106C26.6979 15.1264 26.5419 14.9848 26.3716 14.9848H24.0163C22.9117 14.9848 22.0163 14.0893 22.0163 12.9848V10.65C22.0163 10.4659 21.8744 10.3242 21.69 10.3242H15.5896C15.4051 10.3242 15.2633 10.48 15.2633 10.65V12.9564C15.2633 14.061 14.3678 14.9564 13.2633 14.9564H10.6242C10.4397 14.9564 10.2979 15.1123 10.2979 15.2822V21.3735C10.2979 21.5577 10.4539 21.6993 10.6242 21.6993H13.2491C14.3537 21.6993 15.2491 22.5948 15.2491 23.6993V26.2324C15.2491 26.4449 15.4051 26.5865 15.5896 26.5865Z" fill="#ECEBEB"/>
<path opacity="0.1429" d="M15.6182 26.4893H21.6477C21.8321 26.4893 21.974 26.3476 21.974 26.1635V23.6729C21.974 22.5684 22.8694 21.6729 23.974 21.6729H26.301C26.4854 21.6729 26.6273 21.5313 26.6273 21.3471V15.3408C26.6273 15.1567 26.4854 15.015 26.301 15.015H23.974C22.8694 15.015 21.974 14.1196 21.974 13.015V10.7369C21.974 10.5528 21.8321 10.4111 21.6477 10.4111H15.6182C15.4338 10.4111 15.292 10.5528 15.292 10.7369V13.0008C15.292 14.1054 14.3965 15.0008 13.292 15.0008H10.7238C10.5393 15.0008 10.3975 15.1425 10.3975 15.3267V21.333C10.3975 21.5171 10.5393 21.6588 10.7238 21.6588H13.292C14.3965 21.6588 15.292 22.5542 15.292 23.6588V26.1493C15.292 26.3476 15.448 26.4893 15.6182 26.4893Z" fill="#E2E0E0"/>
<path opacity="0.1905" d="M15.6599 26.3882H21.6042C21.7886 26.3882 21.9305 26.2465 21.9305 26.0623V23.6285C21.9305 22.5239 22.8259 21.6285 23.9305 21.6285H26.215C26.3994 21.6285 26.5413 21.4868 26.5413 21.3026V15.3813C26.5413 15.1972 26.3994 15.0555 26.215 15.0555H23.9305C22.8259 15.0555 21.9305 14.1601 21.9305 13.0555V10.82C21.9305 10.6358 21.7886 10.4941 21.6042 10.4941H15.6599C15.4755 10.4941 15.3336 10.6358 15.3336 10.82V13.0555C15.3336 14.1601 14.4382 15.0555 13.3336 15.0555H10.8221C10.6377 15.0555 10.4958 15.1972 10.4958 15.3813V21.3168C10.4958 21.501 10.6377 21.6426 10.8221 21.6426H13.3336C14.4382 21.6426 15.3336 22.538 15.3336 23.6426V26.0765C15.3336 26.2465 15.4896 26.3882 15.6599 26.3882Z" fill="#D8D6D6"/>
<path opacity="0.2381" d="M15.7028 26.2899H21.562C21.7322 26.2899 21.8882 26.1483 21.8882 25.9641V23.5727C21.8882 22.4682 22.7837 21.5727 23.8882 21.5727H26.1301C26.3004 21.5727 26.4564 21.4311 26.4564 21.2469V15.4248C26.4564 15.2548 26.3146 15.099 26.1301 15.099H23.8882C22.7837 15.099 21.8882 14.2035 21.8882 13.099V10.9059C21.8882 10.7359 21.7464 10.5801 21.562 10.5801H15.7028C15.5325 10.5801 15.3765 10.7217 15.3765 10.9059V13.099C15.3765 14.2035 14.481 15.099 13.3765 15.099H10.9218C10.7515 15.099 10.5955 15.2406 10.5955 15.4248V21.2752C10.5955 21.4452 10.7373 21.6011 10.9218 21.6011H13.3765C14.481 21.6011 15.3765 22.4965 15.3765 23.6011V25.9925C15.3765 26.1483 15.5183 26.2899 15.7028 26.2899Z" fill="#CECCCC"/>
<path opacity="0.2857" d="M15.7456 26.1903H21.5197C21.6899 26.1903 21.8318 26.0486 21.8318 25.8786V23.5439C21.8318 22.4393 22.7272 21.5439 23.8318 21.5439H26.0311C26.2014 21.5439 26.3432 21.4022 26.3432 21.2322V15.4667C26.3432 15.2968 26.2014 15.1551 26.0311 15.1551H23.8318C22.7272 15.1551 21.8318 14.2597 21.8318 13.1551V10.9904C21.8318 10.8204 21.6899 10.6787 21.5197 10.6787H15.7456C15.5754 10.6787 15.4335 10.8204 15.4335 10.9904V13.1409C15.4335 14.2455 14.5381 15.1409 13.4335 15.1409H11.0214C10.8369 15.1409 10.6951 15.2826 10.6951 15.4667V21.2322C10.6951 21.4022 10.8369 21.5439 11.0072 21.5439H13.4193C14.5239 21.5439 15.4193 22.4393 15.4193 23.5439V25.8786C15.4193 26.0486 15.5612 26.1903 15.7456 26.1903Z" fill="#C5C2C2"/>
<path opacity="0.3333" d="M15.774 26.093H21.4772C21.6474 26.093 21.7893 25.9514 21.7893 25.7814V23.4891C21.7893 22.3846 22.6847 21.4891 23.7893 21.4891H25.946C26.1163 21.4891 26.2582 21.3475 26.2582 21.1775V15.497C26.2582 15.327 26.1163 15.1854 25.946 15.1854H23.7893C22.6847 15.1854 21.7893 14.2899 21.7893 13.1854V11.0773C21.7893 10.9073 21.6474 10.7656 21.4772 10.7656H15.7882C15.618 10.7656 15.4761 10.9073 15.4761 11.0773V13.1995C15.4761 14.3041 14.5807 15.1995 13.4761 15.1995H11.1207C10.9505 15.1995 10.8086 15.3412 10.8086 15.5112V21.1916C10.8086 21.3616 10.9505 21.5033 11.1207 21.5033H13.4761C14.5807 21.5033 15.4761 22.3987 15.4761 23.5033V25.7955C15.4619 25.9513 15.6038 26.093 15.774 26.093Z" fill="#BBB7B7"/>
<path opacity="0.381" d="M15.8162 25.9928H21.4342C21.6044 25.9928 21.7463 25.8512 21.7463 25.6812V23.4456C21.7463 22.341 22.6417 21.4456 23.7463 21.4456H25.8605C26.0308 21.4456 26.1726 21.304 26.1726 21.134V15.5385C26.1726 15.3685 26.0308 15.2268 25.8605 15.2268H23.7463C22.6417 15.2268 21.7463 14.3314 21.7463 13.2268V11.1613C21.7463 10.9913 21.6044 10.8496 21.4342 10.8496H15.8162C15.6459 10.8496 15.5041 10.9913 15.5041 11.1613V13.241C15.5041 14.3456 14.6086 15.241 13.5041 15.241H11.2054C11.0352 15.241 10.8933 15.3827 10.8933 15.5527V21.1623C10.8933 21.3323 11.0352 21.474 11.2054 21.474H13.5182C14.6228 21.474 15.5182 22.3694 15.5182 23.4739V25.7095C15.5182 25.8653 15.6459 25.9928 15.8162 25.9928Z" fill="#B1ADAD"/>
<path opacity="0.4286" d="M15.8588 25.8931H21.3917C21.5619 25.8931 21.6896 25.7515 21.6896 25.5957V23.4026C21.6896 22.298 22.585 21.4026 23.6896 21.4026H25.7754C25.9457 21.4026 26.0733 21.2609 26.0733 21.1051V15.5805C26.0733 15.4105 25.9315 15.283 25.7754 15.283H23.6896C22.585 15.283 21.6896 14.3875 21.6896 13.283V11.2457C21.6896 11.0757 21.5619 10.9482 21.3917 10.9482H15.8588C15.6885 10.9482 15.5608 11.0899 15.5608 11.2457V13.283C15.5608 14.3875 14.6654 15.283 13.5608 15.283H11.3048C11.1345 15.283 11.0068 15.4246 11.0068 15.5805V21.1051C11.0068 21.2751 11.1345 21.4026 11.3048 21.4026H13.5467C14.6512 21.4026 15.5467 22.298 15.5467 23.4026V25.5957C15.5608 25.7657 15.6885 25.8931 15.8588 25.8931Z" fill="#A8A3A3"/>
<path opacity="0.4762" d="M15.9014 25.7954H21.3492C21.5194 25.7954 21.6471 25.6679 21.6471 25.4979V23.3615C21.6471 22.257 22.5425 21.3615 23.6471 21.3615H25.6904C25.8606 21.3615 25.9883 21.234 25.9883 21.0641V15.6244C25.9883 15.4544 25.8606 15.3269 25.6904 15.3269H23.6471C22.5425 15.3269 21.6471 14.4315 21.6471 13.3269V11.318C21.6471 11.148 21.5194 11.0205 21.3492 11.0205H15.9014C15.7311 11.0205 15.6035 11.148 15.6035 11.318V13.3269C15.6035 14.4315 14.708 15.3269 13.6035 15.3269H11.4041C11.2339 15.3269 11.1062 15.4544 11.1062 15.6244V21.0641C11.1062 21.234 11.2339 21.3615 11.4041 21.3615H13.5893C14.6938 21.3615 15.5893 22.257 15.5893 23.3615V25.4979C15.6035 25.6679 15.7311 25.7954 15.9014 25.7954Z" fill="#9E9999"/>
<path opacity="0.5238" d="M15.9288 25.6953H21.2915C21.4476 25.6953 21.5894 25.5678 21.5894 25.3978V23.3039C21.5894 22.1993 22.4849 21.3039 23.5894 21.3039H25.5901C25.7462 21.3039 25.8881 21.1764 25.8881 21.0064V15.6659C25.8881 15.5101 25.7604 15.3684 25.5901 15.3684H23.5894C22.4849 15.3684 21.5894 14.473 21.5894 13.3684V11.402C21.5894 11.2461 21.4617 11.1045 21.2915 11.1045H15.9288C15.7728 11.1045 15.6309 11.232 15.6309 11.402V13.3684C15.6309 14.473 14.7355 15.3684 13.6309 15.3684H11.5025C11.3465 15.3684 11.2046 15.4959 11.2046 15.6659V21.0205C11.2046 21.1764 11.3323 21.318 11.5025 21.318H13.6451C14.7497 21.318 15.6451 22.2135 15.6451 23.318V25.4119C15.6451 25.5678 15.7728 25.6953 15.9288 25.6953Z" fill="#948E8E"/>
<path opacity="0.5714" d="M15.9719 25.5956H21.2636C21.4197 25.5956 21.5474 25.4681 21.5474 25.3123V23.275C21.5474 22.1704 22.4428 21.275 23.5474 21.275H25.5055C25.6616 21.275 25.7893 21.1475 25.7893 20.9917V15.7078C25.7893 15.552 25.6616 15.4245 25.5055 15.4245H23.5474C22.4428 15.4245 21.5474 14.5291 21.5474 13.4245V11.4864C21.5474 11.3306 21.4197 11.2031 21.2636 11.2031H15.9719C15.8159 11.2031 15.6882 11.3306 15.6882 11.4864V13.4245C15.6882 14.5291 14.7927 15.4245 13.6882 15.4245H11.6023C11.4463 15.4245 11.3186 15.552 11.3186 15.7078V20.9775C11.3186 21.1333 11.4463 21.2608 11.6023 21.2608H13.6882C14.7927 21.2608 15.6882 22.1563 15.6882 23.2608V25.2981C15.6882 25.4681 15.8159 25.5956 15.9719 25.5956Z" fill="#8A8484"/>
<path opacity="0.619" d="M16.0155 25.4944H21.2221C21.3782 25.4944 21.5058 25.3669 21.5058 25.2111V23.2164C21.5058 22.1118 22.4013 21.2163 23.5058 21.2163H25.4214C25.5775 21.2163 25.7052 21.0889 25.7052 20.933V15.7484C25.7052 15.5925 25.5775 15.465 25.4214 15.465H23.5058C22.4013 15.465 21.5058 14.5696 21.5058 13.465V11.5694C21.5058 11.4136 21.3782 11.2861 21.2221 11.2861H16.0155C15.8595 11.2861 15.7318 11.4136 15.7318 11.5694V13.465C15.7318 14.5696 14.8363 15.465 13.7318 15.465H11.7027C11.5466 15.465 11.4189 15.5925 11.4189 15.7484V20.9472C11.4189 21.103 11.5466 21.2305 11.7027 21.2305H13.7318C14.8363 21.2305 15.7318 22.1259 15.7318 23.2305V25.2253C15.7318 25.3669 15.8595 25.4944 16.0155 25.4944Z" fill="#817A7A"/>
<path opacity="0.6667" d="M16.043 25.3972H21.1645C21.3205 25.3972 21.4482 25.2697 21.4482 25.1139V23.1758C21.4482 22.0712 22.3436 21.1758 23.4482 21.1758H25.3212C25.4773 21.1758 25.605 21.0483 25.605 20.8925V15.7928C25.605 15.6369 25.4773 15.5095 25.3212 15.5095H23.4482C22.3436 15.5095 21.4482 14.614 21.4482 13.5095V11.6564C21.4482 11.5005 21.3205 11.373 21.1645 11.373H16.043C15.8869 11.373 15.7593 11.5005 15.7593 11.6564V13.5095C15.7593 14.614 14.8638 15.5095 13.7593 15.5095H11.7869C11.6309 15.5095 11.5032 15.6369 11.5032 15.7928V20.9066C11.5032 21.0624 11.6309 21.1899 11.7869 21.1899H13.7592C14.8638 21.1899 15.7593 22.0854 15.7593 23.1899V25.128C15.7734 25.2697 15.9011 25.3972 16.043 25.3972Z" fill="#777070"/>
<path opacity="0.7143" d="M16.0853 25.2985H21.1217C21.2778 25.2985 21.3912 25.171 21.3912 25.0293V23.1337C21.3912 22.0292 22.2867 21.1337 23.3912 21.1337H25.2217C25.3778 21.1337 25.4913 21.0062 25.4913 20.8646V15.8357C25.4913 15.6799 25.3636 15.5666 25.2217 15.5666H23.3912C22.2867 15.5666 21.3912 14.6711 21.3912 13.5666V11.7418C21.3912 11.586 21.2636 11.4727 21.1217 11.4727H16.0853C15.9293 11.4727 15.8158 11.6001 15.8158 11.7418V13.5524C15.8158 14.657 14.9204 15.5524 13.8158 15.5524H11.886C11.73 15.5524 11.6165 15.6799 11.6165 15.8216V20.8504C11.6165 21.0062 11.7441 21.1196 11.886 21.1196H13.8016C14.9062 21.1196 15.8016 22.015 15.8016 23.1196V25.0152C15.8158 25.171 15.9435 25.2985 16.0853 25.2985Z" fill="#6D6565"/>
<path opacity="0.7619" d="M16.1284 25.1983H21.0797C21.2357 25.1983 21.3492 25.0708 21.3492 24.9291V23.0902C21.3492 21.9856 22.2447 21.0902 23.3492 21.0902H25.1513C25.3074 21.0902 25.4209 20.9627 25.4209 20.8211V15.863C25.4209 15.7072 25.2932 15.5939 25.1513 15.5939H23.3492C22.2447 15.5939 21.3492 14.6985 21.3492 13.5939V11.8258C21.3492 11.67 21.2215 11.5566 21.0797 11.5566H16.1284C15.9724 11.5566 15.8589 11.6841 15.8589 11.8258V13.6081C15.8589 14.7126 14.9635 15.6081 13.8589 15.6081H11.9859C11.8298 15.6081 11.7163 15.7355 11.7163 15.8772V20.8211C11.7163 20.9769 11.8298 21.0902 11.9859 21.0902H13.8589C14.9635 21.0902 15.8589 21.9856 15.8589 23.0902V24.9291C15.8589 25.0708 15.9724 25.1983 16.1284 25.1983Z" fill="#645B5B"/>
<path opacity="0.8095" d="M16.1708 25.1001H21.0511C21.193 25.1001 21.3207 24.9868 21.3207 24.8309V23.0487C21.3207 21.9441 22.2161 21.0487 23.3207 21.0487H25.0802C25.2221 21.0487 25.3498 20.9353 25.3498 20.7795V15.9065C25.3498 15.7648 25.2363 15.6373 25.0802 15.6373H23.3207C22.2161 15.6373 21.3207 14.7419 21.3207 13.6373V11.9117C21.3207 11.7701 21.2072 11.6426 21.0511 11.6426H16.1708C16.0289 11.6426 15.9013 11.7559 15.9013 11.9117V13.6515C15.9013 14.7561 15.0058 15.6515 13.9013 15.6515H12.085C11.9431 15.6515 11.8154 15.7648 11.8154 15.9206V20.7937C11.8154 20.9353 11.9289 21.0628 12.085 21.0628H13.9013C15.0058 21.0628 15.9013 21.9583 15.9013 23.0628V24.8451C15.9013 24.9868 16.0148 25.1001 16.1708 25.1001Z" fill="#5A5151"/>
<path opacity="0.8571" d="M16.1995 24.9999H20.9946C21.1365 24.9999 21.25 24.8866 21.25 24.7449V23.0052C21.25 21.9006 22.1454 21.0052 23.25 21.0052H24.967C25.1089 21.0052 25.2223 20.8918 25.2223 20.7502V15.948C25.2223 15.8063 25.1089 15.693 24.967 15.693H23.25C22.1454 15.693 21.25 14.7976 21.25 13.693V11.9815C21.25 11.8399 21.1365 11.7266 20.9946 11.7266H16.1995C16.0576 11.7266 15.9441 11.8399 15.9441 11.9815V13.6788C15.9441 14.7834 15.0487 15.6788 13.9441 15.6788H12.1846C12.0427 15.6788 11.9292 15.7921 11.9292 15.9338V20.7218C11.9292 20.8635 12.0427 20.9768 12.1846 20.9768H13.9441C15.0487 20.9768 15.9441 21.8723 15.9441 22.9768V24.7166C15.9441 24.8866 16.0576 24.9999 16.1995 24.9999Z" fill="#504747"/>
<path opacity="0.9048" d="M16.2416 24.9017H20.9517C21.0935 24.9017 21.207 24.7884 21.207 24.6467V22.9636C21.207 21.859 22.1024 20.9636 23.207 20.9636H24.8814C25.0233 20.9636 25.1368 20.8503 25.1368 20.7086V15.9914C25.1368 15.8497 25.0233 15.7364 24.8814 15.7364H23.207C22.1024 15.7364 21.207 14.841 21.207 13.7364V12.0675C21.207 11.9258 21.0935 11.8125 20.9517 11.8125H16.2416C16.0997 11.8125 15.9862 11.9258 15.9862 12.0675V13.7364C15.9862 14.841 15.0908 15.7364 13.9862 15.7364H12.2834C12.1416 15.7364 12.0281 15.8497 12.0281 15.9914V20.6944C12.0281 20.8361 12.1416 20.9494 12.2834 20.9494H13.9862C15.0908 20.9494 15.9862 21.8449 15.9862 22.9494V24.6325C15.9862 24.7884 16.0997 24.9017 16.2416 24.9017Z" fill="#463C3C"/>
<path opacity="0.9524" d="M16.2837 24.8025H20.9087C21.0505 24.8025 21.164 24.6892 21.164 24.5475V22.9069C21.164 21.8023 22.0595 20.9069 23.164 20.9069H24.7959C24.9377 20.9069 25.0512 20.7936 25.0512 20.6519V16.0339C25.0512 15.8922 24.9377 15.7789 24.7959 15.7789H23.164C22.0595 15.7789 21.164 14.8835 21.164 13.7789V12.1524C21.164 12.0108 21.0505 11.8975 20.9087 11.8975H16.2837C16.1419 11.8975 16.0284 12.0108 16.0284 12.1524V13.7789C16.0284 14.8835 15.1329 15.7789 14.0284 15.7789H12.3823C12.2404 15.7789 12.127 15.8922 12.127 16.0339V20.6519C12.127 20.7936 12.2404 20.9069 12.3823 20.9069H14.0284C15.1329 20.9069 16.0284 21.8023 16.0284 22.9069V24.5475C16.0284 24.6892 16.1419 24.8025 16.2837 24.8025Z" fill="#3D3232"/>
<path d="M24.7113 15.8204H23.122C22.0174 15.8204 21.122 14.9249 21.122 13.8204V12.2364C21.122 12.0948 21.0085 11.9814 20.8666 11.9814H16.3268C16.1849 11.9814 16.0856 12.0948 16.0856 12.2364V13.8204C16.0856 14.9249 15.1902 15.8204 14.0856 15.8204H12.4821C12.3403 15.8204 12.241 15.9337 12.241 16.0612V20.5942C12.241 20.7359 12.3545 20.8351 12.4821 20.8351H14.0714C15.176 20.8351 16.0714 21.7305 16.0714 22.8351V24.419C16.0714 24.5607 16.1849 24.674 16.3126 24.674H20.8524C20.9943 24.674 21.1078 24.5607 21.1078 24.419V22.8351C21.1078 21.7305 22.0032 20.8351 23.1078 20.8351H24.6971C24.839 20.8351 24.9525 20.7217 24.9525 20.5942V16.0612C24.9525 15.9337 24.8531 15.8204 24.7113 15.8204Z" fill="#332828"/>
<path d="M25.5907 15.3543H21.5474C21.4623 15.3543 21.3914 15.2835 21.3914 15.1985V11.1612C21.3914 11.0054 21.2637 10.8779 21.1077 10.8779H15.8017C15.6457 10.8779 15.518 11.0054 15.518 11.1612V11.3171V15.1985C15.518 15.2835 15.4471 15.3543 15.3619 15.3543H11.3045C11.1484 15.3543 11.0208 15.4818 11.0208 15.6376V20.9356C11.0208 21.0915 11.1484 21.219 11.3045 21.219H15.3478C15.4329 21.219 15.5038 21.2898 15.5038 21.3748V25.2562V25.412C15.5038 25.5679 15.6315 25.6953 15.7876 25.6953H21.0935C21.2495 25.6953 21.3772 25.5679 21.3772 25.412V21.3748C21.3772 21.2898 21.4481 21.219 21.5333 21.219H25.5907C25.7468 21.219 25.8745 21.0915 25.8745 20.9356V15.6376C25.8745 15.4818 25.7468 15.3543 25.5907 15.3543Z" fill="white"/>
<path opacity="0.8" d="M18.4975 34.4766C27.3513 34.4766 34.5288 27.3099 34.5288 18.4693C34.5288 9.62865 27.3513 2.46191 18.4975 2.46191C9.64373 2.46191 2.46631 9.62865 2.46631 18.4693C2.46631 27.3099 9.64373 34.4766 18.4975 34.4766Z" stroke="url(#paint3_linear)" stroke-miterlimit="10"/>
<defs>
<linearGradient id="paint0_linear" x1="-2.75783" y1="-1.12691" x2="40.4458" y2="38.8859" gradientUnits="userSpaceOnUse">
<stop stop-color="#969699"/>
<stop offset="0.2788" stop-color="#B7ADAE"/>
<stop offset="1" stop-color="#E5E5E5"/>
</linearGradient>
<linearGradient id="paint1_linear" x1="18.4984" y1="0.636719" x2="18.4984" y2="36.3629" gradientUnits="userSpaceOnUse">
<stop stop-color="#F1E6E1"/>
<stop offset="1" stop-color="#CDC6C5"/>
</linearGradient>
<linearGradient id="paint2_linear" x1="2.46581" y1="18.4696" x2="34.5283" y2="18.4696" gradientUnits="userSpaceOnUse">
<stop stop-color="#BF1400"/>
<stop offset="0.3132" stop-color="#ED3000"/>
<stop offset="1" stop-color="#AB0000"/>
</linearGradient>
<linearGradient id="paint3_linear" x1="1.90627" y1="18.4693" x2="35.0888" y2="18.4693" gradientUnits="userSpaceOnUse">
<stop/>
<stop offset="0.00429839" stop-color="#090909"/>
<stop offset="0.0277675" stop-color="#373737"/>
<stop offset="0.0542172" stop-color="#626262"/>
<stop offset="0.0826444" stop-color="#888888"/>
<stop offset="0.1136" stop-color="#A8A8A8"/>
<stop offset="0.1478" stop-color="#C4C4C4"/>
<stop offset="0.1864" stop-color="#DADADA"/>
<stop offset="0.2315" stop-color="#EBEBEB"/>
<stop offset="0.2872" stop-color="#F6F6F6"/>
<stop offset="0.3654" stop-color="#FDFDFD"/>
<stop offset="0.5824" stop-color="white"/>
<stop offset="0.6688" stop-color="#BBBBBB"/>
<stop offset="0.8455" stop-color="#363636"/>
<stop offset="0.9231"/>
</linearGradient>
</defs>
</svg>
