<svg width="37" height="37" viewBox="0 0 37 37" fill="none" xmlns="http://www.w3.org/2000/svg">
<path d="M34.9951 0H2C0.895431 0 0 0.895431 0 2V35C0 36.1046 0.895431 37 2 37H34.9951C36.0997 37 36.9951 36.1046 36.9951 35V2C36.9951 0.89543 36.0997 0 34.9951 0Z" fill="url(#paint0_linear)"/>
<path d="M34.3599 0.636719H2.63696C1.53239 0.636719 0.636963 1.53215 0.636963 2.63672V34.3629C0.636963 35.4675 1.53239 36.3629 2.63696 36.3629H34.3599C35.4645 36.3629 36.3599 35.4675 36.3599 34.3629V2.63672C36.3599 1.53215 35.4645 0.636719 34.3599 0.636719Z" fill="url(#paint1_linear)"/>
<path opacity="0.8" d="M18.0312 34.0147C26.885 34.0147 34.0625 26.848 34.0625 18.0073C34.0625 9.16673 26.885 2 18.0312 2C9.17742 2 2 9.16673 2 18.0073C2 26.848 9.17742 34.0147 18.0312 34.0147Z" stroke="url(#paint2_linear)" stroke-miterlimit="10"/>
<path d="M17.9708 4.88281C10.7288 4.88281 4.86865 10.7624 4.86865 18.0126C4.86865 25.2628 10.7416 31.1296 17.9836 31.1168C25.2256 31.1168 31.0857 25.2372 31.0857 17.987C31.0729 10.7496 25.2 4.88281 17.9708 4.88281Z" fill="white"/>
<path d="M12.5193 18C12.5193 21.023 14.9632 23.4696 17.9828 23.4696V26.877C13.0951 26.877 9.11582 22.906 9.10303 18.0128C9.10303 13.1195 13.0823 9.13574 17.97 9.13574V12.5431C14.9632 12.5431 12.5193 14.9897 12.5193 18Z" fill="url(#paint3_linear)"/>
<path d="M6.4035 18.0128C6.4035 24.4048 11.6111 29.6055 17.9958 29.5927V33C9.73021 33 3.01281 26.2878 3.00002 18.0128C2.98722 9.73783 9.70462 3.01281 17.9702 3V6.40734C11.5855 6.42015 6.3907 11.6208 6.4035 18.0128Z" fill="url(#paint4_linear)"/>
<path d="M17.983 15.1816V20.8307C16.422 20.8307 15.1553 19.5753 15.1553 18.0126C15.1553 16.4498 16.422 15.1816 17.983 15.1816Z" fill="#FF3000"/>
<path d="M20.7978 17.9999C20.7978 19.5626 19.5311 20.818 17.9829 20.818V15.1689C19.5311 15.1818 20.7978 16.4371 20.7978 17.9999Z" fill="#DD2703"/>
<path d="M26.8499 18C26.8499 22.8932 22.8834 26.877 17.9957 26.877V23.4697C21.0153 23.4697 23.4464 21.0231 23.4464 18C23.4464 14.9897 21.0025 12.5431 17.9829 12.5431V9.13577C22.8578 9.12296 26.8371 13.1067 26.8499 18Z" fill="#DD2703"/>
<path d="M32.9659 17.9872C32.9787 26.2622 26.2613 32.9872 17.9957 33V29.5927C24.3804 29.5927 29.5624 24.3792 29.5624 17.9872C29.5624 11.5952 24.3548 6.40734 17.9829 6.40734V3C26.2229 3 32.9531 9.72502 32.9659 17.9872Z" fill="url(#paint5_linear)"/>
<path d="M31.0933 9.08496L29.4555 12.7741L32.9998 14.6827L25.3228 14.1832L31.0933 9.08496Z" fill="#BDBDBD"/>
<path d="M14.5236 18.3847C13.8839 18.6025 13.2953 18.6153 13.2313 18.3975C13.1545 18.1925 13.628 17.8339 14.2677 17.6161L30.2999 12.1464C30.9396 11.9287 31.5282 11.9159 31.5922 12.1336C31.669 12.3386 31.1955 12.6972 30.5558 12.915L14.5236 18.3847Z" fill="#757575"/>
<defs>
<linearGradient id="paint0_linear" x1="-2.75783" y1="-1.12691" x2="40.4458" y2="38.8859" gradientUnits="userSpaceOnUse">
<stop stop-color="#969699"/>
<stop offset="0.2788" stop-color="#B7ADAE"/>
<stop offset="1" stop-color="#E5E5E5"/>
</linearGradient>
<linearGradient id="paint1_linear" x1="18.4984" y1="0.636719" x2="18.4984" y2="36.3629" gradientUnits="userSpaceOnUse">
<stop stop-color="#F1E6E1"/>
<stop offset="1" stop-color="#CDC6C5"/>
</linearGradient>
<linearGradient id="paint2_linear" x1="1.43996" y1="18.0073" x2="34.6225" y2="18.0073" gradientUnits="userSpaceOnUse">
<stop/>
<stop offset="0.00429839" stop-color="#090909"/>
<stop offset="0.0277675" stop-color="#373737"/>
<stop offset="0.0542172" stop-color="#626262"/>
<stop offset="0.0826444" stop-color="#888888"/>
<stop offset="0.1136" stop-color="#A8A8A8"/>
<stop offset="0.1478" stop-color="#C4C4C4"/>
<stop offset="0.1864" stop-color="#DADADA"/>
<stop offset="0.2315" stop-color="#EBEBEB"/>
<stop offset="0.2872" stop-color="#F6F6F6"/>
<stop offset="0.3654" stop-color="#FDFDFD"/>
<stop offset="0.5824" stop-color="white"/>
<stop offset="0.6688" stop-color="#BBBBBB"/>
<stop offset="0.8455" stop-color="#363636"/>
<stop offset="0.9231"/>
</linearGradient>
<linearGradient id="paint3_linear" x1="9.11087" y1="18.0012" x2="17.9857" y2="18.0012" gradientUnits="userSpaceOnUse">
<stop stop-color="#BF1400"/>
<stop offset="0.3132" stop-color="#ED3000"/>
<stop offset="1" stop-color="#990000"/>
</linearGradient>
<linearGradient id="paint4_linear" x1="2.99615" y1="18.0009" x2="17.9903" y2="18.0009" gradientUnits="userSpaceOnUse">
<stop stop-color="#BF1400"/>
<stop offset="0.3132" stop-color="#ED3000"/>
<stop offset="1" stop-color="#990000"/>
</linearGradient>
<linearGradient id="paint5_linear" x1="17.9679" y1="18.0009" x2="32.961" y2="18.0009" gradientUnits="userSpaceOnUse">
<stop stop-color="#BF1400"/>
<stop offset="0.3132" stop-color="#ED3000"/>
<stop offset="1" stop-color="#AB0000"/>
</linearGradient>
</defs>
</svg>
