<svg width="60" height="63" viewBox="0 0 60 63" fill="none" xmlns="http://www.w3.org/2000/svg">
<path d="M40.5615 8.16832C35.6598 4.69631 27.6946 5.51325 22.9972 8.57679C14.2151 14.2954 16.2574 27.5707 19.1167 35.9444C20.1379 38.8037 20.3421 42.0715 22.9972 44.1138C23.2014 44.3181 23.6099 44.5223 23.8142 44.7266C25.4481 46.1562 27.2862 47.5858 29.5328 48.4028C30.3497 48.8113 31.3709 48.8113 31.9836 48.8113H32.1878C33.0048 48.8113 33.8217 48.8113 34.8429 48.4028C37.0895 47.5858 38.9276 45.952 40.7657 44.5223C40.8034 44.4846 40.8411 44.4539 40.8788 44.4276C41.202 44.2016 41.4975 43.9556 41.7276 43.6353C45.6243 38.211 48.2931 31.6307 47.3013 23.8945C46.4844 18.9928 44.8505 11.0276 40.5615 8.16832Z" fill="#F0B784"/>
<path d="M18.2994 31.6561C18.2994 31.4519 18.2994 31.0434 18.2994 30.8392C18.2994 30.2265 18.2994 29.6138 18.2994 29.001C18.2994 28.9675 18.2994 28.934 18.2994 28.9004C18.2994 28.1802 17.9984 27.3672 17.2782 27.3672C17.074 27.3672 16.8697 27.3672 16.6655 27.3672C16.0528 27.3672 15.6443 27.5714 15.2358 27.9799C14.9286 28.2872 14.968 28.71 15.0934 29.1615C15.1778 29.4657 15.3097 29.754 15.4446 30.0395C15.5431 30.2479 15.6416 30.4724 15.7401 30.736C15.8156 30.9382 15.8541 31.1567 15.9507 31.3498C16.0472 31.5428 16.0923 31.7595 16.1405 31.9699C16.1958 32.2109 16.2248 32.452 16.2401 32.693C16.2737 33.2243 16.3084 33.7595 16.4653 34.2682C16.6328 34.8108 16.8606 35.3233 17.2782 35.7408C17.4824 35.9451 17.6867 35.9451 17.8909 36.1493C18.5218 36.7802 19.1754 35.9747 18.7699 35.18C18.5161 34.6827 18.2994 34.1689 18.2994 33.6985C18.2994 32.8815 18.2994 32.2688 18.2994 31.6561Z" fill="#F0B784"/>
<path d="M46.8925 28.3877C46.8664 28.3877 46.8404 28.3885 46.8144 28.3901C46.0648 28.4364 45.6671 29.2706 45.6671 30.0216C45.6671 31.6554 45.667 33.0851 45.4628 34.719C45.3597 35.2346 45.2566 35.6981 45.1535 36.1358C45.0386 36.6234 45.5423 37.0279 45.9904 36.8039C46.0468 36.7757 46.0987 36.739 46.1416 36.6928C46.7033 36.0884 46.9 35.3016 47.0967 34.5148C47.229 33.9856 47.2756 33.4565 47.3475 32.9274C47.4261 32.349 47.6416 31.8028 47.9418 31.3022C47.9764 31.2445 48.0108 31.187 48.0445 31.1302C48.2377 30.8047 48.4011 30.4566 48.4517 30.0815C48.4769 29.895 48.4819 29.7147 48.4668 29.5468C48.4329 29.1698 48.3065 28.7554 47.9822 28.5602C47.6956 28.3877 47.294 28.3877 46.8925 28.3877Z" fill="#F0B784"/>
<path d="M32.1874 40.4387C30.0956 40.4387 29.2195 42.562 31.2873 42.8773C31.3152 42.8815 31.3429 42.8856 31.3704 42.8896C31.9735 42.9398 32.5641 42.9035 33.1303 42.7928C35.0747 42.4127 34.1686 40.4387 32.1874 40.4387Z" fill="white"/>
<path d="M41.7865 22.6689C39.329 22.6689 36.5699 24.0267 35.8429 24.4083C35.7277 24.4688 35.6594 24.5875 35.6594 24.7176C35.6594 24.9909 35.9524 25.1693 36.1976 25.0487C37.4637 24.4266 40.6695 23.0024 42.6035 23.4859C42.8331 23.5389 43.2081 22.9411 42.9814 22.8767C42.6201 22.7739 42.2223 22.7001 41.7865 22.6689Z" fill="#3E355D"/>
<path d="M20.9851 22.8767C20.7584 22.9411 21.1333 23.5389 21.363 23.4859C23.2946 23.003 26.4949 24.4231 27.7642 25.0465C28.0115 25.1679 28.307 24.9881 28.307 24.7126C28.307 24.5851 28.2419 24.4681 28.1303 24.4063C27.4367 24.0219 24.8083 22.6689 22.1799 22.6689C21.7442 22.7001 21.3464 22.7739 20.9851 22.8767Z" fill="#3E355D"/>
<path d="M31.0155 36.4855C30.5404 36.116 29.8685 36.564 30.0268 37.1446C30.0976 37.404 30.3259 37.5893 30.5943 37.6051L33.5026 37.7761C33.5773 37.7805 33.6515 37.7623 33.7156 37.7238C34.0183 37.5422 33.9208 37.0804 33.5705 37.0367L31.5646 36.7859C31.4376 36.7701 31.3173 36.7202 31.2163 36.6416L31.0155 36.4855Z" fill="#E0A575"/>
<path d="M36.2528 28.4663C35.9894 28.8195 35.9795 29.1777 36.3867 29.346C36.756 29.4986 37.2553 29.6683 37.6792 29.7997C38.2314 29.9708 38.7821 30.1346 39.3591 30.098C40.4545 30.0286 41.5175 29.4387 42.4775 28.9064C43.0373 28.5959 43.5156 28.2805 43.4207 28.1857C43.1345 27.8995 42.4472 27.6133 41.7128 27.3479C40.2906 26.834 38.5927 26.3853 37.3722 27.2781C36.9541 27.5839 36.6156 27.98 36.2528 28.4663Z" fill="white"/>
<path d="M39.1318 26.959C38.3149 26.959 37.7021 27.5717 37.7021 28.3887C37.7021 29.2056 38.3149 29.8183 39.1318 29.8183C39.9488 29.8183 40.5615 29.2056 40.5615 28.3887C40.5615 27.5717 39.9488 26.959 39.1318 26.959Z" fill="#3E355D"/>
<path d="M40.9687 26.3448C39.9475 26.1406 38.7221 26.1406 37.7009 26.7533C36.8925 27.1575 36.4841 27.7617 36.0798 28.566C36.0714 28.5826 36.0673 28.6076 36.0649 28.626C36.0495 28.7475 36.0365 28.7286 36.1123 28.6324C37.6825 26.6381 41.0675 27.4319 42.8068 28.5914C42.9382 28.6571 43.1965 28.7651 43.4999 28.8881C44.1501 29.1518 44.5646 28.4797 44.3014 27.8294C44.2084 27.5996 44.1218 27.4789 43.9063 27.3564C43.0354 26.8615 41.6866 26.5243 40.9687 26.3448Z" fill="#3E355D"/>
<path d="M39.7443 29.2039C40.0827 29.2039 40.357 28.9296 40.357 28.5912C40.357 28.2528 40.0827 27.9785 39.7443 27.9785C39.4059 27.9785 39.1316 28.2528 39.1316 28.5912C39.1316 28.9296 39.4059 29.2039 39.7443 29.2039Z" fill="white"/>
<path d="M25.3764 26.9632C25.1524 26.9546 24.9282 26.9779 24.7097 27.0278C24.3126 27.1186 23.8171 27.2497 23.3188 27.4144C22.0721 27.8263 22.3515 29.1823 23.4489 29.9029C23.6425 30.03 23.7129 30.0788 23.9295 30.1607C24.6397 30.429 25.3499 30.4291 26.0601 30.4291C26.1738 30.4291 27.0474 30.1758 27.7641 29.916C28.463 29.6627 28.5545 29.0628 28.1371 28.4477C27.4453 27.428 26.7762 27.0169 25.3764 26.9632Z" fill="white"/>
<path d="M25.447 26.9561C24.63 26.9561 24.0173 27.5688 24.0173 28.3857C24.0173 29.2027 24.63 29.8154 25.447 29.8154C26.2639 29.8154 26.8767 29.2027 26.8767 28.3857C26.8767 27.5688 26.2639 26.9561 25.447 26.9561Z" fill="#3E355D"/>
<path d="M26.8771 26.7542C25.8559 26.3457 24.6305 26.1415 23.6093 26.3457C22.8499 26.5356 21.3845 26.9019 20.5256 27.2807C20.4063 27.3333 20.3282 27.4149 20.2778 27.5352C20.0773 28.0139 20.7542 28.7931 21.2387 28.6074C21.4743 28.517 21.6682 28.4396 21.7712 28.3881C23.5148 27.2257 26.9125 26.4308 28.4775 28.4442C28.5494 28.5367 28.542 28.5584 28.5167 28.444C28.5102 28.4143 28.4988 28.3762 28.4778 28.3541C28.0801 27.9358 27.672 27.1517 26.8771 26.7542Z" fill="#3E355D"/>
<path d="M24.8344 29.409C25.1728 29.409 25.4471 29.1347 25.4471 28.7963C25.4471 28.4579 25.1728 28.1836 24.8344 28.1836C24.496 28.1836 24.2217 28.4579 24.2217 28.7963C24.2217 29.1347 24.496 29.409 24.8344 29.409Z" fill="white"/>
<path d="M23.4054 23.4873C19.5249 23.4873 16.8699 25.7339 16.8699 28.7975C16.8699 31.861 19.9334 34.3118 24.0181 34.3118C27.8986 34.3118 31.1664 31.861 31.1664 28.7975C30.9621 25.7339 27.2859 23.4873 23.4054 23.4873ZM23.8139 33.0864C20.5461 33.0864 17.8911 31.044 17.8911 28.7975C17.8911 26.3466 20.5461 24.5085 23.8139 24.5085C27.0817 24.5085 29.7367 26.5509 29.7367 28.7975C29.941 31.2483 27.0817 33.0864 23.8139 33.0864Z" fill="#D6D3E5"/>
<path opacity="0.59" d="M23.814 24.5078C20.5462 24.5078 17.8911 26.5502 17.8911 28.7968C17.8911 31.2476 20.5462 33.0857 23.814 33.0857C27.0817 33.0857 29.7368 31.0434 29.7368 28.7968C29.941 26.3459 27.0817 24.5078 23.814 24.5078Z" fill="#3E355D"/>
<path d="M15.1953 24.0735C15.0911 24.3511 15.1073 24.6596 15.2399 24.9248L15.6892 25.8234C16.1835 26.812 17.5884 26.8283 18.1056 25.8515C18.4435 25.2132 18.2231 24.422 17.6038 24.0505L16.7423 23.5336C16.1712 23.1909 15.4291 23.4499 15.1953 24.0735Z" fill="#D6D3E5"/>
<path d="M39.7442 23.2842C35.8637 23.2842 32.1875 25.5308 32.1875 28.5943C32.1875 31.6578 35.251 34.1087 39.3358 34.1087C43.2162 34.1087 46.484 31.6578 46.484 28.5943C46.484 25.5308 43.6247 23.2842 39.7442 23.2842ZM39.3358 32.8833C36.068 32.8833 33.4129 30.8409 33.4129 28.5943C33.4129 26.1435 36.068 24.3054 39.3358 24.3054C42.6035 24.3054 45.2586 26.3477 45.2586 28.5943C45.2586 31.0451 42.6035 32.8833 39.3358 32.8833Z" fill="#D6D3E5"/>
<path opacity="0.59" d="M39.3357 24.3057C36.0679 24.3057 33.4128 26.348 33.4128 28.5946C33.4128 31.0454 36.0679 32.8836 39.3357 32.8836C42.6034 32.8836 45.2585 30.8412 45.2585 28.5946C45.2585 26.1438 42.6034 24.3057 39.3357 24.3057Z" fill="#3E355D"/>
<path d="M45.6825 23.8473C45.0059 24.2081 44.766 25.0598 45.1547 25.7207C45.711 26.6664 47.1036 26.5873 47.5492 25.5847L47.9374 24.7114C48.0526 24.4521 48.0546 24.1564 47.9428 23.8956C47.7075 23.3465 47.0528 23.1164 46.5257 23.3975L45.6825 23.8473Z" fill="#D6D3E5"/>
<path d="M30.743 28.2482C30.8798 28.5901 31.1799 28.8398 31.541 28.912L31.9474 28.9933C32.5392 29.1117 33.1197 28.7443 33.2661 28.1588C33.4445 27.4452 32.9047 26.7539 32.1691 26.7539H31.7547C30.9838 26.7539 30.4567 27.5325 30.743 28.2482Z" fill="#D6D3E5"/>
<path d="M52.4066 22.8726C51.5897 13.0693 47.0965 4.49137 37.0889 1.8363C34.8423 1.22359 32.3915 1.22357 29.9407 1.42781C25.6804 2.0761 23.31 2.93439 21.9916 3.67891C20.6394 4.44251 20.7292 6.03998 21.5624 7.3504C23.544 10.4665 27.7393 16.2827 32.6726 18.5266C32.7568 18.5649 32.879 18.5848 32.971 18.5752C33.754 18.4938 35.549 17.0407 36.1386 17.5623L39.6418 20.6613C40.5443 21.4597 41.9366 20.6142 41.6443 19.4452L40.9694 16.7455C41.9906 21.0345 45.2584 24.915 46.2795 29.4081C48.1177 36.9649 48.1176 45.5428 48.9346 53.3037C49.1388 55.9588 49.7515 59.0223 52.2024 60.2477C55.882 62.2548 58.0727 56.1671 56.8162 52.1684C55.4644 47.8661 54.4212 43.479 53.632 39.0072C52.8151 33.4929 52.8151 28.3869 52.4066 22.8726Z" fill="#FD6A94"/>
<path d="M20.3419 5.51426C17.4344 2.06157 12.91 13.9691 11.9477 17.212C11.7979 17.7171 11.71 18.2325 11.6148 18.7507C10.3467 25.6536 10.4794 32.7325 8.90469 39.6217C7.52032 45.6206 5.55672 51.5037 3.10113 57.1836C1.99141 59.7505 3.83731 62.6245 6.63257 62.542C8.24469 62.4945 9.66594 61.4692 10.1558 59.9326C13.663 48.9321 15.596 38.3904 15.836 26.8825C15.8618 25.6446 18.4869 26.2956 18.0953 25.1209C17.6813 23.879 19.9713 16.7629 21.5002 12.2777C22.2866 9.97071 21.8645 7.41747 20.3419 5.51426Z" fill="#FD6A94"/>
<path d="M18.5037 1.63461C18.4578 1.61425 18.4122 1.59427 18.3666 1.57466C15.8265 0.481285 12.9189 2.1907 12.3766 4.90239C12.1989 6.32367 12.369 7.74494 12.6515 8.89735C13.085 10.6658 14.6285 10.8226 16.257 10.0083C17.4825 9.39558 19.5248 8.3744 22.1799 6.94475C23.0836 6.49291 23.5292 5.34144 22.8805 4.56692C22.0208 3.54065 20.5977 2.41989 18.5037 1.63461Z" fill="#3E355D"/>
<path d="M18.8738 3.92278C16.9641 2.88511 14.8071 4.094 15.2813 6.21504C15.3463 6.50575 15.426 6.80971 15.5231 7.12597C16.0005 8.68152 17.2755 9.50615 18.7249 8.76657C20.4427 7.89001 21.3386 5.38444 19.6873 4.38806C19.4324 4.23422 19.1616 4.0792 18.8738 3.92278Z" fill="#544F99"/>
<path d="M48.5265 4.28897C48.2638 1.66161 45.411 0.0736038 42.9662 1.071C42.8463 1.1199 42.7255 1.17132 42.6037 1.22543C40.5376 2.12938 39.1246 3.27827 38.21 4.20748C37.6151 4.81176 37.8261 5.98931 38.6176 6.29342C38.6842 6.31901 38.7554 6.34863 38.8182 6.38246C41.0893 7.606 42.7574 8.52621 44.0839 9.14312C44.4558 9.31605 44.8207 9.50534 45.1707 9.7191C45.2695 9.77943 45.3644 9.83701 45.4556 9.89192C46.5195 10.5327 47.6147 10.3979 48.0422 9.23186C48.503 7.9751 48.8721 6.13203 48.5265 4.28897Z" fill="#3E355D"/>
<path d="M41.4766 3.89405C39.8036 4.92402 40.7173 7.42756 42.4597 8.33521C43.9518 9.11246 45.3165 8.27873 45.8037 6.66842C45.8843 6.40201 45.9526 6.14444 46.0102 5.89627C46.5216 3.69132 44.2957 2.35423 42.2999 3.42202C42.0067 3.57889 41.7327 3.73638 41.4766 3.89405Z" fill="#544F99"/>
</svg>
