<svg width="64" height="60" viewBox="0 0 64 60" fill="none" xmlns="http://www.w3.org/2000/svg">
<path d="M20.3206 28.2903C19.5272 27.5961 18.3314 27.6359 17.586 28.3814L17.2748 28.6926C16.6473 29.3201 16.405 30.2353 16.6325 31.0931C17.2312 33.3512 17.83 35.7462 18.4287 38.1413C18.8517 39.4103 19.2748 40.865 19.6978 42.1794C19.8137 42.5397 19.96 42.8899 20.0895 43.2456C20.1438 43.3949 20.1981 43.5504 20.2524 43.6984C20.434 44.1929 20.7339 44.6833 21.2308 44.8583C21.7732 45.0493 22.4377 45.0418 22.7662 45.3704C23.012 45.6775 23.5107 45.4465 23.4396 45.0596C22.4782 39.8254 21.9816 34.8854 20.9663 29.4199C20.8848 28.9814 20.6562 28.584 20.3206 28.2903Z" fill="#C9845D"/>
<path d="M41.8652 13.57C40.2858 14.1803 38.5259 14.1205 36.9915 13.4044C34.2128 12.1077 30.9037 13.0287 29.1944 15.5744L20.8825 27.9538C20.8547 27.9953 20.8476 28.0473 20.8634 28.0946L21.0185 28.5597C21.0336 28.6052 20.9771 28.6402 20.9432 28.6062C20.9115 28.5746 20.8579 28.6034 20.8663 28.6474C22.0508 34.8529 22.5346 40.3558 23.73 46.3332L24.6265 49.1505C25.1401 50.7648 26.1529 52.1744 27.519 53.1761L34.3838 58.2104C35.6096 59.1092 37.066 59.6403 38.5826 59.7414L39.8751 59.8276L40.9846 59.7536C42.6154 59.6449 44.1738 59.0392 45.45 58.0183L51.375 53.2783C52.5218 52.3608 53.3939 51.1454 53.8958 49.7652L54.7872 47.3138C54.9661 46.8219 55.0949 46.3137 55.1802 45.7973C56.0896 40.292 57.6395 34.6171 57.7239 29.0965C57.7396 28.0668 57.4893 27.0549 57.0661 26.116L53.1078 17.3334C51.3622 13.4604 46.8938 11.6272 42.9311 13.1582L41.8652 13.57Z" fill="#CF9167"/>
<path d="M58.1633 27.9113C58.0643 27.9608 57.9478 27.8888 57.9478 27.7781C58.1888 34.0433 56.02 40.5495 55.2971 46.8147C55.2971 45.7057 57.482 46.1109 58.1756 45.2456C58.7315 44.5522 58.8419 43.5648 59.1527 42.4772C59.6346 40.7905 60.1165 38.8627 60.5984 37.1759C61.0944 35.5225 61.5905 33.8691 62.0087 32.2156C62.354 30.8504 61.7615 29.437 60.5897 28.6558L59.1484 27.6949C59.002 27.5973 58.8146 27.5857 58.6572 27.6643L58.1633 27.9113Z" fill="#C9845D"/>
<path d="M38.3893 45.1306C38.2578 45.1306 38.1288 45.0937 38.0172 45.0239L37.6741 44.8095C37.2161 44.5232 36.656 44.9812 36.8457 45.4869C36.9284 45.7075 37.1392 45.8535 37.3747 45.8535H42.1378C42.3592 45.8535 42.546 45.6887 42.5735 45.4689L42.5979 45.2739C42.6459 44.8898 42.1595 44.6844 41.9177 44.9867C41.8449 45.0777 41.7347 45.1306 41.6182 45.1306H38.3893Z" fill="#BC7450"/>
<path d="M35.985 49.0536C34.8716 49.0349 34.3168 50.3981 34.8148 51.3941C35.2967 52.117 36.2606 52.5989 36.9835 52.5989C37.7064 52.5989 38.4293 52.8399 39.3932 52.8399C40.3571 52.8399 41.08 52.8399 41.8029 52.5989C42.4828 52.4289 43.1627 52.139 43.6735 51.7292C44.0844 51.3996 44.3937 50.9484 44.5629 50.4495C44.7859 49.7922 44.9914 48.9844 45.6584 48.9844C42.7634 49.1291 38.7381 49.1 35.985 49.0536Z" fill="white"/>
<path d="M53.851 8.01902C44.9319 6.87554 20.3853 9.20482 17.2899 21.5986C16.9557 22.937 17.3069 24.3305 17.9238 25.5643L17.9465 25.6098L18.5623 26.9183C19.5853 29.0922 22.7913 28.6915 23.2478 26.3328C23.4033 25.2442 23.9431 24.2473 24.7695 23.522L32.6544 16.6027C34.338 15.1252 36.563 14.42 38.7885 14.675C41.817 15.022 46.1544 15.5394 49.0316 15.971C49.5396 16.0345 49.9974 16.098 50.3962 16.1615C51.6227 16.3568 52.2406 17.3346 52.6383 18.5112C53.4075 20.7863 54.8829 24.5528 55.4983 26.1087C55.6848 26.5801 55.8071 27.0701 55.8631 27.5739L56.194 30.5514C56.2347 30.9176 56.4846 31.2268 56.8342 31.3433C57.3198 31.5052 57.8459 31.2509 58.0208 30.7699L60.6823 23.4509C61.2534 21.8803 61.3001 20.1669 60.8155 18.5675C59.8278 15.3083 57.9714 10.9738 55.34 8.81185C54.8129 8.37874 54.2994 8.07506 53.851 8.01902Z" fill="#1E2228"/>
<path d="M22.4332 23.7428C21.6824 24.1577 21.028 24.7411 20.5271 25.4374C17.975 28.9855 21.2481 27.4488 21.5407 27.3069C21.556 27.2995 21.558 27.2984 21.5733 27.291C21.9021 27.1318 28.9435 23.7761 38.494 23.6741C44.887 23.6058 45.9659 21.671 39.6123 20.9584C34.0452 20.3341 27.6854 20.8399 22.4332 23.7428Z" fill="#E0E0E0"/>
<path d="M15.0549 19.587C12.7378 23.4488 21.4937 25.2807 25.7042 23.6825C30.7691 21.76 38.1043 20.6734 47.3197 23.883C53.0206 25.8686 58.4934 22.6418 56.0277 17.1316C55.979 17.0228 55.9304 16.9152 55.882 16.8086C54.5029 13.7744 51.2072 12.2502 47.9257 12.8329C37.481 14.6878 15.6047 18.6707 15.0549 19.587Z" fill="white"/>
<path d="M47.1045 34.043C44.9702 34.2801 45.2892 37.1865 47.4356 37.2534C48.4592 37.2853 49.5043 37.0184 50.328 36.1406C50.4274 36.0346 50.4781 35.8912 50.4781 35.7459C50.4781 35.5813 50.4144 35.4218 50.2926 35.3109C49.8383 34.8971 48.7277 34.043 47.1045 34.043Z" fill="white"/>
<path d="M47.1048 34.2842C46.1409 34.2842 45.418 35.0071 45.418 35.73C45.418 36.4529 46.1409 37.1758 47.1048 37.1758C47.5235 37.1758 47.8967 37.0394 48.1849 36.8259C48.8758 36.314 48.7219 35.2255 48.0601 34.6765C47.7734 34.4388 47.4391 34.2842 47.1048 34.2842Z" fill="#1E2228"/>
<path d="M43.4065 35.3651C43.3129 35.4371 43.2863 35.5658 43.3391 35.6714C43.4148 35.8226 43.6163 35.8647 43.7538 35.7664C44.2808 35.3896 45.5769 34.6305 47.4566 34.6382C49.3885 34.6461 49.9599 34.088 48.029 34.0275C46.5248 33.9804 44.7387 34.3397 43.4065 35.3651Z" fill="#1E2228"/>
<path d="M31.9229 33.8047C30.2997 33.8047 29.1891 34.6589 28.7348 35.0727C28.613 35.1835 28.5493 35.343 28.5493 35.5077C28.5493 35.6529 28.6 35.7964 28.6994 35.9023C29.4917 36.7466 30.4888 37.0258 31.4746 37.0174C34.1559 36.9948 34.6042 33.8047 31.9229 33.8047Z" fill="white"/>
<path d="M32.1641 34.043C31.2002 34.043 30.4773 34.7659 30.4773 35.4888C30.4773 36.2117 31.2002 36.9346 32.1641 36.9346C33.128 36.9346 33.8509 36.2117 33.8509 35.4888C33.8509 34.5249 33.128 34.043 32.1641 34.043Z" fill="#1E2228"/>
<path d="M31.1965 33.6074C29.2494 33.6702 29.9506 34.3803 31.8987 34.3969C33.7255 34.4124 34.9875 35.1491 35.5095 35.5212C35.6496 35.6211 35.855 35.5784 35.932 35.4244C35.9837 35.321 35.9607 35.195 35.8726 35.12C34.5266 33.9729 32.7136 33.5584 31.1965 33.6074Z" fill="#1E2228"/>
<path d="M44.4001 30.3764C44.1381 30.4091 43.893 30.6665 43.8302 30.9229C43.6979 31.4633 44.2499 31.9998 44.7997 31.9152L49.6559 31.1681C49.7214 31.158 49.788 31.1579 49.8535 31.1677C50.6097 31.2811 50.9185 30.2307 50.2211 29.9169L49.9342 29.7878C49.8168 29.735 49.6871 29.7155 49.5593 29.7314L44.4001 30.3764Z" fill="#1E2228"/>
<path d="M35.5278 31.0819C35.178 30.719 34.754 30.3951 34.2534 30.3374L29.0439 29.7363C28.8786 29.7172 28.7114 29.7467 28.5626 29.8211C27.7138 30.2454 28.0822 31.5301 29.0269 31.4402L29.4059 31.4041C29.4774 31.3973 29.5494 31.3988 29.6206 31.4086L36.0065 32.2894C36.2683 32.3255 36.438 32.1284 36.3286 31.8879C36.2603 31.7377 36.1658 31.5906 36.0279 31.5C35.8518 31.3842 35.681 31.2408 35.5278 31.0819Z" fill="#1E2228"/>
<path d="M40.357 0.0678598C32.6459 -0.41408 26.8627 1.75466 23.0072 3.92339C19.8746 5.85115 17.9468 8.98374 17.7058 12.5983C17.7058 16.8363 17.4758 22.2246 17.69 23.1437C17.6984 23.1798 17.6859 23.216 17.6563 23.2382C17.5712 23.3019 17.6758 23.4308 17.7703 23.3821C44.6172 9.52896 58.5069 25.4765 61.6957 31.8425C61.8754 32.2012 62.3558 32.2873 62.6395 32.0036C62.7226 31.9205 62.7776 31.8136 62.7969 31.6977C63.0276 30.3128 63.2491 28.9645 63.2491 28.5023C63.5962 20.8669 62.9435 15.6059 62.1911 12.1793C61.736 10.1069 60.5181 8.0991 58.8679 6.76553C55.8639 4.33801 49.9775 0.709231 40.357 0.0678598Z" fill="#313637"/>
<path d="M20.5976 13.3204C15.2963 13.8023 9.51303 14.2842 4.9346 16.9349C3.01632 17.894 0.382202 20.5235 1.06864 22.6862C1.07539 22.7074 1.08612 22.7324 1.09627 22.7522C1.3006 23.1514 2.00412 22.9906 2.32494 22.6773C2.59641 22.4122 3.01646 22.2331 3.72975 21.9953C4.69363 21.7543 5.65746 21.5133 6.62134 21.2724C9.03104 20.5495 11.4407 20.0675 13.6095 19.3446C16.2522 18.7348 18.7234 17.9534 21.3125 17.2899C22.2707 17.0444 23.2686 17.0073 24.2477 17.1483L49.8012 20.8298C50.7027 20.9596 51.5252 21.4161 52.1123 22.1124L52.9461 23.1014C55.2121 25.7889 58.232 24.0046 56.0202 21.2724C51.9237 17.1759 42.7669 11.8745 20.5976 13.3204Z" fill="#495051"/>
<path d="M51.2007 18.3813C44.2126 15.2486 36.5016 14.2847 28.7905 13.8028C25.176 13.5618 21.3204 13.5619 17.7059 14.0438C13.8504 14.7667 9.99481 15.7306 6.38026 17.1764C-0.177963 19.7804 0.366295 23.0792 3.37827 26.0995C7.93575 30.6696 19.321 23.6342 25.4169 21.5139C32.646 19.1042 38.9112 19.3451 46.1403 21.5139C49.7549 22.7187 53.1285 24.6465 55.5382 27.0562C56.2862 27.8042 56.889 28.6973 57.572 29.6229C57.9724 30.1655 58.4699 30.6254 58.975 31.0723C59.6562 31.6748 60.3032 32.3682 60.8259 33.0624C60.835 33.0744 60.8289 33.0698 60.8396 33.0805C60.9638 33.2047 61.1792 33.2181 61.2813 33.0751C61.4553 32.8312 61.6293 32.5315 61.8034 32.3575C61.9503 32.2106 61.9993 31.993 61.9251 31.7989C60.1803 27.2316 56.3807 20.7358 51.2007 18.3813Z" fill="#1E2228"/>
<path d="M56.9841 42.4785C56.2612 42.4785 55.7793 42.9605 55.7793 43.6834C55.7793 44.4063 56.2612 44.8882 56.9841 44.8882C57.7071 44.8882 58.189 44.4063 58.189 43.6834C58.189 42.9605 57.4661 42.4785 56.9841 42.4785Z" fill="#70727C"/>
<path d="M22.2842 41.7549C21.5613 41.7549 21.0793 42.2368 21.0793 42.9597C21.0793 43.6826 21.5613 44.1646 22.2842 44.1646C23.0071 44.1646 23.489 43.6826 23.489 42.9597C23.489 42.2368 22.7661 41.7549 22.2842 41.7549Z" fill="#70727C"/>
</svg>
