<svg width="58" height="62" viewBox="0 0 58 62" fill="none" xmlns="http://www.w3.org/2000/svg">
<path d="M31.9 16.3181C31.3379 15.8931 30.7221 15.5442 30.0687 15.2805L26.8669 13.9886C23.5901 12.6664 19.7147 13.6075 18.2059 16.8027C17.5873 18.1128 17.0137 19.614 16.5772 21.2979C15.5989 25.0713 15.6528 28.3859 15.8918 30.6772C15.9853 31.5739 16.283 32.4335 16.7073 33.2291L17.1523 34.0636C17.3363 34.4085 17.5454 34.7396 17.7778 35.054L19.4745 37.3496C20.0363 38.1097 20.7284 38.7642 21.5186 39.2828L24.4629 41.215C25.321 41.7781 26.3145 42.1009 27.3398 42.1498C28.6412 42.2117 29.9249 41.8292 30.9802 41.0651L33.5461 39.207C34.0397 38.8496 34.4909 38.4368 34.8908 37.9769L37.2552 35.2579C37.548 34.9212 37.812 34.5607 38.0446 34.18L38.0682 34.1414C39.038 32.5546 39.4246 30.6795 39.1616 28.8384L38.5018 24.2196C38.2032 22.1299 37.0908 20.2429 35.407 18.9697L31.9 16.3181Z" fill="#DFAA94"/>
<path d="M36.4585 3.45061C35.4785 2.75373 34.354 2.28674 33.1687 2.08436L27.9871 1.19969C24.9216 0.688777 21.6857 1.37 19.1312 3.41367L14.644 6.84506C13.8064 7.48552 13.2428 8.41961 13.0666 9.45912C12.4862 12.8836 16.1036 15.4737 19.1585 13.821L20.5353 13.0762C21.5016 12.5535 22.6148 12.3684 23.6982 12.5504L37.4867 14.8669C40.4395 15.363 43.0674 12.9411 42.8135 9.95775C42.6992 8.61553 42.0004 7.3915 40.9026 6.61084L36.4585 3.45061Z" fill="#825E6E"/>
<path d="M32.4149 23.7304C31.2065 24.3191 31.8385 26.1317 33.1337 26.4914C33.3348 26.5473 33.544 26.5688 33.7523 26.5549L34.976 26.4733C35.5816 26.4329 36.092 26.0064 36.2392 25.4176C36.4597 24.5353 35.7925 23.6807 34.883 23.6807C33.8261 23.6807 32.6766 23.6807 32.586 23.6807C32.5385 23.6807 32.4807 23.6983 32.4149 23.7304Z" fill="white"/>
<path d="M33.267 24.0215C32.756 24.0215 32.2451 24.5324 32.2451 25.0433C32.2451 25.5542 32.756 26.0652 33.267 26.0652C33.7779 26.0652 34.2888 25.5542 34.2888 25.0433C34.2888 24.3621 33.7779 24.0215 33.267 24.0215Z" fill="#472C39"/>
<path d="M32.3374 23.123C32.1689 23.1536 32.0186 23.2477 31.9173 23.3857C31.4974 23.9584 32.1406 24.7048 32.769 24.3741L33.3239 24.082C33.3989 24.0425 33.4809 24.0184 33.5653 24.0111L33.9786 23.9752C34.6165 23.9197 34.6882 23.015 34.0671 22.8597C33.9888 22.8402 33.9074 22.8375 33.828 22.852L32.3374 23.123Z" fill="#E0A686"/>
<path d="M31.0938 22.4598C31.0666 22.4794 31.0418 22.5023 31.0201 22.528C30.7117 22.8925 31.1636 23.4034 31.5631 23.1417L34.0116 21.5374C34.0823 21.4911 34.1576 21.4563 34.2389 21.4331C34.8642 21.255 37.7135 20.4457 37.865 20.4457L36.9045 20.402C35.1003 20.32 33.3214 20.8509 31.8573 21.9083L31.0938 22.4598Z" fill="#745260"/>
<path d="M32.568 23.8451C32.4694 23.8489 32.3753 23.8876 32.3026 23.9542C31.9532 24.2745 32.3248 24.8365 32.7563 24.6404L33.827 24.1537C34.0092 24.0709 34.2206 24.0838 34.3914 24.1881L35.8323 25.0687C36.3664 25.3951 37.0381 24.9478 36.943 24.3291C36.8861 23.9596 36.5612 23.6915 36.1876 23.7059L32.568 23.8451Z" fill="#212121"/>
<path d="M28.7019 6.20241C25.8797 4.41742 22.1302 5.68886 20.9757 8.82229L20.9283 8.95115C20.8658 9.12079 20.8166 9.29504 20.7811 9.47232L20.708 9.83797C20.6789 9.98328 20.6748 10.1325 20.6957 10.2792L20.7191 10.4427C20.7874 10.9209 21.1632 11.2966 21.6414 11.365C21.8904 11.4005 22.1194 11.5214 22.2893 11.7069L36.4088 27.1248C36.6928 27.4349 36.8858 27.8174 36.9666 28.2301L39.4188 40.7637C39.5028 41.193 40.1261 41.1649 40.1711 40.7298L40.8747 33.9282C40.8784 33.893 41.0849 33.8687 41.1008 33.9003C41.9523 36.2846 45.1881 44.4593 45.3584 43.9484C45.4885 43.4281 44.1282 27.0102 43.4784 19.284C43.2687 16.7906 41.9023 14.5514 39.7876 13.2139L28.7019 6.20241Z" fill="#745260"/>
<path d="M30.0012 14.724C29.4665 14.3327 28.8852 14.0094 28.2707 13.7614L25.0098 12.4456C21.7329 11.1234 17.8576 12.0645 16.3488 15.2598C15.7301 16.5699 15.1565 18.071 14.72 19.7549C13.5576 24.2384 13.8524 28.0743 14.1836 30.3153C14.2002 30.4276 14.2364 30.5353 14.2898 30.6355C14.73 31.4609 15.9488 31.2909 16.1389 30.375C16.9183 26.621 17.9558 21.3458 17.9558 20.947C17.9558 18.4677 21.2481 17.4865 23.0416 19.1984L33.5579 29.2367C33.7146 29.3863 33.8489 29.5579 33.9564 29.746L34.368 30.4663C35.0289 31.623 36.6882 31.6474 37.3829 30.5107C37.5952 30.1633 37.6798 29.7528 37.6222 29.3498L36.655 22.5793C36.3503 20.4465 35.1982 18.5267 33.4595 17.2544L30.0012 14.724Z" fill="#825E6E"/>
<path d="M11.1097 26.4831C11.0376 28.2513 13.4416 28.8474 14.2039 27.2503L14.2892 27.0715C14.3375 26.9703 14.3626 26.8596 14.3626 26.7475C14.4535 28.4211 16.8934 28.5015 17.0942 26.8374L17.5832 22.7858C17.5933 22.7021 17.6095 22.6194 17.6317 22.5381L19.4729 15.7869C19.5855 15.3741 19.731 14.971 19.9081 14.5814L22.0952 9.7697C22.1625 9.62169 22.2089 9.46504 22.233 9.30426C22.5001 7.52335 20.2305 6.54517 19.1193 7.96231L12.1069 16.9056C11.6911 17.4359 11.4526 18.0836 11.4251 18.7569L11.1097 26.4831Z" fill="#745260"/>
<path d="M25.0918 36.794C25.173 36.8549 25.2542 36.9134 25.3354 36.9694C26.416 37.7155 27.8225 37.6637 28.9508 36.992C29.2899 36.7901 29.6517 36.5538 30.0307 36.2831C31.1786 35.4632 30.1849 33.7285 28.7742 33.7285H26.5346C24.5181 33.7285 23.414 35.6754 25.0918 36.794Z" fill="white"/>
<path d="M28.4336 30.5612C28.2521 30.6293 28.0575 30.6555 27.8643 30.6379L26.4949 30.5135C26.3552 30.5008 26.2178 30.4694 26.0865 30.4201L25.3608 30.148C25.1038 30.0516 24.8142 30.145 24.662 30.3734C24.4483 30.6939 24.5936 31.1298 24.9568 31.258L26.5542 31.8218C26.9324 31.9552 27.343 31.9662 27.7277 31.853L29.4059 31.3594C29.7317 31.2636 29.8916 30.8964 29.7397 30.5927C29.6149 30.3431 29.3219 30.2281 29.0607 30.326L28.4336 30.5612Z" fill="#C58C7A"/>
<path d="M22.8786 23.6787C22.7704 23.6787 21.1487 23.6787 19.9811 23.6787C19.3652 23.6787 18.904 24.2422 19.0248 24.8462C19.0913 25.1789 19.326 25.4533 19.6444 25.5706L22.0809 26.4682C22.2706 26.5381 22.429 26.5815 22.6281 26.5469C23.8298 26.3379 24.1611 24.7563 23.2442 23.9519C23.0553 23.7862 22.9177 23.6787 22.8786 23.6787Z" fill="white"/>
<path d="M21.8566 24.0215C21.3456 24.0215 20.8347 24.5324 20.8347 25.0433C20.8347 25.5542 21.3456 26.0652 21.8566 26.0652C22.3675 26.0652 22.8784 25.5542 22.8784 25.0433C22.8784 24.3621 22.3675 24.0215 21.8566 24.0215Z" fill="#472C39"/>
<path d="M21.2955 22.85C21.2162 22.8356 21.1347 22.8382 21.0565 22.8578C20.4354 23.0131 20.5071 23.9177 21.1449 23.9732L21.5582 24.0091C21.6426 24.0165 21.7247 24.0406 21.7996 24.08L22.3546 24.3721C22.983 24.7028 23.6262 23.9564 23.2062 23.3838C23.105 23.2457 22.9546 23.1517 22.7861 23.121L21.2955 22.85Z" fill="#E0A686"/>
<path d="M23.4303 21.99C21.8718 20.7778 19.9109 20.203 17.9446 20.3817L17.2581 20.4441C17.4096 20.4441 20.2589 21.2534 20.8842 21.4316C20.9655 21.4547 21.0408 21.4895 21.1115 21.5359L23.5539 23.1361C23.9544 23.3985 24.4075 22.8863 24.0982 22.5208C24.0796 22.4989 24.0589 22.4789 24.0362 22.4613L23.4303 21.99Z" fill="#745260"/>
<path d="M18.6808 23.6787C18.35 23.6787 18.0667 23.9152 18.0075 24.2406C17.9078 24.7888 18.4701 25.22 18.9737 24.9814L20.775 24.1282C20.9208 24.0592 21.0896 24.0578 21.2364 24.1246L22.0354 24.4877C22.4816 24.6906 22.8584 24.0997 22.4862 23.7807C22.4095 23.7149 22.3117 23.6787 22.2106 23.6787H18.6808Z" fill="#212121"/>
<path d="M26.4849 15.597C23.4926 13.5122 19.4064 14.04 17.0419 16.8166L16.0035 18.0361C15.8966 18.1616 15.8238 18.3125 15.7921 18.4743L13.9199 28.0211C13.9161 28.0402 13.8879 28.0375 13.8879 28.018C13.9523 29.5278 16.157 29.6107 16.3346 28.11L16.7956 24.2141C16.8097 24.0954 16.8375 23.9787 16.8784 23.8664L17.0158 23.49C18.1913 20.268 22.1952 19.17 24.8499 21.3415L34.4278 29.1761C34.8248 29.5008 35.1012 29.9495 35.2128 30.4501L37.7931 42.0284C37.8851 42.4414 38.4849 42.4059 38.5276 41.9849L39.2312 35.0493C39.2337 35.0241 39.3314 34.9129 39.3402 34.9367C39.3481 34.9583 39.4176 35.0473 39.4141 35.0246C38.7689 30.8119 38.0277 25.9117 37.7534 24.0962C37.6832 23.6314 37.4255 23.2195 37.0398 22.9507L26.4849 15.597Z" fill="#634452"/>
<path d="M17.1605 35.2938C16.9003 35.2738 16.6587 35.1405 16.5053 34.9295L16.4424 34.843C16.0066 34.2438 15.0737 34.3993 14.8558 35.1075L14.8425 35.1508C14.7565 35.4305 14.528 35.6432 14.2428 35.709C13.5573 35.8671 13.3758 36.7581 13.9447 37.1719L13.9826 37.1995C14.2189 37.3713 14.349 37.6566 14.3266 37.9479C14.2717 38.661 15.0536 39.1421 15.657 38.7581L15.6987 38.7316C15.9288 38.5851 16.216 38.5604 16.4678 38.6653C17.1205 38.9372 17.7945 38.3252 17.5865 37.6494L17.5715 37.6006C17.4827 37.312 17.5539 36.996 17.7558 36.7716C18.2453 36.2277 17.89 35.35 17.1605 35.2938Z" fill="#FED45C"/>
<path d="M41.9048 34.9212C41.6183 34.9212 41.3484 34.7748 41.1946 34.5331L41.1784 34.5077C40.8061 33.9226 39.9216 34.0315 39.7023 34.6894C39.6181 34.9418 39.4173 35.1379 39.1631 35.2162L39.0162 35.2614C38.3101 35.4786 38.1352 36.3975 38.712 36.859L38.7329 36.8757C38.9379 37.0397 39.0573 37.2881 39.0573 37.5506V37.6397C39.0573 38.3286 39.8542 38.7116 40.3922 38.2812C40.6202 38.0988 40.9279 38.0512 41.2004 38.156L41.2547 38.1768C41.9523 38.4451 42.6523 37.7916 42.4325 37.0773L42.4231 37.0469C42.3418 36.7825 42.3965 36.495 42.5693 36.279C43.0071 35.7318 42.6055 34.9212 41.9048 34.9212Z" fill="#FED45C"/>
<path d="M13.1695 6.1219C12.1685 6.67804 11.8688 7.97834 12.5255 8.91649C13.1558 9.81683 14.4094 10.0101 15.2816 9.34147L17.6997 7.48755C18.3366 6.99929 18.5471 6.1332 18.2054 5.40708C17.785 4.51366 16.6962 4.16259 15.8331 4.64212L13.1695 6.1219Z" fill="#EF7A2B"/>
<path d="M36.9652 6.85318C36.5989 7.62244 36.8371 8.54366 37.5305 9.03889L40.1149 10.8849C40.6895 11.2953 41.473 11.2476 41.9936 10.7704C42.6208 10.1954 42.6422 9.21352 42.0405 8.61181L39.7947 6.36605C38.9364 5.50774 37.4871 5.75726 36.9652 6.85318Z" fill="#EF7A2B"/>
<path d="M6.52884 0.689856C2.10089 2.56322 1.58997 9.37545 1.07905 13.4628C0.0572192 21.6375 0.0572193 29.8122 0.738443 37.9868C1.07905 42.0742 1.76028 46.1615 2.61181 50.0786C3.12272 51.9519 3.63364 53.9956 4.14456 56.0393C4.65548 57.7423 5.84762 60.1266 5.84762 62C5.67731 55.358 5.67731 48.8864 5.50701 42.2445C5.3367 35.4322 4.99609 28.62 5.67731 21.8078C6.01792 18.0611 6.86945 8.69423 11.2974 6.99117C14.472 5.80071 14.4344 1.34161 11.1516 0.494289C9.04696 -0.0489198 7.57533 0.214181 6.52884 0.689856Z" fill="#825E6E"/>
<path d="M50.2972 3.58563C49.1051 1.71227 47.402 0.00921071 45.1881 0.00921071C42.4998 -0.125201 40.7664 1.22554 39.4853 3.14047C38.7947 4.17272 38.9002 5.31937 39.7369 6.23722C40.3498 6.90968 41.1015 7.67633 41.7446 8.22134C41.9911 8.43015 42.2576 8.67511 42.5241 8.8575C42.9352 9.13873 43.3986 9.28579 43.8866 9.18657C44.2709 9.10846 44.6653 8.99661 45.1881 9.20573C45.8693 9.37603 46.3802 10.0573 46.8911 10.5682C47.7427 11.59 48.2536 13.1228 48.4239 14.4852C50.1269 22.149 51.1488 29.983 51.4894 37.8171C51.6597 41.5638 51.83 45.3106 52.0003 49.0573C52.0003 51.101 52.0003 52.9743 52.0003 55.018C52.0003 56.2101 52.3409 59.9569 51.6597 60.9787C55.747 55.1883 57.2798 47.5245 57.4501 40.7123C57.7907 33.0485 56.9392 25.2145 55.0658 17.721C53.7034 12.7822 52.8518 7.67297 50.2972 3.58563Z" fill="#825E6E"/>
</svg>
