<svg width="52" height="62" viewBox="0 0 52 62" fill="none" xmlns="http://www.w3.org/2000/svg">
<path d="M47.546 26.7726C47.3103 26.9298 46.9898 26.8368 46.8747 26.5779L42.6575 17.0891C40.9505 13.2485 36.5628 11.3836 32.613 12.8199L31.7251 13.1428C30.2092 13.694 28.5363 13.6205 27.0746 12.9384C24.3586 11.6709 21.124 12.5711 19.4532 15.0594L11.4631 26.9596C11.4145 27.032 11.3988 27.1217 11.42 27.2063C11.4891 27.483 11.1777 27.6972 10.944 27.5336L9.82289 26.7488C9.50909 26.5292 9.085 26.5562 8.80157 26.8138L7.90147 27.6321C7.18828 28.2805 6.94522 29.2996 7.28903 30.2L11.3143 40.7423C11.5098 41.2543 11.9045 41.6652 12.4082 41.8811C12.9455 42.1114 13.3571 42.5626 13.5371 43.1189L14.9261 47.4122C15.5042 49.1993 16.6928 50.726 18.2835 51.7248L24.148 55.4071C25.2696 56.1114 26.5485 56.5262 27.87 56.6143L29.3575 56.7135L30.8721 56.6125C32.1764 56.5256 33.4394 56.1203 34.5509 55.4323L40.0293 52.0409C41.7223 50.9928 42.9637 49.3511 43.5107 47.4365L44.7687 43.0334C44.9125 42.5301 45.261 42.1102 45.7292 41.8761C46.1565 41.6624 46.4857 41.2931 46.649 40.844L50.3329 30.7134C50.7595 29.5401 50.3168 28.2277 49.2666 27.5526L48.0468 26.7684C47.8939 26.6701 47.6973 26.6718 47.546 26.7726Z" fill="#F2C4A5"/>
<path d="M18.3498 34.3806C18.2208 34.4797 18.1548 34.6338 18.1548 34.7964C18.1548 34.9332 18.2024 35.0676 18.2949 35.1684C19.6238 36.6149 21.6121 36.8224 23.0658 36.4841C24.6898 36.1061 24.3729 34.1673 22.8086 33.5903C20.6834 32.8065 18.9207 33.9417 18.3498 34.3806Z" fill="white"/>
<path d="M21.6559 33.374C20.7223 33.374 20.0222 34.0742 20.0222 34.7743C20.0222 35.4745 20.7223 36.1747 21.6559 36.1747C22.1692 36.1747 22.612 35.963 22.9066 35.656C23.3595 35.184 23.282 34.3924 22.8428 33.9077C22.5204 33.5519 22.0881 33.374 21.6559 33.374Z" fill="#3E2723"/>
<path d="M34.8249 33.8678C33.7303 34.4545 33.3062 35.8544 34.4663 36.2979C35.9278 36.8567 38.4199 36.8312 39.9531 35.1682C40.0458 35.0676 40.0933 34.9332 40.0933 34.7964C40.0933 34.6338 40.0273 34.4797 39.8984 34.3806C39.2732 33.9 37.2191 32.5845 34.8249 33.8678Z" fill="white"/>
<path d="M36.593 33.374C35.6594 33.374 34.9592 34.0742 34.9592 34.7743C34.9592 35.4745 35.6594 36.1747 36.593 36.1747C37.5265 36.1747 38.2266 35.4745 38.2266 34.7743C38.2266 33.8408 37.5265 33.374 36.593 33.374Z" fill="#3E2723"/>
<path d="M28.1633 43.6445C28.0287 43.6445 27.8969 43.6067 27.7828 43.5354L27.5814 43.4095C27.0787 43.0953 26.4589 43.5833 26.6463 44.1456C26.7324 44.4038 26.9741 44.578 27.2462 44.578H31.8867C32.1742 44.578 32.4157 44.3619 32.4475 44.0761L32.466 43.9097C32.5188 43.4348 31.9441 43.1586 31.6062 43.4964C31.5114 43.5912 31.3829 43.6445 31.2488 43.6445H28.1633Z" fill="#D69D76"/>
<path d="M27.1357 47.8658C25.8052 47.7563 24.9613 49.2795 25.8136 50.3069C25.9908 50.5205 26.2292 50.696 26.4986 50.7627C27.2604 50.9515 28.4257 51.1131 29.591 51.1131C30.955 51.1131 32.1562 50.9504 33.059 50.7609C33.3855 50.6923 33.4139 50.8222 33.6265 50.5652C34.4902 49.5207 33.6779 47.8293 32.3264 47.9294C30.5305 48.0623 28.6861 47.9933 27.1357 47.8658Z" fill="white"/>
<path d="M43.3605 7.93667C34.7335 6.83064 11.0109 9.07918 7.96198 21.0413C7.62401 22.3673 7.97396 23.75 8.58595 24.9739L9.18231 26.2412C10.1731 28.3466 13.2782 27.9586 13.7204 25.6741C13.871 24.6198 14.3938 23.6543 15.1942 22.9518L22.7478 16.3232C24.4314 14.8457 26.6564 14.1404 28.8818 14.3958C31.8092 14.7317 35.9407 15.2256 38.6928 15.6384C39.1598 15.6968 39.5831 15.7552 39.9552 15.8136C41.1821 16.0061 41.8053 16.9776 42.2046 18.1536C42.9545 20.3624 44.3648 23.9626 44.956 25.4571C45.1366 25.9136 45.2551 26.3882 45.3093 26.8761L45.6298 29.7599C45.6692 30.1146 45.9112 30.4141 46.2498 30.5269C46.7201 30.6837 47.2297 30.4374 47.3991 29.9716L49.9768 22.8829C50.5299 21.3617 50.5752 19.7023 50.1058 18.1532C49.1492 14.9965 47.2698 10.9019 44.8006 8.71499C44.2739 8.24856 43.7727 7.93667 43.3605 7.93667Z" fill="#513A44"/>
<path d="M23.2106 44.9933C22.6539 45.1788 22.167 45.5298 21.8149 45.9992L21.3 46.6858C21.0829 46.9753 21.0137 47.3497 21.1131 47.6977L21.2371 48.1317C21.476 48.9677 22.6085 49.0934 23.0249 48.3301C23.1888 48.0296 23.4987 47.8375 23.8408 47.8243L28.3516 47.6508C28.9597 47.6274 29.4932 47.2383 29.7012 46.6663C30.0124 45.8103 29.4938 44.8771 28.6025 44.6894L26.7007 44.2891C26.1478 44.1727 25.574 44.2055 25.038 44.3842L23.2106 44.9933Z" fill="#513A44"/>
<path d="M34.2867 44.2607C33.6621 44.0108 32.9738 43.9684 32.3232 44.1396L30.4588 44.6302C29.6258 44.8494 29.1729 45.7487 29.4929 46.5485C29.6957 47.0556 30.1691 47.4033 30.7136 47.4452L35.3842 47.8045C35.7029 47.829 35.9899 48.0064 36.1544 48.2805C36.5936 49.0125 37.6921 48.8789 37.9431 48.0631L38.0533 47.7049C38.1619 47.3521 38.0951 46.9687 37.8736 46.6734L37.323 45.9393C36.9978 45.5057 36.5595 45.1698 36.0562 44.9685L34.2867 44.2607Z" fill="#513A44"/>
<path d="M39.0701 48.3972C38.5106 48.804 38.0152 49.2923 37.6001 49.8457L36.5593 51.2334C35.3783 52.8081 33.6583 53.892 31.7282 54.2781L30.4923 54.5252C29.4355 54.7366 28.3468 54.7323 27.2917 54.5124L26.2459 54.2946C24.3405 53.8976 22.6453 52.8197 21.4775 51.2627L20.4677 49.9163C20.0173 49.3157 19.4838 48.7823 18.8832 48.3319L17.369 47.1961C17.1204 47.0097 16.9318 46.7547 16.8264 46.4624C16.1801 44.6703 13.503 45.3196 13.7494 47.2087L13.8957 48.3307C13.9339 48.6236 14.0471 48.9017 14.2244 49.138L18.9726 55.4691C19.3596 55.9851 19.8076 56.4523 20.3068 56.8608L23.7827 59.7047C24.3842 60.1968 25.0496 60.6195 25.8039 60.8068C27.3523 61.1913 29.1891 61.2558 30.5293 61.236C31.7568 61.2179 32.9348 60.8115 33.9792 60.1664L38.3442 57.4703C39.6389 56.6706 40.6787 55.5183 41.3415 54.1484L43.7052 49.2635C43.7862 49.0962 43.8397 48.9169 43.8637 48.7326L44.0337 47.4298C44.2799 45.5423 41.605 44.8936 40.9592 46.6842C40.8512 46.9837 40.6558 47.2439 40.3983 47.4312L39.0701 48.3972Z" fill="#513A44"/>
<path d="M33.2435 34.1852C33.1529 34.2549 33.1272 34.3796 33.1783 34.4818C33.2515 34.6283 33.4467 34.669 33.5799 34.5738C34.0903 34.2089 35.3457 33.4737 37.1664 33.4812C39.0374 33.4888 39.5908 32.9483 37.7207 32.8897C36.2638 32.844 34.5339 33.192 33.2435 34.1852Z" fill="#513A44"/>
<path d="M23.0006 33.2108C21.6325 32.7531 21.0059 33.2142 22.4114 33.5394C23.3335 33.7528 24.7174 34.0367 23.8839 33.5884C23.6202 33.4465 23.3211 33.318 23.0006 33.2108Z" fill="#513A44"/>
<path d="M32.0414 29.2994C31.4627 29.3588 31.0433 29.8785 31.1076 30.4566C31.1719 31.0354 31.6961 31.4505 32.2742 31.3804L38.6642 30.6059C38.8365 30.585 39.0113 30.6042 39.175 30.6619L39.236 30.6835C40.2873 31.0545 41.1671 29.8161 40.4707 28.9456C40.2353 28.6514 39.8667 28.4969 39.4919 28.5353L32.0414 29.2994Z" fill="#513A44"/>
<path d="M18.2758 29.1381C17.6211 29.9565 18.4856 31.1096 19.4547 30.7105L19.5233 30.6823C19.6968 30.6109 19.8864 30.588 20.0719 30.6161L26.429 31.5793C27.0081 31.6671 27.544 31.2555 27.6087 30.6734C27.6719 30.1039 27.2588 29.5919 26.6888 29.5335L19.1719 28.7625C18.8288 28.7273 18.4913 28.8688 18.2758 29.1381Z" fill="#513A44"/>
<g opacity="0.73">
<path opacity="0.73" d="M34.2664 36.7358C33.9666 37.1173 33.8601 37.6159 33.9778 38.0865L34.0036 38.1896C34.0176 38.2457 34.0207 38.288 34.0316 38.3448C34.1099 38.753 34.7208 38.6989 34.9869 38.3795L40.0665 32.2841C40.633 31.6043 40.1689 30.5502 39.3008 30.7216C39.0735 30.7665 38.8481 30.9045 38.705 31.0867L34.2664 36.7358Z" fill="#447C7F"/>
</g>
<g opacity="0.73">
<path opacity="0.73" d="M35.5209 37.508C34.9381 38.2073 34.982 39.4429 35.8923 39.4429C36.7708 39.4429 37.5949 39.0175 38.1037 38.3014L42.6071 31.9633C43.0209 31.3809 42.6131 30.4382 41.9025 30.3639C41.6429 30.3368 41.3969 30.4568 41.2298 30.6573L35.5209 37.508Z" fill="#447C7F"/>
</g>
<g opacity="0.73">
<path opacity="0.73" d="M44.0607 30.5723C43.7679 30.5723 43.4932 30.7141 43.3236 30.9527L38.0412 38.3873C37.7273 38.8291 38.0656 39.441 38.6075 39.441C38.8218 39.441 39.0005 39.3381 39.126 39.1644L44.3729 31.8994C44.731 31.4035 44.6723 30.5723 44.0607 30.5723Z" fill="#447C7F"/>
</g>
<g opacity="0.73">
<path opacity="0.73" d="M45.549 32.1384C45.6067 31.5048 44.7202 31.6522 44.3477 32.168L40.8992 36.943C40.076 38.0827 40.9357 39.6039 42.1932 38.9752C43.8269 38.0417 44.2936 35.9412 45.2272 34.3075C45.4606 33.8407 45.4606 33.6073 45.4606 33.1405V32.7468C45.4606 32.5453 45.5307 32.3391 45.549 32.1384Z" fill="#447C7F"/>
</g>
<g opacity="0.73">
<path opacity="0.73" d="M33.7614 31.7226C33.6196 31.77 33.4857 31.7701 33.362 31.8542C32.5926 32.3778 32.4086 33.4421 32.6247 34.3065C33.1339 35.6304 34.899 35.8808 35.7563 34.7507L36.2735 34.0689C37.2477 32.7848 36.2071 31.1363 34.6189 31.4115C34.5268 31.4275 34.4347 31.4429 34.3426 31.4576C34.1367 31.4906 33.9592 31.6565 33.7614 31.7226Z" fill="#447C7F"/>
</g>
<path d="M44.2939 28.9386C40.5597 27.7716 34.2583 29.4053 31.9245 30.5723C31.3161 30.8765 30.7077 30.8833 30.0993 30.9157C29.4461 30.9506 28.7915 31.0666 28.1395 31.0138C27.6273 30.9723 27.137 30.8625 26.5565 30.5723C24.456 29.6387 18.1546 28.005 14.1871 28.9386C12.0866 29.4053 10.9196 30.8057 11.153 33.3729V34.0731C11.3644 36.6105 14.4495 39.7226 15.0276 40.2852C15.0892 40.3452 15.1505 40.4055 15.2133 40.4643C16.1308 41.3231 17.2594 41.5414 18.388 41.5414L22.589 41.0747C23.5192 40.8886 24.4493 40.406 25.1431 39.745C25.4906 39.4139 25.731 38.9916 25.9456 38.5624L27.4188 35.6159C27.7752 34.9032 28.327 34.5398 29.1238 34.5398C29.9188 34.5398 30.472 34.9024 30.8275 35.6135L32.6246 39.2076C33.3247 40.3745 34.2583 41.0747 35.6586 41.0747L39.8596 41.5414C40.9473 41.759 42.0351 41.3682 42.9338 40.558C43.0657 40.4391 43.192 40.318 43.3216 40.1967C44.0917 39.4764 46.8934 36.688 47.0946 34.0731V34.035C47.0946 33.5944 47.1434 33.1542 47.1726 32.7145C47.3279 30.385 46.0074 29.3669 44.2939 28.9386ZM25.8564 34.3065L24.4561 38.274C24.3079 38.7185 23.9717 39.0689 23.5071 39.3252C22.9344 39.6412 22.258 39.6706 21.6046 39.7007C19.7759 39.7848 17.8314 39.9975 16.0541 39.2076C14.4204 38.274 13.9537 36.1735 13.0201 34.5398C12.7867 34.0731 12.7867 33.8397 12.7867 33.3729V32.6728C12.7867 31.7392 13.4869 31.039 14.4205 30.8057C17.6342 30.117 21.0736 31.0088 24.2947 31.7045C24.4021 31.7277 24.5667 31.7456 24.666 31.7925C24.8848 31.896 25.0542 31.9995 25.2412 32.1533C25.7553 32.576 26.0522 33.5233 25.8564 34.3065ZM45.7674 33.7142C45.6827 34.1554 45.3435 34.502 45.1454 34.9052C44.4001 36.4223 43.8667 38.1514 42.4269 38.9742C40.5598 39.9077 37.9925 39.6744 35.892 39.441C34.9584 39.441 34.2583 38.9742 34.0249 38.0406L32.6246 34.0731C32.1934 33.2107 32.5588 32.1491 33.353 31.6243C33.483 31.5384 33.716 31.4902 33.8487 31.4085C34.0135 31.3072 34.1255 31.251 34.3146 31.2099C37.4986 30.5186 40.8895 29.6594 44.0605 30.3389C44.9941 30.5723 45.6943 31.2724 45.6943 32.206C45.6943 32.6697 45.8294 33.1338 45.7845 33.5953C45.7805 33.6364 45.7747 33.676 45.7674 33.7142Z" fill="#191718"/>
<g opacity="0.73">
<path opacity="0.73" d="M25.1341 31.9068C25.0051 31.7871 24.7449 31.7184 24.5988 31.6202C24.4562 31.5244 24.3669 31.4867 24.1989 31.4503C21.0055 30.7578 17.6024 29.8904 14.4206 30.5722C13.4871 30.8056 12.7869 31.5057 12.7869 32.4393V33.1394C12.7869 33.1884 12.7869 33.2373 12.7871 33.2859C12.7911 33.9969 13.2053 34.6166 13.5057 35.2611C14.1692 36.6848 14.726 38.2151 16.0543 38.9741C17.9214 39.9077 20.4887 39.6743 22.5891 39.4409C23.5227 39.4409 24.2228 38.9741 24.4562 38.0406L25.8565 34.073C26.0656 33.4459 25.713 32.4444 25.1341 31.9068Z" fill="#27565B"/>
</g>
<g opacity="0.25">
<path opacity="0.25" d="M34.2664 36.7358C33.9666 37.1173 33.8601 37.6159 33.9778 38.0865L34.0036 38.1896C34.0176 38.2457 34.0207 38.288 34.0316 38.3448C34.1099 38.753 34.7208 38.6989 34.9869 38.3795L40.0665 32.2841C40.633 31.6043 40.1689 30.5502 39.3008 30.7216C39.0735 30.7665 38.8481 30.9045 38.705 31.0867L34.2664 36.7358Z" fill="#A0D8D8"/>
</g>
<g opacity="0.25">
<path opacity="0.25" d="M44.0607 30.5723C43.7679 30.5723 43.4932 30.7141 43.3236 30.9527L38.0412 38.3873C37.7273 38.8291 38.0656 39.441 38.6075 39.441C38.8218 39.441 39.0005 39.3381 39.126 39.1644L44.3729 31.8994C44.731 31.4035 44.6723 30.5723 44.0607 30.5723Z" fill="#A0D8D8"/>
</g>
<g opacity="0.25">
<path opacity="0.25" d="M16.4545 38.2784C16.1365 38.6282 16.3162 39.2613 16.768 39.4004C16.9636 39.4606 17.0656 39.3541 17.201 39.2006L23.3299 32.2545C23.5862 31.9639 23.421 31.3523 23.0384 31.2907C22.9133 31.2705 22.774 31.3269 22.6888 31.4207L16.4545 38.2784Z" fill="#A0D8D8"/>
</g>
<g opacity="0.25">
<path opacity="0.25" d="M14.303 36.2608C14.1079 36.4729 14.0924 36.8228 14.1836 37.0962C14.2776 37.3778 14.5909 37.4037 14.8008 37.1937L19.9657 32.0288C20.331 31.6635 20.1432 30.8698 19.6291 30.8205C19.4677 30.8051 19.2593 30.8736 19.1495 30.9929L14.303 36.2608Z" fill="#A0D8D8"/>
</g>
<path d="M7.49332 22.1513C7.42776 22.6139 7.52862 23.0902 7.73755 23.5081C8.12236 24.2777 8.86092 24.8066 9.70654 24.9659C10.9695 25.2037 12.2905 25.4997 13.4865 25.6705C14.6202 25.8122 15.5819 25.954 16.2146 25.9912C16.7405 26.0221 17.2098 25.7763 17.6828 25.5445C20.9606 23.9386 34.5102 17.7259 38.6923 15.6349C39.6132 15.1744 40.5975 15.1103 41.5538 15.4918C42.635 15.9232 44.0726 16.4915 45.0007 16.7639C45.6508 16.9547 45.8989 17.0361 45.7974 16.3662C45.4951 14.3702 44.0563 12.184 42.0463 11.9963C30.9234 10.9574 9.13998 10.5324 7.49332 22.1513Z" fill="#E0E0E0"/>
<path d="M47.9045 16.6264C49.0342 14.4118 47.5645 11.9383 45.218 11.1172C35.5967 7.7507 24.1927 13.2765 12.5904 14.9351C9.07442 15.43 7.18543 14.7072 6.06077 13.301C3.66917 10.3106 -0.242486 8.78187 0.0315444 12.6012C0.0315444 15.6352 0.785048 18.4359 2.04094 21.2365C2.84333 22.7276 4.21557 23.8279 5.85159 24.2646C9.57912 25.2594 16.1454 26.9366 16.8604 26.6044C17.8651 26.1376 42.983 17.7357 42.4806 17.5023C41.9782 17.2689 48.0065 18.4359 47.5042 17.7357C47.4043 17.5502 47.6219 17.1804 47.9045 16.6264Z" fill="#745260"/>
<path d="M4.54198 7.344C4.5478 7.28451 4.51837 7.2334 4.45861 7.2334C4.39884 7.2334 4.5474 7.28861 4.54158 7.34809C4.33956 9.41289 4.49739 7.79967 4.54198 7.344Z" fill="#825E6E"/>
<path d="M39.2157 0C38.2704 0 27.5069 0.925504 22.2403 1.38332C20.3852 1.54458 18.6656 2.37146 17.2369 3.56569C16.03 4.57454 14.6134 5.60128 13.8467 5.60128C11.1023 5.60128 4.88108 3.11511 4.36986 5.81148C4.32554 6.04523 4.3019 6.28637 4.3019 6.53483C4.3019 6.72822 4.3019 6.92162 4.3019 7.11501C4.3019 7.18127 4.35561 7.23499 4.42187 7.23499C4.49236 7.23499 4.54768 7.29451 4.54086 7.36467C4.4935 7.85211 4.32375 9.45559 4.30381 7.62296C4.3015 7.41063 4.05078 7.21394 4.05078 7.0016C4.80432 12.3695 6.31138 16.5705 12.842 14.9367C24.9458 13.2065 36.8339 7.26738 46.7073 11.6065C47.6403 12.0165 48.775 10.9033 48.7612 9.88428C48.7573 9.60377 48.6658 9.69034 48.4837 9.47695C47.0336 7.77784 40.3344 0 39.2157 0Z" fill="#825E6E"/>
</svg>
