<svg width="59" height="63" viewBox="0 0 59 63" fill="none" xmlns="http://www.w3.org/2000/svg">
<path d="M29.2127 8.16016H19.8099C15.8391 8.16016 12.4692 11.0728 11.8942 15.0018L8.48987 38.2651C8.27311 39.7463 8.47629 41.2586 9.07631 42.63L12.813 51.1709C13.384 52.4761 14.2931 53.6051 15.4465 54.4413L22.4052 59.4864C23.5874 60.3434 24.981 60.8661 26.4385 60.9541C27.3675 61.0102 28.4138 61.0597 29.2127 61.0597C30.0116 61.0597 31.058 61.0102 31.9869 60.9541C33.4444 60.8661 34.8381 60.3434 36.0202 59.4864L42.979 54.4413C44.1323 53.6051 45.0415 52.4761 45.6125 51.1709L49.3492 42.63C49.9492 41.2586 50.1523 39.7463 49.9356 38.2651L46.5312 15.0018C45.9563 11.0728 42.5864 8.16016 38.6155 8.16016H29.2127Z" fill="#F2C4A5"/>
<path d="M25.2887 0.683605C23.4069 0.242831 21.4292 0.498187 19.7211 1.40247L11.3961 5.80983C9.83343 6.63711 8.68053 8.0715 8.20866 9.77549C6.7011 15.2195 12.4445 19.8213 17.4288 17.163L17.9998 16.8585C19.2982 16.166 20.7883 15.9199 22.2404 16.1579L43.4694 19.6381C47.9358 20.3703 51.9532 16.8278 51.7857 12.3048C51.6662 9.07936 49.4042 6.33228 46.2616 5.59617L25.2887 0.683605Z" fill="#825E6E"/>
<path d="M26.0098 5.46878C23.7099 4.67264 21.1726 4.9668 19.1158 6.26804L11.246 11.2469C10.1183 11.9604 9.34584 13.1184 9.12036 14.4337L5.20652 37.2645C4.88721 39.1271 7.51299 39.8503 8.30999 38.1367C8.3831 37.9795 8.42183 37.8064 8.42183 37.633C8.53124 40.0673 12.0805 40.2084 12.3827 37.7905L13.1327 31.7905C13.1503 31.6503 13.1796 31.5119 13.2205 31.3767L16.5805 20.2631L18.6326 15.4748C18.815 15.0492 19.2794 14.8188 19.7287 14.9311C19.9069 14.9757 20.0682 15.0713 20.1929 15.2062L41.8094 38.6029C42.18 39.0041 42.4567 39.4825 42.6196 40.0038L45.8671 50.3956C46.2827 51.7256 48.2164 51.5564 48.3947 50.1744C48.524 49.1727 49.697 48.6955 50.4889 49.3224L51.32 49.9803C52.6587 51.0401 54.6068 49.9317 54.3797 48.2395L50.3968 18.5673C49.9949 15.5727 47.9401 13.06 45.0848 12.0717L26.0098 5.46878Z" fill="#745260"/>
<path d="M25.4617 12.1582C22.5926 11.3177 19.4943 12.1472 17.4288 14.3087L10.7038 21.3466C9.90818 22.1792 9.42133 23.2589 9.32408 24.4064L8.17563 37.9582C8.16977 38.0273 8.2533 38.0661 8.30233 38.0171C8.34805 37.9713 8.42632 38.0017 8.42922 38.0663L8.59155 41.6782C8.6833 43.7196 11.6597 43.8379 11.9132 41.8102L13.1237 32.1261C13.1471 31.939 13.1916 31.7552 13.2564 31.5781L13.4595 31.023C15.2581 26.1068 21.334 24.3821 25.4473 27.6202L40.8807 39.7699C41.5054 40.2617 41.9448 40.951 42.127 41.7251L46.3759 59.7832C46.5103 60.3545 47.3419 60.2954 47.394 59.7108L48.3676 48.8074C48.3708 48.7707 48.5341 48.601 48.5474 48.6353C48.5594 48.6662 48.665 48.8045 48.6599 48.7718C47.663 42.3809 47.1261 27.8447 46.9318 21.4908C46.8757 19.6581 45.6515 18.0723 43.8919 17.5569L25.4617 12.1582Z" fill="#634452"/>
<path d="M35.8506 18.8497C34.448 19.9371 32.7236 20.5272 30.9489 20.5272H29.2127H27.5611C25.7346 20.5272 23.963 19.9022 22.5409 18.756L7.10543 6.3154L2.93437 2.97855C2.31237 2.48095 1.41568 2.53061 0.852429 3.09385C0.483859 3.46242 0.319584 3.97191 0.421094 4.48317C1.51932 10.0144 7.98491 42.3713 8.94766 42.3713C9.64025 42.3713 15.1173 43.6243 18.7836 44.4817C20.8917 44.9747 23.1113 44.5221 24.851 43.2335C27.4421 41.3142 30.9833 41.3142 33.5743 43.2335C35.314 44.5221 37.5336 44.9747 39.6418 44.4817C43.308 43.6243 48.7851 42.3713 49.4777 42.3713C50.4485 42.3713 57.238 9.47265 58.2892 4.35046C58.3778 3.91916 58.2386 3.4963 57.9272 3.18497C57.4601 2.71788 56.7185 2.67112 56.1965 3.07587L35.8506 18.8497Z" fill="#3E4F56"/>
<path d="M17.1066 39.7397L10.2409 40.45C9.77789 40.4979 9.39057 40.8227 9.26268 41.2702C9.08916 41.8775 9.44276 42.5101 10.051 42.6804L18.6163 45.0787C20.8349 45.6999 23.2136 45.3344 25.1435 44.0759L27.4925 42.5439C27.9319 42.2573 28.4308 42.0746 28.9514 42.0095C29.7976 41.9037 30.653 42.1146 31.3531 42.6016L33.5509 44.1305C35.3209 45.3618 37.5129 45.8265 39.6302 45.4193L48.0627 43.7977C49.1898 43.5809 50.0043 42.5948 50.0043 41.4471C50.0043 40.0855 48.8701 38.9981 47.5097 39.0556L31.3184 39.7397H17.1066Z" fill="#2C0B0B"/>
<path d="M29.2132 22.2384C29.2132 22.3111 29.1543 22.37 29.0816 22.37H25.8717C25.1371 22.37 24.423 22.1279 23.8399 21.6812L1.37637 4.47514C0.960168 4.15635 0.241241 4.5174 0.259345 5.04135C0.262376 5.12905 0.284903 5.30363 0.326381 5.38095L21.4157 44.6956C21.5174 44.8853 21.8129 45.0036 22.0281 45.0036C22.1434 45.0036 22.1584 44.9695 22.2544 44.9055L26.555 42.0384C28.1647 40.9653 30.2617 40.9653 31.8713 42.0384C34.2453 43.621 37.4677 42.7915 38.7824 40.2594L44.7619 28.7434C47.8546 22.7869 40.7216 16.773 35.3736 20.8281L34.5844 21.4265C34.0023 21.8679 33.2919 22.1068 32.5614 22.1068H29.3448C29.2721 22.1068 29.2132 22.1657 29.2132 22.2384Z" fill="#37474F"/>
<path d="M42.5039 33.0907C40.0443 37.8276 44.14 42.3718 49.4774 42.3718C50.4391 42.3718 57.1112 9.86644 58.258 4.2444C58.3211 3.93493 57.9746 3.72152 57.7118 3.89671C57.6621 3.92987 57.6216 3.97509 57.594 4.02814L42.5039 33.0907Z" fill="#263238"/>
<path d="M8.94766 42.3723C9.17366 42.3723 10.1329 42.5448 11.4364 42.8034C15.3476 43.5794 18.5592 39.3719 16.6743 35.8581C14.1366 31.1273 6.54019 33.9507 7.88609 39.1477C8.40567 41.154 8.78642 42.3723 8.94766 42.3723Z" fill="#263238"/>
<path d="M12.1819 33.2988C11.7274 33.2275 11.3167 33.5789 11.3167 34.039C11.3167 34.1553 11.3437 34.27 11.3957 34.374L12.341 36.2646C13.1901 37.9627 14.7693 39.1789 16.6279 39.5661L21.8152 40.6468C23.8984 41.0808 25.7185 39.1872 25.2024 37.1228C24.9214 35.9988 23.9953 35.1519 22.8507 34.9724L12.1819 33.2988Z" fill="#F2C4A5"/>
<path d="M22.8969 36.0571C22.7463 36.0571 19.6633 35.7984 17.0546 35.5771C15.6631 35.4591 14.7941 37.0509 15.6456 38.1578C15.9071 38.4977 16.2936 38.7189 16.7191 38.7721L23.7603 39.6522C24.1954 39.7066 24.6215 39.4991 24.8471 39.1232C25.0961 38.7082 25.0474 38.18 24.7205 37.8232C24.0776 37.1215 23.0733 36.0571 22.8969 36.0571Z" fill="white"/>
<path d="M19.1412 35.1694C18.5033 35.0631 17.8094 35.1338 17.4586 35.6772C17.201 36.0763 17.0055 36.5466 16.8892 37.0072C16.8622 37.1145 16.8438 37.2353 16.8438 37.3745C16.8438 38.9536 18.1597 40.0063 19.4756 40.0063C20.7915 40.0063 22.1074 38.9536 22.1074 37.6377V37.3745C22.1074 37.205 22.0953 37.0476 22.071 36.8997C21.9036 35.8798 20.7698 35.4409 19.7503 35.271L19.1412 35.1694Z" fill="#0277BD"/>
<path d="M19.7763 36.1486C19.2532 36.0905 18.6026 36.2082 18.4445 36.7101C18.4302 36.7555 18.4224 36.8008 18.4224 36.8462C18.4224 37.1094 18.4224 37.1094 18.4224 37.3725C18.4224 38.1621 19.2119 38.9516 20.0015 38.9516C20.7059 38.9516 21.2009 38.5326 21.4863 37.8815C21.5563 37.7218 21.5806 37.5469 21.5806 37.3725C21.5806 36.7526 20.8513 36.268 20.2351 36.1996L19.7763 36.1486Z" fill="#1F3547"/>
<path d="M22.107 35.5312L18.1593 35.0049L17.6319 34.9463C16.7716 34.8507 16.5347 36.093 17.3698 36.3208L22.6334 37.6367L23.1516 37.7922C24.0051 38.0482 24.7766 37.2048 24.4457 36.3774C24.3018 36.0177 23.9739 35.7646 23.5895 35.7165L22.107 35.5312Z" fill="#1F3547"/>
<path d="M33.1412 37.5282C32.8914 39.5269 34.6683 41.1855 36.645 40.7987L41.3709 39.8741C43.4773 39.462 45.2402 38.0283 46.0731 36.0503L46.8461 34.2143C46.9676 33.85 46.665 33.4846 46.2845 33.5358L35.6822 34.9631C34.3512 35.1422 33.3078 36.1955 33.1412 37.5282Z" fill="#F2C4A5"/>
<path d="M33.4892 37.8343C33.1415 38.182 33.0752 38.7215 33.3282 39.1432C33.5465 39.507 33.9589 39.7077 34.3799 39.6551L41.4441 38.7721C41.8696 38.7189 42.2562 38.4977 42.5176 38.1578C43.3691 37.0509 42.5002 35.4591 41.1086 35.5771C39.444 35.7183 37.5862 35.8748 36.4205 35.9695C35.6795 36.0297 34.9713 36.3521 34.4456 36.8778C34.1294 37.1941 33.7775 37.546 33.4892 37.8343Z" fill="white"/>
<path d="M40.3042 35.4687C40.1618 35.3437 39.9039 35.2747 39.7149 35.2882L38.3797 35.3836C37.0507 35.4785 35.5295 36.0406 35.5295 37.373C35.5295 37.5481 35.5435 37.7237 35.5915 37.892C35.9322 39.0859 36.9319 40.0048 38.1614 40.0048C39.7404 40.0048 40.7932 38.6889 40.7932 37.373C40.7932 37.3557 40.7932 37.3373 40.7931 37.3179C40.7908 36.7344 40.7426 35.8537 40.3042 35.4687Z" fill="#0277BD"/>
<path d="M39.6416 36.7459C39.3718 36.4761 38.9927 36.346 38.6142 36.3934L37.9767 36.473C37.4141 36.5434 36.8563 36.8216 36.8467 37.3885C36.8455 37.4637 36.8455 37.5452 36.8455 37.6343V37.8974C36.8455 38.687 37.635 39.2134 38.4246 39.2134C39.2141 39.2134 40.0037 38.4238 40.0037 37.6343C40.0037 37.6293 40.0037 37.6245 40.0037 37.6198C40.0037 37.2919 39.8734 36.9777 39.6416 36.7459Z" fill="#1F3547"/>
<path d="M36.3191 35.5298L34.6517 35.715C34.2199 35.763 33.8497 36.0448 33.6884 36.4481C33.3445 37.3077 34.0815 38.2095 34.9923 38.0439L35.7927 37.8984L41.0564 36.3193L49.7413 34.2139L40.0036 35.2666L36.3191 35.5298Z" fill="#1F3547"/>
<path d="M32.6499 51.8066C32.002 51.3531 31.1457 51.3308 30.4751 51.75L30.4253 51.7811C29.8406 52.1465 29.1023 52.1611 28.5037 51.819C27.96 51.5084 27.2971 51.49 26.7371 51.77L25.1755 52.5508C25.062 52.6075 24.9346 52.6302 24.8085 52.6162L24.4107 52.572C23.8809 52.5131 23.5976 53.1782 24.0071 53.5195C24.1363 53.6272 24.3084 53.6682 24.4723 53.6304L26.7572 53.1031C27.3266 52.9717 27.923 53.0249 28.4601 53.2551C29.1119 53.5345 29.8465 53.5514 30.5105 53.3024L30.5947 53.2708C31.233 53.0315 31.9341 53.0185 32.5808 53.234L34.5072 53.8762C34.6537 53.925 34.8146 53.9035 34.9431 53.8178C35.3551 53.5431 35.1607 52.9009 34.6655 52.9009H34.3965C34.2771 52.9009 34.1606 52.8641 34.0627 52.7957L32.6499 51.8066Z" fill="#D89F79"/>
<path d="M26.6982 55.3639C26.2814 55.3149 25.9145 55.5166 26.1694 55.85C26.3169 56.0431 26.7301 56.2477 26.9693 56.2047C28.2351 55.9767 31.1013 56.4177 31.8986 56.5491C32.0369 56.5719 32.0114 56.6256 32.1408 56.5717C32.7547 56.3161 32.3186 55.497 31.6567 55.5607C29.9343 55.7266 27.877 55.5027 26.6982 55.3639Z" fill="#D69D76"/>
<path d="M31.6294 48.0429C31.255 48.2926 30.815 48.4258 30.3649 48.4258H29.7922C29.2468 48.4258 28.7176 48.2401 28.2917 47.8994L27.7751 47.4861C27.6836 47.4129 27.5699 47.373 27.4527 47.373C26.946 47.373 26.7429 48.0271 27.1604 48.3142L29.3194 49.7985C29.7374 50.0859 30.2825 50.1104 30.7247 49.8617L33.5864 48.252C33.9185 48.0652 34.0103 47.6288 33.7817 47.324C33.5809 47.0562 33.2058 46.992 32.9273 47.1776L31.6294 48.0429Z" fill="#D89F79"/>
</svg>
