<svg width="46" height="64" viewBox="0 0 46 64" fill="none" xmlns="http://www.w3.org/2000/svg">
<path d="M22.8517 37.7399C35.4723 37.7399 45.7034 29.2916 45.7034 18.87C45.7034 8.44838 35.4723 0 22.8517 0C10.231 0 0 8.44838 0 18.87C0 29.2916 10.231 37.7399 22.8517 37.7399Z" fill="#1E1E1E"/>
<path d="M11.7725 26.6619C11.7725 26.4888 11.7725 26.1425 11.7725 25.9694C11.7725 25.45 11.7725 24.9307 11.7725 24.4113C11.7725 24.3275 11.7725 24.2437 11.7725 24.1598C11.7725 23.6558 11.5841 23.0264 11.08 23.0264C10.9069 23.0264 10.7338 23.0264 10.5607 23.0264C10.2144 23.0264 9.69506 23.1995 9.34883 23.5457C9.08836 23.8062 9.12181 24.1646 9.22806 24.5473C9.29966 24.8052 9.41148 25.0496 9.52583 25.2915C9.60929 25.4682 9.69275 25.6585 9.77622 25.882C9.84024 26.0534 9.87291 26.2385 9.95473 26.4022C10.0366 26.5658 10.0748 26.7495 10.1157 26.9278C10.1625 27.1321 10.1871 27.3364 10.2001 27.5408C10.2286 27.9911 10.258 28.4447 10.391 28.876C10.5329 29.3359 10.7261 29.7703 11.08 30.1243C11.2531 30.2974 11.4262 30.2974 11.5994 30.4705C12.1341 31.0052 12.691 30.321 12.333 29.6548C12.1635 29.3394 12.0154 29.0283 11.9644 28.7553C11.9412 28.6308 11.9325 28.5035 11.9098 28.3788C11.7725 27.6234 11.7725 27.1426 11.7725 26.6619Z" fill="#E2CDC3"/>
<path d="M30.1234 7.09849C25.9685 4.32859 19.5631 4.84794 15.5814 7.44473C8.31042 12.1189 10.0416 23.0254 12.4653 30.1233C13.6771 33.7588 14.1965 35.1437 17.3126 37.7405C23.3718 42.761 24.9298 41.5492 30.1234 37.0481C31.8546 35.6631 36.7019 28.5652 35.6632 20.0824C35.1438 16.2738 33.7589 9.52216 30.1234 7.09849Z" fill="#F4DED3"/>
<path d="M35.49 23.8916C35.4679 23.8916 35.4459 23.8923 35.4238 23.8937C34.7884 23.9329 34.4513 24.64 34.4513 25.2766C34.4513 26.4884 34.4513 27.8733 34.2781 29.0852C34.1862 29.4529 34.0943 29.8694 34.0024 30.2829C33.9102 30.6974 34.3455 31.0423 34.7254 30.8524C34.7731 30.8285 34.8171 30.7974 34.8535 30.7583C35.3296 30.246 35.4964 29.579 35.6631 28.912C35.7642 28.5077 35.8062 28.1035 35.8582 27.6992C35.9326 27.1202 36.1495 26.5756 36.4481 26.0741C36.545 25.9113 36.6359 25.7545 36.7018 25.6228C36.7215 25.5834 36.7389 25.5418 36.7541 25.4983C37.0321 24.7017 36.3337 23.8916 35.49 23.8916Z" fill="#E2CDC3"/>
<path d="M30.2962 20.4287C29.5475 20.4287 28.7327 20.5609 27.9744 20.7843C27.0843 21.0467 26.105 21.3306 25.4488 21.9868C25.1026 22.333 25.1026 22.5061 25.6219 22.6793C26.4875 22.8524 27.3531 22.1599 28.0456 21.6405C28.9112 21.1212 30.123 20.775 31.1618 20.9481C31.3017 20.9804 31.5402 20.5928 31.4008 20.5586C31.0705 20.4774 30.7028 20.4287 30.2962 20.4287Z" fill="#343435"/>
<path d="M21.1205 21.8137C20.0818 20.775 17.6581 20.4287 16.2732 20.4287C15.8603 20.4287 15.4876 20.4789 15.1534 20.5623C14.9697 20.6081 15.2238 20.994 15.4076 20.9481C16.2732 20.775 17.3119 20.9481 18.0044 21.1212C18.87 21.2943 19.3893 22.1599 20.2549 22.5061C21.1205 22.8524 21.6398 22.333 21.1205 21.8137C21.2936 21.8137 21.1205 21.8137 21.1205 21.8137Z" fill="#343435"/>
<path d="M24.2575 33.775C23.9046 33.8758 23.5305 33.8758 23.1776 33.775L22.9585 33.7124C22.6631 33.628 22.3495 33.6318 22.0563 33.7235C20.9667 34.0639 20.5981 35.4484 21.6059 35.9844C23.2235 36.8446 24.6819 36.4778 25.7248 35.9093C26.6369 35.4122 26.3902 34.2091 25.4354 33.7999C25.1081 33.6596 24.7425 33.6364 24.4 33.7343L24.2575 33.775Z" fill="#B82E32"/>
<path d="M26.3489 24.3892C26.0946 24.7491 26.0673 25.1209 26.4647 25.3112C26.9591 25.5479 27.6649 25.797 27.8725 25.797C28.296 25.797 28.7195 25.797 29.143 25.7178C29.6942 25.6147 30.1863 25.3806 30.6926 25.1394C31.5574 24.7274 31.6046 24.0587 30.701 23.7408C30.2701 23.5892 29.806 23.4554 29.4021 23.3528C28.9627 23.2412 28.5072 23.1812 28.0571 23.2358C27.1556 23.3452 26.8281 23.7111 26.3489 24.3892Z" fill="white"/>
<path d="M28.392 23.1992C27.6995 23.1992 27.1802 23.7186 27.1802 24.411C27.1802 25.1035 27.6995 25.6229 28.392 25.6229C28.6102 25.6229 28.8112 25.5713 28.9842 25.479C29.7429 25.0742 29.5626 23.8655 28.8601 23.3698C28.7107 23.2644 28.5514 23.1992 28.392 23.1992Z" fill="#8C8C93"/>
<path d="M28.7381 25.1036C28.9293 25.1036 29.0843 24.9486 29.0843 24.7574C29.0843 24.5661 28.9293 24.4111 28.7381 24.4111C28.5469 24.4111 28.3918 24.5661 28.3918 24.7574C28.3918 24.9486 28.5469 25.1036 28.7381 25.1036Z" fill="white"/>
<path d="M27.8722 22.8529C27.1797 23.026 26.3141 23.7185 25.7948 24.411C24.756 25.6228 25.7947 25.7959 26.8335 26.3153C27.5259 26.6615 28.3915 26.4884 29.084 26.4884C30.4135 26.3222 31.9025 25.5179 32.479 24.3818C32.5266 24.2881 32.5929 24.1994 32.6365 24.1039C32.7796 23.7908 32.5066 23.4639 32.1828 23.3471C30.8683 22.8731 29.2373 22.3978 27.8722 22.8529ZM30.9883 24.7572C30.9883 25.4497 28.9109 25.7959 28.3915 25.7959C27.9296 25.7959 27.4677 25.7959 27.0058 25.6741C26.8904 25.6437 26.7834 25.5892 26.6829 25.5246C26.6221 25.4856 26.5469 25.4379 26.4652 25.3875C26.1664 25.2031 26.0138 24.8872 26.2607 24.6376C26.2916 24.6065 26.3272 24.5663 26.3542 24.5317C26.8689 23.8743 27.548 23.5498 28.3915 23.7185C28.8952 23.8444 29.5821 23.9703 30.119 24.1629C30.4753 24.2906 30.9883 24.3787 30.9883 24.7572Z" fill="#343435"/>
<path d="M18.2485 23.203C18.0865 23.1964 17.9244 23.2134 17.7663 23.2488C17.4485 23.3199 17.0501 23.4215 16.6437 23.5435C15.6249 23.8491 15.7146 25.063 16.7137 25.4278C16.8361 25.4725 16.8562 25.4646 16.9823 25.4972C17.5849 25.6527 18.085 25.795 18.8697 25.795C20.2329 25.795 20.5203 24.0472 19.3036 23.4326C19.0336 23.2962 18.7077 23.2217 18.2485 23.203Z" fill="white"/>
<path d="M18.1774 23.1973C17.4849 23.1973 16.9656 23.7166 16.9656 24.4091C16.9656 25.1016 17.4849 25.6209 18.1774 25.6209C18.8699 25.6209 19.3892 25.1016 19.3892 24.4091C19.3892 23.8897 18.8699 23.1973 18.1774 23.1973Z" fill="#8C8C93"/>
<path d="M17.8313 24.2363C17.6582 24.2363 17.4851 24.4094 17.4851 24.5826C17.4851 24.7557 17.6582 24.9288 17.8313 24.9288C18.0045 24.9288 18.1776 24.7557 18.1776 24.5826C18.1776 24.4094 18.0045 24.2363 17.8313 24.2363Z" fill="white"/>
<path d="M18.6967 22.8515C17.3261 22.5469 15.8215 22.9122 14.4187 23.2402C14.0863 23.3179 13.9301 23.6195 14.007 23.9521C14.0267 24.0372 14.0373 24.1056 14.0717 24.1859C14.6347 25.4992 16.1412 26.3139 17.4849 26.3139C18.0062 26.3139 18.6257 26.412 19.1956 26.3127C19.5685 26.2478 19.9188 26.0886 20.2723 25.9533C21.0753 25.6459 21.6301 25.2351 20.7741 24.2364C20.2548 23.7171 19.3892 23.0246 18.6967 22.8515ZM19.5623 25.4483C19.5623 25.4483 19.5623 25.4483 19.5623 25.4483C19.0429 25.6214 18.5236 25.6214 18.0042 25.6214C17.4849 25.6214 15.4074 25.2752 15.4074 24.5827C15.4074 24.3207 15.6989 24.1744 15.9374 24.0659C16.2941 23.9037 16.6776 23.7548 17.0493 23.6579C17.5591 23.525 18.101 23.4336 18.6183 23.5334C19.111 23.6285 19.5297 23.9218 19.8743 24.3647C19.8973 24.3943 19.9271 24.4274 19.9512 24.4562C20.17 24.7178 20.1422 25.1471 19.8464 25.3169C19.6938 25.4044 19.5625 25.4482 19.5623 25.4483Z" fill="#343435"/>
<path d="M22.4706 29.9369C21.8258 29.8291 21.8766 30.7801 22.2904 31.2862C22.3077 31.3074 22.322 31.3238 22.3329 31.3347C22.4261 31.4279 22.971 31.4207 23.6163 31.1511C24.2315 30.894 23.1281 30.0469 22.4706 29.9369Z" fill="#E2CDC3"/>
<path d="M34.1046 9.17462C29.0986 2.33306 22.4842 2.72938 14.7264 5.86759C14.1423 6.10386 13.5872 6.41404 13.1064 6.8212C8.30442 10.8874 6.54576 17.608 5.88626 23.5435C4.84417 33.5736 8.50673 50.7587 10.384 58.6528C10.7033 59.9954 12.5179 60.1118 13.0305 58.8304C13.1138 58.622 13.1471 58.397 13.1277 58.1735L12.8278 54.7242C12.8166 54.5959 12.8087 54.4719 12.8039 54.3432C12.7544 53.0271 12.4648 45.1452 12.4648 41.0285C12.4648 37.6025 11.5424 18.4956 15.4925 12.6823C15.9122 12.0647 16.7053 11.9105 17.4115 12.1532C20.0766 13.0689 26.6665 15.4651 28.9138 17.4958C28.9464 17.5253 29.0312 17.5496 29.0123 17.51C28.9901 17.4638 29.7455 16.9627 29.7721 17.0065C29.834 17.1081 29.8934 17.2096 29.9498 17.3112C32.0221 21.1597 34.6006 28.8051 35.3047 30.941C35.4299 31.3209 35.5216 31.7032 35.5832 32.0984C36.0069 34.8168 37.7188 46.2515 37.567 52.6275C37.567 54.3392 37.9849 57.3048 38.3616 59.6301C38.526 60.6449 39.8868 60.7942 40.2858 59.8468C40.3197 59.7661 40.343 59.6841 40.3556 59.5975C40.4835 58.7227 41.2326 53.5683 41.5487 50.7231C42.0824 46.0532 42.2048 37.7841 42.1536 34.0792C42.1364 32.8374 41.9614 31.5697 41.7021 30.3551C40.7463 25.8795 37.9782 14.4316 34.1046 9.17462Z" fill="#343435"/>
<path d="M30.6014 3.72894C26.4439 1.65824 24.8415 6.49671 29.2737 7.88541C32.2763 8.82617 39.0681 10.2098 36.7855 8.04405C35.1165 6.46043 32.9864 4.91678 30.6014 3.72894Z" fill="#1E1E1E"/>
</svg>
