<svg width="61" height="63" viewBox="0 0 61 63" fill="none" xmlns="http://www.w3.org/2000/svg">
<path d="M42.7226 23.9912C42.5541 24.1036 42.325 24.0379 42.2416 23.8534L39.1304 16.9711C37.8765 14.1972 34.6743 12.8856 31.8347 13.9827L31.2667 14.2021C30.1732 14.6246 28.9548 14.5832 27.8925 14.0875C25.9688 13.1898 23.6778 13.8273 22.4945 15.5898L16.7558 24.1368C16.7263 24.1807 16.7168 24.235 16.7296 24.2863C16.7742 24.4645 16.5616 24.5933 16.4243 24.4712L15.7136 23.8394C15.5234 23.6704 15.2344 23.6789 15.0545 23.8588L14.2796 24.6337C13.8283 25.085 13.6792 25.7569 13.8973 26.3567L16.6645 33.9664C16.7997 34.3381 17.0826 34.6374 17.4461 34.7932C17.8261 34.956 18.1171 35.2752 18.2444 35.6685L19.0637 38.2009C19.5905 39.8293 20.6735 41.2203 22.1229 42.1304L25.344 44.153C26.4656 44.8572 27.7445 45.272 29.066 45.3601L29.5552 45.3927L30.0714 45.3583C31.3757 45.2714 32.6387 44.8662 33.7501 44.1782L36.5351 42.4541C38.1667 41.4441 39.3809 39.8813 39.9562 38.0506L40.7467 35.5353C40.8451 35.2223 41.0548 34.9563 41.3361 34.7875C41.5936 34.633 41.7918 34.3965 41.8989 34.1159L44.6886 26.8097C45.0081 25.9728 44.6973 25.0266 43.9438 24.5422L43.0821 23.9882C42.9723 23.9177 42.8312 23.9188 42.7226 23.9912Z" fill="#CF9167"/>
<path d="M20.5084 13.9617C20.0821 13.979 19.697 14.1337 19.3476 14.3785C17.1475 15.9196 9.85464 22.143 16.876 33.0486C17.2268 33.5162 18.2329 28.0031 18.8036 24.662C19.0749 23.0738 18.2878 22.8987 19.5675 21.9196C24.881 17.8543 31.0307 14.8973 24.382 14.1523C22.6809 13.9617 21.2824 13.9304 20.5084 13.9617Z" fill="#2C1D1C"/>
<path d="M21.6867 29.4301C21.5946 29.5009 21.5474 29.611 21.5474 29.7273C21.5474 29.8251 21.5814 29.9211 21.6476 29.9932C22.4674 30.8856 23.6384 31.1183 24.6118 31.0097C26.0889 30.845 25.8934 29.0489 24.4398 28.7391C23.1185 28.4576 22.0553 29.1468 21.6867 29.4301Z" fill="white"/>
<path d="M24.0499 28.7109C23.3826 28.7109 22.8821 29.2114 22.8821 29.7119C22.8821 30.2124 23.3826 30.7129 24.0499 30.7129C24.7172 30.7129 25.2177 30.2124 25.2177 29.7119C25.2177 29.0446 24.7172 28.7109 24.0499 28.7109Z" fill="#3E2723"/>
<path d="M33.2527 29.2125C32.6433 29.586 32.3294 30.3733 32.9675 30.6954C33.9693 31.2012 35.9912 31.2802 37.1706 29.9465C37.2086 29.9036 37.2289 29.8473 37.2289 29.79C37.2289 29.6547 37.1508 29.4699 37.0441 29.3867C36.5432 28.9961 35.0741 28.0961 33.2527 29.2125Z" fill="white"/>
<path d="M34.8931 28.7109C34.2258 28.7109 33.7253 29.2114 33.7253 29.7119C33.7253 30.2124 34.2258 30.7129 34.8931 30.7129C35.1498 30.7129 35.3817 30.6388 35.57 30.5193C36.1222 30.1686 36.071 29.2765 35.5304 28.9082C35.3374 28.7767 35.1153 28.7109 34.8931 28.7109Z" fill="#3E2723"/>
<path d="M28.7055 36.0529C28.607 36.0529 28.5109 36.0221 28.4308 35.9649L28.2557 35.8398C27.958 35.6272 27.5567 35.9004 27.6454 36.2554C27.6892 36.4305 27.8465 36.5534 28.0271 36.5534H31.4554C31.6087 36.5534 31.738 36.4392 31.757 36.2871L31.7739 36.1521C31.8071 35.8862 31.4704 35.744 31.303 35.9532C31.2526 36.0162 31.1763 36.0529 31.0956 36.0529H28.7055Z" fill="#BC7450"/>
<path d="M27.9609 39.0103C26.9849 38.9433 26.3883 40.0512 27.0134 40.8037C27.1455 40.9627 27.323 41.0933 27.5237 41.1425C28.0685 41.2761 28.8952 41.3899 29.7219 41.3899C30.6878 41.3899 31.5396 41.2758 32.1829 41.1419C32.428 41.0909 32.4519 41.1856 32.6113 40.9925C33.2429 40.2271 32.6749 38.9867 31.6845 39.0481C30.3962 39.1281 29.0725 39.0867 27.9609 39.0103Z" fill="white"/>
<path d="M39.5646 10.3595C33.3979 9.56887 16.4407 11.1762 14.2614 19.7268C14.0198 20.6746 14.2699 21.663 14.7073 22.5378L15.1336 23.4437C15.8419 24.9487 18.0615 24.6713 18.3775 23.0383C18.4852 22.2848 18.8589 21.5945 19.431 21.0925L24.0769 17.0154C25.7606 15.538 27.9866 14.8316 30.2115 15.0919C32.1737 15.3215 34.5567 15.6141 36.228 15.8648C36.3559 15.8807 36.4791 15.8967 36.5975 15.9127C37.8283 16.0789 38.501 17.0016 38.9153 18.1724C39.4733 19.7492 40.3254 21.9235 40.705 22.8832C40.8341 23.2095 40.9188 23.5488 40.9576 23.8976L41.1866 25.9589C41.2148 26.2125 41.3878 26.4265 41.6299 26.5072C41.966 26.6193 42.3303 26.4432 42.4514 26.1102L44.4719 20.5538C44.7518 19.7841 44.7747 18.9445 44.5372 18.1607C43.8564 15.9144 42.1325 11.9241 40.1801 10.6211C39.9656 10.478 39.7581 10.3837 39.5646 10.3595Z" fill="#2C1D1C"/>
<path d="M37.7361 38.8252C37.4007 39.7474 36.8985 40.6001 36.2546 41.3406L33.8922 44.0574C33.7253 44.2242 32.5576 44.7247 31.2229 44.2242C30.323 43.9242 28.8328 43.9252 27.9871 44.3548C27.5015 44.6014 26.9587 44.7247 26.385 44.7247C26.185 44.7247 25.9947 44.7055 25.8185 44.6718C24.974 44.51 24.4092 43.7448 23.781 43.1576C23.5743 42.9644 23.3651 42.7712 23.1558 42.578C22.0904 41.5946 21.3612 40.3114 21.0095 38.9048L20.8797 38.3853C20.4027 37.0626 18.4268 37.5418 18.6087 38.936L18.6744 39.4396C18.6984 39.624 18.764 39.8007 18.8662 39.9561L21.8043 44.4272C22.2966 45.1763 22.9112 45.8373 23.6225 46.3827L26.1958 48.3555C27.0793 49.0329 28.1486 49.4242 29.2607 49.4772C30.4269 49.5327 31.5803 49.2133 32.5517 48.5656L34.527 47.2488C35.2119 46.7922 35.8222 46.2326 36.3363 45.5899L39.3458 41.828C39.4889 41.6492 39.582 41.4356 39.6155 41.2091L39.9578 38.8986C40.1471 37.6211 38.3279 37.1681 37.896 38.3853L37.7361 38.8252Z" fill="#2C1D1C"/>
<path d="M32.3334 29.2912C32.2686 29.341 32.2502 29.4301 32.2868 29.5032C32.3391 29.6079 32.4786 29.637 32.5738 29.5689C32.9387 29.3081 33.8359 28.7826 35.1373 28.7879C36.4748 28.7934 36.8704 28.407 35.5336 28.3651C34.4922 28.3325 33.2557 28.5813 32.3334 29.2912Z" fill="#513A44"/>
<path d="M25.2074 28.5478C24.2865 28.228 23.8951 28.6002 24.8253 28.892C25.3972 29.0715 26.4308 29.2371 25.9343 28.9011C25.7332 28.7651 25.4845 28.644 25.2074 28.5478Z" fill="#513A44"/>
<path d="M31.5597 25.7926C31.1146 25.8371 30.8083 26.2605 30.9053 26.6972C30.9905 27.0804 31.3578 27.3321 31.7458 27.2733L36.3592 26.5743C36.4918 26.5542 36.6274 26.5706 36.7514 26.6216L36.7994 26.6414C37.4924 26.9268 38.1106 26.1022 37.6424 25.517C37.4887 25.3249 37.2482 25.2238 37.0035 25.2482L31.5597 25.7926Z" fill="#513A44"/>
<path d="M21.6347 25.682C21.1665 26.2673 21.7846 27.0918 22.4777 26.8064L22.5257 26.7867C22.6497 26.7356 22.7853 26.7193 22.9178 26.7393L27.5313 27.4383C27.9193 27.4971 28.2866 27.2454 28.3717 26.8623C28.4688 26.4256 28.1625 26.0022 27.7174 25.9577L22.2736 25.4133C22.0288 25.3888 21.7883 25.49 21.6347 25.682Z" fill="#513A44"/>
<path d="M17.3767 30.3795C17.7103 32.2146 19.045 33.5492 20.7132 34.0497C22.7152 34.717 24.8839 34.3834 26.5522 32.8819C27.2195 32.3814 27.5531 31.5473 27.8868 30.88C28.1665 30.4139 28.2898 29.8957 28.548 29.5292C28.9194 29.0019 29.5551 28.5221 29.5551 27.8771C29.5551 27.2322 29.0218 26.7673 28.3933 26.6223C28.1802 26.5731 27.9609 26.4962 27.72 26.3757C24.3834 25.0411 16.3757 24.7074 17.3767 30.3795ZM26.0517 31.7141C25.5241 32.3736 24.6838 32.8245 23.8603 33.0669C23.4376 33.1913 22.9942 33.2202 22.5536 33.2107C21.7227 33.1927 20.8328 33.1085 20.0459 32.7151C18.7113 32.0478 18.044 29.879 18.5445 28.5444C19.3786 26.3757 23.2156 26.3757 25.0507 27.043C25.1121 27.0634 25.1735 27.0864 25.2345 27.1112C26.0309 27.4354 26.7769 28.037 26.8546 28.8934C26.9422 29.8578 26.6084 31.0461 26.0517 31.7141Z" fill="#FFB24D"/>
<g opacity="0.87">
<path opacity="0.87" d="M25.0507 26.8766C23.2156 26.2093 19.5454 26.3761 18.5444 28.378C17.8771 29.7127 18.7113 31.8814 20.0459 32.5487C21.0468 33.0492 22.2146 33.0492 23.2156 33.0492C24.2165 33.0492 25.3843 32.5487 26.0516 31.5478C26.719 30.5468 27.2194 28.378 26.2185 27.5439C26.0516 27.3771 25.5512 27.0434 25.0507 26.8766Z" fill="#383A3A"/>
</g>
<path d="M31.2233 26.5434C30.8915 26.7093 30.6009 26.7515 30.3105 26.7725C29.7655 26.8118 29.3882 27.2604 29.3882 27.8069C29.3882 28.5428 30.1588 29.2138 30.5093 29.8608C30.6912 30.1966 30.8437 30.6222 31.0565 31.0478C31.3901 31.7151 31.7238 32.5492 32.3911 33.0497C33.8925 34.3843 36.2281 34.8848 38.23 34.2175C39.8983 33.5502 41.2329 32.2155 41.5666 30.5473C42.4007 24.7083 34.393 25.042 31.2233 26.5434ZM38.7305 32.716C37.7295 33.2165 36.5617 33.2165 35.5608 33.2165C34.5598 33.2165 33.392 32.716 32.7247 31.7151C32.0574 30.7141 31.5569 28.5454 32.5579 27.7112C32.8916 27.3776 33.2252 27.2107 33.8925 27.0439C35.7276 26.3766 39.3978 26.5434 40.3988 28.5454C40.8992 29.88 40.0651 32.0487 38.7305 32.716Z" fill="#FFB24D"/>
<g opacity="0.87">
<path opacity="0.87" d="M33.7253 26.8766C33.664 26.8971 33.6026 26.92 33.5416 26.9449C32.7452 27.2691 31.9725 27.8491 31.8534 28.7006C31.7153 29.6874 32.0966 30.8564 32.5576 31.5478C33.0851 32.2072 33.9255 32.6581 34.7489 32.9005C35.1716 33.0249 35.6151 33.0538 36.0556 33.0443C36.8866 33.0263 37.7765 32.9421 38.5633 32.5487C39.8979 31.8814 40.5652 29.7127 40.0648 28.378C39.2306 26.3761 35.5604 26.2093 33.7253 26.8766Z" fill="#383A3A"/>
</g>
<path d="M22.2147 10.8607C19.3786 11.6948 16.2089 12.6958 14.207 15.0313C11.3709 18.2011 10.7036 23.2059 10.3699 26.5424C10.2031 28.3775 10.2031 30.2126 10.2031 32.0477C10.0363 34.8838 10.0363 37.553 9.5358 40.0554C8.83922 43.9563 7.21189 47.1591 4.94529 49.0809C4.2179 49.6976 3.90548 50.7408 4.36862 51.5745C4.82826 52.4018 5.87699 52.7134 6.63831 52.1511C9.87996 49.7567 12.1628 45.6678 13.0392 40.5559C13.5396 37.7198 13.5396 34.8838 13.7065 32.0477C13.7065 30.2126 13.7065 28.5443 13.8733 26.7092C14.207 22.0381 15.2079 18.8684 16.8762 17.2001C18.2108 15.5318 20.88 14.8645 23.2156 14.0304C23.3386 13.9996 23.4672 13.9632 23.5994 13.9232C24.5557 13.634 25.0829 12.5448 24.7375 11.6074C24.4411 10.8029 23.6006 10.3976 22.7921 10.6827C22.5996 10.7505 22.4071 10.8125 22.2147 10.8607Z" fill="#2C1D1C"/>
<path d="M41.9348 13.4098C41.2018 12.802 40.1211 12.9931 39.5719 13.771C39.0171 14.557 39.2176 15.6397 39.9517 16.2615C44.4069 20.0353 46.9042 25.8434 48.5733 30.5474C50.4228 35.7876 53.4113 41.5972 57.0128 47.3187C57.5062 48.1026 58.5456 48.324 59.3232 47.8208C60.109 47.3124 60.3255 46.2599 59.8206 45.4719C56.2792 39.9439 53.5867 34.4496 51.7431 29.3796C49.8951 24.1438 47.1943 17.7709 41.9348 13.4098Z" fill="#2C1D1C"/>
<path d="M17.5759 18.246C17.558 17.2949 16.7818 16.5332 15.8305 16.5332C14.8491 16.5332 14.0606 17.3418 14.0853 18.3229L14.7075 43.0587C14.8574 48.7545 14.738 54.7197 11.6872 58.6552C11.1123 59.3968 11.0583 60.467 11.6986 61.153C12.3435 61.844 13.4393 61.8767 14.0303 61.139C17.9295 56.272 18.197 49.1749 18.0441 43.0587L17.5759 18.246Z" fill="#2C1D1C"/>
<path d="M34.2794 15.9121C33.5212 16.4334 33.3485 17.479 33.8816 18.2289C41.6713 29.1844 46.7378 42.0738 48.686 55.4492C48.8174 56.3508 49.6294 56.9994 50.536 56.9087C51.4732 56.815 52.152 55.9692 52.0211 55.0365C50.0508 40.9998 44.783 27.7253 36.4848 16.2816C35.9745 15.5778 34.9958 15.4196 34.2794 15.9121Z" fill="#2C1D1C"/>
<path d="M38.0682 16.1944C37.3295 16.8408 37.2599 17.9632 37.8895 18.7162C47.1533 29.7956 52.8063 44.2962 53.6635 58.7945C53.7214 59.7727 54.5464 60.5368 55.5252 60.4902C56.4814 60.4447 57.2271 59.641 57.174 58.6851C56.3225 43.3398 50.3333 28.1197 40.5457 16.3734C39.9209 15.6235 38.8028 15.5517 38.0682 16.1944Z" fill="#2C1D1C"/>
<path d="M13.8731 20.0352C12.9517 20.0352 12.2048 20.7821 12.2048 21.7034V34.2155C12.2048 38.7198 12.2048 43.2241 11.2038 47.5616C10.6171 50.4951 9.2567 54.3313 6.32886 57.2561C5.65494 57.9294 5.5241 59.0119 6.12478 59.7512C6.71836 60.4818 7.79865 60.5969 8.4686 59.9357C12.0902 56.3611 13.789 51.7016 14.5404 48.3957C15.5414 43.7246 15.5414 38.8866 15.5414 34.2155V21.7034C15.5414 20.7821 14.7944 20.0352 13.8731 20.0352Z" fill="#2C1D1C"/>
<path d="M32.1406 12.7785C31.4496 13.4696 31.453 14.5875 32.1116 15.3095C41.6474 25.7627 45.2706 41.2067 41.3991 54.7856C41.1438 55.6809 41.6263 56.6335 42.5141 56.9138C43.3782 57.1867 44.3056 56.72 44.5634 55.8513C48.9463 41.0812 45.0013 24.1263 34.6157 12.8053C33.9551 12.0852 32.8316 12.0875 32.1406 12.7785Z" fill="#2C1D1C"/>
<path d="M50.4209 19.792C50.3959 19.5114 50.3792 19.2295 50.3175 18.9546C49.8281 16.7757 49.1911 14.7356 48.4064 12.6955C48.2396 12.195 48.0727 11.6945 47.7391 11.194C47.699 11.1138 47.6589 11.0239 47.6164 10.929C47.3291 10.2865 46.8997 9.70908 46.5181 9.11768C38.5245 -3.26881 20.29 -2.10153 9.5357 7.02336C4.69772 11.194 -1.14122 18.8681 0.193392 25.5412C0.693873 27.8767 1.19435 32.0474 2.6958 35.0503C3.64527 36.9492 4.89494 38.548 6.87197 38.9922C7.08868 39.0409 7.31167 39.0541 7.53378 39.0541C12.3718 39.5546 12.3718 36.2181 13.2059 32.7147C14.0988 28.6969 15.788 24.8118 18.1553 21.533C18.7223 20.7478 19.4673 20.1064 20.3319 19.6698C26.0387 16.7877 32.5287 16.3756 38.7304 18.7013C39.0641 18.8681 39.7314 19.0349 40.3987 19.3686C40.7324 19.5354 40.8992 19.7022 41.2328 19.7022C41.5829 19.7022 41.8956 19.9498 42.2081 20.1077C43.6667 20.8447 45.3263 21.7224 46.8466 22.6652C48.2897 23.5601 50.8926 22.3009 50.6175 20.6253C50.59 20.4579 50.5295 20.2944 50.4822 20.1315C50.4493 20.0183 50.4311 19.9051 50.4209 19.792Z" fill="#FFB24D"/>
<path d="M50.5984 20.5097C50.5833 20.4166 50.5779 20.3242 50.5666 20.2306C50.5012 19.6845 50.1469 19.1768 49.6938 18.8652C43.6981 14.7427 34.9527 11.2984 24.05 13.8638C9.92797 17.3121 7.44352 31.7516 7.20993 38.7268C7.20381 38.9096 7.35115 39.0546 7.53409 39.0546C12.3721 39.5551 12.3721 36.2186 13.2062 32.7152C14.0991 28.6974 15.7883 24.8123 18.1556 21.5335C18.7226 20.7483 19.4676 20.1069 20.3322 19.6703C26.039 16.7882 32.529 16.3761 38.7307 18.7017C39.0644 18.8686 39.7317 19.0354 40.399 19.369C40.7327 19.5359 40.8995 19.7027 41.2332 19.7027C41.5836 19.7027 41.897 19.9467 42.2116 20.1013C46.0237 21.9753 51.2428 25.1432 51.2428 27.5436C51.2428 27.2099 51.2428 26.7094 51.2428 26.2089C51.0798 24.7423 50.9168 22.4797 50.5984 20.5097Z" fill="#609811"/>
<path d="M9.5357 7.02284C4.69772 11.1935 -1.14122 18.8676 0.193392 25.5406C0.765549 28.2107 3.43779 27.9494 4.07618 25.2943C4.95234 21.6504 6.3696 17.9458 8.70157 15.1974C10.8373 12.6345 14.3122 9.98237 18.6772 8.12265C26.1871 4.92305 29.1698 -1.09409 21.273 0.973951C16.9905 2.09546 12.8976 4.17033 9.5357 7.02284Z" fill="#CD222B"/>
</svg>
