<svg width="40" height="64" viewBox="0 0 40 64" fill="none" xmlns="http://www.w3.org/2000/svg">
<path d="M24.9486 15.6712C23.093 15.4651 21.2373 15.4651 19.3817 15.6712C17.7322 15.8774 16.2889 16.2898 14.6394 16.9084C10.3095 18.3516 5.97961 21.0321 3.50539 25.3619C1.64972 28.6609 2.26829 30.9289 2.68066 35.0526C3.09303 39.7949 4.12396 47.4237 6.392 51.5474C7.42743 53.3594 8.78785 55.4964 9.65724 56.8364C10.2201 57.7039 10.9557 58.444 11.8115 59.0246L14.2549 60.6827C15.5803 61.5821 17.1452 62.0629 18.7469 62.0629H21.2535C22.8552 62.0629 24.4201 61.5821 25.7455 60.6827L28.3286 58.9299C29.0936 58.4108 29.7754 57.7703 30.249 56.9764C31.5838 54.7386 32.7724 51.7762 33.8146 49.6918C35.8765 45.3619 36.495 39.1763 36.7012 34.2279C37.1136 28.8671 37.3197 24.9496 34.0208 21.0321C31.7527 17.9393 28.4538 16.2898 24.9486 15.6712Z" fill="#F2C4A5"/>
<path d="M17.6861 48.2574C17.8417 48.5063 18.1192 48.6523 18.4125 48.6396L22.3972 48.4663C22.5792 48.4584 22.7516 48.3826 22.8804 48.2538C23.3391 47.7951 23.0143 47.0107 22.3656 47.0107H18.3771C17.7371 47.0107 17.347 47.7147 17.6861 48.2574Z" fill="#E2AF8D"/>
<path d="M20 50.7217L16.0386 50.9103C15.8074 50.9213 15.5958 51.0435 15.4707 51.2381L15.0422 51.9046C14.7388 52.3766 15.2802 52.935 15.7614 52.6463C15.8368 52.601 15.9223 52.5753 16.0102 52.5713L20.4124 52.3712L24.8285 52.5719C24.9072 52.5755 24.9838 52.5986 25.0514 52.6391C25.4933 52.9042 25.982 52.3748 25.6825 51.9555L25.1386 51.1941C25.0186 51.0261 24.8278 50.9228 24.6215 50.9142L20 50.7217Z" fill="#E2AF8D"/>
<path d="M18.8192 55.4193C18.9124 55.5746 19.0801 55.6696 19.2612 55.6696H22.4672C22.6039 55.6696 22.735 55.6153 22.8317 55.5186C23.1564 55.1939 22.9264 54.6387 22.4672 54.6387H19.2612C18.8606 54.6387 18.6131 55.0758 18.8192 55.4193Z" fill="#E2AF8D"/>
<path d="M25.544 50.047C24.9942 49.4664 24.3101 49.2783 23.5105 49.2783H18.3834C17.1415 49.2783 15.9643 49.6599 15.185 50.6269C15.1474 50.6736 15.1097 50.7208 15.0718 50.7685C13.6759 52.5251 13.2801 54.8524 13.7899 57.0374L14.3946 59.6292C14.4197 59.7368 14.4744 59.8351 14.5525 59.9132C14.9394 60.3001 15.5991 59.9999 15.5614 59.454L15.3033 55.7117C15.2738 55.283 15.3833 54.8563 15.6157 54.4948L16.0785 53.7749C16.7407 52.7448 17.788 52.0229 18.9864 51.7706L20.0787 51.5406C20.7089 51.408 21.3572 51.3837 21.9956 51.4688L22.1825 51.4937C23.4333 51.6605 24.5799 52.2789 25.4064 53.2325L26.0939 54.0258C26.5488 54.5507 26.7773 55.2343 26.7295 55.9272L26.4811 59.5289C26.4429 60.0828 27.0374 60.4557 27.5195 60.1803C27.7172 60.0673 27.847 59.8647 27.867 59.6379L28.0989 57.0099C28.2895 54.8492 27.0355 51.622 25.544 50.047Z" fill="#493223"/>
<path d="M24.5586 36.2031C24.0019 36.2482 23.6134 36.7748 23.7346 37.32C23.8382 37.7862 24.2812 38.0957 24.7546 38.0326L29.8742 37.35C30.0246 37.3299 30.1776 37.3473 30.3197 37.4006L30.4143 37.436C31.2604 37.7533 31.989 36.7578 31.4307 36.0473C31.2456 35.8116 30.9546 35.6845 30.6559 35.7087L24.5586 36.2031Z" fill="#493223"/>
<path d="M9.59247 35.2609C9.05255 35.9972 9.85891 36.9629 10.6954 36.5969C10.8462 36.5309 11.0142 36.5067 11.1774 36.5285L16.3757 37.2216C16.7959 37.2776 17.1911 37.0091 17.2939 36.5979C17.4165 36.1076 17.0778 35.622 16.5753 35.5677L10.4089 34.901C10.092 34.8668 9.78093 35.0039 9.59247 35.2609Z" fill="#493223"/>
<path d="M1.30072 35.9067C0.529642 36.378 0.161369 37.301 0.396299 38.1736L2.55007 46.1732C2.75285 46.9264 3.3983 47.4771 4.17401 47.5588C5.46227 47.6944 6.50072 46.5209 6.20944 45.2587L4.34659 37.1864C4.03407 35.8321 2.48665 35.182 1.30072 35.9067Z" fill="#F2C4A5"/>
<path d="M33.1831 45.3901C32.8979 46.7348 34.0898 47.9284 35.4348 47.6453C36.0918 47.5069 36.6272 47.0324 36.8433 46.3967L39.3589 38.998C39.7293 37.9085 39.2621 36.7105 38.2519 36.1595C36.8616 35.4011 35.1333 36.1963 34.8047 37.7455L33.1831 45.3901Z" fill="#F2C4A5"/>
<path d="M24.6353 59.9584C24.2931 60.1203 23.9423 60.3023 23.5641 60.2858C23.1474 60.2677 22.7611 60.0807 22.4744 59.794L21.4435 58.5569C20.825 57.9383 20.0002 57.9383 19.3817 58.5569L17.9383 60.2064C17.526 60.6188 16.9074 60.8249 16.2889 60.4126L12.1325 58.2354C12.0175 58.1752 11.8763 58.0646 11.7664 57.9955C11.5399 57.8532 11.4631 57.6153 11.3081 57.3973C9.91271 55.4341 5.55432 49.2527 5.36108 48.8662L9.89022 58.1214C10.0313 58.4097 10.2035 58.6763 10.3569 58.9583C10.4404 59.1116 10.5879 59.2254 10.7314 59.3248L15.2834 62.4762C15.678 62.7494 16.0721 63.076 16.5518 63.0912C16.6079 63.093 16.6589 63.093 16.7013 63.093L23.2992 62.8868C23.7465 62.8868 24.114 62.5674 24.5014 62.3439L28.9639 59.7693C29.1728 59.6488 29.3649 59.5015 29.5353 59.331C29.6214 59.2449 29.7075 59.1588 29.7936 59.0728C29.862 59.0044 29.9172 58.9239 29.9565 58.8355L30.2534 58.1675C30.6191 57.3447 29.3074 56.8319 29.0772 57.7025C29.0483 57.8121 29.0448 57.7857 28.9566 57.8571C28.406 58.3033 26.1774 59.2289 24.6353 59.9584Z" fill="#493223"/>
<path d="M17.3196 36.6992C16.9072 36.2868 16.0824 36.0806 15.4639 35.8744C14.8453 35.6682 14.2268 35.462 13.6082 35.462C13.4713 35.462 13.3351 35.4441 13.2011 35.4158C12.4446 35.2559 11.7023 35.2559 11.134 35.2559C8.45362 35.2559 5.77319 36.2868 5.15464 38.5548C4.94845 39.3796 4.94845 40.2043 5.15464 41.029C5.36082 41.6476 5.56701 42.4723 5.7732 43.0909C5.97938 43.7094 6.39174 44.1218 6.59793 44.5342C7.0103 45.1527 7.42269 45.5651 8.04125 45.9775C8.08846 46.0011 8.13568 46.0274 8.18259 46.0558C8.84296 46.4556 9.40641 47.038 10.158 47.214C14.8557 48.3144 21.1234 41.8223 18.2374 37.8896C17.95 37.4979 17.6631 37.0427 17.3196 36.6992Z" fill="#1E2228"/>
<path d="M35.4658 38.0376C35.4617 37.9629 35.4525 37.901 35.4264 37.8308C35.2933 37.4731 35.0912 37.1194 34.8199 36.8097C34.4729 36.4134 34.047 36.0797 33.5798 35.8362C33.4865 35.7876 33.3925 35.7427 33.3003 35.7002C32.9564 35.5419 32.605 35.3973 32.2393 35.2996C31.718 35.1603 31.1168 35.0508 30.5156 35.0508C29.4847 35.0508 28.4537 35.0508 27.4228 35.257C25.5671 35.6693 23.7115 36.2879 22.8867 37.1126C21.2373 38.7621 21.4434 41.0301 22.6805 42.8858C22.9364 43.2696 23.1923 43.574 23.4481 43.8976C23.7749 44.3108 24.095 44.7341 24.4877 45.0852C24.7101 45.2839 24.9324 45.455 25.1548 45.5662C25.7733 45.9786 26.3919 46.391 27.0104 46.5971C28.6599 47.2157 30.3094 47.4219 31.7527 46.5971C34.278 45.0431 36.2542 42.0251 35.9573 38.9223C35.9253 38.5885 35.4842 38.3724 35.4658 38.0376Z" fill="#1E2228"/>
<path d="M24.7426 40.4133C24.9368 38.7628 23.3222 37.2899 21.6607 37.3283C20.5351 37.3543 19.3874 37.3187 18.4434 37.2695C17.43 37.2168 16.5381 37.853 16.8157 38.829C17.089 39.7895 18.361 40.8631 19.3509 40.7309C21.0744 40.5008 22.9801 40.6247 24.0101 40.8911C24.2493 40.953 24.7426 40.6604 24.7426 40.4133Z" fill="#1E2228"/>
<path d="M12.5244 44.1188C12.5534 44.1246 12.5777 44.116 12.5777 44.0863C12.5777 44.0386 12.519 44.0654 12.4765 44.0435C12.3919 43.9999 12.4078 44.0952 12.5244 44.1188Z" fill="#1E2228"/>
<path d="M1.60358 34.6855C1.44548 34.8436 1.7656 35.5975 1.96861 35.6912L5.55896 37.3483C5.9741 37.5399 6.4566 37.2774 6.52126 36.8247C6.56608 36.511 6.38917 36.2076 6.09403 36.0921L1.9798 34.4822C1.9043 34.4527 1.6609 34.6282 1.60358 34.6855Z" fill="#1E2228"/>
<path d="M33.9766 36.4409C33.6692 36.6907 33.6455 37.1516 33.9255 37.4316C34.1996 37.7057 34.6487 37.6897 34.9026 37.3968L36.9139 35.0761C37.0316 34.9402 37.0441 34.7424 36.9444 34.5929C36.8137 34.3969 36.5428 34.3559 36.3601 34.5044L33.9766 36.4409Z" fill="#1E2228"/>
<path d="M22.2464 1.67792C21.7057 1.25083 20.9072 1.82262 21.1546 2.46568C21.4384 3.20353 20.0258 4.03193 19.4528 3.48727C18.9891 3.04648 18.5093 2.61724 18.0106 2.191C17.3813 1.65313 16.46 2.23516 16.6521 3.04041C16.7826 3.58747 16.9131 4.13098 17.0437 4.67482C17.3596 5.9912 15.88 6.98319 14.775 6.20125C13.7765 5.49475 12.7692 4.78825 11.7448 4.08175C10.9813 3.55514 9.97033 4.38338 10.3093 5.24677C10.6734 6.17411 9.06685 7.59623 8.15475 7.19549C7.5478 6.92882 6.93245 6.66335 6.34498 6.3939C5.25146 5.89234 3.88429 6.80057 4.28677 7.93431C4.92623 9.73564 5.69702 11.5067 5.56708 13.1958C5.36089 15.4639 3.71142 17.3195 3.09287 19.5876C1.64957 25.1546 1.85575 31.3401 3.50523 36.9071C3.68484 37.4459 3.86445 37.9848 4.04406 38.3873C4.09081 38.4921 4.17576 38.5562 4.29048 38.557C4.61008 38.5593 5.37316 37.8515 5.37135 37.5319C5.34635 33.128 7.37851 18.443 12.9898 18.969C14.433 19.1752 15.6702 19.9999 17.1135 20.6185C19.3815 21.6494 22.0619 21.6494 24.3299 20.6185C25.9794 19.9999 27.6289 18.7628 29.4846 18.969C35.6701 19.3814 34.433 28.4535 35.0515 32.1649C35.2577 33.1958 36.2886 37.7319 35.4639 38.5566C36.3982 37.6223 36.9757 36.3958 37.1979 35.0933C37.7248 32.0054 38.5567 28.8537 38.5567 25.9793C38.5567 21.0309 36.2887 15.4639 33.6082 11.7525C30.6171 7.70566 26.2745 4.85999 22.2464 1.67792Z" fill="#493223"/>
<path d="M12.3655 35.329C11.5895 35.1755 10.8199 35.5701 10.2605 36.1295L5.57553 40.8145C5.31767 41.0723 5.22285 41.4368 5.32575 41.7867C5.5277 42.4733 6.36879 42.7016 6.87486 42.1956L13.2726 35.7978C13.3205 35.75 13.2866 35.6682 13.219 35.6682C13.204 35.6682 13.1893 35.6637 13.1767 35.6555C12.9121 35.4827 12.6471 35.3847 12.3655 35.329Z" fill="#2D333A"/>
<path d="M7.54409 43.815C7.11505 44.2341 7.02805 44.9173 7.4527 45.3408C7.87343 45.7604 8.54994 45.6785 8.97011 45.2584L16.6263 37.6021C17.1231 37.1054 17.0927 36.3518 16.4283 36.1235C15.9778 35.9686 15.456 36.0872 15.1151 36.4201L7.54409 43.815Z" fill="#2D333A"/>
<path d="M23.0728 42.5078C22.7259 42.8458 22.6743 43.3893 22.9755 43.7686C23.3703 44.2656 24.1302 44.3216 24.5791 43.8728L31.4755 36.9764C32.0765 36.3754 31.8572 35.3564 31.0108 35.2791C30.714 35.252 30.3961 35.3723 30.1826 35.5803L23.0728 42.5078Z" fill="#2D333A"/>
<path d="M25.9479 44.7742C25.431 45.2912 25.5317 46.1971 26.1804 46.5342C26.5697 46.7366 27.0004 46.6084 27.3107 46.2981L34.8261 38.7827C35.2171 38.3916 35.3888 37.8248 35.084 37.3633C34.7004 36.7826 33.8728 36.8494 33.3807 37.3415L25.9479 44.7742Z" fill="#2D333A"/>
</svg>
