<svg width="304" height="248" viewBox="0 0 304 248" fill="none" xmlns="http://www.w3.org/2000/svg">
<path opacity="0.8" d="M123.6 243.2C189.653 243.2 243.2 189.653 243.2 123.6C243.2 57.5467 189.653 4 123.6 4C57.5467 4 4 57.5467 4 123.6C4 189.653 57.5467 243.2 123.6 243.2Z" stroke="url(#paint0_linear)" stroke-width="8" stroke-miterlimit="10"/>
<path d="M123.1 21.2C66.5002 21.2 20.7002 67.1 20.7002 123.7C20.7002 180.3 66.6002 226.1 123.2 226C179.8 226 225.6 180.1 225.6 123.5C225.5 67 179.6 21.2 123.1 21.2Z" fill="white"/>
<path d="M80.4998 123.6C80.4998 147.2 99.5998 166.3 123.2 166.3V192.9C84.9998 192.9 53.8998 161.9 53.7998 123.7C53.7998 85.4999 84.8998 54.3999 123.1 54.3999V80.9999C99.5998 80.9999 80.4998 100.1 80.4998 123.6Z" fill="url(#paint1_linear)"/>
<path d="M32.7002 123.7C32.7002 173.6 73.4002 214.2 123.3 214.1V240.7C58.7002 240.7 6.20024 188.3 6.10024 123.7C6.00024 59.1 58.5002 6.6 123.1 6.5V33.1C73.2002 33.2 32.6002 73.8 32.7002 123.7Z" fill="url(#paint2_linear)"/>
<path d="M123.2 101.6V145.7C111 145.7 101.1 135.9 101.1 123.7C101.1 111.5 111 101.6 123.2 101.6Z" fill="#FF3000"/>
<path d="M145.2 123.6C145.2 135.8 135.3 145.6 123.2 145.6V101.5C135.3 101.6 145.2 111.4 145.2 123.6Z" fill="#DD2703"/>
<path d="M192.5 123.6C192.5 161.8 161.5 192.9 123.3 192.9V166.3C146.9 166.3 165.9 147.2 165.9 123.6C165.9 100.1 146.8 80.9999 123.2 80.9999V54.3999C161.3 54.2999 192.4 85.3999 192.5 123.6Z" fill="#DD2703"/>
<path d="M240.3 123.5C240.4 188.1 187.9 240.6 123.3 240.7V214.1C173.2 214.1 213.7 173.4 213.7 123.5C213.7 73.6 173 33.1 123.2 33.1V6.5C187.6 6.5 240.2 59 240.3 123.5Z" fill="url(#paint3_linear)"/>
<path d="M288.7 37.6001L275.9 66.4001L303.6 81.3001L243.6 77.4001L288.7 37.6001Z" fill="#BDBDBD"/>
<path d="M157.2 110.2C152.2 111.9 147.6 112 147.1 110.3C146.5 108.7 150.2 105.9 155.2 104.2L280.5 61.4999C285.5 59.7999 290.1 59.6999 290.6 61.3999C291.2 62.9999 287.5 65.7999 282.5 67.4999L157.2 110.2Z" fill="#757575"/>
<defs>
<linearGradient id="paint0_linear" x1="3.56324e-08" y1="123.607" x2="247.214" y2="123.607" gradientUnits="userSpaceOnUse">
<stop/>
<stop offset="0.00429839" stop-color="#090909"/>
<stop offset="0.0277675" stop-color="#373737"/>
<stop offset="0.0542172" stop-color="#626262"/>
<stop offset="0.0826444" stop-color="#888888"/>
<stop offset="0.1136" stop-color="#A8A8A8"/>
<stop offset="0.1478" stop-color="#C4C4C4"/>
<stop offset="0.1864" stop-color="#DADADA"/>
<stop offset="0.2315" stop-color="#EBEBEB"/>
<stop offset="0.2872" stop-color="#F6F6F6"/>
<stop offset="0.3654" stop-color="#FDFDFD"/>
<stop offset="0.5824" stop-color="white"/>
<stop offset="0.6688" stop-color="#BBBBBB"/>
<stop offset="0.8455" stop-color="#363636"/>
<stop offset="0.9231"/>
</linearGradient>
<linearGradient id="paint1_linear" x1="53.8611" y1="123.61" x2="123.223" y2="123.61" gradientUnits="userSpaceOnUse">
<stop stop-color="#BF1400"/>
<stop offset="0.3132" stop-color="#ED3000"/>
<stop offset="1" stop-color="#990000"/>
</linearGradient>
<linearGradient id="paint2_linear" x1="6.07004" y1="123.607" x2="123.257" y2="123.607" gradientUnits="userSpaceOnUse">
<stop stop-color="#BF1400"/>
<stop offset="0.3132" stop-color="#ED3000"/>
<stop offset="1" stop-color="#990000"/>
</linearGradient>
<linearGradient id="paint3_linear" x1="123.083" y1="123.607" x2="240.262" y2="123.607" gradientUnits="userSpaceOnUse">
<stop stop-color="#BF1400"/>
<stop offset="0.3132" stop-color="#ED3000"/>
<stop offset="1" stop-color="#AB0000"/>
</linearGradient>
</defs>
</svg>
