<svg width="32" height="32" viewBox="0 0 32 32" fill="none" xmlns="http://www.w3.org/2000/svg">
<path d="M15.9992 27.1771C22.1721 27.1771 27.1762 22.1731 27.1762 16.0002C27.1762 9.82733 22.1721 4.82324 15.9992 4.82324C9.82636 4.82324 4.82227 9.82733 4.82227 16.0002C4.82227 22.1731 9.82636 27.1771 15.9992 27.1771Z" fill="url(#paint0_linear)"/>
<path d="M1.86914 16.0003C1.86914 12.2125 3.34698 8.66072 6.01703 5.99067C8.68708 3.32062 12.2389 1.84277 16.0266 1.84277C19.8144 1.84277 23.3662 3.32062 26.0362 5.99067C28.7063 8.66072 30.1841 12.2125 30.1841 16.0003C30.1841 19.788 28.7063 23.3398 26.0362 26.0098C23.3662 28.6799 19.8019 30.1577 16.0266 30.1577C12.2513 30.1577 8.68708 28.6799 6.01703 26.0098C3.34698 23.3398 1.86914 19.788 1.86914 16.0003ZM29.8736 16.0003C29.8736 8.36266 23.6642 2.15324 16.0266 2.15324C8.38903 2.15324 2.17961 8.36266 2.17961 16.0003C2.17961 23.6378 8.38903 29.8473 16.0266 29.8473C23.6642 29.8473 29.8736 23.6378 29.8736 16.0003ZM4.55161 16.0003C4.55161 12.9328 5.74382 10.0516 7.91712 7.87833C10.078 5.71745 12.9592 4.52524 16.0266 4.52524C19.0941 4.52524 21.9752 5.71745 24.1485 7.89075C26.3218 10.064 27.514 12.9452 27.514 16.0127C27.514 19.0801 26.3218 21.9613 24.1485 24.1346C21.9752 26.3079 19.0941 27.5001 16.0266 27.5001C12.9592 27.5001 10.078 26.3079 7.9047 24.1346C5.74382 21.9489 4.55161 19.0677 4.55161 16.0003ZM27.2036 16.0003C27.2036 9.84051 22.1864 4.8233 16.0266 4.8233C9.86687 4.8233 4.84966 9.84051 4.84966 16.0003C4.84966 22.16 9.86687 27.1772 16.0266 27.1772C22.1864 27.1772 27.2036 22.16 27.2036 16.0003Z" fill="url(#paint1_linear)"/>
<path d="M3.02685 23.9775C3.26502 24.4118 3.54784 24.8317 3.83066 25.2226C4.3963 25.8741 5.02149 26.4532 5.69133 26.9888C6.18254 27.3363 6.67376 27.6838 7.17986 28.0168C7.20963 27.206 7.25429 26.3952 7.28406 25.57C7.41803 22.3849 7.53711 19.1564 7.65619 15.9713C7.81993 11.961 7.92413 7.87825 7.99855 3.72314C7.68596 3.89688 7.37337 4.07061 7.07566 4.28778C6.74819 4.56285 6.45048 4.85241 6.16766 5.15644C5.49782 6.12645 5.08103 7.1978 4.48561 8.21124C3.81577 9.3405 2.93754 10.3395 2.32724 11.4977C2.23793 11.6714 2.13373 11.8162 2.01465 11.961V22.9785C2.43144 23.2102 2.78869 23.5431 3.02685 23.9775Z" fill="url(#paint2_radial)"/>
<path d="M3.02783 23.9781C3.26599 24.4124 3.54881 24.8322 3.83164 25.2231C4.09957 25.5272 4.38239 25.8312 4.6801 26.1063C5.40948 20.0546 5.78162 13.3369 6.13886 6.70615C6.16863 6.17047 6.1984 5.6348 6.22818 5.09912C6.21329 5.1136 6.18352 5.14255 6.16863 5.15703C5.49879 6.12704 5.082 7.19839 4.48659 8.21183C3.81675 9.34109 2.93852 10.3401 2.32822 11.4983C2.23891 11.672 2.13471 11.8168 2.01562 11.9616V22.9791C2.43241 23.2107 2.78966 23.5437 3.02783 23.9781Z" fill="url(#paint3_radial)"/>
<path d="M3.02783 23.9772C3.26599 24.4115 3.54881 24.8314 3.83164 25.2222C4.39728 25.8737 5.02246 26.4529 5.6923 26.9885C7.49343 28.2915 9.44341 29.4642 11.4976 30.3763H11.7358L11.8548 2.86865C11.4232 2.86865 10.9915 2.89761 10.5598 2.94104C9.8602 3.05686 9.17547 3.2306 8.52052 3.46224C8.01442 3.69388 7.53808 3.96896 7.07664 4.27299C6.74916 4.54807 6.45146 4.83762 6.16863 5.14165C5.49879 6.11166 5.082 7.18301 4.48659 8.19645C3.81675 9.34019 2.93852 10.3392 2.32822 11.4974C2.23891 11.6711 2.13471 11.8159 2.01562 11.9607V22.9782C2.43241 23.2098 2.78966 23.5428 3.02783 23.9772Z" fill="url(#paint4_radial)"/>
<path d="M2.26953 23.1375C2.58212 23.3546 2.83517 23.6442 3.02868 23.9772C3.26685 24.4115 3.54967 24.8314 3.83249 25.2222C4.39813 25.8737 5.02332 26.4529 5.69316 26.9885C7.44963 28.2626 9.35495 29.4063 11.3645 30.3039C11.6622 22.9782 11.7813 15.3774 11.7813 7.60287C11.7813 6.02479 11.7813 4.44672 11.7813 2.86865C11.3794 2.86865 10.9626 2.89761 10.5607 2.92656C9.86105 3.04238 9.17633 3.21612 8.52137 3.44776C8.01527 3.6794 7.53894 3.95448 7.07749 4.25851C6.75002 4.53359 6.45231 4.82314 6.16949 5.12718C5.49965 6.09718 5.08286 7.16853 4.48745 8.18197C3.81761 9.34019 2.93937 10.3392 2.32907 11.4974C2.32907 11.4974 2.32907 11.5118 2.31419 11.5118C2.35884 15.4498 2.32907 19.3153 2.26953 23.1375Z" fill="url(#paint5_radial)"/>
<path d="M3.95117 25.3669C4.48704 25.9605 5.06757 26.4962 5.69276 27.0029C7.04732 27.9874 8.50608 28.8995 10.0095 29.6668C10.203 24.3969 10.3816 19.0836 10.5156 13.7268C10.5751 11.2077 10.6347 8.67409 10.6645 6.11154C10.6793 5.05466 10.6942 3.99779 10.6942 2.94092C10.6496 2.94092 10.6049 2.9554 10.5603 2.9554C9.86065 3.07122 9.17592 3.24495 8.52097 3.47659C8.01487 3.70824 7.53854 3.98331 7.07709 4.28735C6.74961 4.56242 6.45191 4.85198 6.16909 5.15601C5.49925 6.12602 5.08246 7.19737 4.48704 8.21081C4.32331 8.48588 4.14468 8.76096 3.95117 9.03604C3.96606 9.86127 3.96606 10.6865 3.98094 11.5117C4.01071 16.188 3.99583 20.7919 3.95117 25.3669Z" fill="url(#paint6_radial)"/>
<path d="M5.4689 20.9806C5.4689 22.9206 5.4689 24.8606 5.45401 26.8007C5.52844 26.873 5.61775 26.931 5.69218 27.0033C6.76392 27.7851 7.88032 28.509 9.04138 29.1605C9.16046 26.0478 9.26466 22.8917 9.33909 19.7066C9.39863 17.0137 9.45817 14.263 9.47306 11.5122C9.48794 8.7759 9.48794 5.9817 9.48794 3.1875C9.16046 3.27437 8.8181 3.37571 8.50551 3.49153C7.99941 3.72318 7.52308 3.99825 7.06163 4.30228C6.73415 4.57736 6.43645 4.86691 6.15363 5.17095C5.81126 5.66319 5.54333 6.18439 5.27539 6.70559C5.33493 8.5153 5.37959 10.2961 5.40936 12.0334C5.4689 15.0303 5.4689 18.0272 5.4689 20.9806Z" fill="url(#paint7_radial)"/>
<path d="M7.07615 4.28756C6.88264 4.44681 6.70401 4.60607 6.52539 4.7798C6.52539 6.28548 6.54028 7.80564 6.55516 9.34028C6.57005 10.9328 6.58493 12.5543 6.6147 14.2337C6.67424 17.2596 7.225 20.1551 7.4334 18.0848C7.56736 16.7963 7.68645 15.4644 7.77576 14.089C7.87996 12.7136 7.96927 11.2948 8.01392 9.83252C8.08835 7.80564 8.14789 5.73533 8.19255 3.62158C7.80553 3.80979 7.4334 4.04144 7.07615 4.28756Z" fill="url(#paint8_radial)"/>
<path d="M5.88589 13.4228C5.85612 17.9832 5.78169 22.5003 5.69238 26.9884C7.3 28.1466 9.0267 29.2035 10.8278 30.0577C10.9916 22.8767 11.1106 15.6234 11.1553 8.23974C11.1553 6.79197 11.1702 5.3442 11.1553 3.88195C11.1553 3.54896 11.1553 3.23045 11.1553 2.89746C10.9618 2.91194 10.7534 2.92642 10.5599 2.94089C9.86028 3.05672 9.17555 3.23045 8.5206 3.46209C8.0145 3.69374 7.53816 3.96881 7.07672 4.27284C6.74924 4.54792 6.45153 4.83748 6.16871 5.14151C6.04963 5.30076 5.94543 5.46002 5.85612 5.63375C5.88589 8.28317 5.91566 10.8892 5.88589 13.4228Z" fill="url(#paint9_radial)"/>
<path d="M7.0021 27.8859C8.04408 28.5808 9.13071 29.2033 10.2471 29.768C10.4257 20.9221 10.5299 11.9604 10.5746 2.92627C9.87497 3.04209 9.19025 3.21582 8.53529 3.44747C8.02919 3.67911 7.55286 3.95419 7.09141 4.25822C7.0021 4.34509 6.89791 4.41747 6.80859 4.50434C6.97233 12.4671 7.06164 20.314 7.0021 27.8859Z" fill="url(#paint10_radial)"/>
<path d="M7.59807 28.277C8.2828 28.7113 8.99729 29.1167 9.71179 29.5076C9.72668 28.5955 9.75645 27.6834 9.77133 26.7713C9.93507 19.0692 9.94996 11.0775 9.93507 3.07129C9.44385 3.17263 8.98241 3.30293 8.52096 3.46219C8.14883 3.63592 7.79158 3.82413 7.44922 4.0413C7.5683 12.2357 7.64273 20.3432 7.59807 28.277Z" fill="url(#paint11_radial)"/>
<path d="M8.06001 28.5668C8.43215 28.784 8.80428 29.0011 9.17642 29.2183C9.2955 20.6475 9.32527 11.9319 9.34015 3.21631C9.05733 3.2887 8.7894 3.37556 8.52146 3.47691C8.32795 3.56377 8.14933 3.66512 7.9707 3.75198C8.0749 12.1635 8.13444 20.5027 8.06001 28.5668Z" fill="url(#paint12_radial)"/>
<path d="M8.54998 22.5584C8.5351 24.6432 8.49044 26.728 8.44579 28.7838C8.54998 28.8417 8.65418 28.8997 8.75838 28.9576C8.95189 20.5605 9.07097 12.0331 8.99654 3.28857C8.83281 3.33201 8.66907 3.38992 8.52021 3.44783C8.49044 3.46231 8.44579 3.47678 8.41602 3.49126C8.52021 9.99176 8.60953 16.4054 8.54998 22.5584Z" fill="url(#paint13_radial)"/>
<path d="M3.02685 23.9771C3.26502 24.4114 3.54784 24.8313 3.83066 25.2222C4.3963 25.8737 5.02149 26.4528 5.69133 26.9885C6.61422 27.6689 7.59665 28.3059 8.59397 28.8851C8.62374 26.5252 8.65351 24.1653 8.68328 21.791C8.69816 20.3142 8.71305 18.823 8.72794 17.3318C8.74282 15.6959 8.75771 14.0743 8.77259 12.4673C8.78748 9.44148 8.81725 6.40116 8.83213 3.36084C8.71305 3.40427 8.60885 3.43323 8.51954 3.46218C8.01344 3.69383 7.53711 3.9689 7.07566 4.27294C6.74819 4.54801 6.45048 4.83757 6.16766 5.1416C5.49782 6.11161 5.08103 7.18296 4.48561 8.1964C3.81577 9.34014 2.93754 10.3391 2.32724 11.4973C2.23793 11.671 2.13373 11.8158 2.01465 11.9606V22.9781C2.43144 23.2098 2.78869 23.5428 3.02685 23.9771Z" fill="url(#paint14_radial)"/>
<path d="M3.02709 23.9771C3.26525 24.4114 3.54807 24.8313 3.8309 25.2222C4.39654 25.8737 5.02172 26.4528 5.69156 26.9885C6.43583 27.5386 7.22475 28.0598 8.01368 28.5376C8.04345 21.9792 8.05833 15.4063 8.0881 8.86237C8.0881 7.50146 8.10299 6.18399 8.10299 4.83756C8.10299 4.44666 8.10299 4.04129 8.10299 3.65039C7.74574 3.8386 7.38849 4.04129 7.04613 4.27293C6.71865 4.54801 6.42095 4.83756 6.13812 5.1416C5.46828 6.1116 5.05149 7.18295 4.45608 8.19639C3.81601 9.34013 2.93778 10.3391 2.32748 11.4973C2.26794 11.6131 2.19351 11.7145 2.11908 11.8158C2.08931 14.1323 2.04466 16.4342 2 18.7362V22.9637C2.43167 23.2098 2.78892 23.5428 3.02709 23.9771Z" fill="url(#paint15_radial)"/>
<path d="M3.0267 23.9775C3.26486 24.4118 3.54768 24.8317 3.8305 25.2226C4.39615 25.8741 5.02133 26.4532 5.69117 26.9889C6.22704 27.3797 6.7778 27.7562 7.34344 28.1181C7.35833 20.0975 7.40299 12.1058 7.40299 4.05615C7.2839 4.12854 7.17971 4.20093 7.06062 4.27332C6.73315 4.54839 6.43544 4.83795 6.15262 5.14198C5.48278 6.11199 5.06599 7.18334 4.47057 8.19678C4.0389 8.92066 3.51791 9.60112 3.04158 10.3105C2.9225 14.6973 2.80342 19.113 2.69922 23.5432C2.83319 23.6735 2.93738 23.8182 3.0267 23.9775Z" fill="url(#paint16_radial)"/>
<path d="M5.70637 26.9888C5.95942 27.1771 6.21247 27.3508 6.46552 27.5245C6.52506 19.8948 6.62926 12.294 6.67392 4.63525C6.49529 4.79451 6.33155 4.96824 6.16782 5.15645C5.49798 6.12646 5.08119 7.19781 4.48577 8.21125C4.38158 8.3705 4.27738 8.54424 4.17318 8.70349C4.06898 14.234 3.96479 19.75 3.8457 25.2515C4.41135 25.8885 5.02164 26.4677 5.70637 26.9888Z" fill="url(#paint17_radial)"/>
<path d="M5.51276 26.8297C5.61696 19.808 5.72116 12.7863 5.81047 5.72119C5.51276 6.24239 5.24483 6.77806 4.97689 7.31374C4.88758 13.5971 4.7685 19.8225 4.64941 26.0479C4.90246 26.323 5.20017 26.5836 5.51276 26.8297Z" fill="url(#paint18_radial)"/>
<path d="M10.2021 7.83451C10.2318 15.2181 10.1127 22.4281 10.0234 29.6669C10.5147 29.913 11.0059 30.1447 11.4971 30.3763H11.7353L11.8543 2.86865C11.4227 2.86865 10.991 2.89761 10.5593 2.94104C10.4253 2.95552 10.3063 2.98447 10.1723 3.01343C10.1723 3.2306 10.1723 3.46224 10.1723 3.6794C10.1872 5.05479 10.1872 6.44465 10.2021 7.83451Z" fill="url(#paint19_radial)"/>
<path d="M11.5114 30.376H11.7496C11.7794 21.2116 11.824 12.0472 11.8538 2.88281C11.4668 2.88281 11.0798 2.89729 10.6927 2.94072C10.6779 3.38953 10.663 3.83834 10.663 4.28715C10.6481 5.15581 10.6183 6.05343 10.6183 6.98001C10.5885 14.5374 10.529 22.2395 10.4248 29.8693C10.7672 30.043 11.1393 30.2167 11.5114 30.376Z" fill="url(#paint20_radial)"/>
<path d="M2.3125 23.1664C2.59532 23.3835 2.84837 23.6441 3.027 23.9771C3.26516 24.4115 3.54798 24.8313 3.8308 25.2222C4.39645 25.8737 5.02163 26.4528 5.69147 26.9885C6.73345 27.7413 7.82007 28.4507 8.95136 29.0878C9.12998 25.1788 9.33838 21.2988 9.48723 17.4332C9.54677 16.1157 9.56166 14.7838 9.59143 13.5677C9.6212 12.1054 9.63609 10.6576 9.65097 9.20987C9.66586 7.61732 9.68074 6.01029 9.68074 4.40326C9.68074 3.96893 9.68074 3.54908 9.68074 3.11475C9.27884 3.21609 8.89182 3.33191 8.5048 3.46221C7.9987 3.69385 7.52237 3.96893 7.06092 4.27296C6.73345 4.54804 6.43574 4.83759 6.15292 5.14163C5.48308 6.11163 5.06629 7.18298 4.47087 8.19642C3.81592 9.34016 2.93768 10.3391 2.32739 11.4973C2.37204 12.9451 2.38693 14.3639 2.38693 15.7248C2.38693 17.8241 2.32739 19.9523 2.3125 22.0661C2.3125 22.428 2.3125 22.8044 2.3125 23.1664Z" fill="url(#paint21_radial)"/>
<path d="M5.70725 26.9885C6.21336 27.3649 6.73434 27.7124 7.27021 28.0598C7.50838 19.8944 7.80609 11.8014 8.04425 3.69385C7.71678 3.86758 7.3893 4.05579 7.07671 4.27296C6.74923 4.54803 6.45152 4.83759 6.1687 5.14162C5.49886 6.11163 5.08207 7.18298 4.48666 8.19642C4.45689 8.25433 4.41223 8.31224 4.38246 8.37015C4.32292 14.1033 4.23361 19.822 4.15918 25.5552C4.62063 26.0909 5.14161 26.5542 5.70725 26.9885Z" fill="url(#paint22_radial)"/>
<path d="M5.70713 26.9889C6.03461 27.2205 6.36208 27.4522 6.70445 27.6838C6.89796 19.7935 7.16589 11.9465 7.34452 4.09961C7.2552 4.15752 7.16589 4.21543 7.07658 4.27334C6.7491 4.54842 6.4514 4.83797 6.16857 5.14201C5.76667 5.72111 5.45408 6.34366 5.14149 6.9662C5.05217 13.3653 4.94798 19.8079 4.90332 26.294C5.15637 26.5401 5.42431 26.7717 5.70713 26.9889Z" fill="url(#paint23_radial)"/>
<path d="M5.70692 26.9891C5.87065 27.1049 6.03439 27.2207 6.19813 27.3365C6.37676 21.6323 6.60004 15.9715 6.74889 10.3107C6.80843 8.39968 6.8382 6.43071 6.86797 4.44727C6.61492 4.66443 6.37676 4.89608 6.16836 5.1422C6.1237 5.21458 6.06416 5.28697 6.01951 5.35936C6.01951 5.51862 6.01951 5.66339 6.00462 5.82265C5.91531 11.107 5.73669 16.3045 5.58783 21.4586C5.54318 23.2104 5.49852 25.0056 5.46875 26.8009C5.54318 26.8732 5.6176 26.9312 5.70692 26.9891Z" fill="url(#paint24_radial)"/>
<path d="M8.54978 22.5583C8.5349 24.5852 8.62421 26.7714 8.71352 28.943C9.62152 29.4642 10.5593 29.942 11.512 30.3618H11.7501L11.8543 2.86865C11.4227 2.86865 10.991 2.89761 10.5593 2.94104C9.85969 3.05686 9.17497 3.2306 8.52001 3.46224C8.34139 3.5491 8.16276 3.63597 7.99902 3.72284C8.3265 10.2378 8.60932 16.6659 8.54978 22.5583Z" fill="url(#paint25_radial)"/>
<path d="M11.4383 30.3466C11.4532 29.8977 11.4532 29.4489 11.4681 29.0001C11.6467 20.5162 11.6318 11.6848 11.617 2.88232C11.2597 2.8968 10.9173 2.91128 10.5601 2.94024C9.90514 3.05606 9.25018 3.21531 8.625 3.43248C9.05667 12.3363 9.38415 21.0808 9.42881 29.3476C10.0838 29.7095 10.7536 30.0425 11.4383 30.3466Z" fill="url(#paint26_radial)"/>
<path d="M9.8742 29.5941C10.2166 29.7678 10.5589 29.9415 10.9162 30.1153C11.0204 21.1391 11.0501 12.0181 11.065 2.91162C10.9013 2.9261 10.7227 2.94058 10.5589 2.95505C10.291 2.99849 10.0082 3.0564 9.74023 3.11431C9.8742 12.076 9.94863 20.9798 9.8742 29.5941Z" fill="url(#paint27_radial)"/>
<path d="M11.5128 30.3765H18.8959C18.8513 28.1324 18.7917 25.8739 18.7173 23.5864C18.6131 20.5751 18.5238 17.5492 18.4196 14.5089C18.3452 12.2649 18.2558 10.0787 18.1665 7.92156C17.0948 5.95259 16.0082 3.98362 14.9364 2.01465H13.954C13.4181 2.53585 12.6887 2.86883 11.87 2.86883C11.6765 2.86883 11.4979 2.86883 11.3044 2.88331C11.2746 12.0043 11.23 21.1252 11.2002 30.2317C11.3193 30.2896 11.4086 30.3331 11.5128 30.3765Z" fill="url(#paint28_radial)"/>
<path d="M11.5126 30.3745H17.2881C17.2434 29.2598 17.1839 28.145 17.1392 27.0302C16.7522 19.2846 16.3801 11.4377 15.4572 2.96822C15.2637 2.62076 15.0999 2.31673 14.9362 2.0127H13.9537C13.4179 2.53389 12.6885 2.86688 11.8698 2.86688C11.7209 2.86688 11.587 2.86688 11.4381 2.88136C11.3935 3.27226 11.3488 3.69211 11.3042 4.1554L11.2148 30.2442C11.319 30.2877 11.4084 30.3311 11.5126 30.3745Z" fill="url(#paint29_radial)"/>
<path d="M20.0272 30.0575C20.9203 29.5508 21.873 29.1888 22.8256 28.7835L22.8703 16.5643C20.2356 11.7142 17.586 6.8642 14.9364 2.01416H13.954C13.4181 2.53536 12.6887 2.86835 11.87 2.86835C11.6765 2.86835 11.4979 2.86835 11.3044 2.88282C11.2746 12.0038 11.23 21.1247 11.2002 30.2312C11.2895 30.2747 11.3937 30.3181 11.4979 30.3615H19.5806C19.7146 30.2457 19.8635 30.1444 20.0272 30.0575Z" fill="url(#paint30_radial)"/>
<path d="M20.0277 30.057C20.8613 29.5792 21.7693 29.2318 22.6475 28.8554C22.5582 24.4397 22.4094 19.9371 22.1861 15.3042C19.7747 10.874 17.3484 6.44385 14.9369 2.01367H13.9545C13.7908 2.17293 13.6121 2.3177 13.4186 2.43353C13.4484 6.55967 13.4335 10.6134 13.3442 14.5514C13.2847 17.1139 13.1805 19.6041 13.0465 22.0508C12.8828 24.9898 12.5851 27.6971 12.2725 30.3755H19.5663C19.7151 30.2452 19.864 30.1439 20.0277 30.057Z" fill="url(#paint31_radial)"/>
<path d="M20.0273 30.0577C20.4739 29.7971 20.9502 29.5799 21.4265 29.3772C21.3075 23.977 21.1288 18.5189 20.9353 13.0174C18.9853 9.4414 17.0502 5.87988 15.1003 2.31836C15.13 7.25526 15.13 12.1632 15.0258 16.8974C14.9812 19.1849 14.9068 21.4434 14.8026 23.6585C14.6984 25.917 14.5942 28.19 14.4453 30.3762H19.5808C19.7147 30.2459 19.8636 30.1445 20.0273 30.0577Z" fill="url(#paint32_radial)"/>
<path d="M20.0273 30.0581C20.1762 29.9712 20.325 29.8988 20.4739 29.8264C20.459 28.3062 20.4292 26.7716 20.3995 25.2514C20.3101 20.6765 20.1762 16.0002 19.9678 11.266C18.6132 8.79028 17.9434 7.55967 16.6037 5.08398C16.6037 7.8058 16.5888 10.5131 16.5739 13.1915C16.5442 15.6672 16.5293 18.1863 16.4548 20.5317C16.3358 23.8471 16.1571 27.1336 15.9785 30.3766H19.5808C19.7147 30.2463 19.8636 30.1449 20.0273 30.0581Z" fill="url(#paint33_radial)"/>
<path d="M19.0442 30.3763C19.0442 30.1591 19.0293 29.9564 19.0293 29.7393C18.9846 28.3639 18.9102 26.9306 18.8209 25.5118C18.7316 24.0785 18.6274 22.6452 18.5083 21.1829C18.3148 18.8375 17.7491 19.6917 17.6598 22.0661C17.6152 23.3835 17.5854 24.701 17.5705 26.004C17.5407 27.3215 17.5259 28.639 17.511 29.942C17.511 30.0867 17.511 30.2315 17.4961 30.3763H19.0442Z" fill="url(#paint34_radial)"/>
<path d="M19.5806 30.3766C19.7146 30.2608 19.8783 30.1449 20.0421 30.0581C20.697 29.6961 21.3818 29.3921 22.0665 29.1025C22.0218 24.3249 21.9325 19.5038 21.8432 14.6538C20.1463 11.57 18.4791 8.50075 16.7971 5.41699C16.8715 10.5566 16.9311 15.7106 16.9311 20.7055C16.9311 24.0209 16.8417 27.2349 16.7227 30.3766H19.5806Z" fill="url(#paint35_radial)"/>
<path d="M19.5812 30.3763C19.7151 30.2605 19.8789 30.1446 20.0426 30.0578C20.5041 29.7972 20.9804 29.5655 21.4716 29.3628C21.4418 24.1653 21.3674 18.9099 21.2781 13.6256C20.0128 11.3091 19.3877 10.1509 18.1224 7.83447C18.1968 15.6235 18.048 23.1085 17.7949 30.3763H19.5812Z" fill="url(#paint36_radial)"/>
<path d="M19.58 30.3764C19.714 30.2606 19.8777 30.1448 20.0415 30.0579C20.3392 29.8986 20.6369 29.7394 20.9346 29.6091C20.9346 26.6267 20.9197 23.6008 20.8751 20.546C20.8304 17.9256 20.8006 15.2906 20.756 12.6702C19.9522 11.179 19.5354 10.4406 18.7316 8.96387C18.7762 16.2896 18.6571 23.3982 18.4785 30.3909H19.58V30.3764Z" fill="url(#paint37_radial)"/>
<path d="M19.5801 30.376C19.714 30.2602 19.8778 30.1444 20.0415 30.0575C20.1308 29.9996 20.235 29.9562 20.3243 29.8982C20.3392 23.89 20.3243 17.8528 20.2499 11.7432C19.8033 10.9324 19.5801 10.5271 19.1484 9.71631C19.1633 10.6429 19.1782 11.5839 19.193 12.4816C19.2377 18.5477 19.1633 24.4981 19.0293 30.376H19.5801Z" fill="url(#paint38_radial)"/>
<path d="M19.5212 30.3757H19.5659C19.6998 30.2599 19.8487 30.1585 19.9975 30.0717C20.0124 23.8173 19.9082 17.3747 19.7743 10.9032C19.6552 10.686 19.5956 10.5702 19.4766 10.353C19.551 13.7987 19.6105 17.2589 19.6254 20.5888C19.6403 23.8897 19.5956 27.1472 19.5212 30.3757Z" fill="url(#paint39_radial)"/>
<path d="M12.4512 30.3755H19.5812C19.6408 30.3176 19.7152 30.2742 19.7896 30.2163C19.7896 30.0136 19.7896 29.8109 19.7896 29.6082C19.7896 28.2328 19.7896 26.843 19.7896 25.4531C19.7896 24.1791 19.7896 22.905 19.7748 21.6165C19.7599 17.9971 19.7301 14.3632 19.7003 10.7293C18.1076 7.81924 16.5298 4.92369 14.937 2.01367H13.9546C13.5676 2.40457 13.0615 2.67965 12.5107 2.79547C12.5703 10.7003 12.6298 18.6051 12.5107 26.2059C12.4958 27.5813 12.4661 28.9712 12.4512 30.3755Z" fill="url(#paint40_radial)"/>
<path d="M14.9373 2.01367H13.9549C13.7167 2.25979 13.419 2.448 13.1064 2.60726C13.2255 11.5255 13.3 20.4004 13.1213 28.8843C13.1213 29.391 13.1362 29.8833 13.1362 30.3755H19.0755C19.1052 23.5131 19.135 16.6506 19.1499 9.78821C17.7656 7.19669 16.3514 4.60518 14.9373 2.01367Z" fill="url(#paint41_radial)"/>
<path d="M14.9362 2.01367H13.9538C13.924 2.04263 13.8794 2.08606 13.8496 2.11502C13.9538 9.10775 14.1324 16.2308 14.2813 23.2235C14.3111 24.3962 14.3111 25.54 14.3408 26.6113C14.3706 27.8853 14.4004 29.1594 14.4153 30.3755H18.3896C18.4492 23.1367 18.4492 15.8254 18.5087 8.58656C17.3179 6.38594 16.1271 4.19981 14.9362 2.01367Z" fill="url(#paint42_radial)"/>
<path d="M17.6464 30.3768C17.6613 22.6023 17.5869 14.6975 17.6017 6.90846C16.5449 4.96844 16.0239 3.99844 14.9521 2.04395C15.1159 11.5413 15.2201 20.9808 15.3094 30.3624H17.6464V30.3768Z" fill="url(#paint43_radial)"/>
<path d="M16.0089 30.3763H16.8127C16.7978 22.0516 16.7085 13.5243 16.649 5.12719C16.2917 4.4757 16.1131 4.14271 15.7559 3.49121C15.8601 12.4819 16.0089 21.5884 16.0089 30.3763Z" fill="url(#paint44_radial)"/>
<path d="M22.8258 28.7833L22.8705 16.5642C22.1709 15.2756 21.8285 14.6386 21.1289 13.3501C21.1438 18.6924 21.2033 24.1215 21.2033 29.4638C21.7392 29.2322 22.29 29.015 22.8258 28.7833Z" fill="url(#paint45_radial)"/>
<path d="M22.8272 28.7832C22.8421 24.715 22.857 20.6467 22.8719 16.564C22.3062 15.5361 22.0383 15.0294 21.4727 14.0015C21.5322 19.1121 21.562 24.2517 21.562 29.3044C21.9936 29.1307 22.4104 28.9569 22.8272 28.7832Z" fill="url(#paint46_radial)"/>
<path d="M20.0285 30.057C20.2071 29.9557 20.4006 29.8543 20.5792 29.7675C20.5644 29.058 20.5495 28.3052 20.5197 27.5379C20.3262 22.1811 20.0434 16.5203 19.8945 11.1346C18.2571 8.07983 16.59 5.05399 14.9377 2.01367H13.9553C13.8064 2.15845 13.6427 2.28875 13.4641 2.40457C13.4641 2.69412 13.4641 2.98368 13.4641 3.27323C13.4641 5.1119 13.5236 7.10983 13.4938 8.86163C13.4045 16.0571 12.4519 22.6444 12.3477 29.8543C12.3477 30.0281 12.3477 30.1873 12.3477 30.361H19.5819C19.7159 30.2452 19.8648 30.1439 20.0285 30.057Z" fill="url(#paint47_radial)"/>
<path d="M15.3981 28.089C15.3981 28.8419 15.3833 29.6092 15.3684 30.362H18.8813C18.6878 23.0074 18.4645 15.5079 18.3157 8.18217C17.11 5.96708 16.4997 4.8523 15.2939 2.63721C15.3237 11.1356 15.4428 19.8078 15.3981 28.089Z" fill="url(#paint48_radial)"/>
<path d="M18.2717 30.3762C18.1228 22.7319 17.8996 14.856 17.7805 7.21181C17.0958 5.95225 16.7534 5.31523 16.0687 4.05566C16.0538 12.7278 16.1729 21.7619 16.2026 30.3762H18.2717Z" fill="url(#paint49_radial)"/>
<path d="M17.0059 27.4087C17.0208 28.3788 17.0208 29.3777 17.0357 30.3622H17.8395C17.8246 28.8276 17.8097 27.2785 17.765 25.7293C17.6162 19.3302 17.3929 12.6994 17.2441 6.24232C16.9761 5.75008 16.8422 5.50396 16.5742 5.01172C16.5891 7.67562 16.6189 10.383 16.6933 13.1048C16.8124 17.8824 16.9464 22.718 17.0059 27.4087Z" fill="url(#paint50_radial)"/>
<path d="M20.0279 30.058C20.9211 29.5513 21.8737 29.1894 22.8264 28.784L22.871 16.5648C21.71 14.4366 21.1295 13.3797 19.9684 11.2515C19.9386 14.509 19.6112 17.2742 19.6112 20.5751C19.626 24.0208 19.4772 27.2493 19.2539 30.3621H19.5516C19.7154 30.2462 19.8642 30.1449 20.0279 30.058Z" fill="url(#paint51_radial)"/>
<path d="M20.043 30.0435C20.8617 29.5802 21.7399 29.2327 22.6181 28.8708C22.6032 27.09 22.5884 25.3093 22.5735 23.4996C22.5288 20.937 22.4991 18.36 22.4544 15.7829C21.6952 14.3931 21.3231 13.7126 20.564 12.3228C20.6086 18.5192 20.3853 24.3827 20.043 30.0435Z" fill="url(#paint52_radial)"/>
<path d="M20.9062 29.6092C21.2784 29.4355 21.6654 29.2762 22.0524 29.1025C22.0524 24.4117 22.0375 19.6775 21.978 14.9288C21.5612 14.176 21.3528 13.7995 20.9509 13.0322C20.9658 14.0167 20.9807 15.0157 20.9956 15.9712C21.0253 20.5896 20.9807 25.1211 20.9062 29.6092Z" fill="url(#paint53_radial)"/>
<path d="M20.1156 2.62271C19.4458 2.60823 18.8206 2.39107 18.3294 2.01465H14.9355C16.7367 5.33005 18.5527 8.64544 20.3538 11.9608C20.3836 9.86157 20.3836 7.7623 20.3985 5.79333C20.4134 4.72198 20.4134 3.67959 20.4134 2.63719C20.324 2.63719 20.2198 2.63719 20.1156 2.62271Z" fill="url(#paint54_radial)"/>
<path d="M18.3294 2.01465H14.9355C16.3943 4.67855 17.8382 7.34245 19.297 10.0208C19.3565 8.52962 19.3565 7.12528 19.3714 5.77886C19.3714 4.7075 19.3714 3.62168 19.3714 2.53585C18.9844 2.42002 18.6271 2.24629 18.3294 2.01465Z" fill="url(#paint55_radial)"/>
<path d="M14.9355 2.01465C15.9626 3.89675 16.9897 5.77885 18.0168 7.66096C18.0466 6.12632 18.0764 4.60616 18.0764 3.07152C18.0764 2.72406 18.0764 2.36211 18.0764 2.01465H14.9355V2.01465Z" fill="url(#paint56_radial)"/>
<path d="M14.9355 2.01465C15.0249 2.18838 15.1291 2.36211 15.2333 2.55032C15.2333 2.40555 15.2481 2.23181 15.2481 2.01465H14.9355Z" fill="url(#paint57_radial)"/>
<path d="M22.1261 3.15692C22.0666 3.12797 22.0071 3.09901 21.9475 3.07006C21.4563 2.88185 20.9502 2.73707 20.4292 2.63573C20.325 2.63573 20.2208 2.62125 20.1315 2.62125C19.4617 2.60677 18.8365 2.3896 18.3453 2.01318H14.9365C17.2586 6.26963 19.5807 10.5261 21.9029 14.797C21.9029 14.3916 21.9029 13.9718 21.9029 13.5664C21.9029 11.3658 21.9029 9.10727 21.9475 7.03695C21.9922 5.71948 22.0368 4.43096 22.1261 3.15692Z" fill="url(#paint58_radial)"/>
<path d="M20.4292 2.63573C20.325 2.63573 20.2208 2.62125 20.1315 2.62125C19.4617 2.60677 18.8365 2.3896 18.3453 2.01318H14.9365C16.9163 5.64709 18.9109 9.281 20.8907 12.9294C20.9204 11.9015 20.9502 10.8735 20.98 9.87458C21.0395 7.48576 21.1586 5.15485 21.2926 2.86737C20.9949 2.76602 20.712 2.69364 20.4292 2.63573Z" fill="url(#paint59_radial)"/>
<path d="M18.3314 2.01367H15.9795C15.9944 2.21636 16.0093 2.43353 16.0241 2.63621C16.0539 3.17189 16.1135 3.70756 16.1432 4.22876C17.3192 6.38594 17.9146 7.45729 19.0905 9.61447C19.1054 9.48417 19.1203 9.35387 19.1352 9.22357C19.4031 7.06639 19.6562 4.8513 19.8795 2.60726C19.2989 2.56383 18.763 2.34666 18.3314 2.01367Z" fill="url(#paint60_radial)"/>
<path d="M20.4281 2.63621C20.3239 2.63621 20.2197 2.62174 20.1304 2.62174C19.4606 2.60726 18.8354 2.39009 18.3442 2.01367H16.1709C16.1709 2.76651 16.1858 3.53383 16.1858 4.28667C17.9423 7.5152 19.6987 10.7437 21.4552 13.9723C21.5147 10.2804 21.6189 6.61759 21.7082 2.99816C21.2915 2.85338 20.8598 2.72308 20.4281 2.63621Z" fill="url(#paint61_radial)"/>
<path d="M20.4292 2.63621C20.325 2.63621 20.2208 2.62174 20.1315 2.62174C19.4617 2.60726 18.8365 2.39009 18.3452 2.01367H16.4102C16.4102 2.91129 16.425 3.82339 16.425 4.721C18.0773 7.76133 19.7445 10.7872 21.3967 13.8275C21.4414 10.1791 21.5009 6.5452 21.5605 2.92577C21.1735 2.80995 20.8013 2.7086 20.4292 2.63621Z" fill="url(#paint62_radial)"/>
<path d="M20.4297 2.63621C20.3255 2.63621 20.2213 2.62174 20.132 2.62174C19.4621 2.60726 18.837 2.39009 18.3457 2.01367H16.9316C16.9316 3.2298 16.9465 4.46041 16.9465 5.67653C18.3904 8.31148 19.8194 10.9464 21.2633 13.5814C21.3079 10.0633 21.3079 6.42938 21.3079 2.85338C21.0102 2.76651 20.7125 2.69412 20.4297 2.63621Z" fill="url(#paint63_radial)"/>
<path d="M20.4295 2.63621C20.3253 2.63621 20.2211 2.62174 20.1318 2.62174C19.4619 2.60726 18.8368 2.39009 18.3455 2.01367H17.4971C17.4971 3.57727 17.4971 5.14086 17.4971 6.70445C18.7177 8.93402 19.328 10.0488 20.5486 12.2929C20.5783 9.8606 20.5932 7.39938 20.6081 4.96713C20.6081 4.18533 20.623 3.43249 20.623 2.69412C20.5486 2.66517 20.489 2.65069 20.4295 2.63621Z" fill="url(#paint64_radial)"/>
<path d="M18.613 2.20264C18.5534 4.25847 18.5386 6.45909 18.5088 8.55835C18.9851 9.42702 19.2233 9.86135 19.6996 10.73C19.7592 8.03716 19.8038 5.32982 19.8336 2.60801C19.387 2.56458 18.9851 2.4198 18.613 2.20264Z" fill="url(#paint65_radial)"/>
<path d="M18.3304 2.01465H14.9365C16.1274 4.18631 17.3182 6.37244 18.509 8.5441C18.5537 6.41587 18.643 4.33108 18.7174 2.26077C18.5834 2.18838 18.4495 2.10151 18.3304 2.01465Z" fill="url(#paint66_radial)"/>
<path d="M14.9365 2.01465C15.919 3.82436 16.9163 5.63408 17.8987 7.44379C17.9731 5.64856 18.0476 3.83884 18.122 2.01465H14.9365Z" fill="url(#paint67_radial)"/>
<path d="M14.9365 2.01465C15.9041 3.78093 16.5144 4.89571 17.5861 6.87916C17.6308 5.27213 17.6754 3.65063 17.7052 2.01465H14.9365Z" fill="url(#paint68_radial)"/>
<path d="M15.1907 2.01448C15.1907 2.15925 15.1758 2.30403 15.1758 2.44881C15.9052 3.78076 16.2624 4.43226 16.9918 5.76421C17.0067 4.51912 17.0067 3.25956 17.0216 2H15.1907V2.01448Z" fill="url(#paint69_radial)"/>
<path d="M15.695 2.01367C15.6802 2.46248 15.6653 2.89681 15.6504 3.34562C15.7844 3.60622 15.8588 3.72204 15.9928 3.98264C16.0076 3.33114 16.0374 2.66517 16.0523 2.01367H15.695Z" fill="url(#paint70_radial)"/>
<path d="M21.933 3.07119C21.7544 3.01328 21.5906 2.94089 21.412 2.89746C21.3822 4.1715 21.3525 5.44554 21.3227 6.71958C21.2631 8.96362 21.2185 11.1932 21.1738 13.4372C21.8586 14.6968 22.2009 15.3193 22.8856 16.5644L22.9303 3.54896C22.6028 3.3897 22.2753 3.23045 21.933 3.07119Z" fill="url(#paint71_radial)"/>
<path d="M22.1858 3.20166C21.9923 6.879 21.8285 10.6143 21.6797 14.3929C22.156 15.2616 22.3942 15.7104 22.8705 16.5791C22.8854 12.2358 22.9003 7.90692 22.9152 3.5636C22.677 3.4333 22.4388 3.303 22.1858 3.20166Z" fill="url(#paint72_radial)"/>
<path d="M20.1166 2.62125C19.4468 2.60677 18.8216 2.3896 18.3304 2.01318H14.9365C16.7228 5.28515 18.509 8.55711 20.2952 11.8291C20.325 8.7598 20.3697 5.705 20.3994 2.63573C20.3101 2.63573 20.2208 2.63573 20.1166 2.62125Z" fill="url(#paint73_radial)"/>
<path d="M18.3299 2.01367H15.3975C15.3975 2.11502 15.3975 2.21636 15.4123 2.3177C15.4123 2.52039 15.4272 2.7086 15.4272 2.91129C17.02 5.83579 17.8238 7.29804 19.4165 10.237C19.4909 7.68894 19.5505 5.14086 19.61 2.59278C19.1337 2.49144 18.702 2.28875 18.3299 2.01367Z" fill="url(#paint74_radial)"/>
<path d="M18.3307 2.01367H16.1426C16.1426 2.75204 16.1575 3.50488 16.1575 4.24324C17.3632 6.45833 17.9735 7.55864 19.1792 9.77373C19.2238 7.35595 19.2536 4.92369 19.2834 2.49144C18.9261 2.39009 18.6135 2.23084 18.3307 2.01367Z" fill="url(#paint75_radial)"/>
<path d="M18.3304 2.01367H17.3926C17.4223 3.56279 17.4521 5.1119 17.4819 6.66102C17.8689 7.3849 18.0773 7.74685 18.4643 8.45626C18.4792 6.35699 18.509 4.25772 18.5239 2.14397C18.4494 2.10054 18.3899 2.05711 18.3304 2.01367Z" fill="url(#paint76_radial)"/>
<path d="M21.933 3.07055C21.4418 2.88234 20.9357 2.73756 20.4147 2.63621C20.3105 2.63621 20.2063 2.62174 20.117 2.62174C19.4471 2.60726 18.8219 2.39009 18.3307 2.01367H18.167C18.1819 4.0116 18.1968 6.00952 18.2116 8.00745C19.7597 10.8596 21.3227 13.7117 22.8708 16.5638L22.9154 3.54831C22.6028 3.38906 22.2753 3.2298 21.933 3.07055Z" fill="url(#paint77_radial)"/>
<path d="M21.9331 3.07055C21.4419 2.88233 20.9358 2.73756 20.4148 2.63621C20.3106 2.63621 20.2064 2.62174 20.1171 2.62174C19.4473 2.60726 18.8221 2.39009 18.3309 2.01367H17.4229C17.4526 3.59174 17.4675 5.15534 17.4973 6.70445C19.2835 9.99089 21.0846 13.2773 22.8709 16.5783L22.9155 3.56279C22.6029 3.38905 22.2755 3.2298 21.9331 3.07055Z" fill="url(#paint78_radial)"/>
<path d="M21.9326 3.07181C21.4414 2.8836 20.9353 2.73882 20.4143 2.63748C20.3101 2.63748 20.2059 2.623 20.1166 2.623C19.8784 2.623 19.6552 2.59404 19.4319 2.53613C19.4319 5.12764 19.417 7.67572 19.417 10.2383C20.5483 12.3086 21.1139 13.351 22.2452 15.4358C22.275 13.0035 22.2899 10.5713 22.3047 8.13901C22.3196 6.92288 22.3196 5.79362 22.3196 4.69331C22.3196 4.21555 22.3196 3.75226 22.3196 3.2745C22.2154 3.20211 22.0815 3.1442 21.9326 3.07181Z" fill="url(#paint79_radial)"/>
<path d="M23.049 28.6825C24.0314 28.2626 24.9245 27.7704 25.7879 27.1623C26.7852 26.395 27.8123 25.5843 28.6458 24.6432C28.9584 24.1799 29.1817 23.7022 29.4199 23.1954C29.5836 22.848 29.7771 22.515 29.9855 22.1965V20.4591C29.9557 19.0114 29.926 17.5346 29.8813 16.0724C29.8218 14.5522 29.7474 13.0031 29.6878 11.4974C29.2413 10.8315 28.8542 10.1221 28.4821 9.41265C27.9016 8.28339 27.3508 7.13965 26.5917 6.11173C26.3386 5.82218 26.0707 5.56158 25.773 5.31545C24.7012 4.56261 23.5848 3.86768 22.4089 3.28857L22.3047 29.001C22.5429 28.8997 22.7959 28.7983 23.049 28.6825Z" fill="url(#paint80_radial)"/>
<path d="M23.049 28.6822C24.0314 28.2623 24.9245 27.7701 25.7879 27.162C26.7852 26.3947 27.8123 25.5839 28.6458 24.6429C28.75 24.4981 28.8245 24.3533 28.9138 24.2086C28.9138 23.4268 28.8989 22.645 28.8989 21.8632C28.884 19.9087 28.884 17.9108 28.8393 15.8983C28.7947 13.8859 28.7649 11.888 28.7352 9.90457C28.6458 9.74532 28.5714 9.58606 28.4821 9.42681C27.9016 8.29755 27.3508 7.15381 26.5917 6.12589C26.3386 5.83633 26.0707 5.57574 25.773 5.32961C24.7012 4.57677 23.5848 3.88184 22.4089 3.30273C22.3791 11.8735 22.3345 20.4444 22.3047 29.0152C22.5429 28.8993 22.7959 28.798 23.049 28.6822Z" fill="url(#paint81_radial)"/>
<path d="M26.593 6.11226C26.34 5.82271 26.0721 5.56211 25.7744 5.31599C24.9259 4.7224 24.0477 4.15777 23.1396 3.66553C23.3927 7.05331 23.6606 10.4845 23.9732 13.9302C24.137 15.7979 24.3156 17.622 24.4942 19.3594C24.6728 21.0822 24.8812 22.7327 25.0896 24.3108C25.4915 25.136 25.8786 24.7451 26.2507 23.3552C26.3995 22.7906 26.5484 22.0522 26.6972 21.1691C26.8461 20.2859 27.0098 19.2725 27.114 18.0853C27.382 14.9147 27.3671 11.0926 27.3224 7.24152C27.0991 6.8651 26.8461 6.48868 26.593 6.11226Z" fill="url(#paint82_radial)"/>
<path d="M23.049 28.6812C24.0314 28.2613 24.9245 27.7691 25.7879 27.161C26.7852 26.3937 27.8123 25.583 28.6458 24.6419C28.9584 24.1786 29.1817 23.7009 29.4199 23.1941C29.5836 22.8467 29.7771 22.5137 29.9855 22.1952V11.945C29.4199 11.1487 28.9287 10.2945 28.4821 9.42583C27.9016 8.29657 27.3508 7.15283 26.5917 6.12491C26.3386 5.83536 26.0707 5.57476 25.773 5.32864C24.7012 4.5758 23.5848 3.88087 22.4089 3.30176L22.3047 29.0142C22.5429 28.8984 22.7959 28.797 23.049 28.6812Z" fill="url(#paint83_radial)"/>
<path d="M22.8857 18.9667C23.1239 21.978 23.4663 25.2355 23.7342 28.3772C24.4487 28.0297 25.1334 27.6388 25.7884 27.161C26.7857 26.3937 27.8128 25.583 28.6464 24.6419C28.959 24.1786 29.1822 23.7009 29.4204 23.1941C29.5842 22.8467 29.7777 22.5137 29.9861 22.1952V11.945C29.4204 11.1487 28.9292 10.2945 28.4826 9.42583C27.9021 8.29657 27.3514 7.15283 26.5922 6.12491C26.3391 5.83536 26.0712 5.57476 25.7735 5.32864C24.7018 4.5758 23.5854 3.88087 22.4094 3.30176L22.3945 8.7309C22.4094 9.31001 22.4392 9.93255 22.469 10.5696C22.5732 13.2914 22.6625 16.129 22.8857 18.9667Z" fill="url(#paint84_radial)"/>
<path d="M24.939 23.8324C25.0729 25.0775 25.192 26.2937 25.2813 27.4953C25.4451 27.3795 25.6088 27.2781 25.7725 27.1623C26.7699 26.395 27.7969 25.5842 28.6305 24.6432C28.9431 24.1799 29.1664 23.7021 29.4046 23.1954C29.5683 22.848 29.7618 22.515 29.9702 22.1965V11.9462C29.4046 11.15 28.9133 10.2958 28.4668 9.42711C27.8863 8.29785 27.3355 7.15411 26.5763 6.12619C26.3233 5.83664 26.0554 5.57604 25.7576 5.32992C25.326 5.02589 24.8943 4.73633 24.4477 4.44678C24.4329 5.76425 24.418 7.08172 24.418 8.42815C24.418 11.0052 24.4329 13.6401 24.5371 16.3185C24.6412 18.6784 24.7901 21.2699 24.939 23.8324Z" fill="url(#paint85_radial)"/>
<path d="M26.548 24.0783C26.5778 24.889 26.6075 25.6998 26.6373 26.496C27.3518 25.9169 28.0514 25.3233 28.632 24.6429C28.9445 24.1796 29.1678 23.7018 29.406 23.1951C29.5697 22.8477 29.7632 22.5147 29.9716 22.1962V11.9459C29.406 11.1497 28.9148 10.2955 28.4682 9.4268C27.8877 8.29754 27.3369 7.1538 26.5778 6.12588C26.4438 5.96663 26.295 5.80737 26.1312 5.6626C26.1312 5.87976 26.1312 6.09693 26.1312 6.29962C26.1163 9.28203 26.1759 12.4961 26.2354 15.6522C26.3098 18.403 26.4289 21.2696 26.548 24.0783Z" fill="url(#paint86_radial)"/>
<path d="M28.1257 24.006C28.1406 24.3969 28.1406 24.7733 28.1555 25.1642C28.3193 25.0049 28.483 24.8312 28.6467 24.6575C28.9593 24.1942 29.1826 23.7164 29.4208 23.2097C29.5845 22.8622 29.778 22.5292 29.9864 22.2107V17.4476C29.9269 15.4786 29.8376 13.4807 29.6887 11.5262C29.2421 10.8602 28.8551 10.1508 28.483 9.44137C28.2746 9.02152 28.0662 8.61614 27.8429 8.19629C27.5303 11.7433 27.9173 17.1725 28.0364 20.6906C28.0662 21.7764 28.096 22.8912 28.1257 24.006Z" fill="url(#paint87_radial)"/>
<path d="M26.9953 18.201C27.0102 19.3158 27.0399 20.5175 27.0846 21.806C27.1441 23.1814 27.2037 24.5712 27.2781 25.9756C27.7693 25.5557 28.2308 25.1214 28.6327 24.6581C28.9453 24.1948 29.1685 23.7171 29.4067 23.2103C29.5704 22.8629 29.7639 22.5299 29.9723 22.2114V11.9467C29.4067 11.1504 28.9155 10.2962 28.4689 9.42755C27.9926 8.51545 27.546 7.58888 26.9953 6.72021V6.73469C26.9804 7.87843 26.9655 9.03665 26.9506 10.2093C26.9357 11.5558 26.9357 12.9167 26.9506 14.3065C26.9506 15.5806 26.9655 16.8691 26.9953 18.201Z" fill="url(#paint88_radial)"/>
<path d="M27.6643 11.3384C27.694 12.4387 27.7089 13.5245 27.7387 14.5524C27.7536 15.3632 27.7685 16.2318 27.8131 17.1005C27.9322 19.7499 28.0662 22.4283 28.2001 25.1067C28.349 24.9619 28.4978 24.8026 28.6318 24.6434C28.9444 24.1801 29.1677 23.7023 29.4059 23.1956C29.5696 22.8481 29.7631 22.5151 29.9715 22.1966V11.9464C29.4059 11.1501 28.9146 10.296 28.4681 9.42729C28.1704 8.86266 27.8876 8.29803 27.5898 7.7334C27.5898 8.09534 27.6047 8.47176 27.6047 8.8337C27.6345 9.67341 27.6494 10.5131 27.6643 11.3384Z" fill="url(#paint89_radial)"/>
<path d="M28.8107 16.7094C28.8703 19.1272 28.9447 21.5594 29.0191 24.0062C29.1531 23.7456 29.2871 23.4705 29.421 23.1954C29.5848 22.848 29.7783 22.515 29.9867 22.1965V11.9462C29.4954 11.2658 29.0787 10.5419 28.6768 9.78906C28.6916 10.5853 28.7214 11.3671 28.7363 12.091C28.7512 13.756 28.781 15.2182 28.8107 16.7094Z" fill="url(#paint90_radial)"/>
<path d="M29.4807 18.3316C29.5104 19.8373 29.5402 21.3575 29.57 22.8921C29.6891 22.646 29.8379 22.4143 29.9719 22.1972V11.947C29.7784 11.6719 29.5849 11.3823 29.4062 11.0928C29.4211 12.7432 29.436 14.3792 29.4509 16.0297C29.4658 16.8259 29.4658 17.5643 29.4807 18.3316Z" fill="url(#paint91_radial)"/>
<path d="M29.9724 22.1968V15.7397C29.9724 16.1886 29.9575 16.6374 29.9575 17.0717C29.9426 17.8535 29.9277 18.6063 29.9277 19.3592C29.9277 20.3147 29.9277 21.2847 29.9426 22.2692C29.9575 22.2402 29.9575 22.2258 29.9724 22.1968Z" fill="url(#paint92_radial)"/>
<path d="M23.5837 28.4505C24.3578 28.0885 25.0871 27.6687 25.7867 27.162C26.7841 26.3946 27.8112 25.5839 28.6447 24.6428C28.9573 24.1795 29.1806 23.7018 29.4188 23.1951C29.5825 22.8476 29.776 22.5146 29.9844 22.1961V11.9459C29.4188 11.1496 28.9276 10.2954 28.481 9.42675C27.9005 8.29749 27.3497 7.15375 26.5906 6.12583C26.3375 5.83628 26.0696 5.57568 25.7719 5.32956C25.1467 4.89522 24.5215 4.47537 23.8665 4.08447C23.9112 5.50329 23.8963 6.83524 23.807 8.05137C23.7326 9.19511 23.6879 10.4402 23.6581 11.5839C23.6135 12.9593 23.5837 14.3492 23.5688 15.739C23.5539 17.2881 23.5391 18.8517 23.5391 20.4298C23.5391 21.8052 23.5391 23.1951 23.5539 24.5849C23.5539 25.8734 23.5688 27.162 23.5837 28.4505Z" fill="url(#paint93_radial)"/>
<path d="M25.7868 27.1622C26.7841 26.3949 27.8112 25.5841 28.6448 24.6431C28.9574 24.1798 29.1807 23.702 29.4189 23.1953C29.5826 22.8479 29.7761 22.5149 29.9845 22.1964V11.9461C29.4189 11.1499 28.9276 10.2957 28.4811 9.42701C27.9005 8.29774 27.3498 7.154 26.5906 6.12609C26.3376 5.83653 26.0697 5.57593 25.7719 5.32981C25.6826 5.2719 25.5933 5.19951 25.504 5.1416C25.2361 9.35462 24.9235 13.4663 24.6109 17.5201C24.5513 18.2874 24.5216 19.156 24.4918 19.9668C24.462 21.0092 24.4174 22.095 24.3727 23.1953C24.343 24.0205 24.3132 24.8458 24.2834 25.7C24.2536 26.4962 24.2388 27.307 24.209 28.1612C24.7597 27.8427 25.2807 27.5242 25.7868 27.1622Z" fill="url(#paint94_radial)"/>
<path d="M25.7875 27.1625C26.7848 26.3952 27.8119 25.5844 28.6455 24.6434C28.9581 24.1801 29.1814 23.7023 29.4195 23.1956C29.4195 23.1956 29.4195 23.1811 29.4344 23.1811C29.4791 19.2432 29.5386 15.3197 29.5833 11.3528C29.1814 10.7303 28.8241 10.0788 28.4818 9.42731C27.9012 8.29805 27.3505 7.15431 26.5913 6.12639C26.5467 6.08296 26.5169 6.03953 26.4723 5.99609C26.249 11.874 25.9959 17.6651 25.7578 23.4707C25.7131 24.6868 25.6684 25.9464 25.6387 27.2783C25.6833 27.2349 25.728 27.2059 25.7875 27.1625Z" fill="url(#paint95_radial)"/>
<path d="M28.6298 24.6575C28.6596 24.5996 28.7042 24.5561 28.734 24.4982C28.7787 19.7495 28.8084 14.9429 28.8233 10.0929C28.7042 9.87572 28.5852 9.64408 28.4661 9.42691C28.0493 8.63064 27.6474 7.81988 27.1859 7.03809C26.9627 13.1622 26.6947 19.2138 26.5161 25.28C26.5012 25.7143 26.5012 26.1632 26.4863 26.612C27.2604 26.0039 28.0046 25.3669 28.6298 24.6575Z" fill="url(#paint96_radial)"/>
<path d="M27.931 25.3817C27.9459 24.8605 27.9607 24.3393 27.9607 23.8181C28.0352 20.3869 28.2138 17.057 28.3478 13.7706C28.4073 12.3518 28.452 10.9185 28.4966 9.47072C28.4817 9.45624 28.4817 9.44177 28.4668 9.42729C28.2287 8.964 27.9905 8.48624 27.7375 8.02295C27.5588 11.9175 27.3653 15.7541 27.2016 19.6051C27.1123 21.7044 27.0676 23.9195 27.0527 26.1491C27.3504 25.9029 27.6481 25.6423 27.931 25.3817Z" fill="url(#paint97_radial)"/>
<path d="M23.5559 28.4655C24.3448 28.1036 25.0742 27.6838 25.7738 27.177C26.7711 26.4097 27.7982 25.599 28.6318 24.6579C28.9444 24.1946 29.1677 23.7169 29.4058 23.2101C29.5696 22.8627 29.7631 22.5297 29.9715 22.2112V11.9465C29.4058 11.1502 28.9146 10.296 28.4681 9.42735C27.8875 8.29809 27.3368 7.15435 26.5776 6.12643C26.3246 5.83688 26.0566 5.57628 25.7589 5.33016C25.4017 5.08404 25.0444 4.83792 24.6723 4.5918C24.6723 4.64971 24.6723 4.69314 24.6723 4.75105C24.6574 6.09748 24.6276 7.45838 24.6128 8.83377C24.5979 10.3394 24.5681 11.8307 24.5681 13.3363C24.5532 18.0706 23.3475 20.4739 23.4517 25.3384C23.4815 26.3228 23.5112 27.3797 23.5559 28.4655Z" fill="url(#paint98_radial)"/>
<path d="M28.6314 24.658C28.944 24.1947 29.1673 23.7169 29.4054 23.2102C29.5692 22.8627 29.7627 22.5297 29.9711 22.2112V11.9465C29.4054 11.1502 28.9142 10.2961 28.4677 9.4274C27.8871 8.29814 27.3364 7.1544 26.5772 6.12648C26.3242 5.83692 26.0562 5.57633 25.7585 5.3302C25.5799 5.19991 25.4013 5.08408 25.2227 4.96826C25.7436 12.4243 26.22 19.8514 26.3539 26.7283C27.1726 26.0768 27.9764 25.3963 28.6314 24.658Z" fill="url(#paint99_radial)"/>
<path d="M28.6316 24.6572C28.9442 24.1939 29.1675 23.7161 29.4057 23.2094C29.495 23.0067 29.5992 22.8185 29.7183 22.6158C29.7927 19.6913 29.8671 16.7958 29.9713 13.9147V11.9457C29.4057 11.1495 28.9145 10.2953 28.4679 9.42661C28.1107 8.74616 27.7683 8.05123 27.3962 7.38525C27.3515 13.6107 27.2473 19.7492 27.2324 26.0036C27.7385 25.5693 28.2149 25.1349 28.6316 24.6572Z" fill="url(#paint100_radial)"/>
<path d="M28.6314 24.6579C28.7505 24.4697 28.8695 24.2815 28.9737 24.0933C29.0482 19.6631 29.1672 15.2764 29.2863 10.9041C29.0035 10.4263 28.7207 9.93409 28.4676 9.42737C28.4527 9.39841 28.4379 9.38394 28.4379 9.35498C28.3634 14.6538 28.2443 19.8803 28.1699 25.1357C28.3337 24.9764 28.4825 24.8172 28.6314 24.6579Z" fill="url(#paint101_radial)"/>
<path d="M29.0192 23.2681C29.0192 23.4997 29.0341 23.7458 29.0341 23.9775C29.1681 23.7313 29.2871 23.4707 29.4211 23.1957C29.5849 22.8482 29.7784 22.5152 29.9868 22.1967V11.9465C29.6593 11.4832 29.3616 11.0054 29.0788 10.5132C29.0639 11.2226 29.049 11.932 29.0341 12.6559C29.0192 13.7128 29.0043 14.7841 29.0043 15.8699C28.9894 17.115 28.9894 18.3746 29.0043 19.6631C28.9894 20.8358 29.0043 22.0374 29.0192 23.2681Z" fill="url(#paint102_radial)"/>
<path d="M29.4203 23.1957C29.5841 22.8482 29.7776 22.5152 29.986 22.1967V11.9465C29.4203 11.1502 28.9291 10.296 28.4826 9.42737C28.423 9.31155 28.3635 9.18125 28.2891 9.06543C28.5868 13.6693 28.9589 18.4759 29.3608 23.3549C29.3757 23.297 29.3906 23.2536 29.4203 23.1957Z" fill="url(#paint103_radial)"/>
<path opacity="0.6" d="M19.9819 30.0881V2.62386C19.3716 2.58043 18.806 2.36326 18.3594 2.03027H17.4961V31.0002H19.0293C19.2674 30.6382 19.5949 30.3197 19.9819 30.0881Z" fill="url(#paint104_linear)"/>
<path opacity="0.6" d="M28.6308 24.6571C28.9434 24.1939 29.1667 23.7161 29.4049 23.2094C29.5835 22.8474 29.777 22.4855 30.0003 22.1525V11.9891C29.4197 11.1784 28.9136 10.3097 28.4671 9.41211C28.1545 8.81852 27.8568 8.21046 27.5293 7.63135V25.7285C27.9163 25.3955 28.2885 25.0336 28.6308 24.6571Z" fill="url(#paint105_linear)"/>
<path opacity="0.6" d="M20.0271 30.0573C20.7416 29.652 21.5007 29.3335 22.2748 29.0149V3.23013C22.1706 3.17222 22.0515 3.12879 21.9473 3.07088C21.4561 2.88267 20.95 2.73789 20.429 2.63655C20.3248 2.63655 20.2206 2.62207 20.1313 2.62207C20.0866 2.62207 20.0271 2.62207 19.9824 2.62207V30.0863C19.9973 30.0718 20.0122 30.0573 20.0271 30.0573Z" fill="url(#paint106_linear)"/>
<path opacity="0.6" d="M3.83076 25.2219C4.3964 25.8734 5.02159 26.4525 5.69143 26.9881C5.85517 27.104 6.03379 27.2343 6.19753 27.3501V5.1123C6.18264 5.12678 6.16776 5.14126 6.15287 5.15574C5.48303 6.12574 5.06624 7.1971 4.47083 8.21054C4.23266 8.60143 3.97961 8.97785 3.72656 9.3398V25.0771C3.77122 25.135 3.80099 25.1784 3.83076 25.2219Z" fill="url(#paint107_linear)"/>
<path opacity="0.6" d="M8.50426 28.827V3.47656C7.99815 3.70821 7.52182 3.9688 7.07526 4.28731C6.76267 4.54791 6.47985 4.82299 6.21191 5.11254V27.3503C6.95618 27.8715 7.71533 28.3638 8.50426 28.827Z" fill="url(#paint108_linear)"/>
<path opacity="0.8" d="M16 31C24.2843 31 31 24.5009 31 16.4839C31 8.46687 24.2843 1.96777 16 1.96777C7.71573 1.96777 1 8.46687 1 16.4839C1 24.5009 7.71573 31 16 31Z" stroke="url(#paint109_linear)" stroke-width="2" stroke-miterlimit="10"/>
<defs>
<linearGradient id="paint0_linear" x1="27.1778" y1="16.0002" x2="4.82033" y2="16.0002" gradientUnits="userSpaceOnUse">
<stop stop-color="#8C8A89"/>
<stop offset="0.4731" stop-color="#F5F5F5"/>
<stop offset="0.5578" stop-color="#EFEFEF"/>
<stop offset="0.671" stop-color="#DFDEDE"/>
<stop offset="0.8004" stop-color="#C4C3C2"/>
<stop offset="0.9408" stop-color="#9E9C9C"/>
<stop offset="1" stop-color="#8C8A89"/>
</linearGradient>
<linearGradient id="paint1_linear" x1="16.0265" y1="1.84277" x2="16.0265" y2="30.1577" gradientUnits="userSpaceOnUse">
<stop stop-color="#5D5D56"/>
<stop offset="0.1376" stop-color="#83837E"/>
<stop offset="0.384" stop-color="#C1C1C0"/>
<stop offset="0.5" stop-color="#DADADA"/>
<stop offset="0.556" stop-color="#D3D3D2"/>
<stop offset="0.6422" stop-color="#BEBEBD"/>
<stop offset="0.7479" stop-color="#9C9C99"/>
<stop offset="0.8689" stop-color="#6D6D68"/>
<stop offset="1" stop-color="#33332B"/>
</linearGradient>
<radialGradient id="paint2_radial" cx="0" cy="0" r="1" gradientUnits="userSpaceOnUse" gradientTransform="translate(2.77258 -156.651) rotate(56.8646) scale(13.1329 147.236)">
<stop stop-color="#B35018"/>
<stop offset="1" stop-color="#DE8D35"/>
</radialGradient>
<radialGradient id="paint3_radial" cx="0" cy="0" r="1" gradientUnits="userSpaceOnUse" gradientTransform="translate(3.11772 -163.379) rotate(56.8646) scale(10.8944 122.139)">
<stop stop-color="#B35018"/>
<stop offset="1" stop-color="#DE8D35"/>
</radialGradient>
<radialGradient id="paint4_radial" cx="0" cy="0" r="1" gradientUnits="userSpaceOnUse" gradientTransform="translate(5.71391 -19.8885) rotate(-123.13) scale(13.7891 127.643)">
<stop stop-color="#B35018"/>
<stop offset="1" stop-color="#DE8D35"/>
</radialGradient>
<radialGradient id="paint5_radial" cx="0" cy="0" r="1" gradientUnits="userSpaceOnUse" gradientTransform="translate(6.10006 -15.3322) rotate(-123.13) scale(11.0832 102.595)">
<stop stop-color="#B35018"/>
<stop offset="1" stop-color="#DE8D35"/>
</radialGradient>
<radialGradient id="paint6_radial" cx="0" cy="0" r="1" gradientUnits="userSpaceOnUse" gradientTransform="translate(6.57087 -11.1357) rotate(-123.13) scale(7.94808 73.5733)">
<stop stop-color="#B35018"/>
<stop offset="1" stop-color="#DE8D35"/>
</radialGradient>
<radialGradient id="paint7_radial" cx="0" cy="0" r="1" gradientUnits="userSpaceOnUse" gradientTransform="translate(6.80642 -8.63271) rotate(-123.13) scale(4.81257 44.5488)">
<stop stop-color="#B35018"/>
<stop offset="1" stop-color="#DE8D35"/>
</radialGradient>
<radialGradient id="paint8_radial" cx="0" cy="0" r="1" gradientUnits="userSpaceOnUse" gradientTransform="translate(7.07578 -12.8123) rotate(-123.13) scale(2.82406 26.1416)">
<stop stop-color="#B35018"/>
<stop offset="1" stop-color="#DE8D35"/>
</radialGradient>
<radialGradient id="paint9_radial" cx="0" cy="0" r="1" gradientUnits="userSpaceOnUse" gradientTransform="translate(8.08275 -44.4505) rotate(-123.133) scale(6.3998 123.723)">
<stop stop-color="#B35018"/>
<stop offset="1" stop-color="#DE8D35"/>
</radialGradient>
<radialGradient id="paint10_radial" cx="0" cy="0" r="1" gradientUnits="userSpaceOnUse" gradientTransform="translate(7.89676 -42.8167) rotate(-123.133) scale(5.57415 107.762)">
<stop stop-color="#B35018"/>
<stop offset="1" stop-color="#DE8D35"/>
</radialGradient>
<radialGradient id="paint11_radial" cx="0" cy="0" r="1" gradientUnits="userSpaceOnUse" gradientTransform="translate(7.87443 -40.3589) rotate(-123.133) scale(5.18564 100.251)">
<stop stop-color="#B35018"/>
<stop offset="1" stop-color="#DE8D35"/>
</radialGradient>
<radialGradient id="paint12_radial" cx="0" cy="0" r="1" gradientUnits="userSpaceOnUse" gradientTransform="translate(7.85013 -35.7252) rotate(-123.133) scale(4.45331 86.0931)">
<stop stop-color="#B35018"/>
<stop offset="1" stop-color="#DE8D35"/>
</radialGradient>
<radialGradient id="paint13_radial" cx="0" cy="0" r="1" gradientUnits="userSpaceOnUse" gradientTransform="translate(8.03212 -21.9825) rotate(-123.133) scale(4.37299 84.5403)">
<stop stop-color="#B35018"/>
<stop offset="1" stop-color="#DE8D35"/>
</radialGradient>
<radialGradient id="paint14_radial" cx="0" cy="0" r="1" gradientUnits="userSpaceOnUse" gradientTransform="translate(4.71936 0.262607) rotate(-123.133) scale(7.6332 147.568)">
<stop stop-color="#B35018"/>
<stop offset="1" stop-color="#DE8D35"/>
</radialGradient>
<radialGradient id="paint15_radial" cx="0" cy="0" r="1" gradientUnits="userSpaceOnUse" gradientTransform="translate(4.83505 -0.504488) rotate(-123.133) scale(6.15489 118.989)">
<stop stop-color="#B35018"/>
<stop offset="1" stop-color="#DE8D35"/>
</radialGradient>
<radialGradient id="paint16_radial" cx="0" cy="0" r="1" gradientUnits="userSpaceOnUse" gradientTransform="translate(4.80676 -1.60919) rotate(-123.133) scale(5.58934 108.055)">
<stop stop-color="#B35018"/>
<stop offset="1" stop-color="#DE8D35"/>
</radialGradient>
<radialGradient id="paint17_radial" cx="0" cy="0" r="1" gradientUnits="userSpaceOnUse" gradientTransform="translate(4.80399 -5.39892) rotate(-123.133) scale(4.50722 87.1352)">
<stop stop-color="#B35018"/>
<stop offset="1" stop-color="#DE8D35"/>
</radialGradient>
<radialGradient id="paint18_radial" cx="0" cy="0" r="1" gradientUnits="userSpaceOnUse" gradientTransform="translate(5.19551 -17.5044) rotate(-123.133) scale(4.66243 90.1359)">
<stop stop-color="#B35018"/>
<stop offset="1" stop-color="#DE8D35"/>
</radialGradient>
<radialGradient id="paint19_radial" cx="0" cy="0" r="1" gradientUnits="userSpaceOnUse" gradientTransform="translate(12.5702 13.653) rotate(-123.133) scale(5.13255 99.2243)">
<stop stop-color="#B35018"/>
<stop offset="1" stop-color="#DE8D35"/>
</radialGradient>
<radialGradient id="paint20_radial" cx="0" cy="0" r="1" gradientUnits="userSpaceOnUse" gradientTransform="translate(12.4106 12.6996) rotate(-123.133) scale(4.37674 84.6128)">
<stop stop-color="#B35018"/>
<stop offset="1" stop-color="#DE8D35"/>
</radialGradient>
<radialGradient id="paint21_radial" cx="0" cy="0" r="1" gradientUnits="userSpaceOnUse" gradientTransform="translate(5.73751 -19.3394) rotate(56.8667) scale(8.16054 157.762)">
<stop stop-color="#B35018"/>
<stop offset="1" stop-color="#DE8D35"/>
</radialGradient>
<radialGradient id="paint22_radial" cx="0" cy="0" r="1" gradientUnits="userSpaceOnUse" gradientTransform="translate(5.69672 -16.3017) rotate(56.8667) scale(8.36548 161.725)">
<stop stop-color="#B35018"/>
<stop offset="1" stop-color="#DE8D35"/>
</radialGradient>
<radialGradient id="paint23_radial" cx="0" cy="0" r="1" gradientUnits="userSpaceOnUse" gradientTransform="translate(6.95977 -13.7497) rotate(56.8667) scale(4.92474 95.2069)">
<stop stop-color="#B35018"/>
<stop offset="1" stop-color="#DE8D35"/>
</radialGradient>
<radialGradient id="paint24_radial" cx="0" cy="0" r="1" gradientUnits="userSpaceOnUse" gradientTransform="translate(6.75077 2.32086) rotate(56.8667) scale(5.14764 99.516)">
<stop stop-color="#B35018"/>
<stop offset="1" stop-color="#DE8D35"/>
</radialGradient>
<radialGradient id="paint25_radial" cx="0" cy="0" r="1" gradientUnits="userSpaceOnUse" gradientTransform="translate(9.9033 -37.8315) rotate(-123.133) scale(5.9762 115.534)">
<stop stop-color="#B35018"/>
<stop offset="1" stop-color="#DE8D35"/>
</radialGradient>
<radialGradient id="paint26_radial" cx="0" cy="0" r="1" gradientUnits="userSpaceOnUse" gradientTransform="translate(8.41525 -38.7614) rotate(-123.133) scale(6.91899 133.76)">
<stop stop-color="#B35018"/>
<stop offset="1" stop-color="#DE8D35"/>
</radialGradient>
<radialGradient id="paint27_radial" cx="0" cy="0" r="1" gradientUnits="userSpaceOnUse" gradientTransform="translate(9.68166 -29.6802) rotate(-123.133) scale(4.16518 80.5228)">
<stop stop-color="#B35018"/>
<stop offset="1" stop-color="#DE8D35"/>
</radialGradient>
<radialGradient id="paint28_radial" cx="0" cy="0" r="1" gradientUnits="userSpaceOnUse" gradientTransform="translate(12.6254 156.244) rotate(56.8646) scale(13.099 146.856)">
<stop stop-color="#B35018"/>
<stop offset="1" stop-color="#DE8D35"/>
</radialGradient>
<radialGradient id="paint29_radial" cx="0" cy="0" r="1" gradientUnits="userSpaceOnUse" gradientTransform="translate(12.917 162.919) rotate(56.8646) scale(10.8334 121.455)">
<stop stop-color="#B35018"/>
<stop offset="1" stop-color="#DE8D35"/>
</radialGradient>
<radialGradient id="paint30_radial" cx="0" cy="0" r="1" gradientUnits="userSpaceOnUse" gradientTransform="translate(16.5228 48.3274) rotate(-123.13) scale(13.624 126.114)">
<stop stop-color="#B35018"/>
<stop offset="1" stop-color="#DE8D35"/>
</radialGradient>
<radialGradient id="paint31_radial" cx="0" cy="0" r="1" gradientUnits="userSpaceOnUse" gradientTransform="translate(16.9374 45.5156) rotate(-123.13) scale(10.9828 101.665)">
<stop stop-color="#B35018"/>
<stop offset="1" stop-color="#DE8D35"/>
</radialGradient>
<radialGradient id="paint32_radial" cx="0" cy="0" r="1" gradientUnits="userSpaceOnUse" gradientTransform="translate(17.4327 43.2335) rotate(-123.13) scale(7.83744 72.5491)">
<stop stop-color="#B35018"/>
<stop offset="1" stop-color="#DE8D35"/>
</radialGradient>
<radialGradient id="paint33_radial" cx="0" cy="0" r="1" gradientUnits="userSpaceOnUse" gradientTransform="translate(17.6854 41.7463) rotate(-123.13) scale(4.68342 43.3532)">
<stop stop-color="#B35018"/>
<stop offset="1" stop-color="#DE8D35"/>
</radialGradient>
<radialGradient id="paint34_radial" cx="0" cy="0" r="1" gradientUnits="userSpaceOnUse" gradientTransform="translate(17.766 45.908) rotate(-123.13) scale(2.88968 26.7491)">
<stop stop-color="#B35018"/>
<stop offset="1" stop-color="#DE8D35"/>
</radialGradient>
<radialGradient id="paint35_radial" cx="0" cy="0" r="1" gradientUnits="userSpaceOnUse" gradientTransform="translate(18.6902 75.5286) rotate(-123.133) scale(6.28013 121.41)">
<stop stop-color="#B35018"/>
<stop offset="1" stop-color="#DE8D35"/>
</radialGradient>
<radialGradient id="paint36_radial" cx="0" cy="0" r="1" gradientUnits="userSpaceOnUse" gradientTransform="translate(18.5185 73.622) rotate(-123.133) scale(5.43605 105.092)">
<stop stop-color="#B35018"/>
<stop offset="1" stop-color="#DE8D35"/>
</radialGradient>
<radialGradient id="paint37_radial" cx="0" cy="0" r="1" gradientUnits="userSpaceOnUse" gradientTransform="translate(18.5128 71.4392) rotate(-123.133) scale(4.98717 96.4137)">
<stop stop-color="#B35018"/>
<stop offset="1" stop-color="#DE8D35"/>
</radialGradient>
<radialGradient id="paint38_radial" cx="0" cy="0" r="1" gradientUnits="userSpaceOnUse" gradientTransform="translate(18.5215 67.4222) rotate(-123.133) scale(4.21983 81.5793)">
<stop stop-color="#B35018"/>
<stop offset="1" stop-color="#DE8D35"/>
</radialGradient>
<radialGradient id="paint39_radial" cx="0" cy="0" r="1" gradientUnits="userSpaceOnUse" gradientTransform="translate(18.8012 56.3243) rotate(-123.133) scale(3.96916 76.7332)">
<stop stop-color="#B35018"/>
<stop offset="1" stop-color="#DE8D35"/>
</radialGradient>
<radialGradient id="paint40_radial" cx="0" cy="0" r="1" gradientUnits="userSpaceOnUse" gradientTransform="translate(15.6851 28.4791) rotate(-123.133) scale(7.46884 144.39)">
<stop stop-color="#B35018"/>
<stop offset="1" stop-color="#DE8D35"/>
</radialGradient>
<radialGradient id="paint41_radial" cx="0" cy="0" r="1" gradientUnits="userSpaceOnUse" gradientTransform="translate(15.7953 29.402) rotate(-123.133) scale(5.9358 114.753)">
<stop stop-color="#B35018"/>
<stop offset="1" stop-color="#DE8D35"/>
</radialGradient>
<radialGradient id="paint42_radial" cx="0" cy="0" r="1" gradientUnits="userSpaceOnUse" gradientTransform="translate(15.758 30.2372) rotate(-123.133) scale(5.27997 102.074)">
<stop stop-color="#B35018"/>
<stop offset="1" stop-color="#DE8D35"/>
</radialGradient>
<radialGradient id="paint43_radial" cx="0" cy="0" r="1" gradientUnits="userSpaceOnUse" gradientTransform="translate(15.7294 33.4376) rotate(-123.133) scale(4.01156 77.5529)">
<stop stop-color="#B35018"/>
<stop offset="1" stop-color="#DE8D35"/>
</radialGradient>
<radialGradient id="paint44_radial" cx="0" cy="0" r="1" gradientUnits="userSpaceOnUse" gradientTransform="translate(16.0293 44.719) rotate(-123.133) scale(4.04163 78.1343)">
<stop stop-color="#B35018"/>
<stop offset="1" stop-color="#DE8D35"/>
</radialGradient>
<radialGradient id="paint45_radial" cx="0" cy="0" r="1" gradientUnits="userSpaceOnUse" gradientTransform="translate(23.5472 39.2801) rotate(-123.133) scale(4.9206 95.127)">
<stop stop-color="#B35018"/>
<stop offset="1" stop-color="#DE8D35"/>
</radialGradient>
<radialGradient id="paint46_radial" cx="0" cy="0" r="1" gradientUnits="userSpaceOnUse" gradientTransform="translate(23.3844 39.5653) rotate(-123.133) scale(4.31865 83.4897)">
<stop stop-color="#B35018"/>
<stop offset="1" stop-color="#DE8D35"/>
</radialGradient>
<radialGradient id="paint47_radial" cx="0" cy="0" r="1" gradientUnits="userSpaceOnUse" gradientTransform="translate(16.5523 47.8355) rotate(56.8667) scale(8.11985 156.976)">
<stop stop-color="#B35018"/>
<stop offset="1" stop-color="#DE8D35"/>
</radialGradient>
<radialGradient id="paint48_radial" cx="0" cy="0" r="1" gradientUnits="userSpaceOnUse" gradientTransform="translate(16.5297 45.2242) rotate(56.8667) scale(8.30369 160.53)">
<stop stop-color="#B35018"/>
<stop offset="1" stop-color="#DE8D35"/>
</radialGradient>
<radialGradient id="paint49_radial" cx="0" cy="0" r="1" gradientUnits="userSpaceOnUse" gradientTransform="translate(17.8006 46.5495) rotate(56.8667) scale(4.80786 92.9472)">
<stop stop-color="#B35018"/>
<stop offset="1" stop-color="#DE8D35"/>
</radialGradient>
<radialGradient id="paint50_radial" cx="0" cy="0" r="1" gradientUnits="userSpaceOnUse" gradientTransform="translate(17.7096 32.4125) rotate(56.8667) scale(4.96697 96.0234)">
<stop stop-color="#B35018"/>
<stop offset="1" stop-color="#DE8D35"/>
</radialGradient>
<radialGradient id="paint51_radial" cx="0" cy="0" r="1" gradientUnits="userSpaceOnUse" gradientTransform="translate(20.5403 74.9015) rotate(-123.133) scale(5.85958 113.28)">
<stop stop-color="#B35018"/>
<stop offset="1" stop-color="#DE8D35"/>
</radialGradient>
<radialGradient id="paint52_radial" cx="0" cy="0" r="1" gradientUnits="userSpaceOnUse" gradientTransform="translate(19.0597 71.6062) rotate(-123.133) scale(6.77699 131.015)">
<stop stop-color="#B35018"/>
<stop offset="1" stop-color="#DE8D35"/>
</radialGradient>
<radialGradient id="paint53_radial" cx="0" cy="0" r="1" gradientUnits="userSpaceOnUse" gradientTransform="translate(20.3797 67.3405) rotate(-123.133) scale(3.93738 76.1188)">
<stop stop-color="#B35018"/>
<stop offset="1" stop-color="#DE8D35"/>
</radialGradient>
<radialGradient id="paint54_radial" cx="0" cy="0" r="1" gradientUnits="userSpaceOnUse" gradientTransform="translate(13.1546 7.19416) rotate(56.8646) scale(13.1296 147.199)">
<stop stop-color="#B35018"/>
<stop offset="1" stop-color="#DE8D35"/>
</radialGradient>
<radialGradient id="paint55_radial" cx="0" cy="0" r="1" gradientUnits="userSpaceOnUse" gradientTransform="translate(13.4427 13.4348) rotate(56.8646) scale(10.8387 121.514)">
<stop stop-color="#B35018"/>
<stop offset="1" stop-color="#DE8D35"/>
</radialGradient>
<radialGradient id="paint56_radial" cx="0" cy="0" r="1" gradientUnits="userSpaceOnUse" gradientTransform="translate(13.6485 17.8644) rotate(56.8646) scale(8.20933 92.0363)">
<stop stop-color="#B35018"/>
<stop offset="1" stop-color="#DE8D35"/>
</radialGradient>
<radialGradient id="paint57_radial" cx="0" cy="0" r="1" gradientUnits="userSpaceOnUse" gradientTransform="translate(13.9414 9.84448) rotate(56.8646) scale(3.06746 34.3899)">
<stop stop-color="#B35018"/>
<stop offset="1" stop-color="#DE8D35"/>
</radialGradient>
<radialGradient id="paint58_radial" cx="0" cy="0" r="1" gradientUnits="userSpaceOnUse" gradientTransform="translate(17.0633 -101.586) rotate(-123.13) scale(13.6879 126.705)">
<stop stop-color="#B35018"/>
<stop offset="1" stop-color="#DE8D35"/>
</radialGradient>
<radialGradient id="paint59_radial" cx="0" cy="0" r="1" gradientUnits="userSpaceOnUse" gradientTransform="translate(17.4587 -99.3586) rotate(-123.13) scale(11.0394 102.189)">
<stop stop-color="#B35018"/>
<stop offset="1" stop-color="#DE8D35"/>
</radialGradient>
<radialGradient id="paint60_radial" cx="0" cy="0" r="1" gradientUnits="userSpaceOnUse" gradientTransform="translate(17.925 -93.585) rotate(-123.13) scale(7.90584 73.1823)">
<stop stop-color="#B35018"/>
<stop offset="1" stop-color="#DE8D35"/>
</radialGradient>
<radialGradient id="paint61_radial" cx="0" cy="0" r="1" gradientUnits="userSpaceOnUse" gradientTransform="translate(19.1619 -53.936) rotate(-123.133) scale(6.33854 122.539)">
<stop stop-color="#B35018"/>
<stop offset="1" stop-color="#DE8D35"/>
</radialGradient>
<radialGradient id="paint62_radial" cx="0" cy="0" r="1" gradientUnits="userSpaceOnUse" gradientTransform="translate(18.9836 -53.3009) rotate(-123.133) scale(5.50876 106.497)">
<stop stop-color="#B35018"/>
<stop offset="1" stop-color="#DE8D35"/>
</radialGradient>
<radialGradient id="paint63_radial" cx="0" cy="0" r="1" gradientUnits="userSpaceOnUse" gradientTransform="translate(18.9705 -52.6109) rotate(-123.133) scale(5.02665 97.1771)">
<stop stop-color="#B35018"/>
<stop offset="1" stop-color="#DE8D35"/>
</radialGradient>
<radialGradient id="paint64_radial" cx="0" cy="0" r="1" gradientUnits="userSpaceOnUse" gradientTransform="translate(18.9584 -54.3715) rotate(-123.133) scale(4.31948 83.5058)">
<stop stop-color="#B35018"/>
<stop offset="1" stop-color="#DE8D35"/>
</radialGradient>
<radialGradient id="paint65_radial" cx="0" cy="0" r="1" gradientUnits="userSpaceOnUse" gradientTransform="translate(19.2277 -62.7403) rotate(-123.133) scale(4.20882 81.3664)">
<stop stop-color="#B35018"/>
<stop offset="1" stop-color="#DE8D35"/>
</radialGradient>
<radialGradient id="paint66_radial" cx="0" cy="0" r="1" gradientUnits="userSpaceOnUse" gradientTransform="translate(16.2168 -117.118) rotate(-123.133) scale(7.49056 144.81)">
<stop stop-color="#B35018"/>
<stop offset="1" stop-color="#DE8D35"/>
</radialGradient>
<radialGradient id="paint67_radial" cx="0" cy="0" r="1" gradientUnits="userSpaceOnUse" gradientTransform="translate(16.3033 -109.949) rotate(-123.133) scale(5.94598 114.95)">
<stop stop-color="#B35018"/>
<stop offset="1" stop-color="#DE8D35"/>
</radialGradient>
<radialGradient id="paint68_radial" cx="0" cy="0" r="1" gradientUnits="userSpaceOnUse" gradientTransform="translate(16.2563 -105.521) rotate(-123.133) scale(5.2588 101.665)">
<stop stop-color="#B35018"/>
<stop offset="1" stop-color="#DE8D35"/>
</radialGradient>
<radialGradient id="paint69_radial" cx="0" cy="0" r="1" gradientUnits="userSpaceOnUse" gradientTransform="translate(16.2456 -98.949) rotate(-123.133) scale(4.03972 78.0973)">
<stop stop-color="#B35018"/>
<stop offset="1" stop-color="#DE8D35"/>
</radialGradient>
<radialGradient id="paint70_radial" cx="0" cy="0" r="1" gradientUnits="userSpaceOnUse" gradientTransform="translate(16.5002 -85.4402) rotate(-123.133) scale(4.01905 77.6978)">
<stop stop-color="#B35018"/>
<stop offset="1" stop-color="#DE8D35"/>
</radialGradient>
<radialGradient id="paint71_radial" cx="0" cy="0" r="1" gradientUnits="userSpaceOnUse" gradientTransform="translate(23.9508 -71.435) rotate(-123.133) scale(4.9111 94.9432)">
<stop stop-color="#B35018"/>
<stop offset="1" stop-color="#DE8D35"/>
</radialGradient>
<radialGradient id="paint72_radial" cx="0" cy="0" r="1" gradientUnits="userSpaceOnUse" gradientTransform="translate(23.7687 -67.0384) rotate(-123.133) scale(4.0738 78.7562)">
<stop stop-color="#B35018"/>
<stop offset="1" stop-color="#DE8D35"/>
</radialGradient>
<radialGradient id="paint73_radial" cx="0" cy="0" r="1" gradientUnits="userSpaceOnUse" gradientTransform="translate(17.0565 -91.5959) rotate(56.8667) scale(8.15622 157.679)">
<stop stop-color="#B35018"/>
<stop offset="1" stop-color="#DE8D35"/>
</radialGradient>
<radialGradient id="paint74_radial" cx="0" cy="0" r="1" gradientUnits="userSpaceOnUse" gradientTransform="translate(17.0374 -91.03) rotate(56.8667) scale(8.37692 161.946)">
<stop stop-color="#B35018"/>
<stop offset="1" stop-color="#DE8D35"/>
</radialGradient>
<radialGradient id="paint75_radial" cx="0" cy="0" r="1" gradientUnits="userSpaceOnUse" gradientTransform="translate(18.2663 -83.535) rotate(56.8667) scale(4.86303 94.0138)">
<stop stop-color="#B35018"/>
<stop offset="1" stop-color="#DE8D35"/>
</radialGradient>
<radialGradient id="paint76_radial" cx="0" cy="0" r="1" gradientUnits="userSpaceOnUse" gradientTransform="translate(18.1621 -94.2323) rotate(56.8667) scale(5.00022 96.6661)">
<stop stop-color="#B35018"/>
<stop offset="1" stop-color="#DE8D35"/>
</radialGradient>
<radialGradient id="paint77_radial" cx="0" cy="0" r="1" gradientUnits="userSpaceOnUse" gradientTransform="translate(20.977 -45.6848) rotate(-123.133) scale(5.91407 114.333)">
<stop stop-color="#B35018"/>
<stop offset="1" stop-color="#DE8D35"/>
</radialGradient>
<radialGradient id="paint78_radial" cx="0" cy="0" r="1" gradientUnits="userSpaceOnUse" gradientTransform="translate(19.429 -49.7926) rotate(-123.133) scale(6.95893 134.533)">
<stop stop-color="#B35018"/>
<stop offset="1" stop-color="#DE8D35"/>
</radialGradient>
<radialGradient id="paint79_radial" cx="0" cy="0" r="1" gradientUnits="userSpaceOnUse" gradientTransform="translate(20.7901 -47.2694) rotate(-123.133) scale(4.06878 78.6591)">
<stop stop-color="#B35018"/>
<stop offset="1" stop-color="#DE8D35"/>
</radialGradient>
<radialGradient id="paint80_radial" cx="0" cy="0" r="1" gradientUnits="userSpaceOnUse" gradientTransform="translate(24.6205 -78.4444) rotate(56.8646) scale(13.0663 146.489)">
<stop stop-color="#B35018"/>
<stop offset="1" stop-color="#DE8D35"/>
</radialGradient>
<radialGradient id="paint81_radial" cx="0" cy="0" r="1" gradientUnits="userSpaceOnUse" gradientTransform="translate(24.9561 -83.132) rotate(56.8646) scale(10.7805 120.862)">
<stop stop-color="#B35018"/>
<stop offset="1" stop-color="#DE8D35"/>
</radialGradient>
<radialGradient id="paint82_radial" cx="0" cy="0" r="1" gradientUnits="userSpaceOnUse" gradientTransform="translate(25.193 -87.7743) rotate(56.8646) scale(8.09891 90.7985)">
<stop stop-color="#B35018"/>
<stop offset="1" stop-color="#DE8D35"/>
</radialGradient>
<radialGradient id="paint83_radial" cx="0" cy="0" r="1" gradientUnits="userSpaceOnUse" gradientTransform="translate(27.7033 21.7947) rotate(-123.13) scale(13.4809 124.789)">
<stop stop-color="#B35018"/>
<stop offset="1" stop-color="#DE8D35"/>
</radialGradient>
<radialGradient id="paint84_radial" cx="0" cy="0" r="1" gradientUnits="userSpaceOnUse" gradientTransform="translate(28.093 25.3233) rotate(-123.13) scale(10.8978 100.878)">
<stop stop-color="#B35018"/>
<stop offset="1" stop-color="#DE8D35"/>
</radialGradient>
<radialGradient id="paint85_radial" cx="0" cy="0" r="1" gradientUnits="userSpaceOnUse" gradientTransform="translate(28.5647 28.654) rotate(-123.13) scale(7.74184 71.6642)">
<stop stop-color="#B35018"/>
<stop offset="1" stop-color="#DE8D35"/>
</radialGradient>
<radialGradient id="paint86_radial" cx="0" cy="0" r="1" gradientUnits="userSpaceOnUse" gradientTransform="translate(28.8064 30.5694) rotate(-123.13) scale(4.57244 42.326)">
<stop stop-color="#B35018"/>
<stop offset="1" stop-color="#DE8D35"/>
</radialGradient>
<radialGradient id="paint87_radial" cx="0" cy="0" r="1" gradientUnits="userSpaceOnUse" gradientTransform="translate(28.977 27.5616) rotate(-123.13) scale(2.65415 24.5687)">
<stop stop-color="#B35018"/>
<stop offset="1" stop-color="#DE8D35"/>
</radialGradient>
<radialGradient id="paint88_radial" cx="0" cy="0" r="1" gradientUnits="userSpaceOnUse" gradientTransform="translate(30.0356 5.79994) rotate(-123.133) scale(6.18727 119.615)">
<stop stop-color="#B35018"/>
<stop offset="1" stop-color="#DE8D35"/>
</radialGradient>
<radialGradient id="paint89_radial" cx="0" cy="0" r="1" gradientUnits="userSpaceOnUse" gradientTransform="translate(29.8571 6.89621) rotate(-123.133) scale(5.31255 102.704)">
<stop stop-color="#B35018"/>
<stop offset="1" stop-color="#DE8D35"/>
</radialGradient>
<radialGradient id="paint90_radial" cx="0" cy="0" r="1" gradientUnits="userSpaceOnUse" gradientTransform="translate(29.8357 8.71578) rotate(-123.133) scale(4.81596 93.1038)">
<stop stop-color="#B35018"/>
<stop offset="1" stop-color="#DE8D35"/>
</radialGradient>
<radialGradient id="paint91_radial" cx="0" cy="0" r="1" gradientUnits="userSpaceOnUse" gradientTransform="translate(29.8161 12.0804) rotate(-123.133) scale(4.01334 77.5873)">
<stop stop-color="#B35018"/>
<stop offset="1" stop-color="#DE8D35"/>
</radialGradient>
<radialGradient id="paint92_radial" cx="0" cy="0" r="1" gradientUnits="userSpaceOnUse" gradientTransform="translate(30.0118 21.9616) rotate(-123.134) scale(3.5943 69.4866)">
<stop stop-color="#B35018"/>
<stop offset="1" stop-color="#DE8D35"/>
</radialGradient>
<radialGradient id="paint93_radial" cx="0" cy="0" r="1" gradientUnits="userSpaceOnUse" gradientTransform="translate(26.7405 35.7799) rotate(-123.133) scale(7.30895 141.299)">
<stop stop-color="#B35018"/>
<stop offset="1" stop-color="#DE8D35"/>
</radialGradient>
<radialGradient id="paint94_radial" cx="0" cy="0" r="1" gradientUnits="userSpaceOnUse" gradientTransform="translate(26.8454 35.377) rotate(-123.133) scale(5.74496 111.064)">
<stop stop-color="#B35018"/>
<stop offset="1" stop-color="#DE8D35"/>
</radialGradient>
<radialGradient id="paint95_radial" cx="0" cy="0" r="1" gradientUnits="userSpaceOnUse" gradientTransform="translate(26.8161 34.6113) rotate(-123.133) scale(5.00694 96.7961)">
<stop stop-color="#B35018"/>
<stop offset="1" stop-color="#DE8D35"/>
</radialGradient>
<radialGradient id="paint96_radial" cx="0" cy="0" r="1" gradientUnits="userSpaceOnUse" gradientTransform="translate(26.8086 31.8938) rotate(-123.133) scale(3.54276 68.4899)">
<stop stop-color="#B35018"/>
<stop offset="1" stop-color="#DE8D35"/>
</radialGradient>
<radialGradient id="paint97_radial" cx="0" cy="0" r="1" gradientUnits="userSpaceOnUse" gradientTransform="translate(27.1883 23.5344) rotate(-123.133) scale(3.43884 66.4808)">
<stop stop-color="#B35018"/>
<stop offset="1" stop-color="#DE8D35"/>
</radialGradient>
<radialGradient id="paint98_radial" cx="0" cy="0" r="1" gradientUnits="userSpaceOnUse" gradientTransform="translate(27.7238 22.3857) rotate(56.8667) scale(8.08976 156.394)">
<stop stop-color="#B35018"/>
<stop offset="1" stop-color="#DE8D35"/>
</radialGradient>
<radialGradient id="paint99_radial" cx="0" cy="0" r="1" gradientUnits="userSpaceOnUse" gradientTransform="translate(27.6866 24.3843) rotate(56.8667) scale(8.25404 159.57)">
<stop stop-color="#B35018"/>
<stop offset="1" stop-color="#DE8D35"/>
</radialGradient>
<radialGradient id="paint100_radial" cx="0" cy="0" r="1" gradientUnits="userSpaceOnUse" gradientTransform="translate(28.953 26.9495) rotate(56.8666) scale(4.709 91.0361)">
<stop stop-color="#B35018"/>
<stop offset="1" stop-color="#DE8D35"/>
</radialGradient>
<radialGradient id="paint101_radial" cx="0" cy="0" r="1" gradientUnits="userSpaceOnUse" gradientTransform="translate(28.7632 38.2674) rotate(56.8667) scale(4.80785 92.947)">
<stop stop-color="#B35018"/>
<stop offset="1" stop-color="#DE8D35"/>
</radialGradient>
<radialGradient id="paint102_radial" cx="0" cy="0" r="1" gradientUnits="userSpaceOnUse" gradientTransform="translate(31.8643 11.692) rotate(-123.133) scale(5.76125 111.378)">
<stop stop-color="#B35018"/>
<stop offset="1" stop-color="#DE8D35"/>
</radialGradient>
<radialGradient id="paint103_radial" cx="0" cy="0" r="1" gradientUnits="userSpaceOnUse" gradientTransform="translate(30.3791 10.1147) rotate(-123.133) scale(6.65076 128.575)">
<stop stop-color="#B35018"/>
<stop offset="1" stop-color="#DE8D35"/>
</radialGradient>
<linearGradient id="paint104_linear" x1="17.5031" y1="16.5167" x2="19.9763" y2="16.5167" gradientUnits="userSpaceOnUse">
<stop stop-color="white" stop-opacity="0.3"/>
<stop offset="0.2678" stop-color="#CCC5C0" stop-opacity="0.4875"/>
<stop offset="1" stop-color="#422918"/>
</linearGradient>
<linearGradient id="paint105_linear" x1="27.5348" y1="16.6885" x2="30.008" y2="16.6885" gradientUnits="userSpaceOnUse">
<stop stop-color="white" stop-opacity="0.3"/>
<stop offset="0.2678" stop-color="#CCC5C0" stop-opacity="0.4875"/>
<stop offset="1" stop-color="#422918"/>
</linearGradient>
<linearGradient id="paint106_linear" x1="22.2728" y1="16.3542" x2="19.9767" y2="16.3542" gradientUnits="userSpaceOnUse">
<stop stop-color="white" stop-opacity="0.3"/>
<stop offset="0.2678" stop-color="#CCC5C0" stop-opacity="0.4875"/>
<stop offset="1" stop-color="#422918"/>
</linearGradient>
<linearGradient id="paint107_linear" x1="3.73456" y1="16.2308" x2="6.20774" y2="16.2308" gradientUnits="userSpaceOnUse">
<stop stop-color="white" stop-opacity="0.3"/>
<stop offset="0.2678" stop-color="#CCC5C0" stop-opacity="0.4875"/>
<stop offset="1" stop-color="#422918"/>
</linearGradient>
<linearGradient id="paint108_linear" x1="8.50325" y1="16.1515" x2="6.20725" y2="16.1515" gradientUnits="userSpaceOnUse">
<stop stop-color="white" stop-opacity="0.3"/>
<stop offset="0.2678" stop-color="#CCC5C0" stop-opacity="0.4875"/>
<stop offset="1" stop-color="#422918"/>
</linearGradient>
<linearGradient id="paint109_linear" x1="0.475983" y1="16.4839" x2="31.524" y2="16.4839" gradientUnits="userSpaceOnUse">
<stop/>
<stop offset="0.00429839" stop-color="#090909"/>
<stop offset="0.0277675" stop-color="#373737"/>
<stop offset="0.0542172" stop-color="#626262"/>
<stop offset="0.0826444" stop-color="#888888"/>
<stop offset="0.1136" stop-color="#A8A8A8"/>
<stop offset="0.1478" stop-color="#C4C4C4"/>
<stop offset="0.1864" stop-color="#DADADA"/>
<stop offset="0.2315" stop-color="#EBEBEB"/>
<stop offset="0.2872" stop-color="#F6F6F6"/>
<stop offset="0.3654" stop-color="#FDFDFD"/>
<stop offset="0.5824" stop-color="white"/>
<stop offset="0.6688" stop-color="#BBBBBB"/>
<stop offset="0.8455" stop-color="#363636"/>
<stop offset="0.9231"/>
</linearGradient>
</defs>
</svg>
