<svg width="32" height="32" viewBox="0 0 32 32" fill="none" xmlns="http://www.w3.org/2000/svg">
<path d="M16 31C24.2843 31 31 24.2843 31 16C31 7.71573 24.2843 1 16 1C7.71573 1 1 7.71573 1 16C1 24.2843 7.71573 31 16 31Z" fill="url(#paint0_linear)"/>
<path opacity="0.047619" d="M13.2384 23.6991H19.026C19.1986 23.6991 19.3446 23.5531 19.3446 23.3805V19.0796H23.4596C23.6322 19.0796 23.7782 18.9336 23.7782 18.7611V12.9867C23.7782 12.8141 23.6322 12.6681 23.4596 12.6681H19.3446V8.60618C19.3446 8.43362 19.1986 8.2876 19.026 8.2876H13.2384C13.0658 8.2876 12.9198 8.43362 12.9198 8.60618V12.6814H8.53929C8.36672 12.6814 8.2207 12.8274 8.2207 13V18.7876C8.2207 18.9602 8.36672 19.1062 8.53929 19.1062H12.9198V23.4071C12.9198 23.5664 13.0658 23.6991 13.2384 23.6991Z" fill="#F5F5F5"/>
<path opacity="0.0952381" d="M13.2785 23.6061H18.9864C19.159 23.6061 19.2917 23.4601 19.2917 23.3008V19.053H23.367C23.5395 19.053 23.6723 18.9203 23.6723 18.7477V13.0398C23.6723 12.8672 23.5263 12.7344 23.367 12.7344H19.2917V8.6725C19.2917 8.49993 19.159 8.36719 18.9864 8.36719H13.2785C13.1059 8.36719 12.9732 8.51321 12.9732 8.6725V12.7079H8.63246C8.45989 12.7079 8.32715 12.8539 8.32715 13.0132V18.7212C8.32715 18.8937 8.47317 19.0265 8.63246 19.0265H12.9599V23.2743C12.9599 23.4734 13.1059 23.6061 13.2785 23.6061Z" fill="#ECEBEB"/>
<path opacity="0.1429" d="M13.3049 23.5131H18.9465C19.119 23.5131 19.2518 23.3804 19.2518 23.2078V18.9999H23.3005C23.473 18.9999 23.6058 18.8671 23.6058 18.6946V13.0662C23.6058 12.8937 23.473 12.7609 23.3005 12.7609H19.2518V8.75209C19.2518 8.57952 19.119 8.44678 18.9465 8.44678H13.3049C13.1323 8.44678 12.9996 8.57952 12.9996 8.75209V12.7477H8.72523C8.55266 12.7477 8.41992 12.8804 8.41992 13.053V18.6813C8.41992 18.8539 8.55266 18.9866 8.72523 18.9866H12.9996V23.1946C12.9996 23.3804 13.1456 23.5131 13.3049 23.5131Z" fill="#E2E0E0"/>
<path opacity="0.1905" d="M13.3446 23.4202H18.9065C19.0791 23.4202 19.2118 23.2874 19.2118 23.1149V18.96H23.2207C23.3932 18.96 23.526 18.8273 23.526 18.6547V13.106C23.526 12.9334 23.3932 12.8007 23.2207 12.8007H19.2118V8.83168C19.2118 8.65911 19.0791 8.52637 18.9065 8.52637H13.3446C13.172 8.52637 13.0392 8.65911 13.0392 8.83168V12.8007H8.81801C8.64544 12.8007 8.5127 12.9334 8.5127 13.106V18.668C8.5127 18.8405 8.64544 18.9733 8.81801 18.9733H13.0392V23.1281C13.0392 23.2874 13.1853 23.4202 13.3446 23.4202Z" fill="#D8D6D6"/>
<path opacity="0.2381" d="M13.3842 23.3277H18.8665C19.0258 23.3277 19.1718 23.1949 19.1718 23.0224V18.9073H23.1409C23.3002 18.9073 23.4462 18.7746 23.4462 18.602V13.1463C23.4462 12.987 23.3134 12.841 23.1409 12.841H19.1718V8.91175C19.1718 8.75246 19.0391 8.60645 18.8665 8.60645H13.3842C13.2249 8.60645 13.0789 8.73919 13.0789 8.91175V12.841H8.91078C8.75149 12.841 8.60547 12.9737 8.60547 13.1463V18.6286C8.60547 18.7879 8.73821 18.9339 8.91078 18.9339H13.0789V23.0489C13.0789 23.1949 13.2117 23.3277 13.3842 23.3277Z" fill="#CECCCC"/>
<path opacity="0.2857" d="M13.4249 23.2346H18.8275C18.9868 23.2346 19.1196 23.1019 19.1196 22.9426V18.8806H23.0488C23.2081 18.8806 23.3408 18.7479 23.3408 18.5886V13.1859C23.3408 13.0267 23.2081 12.8939 23.0488 12.8939H19.1196V8.99125C19.1196 8.83196 18.9868 8.69922 18.8275 8.69922H13.4249C13.2656 8.69922 13.1328 8.83196 13.1328 8.99125V12.8806H9.00453C8.83196 12.8806 8.69922 13.0134 8.69922 13.1859V18.5886C8.69922 18.7479 8.83196 18.8806 8.99125 18.8806H13.1196V22.9426C13.1196 23.1019 13.2523 23.2346 13.4249 23.2346Z" fill="#C5C2C2"/>
<path opacity="0.3333" d="M13.4517 23.1416H18.788C18.9473 23.1416 19.08 23.0089 19.08 22.8496V18.8275H22.9694C23.1287 18.8275 23.2614 18.6947 23.2614 18.5354V13.2124C23.2614 13.0531 23.1287 12.9204 22.9694 12.9204H19.08V9.07084C19.08 8.91155 18.9473 8.77881 18.788 8.77881H13.465C13.3057 8.77881 13.1729 8.91155 13.1729 9.07084V12.9337H9.0977C8.93841 12.9337 8.80566 13.0664 8.80566 13.2257V18.5487C8.80566 18.708 8.93841 18.8408 9.0977 18.8408H13.1729V22.8629C13.1596 23.0089 13.2924 23.1416 13.4517 23.1416Z" fill="#BBB7B7"/>
<path opacity="0.381" d="M13.491 23.0487H18.7476C18.9069 23.0487 19.0396 22.9159 19.0396 22.7566V18.7876H22.8892C23.0485 18.7876 23.1812 18.6549 23.1812 18.4956V13.2522C23.1812 13.0929 23.0485 12.9602 22.8892 12.9602H19.0396V9.15043C19.0396 8.99114 18.9069 8.8584 18.7476 8.8584H13.491C13.3317 8.8584 13.1989 8.99114 13.1989 9.15043V12.9734H9.1768C9.01751 12.9734 8.88477 13.1062 8.88477 13.2655V18.5221C8.88477 18.6814 9.01751 18.8141 9.1768 18.8141H13.2122V22.7832C13.2122 22.9292 13.3317 23.0487 13.491 23.0487Z" fill="#B1ADAD"/>
<path opacity="0.4286" d="M13.5301 22.9556H18.707C18.8663 22.9556 18.9858 22.8229 18.9858 22.6768V18.7476H22.8088C22.9681 18.7476 23.0876 18.6149 23.0876 18.4689V13.2919C23.0876 13.1326 22.9548 13.0131 22.8088 13.0131H18.9858V9.22993C18.9858 9.07064 18.8663 8.95117 18.707 8.95117H13.5301C13.3708 8.95117 13.2513 9.08392 13.2513 9.22993V13.0131H9.269C9.1097 13.0131 8.99023 13.1459 8.99023 13.2919V18.4689C8.99023 18.6282 9.1097 18.7476 9.269 18.7476H13.238V22.6768C13.2513 22.8361 13.3708 22.9556 13.5301 22.9556Z" fill="#A8A3A3"/>
<path opacity="0.4762" d="M13.5707 22.8627H18.6681C18.8273 22.8627 18.9468 22.7432 18.9468 22.584V18.7078H22.73C22.8893 18.7078 23.0088 18.5884 23.0088 18.4291V13.3317C23.0088 13.1724 22.8893 13.053 22.73 13.053H18.9468V9.29634C18.9468 9.13705 18.8273 9.01758 18.6681 9.01758H13.5707C13.4114 9.01758 13.2919 9.13705 13.2919 9.29634V13.053H9.36275C9.20345 13.053 9.08398 13.1724 9.08398 13.3317V18.4291C9.08398 18.5884 9.20345 18.7078 9.36275 18.7078H13.2787V22.584C13.2919 22.7432 13.4114 22.8627 13.5707 22.8627Z" fill="#9E9999"/>
<path opacity="0.5238" d="M13.5961 22.7697H18.6138C18.7599 22.7697 18.8926 22.6503 18.8926 22.491V18.6547H22.636C22.782 18.6547 22.9147 18.5352 22.9147 18.3759V13.3715C22.9147 13.2255 22.7952 13.0927 22.636 13.0927H18.8926V9.37593C18.8926 9.22991 18.7731 9.09717 18.6138 9.09717H13.5961C13.4501 9.09717 13.3174 9.21664 13.3174 9.37593V13.0927H9.45454C9.30852 13.0927 9.17578 13.2122 9.17578 13.3715V18.3892C9.17578 18.5352 9.29525 18.668 9.45454 18.668H13.3306V22.5042C13.3306 22.6503 13.4501 22.7697 13.5961 22.7697Z" fill="#948E8E"/>
<path opacity="0.5714" d="M13.6372 22.6772H18.5885C18.7345 22.6772 18.854 22.5577 18.854 22.4117V18.6285H22.5575C22.7036 18.6285 22.823 18.509 22.823 18.363V13.4117C22.823 13.2657 22.7036 13.1462 22.5575 13.1462H18.854V9.45592C18.854 9.3099 18.7345 9.19043 18.5885 9.19043H13.6372C13.4912 9.19043 13.3717 9.3099 13.3717 9.45592V13.1462H9.54869C9.40267 13.1462 9.2832 13.2657 9.2832 13.4117V18.3497C9.2832 18.4957 9.40267 18.6152 9.54869 18.6152H13.3717V22.3984C13.3717 22.5577 13.4912 22.6772 13.6372 22.6772Z" fill="#8A8484"/>
<path opacity="0.619" d="M13.6769 22.5837H18.5485C18.6946 22.5837 18.814 22.4642 18.814 22.3182V18.5748H22.4777C22.6238 18.5748 22.7432 18.4554 22.7432 18.3094V13.4509C22.7432 13.3049 22.6238 13.1855 22.4777 13.1855H18.814V9.53502C18.814 9.389 18.6946 9.26953 18.5485 9.26953H13.6769C13.5308 9.26953 13.4114 9.389 13.4114 9.53502V13.1855H9.64146C9.49545 13.1855 9.37598 13.3049 9.37598 13.4509V18.3226C9.37598 18.4686 9.49545 18.5881 9.64146 18.5881H13.4114V22.3315C13.4114 22.4642 13.5308 22.5837 13.6769 22.5837Z" fill="#817A7A"/>
<path opacity="0.6667" d="M13.7029 22.4912H18.4949C18.6409 22.4912 18.7604 22.3717 18.7604 22.2257V18.5354H22.3843C22.5303 18.5354 22.6498 18.416 22.6498 18.27V13.4912C22.6498 13.3452 22.5303 13.2257 22.3843 13.2257H18.7604V9.6151C18.7604 9.46908 18.6409 9.34961 18.4949 9.34961H13.7029C13.5568 9.34961 13.4374 9.46908 13.4374 9.6151V13.2257H9.72056C9.57455 13.2257 9.45508 13.3452 9.45508 13.4912V18.2832C9.45508 18.4293 9.57455 18.5487 9.72056 18.5487H13.4374V22.239C13.4507 22.3717 13.5701 22.4912 13.7029 22.4912Z" fill="#777070"/>
<path opacity="0.7143" d="M13.7429 22.3981H18.4553C18.6013 22.3981 18.7075 22.2787 18.7075 22.1459V18.4955H22.2916C22.4376 18.4955 22.5438 18.376 22.5438 18.2433V13.5309C22.5438 13.3849 22.4244 13.2787 22.2916 13.2787H18.7075V9.6946C18.7075 9.54858 18.5881 9.44238 18.4553 9.44238H13.7429C13.5969 9.44238 13.4907 9.56185 13.4907 9.6946V13.2654H9.81374C9.66772 13.2654 9.56152 13.3849 9.56152 13.5176V18.23C9.56152 18.376 9.68099 18.4822 9.81374 18.4822H13.4775V22.1326C13.4907 22.2787 13.6102 22.3981 13.7429 22.3981Z" fill="#6D6565"/>
<path opacity="0.7619" d="M13.7826 22.3052H18.4154C18.5614 22.3052 18.6676 22.1857 18.6676 22.0529V18.4556H22.2251C22.3711 18.4556 22.4773 18.3361 22.4773 18.2034V13.5574C22.4773 13.4114 22.3578 13.3052 22.2251 13.3052H18.6676V9.77419C18.6676 9.62817 18.5481 9.52197 18.4154 9.52197H13.7826C13.6366 9.52197 13.5304 9.64144 13.5304 9.77419V13.3184H9.90651C9.76049 13.3184 9.6543 13.4379 9.6543 13.5706V18.2034C9.6543 18.3494 9.76049 18.4556 9.90651 18.4556H13.5304V22.0529C13.5304 22.1857 13.6366 22.3052 13.7826 22.3052Z" fill="#645B5B"/>
<path opacity="0.8095" d="M13.8233 22.2127H18.3896C18.5224 22.2127 18.6419 22.1065 18.6419 21.9605V18.4162H22.1595C22.2923 18.4162 22.4118 18.31 22.4118 18.164V13.5976C22.4118 13.4649 22.3056 13.3454 22.1595 13.3454H18.6419V9.85426C18.6419 9.72152 18.5357 9.60205 18.3896 9.60205H13.8233C13.6905 9.60205 13.5711 9.70824 13.5711 9.85426V13.3587H10.0003C9.86752 13.3587 9.74805 13.4649 9.74805 13.6109V18.1773C9.74805 18.31 9.85424 18.4295 10.0003 18.4295H13.5711V21.9737C13.5711 22.1065 13.6772 22.2127 13.8233 22.2127Z" fill="#5A5151"/>
<path opacity="0.8571" d="M13.8501 22.1197H18.3368C18.4695 22.1197 18.5757 22.0135 18.5757 21.8808V18.3763H22.0536C22.1864 18.3763 22.2925 18.2701 22.2925 18.1374V13.6374C22.2925 13.5046 22.1864 13.3985 22.0536 13.3985H18.5757V9.92058C18.5757 9.78783 18.4695 9.68164 18.3368 9.68164H13.8501C13.7173 9.68164 13.6111 9.78783 13.6111 9.92058V13.3852H10.0934C9.96069 13.3852 9.85449 13.4914 9.85449 13.6241V18.1108C9.85449 18.2436 9.96069 18.3498 10.0934 18.3498H13.6111V21.8542C13.6111 22.0135 13.7173 22.1197 13.8501 22.1197Z" fill="#504747"/>
<path opacity="0.9048" d="M13.8888 22.0267H18.2958C18.4286 22.0267 18.5348 21.9205 18.5348 21.7878V18.3365H21.9728C22.1056 18.3365 22.2118 18.2303 22.2118 18.0975V13.6772C22.2118 13.5444 22.1056 13.4382 21.9728 13.4382H18.5348V10.0002C18.5348 9.86743 18.4286 9.76123 18.2958 9.76123H13.8888C13.756 9.76123 13.6498 9.86743 13.6498 10.0002V13.4382H10.1852C10.0525 13.4382 9.94629 13.5444 9.94629 13.6772V18.0842C9.94629 18.217 10.0525 18.3232 10.1852 18.3232H13.6498V21.7745C13.6498 21.9205 13.756 22.0267 13.8888 22.0267Z" fill="#463C3C"/>
<path opacity="0.9524" d="M13.9284 21.9337H18.2559C18.3886 21.9337 18.4948 21.8275 18.4948 21.6948V18.2833H21.893C22.0258 18.2833 22.132 18.1771 22.132 18.0444V13.7169C22.132 13.5842 22.0258 13.478 21.893 13.478H18.4948V10.0798C18.4948 9.94702 18.3886 9.84082 18.2559 9.84082H13.9284C13.7957 9.84082 13.6895 9.94702 13.6895 10.0798V13.478H10.278C10.1453 13.478 10.0391 13.5842 10.0391 13.7169V18.0444C10.0391 18.1771 10.1453 18.2833 10.278 18.2833H13.6895V21.6948C13.6895 21.8275 13.7957 21.9337 13.9284 21.9337Z" fill="#3D3232"/>
<path d="M21.8136 13.5178H18.4552V10.1593C18.4552 10.0266 18.349 9.92041 18.2163 9.92041H13.9685C13.8358 9.92041 13.7429 10.0266 13.7429 10.1593V13.5178H10.3712C10.2384 13.5178 10.1455 13.624 10.1455 13.7434V17.9912C10.1455 18.124 10.2517 18.2169 10.3712 18.2169H13.7296V21.5753C13.7296 21.708 13.8358 21.8142 13.9552 21.8142H18.203C18.3358 21.8142 18.442 21.708 18.442 21.5753V18.2169H21.8004C21.9331 18.2169 22.0393 18.1107 22.0393 17.9912V13.7434C22.0393 13.624 21.9464 13.5178 21.8136 13.5178Z" fill="#332828"/>
<path d="M22.6366 13.0795H18.8535C18.7738 13.0795 18.7074 13.0131 18.7074 12.9334V9.15025C18.7074 9.00423 18.588 8.88477 18.442 8.88477H13.4774C13.3313 8.88477 13.2119 9.00423 13.2119 9.15025V9.29627V12.9334C13.2119 13.0131 13.1455 13.0795 13.0659 13.0795H9.26939C9.12338 13.0795 9.00391 13.1989 9.00391 13.3449V18.3095C9.00391 18.4556 9.12338 18.575 9.26939 18.575H13.0526C13.1322 18.575 13.1986 18.6414 13.1986 18.721V22.3582V22.5042C13.1986 22.6503 13.3181 22.7697 13.4641 22.7697H18.4287C18.5747 22.7697 18.6942 22.6503 18.6942 22.5042V18.721C18.6942 18.6414 18.7605 18.575 18.8402 18.575H22.6366C22.7827 18.575 22.9021 18.4556 22.9021 18.3095V13.3449C22.9021 13.1989 22.7827 13.0795 22.6366 13.0795Z" fill="white"/>
<path opacity="0.8" d="M16 31C24.2843 31 31 24.2843 31 16C31 7.71573 24.2843 1 16 1C7.71573 1 1 7.71573 1 16C1 24.2843 7.71573 31 16 31Z" stroke="url(#paint1_linear)" stroke-width="2" stroke-miterlimit="10"/>
<defs>
<linearGradient id="paint0_linear" x1="0.999535" y1="16.0003" x2="30.9995" y2="16.0003" gradientUnits="userSpaceOnUse">
<stop stop-color="#BF1400"/>
<stop offset="0.3132" stop-color="#ED3000"/>
<stop offset="1" stop-color="#AB0000"/>
</linearGradient>
<linearGradient id="paint1_linear" x1="0.475983" y1="16" x2="31.524" y2="16" gradientUnits="userSpaceOnUse">
<stop/>
<stop offset="0.00429839" stop-color="#090909"/>
<stop offset="0.0277675" stop-color="#373737"/>
<stop offset="0.0542172" stop-color="#626262"/>
<stop offset="0.0826444" stop-color="#888888"/>
<stop offset="0.1136" stop-color="#A8A8A8"/>
<stop offset="0.1478" stop-color="#C4C4C4"/>
<stop offset="0.1864" stop-color="#DADADA"/>
<stop offset="0.2315" stop-color="#EBEBEB"/>
<stop offset="0.2872" stop-color="#F6F6F6"/>
<stop offset="0.3654" stop-color="#FDFDFD"/>
<stop offset="0.5824" stop-color="white"/>
<stop offset="0.6688" stop-color="#BBBBBB"/>
<stop offset="0.8455" stop-color="#363636"/>
<stop offset="0.9231"/>
</linearGradient>
</defs>
</svg>
