<svg height="511pt" viewBox="0 0 511.99988 511" width="511pt" xmlns="http://www.w3.org/2000/svg"><path d="m431.449219 80.636719c-47.734375-47.734375-111.203125-74.023438-178.714844-74.023438-67.507813 0-130.972656 26.289063-178.710937 74.023438-47.734376 47.738281-74.023438 111.207031-74.023438 178.714843 0 67.507813 26.289062 130.976563 74.023438 178.710938 47.738281 47.734375 111.207031 74.023438 178.714843 74.023438 67.507813 0 130.976563-26.289063 178.710938-74.023438s74.023437-111.203125 74.023437-178.710938c0-67.507812-26.289062-130.976562-74.023437-178.714843zm0 0" fill="#fc5356"/><path d="m252.742188 6.613281v505.472657c67.507812 0 130.972656-26.289063 178.707031-74.023438s74.023437-111.203125 74.023437-178.710938c0-67.507812-26.289062-130.976562-74.023437-178.714843-47.734375-47.730469-111.199219-74.019531-178.707031-74.023438zm0 0" fill="#f70b57"/><path d="m252.734375 87.40625c-94.808594 0-171.945313 77.132812-171.945313 171.945312 0 94.808594 77.136719 171.945313 171.945313 171.945313 94.8125 0 171.949219-77.136719 171.949219-171.945313 0-94.8125-77.136719-171.945312-171.949219-171.945312zm0 0" fill="#fff"/><path d="m252.742188 87.40625v343.890625c94.808593-.003906 171.941406-77.136719 171.941406-171.945313 0-94.808593-77.132813-171.941406-171.941406-171.945312zm0 0" fill="#c8fdfa"/><path d="m252.734375 173.1875c-47.507813 0-86.160156 38.652344-86.160156 86.160156 0 47.511719 38.652343 86.164063 86.160156 86.164063 47.511719 0 86.164063-38.652344 86.164063-86.164063 0-47.507812-38.652344-86.160156-86.164063-86.160156zm0 0" fill="#fc5356"/><path d="m252.742188 173.1875v172.324219c47.507812-.003907 86.15625-38.652344 86.15625-86.160157 0-47.507812-38.648438-86.160156-86.15625-86.164062zm0 0" fill="#f70b57"/><path d="m375.683594 138.132812c-5.894532-5.980468-15.523438-6.046874-21.503906-.152343l-112.117188 110.542969c-5.980469 5.894531-6.046875 15.519531-.152344 21.5 2.976563 3.019531 6.898438 4.53125 10.828125 4.53125 3.855469 0 7.710938-1.457032 10.671875-4.375l112.121094-110.542969c5.980469-5.898438 6.046875-15.523438.152344-21.503907zm0 0" fill="#45686e"/><path d="m354.179688 137.980469-101.4375 100.011719v36.5625c3.855468 0 7.707031-1.457032 10.667968-4.375l112.121094-110.542969c5.980469-5.898438 6.046875-15.523438.152344-21.503907-5.894532-5.980468-15.523438-6.046874-21.503906-.152343zm0 0" fill="#2a3b3b"/><path d="m511.160156 95.851562c-1.878906-5.425781-6.65625-9.332031-12.347656-10.09375l-64.339844-8.609374-10.710937-63.953126c-.945313-5.648437-4.988281-10.289062-10.453125-12-5.46875-1.710937-11.433594-.207031-15.429688 3.898438l-56.476562 57.933594c-3.382813 3.46875-4.90625 8.34375-4.109375 13.121094l12.566406 75.164062c1.101563 6.585938 6.367187 11.679688 12.984375 12.566406l75.535156 10.097656c.671875.089844 1.347656.132813 2.015625.132813 4.078125 0 8.023438-1.644531 10.90625-4.613281l56.402344-58.074219c4-4.121094 5.339844-10.144531 3.457031-15.570313zm0 0" fill="#ffd330"/></svg>