<?xml version="1.0" encoding="iso-8859-1"?>
<!-- Generator: Adobe Illustrator 19.0.0, SVG Export Plug-In . SVG Version: 6.00 Build 0)  -->
<svg version="1.1" id="Capa_1" xmlns="http://www.w3.org/2000/svg" xmlns:xlink="http://www.w3.org/1999/xlink" x="0px" y="0px"
	 viewBox="0 0 512 512" style="enable-background:new 0 0 512 512;" xml:space="preserve">
<circle style="fill:#FF623E;" cx="256" cy="256" r="256"/>
<path style="fill:#CA1C00;" d="M509.938,288.646L266.292,45h-20.583v60.299c-75.223,5.063-135.347,65.186-140.409,140.409H45v20.583
	l243.646,243.646C403.925,495.265,495.265,403.925,509.938,288.646z"/>
<circle style="fill:#FFFFFF;" cx="256" cy="256" r="151.06"/>
<path style="fill:#FFF5CB;" d="M407.06,256c0,83.43-67.63,151.06-151.06,151.06V104.94C339.43,104.94,407.06,172.57,407.06,256z"/>
<circle style="fill:#54FBFF;" cx="256" cy="256" r="128.07"/>
<path style="fill:#00D9E0;" d="M384.07,256c0,70.73-57.34,128.07-128.07,128.07V127.93C326.73,127.93,384.07,185.27,384.07,256z"/>
<polygon style="fill:#FFFFFF;" points="467,245.708 266.292,245.708 266.292,45 245.708,45 245.708,245.708 45,245.708 45,266.292 
	245.708,266.292 245.708,467 266.292,467 266.292,266.292 467,266.292 "/>
<polygon style="fill:#FFF5CB;" points="467,245.71 467,266.29 266.29,266.29 266.29,467 256,467 256,45 266.29,45 266.29,245.71 "/>
<g>
</g>
<g>
</g>
<g>
</g>
<g>
</g>
<g>
</g>
<g>
</g>
<g>
</g>
<g>
</g>
<g>
</g>
<g>
</g>
<g>
</g>
<g>
</g>
<g>
</g>
<g>
</g>
<g>
</g>
</svg>
