<svg width="32" height="32" viewBox="0 0 32 32" fill="none" xmlns="http://www.w3.org/2000/svg">
<path d="M15.9713 2.88281C8.72927 2.88281 2.86914 8.7624 2.86914 16.0126C2.86914 23.2628 8.74206 29.1296 15.9841 29.1168C23.226 29.1168 29.0862 23.2372 29.0862 15.987C29.0734 8.74959 23.2004 2.88281 15.9713 2.88281Z" fill="white"/>
<path d="M10.5198 16C10.5198 19.023 12.9636 21.4696 15.9833 21.4696V24.877C11.0956 24.877 7.11631 20.906 7.10352 16.0128C7.10352 11.1195 11.0828 7.13574 15.9705 7.13574V10.5431C12.9636 10.5431 10.5198 12.9897 10.5198 16Z" fill="url(#paint0_linear)"/>
<path d="M4.4035 16.0128C4.4035 22.4048 9.61108 27.6055 15.9958 27.5927V31C7.73021 31 1.01281 24.2878 1.00002 16.0128C0.987223 7.73783 7.70462 1.01281 15.9702 1V4.40734C9.58549 4.42015 4.3907 9.62084 4.4035 16.0128Z" fill="url(#paint1_linear)"/>
<path d="M15.983 13.1821V18.8311C14.422 18.8311 13.1553 17.5758 13.1553 16.013C13.1553 14.4503 14.422 13.1821 15.983 13.1821Z" fill="#FF3000"/>
<path d="M18.7973 15.9999C18.7973 17.5626 17.5306 18.818 15.9824 18.818V13.1689C17.5306 13.1818 18.7973 14.4371 18.7973 15.9999Z" fill="#DD2703"/>
<path d="M24.8494 16C24.8494 20.8932 20.8829 24.877 15.9952 24.877V21.4697C19.0148 21.4697 21.4459 19.0231 21.4459 16C21.4459 12.9897 19.002 10.5431 15.9824 10.5431V7.13577C20.8573 7.12296 24.8366 11.1067 24.8494 16Z" fill="#DD2703"/>
<path d="M30.9664 15.9872C30.9792 24.2622 24.2618 30.9872 15.9962 31V27.5927C22.3809 27.5927 27.5629 22.3792 27.5629 15.9872C27.5629 9.59522 22.3553 4.40734 15.9834 4.40734V1C24.2234 1 30.9536 7.72502 30.9664 15.9872Z" fill="url(#paint2_linear)"/>
<path d="M29.0928 7.08447L27.4551 10.7736L30.9993 12.6823L23.3223 12.1827L29.0928 7.08447Z" fill="#BDBDBD"/>
<path d="M12.5231 16.3842C11.8834 16.602 11.2948 16.6148 11.2308 16.397C11.1541 16.1921 11.6275 15.8334 12.2672 15.6156L28.2994 10.1459C28.9392 9.92818 29.5277 9.91537 29.5917 10.1331C29.6685 10.3381 29.1951 10.6968 28.5553 10.9145L12.5231 16.3842Z" fill="#757575"/>
<path opacity="0.8" d="M16 31C24.2843 31 31 24.2843 31 16C31 7.71573 24.2843 1 16 1C7.71573 1 1 7.71573 1 16C1 24.2843 7.71573 31 16 31Z" stroke="url(#paint3_linear)" stroke-width="2" stroke-miterlimit="10"/>
<defs>
<linearGradient id="paint0_linear" x1="7.11136" y1="16.0012" x2="15.9862" y2="16.0012" gradientUnits="userSpaceOnUse">
<stop stop-color="#BF1400"/>
<stop offset="0.3132" stop-color="#ED3000"/>
<stop offset="1" stop-color="#990000"/>
</linearGradient>
<linearGradient id="paint1_linear" x1="0.996154" y1="16.0009" x2="15.9903" y2="16.0009" gradientUnits="userSpaceOnUse">
<stop stop-color="#BF1400"/>
<stop offset="0.3132" stop-color="#ED3000"/>
<stop offset="1" stop-color="#990000"/>
</linearGradient>
<linearGradient id="paint2_linear" x1="15.9684" y1="16.0009" x2="30.9615" y2="16.0009" gradientUnits="userSpaceOnUse">
<stop stop-color="#BF1400"/>
<stop offset="0.3132" stop-color="#ED3000"/>
<stop offset="1" stop-color="#AB0000"/>
</linearGradient>
<linearGradient id="paint3_linear" x1="0.475983" y1="16" x2="31.524" y2="16" gradientUnits="userSpaceOnUse">
<stop/>
<stop offset="0.00429839" stop-color="#090909"/>
<stop offset="0.0277675" stop-color="#373737"/>
<stop offset="0.0542172" stop-color="#626262"/>
<stop offset="0.0826444" stop-color="#888888"/>
<stop offset="0.1136" stop-color="#A8A8A8"/>
<stop offset="0.1478" stop-color="#C4C4C4"/>
<stop offset="0.1864" stop-color="#DADADA"/>
<stop offset="0.2315" stop-color="#EBEBEB"/>
<stop offset="0.2872" stop-color="#F6F6F6"/>
<stop offset="0.3654" stop-color="#FDFDFD"/>
<stop offset="0.5824" stop-color="white"/>
<stop offset="0.6688" stop-color="#BBBBBB"/>
<stop offset="0.8455" stop-color="#363636"/>
<stop offset="0.9231"/>
</linearGradient>
</defs>
</svg>
