<svg width="32" height="32" viewBox="0 0 32 32" fill="none" xmlns="http://www.w3.org/2000/svg">
<path d="M16 31C24.2843 31 31 24.2843 31 16C31 7.71573 24.2843 1 16 1C7.71573 1 1 7.71573 1 16C1 24.2843 7.71573 31 16 31Z" fill="url(#paint0_linear)"/>
<path d="M23.4069 8.79241C23.1281 8.91188 22.8759 8.97825 22.6237 9.03135C22.4113 9.07117 22.2387 9.08445 22.0795 9.08445C21.8671 9.08445 21.6679 9.04462 21.4954 8.96498C20.9777 8.75259 20.6591 8.18179 20.6856 7.63754C20.6989 7.25259 20.8582 6.89418 20.9777 6.53577C21.2166 5.80569 21.429 5.06232 21.6414 4.31896C21.575 4.4517 21.4821 4.5579 21.3892 4.67737C20.9511 5.23489 20.5662 5.81896 20.1414 6.37648C20.0219 6.53577 19.9025 6.69507 19.7697 6.84108C19.637 7.00038 19.4777 7.18622 19.2653 7.23931C18.9202 7.33223 18.4821 7.01365 18.2432 6.78799C17.9113 6.48268 17.7387 6.08445 17.5795 5.65967C17.4334 5.26144 17.2874 4.84993 17.1414 4.4517C17.1149 4.37206 17.0219 4.23931 17.0352 4.15967L16.8892 6.20392C16.8626 6.36321 16.8228 6.50923 16.783 6.65524L16.7697 6.69507C16.6635 7.02692 16.5441 7.30569 16.3848 7.54462C16.1724 7.86321 15.9202 8.06232 15.6149 8.14197C15.4556 8.18179 15.283 8.19507 15.1237 8.15524C14.9644 8.12869 14.8317 8.06232 14.7255 8.00923C14.6724 7.98268 13.6768 6.97383 13.6237 6.94728L13.8759 8.16852C13.8626 8.26144 13.8361 8.34108 13.8095 8.434C13.7564 8.58002 13.6768 8.69949 13.5573 8.77914C13.4379 8.88533 13.2387 8.93843 13.0396 8.9517C12.6281 8.96498 12.2166 8.79241 11.9113 8.64639C11.5927 8.4871 11.2609 8.30126 10.8626 8.0225C10.5706 7.82338 10.2918 7.611 10.0131 7.38533L7.53078 5.12869L9.30954 7.84993C9.52193 8.22161 9.6945 8.56675 9.84052 8.89861C10.0662 9.40303 10.2387 9.84108 10.3449 10.2393C10.491 10.7836 10.5308 11.2083 10.4777 11.58C10.4379 11.8322 10.3449 12.0446 10.2122 12.1906C10.0795 12.3632 9.86707 12.4827 9.6414 12.5358C9.40246 12.5889 9.15025 12.6021 8.85822 12.5623L7.91574 12.4163L8.43344 13.1729C8.49981 13.2659 8.55291 13.3588 8.59273 13.4517C8.68565 13.6508 8.7122 13.8367 8.69892 13.996C8.67238 14.1951 8.55291 14.3809 8.36707 14.5136C8.18123 14.6464 7.96884 14.726 7.80954 14.7659C7.59716 14.8322 7.39804 14.8588 7.2122 14.8853C6.72105 14.9384 6.16353 14.9517 5.51308 14.9119L2.88477 14.5004L5.38034 15.7614C5.75202 15.9738 6.11043 16.1995 6.41574 16.4384C6.78742 16.7172 7.06618 16.9694 7.27857 17.2349C7.42459 17.4075 7.51751 17.5667 7.58388 17.7128C7.66353 17.8853 7.70335 18.0712 7.69008 18.2305C7.6768 18.3898 7.6237 18.5358 7.51751 18.6685C7.43786 18.7614 7.34494 18.8544 7.22547 18.934L6.6414 19.3322L7.34494 19.6641C7.59716 19.7836 7.80954 19.9296 7.98211 20.1021C8.10158 20.2349 8.20777 20.3809 8.27415 20.5269C8.34052 20.6729 8.38034 20.8455 8.39361 21.0446C8.40689 21.3632 8.34052 21.6818 8.16795 22.0535C8.00866 22.3853 7.783 22.7437 7.47769 23.0889L5.64583 24.7349L8.07503 23.7659C8.47326 23.6597 8.83167 23.5933 9.16353 23.5535C9.5883 23.5004 9.94671 23.5004 10.2653 23.5535C10.4777 23.58 10.6503 23.6331 10.8095 23.6995C10.9821 23.7791 11.1414 23.8853 11.2609 24.0048C11.3671 24.1243 11.46 24.257 11.5131 24.3898V24.403C11.5396 24.4827 11.5662 24.5623 11.5795 24.642L11.5131 25.7305L12.283 25.0004C12.3892 24.9473 12.5087 24.9075 12.6414 24.8809C12.9069 24.8278 13.2653 24.8809 13.5441 25.0136C13.8228 25.1464 14.0883 25.3455 14.314 25.611V25.6243C14.4069 25.7305 14.5131 25.8499 14.6193 25.996C14.6724 26.0623 14.7255 26.142 14.7786 26.2216L15.4157 27.5225L15.6281 26.1951C15.6812 26.0225 15.7476 25.8765 15.8272 25.7305C15.9998 25.4252 16.2122 25.226 16.4777 25.1066C16.6237 25.0402 16.783 25.0136 16.9423 25.0136C17.075 25.0136 17.221 25.0402 17.3671 25.0933C17.5396 25.1464 17.6989 25.226 17.8715 25.3322L18.4821 25.7305L18.575 25.0933C18.575 25.0667 18.5883 25.0402 18.5883 25.0004C18.6016 24.9473 18.6281 24.8809 18.6547 24.8278C18.7078 24.7482 18.7741 24.6951 18.8538 24.6685C18.9334 24.642 19.0264 24.6287 19.1458 24.6552C19.2387 24.6685 19.3317 24.7083 19.398 24.7349C19.7166 24.8809 19.9821 25.0933 20.221 25.2924C20.3272 25.3853 20.4467 25.4915 20.5662 25.5977L22.6901 27.9473L21.3361 25.226C21.2299 24.934 21.1237 24.642 21.0573 24.3632C20.9379 23.9384 20.898 23.5535 20.898 23.2216C20.898 23.0092 20.9379 22.8367 20.991 22.6774C21.0573 22.4915 21.1635 22.3455 21.3095 22.226C21.4423 22.1198 21.6016 22.0402 21.8007 22.0136C21.8538 22.0004 21.9069 22.0004 21.9733 22.0004L23.4069 22.3853L22.3051 21.403C22.2918 21.3765 22.2786 21.3632 22.2653 21.3499C22.1724 21.1774 22.1326 21.0313 22.1326 20.8721C22.1326 20.6995 22.2255 20.5004 22.3715 20.3676C22.5308 20.2216 22.7166 20.1552 22.8892 20.1021C23.221 20.0092 23.606 19.9827 24.0839 20.0225C24.3759 20.049 24.6812 20.0889 24.9865 20.1552L27.5352 20.9384L25.3582 19.4119C25.2387 19.3057 25.1326 19.1995 25.0396 19.1066C24.814 18.8809 24.5352 18.5756 24.3361 18.2305C24.2697 18.111 24.1768 17.9252 24.137 17.7128C24.1104 17.5269 24.137 17.3278 24.2299 17.1951C24.3095 17.0756 24.429 16.9694 24.5883 16.903C24.6945 16.8499 24.8007 16.8234 24.9467 16.7968L25.637 16.6508L25.1458 16.1198C25.1193 16.08 25.0795 16.0402 25.0529 16.0136C24.9467 15.8676 24.8936 15.6951 24.9069 15.549C24.9202 15.403 25.0131 15.2437 25.1591 15.111C25.2653 15.0048 25.398 14.9119 25.5839 14.819C25.7564 14.726 25.9423 14.6597 26.0883 14.6066C26.3803 14.5004 26.6989 14.4075 27.0441 14.3278L30.0972 13.9561L26.9777 13.5048C26.8317 13.465 26.6856 13.4119 26.5529 13.3721C26.1414 13.226 25.8228 13.0667 25.5706 12.8676C25.4113 12.7482 25.2918 12.6154 25.2255 12.4827C25.1458 12.3499 25.1193 12.1906 25.1193 12.0446C25.1326 11.9119 25.1724 11.7791 25.2387 11.6464L25.5042 11.1818L24.9069 11.0225C24.8803 11.0225 24.8671 11.0092 24.8405 11.0092C24.6414 10.9429 24.429 10.8632 24.2299 10.6641C24.137 10.5579 24.0573 10.4384 24.0042 10.3057C23.9644 10.1862 23.9379 10.0402 23.9511 9.89418C23.9511 9.72162 23.991 9.53577 24.0706 9.33666L25.252 7.70392L23.4069 8.79241Z" fill="#FFF200"/>
<path d="M19.1064 9.81391C19.133 9.81391 21.0578 9.24312 21.7215 9.38913C22.2923 9.5086 22.9029 9.90683 23.0489 10.8891C23.1949 11.8714 22.8365 12.1502 22.8233 12.6812C22.81 13.2121 22.9693 13.9555 22.8233 14.6325C22.7038 15.19 22.2657 15.3626 21.987 15.4422C21.4693 15.5882 21.0578 15.429 20.8719 15.2697C20.6861 15.1104 20.1817 14.5396 20.0887 13.9157C19.9958 13.3051 19.8365 12.8405 20.1551 11.8582C20.3542 11.2608 19.1463 11.2741 19.1463 11.2741L19.1064 9.81391Z" fill="#F4BA8E"/>
<path d="M23.2208 11.3806C23.2208 11.739 23.1412 11.978 23.0615 12.2036C23.0085 12.3762 22.9554 12.5222 22.9554 12.7081V12.7346C22.9554 12.9072 22.9686 13.093 22.9819 13.3054C22.9952 13.5443 23.0217 13.7966 23.0217 14.062C23.0217 14.301 22.9952 14.5001 22.9554 14.6992C22.8093 15.3762 22.2253 15.5488 22.0262 15.6019C21.4819 15.7479 21.0306 15.5886 20.8049 15.416C20.5925 15.2435 20.0748 14.6328 19.9819 13.9957C19.9686 13.916 19.9554 13.8364 19.9421 13.7567C19.9023 13.4912 19.8492 13.2523 19.8624 12.9603C19.8624 12.6284 19.9288 12.2833 20.0615 11.8851C20.0881 11.7921 20.0748 11.7258 20.0217 11.6727C19.8492 11.5001 19.3447 11.4603 19.1722 11.4735H19.0527L18.9863 9.72133L19.0925 9.69479C19.5571 9.56204 21.1368 9.13726 21.7607 9.27001C22.212 9.36293 23.0085 9.70806 23.1943 10.8762C23.2076 11.062 23.2208 11.2213 23.2208 11.3806ZM22.7031 12.7213V12.6948C22.7031 12.4824 22.7695 12.3098 22.8226 12.124C22.889 11.9116 22.9554 11.6992 22.9686 11.3806C22.9686 11.2346 22.9554 11.0886 22.9288 10.9293C22.7828 9.96027 22.1722 9.62841 21.6943 9.52222C21.389 9.45585 19.743 9.65496 20.2607 10.5576C20.2607 10.5576 19.9554 11.2346 20.181 11.4603C20.2607 11.5399 20.3138 11.6461 20.3138 11.7656C20.3138 11.8187 20.3005 11.8718 20.2872 11.9249C20.1677 12.2966 20.1146 12.7479 20.1677 12.9603C20.2341 13.2258 20.6987 13.6505 20.4598 13.7966C20.3934 13.8364 20.2076 13.8364 20.2208 13.9293C20.3138 14.5134 21.0306 14.4735 21.0704 14.7921C21.0969 15.0178 21.5085 15.4691 21.9598 15.3497C22.2385 15.27 22.6102 15.1107 22.7164 14.6328C22.7562 14.4603 22.7695 14.2612 22.7828 14.0488C22.7828 13.7966 22.7695 13.5576 22.743 13.3187C22.7164 13.093 22.7031 12.8939 22.7031 12.7213Z" fill="#231F20"/>
<path d="M21.9337 12.6684C22.2655 12.6684 22.7301 12.5489 22.77 12.6153C22.9027 12.8808 22.8894 14.3808 22.7965 14.5932C22.7036 14.8056 22.4779 14.8321 22.239 14.8056C22.0001 14.779 21.2965 14.3675 21.1372 14.0887C20.9779 13.81 21.0841 13.2126 21.2036 13.0002C21.3098 12.7613 21.5487 12.6684 21.9337 12.6684Z" fill="#F7D7C6"/>
<path d="M22.9423 13.7304C22.9423 14.0755 22.9158 14.5003 22.8627 14.6197C22.7432 14.8985 22.4512 14.8985 22.2122 14.8719C21.9467 14.8454 21.2167 14.4206 21.0441 14.102C20.9644 13.956 20.9512 13.7702 20.9512 13.6374C20.9512 13.3719 21.0175 13.0799 21.1105 12.9206C21.2565 12.6684 21.5087 12.5622 21.9202 12.5622C22.0662 12.5622 22.2388 12.5357 22.3981 12.5224C22.6636 12.4826 22.783 12.4693 22.8229 12.5489C22.9423 12.7746 22.9423 13.518 22.9423 13.7304ZM21.1237 13.6507C21.1237 13.81 21.1503 13.9427 21.1901 14.0357C21.3361 14.3011 21.9998 14.6861 22.2255 14.7127C22.5043 14.7392 22.637 14.6994 22.7034 14.5534C22.7299 14.487 22.7698 14.1817 22.7698 13.7304C22.7698 13.2392 22.7432 12.8144 22.6901 12.6684C22.637 12.6684 22.5175 12.6817 22.4113 12.695C22.2521 12.7215 22.0662 12.7481 21.9202 12.7481C21.5751 12.7481 21.3627 12.8277 21.2432 13.0268C21.1901 13.133 21.1237 13.3985 21.1237 13.6507Z" fill="#231F20"/>
<path d="M16.425 9.3361C15.9736 9.42902 15.5754 9.58832 15.2701 9.61487C13.1595 9.80071 11.8453 9.64141 10.9427 10.3184C10.0931 10.9556 10.0798 11.8848 10.0931 12.4821C10.1064 12.9334 10.2258 13.252 10.3188 13.4777C10.3453 13.5441 10.5179 13.9688 10.4515 14.2078C10.3984 14.3804 10.3188 14.6458 10.2258 14.8582C10.1462 15.0441 9.97363 15.3892 9.97363 15.9202C9.97363 16.0529 9.98691 16.1857 10.0002 16.3184C10.0931 17.0352 10.5444 17.606 10.8099 17.8715C10.8497 17.9113 10.9692 18.1503 10.863 18.5883C10.7966 18.8804 10.7037 19.2122 10.7037 19.5175C10.7037 19.5972 10.7037 19.6768 10.717 19.7565C10.7966 20.2609 11.0489 20.5795 11.2878 20.7919C11.4604 20.9511 11.5533 21.0972 11.5931 21.2432C11.6462 21.429 11.5666 21.6812 11.5267 21.814C11.4471 22.0927 11.5135 22.4379 11.5267 22.5308C11.6329 23.0883 11.9781 23.3804 12.5887 23.6989C13.2258 24.0441 14.5135 24.0839 15.217 24.0042C15.6152 23.9644 16.0002 23.9511 16.425 23.9511C17.3143 23.9379 17.9648 24.1768 18.7745 23.7122C19.7303 23.1812 20.0754 22.252 20.0887 21.2166C20.0887 20.8582 20.0489 20.7255 20.009 20.4998C20.1816 20.3273 20.6595 19.8361 20.7126 18.6945C20.7391 18.137 20.54 17.6857 20.248 17.2211C20.7789 16.8361 21.1374 15.96 21.1506 15.1104C21.1506 14.5529 21.0312 13.5175 19.9294 13.0795C20.0887 12.7874 20.4073 12.0972 20.4205 11.314C20.4205 11.0352 20.3674 10.7697 20.2878 10.5308C19.9825 9.68124 18.9471 9.16354 18.2701 9.09717C17.8719 9.07062 17.102 9.20336 16.425 9.3361ZM18.1772 9.42903C18.7612 9.4954 19.8497 10.1458 20.0489 10.637C20.1285 10.8361 20.1683 11.075 20.1683 11.3273C20.1551 12.2432 19.6374 12.6945 19.4913 12.8273C19.2258 13.0662 16.7966 12.96 15.3497 13.2786C15.0577 13.345 14.8851 13.4246 14.6462 13.4113C14.4338 13.3981 13.3586 13.345 13.04 13.2122C13.2789 13.4379 14.3409 13.4511 14.4073 13.5042C14.4736 13.5573 14.155 13.6237 13.6108 13.6635C14.1683 13.7432 14.54 13.6237 15.5887 13.4379C16.3984 13.2919 19.4648 13.3317 19.6772 13.3848C20.5135 13.637 20.8453 14.5264 20.832 15.0441C20.8188 15.96 20.2878 16.4777 19.8763 16.7963C19.6639 16.9688 18.9073 16.7432 17.5267 16.9556C16.1993 17.1547 15.1374 17.3538 13.6904 17.1281C13.9692 17.2742 14.3011 17.3538 14.7657 17.3936C14.832 17.3936 14.4338 17.4467 14.1152 17.5264C14.5931 17.5662 15.3099 17.3936 15.3763 17.3936C15.9736 17.3936 16.4382 17.314 16.8232 17.2609C18.217 17.0618 19.6108 17.2476 19.7834 17.3538C19.9559 17.46 20.3011 17.9777 20.2878 18.7609C20.2745 19.6901 19.7435 20.1547 19.5577 20.3405C19.0533 20.8184 15.1772 20.3405 13.5179 20.7388C13.8232 20.7255 14.3409 20.6724 14.6064 20.7255C14.6727 20.7388 14.1949 20.8715 14.0223 21.0972C14.3143 20.9777 14.5533 20.8184 14.9913 20.7255C16.6506 20.7653 18.5356 20.8848 19.5843 20.6458C19.5843 20.6458 19.7303 20.9644 19.7303 21.2432C19.717 22.1857 19.3055 22.9821 18.6418 23.3804C18.1374 23.6857 17.2745 23.6326 16.4515 23.6458C16.0267 23.6458 15.5887 23.7122 15.1772 23.7653C14.5267 23.845 13.2789 23.8051 12.6949 23.4865C12.1374 23.1945 11.8586 22.929 11.7524 22.4644C11.686 22.1458 11.7789 21.7476 11.8984 21.4954C12.0312 21.2166 12.2834 21.3361 13.0135 21.1901C12.4294 21.0706 11.8984 20.9777 11.4869 20.5795C11.2745 20.3671 11.0223 20.1414 10.9427 19.7166C10.9294 19.6503 10.9294 19.5972 10.9294 19.5308C10.9294 19.252 11.0489 18.96 11.1152 18.6812C11.2878 18.0175 11.6197 17.7653 12.2966 17.5131C11.6595 17.4467 11.3143 17.5396 10.9825 17.4467C10.6506 17.3538 10.3453 16.9158 10.2657 16.2786C10.2524 16.1591 10.2391 16.0396 10.2391 15.9202C10.2391 15.4556 10.3453 15.1901 10.4382 14.9777C10.5312 14.7786 10.7303 14.5131 10.8896 14.3538C11.1949 14.0485 11.6329 13.783 12.0179 13.6503C11.54 13.5573 10.9825 13.8361 10.7568 13.5972C10.5843 13.4246 10.3984 12.8671 10.3851 12.4556C10.3586 11.7388 10.6108 11.0485 11.1285 10.637C11.8719 10.0529 13.2391 10.0264 15.3099 9.8538C15.6285 9.82726 16.0533 9.74761 16.5046 9.65469C17.1418 9.52195 17.832 9.3892 18.1772 9.42903Z" fill="#231F20"/>
<path d="M18.1773 9.42955C18.7614 9.49592 19.8499 10.1464 20.049 10.6375C20.1286 10.8366 20.1685 11.0756 20.1685 11.3278C20.1552 12.2437 19.6375 12.695 19.4915 12.8278C19.226 13.0667 16.7968 12.9605 15.3499 13.2791C15.0578 13.3455 14.8853 13.4251 14.6463 13.4118C14.4339 13.3986 13.3587 13.3455 13.0401 13.2127C13.2791 13.4384 14.341 13.4517 14.4074 13.5048C14.4738 13.5579 14.1552 13.6242 13.6109 13.6641C14.1685 13.7437 14.5401 13.6242 15.5888 13.4384C16.3986 13.2924 19.4649 13.3322 19.6773 13.3853C20.5136 13.6375 20.8455 14.5269 20.8322 15.0446C20.8189 15.9605 20.2879 16.4782 19.8764 16.7968C19.664 16.9694 18.9074 16.7437 17.5269 16.9561C16.1994 17.1552 15.1375 17.3543 13.6906 17.1287C13.9693 17.2747 14.3012 17.3543 14.7658 17.3941C14.8322 17.3941 14.4339 17.4472 14.1154 17.5269C14.5932 17.5667 15.3101 17.3941 15.3764 17.3941C15.9738 17.3941 16.4384 17.3145 16.8233 17.2614C18.2171 17.0623 19.6109 17.2481 19.7835 17.3543C19.9561 17.4605 20.3012 17.9782 20.2879 18.7614C20.2747 19.6906 19.7437 20.1552 19.5578 20.341C19.0534 20.8189 15.1773 20.341 13.518 20.7393C13.8233 20.726 14.341 20.6729 14.6065 20.726C14.6729 20.7393 14.195 20.872 14.0224 21.0977C14.3145 20.9782 14.5534 20.8189 14.9915 20.726C16.6508 20.7658 18.5357 20.8853 19.5844 20.6464C19.5844 20.6464 19.7304 20.9649 19.7304 21.2437C19.7171 22.1862 19.3056 22.9826 18.6419 23.3809C18.1375 23.6862 17.2747 23.6331 16.4516 23.6464C16.0269 23.6464 15.5888 23.7127 15.1773 23.7658C14.5269 23.8455 13.2791 23.8056 12.695 23.4871C12.1375 23.195 11.8587 22.9295 11.7525 22.4649C11.6862 22.1464 11.7791 21.7481 11.8985 21.4959C12.0313 21.2172 12.2835 21.3366 13.0136 21.1906C12.4295 21.0711 11.8986 20.9782 11.487 20.58C11.2747 20.3676 11.0224 20.1419 10.9428 19.7172C10.9295 19.6508 10.9295 19.5977 10.9295 19.5313C10.9295 19.2526 11.049 18.9605 11.1154 18.6818C11.2879 18.018 11.6198 17.7658 12.2968 17.5136C11.6596 17.4472 11.3145 17.5402 10.9826 17.4472C10.6508 17.3543 10.3455 16.9163 10.2658 16.2791C10.2525 16.1596 10.2393 16.0402 10.2393 15.9207C10.2393 15.4561 10.3455 15.1906 10.4384 14.9782C10.5313 14.7791 10.7304 14.5136 10.8897 14.3543C11.195 14.049 11.6331 13.7835 12.018 13.6508C11.5401 13.5579 10.9826 13.8366 10.757 13.5977C10.5844 13.4251 10.3986 12.8676 10.3853 12.4561C10.3587 11.7393 10.6109 11.049 11.1286 10.6375C11.872 10.0534 13.2393 10.0269 15.3101 9.85433C15.6286 9.82778 16.0534 9.74813 16.5047 9.65521C17.1419 9.52247 17.8322 9.38972 18.1773 9.42955Z" fill="#F4BA8E"/>
<path opacity="0.8" d="M16 31C24.2843 31 31 24.2843 31 16C31 7.71573 24.2843 1 16 1C7.71573 1 1 7.71573 1 16C1 24.2843 7.71573 31 16 31Z" stroke="url(#paint1_linear)" stroke-width="2" stroke-miterlimit="10"/>
<defs>
<linearGradient id="paint0_linear" x1="1.00173" y1="15.9934" x2="31.0017" y2="15.9934" gradientUnits="userSpaceOnUse">
<stop stop-color="#BF1400"/>
<stop offset="0.3132" stop-color="#ED3000"/>
<stop offset="1" stop-color="#AB0000"/>
</linearGradient>
<linearGradient id="paint1_linear" x1="0.475983" y1="16" x2="31.524" y2="16" gradientUnits="userSpaceOnUse">
<stop/>
<stop offset="0.00429839" stop-color="#090909"/>
<stop offset="0.0277675" stop-color="#373737"/>
<stop offset="0.0542172" stop-color="#626262"/>
<stop offset="0.0826444" stop-color="#888888"/>
<stop offset="0.1136" stop-color="#A8A8A8"/>
<stop offset="0.1478" stop-color="#C4C4C4"/>
<stop offset="0.1864" stop-color="#DADADA"/>
<stop offset="0.2315" stop-color="#EBEBEB"/>
<stop offset="0.2872" stop-color="#F6F6F6"/>
<stop offset="0.3654" stop-color="#FDFDFD"/>
<stop offset="0.5824" stop-color="white"/>
<stop offset="0.6688" stop-color="#BBBBBB"/>
<stop offset="0.8455" stop-color="#363636"/>
<stop offset="0.9231"/>
</linearGradient>
</defs>
</svg>
