<svg width="235" height="235" viewBox="0 0 235 235" fill="none" xmlns="http://www.w3.org/2000/svg">
<path d="M120 230.5C182.408 230.5 233 179.908 233 117.5C233 55.0918 182.408 4.5 120 4.5C57.5918 4.5 7 55.0918 7 117.5C7 179.908 57.5918 230.5 120 230.5Z" fill="url(#paint0_linear)"/>
<path opacity="0.8" d="M117.5 232C180.737 232 232 180.737 232 117.5C232 54.2634 180.737 3 117.5 3C54.2634 3 3 54.2634 3 117.5C3 180.737 54.2634 232 117.5 232Z" stroke="url(#paint1_linear)" stroke-width="6" stroke-miterlimit="10"/>
<path opacity="0.047619" d="M99.1999 175.5H142.8C144.1 175.5 145.2 174.4 145.2 173.1V140.7H176.2C177.5 140.7 178.6 139.6 178.6 138.3V94.8001C178.6 93.5001 177.5 92.4001 176.2 92.4001H145.2V61.8001C145.2 60.5001 144.1 59.4001 142.8 59.4001H99.1999C97.8999 59.4001 96.7999 60.5001 96.7999 61.8001V92.5001H63.7999C62.4999 92.5001 61.3999 93.6001 61.3999 94.9001V138.5C61.3999 139.8 62.4999 140.9 63.7999 140.9H96.7999V173.3C96.7999 174.5 97.8999 175.5 99.1999 175.5Z" fill="#F5F5F5"/>
<path opacity="0.0952381" d="M99.4997 174.8H142.5C143.8 174.8 144.8 173.7 144.8 172.5V140.5H175.5C176.8 140.5 177.8 139.5 177.8 138.2V95.2C177.8 93.9 176.7 92.9 175.5 92.9H144.8V62.3C144.8 61 143.8 60 142.5 60H99.4997C98.1997 60 97.1997 61.1 97.1997 62.3V92.7H64.4997C63.1997 92.7 62.1997 93.8 62.1997 95V138C62.1997 139.3 63.2997 140.3 64.4997 140.3H97.0997V172.3C97.0997 173.8 98.1997 174.8 99.4997 174.8Z" fill="#ECEBEB"/>
<path opacity="0.1429" d="M99.6999 174.1H142.2C143.5 174.1 144.5 173.1 144.5 171.8V140.1H175C176.3 140.1 177.3 139.1 177.3 137.8V95.4001C177.3 94.1001 176.3 93.1001 175 93.1001H144.5V62.9001C144.5 61.6001 143.5 60.6001 142.2 60.6001H99.6999C98.3999 60.6001 97.3999 61.6001 97.3999 62.9001V93.0001H65.1999C63.8999 93.0001 62.8999 94.0001 62.8999 95.3001V137.7C62.8999 139 63.8999 140 65.1999 140H97.3999V171.7C97.3999 173.1 98.4999 174.1 99.6999 174.1Z" fill="#E2E0E0"/>
<path opacity="0.1905" d="M99.9996 173.4H141.9C143.2 173.4 144.2 172.4 144.2 171.1V139.8H174.4C175.7 139.8 176.7 138.8 176.7 137.5V95.6999C176.7 94.3999 175.7 93.4 174.4 93.4H144.2V63.5C144.2 62.2 143.2 61.2 141.9 61.2H99.9996C98.6996 61.2 97.6996 62.2 97.6996 63.5V93.4H65.8996C64.5996 93.4 63.5996 94.3999 63.5996 95.6999V137.6C63.5996 138.9 64.5996 139.9 65.8996 139.9H97.6996V171.2C97.6996 172.4 98.7996 173.4 99.9996 173.4Z" fill="#D8D6D6"/>
<path opacity="0.2381" d="M100.3 172.7H141.6C142.8 172.7 143.9 171.7 143.9 170.4V139.4H173.8C175 139.4 176.1 138.4 176.1 137.1V96C176.1 94.8 175.1 93.7 173.8 93.7H143.9V64.1C143.9 62.9 142.9 61.8 141.6 61.8H100.3C99.0998 61.8 97.9998 62.8 97.9998 64.1V93.7H66.5998C65.3998 93.7 64.2998 94.7001 64.2998 96V137.3C64.2998 138.5 65.2998 139.6 66.5998 139.6H97.9998V170.6C97.9998 171.7 98.9998 172.7 100.3 172.7Z" fill="#CECCCC"/>
<path opacity="0.2857" d="M100.6 172H141.3C142.5 172 143.5 171 143.5 169.8V139.2H173.1C174.3 139.2 175.3 138.2 175.3 137V96.3C175.3 95.1 174.3 94.1 173.1 94.1H143.5V64.7C143.5 63.5 142.5 62.5 141.3 62.5H100.6C99.4 62.5 98.4 63.5 98.4 64.7V94H67.3C66 94 65 95 65 96.3V137C65 138.2 66 139.2 67.2 139.2H98.3V169.8C98.3 171 99.3 172 100.6 172Z" fill="#C5C2C2"/>
<path opacity="0.3333" d="M100.8 171.3H141C142.2 171.3 143.2 170.3 143.2 169.1V138.8H172.5C173.7 138.8 174.7 137.8 174.7 136.6V96.5001C174.7 95.3001 173.7 94.3001 172.5 94.3001H143.2V65.3001C143.2 64.1001 142.2 63.1001 141 63.1001H100.9C99.6998 63.1001 98.6998 64.1001 98.6998 65.3001V94.4001H67.9998C66.7998 94.4001 65.7998 95.4001 65.7998 96.6001V136.7C65.7998 137.9 66.7998 138.9 67.9998 138.9H98.6998V169.2C98.5998 170.3 99.5998 171.3 100.8 171.3Z" fill="#BBB7B7"/>
<path opacity="0.381" d="M101.1 170.6H140.7C141.9 170.6 142.9 169.6 142.9 168.4V138.5H171.9C173.1 138.5 174.1 137.5 174.1 136.3V96.8C174.1 95.6 173.1 94.5999 171.9 94.5999H142.9V65.9C142.9 64.7 141.9 63.7 140.7 63.7H101.1C99.8999 63.7 98.8999 64.7 98.8999 65.9V94.6999H68.5999C67.3999 94.6999 66.3999 95.7 66.3999 96.9V136.5C66.3999 137.7 67.3999 138.7 68.5999 138.7H98.9999V168.6C98.9999 169.7 99.8999 170.6 101.1 170.6Z" fill="#B1ADAD"/>
<path opacity="0.4286" d="M101.4 169.9H140.4C141.6 169.9 142.5 168.9 142.5 167.8V138.2H171.3C172.5 138.2 173.4 137.2 173.4 136.1V97.1001C173.4 95.9001 172.4 95.0001 171.3 95.0001H142.5V66.5001C142.5 65.3001 141.6 64.4001 140.4 64.4001H101.4C100.2 64.4001 99.2997 65.4001 99.2997 66.5001V95.0001H69.2997C68.0997 95.0001 67.1997 96.0001 67.1997 97.1001V136.1C67.1997 137.3 68.0997 138.2 69.2997 138.2H99.1997V167.8C99.2997 169 100.2 169.9 101.4 169.9Z" fill="#A8A3A3"/>
<path opacity="0.4762" d="M101.7 169.2H140.1C141.3 169.2 142.2 168.3 142.2 167.1V137.9H170.7C171.9 137.9 172.8 137 172.8 135.8V97.4001C172.8 96.2001 171.9 95.3001 170.7 95.3001H142.2V67.0001C142.2 65.8001 141.3 64.9001 140.1 64.9001H101.7C100.5 64.9001 99.5999 65.8001 99.5999 67.0001V95.3001H69.9999C68.7999 95.3001 67.8999 96.2001 67.8999 97.4001V135.8C67.8999 137 68.7999 137.9 69.9999 137.9H99.4999V167.1C99.5999 168.3 100.5 169.2 101.7 169.2Z" fill="#9E9999"/>
<path opacity="0.5238" d="M101.9 168.5H139.7C140.8 168.5 141.8 167.6 141.8 166.4V137.5H170C171.1 137.5 172.1 136.6 172.1 135.4V97.7C172.1 96.6 171.2 95.6 170 95.6H141.8V67.6C141.8 66.5 140.9 65.5 139.7 65.5H101.9C100.8 65.5 99.7996 66.4 99.7996 67.6V95.6H70.6996C69.5996 95.6 68.5996 96.5 68.5996 97.7V135.5C68.5996 136.6 69.4996 137.6 70.6996 137.6H99.8996V166.5C99.8996 167.6 100.8 168.5 101.9 168.5Z" fill="#948E8E"/>
<path opacity="0.5714" d="M102.2 167.8H139.5C140.6 167.8 141.5 166.9 141.5 165.8V137.3H169.4C170.5 137.3 171.4 136.4 171.4 135.3V98C171.4 96.9 170.5 96 169.4 96H141.5V68.2C141.5 67.1 140.6 66.2 139.5 66.2H102.2C101.1 66.2 100.2 67.1 100.2 68.2V96H71.3999C70.2999 96 69.3999 96.9 69.3999 98V135.2C69.3999 136.3 70.2999 137.2 71.3999 137.2H100.2V165.7C100.2 166.9 101.1 167.8 102.2 167.8Z" fill="#8A8484"/>
<path opacity="0.619" d="M102.5 167.1H139.2C140.3 167.1 141.2 166.2 141.2 165.1V136.9H168.8C169.9 136.9 170.8 136 170.8 134.9V98.3C170.8 97.2 169.9 96.3 168.8 96.3H141.2V68.8C141.2 67.7 140.3 66.8 139.2 66.8H102.5C101.4 66.8 100.5 67.7 100.5 68.8V96.3H72.0996C70.9996 96.3 70.0996 97.2 70.0996 98.3V135C70.0996 136.1 70.9996 137 72.0996 137H100.5V165.2C100.5 166.2 101.4 167.1 102.5 167.1Z" fill="#817A7A"/>
<path opacity="0.6667" d="M102.7 166.4H138.8C139.9 166.4 140.8 165.5 140.8 164.4V136.6H168.1C169.2 136.6 170.1 135.7 170.1 134.6V98.6001C170.1 97.5001 169.2 96.6001 168.1 96.6001H140.8V69.4001C140.8 68.3001 139.9 67.4001 138.8 67.4001H102.7C101.6 67.4001 100.7 68.3001 100.7 69.4001V96.6001H72.6997C71.5997 96.6001 70.6997 97.5001 70.6997 98.6001V134.7C70.6997 135.8 71.5997 136.7 72.6997 136.7H100.7V164.5C100.8 165.5 101.7 166.4 102.7 166.4Z" fill="#777070"/>
<path opacity="0.7143" d="M103 165.7H138.5C139.6 165.7 140.4 164.8 140.4 163.8V136.3H167.4C168.5 136.3 169.3 135.4 169.3 134.4V98.9001C169.3 97.8001 168.4 97.0001 167.4 97.0001H140.4V70.0001C140.4 68.9001 139.5 68.1001 138.5 68.1001H103C101.9 68.1001 101.1 69.0001 101.1 70.0001V96.9001H73.4C72.3 96.9001 71.5 97.8001 71.5 98.8001V134.3C71.5 135.4 72.4 136.2 73.4 136.2H101V163.7C101.1 164.8 102 165.7 103 165.7Z" fill="#6D6565"/>
<path opacity="0.7619" d="M103.3 165H138.2C139.3 165 140.1 164.1 140.1 163.1V136H166.9C168 136 168.8 135.1 168.8 134.1V99.1C168.8 98 167.9 97.2 166.9 97.2H140.1V70.6C140.1 69.5 139.2 68.7 138.2 68.7H103.3C102.2 68.7 101.4 69.6 101.4 70.6V97.3H74.0997C72.9997 97.3 72.1997 98.2 72.1997 99.2V134.1C72.1997 135.2 72.9997 136 74.0997 136H101.4V163.1C101.4 164.1 102.2 165 103.3 165Z" fill="#645B5B"/>
<path opacity="0.8095" d="M103.6 164.3H138C139 164.3 139.9 163.5 139.9 162.4V135.7H166.4C167.4 135.7 168.3 134.9 168.3 133.8V99.4C168.3 98.4 167.5 97.5 166.4 97.5H139.9V71.2C139.9 70.2 139.1 69.3 138 69.3H103.6C102.6 69.3 101.7 70.1 101.7 71.2V97.6H74.7999C73.7999 97.6 72.8999 98.4 72.8999 99.5V133.9C72.8999 134.9 73.6999 135.8 74.7999 135.8H101.7V162.5C101.7 163.5 102.5 164.3 103.6 164.3Z" fill="#5A5151"/>
<path opacity="0.8571" d="M103.8 163.6H137.6C138.6 163.6 139.4 162.8 139.4 161.8V135.4H165.6C166.6 135.4 167.4 134.6 167.4 133.6V99.7001C167.4 98.7001 166.6 97.9001 165.6 97.9001H139.4V71.7001C139.4 70.7001 138.6 69.9001 137.6 69.9001H103.8C102.8 69.9001 102 70.7001 102 71.7001V97.8001H75.4997C74.4997 97.8001 73.6997 98.6001 73.6997 99.6001V133.4C73.6997 134.4 74.4997 135.2 75.4997 135.2H102V161.6C102 162.8 102.8 163.6 103.8 163.6Z" fill="#504747"/>
<path opacity="0.9048" d="M104.1 162.9H137.3C138.3 162.9 139.1 162.1 139.1 161.1V135.1H165C166 135.1 166.8 134.3 166.8 133.3V100C166.8 99 166 98.2 165 98.2H139.1V72.3C139.1 71.3 138.3 70.5 137.3 70.5H104.1C103.1 70.5 102.3 71.3 102.3 72.3V98.2H76.1999C75.1999 98.2 74.3999 99 74.3999 100V133.2C74.3999 134.2 75.1999 135 76.1999 135H102.3V161C102.3 162.1 103.1 162.9 104.1 162.9Z" fill="#463C3C"/>
<path opacity="0.9524" d="M104.4 162.2H137C138 162.2 138.8 161.4 138.8 160.4V134.7H164.4C165.4 134.7 166.2 133.9 166.2 132.9V100.3C166.2 99.3001 165.4 98.5001 164.4 98.5001H138.8V72.9001C138.8 71.9001 138 71.1001 137 71.1001H104.4C103.4 71.1001 102.6 71.9001 102.6 72.9001V98.5001H76.8996C75.8996 98.5001 75.0996 99.3001 75.0996 100.3V132.9C75.0996 133.9 75.8996 134.7 76.8996 134.7H102.6V160.4C102.6 161.4 103.4 162.2 104.4 162.2Z" fill="#3D3232"/>
<path d="M163.8 98.8H138.5V73.5C138.5 72.5 137.7 71.7 136.7 71.7H104.7C103.7 71.7 103 72.5 103 73.5V98.8H77.5999C76.5999 98.8 75.8999 99.6 75.8999 100.5V132.5C75.8999 133.5 76.6999 134.2 77.5999 134.2H102.9V159.5C102.9 160.5 103.7 161.3 104.6 161.3H136.6C137.6 161.3 138.4 160.5 138.4 159.5V134.2H163.7C164.7 134.2 165.5 133.4 165.5 132.5V100.5C165.5 99.6 164.8 98.8 163.8 98.8Z" fill="#332828"/>
<path d="M170 95.5001H141.5C140.9 95.5001 140.4 95.0001 140.4 94.4001V65.9001C140.4 64.8001 139.5 63.9001 138.4 63.9001H101C99.8998 63.9001 98.9998 64.8001 98.9998 65.9001V67.0001V94.4001C98.9998 95.0001 98.4998 95.5001 97.8998 95.5001H69.2998C68.1998 95.5001 67.2998 96.4001 67.2998 97.5001V134.9C67.2998 136 68.1998 136.9 69.2998 136.9H97.7998C98.3998 136.9 98.8998 137.4 98.8998 138V165.4V166.5C98.8998 167.6 99.7998 168.5 100.9 168.5H138.3C139.4 168.5 140.3 167.6 140.3 166.5V138C140.3 137.4 140.8 136.9 141.4 136.9H170C171.1 136.9 172 136 172 134.9V97.5001C172 96.4001 171.1 95.5001 170 95.5001Z" fill="white"/>
<defs>
<linearGradient id="paint0_linear" x1="6.9965" y1="117.502" x2="232.997" y2="117.502" gradientUnits="userSpaceOnUse">
<stop stop-color="#BF1400"/>
<stop offset="0.3132" stop-color="#ED3000"/>
<stop offset="1" stop-color="#AB0000"/>
</linearGradient>
<linearGradient id="paint1_linear" x1="1.77765e-07" y1="117.5" x2="235" y2="117.5" gradientUnits="userSpaceOnUse">
<stop/>
<stop offset="0.00429839" stop-color="#090909"/>
<stop offset="0.0277675" stop-color="#373737"/>
<stop offset="0.0542172" stop-color="#626262"/>
<stop offset="0.0826444" stop-color="#888888"/>
<stop offset="0.1136" stop-color="#A8A8A8"/>
<stop offset="0.1478" stop-color="#C4C4C4"/>
<stop offset="0.1864" stop-color="#DADADA"/>
<stop offset="0.2315" stop-color="#EBEBEB"/>
<stop offset="0.2872" stop-color="#F6F6F6"/>
<stop offset="0.3654" stop-color="#FDFDFD"/>
<stop offset="0.5824" stop-color="white"/>
<stop offset="0.6688" stop-color="#BBBBBB"/>
<stop offset="0.8455" stop-color="#363636"/>
<stop offset="0.9231"/>
</linearGradient>
</defs>
</svg>
