<svg id="Capa_1" enable-background="new 0 0 512 512" height="512" viewBox="0 0 512 512" width="512" xmlns="http://www.w3.org/2000/svg"><circle cx="256" cy="256" fill="#fa5d0f" r="256"/><path d="m512 256c0-1.04-.027-2.073-.039-3.109l-90.049-90.049-14.844 16.52-70.831-70.831-137.737 12.85-107.326 264.965 122.081 122.082c13.902 2.337 28.179 3.572 42.745 3.572 141.385 0 256-114.615 256-256z" fill="#d13400"/><path d="m310.27 208h-108.54c-18.323 0-33.23-14.907-33.23-33.23v-45.54c0-18.323 14.907-33.23 33.23-33.23h108.54c18.323 0 33.23 14.907 33.23 33.23v45.539c0 18.324-14.907 33.231-33.23 33.231zm-108.54-82c-1.781 0-3.23 1.449-3.23 3.23v45.539c0 1.781 1.449 3.23 3.23 3.23h108.54c1.781 0 3.23-1.449 3.23-3.23v-45.539c0-1.781-1.449-3.23-3.23-3.23z" fill="#ffce00"/><path d="m310.27 96h-54.674v30h54.674c1.781 0 3.23 1.449 3.23 3.23v45.539c0 1.781-1.449 3.23-3.23 3.23h-54.674v30h54.674c18.323 0 33.23-14.907 33.23-33.23v-45.539c0-18.323-14.907-33.23-33.23-33.23z" fill="#fdba12"/><path d="m399.094 395.092h-286.188c-17.345 0-31.406-14.061-31.406-31.406v-179.277c0-17.345 14.061-31.406 31.406-31.406h286.187c17.345 0 31.406 14.061 31.406 31.406v179.277c.001 17.345-14.06 31.406-31.405 31.406z" fill="#fff"/><path d="m399.094 153.002h-143.499v242.089h143.498c17.345 0 31.406-14.061 31.406-31.406v-179.276c.001-17.346-14.06-31.407-31.405-31.407z" fill="#e9edf5"/><path d="m306 249h-29v-29h-42v29h-29v42h29v29h42v-29h29z" fill="#f24500"/><path d="m277 249v-29h-21.405v100h21.405v-29h29v-42z" fill="#d13400"/></svg>