<svg width="235" height="235" viewBox="0 0 235 235" fill="none" xmlns="http://www.w3.org/2000/svg">
<path d="M116.1 230.3C178.508 230.3 229.1 179.708 229.1 117.3C229.1 54.8916 178.508 4.2998 116.1 4.2998C53.6919 4.2998 3.1001 54.8916 3.1001 117.3C3.1001 179.708 53.6919 230.3 116.1 230.3Z" fill="url(#paint0_linear)"/>
<path opacity="0.8" d="M117.5 232C180.737 232 232 180.737 232 117.5C232 54.2634 180.737 3 117.5 3C54.2634 3 3 54.2634 3 117.5C3 180.737 54.2634 232 117.5 232Z" stroke="url(#paint1_linear)" stroke-width="6" stroke-miterlimit="10"/>
<path d="M171.9 63.0001C169.8 63.9001 167.9 64.4001 166 64.8001C164.4 65.1001 163.1 65.2001 161.9 65.2001C160.3 65.2001 158.8 64.9001 157.5 64.3001C153.6 62.7001 151.2 58.4001 151.4 54.3001C151.5 51.4001 152.7 48.7001 153.6 46.0001C155.4 40.5001 157 34.9001 158.6 29.3001C158.1 30.3001 157.4 31.1001 156.7 32.0001C153.4 36.2001 150.5 40.6001 147.3 44.8001C146.4 46.0001 145.5 47.2001 144.5 48.3001C143.5 49.5001 142.3 50.9001 140.7 51.3001C138.1 52.0001 134.8 49.6001 133 47.9001C130.5 45.6001 129.2 42.6001 128 39.4001C126.9 36.4001 125.8 33.3001 124.7 30.3001C124.5 29.7001 123.8 28.7001 123.9 28.1001L122.8 43.5001C122.6 44.7001 122.3 45.8001 122 46.9001L121.9 47.2001C121.1 49.7001 120.2 51.8001 119 53.6001C117.4 56.0001 115.5 57.5001 113.2 58.1001C112 58.4001 110.7 58.5001 109.5 58.2001C108.3 58.0001 107.3 57.5001 106.5 57.1001C106.1 56.9001 98.5998 49.3001 98.1998 49.1001L100.1 58.3001C99.9998 59.0001 99.7998 59.6001 99.5998 60.3001C99.1998 61.4001 98.5998 62.3001 97.6998 62.9001C96.7998 63.7001 95.2998 64.1001 93.7998 64.2001C90.6998 64.3001 87.5998 63.0001 85.2998 61.9001C82.8998 60.7001 80.3998 59.3001 77.3998 57.2001C75.1998 55.7001 73.0998 54.1001 70.9998 52.4001L52.2998 35.4001L65.6998 55.9001C67.2998 58.7001 68.5998 61.3001 69.6998 63.8001C71.3998 67.6001 72.6998 70.9001 73.4998 73.9001C74.5998 78.0001 74.8998 81.2001 74.4998 84.0001C74.1998 85.9001 73.4998 87.5001 72.4998 88.6001C71.4998 89.9001 69.8998 90.8001 68.1998 91.2001C66.3998 91.6001 64.4998 91.7001 62.2998 91.4001L55.1998 90.3001L59.0998 96.0001C59.5998 96.7001 59.9998 97.4001 60.2998 98.1001C60.9998 99.6001 61.1998 101 61.0998 102.2C60.8998 103.7 59.9998 105.1 58.5998 106.1C57.1998 107.1 55.5998 107.7 54.3998 108C52.7998 108.5 51.2998 108.7 49.8998 108.9C46.1998 109.3 41.9998 109.4 37.0998 109.1L17.2998 106L36.0998 115.5C38.8998 117.1 41.5998 118.8 43.8998 120.6C46.6998 122.7 48.7998 124.6 50.3998 126.6C51.4998 127.9 52.1998 129.1 52.6998 130.2C53.2998 131.5 53.5998 132.9 53.4998 134.1C53.3998 135.3 52.9998 136.4 52.1998 137.4C51.5998 138.1 50.8998 138.8 49.9998 139.4L45.5998 142.4L50.8998 144.9C52.7998 145.8 54.3998 146.9 55.6998 148.2C56.5998 149.2 57.3998 150.3 57.8998 151.4C58.3998 152.5 58.6998 153.8 58.7998 155.3C58.8998 157.7 58.3998 160.1 57.0998 162.9C55.8998 165.4 54.1998 168.1 51.8998 170.7L38.0998 183.1L56.3998 175.8C59.3998 175 62.0998 174.5 64.5998 174.2C67.7998 173.8 70.4998 173.8 72.8998 174.2C74.4998 174.4 75.7998 174.8 76.9998 175.3C78.2998 175.9 79.4998 176.7 80.3998 177.6C81.1998 178.5 81.8998 179.5 82.2998 180.5V180.6C82.4998 181.2 82.6998 181.8 82.7998 182.4L82.2998 190.6L88.0998 185.1C88.8998 184.7 89.7998 184.4 90.7998 184.2C92.7998 183.8 95.4998 184.2 97.5998 185.2C99.6998 186.2 101.7 187.7 103.4 189.7V189.8C104.1 190.6 104.9 191.5 105.7 192.6C106.1 193.1 106.5 193.7 106.9 194.3L111.7 204.1L113.3 194.1C113.7 192.8 114.2 191.7 114.8 190.6C116.1 188.3 117.7 186.8 119.7 185.9C120.8 185.4 122 185.2 123.2 185.2C124.2 185.2 125.3 185.4 126.4 185.8C127.7 186.2 128.9 186.8 130.2 187.6L134.8 190.6L135.5 185.8C135.5 185.6 135.6 185.4 135.6 185.1C135.7 184.7 135.9 184.2 136.1 183.8C136.5 183.2 137 182.8 137.6 182.6C138.2 182.4 138.9 182.3 139.8 182.5C140.5 182.6 141.2 182.9 141.7 183.1C144.1 184.2 146.1 185.8 147.9 187.3C148.7 188 149.6 188.8 150.5 189.6L166.5 207.3L156.3 186.8C155.5 184.6 154.7 182.4 154.2 180.3C153.3 177.1 153 174.2 153 171.7C153 170.1 153.3 168.8 153.7 167.6C154.2 166.2 155 165.1 156.1 164.2C157.1 163.4 158.3 162.8 159.8 162.6C160.2 162.5 160.6 162.5 161.1 162.5L171.9 165.4L163.6 158C163.5 157.8 163.4 157.7 163.3 157.6C162.6 156.3 162.3 155.2 162.3 154C162.3 152.7 163 151.2 164.1 150.2C165.3 149.1 166.7 148.6 168 148.2C170.5 147.5 173.4 147.3 177 147.6C179.2 147.8 181.5 148.1 183.8 148.6L203 154.5L186.6 143C185.7 142.2 184.9 141.4 184.2 140.7C182.5 139 180.4 136.7 178.9 134.1C178.4 133.2 177.7 131.8 177.4 130.2C177.2 128.8 177.4 127.3 178.1 126.3C178.7 125.4 179.6 124.6 180.8 124.1C181.6 123.7 182.4 123.5 183.5 123.3L188.7 122.2L185 118.2C184.8 117.9 184.5 117.6 184.3 117.4C183.5 116.3 183.1 115 183.2 113.9C183.3 112.8 184 111.6 185.1 110.6C185.9 109.8 186.9 109.1 188.3 108.4C189.6 107.7 191 107.2 192.1 106.8C194.3 106 196.7 105.3 199.3 104.7L222.3 101.9L198.8 98.5001C197.7 98.2001 196.6 97.8001 195.6 97.5001C192.5 96.4001 190.1 95.2001 188.2 93.7001C187 92.8001 186.1 91.8001 185.6 90.8001C185 89.8001 184.8 88.6001 184.8 87.5001C184.9 86.5001 185.2 85.5001 185.7 84.5001L187.7 81.0001L183.2 79.8001C183 79.8001 182.9 79.7001 182.7 79.7001C181.2 79.2001 179.6 78.6001 178.1 77.1001C177.4 76.3001 176.8 75.4001 176.4 74.4001C176.1 73.5001 175.9 72.4001 176 71.3001C176 70.0001 176.3 68.6001 176.9 67.1001L185.8 54.8001L171.9 63.0001Z" fill="#FFF200"/>
<path d="M139.5 70.7004C139.7 70.7004 154.2 66.4004 159.2 67.5004C163.5 68.4004 168.1 71.4004 169.2 78.8004C170.3 86.2004 167.6 88.3004 167.5 92.3004C167.4 96.3004 168.6 101.9 167.5 107C166.6 111.2 163.3 112.5 161.2 113.1C157.3 114.2 154.2 113 152.8 111.8C151.4 110.6 147.6 106.3 146.9 101.6C146.2 97.0004 145 93.5004 147.4 86.1004C148.9 81.6004 139.8 81.7003 139.8 81.7003L139.5 70.7004Z" fill="#F4BA8E"/>
<path d="M170.5 82.5004C170.5 85.2004 169.9 87.0004 169.3 88.7004C168.9 90.0004 168.5 91.1004 168.5 92.5004V92.7004C168.5 94.0004 168.6 95.4004 168.7 97.0004C168.8 98.8004 169 100.7 169 102.7C169 104.5 168.8 106 168.5 107.5C167.4 112.6 163 113.9 161.5 114.3C157.4 115.4 154 114.2 152.3 112.9C150.7 111.6 146.8 107 146.1 102.2C146 101.6 145.9 101 145.8 100.4C145.5 98.4004 145.1 96.6004 145.2 94.4004C145.2 91.9004 145.7 89.3004 146.7 86.3004C146.9 85.6004 146.8 85.1004 146.4 84.7004C145.1 83.4004 141.3 83.1004 140 83.2004H139.1L138.6 70.0004L139.4 69.8004C142.9 68.8004 154.8 65.6004 159.5 66.6004C162.9 67.3004 168.9 69.9004 170.3 78.7004C170.4 80.1004 170.5 81.3004 170.5 82.5004ZM166.6 92.6004V92.4004C166.6 90.8004 167.1 89.5004 167.5 88.1004C168 86.5004 168.5 84.9004 168.6 82.5004C168.6 81.4004 168.5 80.3004 168.3 79.1004C167.2 71.8004 162.6 69.3004 159 68.5004C156.7 68.0004 144.3 69.5004 148.2 76.3004C148.2 76.3004 145.9 81.4004 147.6 83.1004C148.2 83.7004 148.6 84.5004 148.6 85.4004C148.6 85.8004 148.5 86.2004 148.4 86.6004C147.5 89.4004 147.1 92.8004 147.5 94.4004C148 96.4004 151.5 99.6004 149.7 100.7C149.2 101 147.8 101 147.9 101.7C148.6 106.1 154 105.8 154.3 108.2C154.5 109.9 157.6 113.3 161 112.4C163.1 111.8 165.9 110.6 166.7 107C167 105.7 167.1 104.2 167.2 102.6C167.2 100.7 167.1 98.9004 166.9 97.1004C166.7 95.4004 166.6 93.9004 166.6 92.6004Z" fill="#231F20"/>
<path d="M160.8 92.2001C163.3 92.2001 166.8 91.3002 167.1 91.8002C168.1 93.8002 168 105.1 167.3 106.7C166.6 108.3 164.9 108.5 163.1 108.3C161.3 108.1 156 105 154.8 102.9C153.6 100.8 154.4 96.3001 155.3 94.7001C156.1 92.9001 157.9 92.2001 160.8 92.2001Z" fill="#F7D7C6"/>
<path d="M168.4 100.2C168.4 102.8 168.2 106 167.8 106.9C166.9 109 164.7 109 162.9 108.8C160.9 108.6 155.4 105.4 154.1 103C153.5 101.9 153.4 100.5 153.4 99.5004C153.4 97.5004 153.9 95.3004 154.6 94.1004C155.7 92.2004 157.6 91.4004 160.7 91.4004C161.8 91.4004 163.1 91.2004 164.3 91.1004C166.3 90.8004 167.2 90.7004 167.5 91.3004C168.4 93.0004 168.4 98.6004 168.4 100.2ZM154.7 99.6004C154.7 100.8 154.9 101.8 155.2 102.5C156.3 104.5 161.3 107.4 163 107.6C165.1 107.8 166.1 107.5 166.6 106.4C166.8 105.9 167.1 103.6 167.1 100.2C167.1 96.5004 166.9 93.3004 166.5 92.2004C166.1 92.2004 165.2 92.3004 164.4 92.4004C163.2 92.6004 161.8 92.8004 160.7 92.8004C158.1 92.8004 156.5 93.4004 155.6 94.9004C155.2 95.7004 154.7 97.7004 154.7 99.6004Z" fill="#231F20"/>
<path d="M119.3 67.1002C115.9 67.8002 112.9 69.0001 110.6 69.2002C94.6997 70.6002 84.7997 69.4002 77.9997 74.5002C71.5997 79.3002 71.4997 86.3002 71.5997 90.8002C71.6997 94.2002 72.5997 96.6002 73.2997 98.3002C73.4997 98.8002 74.7997 102 74.2997 103.8C73.8997 105.1 73.2997 107.1 72.5997 108.7C71.9997 110.1 70.6997 112.7 70.6997 116.7C70.6997 117.7 70.7997 118.7 70.8997 119.7C71.5997 125.1 74.9997 129.4 76.9997 131.4C77.2997 131.7 78.1997 133.5 77.3997 136.8C76.8997 139 76.1997 141.5 76.1997 143.8C76.1997 144.4 76.1997 145 76.2997 145.6C76.8997 149.4 78.7997 151.8 80.5997 153.4C81.8997 154.6 82.5997 155.7 82.8997 156.8C83.2997 158.2 82.6997 160.1 82.3997 161.1C81.7997 163.2 82.2997 165.8 82.3997 166.5C83.1997 170.7 85.7997 172.9 90.3997 175.3C95.1997 177.9 104.9 178.2 110.2 177.6C113.2 177.3 116.1 177.2 119.3 177.2C126 177.1 130.9 178.9 137 175.4C144.2 171.4 146.8 164.4 146.9 156.6C146.9 153.9 146.6 152.9 146.3 151.2C147.6 149.9 151.2 146.2 151.6 137.6C151.8 133.4 150.3 130 148.1 126.5C152.1 123.6 154.8 117 154.9 110.6C154.9 106.4 154 98.6002 145.7 95.3002C146.9 93.1002 149.3 87.9002 149.4 82.0002C149.4 79.9002 149 77.9002 148.4 76.1002C146.1 69.7002 138.3 65.8002 133.2 65.3002C130.2 65.1002 124.4 66.1002 119.3 67.1002ZM132.5 67.8002C136.9 68.3002 145.1 73.2002 146.6 76.9002C147.2 78.4002 147.5 80.2002 147.5 82.1002C147.4 89.0002 143.5 92.4002 142.4 93.4002C140.4 95.2002 122.1 94.4002 111.2 96.8002C109 97.3002 107.7 97.9002 105.9 97.8002C104.3 97.7002 96.1997 97.3002 93.7997 96.3002C95.5997 98.0002 103.6 98.1002 104.1 98.5002C104.6 98.9002 102.2 99.4002 98.0997 99.7001C102.3 100.3 105.1 99.4002 113 98.0002C119.1 96.9002 142.2 97.2002 143.8 97.6002C150.1 99.5002 152.6 106.2 152.5 110.1C152.4 117 148.4 120.9 145.3 123.3C143.7 124.6 138 122.9 127.6 124.5C117.6 126 109.6 127.5 98.6997 125.8C100.8 126.9 103.3 127.5 106.8 127.8C107.3 127.8 104.3 128.2 101.9 128.8C105.5 129.1 110.9 127.8 111.4 127.8C115.9 127.8 119.4 127.2 122.3 126.8C132.8 125.3 143.3 126.7 144.6 127.5C145.9 128.3 148.5 132.2 148.4 138.1C148.3 145.1 144.3 148.6 142.9 150C139.1 153.6 109.9 150 97.3997 153C99.6997 152.9 103.6 152.5 105.6 152.9C106.1 153 102.5 154 101.2 155.7C103.4 154.8 105.2 153.6 108.5 152.9C121 153.2 135.2 154.1 143.1 152.3C143.1 152.3 144.2 154.7 144.2 156.8C144.1 163.9 141 169.9 136 172.9C132.2 175.2 125.7 174.8 119.5 174.9C116.3 174.9 113 175.4 109.9 175.8C105 176.4 95.5997 176.1 91.1997 173.7C86.9997 171.5 84.8997 169.5 84.0997 166C83.5997 163.6 84.2997 160.6 85.1997 158.7C86.1997 156.6 88.0997 157.5 93.5997 156.4C89.1997 155.5 85.1997 154.8 82.0997 151.8C80.4997 150.2 78.5997 148.5 77.9997 145.3C77.8997 144.8 77.8997 144.4 77.8997 143.9C77.8997 141.8 78.7997 139.6 79.2997 137.5C80.5997 132.5 83.0997 130.6 88.1997 128.7C83.3997 128.2 80.7997 128.9 78.2997 128.2C75.7997 127.5 73.4997 124.2 72.8997 119.4C72.7997 118.5 72.6997 117.6 72.6997 116.7C72.6997 113.2 73.4997 111.2 74.1997 109.6C74.8997 108.1 76.3997 106.1 77.5997 104.9C79.8997 102.6 83.1997 100.6 86.0997 99.6002C82.4997 98.9002 78.2997 101 76.5997 99.2001C75.2997 97.9002 73.8997 93.7002 73.7997 90.6002C73.5997 85.2002 75.4997 80.0002 79.3997 76.9002C84.9997 72.5002 95.2997 72.3002 110.9 71.0002C113.3 70.8002 116.5 70.2002 119.9 69.5002C124.7 68.5002 129.9 67.5002 132.5 67.8002Z" fill="#231F20"/>
<path d="M132.5 67.8002C136.9 68.3002 145.1 73.2002 146.6 76.9002C147.2 78.4002 147.5 80.2002 147.5 82.1002C147.4 89.0002 143.5 92.4002 142.4 93.4002C140.4 95.2002 122.1 94.4002 111.2 96.8002C109 97.3002 107.7 97.9002 105.9 97.8002C104.3 97.7002 96.1997 97.3002 93.7997 96.3002C95.5997 98.0002 103.6 98.1002 104.1 98.5002C104.6 98.9002 102.2 99.4002 98.0997 99.7002C102.3 100.3 105.1 99.4002 113 98.0002C119.1 96.9002 142.2 97.2002 143.8 97.6002C150.1 99.5002 152.6 106.2 152.5 110.1C152.4 117 148.4 120.9 145.3 123.3C143.7 124.6 138 122.9 127.6 124.5C117.6 126 109.6 127.5 98.6997 125.8C100.8 126.9 103.3 127.5 106.8 127.8C107.3 127.8 104.3 128.2 101.9 128.8C105.5 129.1 110.9 127.8 111.4 127.8C115.9 127.8 119.4 127.2 122.3 126.8C132.8 125.3 143.3 126.7 144.6 127.5C145.9 128.3 148.5 132.2 148.4 138.1C148.3 145.1 144.3 148.6 142.9 150C139.1 153.6 109.9 150 97.3997 153C99.6997 152.9 103.6 152.5 105.6 152.9C106.1 153 102.5 154 101.2 155.7C103.4 154.8 105.2 153.6 108.5 152.9C121 153.2 135.2 154.1 143.1 152.3C143.1 152.3 144.2 154.7 144.2 156.8C144.1 163.9 141 169.9 136 172.9C132.2 175.2 125.7 174.8 119.5 174.9C116.3 174.9 113 175.4 109.9 175.8C105 176.4 95.5997 176.1 91.1997 173.7C86.9997 171.5 84.8997 169.5 84.0997 166C83.5997 163.6 84.2997 160.6 85.1997 158.7C86.1997 156.6 88.0997 157.5 93.5997 156.4C89.1997 155.5 85.1997 154.8 82.0997 151.8C80.4997 150.2 78.5997 148.5 77.9997 145.3C77.8997 144.8 77.8997 144.4 77.8997 143.9C77.8997 141.8 78.7997 139.6 79.2997 137.5C80.5997 132.5 83.0997 130.6 88.1997 128.7C83.3997 128.2 80.7997 128.9 78.2997 128.2C75.7997 127.5 73.4997 124.2 72.8997 119.4C72.7997 118.5 72.6997 117.6 72.6997 116.7C72.6997 113.2 73.4997 111.2 74.1997 109.6C74.8997 108.1 76.3997 106.1 77.5997 104.9C79.8997 102.6 83.1997 100.6 86.0997 99.6002C82.4997 98.9002 78.2997 101 76.5997 99.2002C75.2997 97.9002 73.8997 93.7002 73.7997 90.6002C73.5997 85.2002 75.4997 80.0002 79.3997 76.9002C84.9997 72.5002 95.2997 72.3002 110.9 71.0002C113.3 70.8002 116.5 70.2002 119.9 69.5002C124.7 68.5002 129.9 67.5002 132.5 67.8002Z" fill="#F4BA8E"/>
<defs>
<linearGradient id="paint0_linear" x1="3.1131" y1="117.25" x2="229.113" y2="117.25" gradientUnits="userSpaceOnUse">
<stop stop-color="#BF1400"/>
<stop offset="0.3132" stop-color="#ED3000"/>
<stop offset="1" stop-color="#AB0000"/>
</linearGradient>
<linearGradient id="paint1_linear" x1="1.77765e-07" y1="117.5" x2="235" y2="117.5" gradientUnits="userSpaceOnUse">
<stop/>
<stop offset="0.00429839" stop-color="#090909"/>
<stop offset="0.0277675" stop-color="#373737"/>
<stop offset="0.0542172" stop-color="#626262"/>
<stop offset="0.0826444" stop-color="#888888"/>
<stop offset="0.1136" stop-color="#A8A8A8"/>
<stop offset="0.1478" stop-color="#C4C4C4"/>
<stop offset="0.1864" stop-color="#DADADA"/>
<stop offset="0.2315" stop-color="#EBEBEB"/>
<stop offset="0.2872" stop-color="#F6F6F6"/>
<stop offset="0.3654" stop-color="#FDFDFD"/>
<stop offset="0.5824" stop-color="white"/>
<stop offset="0.6688" stop-color="#BBBBBB"/>
<stop offset="0.8455" stop-color="#363636"/>
<stop offset="0.9231"/>
</linearGradient>
</defs>
</svg>
