<svg width="242" height="242" viewBox="0 0 242 242" fill="none" xmlns="http://www.w3.org/2000/svg">
<path d="M120.775 210.786C170.481 210.786 210.775 170.492 210.775 120.786C210.775 71.0807 170.481 30.7864 120.775 30.7864C71.0693 30.7864 30.7749 71.0807 30.7749 120.786C30.7749 170.492 71.0693 210.786 120.775 210.786Z" fill="url(#paint0_linear)"/>
<path d="M7 120.786C7 90.2864 18.9 61.6864 40.4 40.1864C61.9 18.6864 90.5 6.78638 121 6.78638C151.5 6.78638 180.1 18.6864 201.6 40.1864C223.1 61.6864 235 90.2864 235 120.786C235 151.286 223.1 179.886 201.6 201.386C180.1 222.886 151.4 234.786 121 234.786C90.6 234.786 61.9 222.886 40.4 201.386C18.9 179.886 7 151.286 7 120.786ZM232.5 120.786C232.5 59.2864 182.5 9.28638 121 9.28638C59.5 9.28638 9.5 59.2864 9.5 120.786C9.5 182.286 59.5 232.286 121 232.286C182.5 232.286 232.5 182.286 232.5 120.786ZM28.6 120.786C28.6 96.0864 38.2 72.8864 55.7 55.3864C73.1 37.9864 96.3 28.3864 121 28.3864C145.7 28.3864 168.9 37.9864 186.4 55.4864C203.9 72.9864 213.5 96.1864 213.5 120.886C213.5 145.586 203.9 168.786 186.4 186.286C168.9 203.786 145.7 213.386 121 213.386C96.3 213.386 73.1 203.786 55.6 186.286C38.2 168.686 28.6 145.486 28.6 120.786ZM211 120.786C211 71.1864 170.6 30.7864 121 30.7864C71.4 30.7864 31 71.1864 31 120.786C31 170.386 71.4 210.786 121 210.786C170.6 210.786 211 170.386 211 120.786Z" fill="url(#paint1_linear)"/>
<path d="M36.9001 172.8C38.5001 175.8 40.4001 178.7 42.3001 181.4C46.1001 185.9 50.3001 189.9 54.8001 193.6C58.1001 196 61.4001 198.4 64.8001 200.7C65.0001 195.1 65.3001 189.5 65.5001 183.8C66.4001 161.8 67.2001 139.5 68.0001 117.5C69.1001 89.7999 69.8001 61.5999 70.3001 32.8999C68.2001 34.0999 66.1001 35.2999 64.1001 36.7999C61.9001 38.6999 59.9001 40.6999 58.0001 42.7999C53.5001 49.4999 50.7001 56.8999 46.7001 63.8999C42.2001 71.6999 36.3001 78.5999 32.2001 86.5999C31.6001 87.7999 30.9001 88.7999 30.1001 89.7999V165.9C32.9001 167.5 35.3001 169.8 36.9001 172.8Z" fill="url(#paint2_radial)"/>
<path d="M36.9001 172.8C38.5001 175.8 40.4001 178.7 42.3001 181.4C44.1001 183.5 46.0001 185.6 48.0001 187.5C52.9001 145.7 55.4001 99.2999 57.8001 53.4999C58.0001 49.7999 58.2001 46.0999 58.4001 42.3999C58.3001 42.4999 58.1001 42.6999 58.0001 42.7999C53.5001 49.4999 50.7001 56.8999 46.7001 63.8999C42.2001 71.6999 36.3001 78.5999 32.2001 86.5999C31.6001 87.7999 30.9001 88.7999 30.1001 89.7999V165.9C32.9001 167.5 35.3001 169.8 36.9001 172.8Z" fill="url(#paint3_radial)"/>
<path d="M36.9001 172.8C38.5001 175.8 40.4001 178.7 42.3001 181.4C46.1001 185.9 50.3001 189.9 54.8001 193.6C66.9001 202.6 80.0001 210.7 93.8001 217H95.4001L96.2001 27C93.3001 27 90.4001 27.2 87.5001 27.5C82.8001 28.3 78.2001 29.5 73.8001 31.1C70.4001 32.7 67.2001 34.6 64.1001 36.7C61.9001 38.6 59.9001 40.6 58.0001 42.7C53.5001 49.4 50.7001 56.8 46.7001 63.8C42.2001 71.7 36.3001 78.6 32.2001 86.6C31.6001 87.8 30.9001 88.8 30.1001 89.8V165.9C32.9001 167.5 35.3001 169.8 36.9001 172.8Z" fill="url(#paint4_radial)"/>
<path d="M31.8003 167C33.9003 168.5 35.6003 170.5 36.9003 172.8C38.5003 175.8 40.4003 178.7 42.3003 181.4C46.1003 185.9 50.3003 189.9 54.8003 193.6C66.6003 202.4 79.4003 210.3 92.9003 216.5C94.9003 165.9 95.7003 113.4 95.7003 59.7C95.7003 48.8 95.7003 37.9 95.7003 27C93.0003 27 90.2003 27.2 87.5003 27.4C82.8003 28.2 78.2003 29.4 73.8003 31C70.4003 32.6 67.2003 34.5 64.1003 36.6C61.9003 38.5 59.9003 40.5 58.0003 42.6C53.5003 49.3 50.7003 56.7 46.7003 63.7C42.2003 71.7 36.3003 78.6 32.2003 86.6C32.2003 86.6 32.2003 86.7 32.1003 86.7C32.4003 113.9 32.2003 140.6 31.8003 167Z" fill="url(#paint5_radial)"/>
<path d="M43.1001 182.4C46.7001 186.5 50.6001 190.2 54.8001 193.7C63.9001 200.5 73.7001 206.8 83.8001 212.1C85.1001 175.7 86.3001 139 87.2001 102C87.6001 84.6 88.0001 67.1 88.2001 49.4C88.3001 42.1 88.4001 34.8 88.4001 27.5C88.1001 27.5 87.8001 27.6 87.5001 27.6C82.8001 28.4 78.2001 29.6 73.8001 31.2C70.4001 32.8 67.2001 34.7 64.1001 36.8C61.9001 38.7 59.9001 40.7 58.0001 42.8C53.5001 49.5 50.7001 56.9 46.7001 63.9C45.6001 65.8 44.4001 67.7 43.1001 69.6C43.2001 75.3 43.2001 81 43.3001 86.7C43.5001 119 43.4001 150.8 43.1001 182.4Z" fill="url(#paint6_radial)"/>
<path d="M53.3 152.1C53.3 165.5 53.3 178.9 53.2 192.3C53.7 192.8 54.3 193.2 54.8 193.7C62 199.1 69.5 204.1 77.3 208.6C78.1 187.1 78.8 165.3 79.3 143.3C79.7 124.7 80.1 105.7 80.2 86.7C80.3 67.7999 80.3 48.5 80.3 29.2C78.1 29.8 75.8 30.5 73.7 31.3C70.3 32.9 67.1 34.8 64 36.9C61.8 38.8 59.8 40.7999 57.9 42.9C55.6 46.2999 53.8 49.9 52 53.5C52.4 66 52.7 78.2999 52.9 90.2999C53.3 111 53.3 131.7 53.3 152.1Z" fill="url(#paint7_radial)"/>
<path d="M64.0999 36.8C62.7999 37.9 61.5999 39 60.3999 40.2C60.3999 50.6 60.4999 61.1 60.5999 71.7C60.6999 82.7 60.7999 93.9 60.9999 105.5C61.3999 126.4 65.0999 146.4 66.4999 132.1C67.3999 123.2 68.1999 114 68.7999 104.5C69.4999 95 70.0999 85.2 70.3999 75.1C70.8999 61.1 71.2999 46.8 71.5999 32.2C68.9999 33.5 66.4999 35.1 64.0999 36.8Z" fill="url(#paint8_radial)"/>
<path d="M56.0998 99.9C55.8998 131.4 55.3998 162.6 54.7998 193.6C65.5998 201.6 77.1998 208.9 89.2998 214.8C90.3998 165.2 91.1998 115.1 91.4998 64.1C91.4998 54.1 91.5998 44.1 91.4998 34C91.4998 31.7 91.4998 29.5 91.4998 27.2C90.1998 27.3 88.7998 27.4 87.4998 27.5C82.7998 28.3 78.1998 29.5 73.7998 31.1C70.3998 32.7 67.1998 34.6 64.0998 36.7C61.8998 38.6 59.8998 40.6 57.9998 42.7C57.1998 43.8 56.4998 44.9 55.8998 46.1C56.0998 64.3999 56.2998 82.4 56.0998 99.9Z" fill="url(#paint9_radial)"/>
<path d="M63.5998 199.8C70.5998 204.6 77.8998 208.9 85.3998 212.8C86.5998 151.7 87.2998 89.7999 87.5998 27.3999C82.8998 28.1999 78.2998 29.3999 73.8998 30.9999C70.4998 32.5999 67.2998 34.4999 64.1998 36.5999C63.5998 37.1999 62.8998 37.6999 62.2998 38.2999C63.3998 93.2999 63.9998 147.5 63.5998 199.8Z" fill="url(#paint10_radial)"/>
<path d="M67.5996 202.5C72.1996 205.5 76.9996 208.3 81.7996 211C81.8996 204.7 82.0996 198.4 82.1996 192.1C83.2996 138.9 83.3996 83.6999 83.2996 28.3999C79.9996 29.0999 76.8996 29.9999 73.7996 31.0999C71.2996 32.2999 68.8996 33.5999 66.5996 35.0999C67.3996 91.6999 67.8996 147.7 67.5996 202.5Z" fill="url(#paint11_radial)"/>
<path d="M70.6996 204.5C73.1996 206 75.6996 207.5 78.1996 209C78.9996 149.8 79.1996 89.5999 79.2996 29.3999C77.3996 29.8999 75.5996 30.4999 73.7996 31.1999C72.4996 31.7999 71.2996 32.4999 70.0996 33.0999C70.7996 91.1999 71.1996 148.8 70.6996 204.5Z" fill="url(#paint12_radial)"/>
<path d="M73.9996 163C73.8996 177.4 73.5996 191.8 73.2996 206C73.9996 206.4 74.6996 206.8 75.3996 207.2C76.6996 149.2 77.4996 90.2999 76.9996 29.8999C75.8996 30.1999 74.7996 30.5999 73.7996 30.9999C73.5996 31.0999 73.2996 31.1999 73.0996 31.2999C73.7996 76.1999 74.3996 120.5 73.9996 163Z" fill="url(#paint13_radial)"/>
<path d="M36.9001 172.8C38.5001 175.8 40.4001 178.7 42.3001 181.4C46.1001 185.9 50.3001 189.9 54.8001 193.6C61.0001 198.3 67.6001 202.7 74.3001 206.7C74.5001 190.4 74.7001 174.1 74.9001 157.7C75.0001 147.5 75.1001 137.2 75.2001 126.9C75.3001 115.6 75.4001 104.4 75.5001 93.2999C75.6001 72.3999 75.8001 51.3999 75.9001 30.3999C75.1001 30.6999 74.4001 30.8999 73.8001 31.0999C70.4001 32.6999 67.2001 34.5999 64.1001 36.6999C61.9001 38.5999 59.9001 40.5999 58.0001 42.6999C53.5001 49.3999 50.7001 56.7999 46.7001 63.7999C42.2001 71.6999 36.3001 78.5999 32.2001 86.5999C31.6001 87.7999 30.9001 88.7999 30.1001 89.7999V165.9C32.9001 167.5 35.3001 169.8 36.9001 172.8Z" fill="url(#paint14_radial)"/>
<path d="M36.9 172.8C38.5 175.8 40.4 178.7 42.3 181.4C46.1 185.9 50.3 189.9 54.8 193.6C59.8 197.4 65.1 201 70.4 204.3C70.6 159 70.7 113.6 70.9 68.3999C70.9 58.9999 71 49.8999 71 40.5999C71 37.8999 71 35.0999 71 32.3999C68.6 33.6999 66.2 35.0999 63.9 36.6999C61.7 38.5999 59.7 40.5999 57.8 42.6999C53.3 49.3999 50.5 56.7999 46.5 63.7999C42.2 71.6999 36.3 78.5999 32.2 86.5999C31.8 87.3999 31.3 88.0999 30.8 88.7999C30.6 104.8 30.3 120.7 30 136.6V165.8C32.9 167.5 35.3 169.8 36.9 172.8Z" fill="url(#paint15_radial)"/>
<path d="M36.9002 172.8C38.5002 175.8 40.4002 178.7 42.3002 181.4C46.1002 185.9 50.3002 189.9 54.8002 193.6C58.4002 196.3 62.1002 198.9 65.9002 201.4C66.0002 146 66.3002 90.7999 66.3002 35.2C65.5002 35.7 64.8002 36.2 64.0002 36.7C61.8002 38.6 59.8002 40.6 57.9002 42.7C53.4002 49.4 50.6002 56.8 46.6002 63.8C43.7002 68.7999 40.2002 73.4999 37.0002 78.3999C36.2002 108.7 35.4002 139.2 34.7002 169.8C35.6002 170.7 36.3002 171.7 36.9002 172.8Z" fill="url(#paint16_radial)"/>
<path d="M54.8999 193.6C56.5999 194.9 58.2999 196.1 59.9999 197.3C60.3999 144.6 61.0999 92.1 61.3999 39.2C60.1999 40.3 59.0999 41.5 57.9999 42.8C53.4999 49.5 50.6999 56.9 46.6999 63.9C45.9999 65 45.2999 66.2 44.5999 67.3C43.8999 105.5 43.1999 143.6 42.3999 181.6C46.1999 186 50.2999 190 54.8999 193.6Z" fill="url(#paint17_radial)"/>
<path d="M53.5998 192.5C54.2998 144 54.9998 95.5 55.5998 46.7C53.5998 50.3 51.7998 53.9999 49.9998 57.6999C49.3998 101.1 48.5998 144.1 47.7998 187.1C49.4998 189 51.4998 190.8 53.5998 192.5Z" fill="url(#paint18_radial)"/>
<path d="M85.0999 61.3C85.2999 112.3 84.4999 162.1 83.8999 212.1C87.1999 213.8 90.4999 215.4 93.7999 217H95.3999L96.1999 27C93.2999 27 90.3999 27.2 87.4999 27.5C86.5999 27.6 85.7999 27.8 84.8999 28C84.8999 29.5 84.8999 31.1 84.8999 32.6C84.9999 42.1 84.9999 51.7 85.0999 61.3Z" fill="url(#paint19_radial)"/>
<path d="M93.9001 217H95.5001C95.7001 153.7 96.0001 90.4001 96.2001 27.1001C93.6001 27.1001 91.0001 27.2001 88.4001 27.5001C88.3001 30.6001 88.2001 33.7001 88.2001 36.8001C88.1001 42.8001 87.9001 49.0001 87.9001 55.4001C87.7001 107.6 87.3001 160.8 86.6001 213.5C88.9001 214.7 91.4001 215.9 93.9001 217Z" fill="url(#paint20_radial)"/>
<path d="M32.1001 167.2C34.0001 168.7 35.7001 170.5 36.9001 172.8C38.5001 175.8 40.4001 178.7 42.3001 181.4C46.1001 185.9 50.3001 189.9 54.8001 193.6C61.8001 198.8 69.1001 203.7 76.7001 208.1C77.9001 181.1 79.3001 154.3 80.3001 127.6C80.7001 118.5 80.8001 109.3 81.0001 100.9C81.2001 90.8 81.3001 80.8 81.4001 70.8C81.5001 59.8 81.6001 48.7 81.6001 37.6C81.6001 34.6 81.6001 31.7 81.6001 28.7C78.9001 29.4 76.3001 30.2 73.7001 31.1C70.3001 32.7 67.1001 34.6 64.0001 36.7C61.8001 38.6 59.8001 40.6 57.9001 42.7C53.4001 49.4 50.6001 56.8 46.6001 63.8C42.2001 71.7 36.3001 78.6 32.2001 86.6C32.5001 96.6 32.6001 106.4 32.6001 115.8C32.6001 130.3 32.2001 145 32.1001 159.6C32.1001 162.1 32.1001 164.7 32.1001 167.2Z" fill="url(#paint21_radial)"/>
<path d="M54.9 193.6C58.3 196.2 61.8 198.6 65.4 201C67 144.6 69 88.7 70.6 32.7C68.4 33.9 66.2 35.2 64.1 36.7C61.9 38.6 59.9 40.6 58 42.7C53.5 49.4 50.7 56.8 46.7 63.8C46.5 64.2 46.2 64.6 46 65C45.6 104.6 45 144.1 44.5 183.7C47.6 187.4 51.1 190.6 54.9 193.6Z" fill="url(#paint22_radial)"/>
<path d="M54.9 193.6C57.1 195.2 59.3 196.8 61.6 198.4C62.9 143.9 64.7 89.7 65.9 35.5C65.3 35.9 64.7 36.3 64.1 36.7C61.9 38.6 59.9 40.6 58 42.7C55.3 46.7 53.2 51 51.1 55.3C50.5 99.5 49.8 144 49.5 188.8C51.2 190.5 53 192.1 54.9 193.6Z" fill="url(#paint23_radial)"/>
<path d="M54.9003 193.6C56.0003 194.4 57.1003 195.2 58.2003 196C59.4003 156.6 60.9003 117.5 61.9003 78.3999C62.3003 65.1999 62.5003 51.5999 62.7003 37.8999C61.0003 39.3999 59.4003 40.9999 58.0003 42.6999C57.7003 43.1999 57.3003 43.6999 57.0003 44.1999C57.0003 45.2999 57.0003 46.2999 56.9003 47.3999C56.3003 83.8999 55.1003 119.8 54.1003 155.4C53.8003 167.5 53.5003 179.9 53.3003 192.3C53.8003 192.8 54.3003 193.2 54.9003 193.6Z" fill="url(#paint24_radial)"/>
<path d="M73.9998 163C73.8998 177 74.4998 192.1 75.0998 207.1C81.1998 210.7 87.4998 214 93.8998 216.9H95.4998L96.1998 27C93.2998 27 90.3998 27.2 87.4998 27.5C82.7998 28.3 78.1998 29.5 73.7998 31.1C72.5998 31.7 71.3998 32.3 70.2998 32.9C72.4998 77.9 74.3998 122.3 73.9998 163Z" fill="url(#paint25_radial)"/>
<path d="M93.4 216.8C93.5 213.7 93.5 210.6 93.6 207.5C94.8 148.9 94.7 87.9001 94.6 27.1001C92.2 27.2001 89.9 27.3001 87.5 27.5001C83.1 28.3001 78.7 29.4001 74.5 30.9001C77.4 92.4001 79.6 152.8 79.9 209.9C84.3 212.4 88.8 214.7 93.4 216.8Z" fill="url(#paint26_radial)"/>
<path d="M82.9 211.6C85.2 212.8 87.5 214 89.9 215.2C90.6 153.2 90.8 90.2001 90.9 27.3C89.8 27.4 88.6 27.5 87.5 27.6C85.7 27.9 83.8 28.3 82 28.7C82.9 90.6001 83.4 152.1 82.9 211.6Z" fill="url(#paint27_radial)"/>
<path d="M93.8998 217H143.5C143.2 201.5 142.8 185.9 142.3 170.1C141.6 149.3 141 128.4 140.3 107.4C139.8 91.9001 139.2 76.8001 138.6 61.9001C131.4 48.3001 124.1 34.7001 116.9 21.1001H110.3C106.7 24.7001 101.8 27.0001 96.2998 27.0001C94.9998 27.0001 93.7998 27.0001 92.4998 27.1001C92.2998 90.1001 91.9998 153.1 91.7998 216C92.5998 216.4 93.1998 216.7 93.8998 217Z" fill="url(#paint28_radial)"/>
<path d="M93.8999 217H132.7C132.4 209.3 132 201.6 131.7 193.9C129.1 140.4 126.6 86.2001 120.4 27.7001C119.1 25.3001 118 23.2001 116.9 21.1001H110.3C106.7 24.7001 101.8 27.0001 96.2999 27.0001C95.2999 27.0001 94.3999 27.0001 93.3999 27.1001C93.0999 29.8001 92.7999 32.7001 92.4999 35.9001L91.8999 216.1C92.5999 216.4 93.1999 216.7 93.8999 217Z" fill="url(#paint29_radial)"/>
<path d="M151.1 214.8C157.1 211.3 163.5 208.8 169.9 206L170.2 121.6C152.5 88.1001 134.7 54.6001 116.9 21.1001H110.3C106.7 24.7001 101.8 27.0001 96.2998 27.0001C94.9998 27.0001 93.7998 27.0001 92.4998 27.1001C92.2998 90.1001 91.9998 153.1 91.7998 216C92.3998 216.3 93.0998 216.6 93.7998 216.9H148.1C149 216.1 150 215.4 151.1 214.8Z" fill="url(#paint30_radial)"/>
<path d="M151.1 214.8C156.7 211.5 162.8 209.1 168.7 206.5C168.1 176 167.1 144.9 165.6 112.9C149.4 82.3001 133.1 51.7001 116.9 21.1001H110.3C109.2 22.2001 108 23.2001 106.7 24.0001C106.9 52.5001 106.8 80.5001 106.2 107.7C105.8 125.4 105.1 142.6 104.2 159.5C103.1 179.8 101.1 198.5 99 217H148C149 216.1 150 215.4 151.1 214.8Z" fill="url(#paint31_radial)"/>
<path d="M151.1 214.8C154.1 213 157.3 211.5 160.5 210.1C159.7 172.8 158.5 135.1 157.2 97.1002C144.1 72.4002 131.1 47.8002 118 23.2002C118.2 57.3002 118.2 91.2002 117.5 123.9C117.2 139.7 116.7 155.3 116 170.6C115.3 186.2 114.6 201.9 113.6 217H148.1C149 216.1 150 215.4 151.1 214.8Z" fill="url(#paint32_radial)"/>
<path d="M151.1 214.8C152.1 214.2 153.1 213.7 154.1 213.2C154 202.7 153.8 192.1 153.6 181.6C153 150 152.1 117.7 150.7 85C141.6 67.9 137.1 59.4 128.1 42.3C128.1 61.1 128 79.8 127.9 98.3C127.7 115.4 127.6 132.8 127.1 149C126.3 171.9 125.1 194.6 123.9 217H148.1C149 216.1 150 215.4 151.1 214.8Z" fill="url(#paint33_radial)"/>
<path d="M144.5 217C144.5 215.5 144.4 214.1 144.4 212.6C144.1 203.1 143.6 193.2 143 183.4C142.4 173.5 141.7 163.6 140.9 153.5C139.6 137.3 135.8 143.2 135.2 159.6C134.9 168.7 134.7 177.8 134.6 186.8C134.4 195.9 134.3 205 134.2 214C134.2 215 134.2 216 134.1 217H144.5Z" fill="url(#paint34_radial)"/>
<path d="M148.1 217C149 216.2 150.1 215.4 151.2 214.8C155.6 212.3 160.2 210.2 164.8 208.2C164.5 175.2 163.9 141.9 163.3 108.4C151.9 87.1001 140.7 65.9001 129.4 44.6001C129.9 80.1001 130.3 115.7 130.3 150.2C130.3 173.1 129.7 195.3 128.9 217H148.1Z" fill="url(#paint35_radial)"/>
<path d="M148.1 217C149 216.2 150.1 215.4 151.2 214.8C154.3 213 157.5 211.4 160.8 210C160.6 174.1 160.1 137.8 159.5 101.3C151 85.3 146.8 77.3 138.3 61.3C138.8 115.1 137.8 166.8 136.1 217H148.1Z" fill="url(#paint36_radial)"/>
<path d="M148.1 217C149 216.2 150.1 215.4 151.2 214.8C153.2 213.7 155.2 212.6 157.2 211.7C157.2 191.1 157.1 170.2 156.8 149.1C156.5 131 156.3 112.8 156 94.7001C150.6 84.4001 147.8 79.3001 142.4 69.1001C142.7 119.7 141.9 168.8 140.7 217.1H148.1V217Z" fill="url(#paint37_radial)"/>
<path d="M148.1 217C149 216.2 150.1 215.4 151.2 214.8C151.8 214.4 152.5 214.1 153.1 213.7C153.2 172.2 153.1 130.5 152.6 88.3C149.6 82.7 148.1 79.9 145.2 74.3C145.3 80.7 145.4 87.2001 145.5 93.4001C145.8 135.3 145.3 176.4 144.4 217H148.1Z" fill="url(#paint38_radial)"/>
<path d="M147.7 217H148C148.9 216.2 149.9 215.5 150.9 214.9C151 171.7 150.3 127.2 149.4 82.5002C148.6 81.0002 148.2 80.2002 147.4 78.7002C147.9 102.5 148.3 126.4 148.4 149.4C148.5 172.2 148.2 194.7 147.7 217Z" fill="url(#paint39_radial)"/>
<path d="M100.2 217H148.1C148.5 216.6 149 216.3 149.5 215.9C149.5 214.5 149.5 213.1 149.5 211.7C149.5 202.2 149.5 192.6 149.5 183C149.5 174.2 149.5 165.4 149.4 156.5C149.3 131.5 149.1 106.4 148.9 81.3001C138.2 61.2001 127.6 41.2001 116.9 21.1001H110.3C107.7 23.8001 104.3 25.7001 100.6 26.5001C101 81.1001 101.4 135.7 100.6 188.2C100.5 197.7 100.3 207.3 100.2 217Z" fill="url(#paint40_radial)"/>
<path d="M116.9 21.1001H110.3C108.7 22.8001 106.7 24.1001 104.6 25.2001C105.4 86.8001 105.9 148.1 104.7 206.7C104.7 210.2 104.8 213.6 104.8 217H144.7C144.9 169.6 145.1 122.2 145.2 74.8001C135.9 56.9001 126.4 39.0001 116.9 21.1001Z" fill="url(#paint41_radial)"/>
<path d="M116.9 21.1001H110.3C110.1 21.3001 109.8 21.6001 109.6 21.8001C110.3 70.1001 111.5 119.3 112.5 167.6C112.7 175.7 112.7 183.6 112.9 191C113.1 199.8 113.3 208.6 113.4 217H140.1C140.5 167 140.5 116.5 140.9 66.5001C132.9 51.3001 124.9 36.2001 116.9 21.1001Z" fill="url(#paint42_radial)"/>
<path d="M135.1 217C135.2 163.3 134.7 108.7 134.8 54.9C127.7 41.5 124.2 34.8 117 21.3C118.1 86.9 118.8 152.1 119.4 216.9H135.1V217Z" fill="url(#paint43_radial)"/>
<path d="M124.1 217H129.5C129.4 159.5 128.8 100.6 128.4 42.6C126 38.1 124.8 35.8 122.4 31.3C123.1 93.4 124.1 156.3 124.1 217Z" fill="url(#paint44_radial)"/>
<path d="M169.9 206L170.2 121.6C165.5 112.7 163.2 108.3 158.5 99.4001C158.6 136.3 159 173.8 159 210.7C162.6 209.1 166.3 207.6 169.9 206Z" fill="url(#paint45_radial)"/>
<path d="M169.9 206C170 177.9 170.1 149.8 170.2 121.6C166.4 114.5 164.6 111 160.8 103.9C161.2 139.2 161.4 174.7 161.4 209.6C164.3 208.4 167.1 207.2 169.9 206Z" fill="url(#paint46_radial)"/>
<path d="M151.1 214.8C152.3 214.1 153.6 213.4 154.8 212.8C154.7 207.9 154.6 202.7 154.4 197.4C153.1 160.4 151.2 121.3 150.2 84.1001C139.2 63.0001 128 42.1001 116.9 21.1001H110.3C109.3 22.1001 108.2 23.0001 107 23.8001C107 25.8001 107 27.8001 107 29.8001C107 42.5001 107.4 56.3001 107.2 68.4001C106.6 118.1 100.2 163.6 99.5 213.4C99.5 214.6 99.5 215.7 99.5 216.9H148.1C149 216.1 150 215.4 151.1 214.8Z" fill="url(#paint47_radial)"/>
<path d="M120 201.2C120 206.4 119.9 211.7 119.8 216.9H143.4C142.1 166.1 140.6 114.3 139.6 63.7001C131.5 48.4001 127.4 40.7001 119.3 25.4001C119.5 84.1001 120.3 144 120 201.2Z" fill="url(#paint48_radial)"/>
<path d="M139.3 217C138.3 164.2 136.8 109.8 136 57.0002C131.4 48.3002 129.1 43.9002 124.5 35.2002C124.4 95.1002 125.2 157.5 125.4 217H139.3Z" fill="url(#paint49_radial)"/>
<path d="M130.8 196.5C130.9 203.2 130.9 210.1 131 216.9H136.4C136.3 206.3 136.2 195.6 135.9 184.9C134.9 140.7 133.4 94.9 132.4 50.3C130.6 46.9 129.7 45.2 127.9 41.8C128 60.2 128.2 78.9 128.7 97.7C129.5 130.7 130.4 164.1 130.8 196.5Z" fill="url(#paint50_radial)"/>
<path d="M151.1 214.8C157.1 211.3 163.5 208.8 169.9 206L170.2 121.6C162.4 106.9 158.5 99.6001 150.7 84.9001C150.5 107.4 148.3 126.5 148.3 149.3C148.4 173.1 147.4 195.4 145.9 216.9H147.9C149 216.1 150 215.4 151.1 214.8Z" fill="url(#paint51_radial)"/>
<path d="M151.2 214.7C156.7 211.5 162.6 209.1 168.5 206.6C168.4 194.3 168.3 182 168.2 169.5C167.9 151.8 167.7 134 167.4 116.2C162.3 106.6 159.8 101.9 154.7 92.3C155 135.1 153.5 175.6 151.2 214.7Z" fill="url(#paint52_radial)"/>
<path d="M157 211.7C159.5 210.5 162.1 209.4 164.7 208.2C164.7 175.8 164.6 143.1 164.2 110.3C161.4 105.1 160 102.5 157.3 97.2002C157.4 104 157.5 110.9 157.6 117.5C157.8 149.4 157.5 180.7 157 211.7Z" fill="url(#paint53_radial)"/>
<path d="M151.7 25.3001C147.2 25.2001 143 23.7001 139.7 21.1001H116.9C129 44.0001 141.2 66.9001 153.3 89.8001C153.5 75.3001 153.5 60.8001 153.6 47.2001C153.7 39.8001 153.7 32.6001 153.7 25.4001C153.1 25.4001 152.4 25.4001 151.7 25.3001Z" fill="url(#paint54_radial)"/>
<path d="M139.7 21.1001H116.9C126.7 39.5001 136.4 57.9001 146.2 76.4001C146.6 66.1001 146.6 56.4001 146.7 47.1001C146.7 39.7001 146.7 32.2001 146.7 24.7001C144.1 23.9001 141.7 22.7001 139.7 21.1001Z" fill="url(#paint55_radial)"/>
<path d="M116.9 21.1001C123.8 34.1001 130.7 47.1001 137.6 60.1001C137.8 49.5001 138 39.0001 138 28.4001C138 26.0001 138 23.5001 138 21.1001H116.9V21.1001Z" fill="url(#paint56_radial)"/>
<path d="M116.9 21.1001C117.5 22.3001 118.2 23.5001 118.9 24.8001C118.9 23.8001 119 22.6001 119 21.1001H116.9Z" fill="url(#paint57_radial)"/>
<path d="M165.2 29.0001C164.8 28.8001 164.4 28.6001 164 28.4001C160.7 27.1001 157.3 26.1001 153.8 25.4001C153.1 25.4001 152.4 25.3001 151.8 25.3001C147.3 25.2001 143.1 23.7001 139.8 21.1001H116.9C132.5 50.5001 148.1 79.9001 163.7 109.4C163.7 106.6 163.7 103.7 163.7 100.9C163.7 85.7001 163.7 70.1001 164 55.8001C164.3 46.7001 164.6 37.8001 165.2 29.0001Z" fill="url(#paint58_radial)"/>
<path d="M153.8 25.4001C153.1 25.4001 152.4 25.3001 151.8 25.3001C147.3 25.2001 143.1 23.7001 139.8 21.1001H116.9C130.2 46.2001 143.6 71.3001 156.9 96.5001C157.1 89.4001 157.3 82.3001 157.5 75.4001C157.9 58.9001 158.7 42.8001 159.6 27.0001C157.6 26.3001 155.7 25.8001 153.8 25.4001Z" fill="url(#paint59_radial)"/>
<path d="M139.7 21.1001H123.9C124 22.5001 124.1 24.0001 124.2 25.4001C124.4 29.1001 124.8 32.8001 125 36.4001C132.9 51.3001 136.9 58.7001 144.8 73.6001C144.9 72.7001 145 71.8001 145.1 70.9001C146.9 56.0001 148.6 40.7001 150.1 25.2001C146.2 24.9001 142.6 23.4001 139.7 21.1001Z" fill="url(#paint60_radial)"/>
<path d="M153.8 25.4001C153.1 25.4001 152.4 25.3001 151.8 25.3001C147.3 25.2001 143.1 23.7001 139.8 21.1001H125.2C125.2 26.3001 125.3 31.6001 125.3 36.8001C137.1 59.1001 148.9 81.4001 160.7 103.7C161.1 78.2001 161.8 52.9001 162.4 27.9001C159.6 26.9001 156.7 26.0001 153.8 25.4001Z" fill="url(#paint61_radial)"/>
<path d="M153.8 25.4001C153.1 25.4001 152.4 25.3001 151.8 25.3001C147.3 25.2001 143.1 23.7001 139.8 21.1001H126.8C126.8 27.3001 126.9 33.6001 126.9 39.8001C138 60.8001 149.2 81.7001 160.3 102.7C160.6 77.5001 161 52.4001 161.4 27.4001C158.8 26.6001 156.3 25.9001 153.8 25.4001Z" fill="url(#paint62_radial)"/>
<path d="M153.8 25.4001C153.1 25.4001 152.4 25.3001 151.8 25.3001C147.3 25.2001 143.1 23.7001 139.8 21.1001H130.3C130.3 29.5001 130.4 38.0001 130.4 46.4001C140.1 64.6001 149.7 82.8001 159.4 101C159.7 76.7001 159.7 51.6001 159.7 26.9001C157.7 26.3001 155.7 25.8001 153.8 25.4001Z" fill="url(#paint63_radial)"/>
<path d="M153.8 25.4001C153.1 25.4001 152.4 25.3001 151.8 25.3001C147.3 25.2001 143.1 23.7001 139.8 21.1001H134.1C134.1 31.9001 134.1 42.7001 134.1 53.5001C142.3 68.9001 146.4 76.6001 154.6 92.1001C154.8 75.3001 154.9 58.3001 155 41.5001C155 36.1001 155.1 30.9001 155.1 25.8001C154.6 25.6001 154.2 25.5001 153.8 25.4001Z" fill="url(#paint64_radial)"/>
<path d="M141.6 22.4001C141.2 36.6001 141.1 51.8001 140.9 66.3001C144.1 72.3001 145.7 75.3001 148.9 81.3001C149.3 62.7001 149.6 44.0001 149.8 25.2001C146.8 24.9001 144.1 23.9001 141.6 22.4001Z" fill="url(#paint65_radial)"/>
<path d="M139.7 21.1001H116.9C124.9 36.1001 132.9 51.2001 140.9 66.2001C141.2 51.5001 141.8 37.1001 142.3 22.8001C141.4 22.3001 140.5 21.7001 139.7 21.1001Z" fill="url(#paint66_radial)"/>
<path d="M116.9 21.1001C123.5 33.6001 130.2 46.1001 136.8 58.6001C137.3 46.2001 137.8 33.7001 138.3 21.1001H116.9Z" fill="url(#paint67_radial)"/>
<path d="M116.9 21.1001C123.4 33.3001 127.5 41.0001 134.7 54.7001C135 43.6001 135.3 32.4001 135.5 21.1001H116.9Z" fill="url(#paint68_radial)"/>
<path d="M118.6 21.1C118.6 22.1 118.5 23.1 118.5 24.1C123.4 33.3 125.8 37.8 130.7 47C130.8 38.4 130.8 29.7 130.9 21H118.6V21.1Z" fill="url(#paint69_radial)"/>
<path d="M122 21.1001C121.9 24.2001 121.8 27.2001 121.7 30.3001C122.6 32.1001 123.1 32.9001 124 34.7001C124.1 30.2001 124.3 25.6001 124.4 21.1001H122Z" fill="url(#paint70_radial)"/>
<path d="M163.9 28.4C162.7 28 161.6 27.5 160.4 27.2C160.2 36 160 44.7999 159.8 53.6C159.4 69.1 159.1 84.5 158.8 100C163.4 108.7 165.7 113 170.3 121.6L170.6 31.7C168.4 30.6 166.2 29.5 163.9 28.4Z" fill="url(#paint71_radial)"/>
<path d="M165.6 29.3C164.3 54.7 163.2 80.5001 162.2 106.6C165.4 112.6 167 115.7 170.2 121.7C170.3 91.7001 170.4 61.8 170.5 31.8C168.9 30.9 167.3 30 165.6 29.3Z" fill="url(#paint72_radial)"/>
<path d="M151.7 25.3001C147.2 25.2001 143 23.7001 139.7 21.1001H116.9C128.9 43.7001 140.9 66.3001 152.9 88.9001C153.1 67.7001 153.4 46.6001 153.6 25.4001C153 25.4001 152.4 25.4001 151.7 25.3001Z" fill="url(#paint73_radial)"/>
<path d="M139.7 21.1001H120C120 21.8001 120 22.5001 120.1 23.2001C120.1 24.6001 120.2 25.9001 120.2 27.3001C130.9 47.5001 136.3 57.6001 147 77.9001C147.5 60.3001 147.9 42.7001 148.3 25.1001C145.1 24.4001 142.2 23.0001 139.7 21.1001Z" fill="url(#paint74_radial)"/>
<path d="M139.7 21.1001H125C125 26.2001 125.1 31.4001 125.1 36.5001C133.2 51.8001 137.3 59.4001 145.4 74.7001C145.7 58.0001 145.9 41.2001 146.1 24.4001C143.7 23.7001 141.6 22.6001 139.7 21.1001Z" fill="url(#paint75_radial)"/>
<path d="M139.7 21.1001H133.4C133.6 31.8001 133.8 42.5001 134 53.2001C136.6 58.2001 138 60.7001 140.6 65.6001C140.7 51.1001 140.9 36.6001 141 22.0001C140.5 21.7001 140.1 21.4001 139.7 21.1001Z" fill="url(#paint76_radial)"/>
<path d="M163.9 28.4001C160.6 27.1001 157.2 26.1001 153.7 25.4001C153 25.4001 152.3 25.3001 151.7 25.3001C147.2 25.2001 143 23.7001 139.7 21.1001H138.6C138.7 34.9001 138.8 48.7001 138.9 62.5001C149.3 82.2001 159.8 101.9 170.2 121.6L170.5 31.7001C168.4 30.6001 166.2 29.5001 163.9 28.4001Z" fill="url(#paint77_radial)"/>
<path d="M163.9 28.4001C160.6 27.1001 157.2 26.1001 153.7 25.4001C153 25.4001 152.3 25.3001 151.7 25.3001C147.2 25.2001 143 23.7001 139.7 21.1001H133.6C133.8 32.0001 133.9 42.8001 134.1 53.5001C146.1 76.2001 158.2 98.9001 170.2 121.7L170.5 31.8001C168.4 30.6001 166.2 29.5001 163.9 28.4001Z" fill="url(#paint78_radial)"/>
<path d="M163.9 28.4C160.6 27.1 157.2 26.1 153.7 25.4C153 25.4 152.3 25.3 151.7 25.3C150.1 25.3 148.6 25.1 147.1 24.7C147.1 42.6 147 60.2 147 77.9C154.6 92.2 158.4 99.3999 166 113.8C166.2 97 166.3 80.2 166.4 63.4C166.5 55 166.5 47.2 166.5 39.6C166.5 36.3 166.5 33.1 166.5 29.8C165.8 29.3 164.9 28.9 163.9 28.4Z" fill="url(#paint79_radial)"/>
<path d="M171.4 205.3C178 202.4 184 199 189.8 194.8C196.5 189.5 203.4 183.9 209 177.4C211.1 174.2 212.6 170.9 214.2 167.4C215.3 165 216.6 162.7 218 160.5V148.5C217.8 138.5 217.6 128.3 217.3 118.2C216.9 107.7 216.4 96.9999 216 86.5999C213 81.9999 210.4 77.0999 207.9 72.1999C204 64.3999 200.3 56.4999 195.2 49.3999C193.5 47.3999 191.7 45.5999 189.7 43.8999C182.5 38.6999 175 33.8999 167.1 29.8999L166.4 207.5C168 206.8 169.7 206.1 171.4 205.3Z" fill="url(#paint80_radial)"/>
<path d="M171.4 205.3C178 202.4 184 199 189.8 194.8C196.5 189.5 203.4 183.9 209 177.4C209.7 176.4 210.2 175.4 210.8 174.4C210.8 169 210.7 163.6 210.7 158.2C210.6 144.7 210.6 130.9 210.3 117C210 103.1 209.8 89.3 209.6 75.6C209 74.5 208.5 73.4 207.9 72.3C204 64.5 200.3 56.6 195.2 49.5C193.5 47.5 191.7 45.7 189.7 44C182.5 38.8 175 34 167.1 30C166.9 89.2 166.6 148.4 166.4 207.6C168 206.8 169.7 206.1 171.4 205.3Z" fill="url(#paint81_radial)"/>
<path d="M195.2 49.4C193.5 47.4 191.7 45.6 189.7 43.9C184 39.8 178.1 35.9 172 32.5C173.7 55.9 175.5 79.6 177.6 103.4C178.7 116.3 179.9 128.9 181.1 140.9C182.3 152.8 183.7 164.2 185.1 175.1C187.8 180.8 190.4 178.1 192.9 168.5C193.9 164.6 194.9 159.5 195.9 153.4C196.9 147.3 198 140.3 198.7 132.1C200.5 110.2 200.4 83.8 200.1 57.2C198.6 54.6 196.9 52 195.2 49.4Z" fill="url(#paint82_radial)"/>
<path d="M171.4 205.3C178 202.4 184 199 189.8 194.8C196.5 189.5 203.4 183.9 209 177.4C211.1 174.2 212.6 170.9 214.2 167.4C215.3 165 216.6 162.7 218 160.5V89.7C214.2 84.2 210.9 78.3 207.9 72.3C204 64.5 200.3 56.6 195.2 49.5C193.5 47.5 191.7 45.7 189.7 44C182.5 38.8 175 34 167.1 30L166.4 207.6C168 206.8 169.7 206.1 171.4 205.3Z" fill="url(#paint83_radial)"/>
<path d="M170.3 138.2C171.9 159 174.2 181.5 176 203.2C180.8 200.8 185.4 198.1 189.8 194.8C196.5 189.5 203.4 183.9 209 177.4C211.1 174.2 212.6 170.9 214.2 167.4C215.3 165 216.6 162.7 218 160.5V89.7C214.2 84.2 210.9 78.3 207.9 72.3C204 64.5 200.3 56.6 195.2 49.5C193.5 47.5 191.7 45.7 189.7 44C182.5 38.8 175 34 167.1 30L167 67.5C167.1 71.5 167.3 75.8 167.5 80.2C168.2 99 168.8 118.6 170.3 138.2Z" fill="url(#paint84_radial)"/>
<path d="M184.1 171.8C185 180.4 185.8 188.8 186.4 197.1C187.5 196.3 188.6 195.6 189.7 194.8C196.4 189.5 203.3 183.9 208.9 177.4C211 174.2 212.5 170.9 214.1 167.4C215.2 165 216.5 162.7 217.9 160.5V89.6999C214.1 84.1999 210.8 78.2999 207.8 72.2999C203.9 64.4999 200.2 56.5999 195.1 49.4999C193.4 47.4999 191.6 45.6999 189.6 43.9999C186.7 41.8999 183.8 39.8999 180.8 37.8999C180.7 46.9999 180.6 56.0999 180.6 65.3999C180.6 83.1999 180.7 101.4 181.4 119.9C182.1 136.2 183.1 154.1 184.1 171.8Z" fill="url(#paint85_radial)"/>
<path d="M194.9 173.5C195.1 179.1 195.3 184.7 195.5 190.2C200.3 186.2 205 182.1 208.9 177.4C211 174.2 212.5 170.9 214.1 167.4C215.2 165 216.5 162.7 217.9 160.5V89.7C214.1 84.2 210.8 78.3 207.8 72.3C203.9 64.5 200.2 56.6 195.1 49.5C194.2 48.4 193.2 47.3 192.1 46.3C192.1 47.8 192.1 49.3 192.1 50.7C192 71.3 192.4 93.5 192.8 115.3C193.3 134.3 194.1 154.1 194.9 173.5Z" fill="url(#paint86_radial)"/>
<path d="M205.5 173C205.6 175.7 205.6 178.3 205.7 181C206.8 179.9 207.9 178.7 209 177.5C211.1 174.3 212.6 171 214.2 167.5C215.3 165.1 216.6 162.8 218 160.6V127.7C217.6 114.1 217 100.3 216 86.8C213 82.2 210.4 77.3 207.9 72.4C206.5 69.5 205.1 66.7 203.6 63.8C201.5 88.3 204.1 125.8 204.9 150.1C205.1 157.6 205.3 165.3 205.5 173Z" fill="url(#paint87_radial)"/>
<path d="M197.9 132.9C198 140.6 198.2 148.9 198.5 157.8C198.9 167.3 199.3 176.9 199.8 186.6C203.1 183.7 206.2 180.7 208.9 177.5C211 174.3 212.5 171 214.1 167.5C215.2 165.1 216.5 162.8 217.9 160.6V89.6999C214.1 84.1999 210.8 78.2999 207.8 72.2999C204.6 65.9999 201.6 59.5999 197.9 53.5999V53.6999C197.8 61.5999 197.7 69.5999 197.6 77.6999C197.5 86.9999 197.5 96.3999 197.6 106C197.6 114.8 197.7 123.7 197.9 132.9Z" fill="url(#paint88_radial)"/>
<path d="M202.4 85.4999C202.6 93.0999 202.7 100.6 202.9 107.7C203 113.3 203.1 119.3 203.4 125.3C204.2 143.6 205.1 162.1 206 180.6C207 179.6 208 178.5 208.9 177.4C211 174.2 212.5 170.9 214.1 167.4C215.2 165 216.5 162.7 217.9 160.5V89.6999C214.1 84.1999 210.8 78.2999 207.8 72.2999C205.8 68.3999 203.9 64.4999 201.9 60.5999C201.9 63.0999 202 65.6999 202 68.1999C202.2 73.9999 202.3 79.7999 202.4 85.4999Z" fill="url(#paint89_radial)"/>
<path d="M210.1 122.6C210.5 139.3 211 156.1 211.5 173C212.4 171.2 213.3 169.3 214.2 167.4C215.3 165 216.6 162.7 218 160.5V89.6998C214.7 84.9998 211.9 79.9998 209.2 74.7998C209.3 80.2998 209.5 85.6998 209.6 90.6998C209.7 102.2 209.9 112.3 210.1 122.6Z" fill="url(#paint90_radial)"/>
<path d="M214.6 133.8C214.8 144.2 215 154.7 215.2 165.3C216 163.6 217 162 217.9 160.5V89.6998C216.6 87.7998 215.3 85.7998 214.1 83.7998C214.2 95.1998 214.3 106.5 214.4 117.9C214.5 123.4 214.5 128.5 214.6 133.8Z" fill="url(#paint91_radial)"/>
<path d="M217.9 160.5V115.9C217.9 119 217.8 122.1 217.8 125.1C217.7 130.5 217.6 135.7 217.6 140.9C217.6 147.5 217.6 154.2 217.7 161C217.8 160.8 217.8 160.7 217.9 160.5Z" fill="url(#paint92_radial)"/>
<path d="M175 203.7C180.2 201.2 185.1 198.3 189.8 194.8C196.5 189.5 203.4 183.9 209 177.4C211.1 174.2 212.6 170.9 214.2 167.4C215.3 165 216.6 162.7 218 160.5V89.6999C214.2 84.1999 210.9 78.2999 207.9 72.2999C204 64.4999 200.3 56.5999 195.2 49.4999C193.5 47.4999 191.7 45.6999 189.7 43.9999C185.5 40.9999 181.3 38.0999 176.9 35.3999C177.2 45.1999 177.1 54.3999 176.5 62.7999C176 70.6999 175.7 79.2999 175.5 87.1999C175.2 96.6999 175 106.3 174.9 115.9C174.8 126.6 174.7 137.4 174.7 148.3C174.7 157.8 174.7 167.4 174.8 177C174.8 185.9 174.9 194.8 175 203.7Z" fill="url(#paint93_radial)"/>
<path d="M189.8 194.8C196.5 189.5 203.4 183.9 209 177.4C211.1 174.2 212.6 170.9 214.2 167.4C215.3 165 216.6 162.7 218 160.5V89.7C214.2 84.2 210.9 78.2999 207.9 72.3C204 64.5 200.3 56.6 195.2 49.5C193.5 47.5 191.7 45.7 189.7 44C189.1 43.6 188.5 43.1 187.9 42.7C186.1 71.8 184 100.2 181.9 128.2C181.5 133.5 181.3 139.5 181.1 145.1C180.9 152.3 180.6 159.8 180.3 167.4C180.1 173.1 179.9 178.8 179.7 184.7C179.5 190.2 179.4 195.8 179.2 201.7C182.9 199.5 186.4 197.3 189.8 194.8Z" fill="url(#paint94_radial)"/>
<path d="M189.8 194.8C196.5 189.5 203.4 183.9 209 177.4C211.1 174.2 212.6 170.9 214.2 167.4C214.2 167.4 214.2 167.3 214.3 167.3C214.6 140.1 215 113 215.3 85.5999C212.6 81.2999 210.2 76.7999 207.9 72.2999C204 64.4999 200.3 56.5999 195.2 49.4999C194.9 49.1999 194.7 48.8999 194.4 48.5999C192.9 89.1999 191.2 129.2 189.6 169.3C189.3 177.7 189 186.4 188.8 195.6C189.1 195.3 189.4 195.1 189.8 194.8Z" fill="url(#paint95_radial)"/>
<path d="M208.9 177.5C209.1 177.1 209.4 176.8 209.6 176.4C209.9 143.6 210.1 110.4 210.2 76.8998C209.4 75.3998 208.6 73.7998 207.8 72.2998C205 66.7998 202.3 61.1998 199.2 55.7998C197.7 98.0998 195.9 139.9 194.7 181.8C194.6 184.8 194.6 187.9 194.5 191C199.7 186.8 204.7 182.4 208.9 177.5Z" fill="url(#paint96_radial)"/>
<path d="M204.2 182.5C204.3 178.9 204.4 175.3 204.4 171.7C204.9 148 206.1 125 207 102.3C207.4 92.4999 207.7 82.5999 208 72.5999C207.9 72.4999 207.9 72.3999 207.8 72.2999C206.2 69.0999 204.6 65.7999 202.9 62.5999C201.7 89.4999 200.4 116 199.3 142.6C198.7 157.1 198.4 172.4 198.3 187.8C200.3 186.1 202.3 184.3 204.2 182.5Z" fill="url(#paint97_radial)"/>
<path d="M174.8 203.8C180.1 201.3 185 198.4 189.7 194.9C196.4 189.6 203.3 184 208.9 177.5C211 174.3 212.5 171 214.1 167.5C215.2 165.1 216.5 162.8 217.9 160.6V89.6999C214.1 84.1999 210.8 78.2999 207.8 72.2999C203.9 64.4999 200.2 56.5999 195.1 49.4999C193.4 47.4999 191.6 45.6999 189.6 43.9999C187.2 42.2999 184.8 40.5999 182.3 38.8999C182.3 39.2999 182.3 39.5999 182.3 39.9999C182.2 49.2999 182 58.6999 181.9 68.1999C181.8 78.5999 181.6 88.8999 181.6 99.2999C181.5 132 173.4 148.6 174.1 182.2C174.3 189 174.5 196.3 174.8 203.8Z" fill="url(#paint98_radial)"/>
<path d="M208.9 177.5C211 174.3 212.5 171 214.1 167.5C215.2 165.1 216.5 162.8 217.9 160.6V89.7C214.1 84.2 210.8 78.3 207.8 72.3C203.9 64.5 200.2 56.6 195.1 49.5C193.4 47.5 191.6 45.7 189.6 44C188.4 43.1 187.2 42.3 186 41.5C189.5 93 192.7 144.3 193.6 191.8C199.1 187.3 204.5 182.6 208.9 177.5Z" fill="url(#paint99_radial)"/>
<path d="M208.9 177.5C211 174.3 212.5 171 214.1 167.5C214.7 166.1 215.4 164.8 216.2 163.4C216.7 143.2 217.2 123.2 217.9 103.3V89.7C214.1 84.2 210.8 78.3 207.8 72.3C205.4 67.6 203.1 62.8 200.6 58.2C200.3 101.2 199.6 143.6 199.5 186.8C202.9 183.8 206.1 180.8 208.9 177.5Z" fill="url(#paint100_radial)"/>
<path d="M208.9 177.5C209.7 176.2 210.5 174.9 211.2 173.6C211.7 143 212.5 112.7 213.3 82.4998C211.4 79.1998 209.5 75.7998 207.8 72.2998C207.7 72.0998 207.6 71.9998 207.6 71.7998C207.1 108.4 206.3 144.5 205.8 180.8C206.9 179.7 207.9 178.6 208.9 177.5Z" fill="url(#paint101_radial)"/>
<path d="M211.5 167.9C211.5 169.5 211.6 171.2 211.6 172.8C212.5 171.1 213.3 169.3 214.2 167.4C215.3 165 216.6 162.7 218 160.5V89.6998C215.8 86.4998 213.8 83.1998 211.9 79.7998C211.8 84.6998 211.7 89.5998 211.6 94.5998C211.5 101.9 211.4 109.3 211.4 116.8C211.3 125.4 211.3 134.1 211.4 143C211.3 151.1 211.4 159.4 211.5 167.9Z" fill="url(#paint102_radial)"/>
<path d="M214.2 167.4C215.3 165 216.6 162.7 218 160.5V89.6998C214.2 84.1998 210.9 78.2998 207.9 72.2998C207.5 71.4998 207.1 70.5998 206.6 69.7998C208.6 101.6 211.1 134.8 213.8 168.5C213.9 168.1 214 167.8 214.2 167.4Z" fill="url(#paint103_radial)"/>
<path opacity="0.6" d="M150.8 215V25.3C146.7 25 142.9 23.5 139.9 21.2H134.1V221.3H144.4C146 218.8 148.2 216.6 150.8 215Z" fill="url(#paint104_linear)"/>
<path opacity="0.6" d="M208.9 177.5C211 174.3 212.5 171 214.1 167.5C215.3 165 216.6 162.5 218.1 160.2V89.9999C214.2 84.3999 210.8 78.3999 207.8 72.1999C205.7 68.0999 203.7 63.8999 201.5 59.8999V184.9C204.1 182.6 206.6 180.1 208.9 177.5Z" fill="url(#paint105_linear)"/>
<path opacity="0.6" d="M151.1 214.8C155.9 212 161 209.8 166.2 207.6V29.5C165.5 29.1 164.7 28.8 164 28.4C160.7 27.1 157.3 26.1 153.8 25.4C153.1 25.4 152.4 25.3 151.8 25.3C151.5 25.3 151.1 25.3 150.8 25.3V215C150.9 214.9 151 214.8 151.1 214.8Z" fill="url(#paint106_linear)"/>
<path opacity="0.6" d="M42.3001 181.4C46.1001 185.9 50.3001 189.9 54.8001 193.6C55.9001 194.4 57.1001 195.3 58.2001 196.1V42.5C58.1001 42.6 58.0001 42.7 57.9001 42.8C53.4001 49.5 50.6001 56.9 46.6001 63.9C45.0001 66.6 43.3001 69.2 41.6001 71.7V180.4C41.9001 180.8 42.1001 181.1 42.3001 181.4Z" fill="url(#paint107_linear)"/>
<path opacity="0.6" d="M73.7003 206.3V31.2C70.3003 32.8 67.1003 34.6 64.1003 36.8C62.0003 38.6 60.1003 40.5 58.3003 42.5V196.1C63.3003 199.7 68.4003 203.1 73.7003 206.3Z" fill="url(#paint108_linear)"/>
<path d="M120.9 232.8C182.7 232.8 232.8 182.7 232.8 120.9C232.8 59.1 182.7 9 120.9 9C59.1 9 9 59.1 9 120.9C9 182.7 59.1 232.8 120.9 232.8ZM120.9 30.9C170.6 30.9 210.9 71.2 210.9 120.9C210.9 170.6 170.6 210.9 120.9 210.9C71.2 210.9 30.9 170.6 30.9 120.9C30.9 71.2 71.2 30.9 120.9 30.9Z" fill="url(#paint109_linear)"/>
<defs>
<linearGradient id="paint0_linear" x1="210.788" y1="120.786" x2="30.7593" y2="120.786" gradientUnits="userSpaceOnUse">
<stop stop-color="#8C8A89"/>
<stop offset="0.4731" stop-color="#F5F5F5"/>
<stop offset="0.5578" stop-color="#EFEFEF"/>
<stop offset="0.671" stop-color="#DFDEDE"/>
<stop offset="0.8004" stop-color="#C4C3C2"/>
<stop offset="0.9408" stop-color="#9E9C9C"/>
<stop offset="1" stop-color="#8C8A89"/>
</linearGradient>
<linearGradient id="paint1_linear" x1="120.999" y1="6.78638" x2="120.999" y2="234.786" gradientUnits="userSpaceOnUse">
<stop stop-color="#5D5D56"/>
<stop offset="0.1376" stop-color="#83837E"/>
<stop offset="0.384" stop-color="#C1C1C0"/>
<stop offset="0.5" stop-color="#DADADA"/>
<stop offset="0.556" stop-color="#D3D3D2"/>
<stop offset="0.6422" stop-color="#BEBEBD"/>
<stop offset="0.7479" stop-color="#9C9C99"/>
<stop offset="0.8689" stop-color="#6D6D68"/>
<stop offset="1" stop-color="#33332B"/>
</linearGradient>
<radialGradient id="paint2_radial" cx="0" cy="0" r="1" gradientUnits="userSpaceOnUse" gradientTransform="translate(35.1919 -1074.83) rotate(57.5886) scale(89.9763 997.213)">
<stop stop-color="#B35018"/>
<stop offset="1" stop-color="#DE8D35"/>
</radialGradient>
<radialGradient id="paint3_radial" cx="0" cy="0" r="1" gradientUnits="userSpaceOnUse" gradientTransform="translate(37.504 -1121.3) rotate(57.5886) scale(74.6395 827.234)">
<stop stop-color="#B35018"/>
<stop offset="1" stop-color="#DE8D35"/>
</radialGradient>
<radialGradient id="paint4_radial" cx="0" cy="0" r="1" gradientUnits="userSpaceOnUse" gradientTransform="translate(54.9453 -130.188) rotate(-122.406) scale(94.4723 864.508)">
<stop stop-color="#B35018"/>
<stop offset="1" stop-color="#DE8D35"/>
</radialGradient>
<radialGradient id="paint5_radial" cx="0" cy="0" r="1" gradientUnits="userSpaceOnUse" gradientTransform="translate(57.5338 -98.7166) rotate(-122.406) scale(75.9337 694.862)">
<stop stop-color="#B35018"/>
<stop offset="1" stop-color="#DE8D35"/>
</radialGradient>
<radialGradient id="paint6_radial" cx="0" cy="0" r="1" gradientUnits="userSpaceOnUse" gradientTransform="translate(60.6993 -69.7297) rotate(-122.406) scale(54.454 498.304)">
<stop stop-color="#B35018"/>
<stop offset="1" stop-color="#DE8D35"/>
</radialGradient>
<radialGradient id="paint7_radial" cx="0" cy="0" r="1" gradientUnits="userSpaceOnUse" gradientTransform="translate(62.2855 -52.4442) rotate(-122.406) scale(32.972 301.724)">
<stop stop-color="#B35018"/>
<stop offset="1" stop-color="#DE8D35"/>
</radialGradient>
<radialGradient id="paint8_radial" cx="0" cy="0" r="1" gradientUnits="userSpaceOnUse" gradientTransform="translate(64.0974 -81.3115) rotate(-122.406) scale(19.3483 177.054)">
<stop stop-color="#B35018"/>
<stop offset="1" stop-color="#DE8D35"/>
</radialGradient>
<radialGradient id="paint9_radial" cx="0" cy="0" r="1" gradientUnits="userSpaceOnUse" gradientTransform="translate(70.8584 -299.84) rotate(-122.409) scale(43.8463 837.964)">
<stop stop-color="#B35018"/>
<stop offset="1" stop-color="#DE8D35"/>
</radialGradient>
<radialGradient id="paint10_radial" cx="0" cy="0" r="1" gradientUnits="userSpaceOnUse" gradientTransform="translate(69.6102 -288.554) rotate(-122.409) scale(38.1896 729.858)">
<stop stop-color="#B35018"/>
<stop offset="1" stop-color="#DE8D35"/>
</radialGradient>
<radialGradient id="paint11_radial" cx="0" cy="0" r="1" gradientUnits="userSpaceOnUse" gradientTransform="translate(69.4562 -271.579) rotate(-122.409) scale(35.5279 678.987)">
<stop stop-color="#B35018"/>
<stop offset="1" stop-color="#DE8D35"/>
</radialGradient>
<radialGradient id="paint12_radial" cx="0" cy="0" r="1" gradientUnits="userSpaceOnUse" gradientTransform="translate(69.2896 -239.576) rotate(-122.409) scale(30.5106 583.1)">
<stop stop-color="#B35018"/>
<stop offset="1" stop-color="#DE8D35"/>
</radialGradient>
<radialGradient id="paint13_radial" cx="0" cy="0" r="1" gradientUnits="userSpaceOnUse" gradientTransform="translate(70.5206 -144.652) rotate(-122.409) scale(29.9603 572.583)">
<stop stop-color="#B35018"/>
<stop offset="1" stop-color="#DE8D35"/>
</radialGradient>
<radialGradient id="paint14_radial" cx="0" cy="0" r="1" gradientUnits="userSpaceOnUse" gradientTransform="translate(48.2704 8.99989) rotate(-122.409) scale(52.2966 999.462)">
<stop stop-color="#B35018"/>
<stop offset="1" stop-color="#DE8D35"/>
</radialGradient>
<radialGradient id="paint15_radial" cx="0" cy="0" r="1" gradientUnits="userSpaceOnUse" gradientTransform="translate(49.0459 3.70146) rotate(-122.409) scale(42.1684 805.897)">
<stop stop-color="#B35018"/>
<stop offset="1" stop-color="#DE8D35"/>
</radialGradient>
<radialGradient id="paint16_radial" cx="0" cy="0" r="1" gradientUnits="userSpaceOnUse" gradientTransform="translate(48.8587 -3.93149) rotate(-122.409) scale(38.2937 731.846)">
<stop stop-color="#B35018"/>
<stop offset="1" stop-color="#DE8D35"/>
</radialGradient>
<radialGradient id="paint17_radial" cx="0" cy="0" r="1" gradientUnits="userSpaceOnUse" gradientTransform="translate(48.8377 -30.1078) rotate(-122.409) scale(30.8799 590.158)">
<stop stop-color="#B35018"/>
<stop offset="1" stop-color="#DE8D35"/>
</radialGradient>
<radialGradient id="paint18_radial" cx="0" cy="0" r="1" gradientUnits="userSpaceOnUse" gradientTransform="translate(51.4685 -113.723) rotate(-122.409) scale(31.9433 610.481)">
<stop stop-color="#B35018"/>
<stop offset="1" stop-color="#DE8D35"/>
</radialGradient>
<radialGradient id="paint19_radial" cx="0" cy="0" r="1" gradientUnits="userSpaceOnUse" gradientTransform="translate(101.009 101.489) rotate(-122.409) scale(35.1641 672.036)">
<stop stop-color="#B35018"/>
<stop offset="1" stop-color="#DE8D35"/>
</radialGradient>
<radialGradient id="paint20_radial" cx="0" cy="0" r="1" gradientUnits="userSpaceOnUse" gradientTransform="translate(99.941 94.9066) rotate(-122.409) scale(29.986 573.074)">
<stop stop-color="#B35018"/>
<stop offset="1" stop-color="#DE8D35"/>
</radialGradient>
<radialGradient id="paint21_radial" cx="0" cy="0" r="1" gradientUnits="userSpaceOnUse" gradientTransform="translate(55.1094 -126.394) rotate(57.5907) scale(55.9095 1068.51)">
<stop stop-color="#B35018"/>
<stop offset="1" stop-color="#DE8D35"/>
</radialGradient>
<radialGradient id="paint22_radial" cx="0" cy="0" r="1" gradientUnits="userSpaceOnUse" gradientTransform="translate(54.8292 -105.413) rotate(57.5907) scale(57.3136 1095.34)">
<stop stop-color="#B35018"/>
<stop offset="1" stop-color="#DE8D35"/>
</radialGradient>
<radialGradient id="paint23_radial" cx="0" cy="0" r="1" gradientUnits="userSpaceOnUse" gradientTransform="translate(63.3153 -87.7882) rotate(57.5907) scale(33.7404 644.826)">
<stop stop-color="#B35018"/>
<stop offset="1" stop-color="#DE8D35"/>
</radialGradient>
<radialGradient id="paint24_radial" cx="0" cy="0" r="1" gradientUnits="userSpaceOnUse" gradientTransform="translate(61.913 23.2124) rotate(57.5907) scale(35.2675 674.011)">
<stop stop-color="#B35018"/>
<stop offset="1" stop-color="#DE8D35"/>
</radialGradient>
<radialGradient id="paint25_radial" cx="0" cy="0" r="1" gradientUnits="userSpaceOnUse" gradientTransform="translate(83.0928 -254.123) rotate(-122.409) scale(40.9442 782.501)">
<stop stop-color="#B35018"/>
<stop offset="1" stop-color="#DE8D35"/>
</radialGradient>
<radialGradient id="paint26_radial" cx="0" cy="0" r="1" gradientUnits="userSpaceOnUse" gradientTransform="translate(73.0909 -260.54) rotate(-122.409) scale(47.4034 905.945)">
<stop stop-color="#B35018"/>
<stop offset="1" stop-color="#DE8D35"/>
</radialGradient>
<radialGradient id="paint27_radial" cx="0" cy="0" r="1" gradientUnits="userSpaceOnUse" gradientTransform="translate(81.6065 -197.817) rotate(-122.409) scale(28.5365 545.373)">
<stop stop-color="#B35018"/>
<stop offset="1" stop-color="#DE8D35"/>
</radialGradient>
<radialGradient id="paint28_radial" cx="0" cy="0" r="1" gradientUnits="userSpaceOnUse" gradientTransform="translate(101.374 1086.39) rotate(57.5886) scale(89.7439 994.638)">
<stop stop-color="#B35018"/>
<stop offset="1" stop-color="#DE8D35"/>
</radialGradient>
<radialGradient id="paint29_radial" cx="0" cy="0" r="1" gradientUnits="userSpaceOnUse" gradientTransform="translate(103.335 1132.5) rotate(57.5886) scale(74.2216 822.603)">
<stop stop-color="#B35018"/>
<stop offset="1" stop-color="#DE8D35"/>
</radialGradient>
<radialGradient id="paint30_radial" cx="0" cy="0" r="1" gradientUnits="userSpaceOnUse" gradientTransform="translate(127.557 340.993) rotate(-122.406) scale(93.3412 854.157)">
<stop stop-color="#B35018"/>
<stop offset="1" stop-color="#DE8D35"/>
</radialGradient>
<radialGradient id="paint31_radial" cx="0" cy="0" r="1" gradientUnits="userSpaceOnUse" gradientTransform="translate(130.339 321.575) rotate(-122.406) scale(75.2452 688.562)">
<stop stop-color="#B35018"/>
<stop offset="1" stop-color="#DE8D35"/>
</radialGradient>
<radialGradient id="paint32_radial" cx="0" cy="0" r="1" gradientUnits="userSpaceOnUse" gradientTransform="translate(133.669 305.808) rotate(-122.406) scale(53.696 491.367)">
<stop stop-color="#B35018"/>
<stop offset="1" stop-color="#DE8D35"/>
</radialGradient>
<radialGradient id="paint33_radial" cx="0" cy="0" r="1" gradientUnits="userSpaceOnUse" gradientTransform="translate(135.367 295.533) rotate(-122.406) scale(32.0871 293.626)">
<stop stop-color="#B35018"/>
<stop offset="1" stop-color="#DE8D35"/>
</radialGradient>
<radialGradient id="paint34_radial" cx="0" cy="0" r="1" gradientUnits="userSpaceOnUse" gradientTransform="translate(135.913 324.28) rotate(-122.406) scale(19.7978 181.168)">
<stop stop-color="#B35018"/>
<stop offset="1" stop-color="#DE8D35"/>
</radialGradient>
<radialGradient id="paint35_radial" cx="0" cy="0" r="1" gradientUnits="userSpaceOnUse" gradientTransform="translate(142.118 528.873) rotate(-122.409) scale(43.0265 822.296)">
<stop stop-color="#B35018"/>
<stop offset="1" stop-color="#DE8D35"/>
</radialGradient>
<radialGradient id="paint36_radial" cx="0" cy="0" r="1" gradientUnits="userSpaceOnUse" gradientTransform="translate(140.961 515.706) rotate(-122.409) scale(37.2435 711.776)">
<stop stop-color="#B35018"/>
<stop offset="1" stop-color="#DE8D35"/>
</radialGradient>
<radialGradient id="paint37_radial" cx="0" cy="0" r="1" gradientUnits="userSpaceOnUse" gradientTransform="translate(140.93 500.628) rotate(-122.409) scale(34.1681 653)">
<stop stop-color="#B35018"/>
<stop offset="1" stop-color="#DE8D35"/>
</radialGradient>
<radialGradient id="paint38_radial" cx="0" cy="0" r="1" gradientUnits="userSpaceOnUse" gradientTransform="translate(140.989 472.885) rotate(-122.409) scale(28.9109 552.528)">
<stop stop-color="#B35018"/>
<stop offset="1" stop-color="#DE8D35"/>
</radialGradient>
<radialGradient id="paint39_radial" cx="0" cy="0" r="1" gradientUnits="userSpaceOnUse" gradientTransform="translate(142.863 396.231) rotate(-122.409) scale(27.1935 519.706)">
<stop stop-color="#B35018"/>
<stop offset="1" stop-color="#DE8D35"/>
</radialGradient>
<radialGradient id="paint40_radial" cx="0" cy="0" r="1" gradientUnits="userSpaceOnUse" gradientTransform="translate(121.926 203.901) rotate(-122.409) scale(51.1705 977.94)">
<stop stop-color="#B35018"/>
<stop offset="1" stop-color="#DE8D35"/>
</radialGradient>
<radialGradient id="paint41_radial" cx="0" cy="0" r="1" gradientUnits="userSpaceOnUse" gradientTransform="translate(122.664 210.276) rotate(-122.409) scale(40.6674 777.21)">
<stop stop-color="#B35018"/>
<stop offset="1" stop-color="#DE8D35"/>
</radialGradient>
<radialGradient id="paint42_radial" cx="0" cy="0" r="1" gradientUnits="userSpaceOnUse" gradientTransform="translate(122.42 216.045) rotate(-122.409) scale(36.1741 691.338)">
<stop stop-color="#B35018"/>
<stop offset="1" stop-color="#DE8D35"/>
</radialGradient>
<radialGradient id="paint43_radial" cx="0" cy="0" r="1" gradientUnits="userSpaceOnUse" gradientTransform="translate(122.221 238.141) rotate(-122.409) scale(27.484 525.257)">
<stop stop-color="#B35018"/>
<stop offset="1" stop-color="#DE8D35"/>
</radialGradient>
<radialGradient id="paint44_radial" cx="0" cy="0" r="1" gradientUnits="userSpaceOnUse" gradientTransform="translate(124.237 316.067) rotate(-122.409) scale(27.69 529.195)">
<stop stop-color="#B35018"/>
<stop offset="1" stop-color="#DE8D35"/>
</radialGradient>
<radialGradient id="paint45_radial" cx="0" cy="0" r="1" gradientUnits="userSpaceOnUse" gradientTransform="translate(174.746 278.503) rotate(-122.409) scale(33.7121 644.285)">
<stop stop-color="#B35018"/>
<stop offset="1" stop-color="#DE8D35"/>
</radialGradient>
<radialGradient id="paint46_radial" cx="0" cy="0" r="1" gradientUnits="userSpaceOnUse" gradientTransform="translate(173.643 280.474) rotate(-122.409) scale(29.5879 565.467)">
<stop stop-color="#B35018"/>
<stop offset="1" stop-color="#DE8D35"/>
</radialGradient>
<radialGradient id="paint47_radial" cx="0" cy="0" r="1" gradientUnits="userSpaceOnUse" gradientTransform="translate(127.747 337.599) rotate(57.5907) scale(55.6307 1063.18)">
<stop stop-color="#B35018"/>
<stop offset="1" stop-color="#DE8D35"/>
</radialGradient>
<radialGradient id="paint48_radial" cx="0" cy="0" r="1" gradientUnits="userSpaceOnUse" gradientTransform="translate(127.602 319.556) rotate(57.5907) scale(56.8903 1087.25)">
<stop stop-color="#B35018"/>
<stop offset="1" stop-color="#DE8D35"/>
</radialGradient>
<radialGradient id="paint49_radial" cx="0" cy="0" r="1" gradientUnits="userSpaceOnUse" gradientTransform="translate(136.135 328.712) rotate(57.5907) scale(32.9396 629.522)">
<stop stop-color="#B35018"/>
<stop offset="1" stop-color="#DE8D35"/>
</radialGradient>
<radialGradient id="paint50_radial" cx="0" cy="0" r="1" gradientUnits="userSpaceOnUse" gradientTransform="translate(135.527 231.062) rotate(57.5907) scale(34.0298 650.356)">
<stop stop-color="#B35018"/>
<stop offset="1" stop-color="#DE8D35"/>
</radialGradient>
<radialGradient id="paint51_radial" cx="0" cy="0" r="1" gradientUnits="userSpaceOnUse" gradientTransform="translate(154.542 524.541) rotate(-122.409) scale(40.1452 767.23)">
<stop stop-color="#B35018"/>
<stop offset="1" stop-color="#DE8D35"/>
</radialGradient>
<radialGradient id="paint52_radial" cx="0" cy="0" r="1" gradientUnits="userSpaceOnUse" gradientTransform="translate(144.594 501.78) rotate(-122.409) scale(46.4306 887.353)">
<stop stop-color="#B35018"/>
<stop offset="1" stop-color="#DE8D35"/>
</radialGradient>
<radialGradient id="paint53_radial" cx="0" cy="0" r="1" gradientUnits="userSpaceOnUse" gradientTransform="translate(153.463 472.317) rotate(-122.409) scale(26.9758 515.545)">
<stop stop-color="#B35018"/>
<stop offset="1" stop-color="#DE8D35"/>
</radialGradient>
<radialGradient id="paint54_radial" cx="0" cy="0" r="1" gradientUnits="userSpaceOnUse" gradientTransform="translate(104.935 56.8759) rotate(57.5886) scale(89.9535 996.961)">
<stop stop-color="#B35018"/>
<stop offset="1" stop-color="#DE8D35"/>
</radialGradient>
<radialGradient id="paint55_radial" cx="0" cy="0" r="1" gradientUnits="userSpaceOnUse" gradientTransform="translate(106.871 99.9807) rotate(57.5886) scale(74.2579 823.006)">
<stop stop-color="#B35018"/>
<stop offset="1" stop-color="#DE8D35"/>
</radialGradient>
<radialGradient id="paint56_radial" cx="0" cy="0" r="1" gradientUnits="userSpaceOnUse" gradientTransform="translate(108.253 130.577) rotate(57.5886) scale(56.2437 623.353)">
<stop stop-color="#B35018"/>
<stop offset="1" stop-color="#DE8D35"/>
</radialGradient>
<radialGradient id="paint57_radial" cx="0" cy="0" r="1" gradientUnits="userSpaceOnUse" gradientTransform="translate(110.221 75.182) rotate(57.5886) scale(21.0158 232.919)">
<stop stop-color="#B35018"/>
<stop offset="1" stop-color="#DE8D35"/>
</radialGradient>
<radialGradient id="paint58_radial" cx="0" cy="0" r="1" gradientUnits="userSpaceOnUse" gradientTransform="translate(131.187 -694.478) rotate(-122.406) scale(93.7785 858.159)">
<stop stop-color="#B35018"/>
<stop offset="1" stop-color="#DE8D35"/>
</radialGradient>
<radialGradient id="paint59_radial" cx="0" cy="0" r="1" gradientUnits="userSpaceOnUse" gradientTransform="translate(133.844 -679.091) rotate(-122.406) scale(75.6333 692.114)">
<stop stop-color="#B35018"/>
<stop offset="1" stop-color="#DE8D35"/>
</radialGradient>
<radialGradient id="paint60_radial" cx="0" cy="0" r="1" gradientUnits="userSpaceOnUse" gradientTransform="translate(136.97 -639.216) rotate(-122.406) scale(54.1646 495.656)">
<stop stop-color="#B35018"/>
<stop offset="1" stop-color="#DE8D35"/>
</radialGradient>
<radialGradient id="paint61_radial" cx="0" cy="0" r="1" gradientUnits="userSpaceOnUse" gradientTransform="translate(145.294 -365.353) rotate(-122.409) scale(43.4267 829.944)">
<stop stop-color="#B35018"/>
<stop offset="1" stop-color="#DE8D35"/>
</radialGradient>
<radialGradient id="paint62_radial" cx="0" cy="0" r="1" gradientUnits="userSpaceOnUse" gradientTransform="translate(144.088 -360.967) rotate(-122.409) scale(37.7416 721.295)">
<stop stop-color="#B35018"/>
<stop offset="1" stop-color="#DE8D35"/>
</radialGradient>
<radialGradient id="paint63_radial" cx="0" cy="0" r="1" gradientUnits="userSpaceOnUse" gradientTransform="translate(143.997 -356.201) rotate(-122.409) scale(34.4386 658.17)">
<stop stop-color="#B35018"/>
<stop offset="1" stop-color="#DE8D35"/>
</radialGradient>
<radialGradient id="paint64_radial" cx="0" cy="0" r="1" gradientUnits="userSpaceOnUse" gradientTransform="translate(143.917 -368.361) rotate(-122.409) scale(29.5936 565.576)">
<stop stop-color="#B35018"/>
<stop offset="1" stop-color="#DE8D35"/>
</radialGradient>
<radialGradient id="paint65_radial" cx="0" cy="0" r="1" gradientUnits="userSpaceOnUse" gradientTransform="translate(145.73 -426.171) rotate(-122.409) scale(28.8355 551.086)">
<stop stop-color="#B35018"/>
<stop offset="1" stop-color="#DE8D35"/>
</radialGradient>
<radialGradient id="paint66_radial" cx="0" cy="0" r="1" gradientUnits="userSpaceOnUse" gradientTransform="translate(125.501 -801.767) rotate(-122.409) scale(51.3194 980.785)">
<stop stop-color="#B35018"/>
<stop offset="1" stop-color="#DE8D35"/>
</radialGradient>
<radialGradient id="paint67_radial" cx="0" cy="0" r="1" gradientUnits="userSpaceOnUse" gradientTransform="translate(126.082 -752.254) rotate(-122.409) scale(40.7371 778.543)">
<stop stop-color="#B35018"/>
<stop offset="1" stop-color="#DE8D35"/>
</radialGradient>
<radialGradient id="paint68_radial" cx="0" cy="0" r="1" gradientUnits="userSpaceOnUse" gradientTransform="translate(125.766 -721.666) rotate(-122.409) scale(36.0291 688.567)">
<stop stop-color="#B35018"/>
<stop offset="1" stop-color="#DE8D35"/>
</radialGradient>
<radialGradient id="paint69_radial" cx="0" cy="0" r="1" gradientUnits="userSpaceOnUse" gradientTransform="translate(125.687 -676.271) rotate(-122.409) scale(27.6769 528.945)">
<stop stop-color="#B35018"/>
<stop offset="1" stop-color="#DE8D35"/>
</radialGradient>
<radialGradient id="paint70_radial" cx="0" cy="0" r="1" gradientUnits="userSpaceOnUse" gradientTransform="translate(127.409 -582.958) rotate(-122.409) scale(27.5353 526.239)">
<stop stop-color="#B35018"/>
<stop offset="1" stop-color="#DE8D35"/>
</radialGradient>
<radialGradient id="paint71_radial" cx="0" cy="0" r="1" gradientUnits="userSpaceOnUse" gradientTransform="translate(177.455 -486.227) rotate(-122.409) scale(33.647 643.04)">
<stop stop-color="#B35018"/>
<stop offset="1" stop-color="#DE8D35"/>
</radialGradient>
<radialGradient id="paint72_radial" cx="0" cy="0" r="1" gradientUnits="userSpaceOnUse" gradientTransform="translate(176.234 -455.859) rotate(-122.409) scale(27.9105 533.407)">
<stop stop-color="#B35018"/>
<stop offset="1" stop-color="#DE8D35"/>
</radialGradient>
<radialGradient id="paint73_radial" cx="0" cy="0" r="1" gradientUnits="userSpaceOnUse" gradientTransform="translate(131.142 -625.474) rotate(57.5907) scale(55.8799 1067.94)">
<stop stop-color="#B35018"/>
<stop offset="1" stop-color="#DE8D35"/>
</radialGradient>
<radialGradient id="paint74_radial" cx="0" cy="0" r="1" gradientUnits="userSpaceOnUse" gradientTransform="translate(131.017 -621.568) rotate(57.5907) scale(57.392 1096.84)">
<stop stop-color="#B35018"/>
<stop offset="1" stop-color="#DE8D35"/>
</radialGradient>
<radialGradient id="paint75_radial" cx="0" cy="0" r="1" gradientUnits="userSpaceOnUse" gradientTransform="translate(139.267 -569.799) rotate(57.5907) scale(33.3176 636.746)">
<stop stop-color="#B35018"/>
<stop offset="1" stop-color="#DE8D35"/>
</radialGradient>
<radialGradient id="paint76_radial" cx="0" cy="0" r="1" gradientUnits="userSpaceOnUse" gradientTransform="translate(138.57 -643.687) rotate(57.5907) scale(34.2575 654.71)">
<stop stop-color="#B35018"/>
<stop offset="1" stop-color="#DE8D35"/>
</radialGradient>
<radialGradient id="paint77_radial" cx="0" cy="0" r="1" gradientUnits="userSpaceOnUse" gradientTransform="translate(157.478 -308.361) rotate(-122.409) scale(40.5185 774.365)">
<stop stop-color="#B35018"/>
<stop offset="1" stop-color="#DE8D35"/>
</radialGradient>
<radialGradient id="paint78_radial" cx="0" cy="0" r="1" gradientUnits="userSpaceOnUse" gradientTransform="translate(147.077 -336.734) rotate(-122.409) scale(47.677 911.175)">
<stop stop-color="#B35018"/>
<stop offset="1" stop-color="#DE8D35"/>
</radialGradient>
<radialGradient id="paint79_radial" cx="0" cy="0" r="1" gradientUnits="userSpaceOnUse" gradientTransform="translate(156.225 -319.315) rotate(-122.409) scale(27.876 532.75)">
<stop stop-color="#B35018"/>
<stop offset="1" stop-color="#DE8D35"/>
</radialGradient>
<radialGradient id="paint80_radial" cx="0" cy="0" r="1" gradientUnits="userSpaceOnUse" gradientTransform="translate(181.958 -534.643) rotate(57.5886) scale(89.5198 992.154)">
<stop stop-color="#B35018"/>
<stop offset="1" stop-color="#DE8D35"/>
</radialGradient>
<radialGradient id="paint81_radial" cx="0" cy="0" r="1" gradientUnits="userSpaceOnUse" gradientTransform="translate(184.212 -567.019) rotate(57.5886) scale(73.8593 818.588)">
<stop stop-color="#B35018"/>
<stop offset="1" stop-color="#DE8D35"/>
</radialGradient>
<radialGradient id="paint82_radial" cx="0" cy="0" r="1" gradientUnits="userSpaceOnUse" gradientTransform="translate(185.794 -599.09) rotate(57.5886) scale(55.4873 614.969)">
<stop stop-color="#B35018"/>
<stop offset="1" stop-color="#DE8D35"/>
</radialGradient>
<radialGradient id="paint83_radial" cx="0" cy="0" r="1" gradientUnits="userSpaceOnUse" gradientTransform="translate(202.668 157.734) rotate(-122.406) scale(92.3604 845.182)">
<stop stop-color="#B35018"/>
<stop offset="1" stop-color="#DE8D35"/>
</radialGradient>
<radialGradient id="paint84_radial" cx="0" cy="0" r="1" gradientUnits="userSpaceOnUse" gradientTransform="translate(205.283 182.106) rotate(-122.406) scale(74.6631 683.235)">
<stop stop-color="#B35018"/>
<stop offset="1" stop-color="#DE8D35"/>
</radialGradient>
<radialGradient id="paint85_radial" cx="0" cy="0" r="1" gradientUnits="userSpaceOnUse" gradientTransform="translate(208.458 205.104) rotate(-122.406) scale(53.041 485.374)">
<stop stop-color="#B35018"/>
<stop offset="1" stop-color="#DE8D35"/>
</radialGradient>
<radialGradient id="paint86_radial" cx="0" cy="0" r="1" gradientUnits="userSpaceOnUse" gradientTransform="translate(210.072 218.335) rotate(-122.406) scale(31.3268 286.669)">
<stop stop-color="#B35018"/>
<stop offset="1" stop-color="#DE8D35"/>
</radialGradient>
<radialGradient id="paint87_radial" cx="0" cy="0" r="1" gradientUnits="userSpaceOnUse" gradientTransform="translate(211.219 197.56) rotate(-122.406) scale(18.1841 166.401)">
<stop stop-color="#B35018"/>
<stop offset="1" stop-color="#DE8D35"/>
</radialGradient>
<radialGradient id="paint88_radial" cx="0" cy="0" r="1" gradientUnits="userSpaceOnUse" gradientTransform="translate(218.325 47.2434) rotate(-122.409) scale(42.3902 810.137)">
<stop stop-color="#B35018"/>
<stop offset="1" stop-color="#DE8D35"/>
</radialGradient>
<radialGradient id="paint89_radial" cx="0" cy="0" r="1" gradientUnits="userSpaceOnUse" gradientTransform="translate(217.131 54.8172) rotate(-122.409) scale(36.3974 695.605)">
<stop stop-color="#B35018"/>
<stop offset="1" stop-color="#DE8D35"/>
</radialGradient>
<radialGradient id="paint90_radial" cx="0" cy="0" r="1" gradientUnits="userSpaceOnUse" gradientTransform="translate(216.986 67.3865) rotate(-122.409) scale(32.9951 630.582)">
<stop stop-color="#B35018"/>
<stop offset="1" stop-color="#DE8D35"/>
</radialGradient>
<radialGradient id="paint91_radial" cx="0" cy="0" r="1" gradientUnits="userSpaceOnUse" gradientTransform="translate(216.854 90.6214) rotate(-122.409) scale(27.4962 525.491)">
<stop stop-color="#B35018"/>
<stop offset="1" stop-color="#DE8D35"/>
</radialGradient>
<radialGradient id="paint92_radial" cx="0" cy="0" r="1" gradientUnits="userSpaceOnUse" gradientTransform="translate(218.165 158.876) rotate(-122.41) scale(24.6253 470.625)">
<stop stop-color="#B35018"/>
<stop offset="1" stop-color="#DE8D35"/>
</radialGradient>
<radialGradient id="paint93_radial" cx="0" cy="0" r="1" gradientUnits="userSpaceOnUse" gradientTransform="translate(196.207 254.325) rotate(-122.409) scale(50.0751 957.005)">
<stop stop-color="#B35018"/>
<stop offset="1" stop-color="#DE8D35"/>
</radialGradient>
<radialGradient id="paint94_radial" cx="0" cy="0" r="1" gradientUnits="userSpaceOnUse" gradientTransform="translate(196.911 251.541) rotate(-122.409) scale(39.3599 752.223)">
<stop stop-color="#B35018"/>
<stop offset="1" stop-color="#DE8D35"/>
</radialGradient>
<radialGradient id="paint95_radial" cx="0" cy="0" r="1" gradientUnits="userSpaceOnUse" gradientTransform="translate(196.71 246.25) rotate(-122.409) scale(34.3036 655.59)">
<stop stop-color="#B35018"/>
<stop offset="1" stop-color="#DE8D35"/>
</radialGradient>
<radialGradient id="paint96_radial" cx="0" cy="0" r="1" gradientUnits="userSpaceOnUse" gradientTransform="translate(196.664 227.482) rotate(-122.409) scale(24.2721 463.875)">
<stop stop-color="#B35018"/>
<stop offset="1" stop-color="#DE8D35"/>
</radialGradient>
<radialGradient id="paint97_radial" cx="0" cy="0" r="1" gradientUnits="userSpaceOnUse" gradientTransform="translate(199.21 169.74) rotate(-122.409) scale(23.5602 450.268)">
<stop stop-color="#B35018"/>
<stop offset="1" stop-color="#DE8D35"/>
</radialGradient>
<radialGradient id="paint98_radial" cx="0" cy="0" r="1" gradientUnits="userSpaceOnUse" gradientTransform="translate(202.8 161.806) rotate(57.5907) scale(55.4246 1059.24)">
<stop stop-color="#B35018"/>
<stop offset="1" stop-color="#DE8D35"/>
</radialGradient>
<radialGradient id="paint99_radial" cx="0" cy="0" r="1" gradientUnits="userSpaceOnUse" gradientTransform="translate(202.553 175.61) rotate(57.5907) scale(56.5501 1080.75)">
<stop stop-color="#B35018"/>
<stop offset="1" stop-color="#DE8D35"/>
</radialGradient>
<radialGradient id="paint100_radial" cx="0" cy="0" r="1" gradientUnits="userSpaceOnUse" gradientTransform="translate(211.059 193.333) rotate(57.5907) scale(32.2623 616.578)">
<stop stop-color="#B35018"/>
<stop offset="1" stop-color="#DE8D35"/>
</radialGradient>
<radialGradient id="paint101_radial" cx="0" cy="0" r="1" gradientUnits="userSpaceOnUse" gradientTransform="translate(209.785 271.503) rotate(57.5907) scale(32.9395 629.521)">
<stop stop-color="#B35018"/>
<stop offset="1" stop-color="#DE8D35"/>
</radialGradient>
<radialGradient id="paint102_radial" cx="0" cy="0" r="1" gradientUnits="userSpaceOnUse" gradientTransform="translate(230.613 87.9422) rotate(-122.409) scale(39.4715 754.355)">
<stop stop-color="#B35018"/>
<stop offset="1" stop-color="#DE8D35"/>
</radialGradient>
<radialGradient id="paint103_radial" cx="0" cy="0" r="1" gradientUnits="userSpaceOnUse" gradientTransform="translate(220.641 77.0471) rotate(-122.409) scale(45.5657 870.824)">
<stop stop-color="#B35018"/>
<stop offset="1" stop-color="#DE8D35"/>
</radialGradient>
<linearGradient id="paint104_linear" x1="134.147" y1="121.26" x2="150.762" y2="121.26" gradientUnits="userSpaceOnUse">
<stop stop-color="white" stop-opacity="0.3"/>
<stop offset="0.2678" stop-color="#CCC5C0" stop-opacity="0.4875"/>
<stop offset="1" stop-color="#422918"/>
</linearGradient>
<linearGradient id="paint105_linear" x1="201.537" y1="122.459" x2="218.152" y2="122.459" gradientUnits="userSpaceOnUse">
<stop stop-color="white" stop-opacity="0.3"/>
<stop offset="0.2678" stop-color="#CCC5C0" stop-opacity="0.4875"/>
<stop offset="1" stop-color="#422918"/>
</linearGradient>
<linearGradient id="paint106_linear" x1="166.187" y1="120.15" x2="150.762" y2="120.15" gradientUnits="userSpaceOnUse">
<stop stop-color="white" stop-opacity="0.3"/>
<stop offset="0.2678" stop-color="#CCC5C0" stop-opacity="0.4875"/>
<stop offset="1" stop-color="#422918"/>
</linearGradient>
<linearGradient id="paint107_linear" x1="41.6538" y1="119.298" x2="58.2687" y2="119.298" gradientUnits="userSpaceOnUse">
<stop stop-color="white" stop-opacity="0.3"/>
<stop offset="0.2678" stop-color="#CCC5C0" stop-opacity="0.4875"/>
<stop offset="1" stop-color="#422918"/>
</linearGradient>
<linearGradient id="paint108_linear" x1="73.6936" y1="118.748" x2="58.2689" y2="118.748" gradientUnits="userSpaceOnUse">
<stop stop-color="white" stop-opacity="0.3"/>
<stop offset="0.2678" stop-color="#CCC5C0" stop-opacity="0.4875"/>
<stop offset="1" stop-color="#422918"/>
</linearGradient>
<linearGradient id="paint109_linear" x1="23.9617" y1="176.867" x2="217.836" y2="64.9335" gradientUnits="userSpaceOnUse">
<stop stop-color="#DADADA"/>
<stop offset="0.0325905" stop-color="#D7D7D7"/>
<stop offset="0.0540273" stop-color="#CFCFCE"/>
<stop offset="0.0722549" stop-color="#C1C1C0"/>
<stop offset="0.0886848" stop-color="#ADADAA"/>
<stop offset="0.1039" stop-color="#93938F"/>
<stop offset="0.118" stop-color="#73736E"/>
<stop offset="0.1265" stop-color="#5D5D56"/>
<stop offset="0.1412" stop-color="#9C9C98"/>
<stop offset="0.1574" stop-color="#DBDBDA"/>
<stop offset="0.165" stop-color="#F4F4F4"/>
<stop offset="0.2109" stop-color="#EEEEEE"/>
<stop offset="0.2742" stop-color="#DCDCDC"/>
<stop offset="0.2796" stop-color="#DADADA"/>
<stop offset="0.4382" stop-color="#D8D8D8"/>
<stop offset="0.5062" stop-color="#D2D2D1"/>
<stop offset="0.5568" stop-color="#C7C7C4"/>
<stop offset="0.5989" stop-color="#B7B7B2"/>
<stop offset="0.6357" stop-color="#A2A29B"/>
<stop offset="0.6686" stop-color="#89897F"/>
<stop offset="0.6982" stop-color="#6C6C5E"/>
<stop offset="0.7073" stop-color="#616152"/>
<stop offset="0.7076" stop-color="#636354"/>
<stop offset="0.7129" stop-color="#848479"/>
<stop offset="0.7184" stop-color="#9F9F97"/>
<stop offset="0.7242" stop-color="#B4B4AF"/>
<stop offset="0.7304" stop-color="#C2C2C0"/>
<stop offset="0.7371" stop-color="#CBCBCA"/>
<stop offset="0.7456" stop-color="#CECECD"/>
<stop offset="0.7515" stop-color="#D8D8D7"/>
<stop offset="0.7655" stop-color="#E8E8E8"/>
<stop offset="0.7828" stop-color="#F4F4F3"/>
<stop offset="0.8071" stop-color="#FAFAFA"/>
<stop offset="0.8747" stop-color="#FCFCFC"/>
<stop offset="0.8963" stop-color="#DEDDDD"/>
<stop offset="0.9268" stop-color="#BAB9B8"/>
<stop offset="0.9552" stop-color="#A09F9E"/>
<stop offset="0.9805" stop-color="#918F8E"/>
<stop offset="1" stop-color="#8B8988"/>
</linearGradient>
</defs>
</svg>
