<svg width="49" height="48" viewBox="0 0 49 48" fill="none" xmlns="http://www.w3.org/2000/svg">
<path d="M24.5 45.9996C37.4787 45.9996 48 35.9259 48 23.4993C48 11.0727 37.4787 0.999023 24.5 0.999023C11.5213 0.999023 1 11.0727 1 23.4993C1 35.9259 11.5213 45.9996 24.5 45.9996Z" fill="url(#paint0_linear)"/>
<path opacity="0.8" d="M24.5 46.4829C37.4787 46.4829 48 36.301 48 23.741C48 11.1809 37.4787 0.999023 24.5 0.999023C11.5213 0.999023 1 11.1809 1 23.741C1 36.301 11.5213 46.4829 24.5 46.4829Z" stroke="url(#paint1_linear)" stroke-width="2" stroke-miterlimit="10"/>
<path d="M24.9815 2.9995C25.5323 2.98229 25.997 3.42979 26.0142 3.99777C26.0314 4.54853 25.5839 5.01324 25.0332 5.03045C24.4824 5.04766 24.0177 4.60017 24.0005 4.0494C23.9833 3.48142 24.4136 3.01672 24.9815 2.9995Z" fill="url(#paint2_linear)"/>
<path d="M24.9815 3.19043C25.4462 3.19043 25.8249 3.55187 25.8249 3.99937C25.8421 4.46407 25.4635 4.84273 25.016 4.84273C24.5513 4.85994 24.1898 4.4985 24.1726 4.03379C24.1726 3.56908 24.534 3.19043 24.9815 3.19043Z" fill="url(#paint3_linear)"/>
<path d="M24.9988 3.34277C25.3602 3.34277 25.67 3.61816 25.67 3.99681C25.67 4.35825 25.3946 4.66805 25.016 4.66805C24.6545 4.66805 24.3447 4.39267 24.3447 4.01402C24.3447 3.65258 24.6201 3.35998 24.9988 3.34277Z" fill="url(#paint4_radial)"/>
<path d="M25.4808 3.94628V4.06676L24.4998 4.08397V3.96349L25.4808 3.94628ZM25.0505 3.5332H24.93L24.9472 3.96349H25.0677L25.0505 3.5332ZM25.0505 4.06676H24.93L24.9472 4.49704H25.0677L25.0505 4.06676Z" fill="#5C5B5F"/>
<path d="M24.9815 42.0005C25.5323 41.9833 25.997 42.4308 26.0142 42.9987C26.0314 43.5495 25.5839 44.0142 25.0332 44.0314C24.4824 44.0486 24.0177 43.6011 24.0005 43.0504C23.9833 42.4824 24.4136 42.0177 24.9815 42.0005Z" fill="url(#paint5_linear)"/>
<path d="M24.9815 42.1914C25.4462 42.1914 25.8249 42.5528 25.8249 43.0003C25.8421 43.4651 25.4635 43.8437 25.016 43.8437C24.5513 43.8609 24.1898 43.4995 24.1726 43.0348C24.1726 42.5701 24.534 42.1914 24.9815 42.1914Z" fill="url(#paint6_linear)"/>
<path d="M24.9988 42.3447C25.3602 42.3447 25.67 42.6201 25.67 42.9988C25.67 43.3602 25.3946 43.67 25.016 43.67C24.6545 43.67 24.3447 43.3946 24.3447 43.016C24.3447 42.6545 24.6201 42.3619 24.9988 42.3447Z" fill="url(#paint7_radial)"/>
<path d="M25.4808 42.9482V43.0687L24.4998 43.0859V42.9654L25.4808 42.9482ZM25.0505 42.5352H24.93L24.9472 42.9654H25.0677L25.0505 42.5352ZM25.0505 43.0687H24.93L24.9472 43.499H25.0677L25.0505 43.0687Z" fill="#5C5B5F"/>
<path d="M32.9815 5.00048C33.5323 4.98327 33.997 5.43077 34.0142 5.99874C34.0314 6.54951 33.5839 7.01422 33.0332 7.03143C32.4824 7.04864 32.0177 6.60114 32.0005 6.05038C31.9833 5.4824 32.4136 5.01769 32.9815 5.00048Z" fill="url(#paint8_linear)"/>
<path d="M32.9815 5.18945C33.4462 5.18945 33.8249 5.55089 33.8249 5.99839C33.8421 6.4631 33.4635 6.84175 33.016 6.84175C32.5513 6.85896 32.1898 6.49752 32.1726 6.03281C32.1726 5.5681 32.534 5.18945 32.9815 5.18945Z" fill="url(#paint9_linear)"/>
<path d="M32.9988 5.34375C33.3602 5.34375 33.67 5.61913 33.67 5.99778C33.67 6.35922 33.3946 6.66903 33.016 6.66903C32.6545 6.66903 32.3447 6.39365 32.3447 6.015C32.3447 5.65356 32.6201 5.36096 32.9988 5.34375Z" fill="url(#paint10_radial)"/>
<path d="M33.4808 5.94628V6.06676L32.4998 6.08397V5.96349L33.4808 5.94628ZM33.0505 5.5332H32.93L32.9472 5.96349H33.0677L33.0505 5.5332ZM33.0505 6.06676H32.93L32.9472 6.49704H33.0677L33.0505 6.06676Z" fill="#5C5B5F"/>
<path d="M37.9815 8.9995C38.5323 8.98229 38.997 9.42979 39.0142 9.99777C39.0314 10.5485 38.5839 11.0132 38.0332 11.0305C37.4824 11.0477 37.0177 10.6002 37.0005 10.0494C36.9833 9.48142 37.4136 9.01672 37.9815 8.9995Z" fill="url(#paint11_linear)"/>
<path d="M37.9815 9.18945C38.4462 9.18945 38.8249 9.55089 38.8249 9.99839C38.8421 10.4631 38.4635 10.8417 38.016 10.8417C37.5513 10.859 37.1898 10.4975 37.1726 10.0328C37.1726 9.5681 37.534 9.18945 37.9815 9.18945Z" fill="url(#paint12_linear)"/>
<path d="M37.9988 9.34375C38.3602 9.34375 38.67 9.61913 38.67 9.99778C38.67 10.3592 38.3946 10.669 38.016 10.669C37.6545 10.669 37.3447 10.3936 37.3447 10.015C37.3447 9.65356 37.6201 9.36096 37.9988 9.34375Z" fill="url(#paint13_radial)"/>
<path d="M38.4808 9.94725V10.0677L37.4998 10.0849V9.96447L38.4808 9.94725ZM38.0505 9.53418H37.93L37.9472 9.96447H38.0677L38.0505 9.53418ZM38.0505 10.0677H37.93L37.9472 10.498H38.0677L38.0505 10.0677Z" fill="#5C5B5F"/>
<path d="M41.9815 13.9995C42.5323 13.9823 42.997 14.4298 43.0142 14.9978C43.0314 15.5485 42.5839 16.0132 42.0332 16.0305C41.4824 16.0477 41.0177 15.6002 41.0005 15.0494C40.9833 14.4814 41.4136 14.0167 41.9815 13.9995Z" fill="url(#paint14_linear)"/>
<path d="M41.9815 14.1904C42.4462 14.1904 42.8249 14.5519 42.8249 14.9994C42.8421 15.4641 42.4635 15.8427 42.016 15.8427C41.5513 15.8599 41.1898 15.4985 41.1726 15.0338C41.1726 14.5691 41.534 14.1904 41.9815 14.1904Z" fill="url(#paint15_linear)"/>
<path d="M42.4808 14.9463V15.0668L41.4998 15.084V14.9635L42.4808 14.9463ZM42.0505 14.5332H41.93L41.9472 14.9635H42.0677L42.0505 14.5332ZM42.0505 15.0668H41.93L41.9472 15.497H42.0677L42.0505 15.0668Z" fill="#5C5B5F"/>
<path d="M38.9815 35.9995C39.5323 35.9823 39.997 36.4298 40.0142 36.9978C40.0314 37.5485 39.5839 38.0132 39.0332 38.0305C38.4824 38.0477 38.0177 37.6002 38.0005 37.0494C37.9833 36.4814 38.4136 36.0167 38.9815 35.9995Z" fill="url(#paint16_linear)"/>
<path d="M38.9815 36.1895C39.4462 36.1895 39.8249 36.5509 39.8249 36.9984C39.8421 37.4631 39.4635 37.8417 39.016 37.8417C38.5513 37.859 38.1898 37.4975 38.1726 37.0328C38.1726 36.5681 38.534 36.1895 38.9815 36.1895Z" fill="url(#paint17_linear)"/>
<path d="M38.9988 36.3438C39.3602 36.3438 39.67 36.6191 39.67 36.9978C39.67 37.3592 39.3946 37.669 39.016 37.669C38.6545 37.669 38.3447 37.3936 38.3447 37.015C38.3447 36.6536 38.6201 36.361 38.9988 36.3438Z" fill="url(#paint18_radial)"/>
<path d="M39.4806 36.9473V37.0677L38.4995 37.0849V36.9645L39.4806 36.9473ZM39.0503 36.5342H38.9298L38.947 36.9645H39.0675L39.0503 36.5342ZM39.0503 37.0677H38.9298L38.947 37.498H39.0675L39.0503 37.0677Z" fill="#5C5B5F"/>
<path d="M32.9815 39.9995C33.5323 39.9823 33.997 40.4298 34.0142 40.9978C34.0314 41.5485 33.5839 42.0132 33.0332 42.0305C32.4824 42.0477 32.0177 41.6002 32.0005 41.0494C31.9833 40.4814 32.4136 40.0167 32.9815 39.9995Z" fill="url(#paint19_linear)"/>
<path d="M32.9815 40.1895C33.4462 40.1895 33.8249 40.5509 33.8249 40.9984C33.8421 41.4631 33.4635 41.8417 33.016 41.8417C32.5513 41.859 32.1898 41.4975 32.1726 41.0328C32.1726 40.5681 32.534 40.1895 32.9815 40.1895Z" fill="url(#paint20_linear)"/>
<path d="M32.9988 40.3438C33.3602 40.3438 33.67 40.6191 33.67 40.9978C33.67 41.3592 33.3946 41.669 33.016 41.669C32.6545 41.669 32.3447 41.3936 32.3447 41.015C32.3447 40.6536 32.6201 40.361 32.9988 40.3438Z" fill="url(#paint21_radial)"/>
<path d="M33.4808 40.9463V41.0668L32.4998 41.084V40.9635L33.4808 40.9463ZM33.0505 40.5332H32.93L32.9472 40.9635H33.0677L33.0505 40.5332ZM33.0505 41.0668H32.93L32.9472 41.497H33.0677L33.0505 41.0668Z" fill="#5C5B5F"/>
<path d="M43.9813 21.9995C44.5321 21.9823 44.9968 22.4298 45.014 22.9978C45.0312 23.5485 44.5837 24.0132 44.0329 24.0305C43.4822 24.0477 43.0175 23.6002 43.0003 23.0494C42.983 22.4814 43.4133 22.0167 43.9813 21.9995Z" fill="url(#paint22_linear)"/>
<path d="M43.9815 22.1895C44.4462 22.1895 44.8249 22.5509 44.8249 22.9984C44.8421 23.4631 44.4635 23.8417 44.016 23.8417C43.5513 23.859 43.1898 23.4975 43.1726 23.0328C43.1726 22.5681 43.534 22.1895 43.9815 22.1895Z" fill="url(#paint23_linear)"/>
<path d="M43.9988 22.3438C44.3602 22.3438 44.67 22.6191 44.67 22.9978C44.67 23.3592 44.3946 23.669 44.016 23.669C43.6545 23.669 43.3447 23.3936 43.3447 23.015C43.3447 22.6536 43.6201 22.361 43.9988 22.3438Z" fill="url(#paint24_radial)"/>
<path d="M44.4806 22.9473V23.0677L43.4995 23.0849V22.9645L44.4806 22.9473ZM44.0503 22.5342H43.9298L43.947 22.9645H44.0675L44.0503 22.5342ZM44.0503 23.0677H43.9298L43.947 23.498H44.0675L44.0503 23.0677Z" fill="#5C5B5F"/>
<path d="M42.9818 29.9995C43.5325 29.9823 43.9972 30.4298 44.0145 30.9978C44.0317 31.5485 43.5842 32.0132 43.0334 32.0305C42.4827 32.0477 42.018 31.6002 42.0007 31.0494C41.9835 30.4814 42.4138 30.0167 42.9818 29.9995Z" fill="url(#paint25_linear)"/>
<path d="M42.9815 30.1904C43.4462 30.1904 43.8249 30.5519 43.8249 30.9994C43.8421 31.4641 43.4635 31.8427 43.016 31.8427C42.5513 31.8599 42.1898 31.4985 42.1726 31.0338C42.1726 30.5691 42.534 30.1904 42.9815 30.1904Z" fill="url(#paint26_linear)"/>
<path d="M42.9988 30.3447C43.3602 30.3447 43.67 30.6201 43.67 30.9988C43.67 31.3602 43.3946 31.67 43.016 31.67C42.6545 31.67 42.3447 31.3946 42.3447 31.016C42.3447 30.6545 42.6201 30.3619 42.9988 30.3447Z" fill="url(#paint27_radial)"/>
<path d="M43.4808 30.9463V31.0668L42.4998 31.084V30.9635L43.4808 30.9463ZM43.0505 30.5332H42.93L42.9472 30.9635H43.0677L43.0505 30.5332ZM43.0505 31.0668H42.93L42.9472 31.497H43.0677L43.0505 31.0668Z" fill="#5C5B5F"/>
<path d="M17.0331 5.00048C16.4824 4.98327 16.0176 5.43077 16.0004 5.99874C15.9832 6.54951 16.4307 7.01422 16.9815 7.03143C17.5322 7.04864 17.9969 6.60114 18.0141 6.05038C18.0314 5.4824 17.6011 5.01769 17.0331 5.00048Z" fill="url(#paint28_linear)"/>
<path d="M17.0331 5.18945C16.5684 5.18945 16.1898 5.55089 16.1898 5.99839C16.1726 6.4631 16.5512 6.84175 16.9987 6.84175C17.4634 6.85896 17.8248 6.49752 17.842 6.03281C17.842 5.5681 17.4806 5.18945 17.0331 5.18945Z" fill="url(#paint29_linear)"/>
<path d="M17.0159 5.34375C16.6545 5.34375 16.3447 5.61913 16.3447 5.99778C16.3447 6.35922 16.62 6.66903 16.9987 6.66903C17.3601 6.66903 17.6699 6.39365 17.6699 6.015C17.6699 5.65356 17.3945 5.36096 17.0159 5.34375Z" fill="url(#paint30_radial)"/>
<path d="M16.5339 5.94628V6.06676L17.5149 6.08397V5.96349L16.5339 5.94628ZM16.9641 5.5332H17.0846L17.0674 5.96349H16.9469L16.9641 5.5332ZM16.9641 6.06676H17.0846L17.0674 6.49704H16.9469L16.9641 6.06676Z" fill="#5C5B5F"/>
<path d="M12.0329 8.9995C11.4821 8.98229 11.0174 9.42979 11.0002 9.99777C10.983 10.5485 11.4305 11.0132 11.9812 11.0305C12.532 11.0477 12.9967 10.6002 13.0139 10.0494C13.0311 9.48142 12.6008 9.01672 12.0329 8.9995Z" fill="url(#paint31_linear)"/>
<path d="M12.0331 9.18945C11.5684 9.18945 11.1898 9.55089 11.1898 9.99839C11.1726 10.4631 11.5512 10.8417 11.9987 10.8417C12.4634 10.859 12.8248 10.4975 12.842 10.0328C12.842 9.5681 12.4806 9.18945 12.0331 9.18945Z" fill="url(#paint32_linear)"/>
<path d="M12.0159 9.34375C11.6545 9.34375 11.3447 9.61913 11.3447 9.99778C11.3447 10.3592 11.62 10.669 11.9987 10.669C12.3601 10.669 12.6699 10.3936 12.6699 10.015C12.6699 9.65356 12.3945 9.36096 12.0159 9.34375Z" fill="url(#paint33_radial)"/>
<path d="M11.5336 9.94725V10.0677L12.5146 10.0849V9.96447L11.5336 9.94725ZM11.9639 9.53418H12.0844L12.0672 9.96447H11.9467L11.9639 9.53418ZM11.9639 10.0677H12.0844L12.0672 10.498H11.9467L11.9639 10.0677Z" fill="#5C5B5F"/>
<path d="M8.03311 13.9995C7.48235 13.9823 7.01765 14.4298 7.00044 14.9978C6.98323 15.5485 7.43072 16.0132 7.98148 16.0305C8.53224 16.0477 8.99694 15.6002 9.01415 15.0494C9.03136 14.4814 8.60108 14.0167 8.03311 13.9995Z" fill="url(#paint34_linear)"/>
<path d="M8.03311 14.1904C7.56841 14.1904 7.18976 14.5519 7.18976 14.9994C7.17255 15.4641 7.5512 15.8427 7.99869 15.8427C8.46339 15.8599 8.82483 15.4985 8.84204 15.0338C8.84204 14.5691 8.48061 14.1904 8.03311 14.1904Z" fill="url(#paint35_linear)"/>
<path d="M7.5341 14.9463V15.0668L8.51514 15.084V14.9635L7.5341 14.9463ZM7.96438 14.5332H8.08486L8.06765 14.9635H7.94717L7.96438 14.5332ZM7.96438 15.0668H8.08486L8.06765 15.497H7.94717L7.96438 15.0668Z" fill="#5C5B5F"/>
<path d="M11.0334 35.9995C10.4826 35.9823 10.0179 36.4298 10.0007 36.9978C9.98347 37.5485 10.431 38.0132 10.9817 38.0305C11.5325 38.0477 11.9972 37.6002 12.0144 37.0494C12.0316 36.4814 11.6013 36.0167 11.0334 35.9995Z" fill="url(#paint36_linear)"/>
<path d="M11.0331 36.1895C10.5684 36.1895 10.1898 36.5509 10.1898 36.9984C10.1726 37.4631 10.5512 37.8417 10.9987 37.8417C11.4634 37.859 11.8248 37.4975 11.842 37.0328C11.842 36.5681 11.4806 36.1895 11.0331 36.1895Z" fill="url(#paint37_linear)"/>
<path d="M11.0159 36.3438C10.6545 36.3438 10.3447 36.6191 10.3447 36.9978C10.3447 37.3592 10.62 37.669 10.9987 37.669C11.3601 37.669 11.6699 37.3936 11.6699 37.015C11.6699 36.6536 11.3945 36.361 11.0159 36.3438Z" fill="url(#paint38_radial)"/>
<path d="M10.5339 36.9473V37.0677L11.5149 37.0849V36.9645L10.5339 36.9473ZM10.9641 36.5342H11.0846L11.0674 36.9645H10.9469L10.9641 36.5342ZM10.9641 37.0677H11.0846L11.0674 37.498H10.9469L10.9641 37.0677Z" fill="#5C5B5F"/>
<path d="M17.0331 39.9995C16.4824 39.9823 16.0176 40.4298 16.0004 40.9978C15.9832 41.5485 16.4307 42.0132 16.9815 42.0305C17.5322 42.0477 17.9969 41.6002 18.0141 41.0494C18.0314 40.4814 17.6011 40.0167 17.0331 39.9995Z" fill="url(#paint39_linear)"/>
<path d="M17.0331 40.1895C16.5684 40.1895 16.1898 40.5509 16.1898 40.9984C16.1726 41.4631 16.5512 41.8417 16.9987 41.8417C17.4634 41.859 17.8248 41.4975 17.842 41.0328C17.842 40.5681 17.4806 40.1895 17.0331 40.1895Z" fill="url(#paint40_linear)"/>
<path d="M17.0159 40.3438C16.6545 40.3438 16.3447 40.6191 16.3447 40.9978C16.3447 41.3592 16.62 41.669 16.9987 41.669C17.3601 41.669 17.6699 41.3936 17.6699 41.015C17.6699 40.6536 17.3945 40.361 17.0159 40.3438Z" fill="url(#paint41_radial)"/>
<path d="M16.5339 40.9463V41.0668L17.5149 41.084V40.9635L16.5339 40.9463ZM16.9641 40.5332H17.0846L17.0674 40.9635H16.9469L16.9641 40.5332ZM16.9641 41.0668H17.0846L17.0674 41.497H16.9469L16.9641 41.0668Z" fill="#5C5B5F"/>
<path d="M6.03311 21.9995C5.48235 21.9823 5.01765 22.4298 5.00044 22.9978C4.98323 23.5485 5.43072 24.0132 5.98148 24.0305C6.53224 24.0477 6.99694 23.6002 7.01415 23.0494C7.03136 22.4814 6.60108 22.0167 6.03311 21.9995Z" fill="url(#paint42_linear)"/>
<path d="M6.03336 22.1895C5.56866 22.1895 5.19001 22.5509 5.19001 22.9984C5.1728 23.4631 5.55144 23.8417 5.99893 23.8417C6.46364 23.859 6.82507 23.4975 6.84229 23.0328C6.84229 22.5681 6.48085 22.1895 6.03336 22.1895Z" fill="url(#paint43_linear)"/>
<path d="M6.01614 22.3438C5.6547 22.3438 5.3449 22.6191 5.3449 22.9978C5.3449 23.3592 5.62028 23.669 5.99893 23.669C6.36036 23.669 6.67017 23.3936 6.67017 23.015C6.67017 22.6536 6.39479 22.361 6.01614 22.3438Z" fill="url(#paint44_radial)"/>
<path d="M5.53361 22.9473V23.0677L6.51465 23.0849V22.9645L5.53361 22.9473ZM5.96389 22.5342H6.08437L6.06716 22.9645H5.94668L5.96389 22.5342ZM5.96389 23.0677H6.08437L6.06716 23.498H5.94668L5.96389 23.0677Z" fill="#5C5B5F"/>
<path d="M7.03287 29.9995C6.48211 29.9823 6.01741 30.4298 6.00019 30.9978C5.98298 31.5485 6.43047 32.0132 6.98123 32.0305C7.53199 32.0477 7.99669 31.6002 8.01391 31.0494C8.03112 30.4814 7.60084 30.0167 7.03287 29.9995Z" fill="url(#paint45_linear)"/>
<path d="M7.03311 30.1904C6.56841 30.1904 6.18976 30.5519 6.18976 30.9994C6.17255 31.4641 6.5512 31.8427 6.99869 31.8427C7.46339 31.8599 7.82483 31.4985 7.84204 31.0338C7.84204 30.5691 7.48061 30.1904 7.03311 30.1904Z" fill="url(#paint46_linear)"/>
<path d="M7.0159 30.3447C6.65446 30.3447 6.34466 30.6201 6.34466 30.9988C6.34466 31.3602 6.62004 31.67 6.99868 31.67C7.36012 31.67 7.66992 31.3946 7.66992 31.016C7.66992 30.6545 7.39454 30.3619 7.0159 30.3447Z" fill="url(#paint47_radial)"/>
<path d="M6.53385 30.9463V31.0668L7.51489 31.084V30.9635L6.53385 30.9463ZM6.96413 30.5332H7.08461L7.0674 30.9635H6.94692L6.96413 30.5332ZM6.96413 31.0668H7.08461L7.0674 31.497H6.94692L6.96413 31.0668Z" fill="#5C5B5F"/>
<defs>
<linearGradient id="paint0_linear" x1="48.0035" y1="23.4993" x2="0.995926" y2="23.4993" gradientUnits="userSpaceOnUse">
<stop stop-color="#545454"/>
<stop offset="0.3125" stop-color="#9A999E"/>
<stop offset="0.640625" stop-color="#F3F4F5"/>
<stop offset="1" stop-color="#414141"/>
</linearGradient>
<linearGradient id="paint1_linear" x1="0.179039" y1="23.741" x2="48.821" y2="23.741" gradientUnits="userSpaceOnUse">
<stop/>
<stop offset="0.00429839" stop-color="#090909"/>
<stop offset="0.0277675" stop-color="#373737"/>
<stop offset="0.0542172" stop-color="#626262"/>
<stop offset="0.0826444" stop-color="#888888"/>
<stop offset="0.1136" stop-color="#A8A8A8"/>
<stop offset="0.1478" stop-color="#C4C4C4"/>
<stop offset="0.1864" stop-color="#DADADA"/>
<stop offset="0.2315" stop-color="#EBEBEB"/>
<stop offset="0.2872" stop-color="#F6F6F6"/>
<stop offset="0.3654" stop-color="#FDFDFD"/>
<stop offset="0.5824" stop-color="white"/>
<stop offset="0.6688" stop-color="#BBBBBB"/>
<stop offset="0.8455" stop-color="#363636"/>
<stop offset="0.9231"/>
</linearGradient>
<linearGradient id="paint2_linear" x1="25.0209" y1="5.01905" x2="24.9783" y2="2.99717" gradientUnits="userSpaceOnUse">
<stop/>
<stop offset="0.2131" stop-color="#555558"/>
<stop offset="0.692" stop-color="#B1B1B6"/>
<stop offset="1" stop-color="#EDEEF0"/>
</linearGradient>
<linearGradient id="paint3_linear" x1="25.0252" y1="4.81209" x2="24.9902" y2="3.15193" gradientUnits="userSpaceOnUse">
<stop stop-color="#EDEEF0"/>
<stop offset="0.308" stop-color="#B1B1B6"/>
<stop offset="0.7869" stop-color="#555558"/>
<stop offset="1"/>
</linearGradient>
<radialGradient id="paint4_radial" cx="0" cy="0" r="1" gradientUnits="userSpaceOnUse" gradientTransform="translate(25.0114 4.01816) rotate(-91.2074) scale(0.664549)">
<stop stop-color="#D8DADE"/>
<stop offset="0.6496" stop-color="#969499"/>
<stop offset="1" stop-color="#737377"/>
</radialGradient>
<linearGradient id="paint5_linear" x1="25.0209" y1="44.02" x2="24.9783" y2="41.9981" gradientUnits="userSpaceOnUse">
<stop/>
<stop offset="0.2131" stop-color="#555558"/>
<stop offset="0.692" stop-color="#B1B1B6"/>
<stop offset="1" stop-color="#EDEEF0"/>
</linearGradient>
<linearGradient id="paint6_linear" x1="25.0252" y1="43.8131" x2="24.9902" y2="42.1529" gradientUnits="userSpaceOnUse">
<stop stop-color="#EDEEF0"/>
<stop offset="0.308" stop-color="#B1B1B6"/>
<stop offset="0.7869" stop-color="#555558"/>
<stop offset="1"/>
</linearGradient>
<radialGradient id="paint7_radial" cx="0" cy="0" r="1" gradientUnits="userSpaceOnUse" gradientTransform="translate(25.0114 43.0201) rotate(-91.2074) scale(0.664549)">
<stop stop-color="#D8DADE"/>
<stop offset="0.6496" stop-color="#969499"/>
<stop offset="1" stop-color="#737377"/>
</radialGradient>
<linearGradient id="paint8_linear" x1="33.0209" y1="7.02003" x2="32.9783" y2="4.99815" gradientUnits="userSpaceOnUse">
<stop/>
<stop offset="0.2131" stop-color="#555558"/>
<stop offset="0.692" stop-color="#B1B1B6"/>
<stop offset="1" stop-color="#EDEEF0"/>
</linearGradient>
<linearGradient id="paint9_linear" x1="33.0252" y1="6.81112" x2="32.9902" y2="5.15095" gradientUnits="userSpaceOnUse">
<stop stop-color="#EDEEF0"/>
<stop offset="0.308" stop-color="#B1B1B6"/>
<stop offset="0.7869" stop-color="#555558"/>
<stop offset="1"/>
</linearGradient>
<radialGradient id="paint10_radial" cx="0" cy="0" r="1" gradientUnits="userSpaceOnUse" gradientTransform="translate(33.0114 6.01913) rotate(-91.2074) scale(0.664549)">
<stop stop-color="#D8DADE"/>
<stop offset="0.6496" stop-color="#969499"/>
<stop offset="1" stop-color="#737377"/>
</radialGradient>
<linearGradient id="paint11_linear" x1="38.0209" y1="11.0191" x2="37.9783" y2="8.99717" gradientUnits="userSpaceOnUse">
<stop/>
<stop offset="0.2131" stop-color="#555558"/>
<stop offset="0.692" stop-color="#B1B1B6"/>
<stop offset="1" stop-color="#EDEEF0"/>
</linearGradient>
<linearGradient id="paint12_linear" x1="38.0252" y1="10.8111" x2="37.9902" y2="9.15095" gradientUnits="userSpaceOnUse">
<stop stop-color="#EDEEF0"/>
<stop offset="0.308" stop-color="#B1B1B6"/>
<stop offset="0.7869" stop-color="#555558"/>
<stop offset="1"/>
</linearGradient>
<radialGradient id="paint13_radial" cx="0" cy="0" r="1" gradientUnits="userSpaceOnUse" gradientTransform="translate(38.0114 10.0191) rotate(-91.2074) scale(0.664549)">
<stop stop-color="#D8DADE"/>
<stop offset="0.6496" stop-color="#969499"/>
<stop offset="1" stop-color="#737377"/>
</radialGradient>
<linearGradient id="paint14_linear" x1="42.0209" y1="16.0191" x2="41.9783" y2="13.9972" gradientUnits="userSpaceOnUse">
<stop/>
<stop offset="0.2131" stop-color="#555558"/>
<stop offset="0.692" stop-color="#B1B1B6"/>
<stop offset="1" stop-color="#EDEEF0"/>
</linearGradient>
<linearGradient id="paint15_linear" x1="42.0252" y1="15.8121" x2="41.9902" y2="14.1519" gradientUnits="userSpaceOnUse">
<stop stop-color="#EDEEF0"/>
<stop offset="0.308" stop-color="#B1B1B6"/>
<stop offset="0.7869" stop-color="#555558"/>
<stop offset="1"/>
</linearGradient>
<linearGradient id="paint16_linear" x1="39.0209" y1="38.0191" x2="38.9783" y2="35.9972" gradientUnits="userSpaceOnUse">
<stop/>
<stop offset="0.2131" stop-color="#555558"/>
<stop offset="0.692" stop-color="#B1B1B6"/>
<stop offset="1" stop-color="#EDEEF0"/>
</linearGradient>
<linearGradient id="paint17_linear" x1="39.0252" y1="37.8111" x2="38.9902" y2="36.151" gradientUnits="userSpaceOnUse">
<stop stop-color="#EDEEF0"/>
<stop offset="0.308" stop-color="#B1B1B6"/>
<stop offset="0.7869" stop-color="#555558"/>
<stop offset="1"/>
</linearGradient>
<radialGradient id="paint18_radial" cx="0" cy="0" r="1" gradientUnits="userSpaceOnUse" gradientTransform="translate(39.0114 37.0191) rotate(-91.2074) scale(0.664549)">
<stop stop-color="#D8DADE"/>
<stop offset="0.6496" stop-color="#969499"/>
<stop offset="1" stop-color="#737377"/>
</radialGradient>
<linearGradient id="paint19_linear" x1="33.0209" y1="42.0191" x2="32.9783" y2="39.9972" gradientUnits="userSpaceOnUse">
<stop/>
<stop offset="0.2131" stop-color="#555558"/>
<stop offset="0.692" stop-color="#B1B1B6"/>
<stop offset="1" stop-color="#EDEEF0"/>
</linearGradient>
<linearGradient id="paint20_linear" x1="33.0252" y1="41.8111" x2="32.9902" y2="40.151" gradientUnits="userSpaceOnUse">
<stop stop-color="#EDEEF0"/>
<stop offset="0.308" stop-color="#B1B1B6"/>
<stop offset="0.7869" stop-color="#555558"/>
<stop offset="1"/>
</linearGradient>
<radialGradient id="paint21_radial" cx="0" cy="0" r="1" gradientUnits="userSpaceOnUse" gradientTransform="translate(33.0114 41.0191) rotate(-91.2074) scale(0.664549)">
<stop stop-color="#D8DADE"/>
<stop offset="0.6496" stop-color="#969499"/>
<stop offset="1" stop-color="#737377"/>
</radialGradient>
<linearGradient id="paint22_linear" x1="44.0207" y1="24.0191" x2="43.978" y2="21.9972" gradientUnits="userSpaceOnUse">
<stop/>
<stop offset="0.2131" stop-color="#555558"/>
<stop offset="0.692" stop-color="#B1B1B6"/>
<stop offset="1" stop-color="#EDEEF0"/>
</linearGradient>
<linearGradient id="paint23_linear" x1="44.0252" y1="23.8111" x2="43.9902" y2="22.151" gradientUnits="userSpaceOnUse">
<stop stop-color="#EDEEF0"/>
<stop offset="0.308" stop-color="#B1B1B6"/>
<stop offset="0.7869" stop-color="#555558"/>
<stop offset="1"/>
</linearGradient>
<radialGradient id="paint24_radial" cx="0" cy="0" r="1" gradientUnits="userSpaceOnUse" gradientTransform="translate(44.0114 23.0191) rotate(-91.2074) scale(0.664549)">
<stop stop-color="#D8DADE"/>
<stop offset="0.6496" stop-color="#969499"/>
<stop offset="1" stop-color="#737377"/>
</radialGradient>
<linearGradient id="paint25_linear" x1="43.0211" y1="32.0191" x2="42.9785" y2="29.9972" gradientUnits="userSpaceOnUse">
<stop/>
<stop offset="0.2131" stop-color="#555558"/>
<stop offset="0.692" stop-color="#B1B1B6"/>
<stop offset="1" stop-color="#EDEEF0"/>
</linearGradient>
<linearGradient id="paint26_linear" x1="43.0252" y1="31.8121" x2="42.9902" y2="30.1519" gradientUnits="userSpaceOnUse">
<stop stop-color="#EDEEF0"/>
<stop offset="0.308" stop-color="#B1B1B6"/>
<stop offset="0.7869" stop-color="#555558"/>
<stop offset="1"/>
</linearGradient>
<radialGradient id="paint27_radial" cx="0" cy="0" r="1" gradientUnits="userSpaceOnUse" gradientTransform="translate(43.0114 31.0201) rotate(-91.2074) scale(0.664549)">
<stop stop-color="#D8DADE"/>
<stop offset="0.6496" stop-color="#969499"/>
<stop offset="1" stop-color="#737377"/>
</radialGradient>
<linearGradient id="paint28_linear" x1="16.9937" y1="7.02003" x2="17.0364" y2="4.99815" gradientUnits="userSpaceOnUse">
<stop/>
<stop offset="0.2131" stop-color="#555558"/>
<stop offset="0.692" stop-color="#B1B1B6"/>
<stop offset="1" stop-color="#EDEEF0"/>
</linearGradient>
<linearGradient id="paint29_linear" x1="16.9895" y1="6.81112" x2="17.0245" y2="5.15095" gradientUnits="userSpaceOnUse">
<stop stop-color="#EDEEF0"/>
<stop offset="0.308" stop-color="#B1B1B6"/>
<stop offset="0.7869" stop-color="#555558"/>
<stop offset="1"/>
</linearGradient>
<radialGradient id="paint30_radial" cx="0" cy="0" r="1" gradientUnits="userSpaceOnUse" gradientTransform="translate(17.0033 6.01913) rotate(-88.7926) scale(0.664549)">
<stop stop-color="#D8DADE"/>
<stop offset="0.6496" stop-color="#969499"/>
<stop offset="1" stop-color="#737377"/>
</radialGradient>
<linearGradient id="paint31_linear" x1="11.9935" y1="11.0191" x2="12.0361" y2="8.99717" gradientUnits="userSpaceOnUse">
<stop/>
<stop offset="0.2131" stop-color="#555558"/>
<stop offset="0.692" stop-color="#B1B1B6"/>
<stop offset="1" stop-color="#EDEEF0"/>
</linearGradient>
<linearGradient id="paint32_linear" x1="11.9895" y1="10.8111" x2="12.0245" y2="9.15095" gradientUnits="userSpaceOnUse">
<stop stop-color="#EDEEF0"/>
<stop offset="0.308" stop-color="#B1B1B6"/>
<stop offset="0.7869" stop-color="#555558"/>
<stop offset="1"/>
</linearGradient>
<radialGradient id="paint33_radial" cx="0" cy="0" r="1" gradientUnits="userSpaceOnUse" gradientTransform="translate(12.0033 10.0191) rotate(-88.7926) scale(0.664549)">
<stop stop-color="#D8DADE"/>
<stop offset="0.6496" stop-color="#969499"/>
<stop offset="1" stop-color="#737377"/>
</radialGradient>
<linearGradient id="paint34_linear" x1="7.99375" y1="16.0191" x2="8.03638" y2="13.9972" gradientUnits="userSpaceOnUse">
<stop/>
<stop offset="0.2131" stop-color="#555558"/>
<stop offset="0.692" stop-color="#B1B1B6"/>
<stop offset="1" stop-color="#EDEEF0"/>
</linearGradient>
<linearGradient id="paint35_linear" x1="7.98949" y1="15.8121" x2="8.02448" y2="14.1519" gradientUnits="userSpaceOnUse">
<stop stop-color="#EDEEF0"/>
<stop offset="0.308" stop-color="#B1B1B6"/>
<stop offset="0.7869" stop-color="#555558"/>
<stop offset="1"/>
</linearGradient>
<linearGradient id="paint36_linear" x1="10.994" y1="38.0191" x2="11.0366" y2="35.9972" gradientUnits="userSpaceOnUse">
<stop/>
<stop offset="0.2131" stop-color="#555558"/>
<stop offset="0.692" stop-color="#B1B1B6"/>
<stop offset="1" stop-color="#EDEEF0"/>
</linearGradient>
<linearGradient id="paint37_linear" x1="10.9895" y1="37.8111" x2="11.0245" y2="36.151" gradientUnits="userSpaceOnUse">
<stop stop-color="#EDEEF0"/>
<stop offset="0.308" stop-color="#B1B1B6"/>
<stop offset="0.7869" stop-color="#555558"/>
<stop offset="1"/>
</linearGradient>
<radialGradient id="paint38_radial" cx="0" cy="0" r="1" gradientUnits="userSpaceOnUse" gradientTransform="translate(11.0033 37.0191) rotate(-88.7926) scale(0.664549)">
<stop stop-color="#D8DADE"/>
<stop offset="0.6496" stop-color="#969499"/>
<stop offset="1" stop-color="#737377"/>
</radialGradient>
<linearGradient id="paint39_linear" x1="16.9937" y1="42.0191" x2="17.0364" y2="39.9972" gradientUnits="userSpaceOnUse">
<stop/>
<stop offset="0.2131" stop-color="#555558"/>
<stop offset="0.692" stop-color="#B1B1B6"/>
<stop offset="1" stop-color="#EDEEF0"/>
</linearGradient>
<linearGradient id="paint40_linear" x1="16.9895" y1="41.8111" x2="17.0245" y2="40.151" gradientUnits="userSpaceOnUse">
<stop stop-color="#EDEEF0"/>
<stop offset="0.308" stop-color="#B1B1B6"/>
<stop offset="0.7869" stop-color="#555558"/>
<stop offset="1"/>
</linearGradient>
<radialGradient id="paint41_radial" cx="0" cy="0" r="1" gradientUnits="userSpaceOnUse" gradientTransform="translate(17.0033 41.0191) rotate(-88.7926) scale(0.664549)">
<stop stop-color="#D8DADE"/>
<stop offset="0.6496" stop-color="#969499"/>
<stop offset="1" stop-color="#737377"/>
</radialGradient>
<linearGradient id="paint42_linear" x1="5.99375" y1="24.0191" x2="6.03638" y2="21.9972" gradientUnits="userSpaceOnUse">
<stop/>
<stop offset="0.2131" stop-color="#555558"/>
<stop offset="0.692" stop-color="#B1B1B6"/>
<stop offset="1" stop-color="#EDEEF0"/>
</linearGradient>
<linearGradient id="paint43_linear" x1="5.98973" y1="23.8111" x2="6.02473" y2="22.151" gradientUnits="userSpaceOnUse">
<stop stop-color="#EDEEF0"/>
<stop offset="0.308" stop-color="#B1B1B6"/>
<stop offset="0.7869" stop-color="#555558"/>
<stop offset="1"/>
</linearGradient>
<radialGradient id="paint44_radial" cx="0" cy="0" r="1" gradientUnits="userSpaceOnUse" gradientTransform="translate(6.0035 23.0191) rotate(-88.7926) scale(0.664549)">
<stop stop-color="#D8DADE"/>
<stop offset="0.6496" stop-color="#969499"/>
<stop offset="1" stop-color="#737377"/>
</radialGradient>
<linearGradient id="paint45_linear" x1="6.9935" y1="32.0191" x2="7.03614" y2="29.9972" gradientUnits="userSpaceOnUse">
<stop/>
<stop offset="0.2131" stop-color="#555558"/>
<stop offset="0.692" stop-color="#B1B1B6"/>
<stop offset="1" stop-color="#EDEEF0"/>
</linearGradient>
<linearGradient id="paint46_linear" x1="6.98949" y1="31.8121" x2="7.02448" y2="30.1519" gradientUnits="userSpaceOnUse">
<stop stop-color="#EDEEF0"/>
<stop offset="0.308" stop-color="#B1B1B6"/>
<stop offset="0.7869" stop-color="#555558"/>
<stop offset="1"/>
</linearGradient>
<radialGradient id="paint47_radial" cx="0" cy="0" r="1" gradientUnits="userSpaceOnUse" gradientTransform="translate(7.00325 31.0201) rotate(-88.7926) scale(0.664549)">
<stop stop-color="#D8DADE"/>
<stop offset="0.6496" stop-color="#969499"/>
<stop offset="1" stop-color="#737377"/>
</radialGradient>
</defs>
</svg>
