<svg width="130" height="82" viewBox="0 0 130 82" fill="none" xmlns="http://www.w3.org/2000/svg">
<path d="M128 0H2C0.895431 0 0 0.895429 0 2V80C0 81.1046 0.89543 82 2 82H128C129.105 82 130 81.1046 130 80V2C130 0.89543 129.105 0 128 0Z" fill="url(#paint0_linear)"/>
<path d="M125.768 1.41113H4.23828C3.13371 1.41113 2.23828 2.30656 2.23828 3.41113V78.5881C2.23828 79.6927 3.13371 80.5881 4.23828 80.5881H125.768C126.873 80.5881 127.768 79.6927 127.768 78.5881V3.41113C127.768 2.30656 126.872 1.41113 125.768 1.41113Z" fill="url(#paint1_linear)"/>
<path d="M63.153 31.5928H61.3121V35.9977H63.153V31.5928Z" fill="#3C3C3B"/>
<path d="M48.2287 39.5464C48.2944 39.415 48.6231 39.2835 48.5574 39.152C48.4916 38.9547 47.9657 38.8232 47.7684 38.8232C47.5055 39.4807 46.6508 41.2558 48.4916 42.7022C48.8204 42.4393 47.5055 41.6503 48.2287 39.5464Z" fill="#3C3C3B"/>
<path d="M61.2265 38.9289L62.3349 31.1311L62.5414 31.4601C62.4117 30.3788 60.4057 32.0807 59.3026 32.0206L62.5414 31.9605L40.0068 32.0206C37.938 34.0497 36.9569 34.9041 40.0068 32.0206C40.0068 32.9217 37.5363 34.6688 39.6129 32.4461C40.9756 32.4461 39.1586 32.4461 39.6129 32.4461L40.0068 32.0206L38.8388 33.2821V38.5685C39.6824 38.3282 40.3313 38.4483 40.8504 38.7487C41.2398 38.989 41.4994 39.4095 41.4994 39.83C41.4994 40.1304 41.4345 40.4307 41.2398 40.7311L36.2431 49.802L42.343 51.1837L42.4727 50.5229L42.0185 49.802L43.9653 46.0175H45.0035L45.0684 45.657L44.6142 44.7559L44.8737 44.0951H52.531L60.7074 42.6534V42.1728L60.1234 41.8725C60.1234 40.4307 60.1234 40.9113 60.1234 39.7099L61.2265 38.9289ZM52.1416 42.6534C52.1416 43.0739 51.7523 43.4944 51.2332 43.4944H46.4311C45.7822 43.4944 45.3929 42.8937 45.5876 42.353L46.1067 41.1516C46.2365 40.8512 46.5609 40.671 46.9503 40.611H51.1683C51.6225 40.611 52.0767 40.9714 52.0767 41.452V42.6534H52.1416ZM59.0202 31.9605H46.3014C45.4578 31.9605 39.2059 32.5094 39.5304 31.7885L40.5166 32.0196C40.9708 31.0584 40.1366 33.222 41.2398 33.2821L59.0202 33.761C59.7989 33.8211 60.1234 32.5613 60.1234 33.2821L62.5414 31.7885V31.4601C62.5414 32.1209 59.734 31.9605 59.0202 31.9605Z" fill="#575756"/>
<path d="M44.4155 43.1626L40.9309 42.0449L37.0519 49.4085L41.6542 50.5261L41.2597 49.9344L44.4155 43.1626Z" fill="#3C3C3B"/>
<path d="M38.827 37.5093L8.78118 44.4783C8.12372 44.6098 7.53201 44.1496 7.46627 43.4921C6.41433 40.3363 5.88837 36.7861 6.01986 32.8413C5.95411 32.2496 6.48008 31.7236 7.07179 31.7236H38.827V37.5093Z" fill="#3C3C3B"/>
<path opacity="0.25" d="M7.0717 32.3145H38.2352V33.3006C38.2352 33.3006 6.94021 32.3145 7.0717 32.3145Z" fill="white"/>
<path d="M59.537 32.7756C59.537 33.3673 59.0768 33.8275 58.4851 33.8275H39.1558C38.5641 33.8275 38.1039 33.3673 38.1039 32.7756C38.1039 32.1839 38.5641 31.7236 39.1558 31.7236H58.4851C59.0768 31.7236 59.537 32.1839 59.537 32.7756Z" fill="#3C3C3B"/>
<path d="M61.4436 35.6685H50.0696C49.8066 35.6685 49.6094 35.4713 49.6094 35.2083C49.6094 34.9453 49.8066 34.748 50.0696 34.748H61.4436V35.6685Z" fill="#3C3C3B"/>
<path d="M53.0281 38.3638C52.8308 38.3638 52.6336 38.1666 52.6336 37.9693V35.208H53.4226V37.9693C53.4226 38.2323 53.2911 38.3638 53.0281 38.3638Z" fill="#3C3C3B"/>
<path d="M51.7789 36.7857C51.7789 37.1802 51.4502 37.5089 51.0557 37.5089C50.6612 37.5089 50.3325 37.1802 50.3325 36.7857C50.3325 36.3912 50.6612 36.0625 51.0557 36.0625C51.4502 36.0625 51.7789 36.3912 51.7789 36.7857Z" fill="#3C3C3B"/>
<path d="M44.547 35.6689C44.547 35.9976 44.284 36.2606 43.9552 36.2606C43.6265 36.2606 43.3635 35.9976 43.3635 35.6689C43.3635 35.3401 43.6265 35.0771 43.9552 35.0771C44.284 35.0771 44.547 35.3401 44.547 35.6689Z" fill="#3C3C3B"/>
<path d="M42.5088 33.8936H40.0105V35.2742H42.5088V33.8936Z" fill="#3C3C3B"/>
<path d="M53.4226 37.7725V38.0354C53.4226 38.5614 52.9624 39.0216 52.4364 39.0216H41.5226C41.4569 38.5614 41.2596 38.1012 40.8652 37.8382H53.4226V37.7725Z" fill="#3C3C3B"/>
<path d="M64.8624 31H62.2983V36.6541H64.8624V31Z" fill="#575756"/>
<path opacity="0.25" d="M59.8658 38.9561L59.3398 41.0599L53.4227 42.6378L59.8658 41.4544V38.9561Z" fill="white"/>
<path opacity="0.25" d="M54.3431 36.523L53.7514 37.2462V35.9971H60.7205L54.3431 36.523Z" fill="white"/>
<path opacity="0.25" d="M45.6646 39.8105H42.1144L37.0519 49.4094L42.1144 40.731L45.6646 39.8105Z" fill="white"/>
<path d="M117.11 35.4043H64.5138V36.7192H117.11V35.4043Z" fill="#3C3C3B"/>
<path d="M109.221 35.0222V37.1739C109.221 37.425 108.891 37.6043 108.429 37.6401H107.967H107.505L106.316 37.676H105.854H104.666H104.204H103.016H102.553H101.365H100.903H99.7148H99.2527L98.0644 37.7118H97.6023H96.414H95.9519L94.7636 37.7477H94.3015H93.1132H92.6511H91.4628H91.0007H89.8125H89.3504H88.1621H87.7L86.5117 37.7836H86.0496H84.8613H84.3992L83.541 37.9987H83.0789H81.8906H81.4285L80.2402 38.0346H79.7781H78.5899H78.1278H77.8637C77.4016 38.0346 77.0055 37.8553 77.0055 37.6043V34.556C77.0055 34.305 77.4016 34.0898 77.8637 34.0898H78.1278H78.5899H79.7781H80.2402H81.4285H81.8906H83.0789H83.541L84.7293 34.1257H85.1914H86.3797H86.8418L88.0301 34.1616H88.4922H89.6804H90.1425H91.3308H91.7929H92.9812H93.4433H94.6316H95.0937L96.282 34.1974H96.7441H97.9324H98.3945L99.3847 34.4485H99.8468H101.035H101.497H102.685H103.148H104.336H104.798H105.986H106.448L107.637 34.4843H108.099H108.561C108.891 34.5919 109.221 34.7712 109.221 35.0222Z" fill="#3C3C3B"/>
<path d="M106.789 35.0349V35.8956H105.674V35.0349L105.149 35.011V35.8956H104.034V35.011H103.575V35.8956H102.394V34.9871H101.935V35.8956H100.754V34.9632H100.295V35.8956H99.1797V34.9632H98.7205V35.8956H97.5397V34.9393H97.0805V35.8956H95.8997V34.9154H95.4405V35.8956H94.3253V34.9154H93.8661V35.8956H92.6853V34.8915H92.2261V35.8956H91.0453V34.8676H90.5861V35.8956H89.4053V34.8676L88.9461 34.8437V35.8956H87.8309V34.8437H87.3717V35.8956H86.1909V34.8198H85.7317V35.8956H84.5509V34.8198L84.0917 34.7959V35.8956H82.9765V34.7959H82.5173V35.8956H81.3365V34.772H80.8773V35.8956H79.6965V34.772L79.2373 34.748V35.8956H78.1221V34.748H77.6629V37.3779H78.1221V36.2064H79.2373V37.354H79.6965V36.2064H80.8773V37.354L81.3365 37.3301V36.2064H82.5173V37.3301H82.9765V36.2064H84.0917V37.3062H84.5509V36.2064H85.7317V37.3062L86.1909 37.2823V36.2064H87.3717V37.2823H87.8309V36.2064H88.9461V37.2583H89.4053V36.2064H90.5861V37.2344H91.0453V36.2064H92.2261V37.2344H92.6853V36.2064H93.8661V37.2105H94.3253V36.2064H95.4405V37.1866H95.8997V36.2064H97.0805V37.1866L97.5397 37.1627V36.2064H98.7205V37.1627H99.1797V36.2064H100.295V37.1388H100.754V36.2064H101.935V37.1388L102.394 37.1149V36.2064H103.575V37.1149H104.034V36.2064H105.149V37.091H105.674V36.2064H106.789V37.091L107.249 37.0671V36.2064V35.8956V35.0349H106.789Z" fill="#1D1D1B"/>
<path d="M118.651 36.7197H114.246C114.004 36.7197 113.823 36.5064 113.823 36.2221V34.5874C113.823 34.3031 114.004 34.0898 114.246 34.0898H118.651C118.892 34.0898 119.073 34.3031 119.073 34.5874V36.2221C119.134 36.4354 118.892 36.7197 118.651 36.7197Z" fill="#575756"/>
<path d="M123.422 32.7764H64.5138V34.5515H123.422V32.7764Z" fill="#3C3C3B"/>
<path d="M124.568 34.7478H120.163C119.921 34.7478 119.74 34.5878 119.74 34.3746V33.1485C119.74 32.9353 119.921 32.7754 120.163 32.7754H124.568C124.809 32.7754 124.991 32.9353 124.991 33.1485V34.3746C125.051 34.5345 124.809 34.7478 124.568 34.7478Z" fill="#575756"/>
<path d="M77.663 35.1071C77.663 35.5847 77.2926 36.0622 76.9222 36.0622H65.2546C64.8842 36.0622 64.5138 35.5847 64.5138 35.1071C64.5138 34.6295 64.8842 34.152 65.2546 34.152H76.9222C77.2926 33.9132 77.663 34.3907 77.663 35.1071Z" fill="#3C3C3B"/>
<path opacity="0.25" d="M104 34C104 34 103.916 33.9286 103.833 33.9286L101.161 33.8571L97.0685 33.7857H96.4839L92.9764 33.7143L90.8887 33.6429L88.8009 33.5714L86.7131 33.5L82.621 33.4286H82.0364L78.5289 33.3571L76.4411 33.2857L74.3533 33.2143L72.2655 33.1429L68.1735 33.0714H67.5889L65.2505 33C65.0835 33 65 33.0714 65 33.2143V34H104Z" fill="white"/>
<defs>
<linearGradient id="paint0_linear" x1="-9.69095" y1="-2.49748" x2="79.6624" y2="128.716" gradientUnits="userSpaceOnUse">
<stop stop-color="#969699"/>
<stop offset="0.2788" stop-color="#B7ADAE"/>
<stop offset="1" stop-color="#E5E5E5"/>
</linearGradient>
<linearGradient id="paint1_linear" x1="65.0031" y1="1.41113" x2="65.0031" y2="80.5881" gradientUnits="userSpaceOnUse">
<stop stop-color="#F1E6E1"/>
<stop offset="1" stop-color="#CDC6C5"/>
</linearGradient>
</defs>
</svg>
