<svg width="130" height="82" viewBox="0 0 130 82" fill="none" xmlns="http://www.w3.org/2000/svg">
<path d="M128 0H2C0.895431 0 0 0.895429 0 2V80C0 81.1046 0.89543 82 2 82H128C129.105 82 130 81.1046 130 80V2C130 0.89543 129.105 0 128 0Z" fill="url(#paint0_linear)"/>
<path d="M125.768 1.41113H4.23828C3.13371 1.41113 2.23828 2.30656 2.23828 3.41113V78.5881C2.23828 79.6927 3.13371 80.5881 4.23828 80.5881H125.768C126.873 80.5881 127.768 79.6927 127.768 78.5881V3.41113C127.768 2.30656 126.872 1.41113 125.768 1.41113Z" fill="url(#paint1_linear)"/>
<path d="M121.556 34.5417H120.146L120.428 32.5685C120.485 32.343 120.71 32.1738 120.992 32.1738C121.274 32.1738 121.556 32.343 121.556 32.6248V34.5417Z" fill="#3C3C3B"/>
<path d="M125.671 34.2031H81.8096V36.2327H125.671V34.2031Z" fill="#3C3C3B"/>
<path opacity="0.15" d="M125.389 34.543H81.8096V35.2195H125.389V34.543Z" fill="white"/>
<path d="M61.4009 34.8258H53.508V33.6418C53.508 33.1908 53.8463 32.8525 54.2973 32.8525H60.6116C61.0626 32.8525 61.4009 33.1908 61.4009 33.6418V34.8258Z" fill="#3C3C3B"/>
<path d="M45.728 39.7295V41.3081C45.728 42.6611 46.7428 43.7887 47.9831 43.7887H51.253C52.4933 43.7887 53.5081 42.6611 53.5081 41.3081V39.7295H45.728ZM53.1135 41.3644C53.1135 42.492 52.2678 43.394 51.253 43.394H47.9831C46.9683 43.394 46.1227 42.492 46.1227 41.3644V40.1805H48.3214C48.3778 41.1953 48.9979 42.1537 50.2946 42.943H50.9711C49.9 42.1537 49.3362 41.2517 49.4489 40.1805H53.1699L53.1135 41.3644Z" fill="#1D1D1B"/>
<path d="M92.5214 35.8397V36.4598C91.7885 38.433 89.8716 39.8425 87.6729 39.8425H46.4045H45.6716C45.277 40.0116 44.9387 40.2371 44.5441 40.4062C42.4581 41.5338 40.4849 42.9432 38.6244 44.6345C37.4969 45.7057 35.9183 46.2131 34.4525 45.9312L32.7612 45.6493C32.0846 45.5366 31.4081 45.5366 30.7316 45.6493L5.07981 50.3287C4.74154 50.3851 4.40328 50.1032 4.45965 49.7649C5.02343 45.7621 4.8543 41.6465 4.00863 37.3618C3.95226 37.0236 4.17777 36.6853 4.51603 36.6853L29.8295 35.5578L34.1706 37.531C35.0727 37.9256 36.1438 38.0384 37.1586 37.7565L41.2742 35.6705C41.9507 35.3323 42.6272 35.0504 43.3601 34.8812C44.2058 34.6557 45.1079 34.543 46.0099 34.543H52.4369L52.4933 34.5993H61.401V35.3886H62.2466V35.896H92.5214V35.8397Z" fill="#7D4E24"/>
<path d="M44.9387 32.3428H44.6005V33.3576H44.9387V32.3428Z" fill="#3C3C3B"/>
<path d="M45.0515 32.6826H43.3602V34.4303H45.0515V32.6826Z" fill="#3C3C3B"/>
<path d="M44.375 32.7947C44.375 33.2457 44.0368 33.584 43.5857 33.584C43.1347 33.584 42.7964 33.2457 42.7964 32.7947C42.7964 32.3436 43.1347 32.0054 43.5857 32.0054C44.0368 31.949 44.375 32.3436 44.375 32.7947Z" fill="#575756"/>
<path d="M44.0932 32.7945C44.0932 33.0764 43.8677 33.3019 43.5858 33.3019C43.3039 33.3019 43.0784 33.0764 43.0784 32.7945C43.0784 32.5126 43.3039 32.2871 43.5858 32.2871C43.8677 32.2871 44.0932 32.5126 44.0932 32.7945Z" fill="#1D1D1B"/>
<path d="M58.7512 33.1885H44.6568V35.1053H58.7512V33.1885Z" fill="#1D1D1B"/>
<path d="M54.241 34.4852H49.1671V34.0906C49.1671 33.7523 49.4489 33.4141 49.8436 33.4141H54.241V34.4852Z" fill="#575756"/>
<path d="M62.1902 36.0075H87.1091L86.6017 34.8236C86.3198 34.1471 85.6433 33.6961 84.9104 33.6961L61.0627 33.0195V34.88C61.0627 35.5001 61.5701 36.0075 62.1902 36.0075Z" fill="#1D1D1B"/>
<path d="M46.4609 39.729L45.6716 39.7853C45.277 39.9545 44.9387 40.18 44.5441 40.3491L43.4165 34.3167L44.6004 33.7529H46.0662L46.4609 39.729Z" fill="#3C3C3B"/>
<path d="M45.728 38.546C45.728 38.7715 45.5589 38.9407 45.3334 38.9407C45.1079 38.9407 44.9387 38.7715 44.9387 38.546C44.9387 38.3205 45.1079 38.1514 45.3334 38.1514C45.5589 38.1514 45.728 38.3769 45.728 38.546Z" fill="#1D1D1B"/>
<path d="M44.6569 34.3164H42.7964V35.444H44.6569V34.3164Z" fill="#575756"/>
<path d="M125.953 33.9219H121.556V36.4589H125.953V33.9219Z" fill="#1D1D1B"/>
<path d="M60.2733 42.8305L54.9174 44.3527C54.2409 44.5218 53.508 44.0144 53.508 43.2815V39.7861H61.0626V41.7593C61.0626 42.2667 60.7243 42.6614 60.2733 42.8305Z" fill="#1D1D1B"/>
<path d="M55.0303 43.1681C55.0303 43.3936 54.8611 43.5627 54.6356 43.5627C54.4101 43.5627 54.241 43.3936 54.241 43.1681C54.241 42.9426 54.4101 42.7734 54.6356 42.7734C54.8611 42.7734 55.0303 42.9426 55.0303 43.1681Z" fill="#575756"/>
<path d="M60.1607 42.2649C60.3786 42.2649 60.5553 42.0882 60.5553 41.8702C60.5553 41.6523 60.3786 41.4756 60.1607 41.4756C59.9427 41.4756 59.7661 41.6523 59.7661 41.8702C59.7661 42.0882 59.9427 42.2649 60.1607 42.2649Z" fill="#575756"/>
<path opacity="0.2" d="M91.4502 38.1514C90.4917 39.1662 89.1951 39.7863 87.6729 39.7863H46.4045H45.6716C45.277 39.9555 44.9387 40.181 44.544 40.3501C42.4581 41.4777 40.4849 42.8871 38.6244 44.5784C37.4969 45.6496 35.9183 46.157 34.4525 45.8751L32.7611 45.5932C32.0846 45.4805 31.4081 45.4805 30.7316 45.5932L5.07978 50.2725C4.74151 50.3289 4.40325 50.047 4.45962 49.7088C4.68513 48.1866 4.79789 46.608 4.79789 45.0294C11.1685 44.3529 31.1826 42.7743 31.1826 42.7743L35.6364 43.169L40.0338 40.3501C42.2326 38.9407 44.7132 38.2077 47.3065 38.2077H91.4502V38.1514Z" fill="#1D1D1B"/>
<defs>
<linearGradient id="paint0_linear" x1="-9.69095" y1="-2.49748" x2="79.6624" y2="128.716" gradientUnits="userSpaceOnUse">
<stop stop-color="#969699"/>
<stop offset="0.2788" stop-color="#B7ADAE"/>
<stop offset="1" stop-color="#E5E5E5"/>
</linearGradient>
<linearGradient id="paint1_linear" x1="65.0031" y1="1.41113" x2="65.0031" y2="80.5881" gradientUnits="userSpaceOnUse">
<stop stop-color="#F1E6E1"/>
<stop offset="1" stop-color="#CDC6C5"/>
</linearGradient>
</defs>
</svg>
