<svg width="130" height="82" viewBox="0 0 130 82" fill="none" xmlns="http://www.w3.org/2000/svg">
<path d="M128 0H2C0.895431 0 0 0.895429 0 2V80C0 81.1046 0.89543 82 2 82H128C129.105 82 130 81.1046 130 80V2C130 0.89543 129.105 0 128 0Z" fill="url(#paint0_linear)"/>
<path d="M125.768 1.41113H4.23828C3.13371 1.41113 2.23828 2.30656 2.23828 3.41113V78.5881C2.23828 79.6927 3.13371 80.5881 4.23828 80.5881H125.768C126.873 80.5881 127.768 79.6927 127.768 78.5881V3.41113C127.768 2.30656 126.872 1.41113 125.768 1.41113Z" fill="url(#paint1_linear)"/>
<path d="M45.7559 59.8482L36.0212 65.5134C35.7021 65.0347 35.4627 64.5559 35.2233 63.9974C31.3135 56.6565 29.7974 48.1187 30.9145 39.8203L39.7715 41.0172L42.0056 41.3364C41.2077 47.7197 42.4844 54.2627 45.7559 59.8482Z" fill="#343433"/>
<path d="M43.5217 59.13L35.2233 63.9974C31.3135 56.6565 29.7974 48.1187 30.9145 39.8203L40.4098 41.0172C39.6119 47.241 40.33 53.7042 43.5217 59.13Z" fill="#1D1D1B"/>
<path d="M121 30.8047H111.265V34.4751H121V30.8047Z" fill="#343433"/>
<path d="M85.9712 27.9316H55.6501V38.7036C56.448 38.7036 56.9268 38.7834 57.0066 38.7834C57.5651 39.1824 57.8843 39.8207 57.9641 40.459C57.9641 40.9378 57.8843 41.4165 57.5651 41.8155L50.2242 55.6994L58.8418 57.8538L59.0812 56.8962L58.4429 55.8589L61.2356 50.0341H62.7516L62.8314 49.4756L62.1931 48.1191L62.592 47.1616L72.0075 47.002C73.1246 47.002 74.0821 46.0445 74.0821 44.9274V41.0176L85.8914 39.3419H100.573C102.169 39.3419 102.887 38.4642 103.206 37.6663H111.186V28.0912H85.9712V27.9316ZM72.965 44.9274C72.965 45.6455 72.4065 46.2041 71.6884 46.2041H64.906C64.0283 46.2041 63.39 45.3264 63.7889 44.4486L64.5869 42.6134C64.7464 42.1347 65.2252 41.8155 65.7837 41.8155H71.848C72.5661 41.8155 73.1246 42.374 73.1246 43.0922L72.965 44.9274ZM85.9712 29.8467C85.9712 30.2456 85.652 30.485 85.3329 30.485H79.1091C78.7101 30.485 78.4707 30.1658 78.4707 29.8467V29.4477C78.4707 29.0487 78.7899 28.8094 79.1091 28.8094H85.3329C85.7318 28.8094 85.9712 29.1285 85.9712 29.4477V29.8467ZM95.7059 29.8467C95.7059 30.2456 95.3867 30.485 95.0675 30.485H88.8437C88.4448 30.485 88.2054 30.1658 88.2054 29.8467V29.4477C88.2054 29.0487 88.5246 28.8094 88.8437 28.8094H95.0675C95.4665 28.8094 95.7059 29.1285 95.7059 29.4477V29.8467ZM105.52 29.8467C105.52 30.2456 105.201 30.485 104.882 30.485H98.6582C98.2592 30.485 98.0198 30.1658 98.0198 29.8467V29.4477C98.0198 29.0487 98.339 28.8094 98.6582 28.8094H104.882C105.281 28.8094 105.52 29.1285 105.52 29.4477V29.8467Z" fill="#686767"/>
<path d="M44.1601 41.6561H22.7758V35.3525H47.4316V38.4644C47.3518 40.2199 45.9155 41.6561 44.1601 41.6561Z" fill="#343433"/>
<path d="M67.2998 41.3371C67.3796 41.0977 67.8584 40.9381 67.7786 40.7786C67.619 40.5392 66.9807 40.2998 66.6615 40.2998C66.3423 41.2573 65.0656 43.7309 67.619 45.8055C68.1775 45.4065 66.2625 44.2894 67.2998 41.3371Z" fill="#343433"/>
<path d="M61.9537 46.3634L57.0864 44.7676L51.5807 55.1406L57.9641 56.7364L57.4853 55.8587L61.9537 46.3634Z" fill="#343433"/>
<path d="M74.0821 39.7411C73.7629 39.7411 73.5236 39.5017 73.5236 39.1826V35.3525H74.6407V39.1826C74.6407 39.5017 74.4013 39.7411 74.0821 39.7411Z" fill="#343433"/>
<path d="M72.3267 37.507C72.3267 38.0656 71.8479 38.5443 71.2894 38.5443C70.7308 38.5443 70.2521 38.0656 70.2521 37.507C70.2521 36.9485 70.7308 36.4697 71.2894 36.4697C71.8479 36.4697 72.3267 36.9485 72.3267 37.507Z" fill="#343433"/>
<path d="M74.8801 29.9264H71.2894L72.1671 25.5379L74.8801 24.6602V29.9264Z" fill="#343433"/>
<path d="M74.6407 38.863V39.1822C74.6407 39.9003 74.0024 40.5386 73.2842 40.5386L57.9641 40.4588C57.8843 39.8205 57.5651 39.1822 57.0066 38.7832L74.6407 38.863Z" fill="#343433"/>
<path opacity="0.25" d="M63.7091 41.736L58.762 41.6562L51.5807 55.1411L58.762 42.9329L63.7091 41.736Z" fill="white"/>
<path d="M112.542 29.4473H111.265V35.8306H112.542V29.4473Z" fill="#1D1D1B"/>
<path d="M70.2522 27.9316H30.5156H10.7271H10.5675C9.21106 27.9316 8.17376 29.2083 8.57272 30.485C9.68981 34.8736 9.53023 39.4217 8.17376 44.0497C7.7748 45.4859 8.97169 46.8424 10.4079 46.6828L23.5737 45.087C25.2493 44.8476 26.6058 43.6507 27.0047 42.0549L27.1643 41.3367C27.5633 39.8207 28.9198 38.7834 30.5156 38.7834H70.332V27.9316H70.2522Z" fill="#686767"/>
<path d="M14.158 46.2842L10.4078 46.7629C9.84926 46.8427 9.3705 46.6831 8.97154 46.4437C8.89175 46.3639 8.73217 46.2842 8.65238 46.2044C8.17362 45.7256 7.93424 44.9277 8.17362 44.1298C8.3332 43.651 8.413 43.1723 8.57258 42.6935C9.53009 38.5443 9.60988 34.4749 8.57258 30.5651C8.25341 29.2884 9.21092 28.0117 10.5674 28.0117H12.0834C13.0409 32.9588 13.9985 37.6666 14.158 42.4541C14.3176 43.7308 14.2378 45.0075 14.158 46.2842Z" fill="#343433"/>
<path d="M85.8914 34.3945H18.9457V35.352H85.8914V34.3945Z" fill="#343433"/>
<path d="M76.9547 29.4473H46.6337V30.4048H76.9547V29.4473Z" fill="#343433"/>
<path d="M44.0004 32.0807V33.118C44.0004 33.517 43.6812 33.7564 43.362 33.7564H32.7497C32.3507 33.7564 32.1113 33.4372 32.1113 33.118V32.0807C32.1113 31.6818 32.4305 31.4424 32.7497 31.4424H43.362C43.761 31.4424 44.0004 31.7616 44.0004 32.0807Z" fill="#343433"/>
<path d="M44.0004 32.72V33.1189C44.0004 33.5179 43.6812 33.7573 43.362 33.7573H32.7497C32.3507 33.7573 32.1113 33.4381 32.1113 33.1189V32.72C32.1113 32.321 32.4305 32.0816 32.7497 32.0816H43.362C43.761 32.0019 44.0004 32.321 44.0004 32.72Z" fill="#1D1D1B"/>
<path d="M50.6232 30.8047H49.6656V33.8368H50.6232V30.8047Z" fill="#343433"/>
<path d="M52.0594 30.8047H51.1019V33.8368H52.0594V30.8047Z" fill="#343433"/>
<path d="M53.4957 30.8047H52.5382V33.8368H53.4957V30.8047Z" fill="#343433"/>
<path d="M54.932 30.8047H53.9745V33.8368H54.932V30.8047Z" fill="#343433"/>
<path d="M56.3683 30.8047H55.4108V33.8368H56.3683V30.8047Z" fill="#343433"/>
<path d="M57.8044 30.8047H56.8469V33.8368H57.8044V30.8047Z" fill="#343433"/>
<path d="M59.2408 30.8047H58.2833V33.8368H59.2408V30.8047Z" fill="#343433"/>
<path opacity="0.5" d="M111.265 33.7568H85.9712V38.4646H111.265V33.7568Z" fill="#343433"/>
<path d="M111.265 40.6988H83.6572V39.4221C83.6572 38.3848 84.4551 37.5869 85.4924 37.5869H111.265V40.6988Z" fill="#1D1D1B"/>
<path d="M61.7942 20.5908H50.6233V28.0115H61.7942V20.5908Z" fill="#343433"/>
<path d="M80.7847 20.5908H58.2833V22.6654H80.7847V20.5908Z" fill="#343433"/>
<path d="M81.503 27.9317H83.418L80.705 20.5908H78.79L81.503 27.9317Z" fill="#343433"/>
<path d="M78.2314 20.6704L80.9444 21.1492L79.5879 17H78.2314V20.6704Z" fill="#343433"/>
<path d="M62.1134 19.9521H60.4377V20.8299H62.1134V19.9521Z" fill="#343433"/>
<path d="M64.3475 19.9521H62.6719V20.8299H64.3475V19.9521Z" fill="#343433"/>
<path d="M66.5818 19.9521H64.9061V20.8299H66.5818V19.9521Z" fill="#343433"/>
<path d="M68.8159 19.9521H67.1403V20.8299H68.8159V19.9521Z" fill="#343433"/>
<path d="M71.0502 19.9521H69.3745V20.8299H71.0502V19.9521Z" fill="#343433"/>
<path d="M73.2843 19.9521H71.6086V20.8299H73.2843V19.9521Z" fill="#343433"/>
<path d="M75.5184 19.9521H73.8428V20.8299H75.5184V19.9521Z" fill="#343433"/>
<path d="M77.7527 19.9521H76.077V20.8299H77.7527V19.9521Z" fill="#343433"/>
<path d="M54.9321 21.6279H50.6233V22.3461H54.9321V21.6279Z" fill="#686767"/>
<path d="M54.9321 23.1445H50.6233V23.8627H54.9321V23.1445Z" fill="#686767"/>
<path d="M54.9321 24.6602H50.6233V25.3783H54.9321V24.6602Z" fill="#686767"/>
<path d="M54.9321 26.1758H50.6233V26.8939H54.9321V26.1758Z" fill="#686767"/>
<path d="M53.4958 19.3936H50.6233V20.5904H54.4533L53.4958 19.3936Z" fill="#343433"/>
<path opacity="0.1" d="M10.8069 30.8047L11.2058 28.8896H45.7559L10.8069 30.8047Z" fill="white"/>
<path opacity="0.2" d="M31.5528 35.9111C29.0793 35.9111 26.7653 36.9484 24.8503 38.6241C22.4565 40.7785 18.8659 41.9753 14.1581 42.4541C12.4027 42.6137 10.4877 42.6935 8.49287 42.6935C8.41308 43.1722 8.25349 43.651 8.09391 44.1297C7.85453 44.9277 8.09391 45.6458 8.57267 46.2043C8.65246 46.2841 8.73225 46.3639 8.89183 46.4437C9.29079 46.6831 9.76955 46.8427 10.3281 46.7629L14.0783 46.2841L23.4938 45.0872C25.1695 44.8479 26.5259 43.651 26.9249 42.0551L27.0845 41.337C27.4834 39.821 28.8399 38.7039 30.4357 38.7039H56.9268C57.4853 39.1028 57.8045 39.7412 57.8843 40.3795C57.8843 40.8583 57.8045 41.337 57.4853 41.736L50.1445 55.6198L58.762 57.7742L59.0014 56.7369L58.3631 55.6996L61.1558 49.8748H62.6718L62.7516 49.3162L62.1133 47.9598L62.5123 47.0023L71.9277 46.8427C73.0448 46.8427 74.0023 45.8852 74.0023 44.7681V40.8583L85.8116 39.1826H100.493C102.089 39.1826 102.807 38.3847 103.127 37.507H111.106V35.9111H31.5528ZM72.965 43.0126V44.9277C72.965 45.6458 72.4065 46.2043 71.6884 46.2043H64.906C64.0283 46.2043 63.39 45.3266 63.7889 44.4489L64.5869 42.6137C64.7464 42.1349 65.2252 41.8158 65.7837 41.8158H71.848C72.4065 41.8158 72.965 42.3743 72.965 43.0126Z" fill="#1D1D1B"/>
<defs>
<linearGradient id="paint0_linear" x1="-9.69095" y1="-2.49748" x2="79.6624" y2="128.716" gradientUnits="userSpaceOnUse">
<stop stop-color="#969699"/>
<stop offset="0.2788" stop-color="#B7ADAE"/>
<stop offset="1" stop-color="#E5E5E5"/>
</linearGradient>
<linearGradient id="paint1_linear" x1="65.0031" y1="1.41113" x2="65.0031" y2="80.5881" gradientUnits="userSpaceOnUse">
<stop stop-color="#F1E6E1"/>
<stop offset="1" stop-color="#CDC6C5"/>
</linearGradient>
</defs>
</svg>
