<svg width="130" height="82" viewBox="0 0 130 82" fill="none" xmlns="http://www.w3.org/2000/svg">
<path d="M128 0H2C0.895431 0 0 0.895429 0 2V80C0 81.1046 0.89543 82 2 82H128C129.105 82 130 81.1046 130 80V2C130 0.89543 129.105 0 128 0Z" fill="url(#paint0_linear)"/>
<path d="M125.768 1.41113H4.23828C3.13371 1.41113 2.23828 2.30656 2.23828 3.41113V78.5881C2.23828 79.6927 3.13371 80.5881 4.23828 80.5881H125.768C126.873 80.5881 127.768 79.6927 127.768 78.5881V3.41113C127.768 2.30656 126.872 1.41113 125.768 1.41113Z" fill="url(#paint1_linear)"/>
<path d="M40.3312 41.9186V40.3682H48.9921V41.9186C48.9921 43.2551 47.9763 44.3244 46.7467 44.3244H42.5766C41.347 44.3244 40.3312 43.2551 40.3312 41.9186ZM40.7589 40.7424V41.9186C40.7589 43.0413 41.5608 43.9502 42.5766 43.9502H46.7467C47.7625 43.9502 48.5644 43.0413 48.5644 41.9186V40.7424H40.7589Z" fill="#575756"/>
<path d="M6.43595 38.0165H26.3775L29.7991 39.7273C30.5475 40.1016 31.3495 40.2085 32.1514 40.0481L46.8001 36.9473V40.9035C41.8281 40.7966 37.3373 41.9727 33.2741 45.5013C32.3653 46.3032 31.1356 46.624 29.9595 46.3567L28.6229 46.0359C28.0883 45.929 27.5536 45.8755 27.019 45.9824L6.86365 48.7625C6.59633 48.8159 6.32902 48.5486 6.38248 48.2813C6.86365 45.1805 6.70326 41.9193 6.00825 38.4977C5.95478 38.2304 6.16863 38.0165 6.43595 38.0165Z" fill="#7D4E24"/>
<path opacity="0.1" d="M7.07748 41.1707C6.97056 40.3153 6.86363 39.4599 6.70325 38.6045H25.2013C8.46751 39.246 8.2002 38.6045 7.07748 41.1707Z" fill="white"/>
<path d="M32.5256 41.0106L41.5074 39.0859C41.5074 39.4602 41.5608 39.8879 41.7747 40.2621C38.2996 40.9037 35.3592 42.4006 32.6326 44.753C32.5791 44.753 31.6702 45.5549 30.9218 44.646C29.8525 43.3095 30.2802 41.5452 32.5256 41.0106Z" fill="#CA9E67"/>
<path d="M45.2497 43.4163H45.8913C44.7686 42.6143 44.1805 41.652 44.3943 40.5293H43.2716C43.3251 41.652 43.9132 42.6143 45.2497 43.4163Z" fill="#575756"/>
<path d="M42.3092 38.1767H44.3943L44.4477 35.6105L43.0577 36.1451L41.6677 34.167L41.2935 34.4343C42.2023 35.5036 42.5231 36.7867 42.3092 38.1767Z" fill="#575756"/>
<path d="M52.1464 40.2621H71.874C74.1194 40.2621 75.9372 38.4444 75.9372 36.199V36.1455H52.1464V40.2621Z" fill="#7D4E24"/>
<path d="M43.7528 37.4283H124V34.8086H46.319C44.8755 34.8086 43.7528 35.9848 43.7528 37.4283Z" fill="#3C3C3B"/>
<path d="M42.4696 40.1016C42.6835 40.5293 43.0042 40.8501 43.4854 41.0105C43.5389 41.0105 43.6458 41.0639 43.6992 41.0639L46.8001 40.8501L57.1183 40.2085V38.7116V37.375H43.6458C42.3627 37.6958 42.0419 39.1393 42.4696 40.1016Z" fill="#878787"/>
<path d="M56.3699 39.4599V38.1768H43.8062C43.1112 38.3906 43.0577 39.0856 43.0577 39.246C43.0577 39.6202 43.2716 40.1014 43.7527 40.2083L56.3699 39.4599Z" fill="#DADADA"/>
<path d="M121.541 34.3275C121.273 34.7017 121.327 35.1829 121.701 35.4502C122.075 35.7175 122.557 35.664 122.824 35.2898C123.091 34.9155 123.038 34.4344 122.663 34.1671C122.343 33.8998 121.808 33.9532 121.541 34.3275Z" fill="#3C3C3B"/>
<path opacity="0.1" d="M6.86365 48.7625L27.0725 45.9824C27.6071 45.929 28.1417 45.929 28.6764 46.0359L30.0129 46.3567C31.1891 46.624 32.4187 46.3032 33.3276 45.5013C36.4819 42.7747 39.85 41.4381 43.5389 41.0104C43.0578 40.85 42.737 40.5293 42.5231 40.1016H42.4697C31.1356 43.042 18.2512 46.9448 6.6498 45.234C6.6498 46.2498 6.54288 47.2655 6.38249 48.2813C6.32903 48.5486 6.59634 48.816 6.86365 48.7625Z" fill="#1D1D1B"/>
<path opacity="0.1" d="M57.1719 40.2618H71.8741C73.4779 40.2618 74.868 39.3529 75.563 37.9629C69.3613 38.6044 63.3201 38.8183 57.1719 38.7114V40.2618Z" fill="#1D1D1B"/>
<path opacity="0.15" d="M44.5547 36.0917H123.572V35.2363H46.4793C45.8378 35.2363 45.1428 35.4502 44.7151 35.9313C44.6616 35.9848 44.6082 36.0383 44.5547 36.0917Z" fill="white"/>
<defs>
<linearGradient id="paint0_linear" x1="-9.69095" y1="-2.49748" x2="79.6624" y2="128.716" gradientUnits="userSpaceOnUse">
<stop stop-color="#969699"/>
<stop offset="0.2788" stop-color="#B7ADAE"/>
<stop offset="1" stop-color="#E5E5E5"/>
</linearGradient>
<linearGradient id="paint1_linear" x1="65.0031" y1="1.41113" x2="65.0031" y2="80.5881" gradientUnits="userSpaceOnUse">
<stop stop-color="#F1E6E1"/>
<stop offset="1" stop-color="#CDC6C5"/>
</linearGradient>
</defs>
</svg>
