<svg width="130" height="82" viewBox="0 0 130 82" fill="none" xmlns="http://www.w3.org/2000/svg">
<path d="M128 0H2C0.895431 0 0 0.895429 0 2V80C0 81.1046 0.89543 82 2 82H128C129.105 82 130 81.1046 130 80V2C130 0.89543 129.105 0 128 0Z" fill="url(#paint0_linear)"/>
<path d="M125.768 1.41113H4.23828C3.13371 1.41113 2.23828 2.30656 2.23828 3.41113V78.5881C2.23828 79.6927 3.13371 80.5881 4.23828 80.5881H125.768C126.873 80.5881 127.768 79.6927 127.768 78.5881V3.41113C127.768 2.30656 126.872 1.41113 125.768 1.41113Z" fill="url(#paint1_linear)"/>
<path d="M101.331 29.1154L101.85 28.2715H102.889V30.2189L102.564 30.154C102.305 30.0891 102.11 29.8294 102.11 29.5698V29.1154H101.331Z" fill="#3C3C3B"/>
<path d="M65.4327 32.6221H63.6151V36.9714H65.4327V32.6221Z" fill="#3C3C3B"/>
<path d="M121 33.9199H62.8362V35.6726H121V33.9199Z" fill="#3C3C3B"/>
<path d="M66.2766 51.3824C64.2642 52.6807 62.2519 53.979 60.3044 55.2773C57.6429 51.1877 55.8902 46.6436 55.1112 41.9048C57.4481 41.5153 59.7851 41.1258 62.1869 40.7363C62.7712 44.5663 64.1993 48.2016 66.2766 51.3824Z" fill="#3C3C3B"/>
<path opacity="0.3" d="M61.8623 54.3039C61.6676 54.4338 61.4079 54.5636 61.2132 54.7583C58.6815 50.7985 56.9288 46.3843 56.1498 41.7753C56.4094 41.7104 56.6691 41.7104 56.9288 41.6455C57.6428 46.1246 59.3306 50.474 61.8623 54.3039Z" fill="#1D1D1B"/>
<path opacity="0.3" d="M63.6151 53.1353C63.4204 53.2651 63.1607 53.395 62.966 53.5897C60.5641 49.8896 58.9412 45.735 58.2272 41.3857C58.4868 41.3208 58.7465 41.3208 59.0062 41.2559C59.6553 45.4753 61.2782 49.565 63.6151 53.1353Z" fill="#1D1D1B"/>
<path opacity="0.3" d="M65.3678 52.0317C65.1731 52.1615 64.9134 52.2913 64.7187 52.4861C62.4466 49.0456 60.9536 45.1507 60.3044 41.1259C60.5641 41.061 60.8238 41.061 61.0834 40.9961C61.7326 44.891 63.1607 48.6561 65.3678 52.0317Z" fill="#1D1D1B"/>
<path d="M50.697 40.4768C50.762 40.3469 51.0865 40.2171 51.0216 40.0873C50.9567 39.8925 50.4374 39.7627 50.2426 39.7627C49.983 40.4118 49.1391 42.1646 50.9567 43.5927C51.2813 43.333 49.9181 42.554 50.697 40.4768Z" fill="#3C3C3B"/>
<path d="M45.0494 28.4668H43.4265V29.4405H45.0494V28.4668Z" fill="#3C3C3B"/>
<path d="M46.6723 26.585H46.153V28.1429H46.6723V26.585Z" fill="#3C3C3B"/>
<path d="M46.9321 27.1035H44.3354V29.765H46.9321V27.1035Z" fill="#3C3C3B"/>
<path d="M63.7449 38.9188V31.3887L63.5502 30.0904C63.4204 28.9219 62.4466 28.0131 61.3431 27.9482L48.3601 26.585H46.4126C46.4126 26.9095 46.4126 27.0394 46.4126 27.2341C46.4126 28.2078 45.6336 29.0517 44.595 29.0517C44.1406 29.0517 44.595 29.0517 43.2318 29.0517L42.5177 31.4536L41.3492 32.8168V38.5293C42.1931 38.2697 42.8423 38.3995 43.3616 38.7241C43.7511 38.9837 44.0108 39.4381 44.0108 39.8925C44.0108 40.2171 43.9458 40.5417 43.7511 40.8663L38.6228 50.6684L44.7248 52.1615L44.8547 51.4474L44.4002 50.6684L46.3477 46.5788H47.3863L47.4513 46.1893L46.9968 45.2156L47.2565 44.5015H54.9165L63.0958 42.9436V42.4242L62.7063 42.0997C62.7063 40.5417 62.7063 41.061 62.7063 39.7627L63.7449 38.9188ZM54.6568 42.9436C54.6568 43.398 54.2673 43.8524 53.748 43.8524H48.9443C48.2951 43.8524 47.9057 43.2032 48.1004 42.619L48.6197 41.3207C48.7496 40.9961 49.0741 40.8014 49.4636 40.7364H53.6831C54.1375 40.7364 54.5919 41.1259 54.5919 41.6453V42.9436H54.6568ZM61.5378 31.3887H48.8145C47.9706 31.3887 47.3863 30.4799 47.7109 29.7009L47.9057 29.3114C48.3601 28.2728 49.3987 27.6885 50.5023 27.7534L61.408 28.4675C62.187 28.5324 62.7712 29.1816 62.7712 29.9605V30.0904C62.8361 30.8044 62.2519 31.3887 61.5378 31.3887Z" fill="#575756"/>
<path d="M46.9319 44.0459L43.4914 42.9424L39.6614 50.2129L44.2054 51.3164L43.8159 50.7322L46.9319 44.0459Z" fill="#3C3C3B"/>
<path d="M41.4142 38.4645L11.748 45.3455C11.0988 45.4753 10.5146 45.0209 10.4497 44.3717C9.34612 41.2558 8.89172 37.7504 9.02155 33.8555C8.95664 33.2713 9.47595 32.752 10.0602 32.752H41.4142V38.4645Z" fill="#3C3C3B"/>
<path opacity="0.25" d="M10.0602 33.335H40.83V34.3087C40.83 34.3087 9.93039 33.335 10.0602 33.335Z" fill="white"/>
<path d="M61.8625 33.7906C61.8625 34.3748 61.4081 34.8292 60.8239 34.8292H41.7388C41.1546 34.8292 40.7002 34.3748 40.7002 33.7906C40.7002 33.2064 41.1546 32.752 41.7388 32.752H60.7589C61.3432 32.752 61.8625 33.2064 61.8625 33.7906Z" fill="#3C3C3B"/>
<path d="M63.7449 36.6461H52.5146C52.2549 36.6461 52.0602 36.4514 52.0602 36.1917C52.0602 35.9321 52.2549 35.7373 52.5146 35.7373H63.7449V36.6461Z" fill="#3C3C3B"/>
<path d="M55.4358 39.3073C55.241 39.3073 55.0463 39.1126 55.0463 38.9178V36.1914H55.8252V38.9178C55.8252 39.1775 55.6305 39.3073 55.4358 39.3073Z" fill="#3C3C3B"/>
<path d="M54.2024 37.7492C54.2024 38.1387 53.8779 38.4633 53.4884 38.4633C53.0989 38.4633 52.7743 38.1387 52.7743 37.7492C52.7743 37.3597 53.0989 37.0352 53.4884 37.0352C53.8779 37.0352 54.2024 37.3597 54.2024 37.7492Z" fill="#3C3C3B"/>
<path d="M47.0618 36.6458C47.0618 36.9703 46.8021 37.23 46.4775 37.23C46.153 37.23 45.8933 36.9703 45.8933 36.6458C45.8933 36.3212 46.153 36.0615 46.4775 36.0615C46.7372 36.0615 47.0618 36.3212 47.0618 36.6458Z" fill="#3C3C3B"/>
<path d="M45.0494 34.8281H42.5826V36.1913H45.0494V34.8281Z" fill="#3C3C3B"/>
<path d="M55.8253 38.7236V38.9833C55.8253 39.5026 55.3709 39.957 54.8516 39.957H44.0757C44.0107 39.5026 43.816 39.0482 43.4265 38.7885H55.8253V38.7236Z" fill="#3C3C3B"/>
<path d="M44.3354 30.8691H41.4142V32.2973H44.3354V30.8691Z" fill="#3C3C3B"/>
<path d="M45.8933 27.2334C45.8933 27.8825 45.374 28.4668 44.6599 28.4668C44.0107 28.4668 43.4265 27.9475 43.4265 27.2334C43.4265 26.5842 43.9458 26 44.6599 26C45.309 26 45.8933 26.5193 45.8933 27.2334Z" fill="#575756"/>
<path d="M44.6598 28.0121C45.0901 28.0121 45.4388 27.6633 45.4388 27.2331C45.4388 26.8029 45.0901 26.4541 44.6598 26.4541C44.2296 26.4541 43.8809 26.8029 43.8809 27.2331C43.8809 27.6633 44.2296 28.0121 44.6598 28.0121Z" fill="#3C3C3B"/>
<path d="M67.0556 32.0371H64.5239V37.6198H67.0556V32.0371Z" fill="#575756"/>
<path d="M97.8902 32.8815V36.7764C97.8902 37.2308 97.5656 37.5553 97.1112 37.6203H96.6568H96.2024L95.0339 37.6852H94.5795H93.4111H92.9567H91.7882H91.3338H90.1653H89.7109H88.5424H88.088L86.9196 37.7501H86.4652H85.2967H84.8423L83.6738 37.815H83.2194H82.0509H81.5965H80.4281H79.9737H78.8052H78.3508H77.1823H76.7279L75.5594 37.8799H75.105H73.9366H73.4822L72.3137 37.9448H71.8593H70.6908H70.2364H69.0679H68.6135H67.4451H66.9906H66.731C66.2766 37.9448 65.8871 37.6202 65.8871 37.1658V31.5832C65.8871 31.1288 66.2766 30.7393 66.731 30.7393H66.9906H67.4451H68.6135H69.0679H70.2364H70.6908H71.8593H72.3137L73.4822 30.8042H73.9366H75.105H75.5594L76.7279 30.8691H77.1823H78.3508H78.8052H79.9737H80.4281H81.5965H82.0509H83.2194H83.6738L84.8423 30.934H85.2967H86.4652H86.9196L88.088 30.9989H88.5424H89.7109H90.1653H91.3338H91.7882H92.9567H93.4111H94.5795H95.0339L96.2024 31.0638H96.6568H97.1112C97.5656 32.1025 97.8902 32.4271 97.8902 32.8815Z" fill="#3C3C3B"/>
<path d="M120.481 36.062H115.742C115.482 36.062 115.287 35.8673 115.287 35.6076V34.1146C115.287 33.8549 115.482 33.6602 115.742 33.6602H120.481C120.74 33.6602 120.935 33.8549 120.935 34.1146V35.6076C121 35.8024 120.74 36.062 120.481 36.062Z" fill="#575756"/>
<path d="M120.481 34.244C120.481 34.3739 120.351 34.5037 120.221 34.5037H116.131C116.002 34.5037 115.872 34.3739 115.872 34.244C115.872 34.1142 116.002 33.9844 116.131 33.9844H120.221C120.351 33.9844 120.481 34.1142 120.481 34.244Z" fill="#3C3C3B"/>
<path d="M120.481 35.3476C120.481 35.4774 120.351 35.6072 120.221 35.6072H116.131C116.002 35.6072 115.872 35.4774 115.872 35.3476C115.872 35.2177 116.002 35.0879 116.131 35.0879H120.221C120.351 35.0879 120.481 35.2177 120.481 35.3476Z" fill="#3C3C3B"/>
<path d="M96.2024 32.0373V34.3742H95.0339V31.9723H94.5795V34.3742H93.4759V31.9723H93.0215V34.3742H91.8531V31.9074H91.3987V34.3742H90.2302V31.8425H89.7758V34.3742H88.6722V31.8425L88.1529 31.7776V34.3742H87.0494V31.7776H86.5949V34.3742H85.4265V31.7127H84.9721V34.3742H83.8036V31.7127L83.3492 31.6478V34.3742H82.2456V31.6478H81.7912V34.3742H80.6228V31.5829H80.1684V34.3742H78.9999V31.5179H78.5455V34.3742H77.4419V31.5179H76.9875V34.3742H75.819V31.453H75.3646V34.3742H74.1962V31.3881H73.7418V34.3742H72.6382V31.3881H72.1189V34.3742H71.0153V31.3232H70.5609V34.3742H69.3925V31.2583H68.9381V34.3742H67.7696V31.2583L67.3152 31.1934V38.3989H67.7696V35.2181H68.9381V38.334H69.3925V35.2181H70.5609V38.2691H71.0153V35.2181H72.1189V38.2691H72.6382V35.2181H73.7418V38.2042H74.1962V35.2181H75.3646V38.1393H75.819V35.2181H76.9875V38.1393L77.4419 38.0744V35.2181H78.5455V38.0744H78.9999V35.2181H80.1684V38.0094H80.6228V35.2181H81.7912V38.0094L82.2456 37.9445V35.2181H83.3492V37.9445H83.8036V35.2181H84.9721V37.8796H85.4265V35.2181H86.5949V37.8796L87.0494 37.8147V35.2181H88.1529V37.8147H88.6722V35.2181H89.7758V37.7498H90.2302V35.2181H91.3987V37.6849H91.8531V35.2181H93.0215V37.6849H93.4759V35.2181H94.5795V37.62H95.0339V35.2181H96.2024V37.555H96.6568V35.2181V34.3742V32.0373H96.2024Z" fill="#1D1D1B"/>
<path d="M101.72 27.9473L97.8903 32.8159V33.9195H103.278V27.9473H101.72ZM102.629 33.3352H98.5394V33.0756L102.045 28.5964H102.694V33.3352H102.629Z" fill="#3C3C3B"/>
<path d="M102.629 31.5176H99.0587L98.5394 32.9457H102.629V31.5176Z" fill="#3C3C3B"/>
<path opacity="0.25" d="M62.187 39.8926L61.6677 41.9699L55.8253 43.5278L62.187 42.3593V39.8926Z" fill="white"/>
<path opacity="0.25" d="M56.734 37.49L56.1498 38.2041V36.9707H63.0308L56.734 37.49Z" fill="white"/>
<path opacity="0.25" d="M48.1003 40.7363H44.6598L39.6614 50.2139L44.6598 41.6451L48.1003 40.7363Z" fill="white"/>
<path opacity="0.25" d="M97.241 32.7516C97.241 32.7516 97.1761 32.6867 97.1112 32.6867L95.0339 32.6218L91.853 32.5568H91.3986L88.6722 32.4919L87.0493 32.427L85.4264 32.3621L83.8036 32.2972L80.6227 32.2323H80.1683L77.4419 32.1673L75.819 32.1024L74.1961 32.0375L72.5733 31.9726L69.3924 31.9077H68.938L67.1204 31.8428C66.9906 31.8428 66.9257 31.9077 66.9257 32.0375V32.7516H97.241Z" fill="white"/>
<defs>
<linearGradient id="paint0_linear" x1="-9.69095" y1="-2.49748" x2="79.6624" y2="128.716" gradientUnits="userSpaceOnUse">
<stop stop-color="#969699"/>
<stop offset="0.2788" stop-color="#B7ADAE"/>
<stop offset="1" stop-color="#E5E5E5"/>
</linearGradient>
<linearGradient id="paint1_linear" x1="65.0031" y1="1.41113" x2="65.0031" y2="80.5881" gradientUnits="userSpaceOnUse">
<stop stop-color="#F1E6E1"/>
<stop offset="1" stop-color="#CDC6C5"/>
</linearGradient>
</defs>
</svg>
