<svg width="130" height="82" viewBox="0 0 130 82" fill="none" xmlns="http://www.w3.org/2000/svg">
<path d="M128 0H2C0.895431 0 0 0.895429 0 2V80C0 81.1046 0.89543 82 2 82H128C129.105 82 130 81.1046 130 80V2C130 0.89543 129.105 0 128 0Z" fill="url(#paint0_linear)"/>
<path d="M125.768 1.41113H4.23828C3.13371 1.41113 2.23828 2.30656 2.23828 3.41113V78.5881C2.23828 79.6927 3.13371 80.5881 4.23828 80.5881H125.768C126.873 80.5881 127.768 79.6927 127.768 78.5881V3.41113C127.768 2.30656 126.872 1.41113 125.768 1.41113Z" fill="url(#paint1_linear)"/>
<path d="M84.6052 56.9393L81.8121 56.4314L67.4908 39.2154L61.1935 35.8636C60.5841 35.5589 59.8223 35.7621 59.5176 36.3715C59.2129 36.9809 59.416 37.7427 60.0255 38.0474L65.9165 41.196L81.2027 58.1073H85.5702L84.6052 56.9393ZM75.0069 49.7278C74.753 49.931 74.3975 49.931 74.1944 49.677L67.2369 41.6531C67.0337 41.3992 67.0337 41.0437 67.2877 40.8405C67.5416 40.6374 67.8971 40.6374 68.1002 40.8913L75.0577 48.9153C75.2609 49.1692 75.2609 49.5247 75.0069 49.7278Z" fill="#575756"/>
<path d="M121.983 30.8359H120.256V32.8673H121.983V30.8359Z" fill="#3C3C3B"/>
<path d="M11.2491 33.829L11.24 35.4541L31.2999 35.5662L31.309 33.9411L11.2491 33.829Z" fill="#686767"/>
<path d="M9.85021 40.7393C9.13923 40.6377 8.83452 39.9775 9.08844 39.2158C10.0026 36.1687 10.3581 33.02 10.2565 29.8206C10.2057 29.008 10.7643 28.5002 11.5769 28.6017C11.5769 28.6017 11.5769 28.6017 11.6277 28.6017C12.3894 28.7033 13.1004 29.4651 13.1004 30.2269C13.1512 33.3755 12.6434 36.5242 11.6277 39.5204C11.323 40.2822 10.5104 40.8409 9.85021 40.7393Z" fill="#343433"/>
<path d="M76.632 34.3916H75.3116V36.4738H76.632V34.3916Z" fill="#575756"/>
<path d="M33.4143 37.8956C33.4651 37.7432 33.7698 37.6924 33.719 37.5401C33.6682 37.3877 33.2111 37.2861 33.0588 37.2354C32.8556 37.794 32.1447 39.2667 33.6174 40.4348C33.9221 40.2317 32.8049 39.6222 33.4143 37.8956Z" fill="#3C3C3B"/>
<path d="M42.5555 28.6533H40.9812V29.5675H42.5555V28.6533Z" fill="#3C3C3B"/>
<path d="M44.0791 26.8252H43.622V28.298H44.0791V26.8252Z" fill="#3C3C3B"/>
<path d="M44.2822 27.2822H41.8445V29.8215H44.2822V27.2822Z" fill="#3C3C3B"/>
<path d="M44.2823 36.5754V33.3252H26.5584C26.1014 33.3252 25.7459 33.6807 25.7459 34.1378V35.3058C25.7459 35.7629 26.1014 36.1184 26.5584 36.1184C26.8631 36.1184 27.1679 36.2707 27.371 36.4231C27.7265 36.677 27.9296 37.0325 27.9296 37.388C27.9296 37.6419 27.8788 37.9466 27.7265 38.2005L23.4606 46.3261L28.539 47.5449L28.6914 46.9863L28.3359 46.3768L29.9102 42.9235H30.7736L30.8243 42.568L30.4181 41.7555L30.672 41.1968H37.0201L39.4577 38.1497C39.4577 36.8293 43.3682 38.3021 43.3682 37.2356L44.2823 36.5754ZM36.7154 39.978C36.7154 40.3843 36.4107 40.689 36.0044 40.689H32.0432C31.5353 40.689 31.1798 40.1811 31.383 39.6733L31.84 38.6068C31.9416 38.3529 32.1955 38.1497 32.5002 38.1497H36.0044C36.4107 38.1497 36.7154 38.4544 36.7154 38.8607V39.978Z" fill="#3C3C3B"/>
<path d="M30.2657 40.8419L27.4725 39.9277L24.2223 45.9711L28.0311 46.8852L27.7264 46.3774L30.2657 40.8419Z" fill="#575756"/>
<path d="M43.3173 27.4337C43.3173 28.0939 42.8094 28.6017 42.1492 28.6017C41.489 28.6017 40.9812 28.0939 40.9812 27.4337C40.9812 26.7735 41.489 26.2656 42.1492 26.2656C42.7587 26.2656 43.3173 26.7735 43.3173 27.4337Z" fill="#575756"/>
<path d="M42.8603 27.4336C42.8603 27.8399 42.5556 28.1446 42.1493 28.1446C41.743 28.1446 41.4383 27.8399 41.4383 27.4336C41.4383 27.0273 41.743 26.7226 42.1493 26.7226C42.5556 26.6718 42.8603 27.0273 42.8603 27.4336Z" fill="#3C3C3B"/>
<path opacity="0.25" d="M31.2814 38.0996H28.3866L24.2223 45.9712L28.3866 38.8614L31.2814 38.0996Z" fill="white"/>
<path d="M121.069 30.3789H62.7171V33.3244H121.069V30.3789Z" fill="#575756"/>
<path d="M75.5656 29.4658H30.2656V36.7788H75.5656V29.4658Z" fill="#3C3C3B"/>
<path d="M64.0882 28.0439H43.6728V30.8371H64.0882V28.0439Z" fill="#575756"/>
<path d="M73.7881 35.4082H33.8714V38.2014H73.7881V35.4082Z" fill="#575756"/>
<path d="M58.6035 27.1299H51.2905V28.044H58.6035V27.1299Z" fill="#3C3C3B"/>
<path d="M31.9924 30.0742H28.539V33.426H31.9924V30.0742Z" fill="#575756"/>
<path d="M79.476 29.4658H78.1556V34.1888H79.476V29.4658Z" fill="#3C3C3B"/>
<path d="M118.529 34.6459H80.9487C80.4917 34.6459 80.0854 34.2396 80.0854 33.7825V29.8721C80.0854 29.4151 80.4917 29.0088 80.9487 29.0088H118.529C118.986 29.0088 119.393 29.4151 119.393 29.8721V33.7825C119.393 34.2904 118.986 34.6459 118.529 34.6459Z" fill="#3C3C3B"/>
<path d="M77.5969 29.4658H76.2766V36.7788H77.5969V29.4658Z" fill="#3C3C3B"/>
<path d="M77.6477 22L76.2766 29.5669H79.476V22H77.6477ZM78.5619 28.6528H77.3938L78.4095 22.9649H78.5619V28.6528Z" fill="#3C3C3B"/>
<path opacity="0.3" d="M58.6543 31.5978H49.2083C48.802 31.5978 48.4465 31.2423 48.4465 30.836C48.4465 30.4297 48.802 30.0742 49.2083 30.0742H58.6543C59.0605 30.0742 59.416 30.4297 59.416 30.836C59.416 31.2423 59.0605 31.5978 58.6543 31.5978Z" fill="#1D1D1B"/>
<path d="M73.9405 33.9854C73.9405 34.1377 73.8389 34.2393 73.6866 34.2393H33.4143C33.262 34.2393 33.1604 34.1377 33.1604 33.9854C33.1604 33.833 33.262 33.7314 33.4143 33.7314H73.6866C73.8389 33.7822 73.9405 33.8838 73.9405 33.9854Z" fill="#1D1D1B"/>
<path d="M73.7881 32.7656C73.7881 32.9688 73.6358 33.1719 73.3818 33.1719H70.2332C70.03 33.1719 69.8269 33.0196 69.8269 32.7656C69.8269 32.5625 69.9793 32.3594 70.2332 32.3594H73.3818C73.6358 32.3594 73.7881 32.5625 73.7881 32.7656Z" fill="#1D1D1B"/>
<path d="M73.7881 31.5977C73.7881 31.8008 73.6358 32.004 73.3818 32.004H70.2332C70.03 32.004 69.8269 31.8516 69.8269 31.5977C69.8269 31.3946 69.9793 31.1914 70.2332 31.1914H73.3818C73.6358 31.1914 73.7881 31.3946 73.7881 31.5977Z" fill="#1D1D1B"/>
<path d="M73.7881 30.4297C73.7881 30.6328 73.6358 30.836 73.3818 30.836H70.2332C70.03 30.836 69.8269 30.6836 69.8269 30.4297C69.8269 30.2266 69.9793 30.0234 70.2332 30.0234H73.3818C73.6358 30.0742 73.7881 30.2266 73.7881 30.4297Z" fill="#1D1D1B"/>
<path d="M73.7881 36.8291V38.2003H43.7744C43.8759 37.9464 44.0791 37.6924 44.2822 37.4893C44.6885 37.083 45.2979 36.7783 45.9581 36.7783H73.7881V36.8291Z" fill="#3C3C3B"/>
<path d="M67.0845 37.54H58.2987V39.4699H67.0845V37.54Z" fill="#3C3C3B"/>
<path d="M57.6894 32.0039H50.0717V33.3243H57.6894V32.0039Z" fill="#1D1D1B"/>
<path d="M40.8289 32.3594H33.2112V33.3243H40.8289V32.3594Z" fill="#1D1D1B"/>
<path d="M38.0865 30.8359H33.2112V31.8008H38.0865V30.8359Z" fill="#1D1D1B"/>
<path d="M85.1131 32.8673H81.7613C81.5074 32.8673 81.3043 32.6642 81.3043 32.4103V31.2422C81.3043 30.9883 81.5074 30.7852 81.7613 30.7852H85.1131C85.367 30.7852 85.5702 30.9883 85.5702 31.2422V32.4103C85.5702 32.715 85.367 32.8673 85.1131 32.8673Z" fill="#1D1D1B"/>
<path d="M90.5979 32.8673H87.2461C86.9921 32.8673 86.789 32.6642 86.789 32.4103V31.2422C86.789 30.9883 86.9921 30.7852 87.2461 30.7852H90.5979C90.8518 30.7852 91.0549 30.9883 91.0549 31.2422V32.4103C91.0041 32.715 90.801 32.8673 90.5979 32.8673Z" fill="#1D1D1B"/>
<path d="M96.0318 32.8673H92.68C92.426 32.8673 92.2229 32.6642 92.2229 32.4103V31.2422C92.2229 30.9883 92.426 30.7852 92.68 30.7852H96.0318C96.2857 30.7852 96.4888 30.9883 96.4888 31.2422V32.4103C96.4888 32.715 96.2857 32.8673 96.0318 32.8673Z" fill="#1D1D1B"/>
<path d="M101.516 32.8673H98.1647C97.9108 32.8673 97.7076 32.6642 97.7076 32.4103V31.2422C97.7076 30.9883 97.9108 30.7852 98.1647 30.7852H101.516C101.77 30.7852 101.974 30.9883 101.974 31.2422V32.4103C101.923 32.715 101.72 32.8673 101.516 32.8673Z" fill="#1D1D1B"/>
<path d="M106.95 32.8673H103.599C103.345 32.8673 103.142 32.6642 103.142 32.4103V31.2422C103.142 30.9883 103.345 30.7852 103.599 30.7852H106.95C107.204 30.7852 107.408 30.9883 107.408 31.2422V32.4103C107.408 32.715 107.204 32.8673 106.95 32.8673Z" fill="#1D1D1B"/>
<path d="M112.385 32.8673H109.033C108.779 32.8673 108.576 32.6642 108.576 32.4103V31.2422C108.576 30.9883 108.779 30.7852 109.033 30.7852H112.385C112.638 30.7852 112.842 30.9883 112.842 31.2422V32.4103C112.842 32.715 112.638 32.8673 112.385 32.8673Z" fill="#1D1D1B"/>
<path d="M117.869 32.8673H114.517C114.264 32.8673 114.06 32.6642 114.06 32.4103V31.2422C114.06 30.9883 114.264 30.7852 114.517 30.7852H117.869C118.123 30.7852 118.326 30.9883 118.326 31.2422V32.4103C118.326 32.715 118.123 32.8673 117.869 32.8673Z" fill="#1D1D1B"/>
<path d="M46.3136 59.733L54.8454 45.7672L63.428 39.5715C63.9867 39.1652 64.0882 38.4034 63.682 37.8448C63.2757 37.2862 62.5139 37.1846 61.9553 37.5909L52.9664 44.0913L45.6534 58.0571L43.1142 58.6157L42.454 59.733H46.3136Z" fill="#3C3C3B"/>
<defs>
<linearGradient id="paint0_linear" x1="-9.69095" y1="-2.49748" x2="79.6624" y2="128.716" gradientUnits="userSpaceOnUse">
<stop stop-color="#969699"/>
<stop offset="0.2788" stop-color="#B7ADAE"/>
<stop offset="1" stop-color="#E5E5E5"/>
</linearGradient>
<linearGradient id="paint1_linear" x1="65.0031" y1="1.41113" x2="65.0031" y2="80.5881" gradientUnits="userSpaceOnUse">
<stop stop-color="#F1E6E1"/>
<stop offset="1" stop-color="#CDC6C5"/>
</linearGradient>
</defs>
</svg>
