<svg height="512" viewBox="0 0 60 61" width="512" xmlns="http://www.w3.org/2000/svg"><g id="023---Alien" fill="none"><g id="Icons" transform="translate(0 2)"><path id="Shape" d="m55 32.48c-3.8-3.1-5.57-7.61-5.57-10.48 0-3.22 4-6.38 4-11 0-4.16-2.35-5.34-2.89-9.21-.0730391-.67457802-.4831139-1.26611815-1.089191-1.57117692-.606077-.30505877-1.3254869-.28202597-1.910809.06117692-.6843538.39023679-1.0758708 1.14586445-1 1.93.61 4.67 2.87 6 2.87 8.79 0 3.21-4 6.36-4 11-.0352821 1.6865479.1666941 3.3696827.6 5 .1038936.2849426.0331943.6042744-.1812656.8187344-.21446.2144599-.5337918.2851592-.8187344.1812656-9.55-4.16-15-9-15-19.94 0 10.87-5.37 15.75-15 19.94-.2849426.1038936-.6042744.0331943-.8187344-.1812656-.2144599-.21446-.2851592-.5337918-.1812656-.8187344.4333059-1.6303173.6352821-3.3134521.6-5 0-2.53-1.2-4.64-2.26-6.49-2-3.4-2.38-4.59-.68-7.91.9135268-1.62902011 1.5202484-3.41190049 1.79-5.26.1086624-.82486597-.2846699-1.63513038-1-2.06-.5823893-.34244603-1.2983017-.36771867-1.9033888-.06719212-.60508698.30052656-1.0175501.88622575-1.0966112 1.55719212-.52 3.86-2.9 5.07-2.9 9.23 0 4.55 4 7.81 4 11 0 2.9-1.8 7.4-5.57 10.48-2.62909824 2.028012-4.11549994 5.2019825-3.99 8.52 0 10.69 12.28 16.66 27.66 17h2.68c15.38-.34 27.66-6.31 27.66-17 .1231415-3.3197927-1.3671448-6.4941024-4-8.52z" fill="#9d27b0"/><path id="Shape" d="m59 41c0 10.69-12.28 16.66-27.66 17-.73 0-2.64 0-2.84 0 15.31-.38 27.5-6.35 27.5-17 .1231415-3.3197927-1.3671448-6.4941024-4-8.52-3.8-3.1-5.57-7.61-5.57-10.48 0-3.22 4-6.38 4-11 0-4.16-2.35-5.34-2.89-9.21-.0493877-.41047527-.2199807-.79692064-.49-1.11.5243227-.59562784 1.3511943-.8249369 2.1073961-.58442571.7562019.24051118 1.2986893.90534702 1.3826039 1.69442571.54 3.87 2.89 5.06 2.89 9.21 0 4.55-4 7.81-4 11 0 2.9 1.8 7.4 5.57 10.48 2.6328552 2.0258976 4.1231415 5.2002073 4 8.52z" fill="#6a1b9a"/><circle id="Oval" cx="30" cy="4" fill="#ef314c" r="4"/><ellipse id="Oval" cx="30" cy="42" fill="#f5f5f5" rx="16.03" ry="4.55"/><circle id="Oval" cx="30" cy="42" fill="#3f51b5" r="5"/><g fill="#ef314c"><path id="Shape" d="m21.59 34.92c-2.8926066 1.4377792-5.3939191 3.5548022-7.29 6.17-.4000542.5407147-.4000542 1.2792853 0 1.82 1.8960809 2.6151978 4.3973934 4.7322208 7.29 6.17-3.4418054-4.0925623-3.4418054-10.0674377 0-14.16z"/><path id="Shape" d="m38.41 34.92c2.8926066 1.4377792 5.3939191 3.5548022 7.29 6.17.4000542.5407147.4000542 1.2792853 0 1.82-1.8960809 2.6151978-4.3973934 4.7322208-7.29 6.17 3.4418054-4.0925623 3.4418054-10.0674377 0-14.16z"/></g></g><g id="Outline" fill="#000" transform="translate(-1)"><path id="Shape" d="m31 61c17.94 0 30-7.23 30-18 .1160098-3.6185524-1.5042687-7.074651-4.36-9.3-3.41-2.78-5.2-7-5.2-9.7s4-6.11 4-11c0-4.5-2.4-5.71-2.9-9.34-.1672726-1.29364559-1.133762-2.34034159-2.41-2.61-.9387212-.18161983-1.9077941.09509617-2.6090723.74501318-.7012782.649917-1.0507616 1.59518696-.9409277 2.54498682.62 4.81 2.86 6.23 2.86 8.66 0 2.77-4 6.11-4 11-.0133993 1.6269422.1746983 3.249284.56 4.83-6.94-3-13.58-7-13.93-17.94 2.5060345-.5275582 4.2083227-2.86335069 3.9431177-5.4105438-.2652049-2.54719311-2.4121557-4.48221616-4.9731177-4.48221616s-4.7079128 1.93502305-4.9731177 4.48221616c-.265205 2.54719311 1.4370832 4.8829856 3.9431177 5.4105438-.35 11-7 15-13.93 17.94.3583857-1.5840749.5196078-3.2063729.48-4.83 0-4.9-4-8.21-4-11 0-2.37 2.2-3.86 2.84-8.52.2080314-1.18685498-.3142247-2.38300708-1.3260978-3.03723537s-2.3169847-.63956391-3.3139022.03723537c-.7129644.49166581-1.18509402 1.26160026-1.3 2.12-.46 3.73-2.9 4.91-2.9 9.4 0 4.9 4 8.21 4 11s-1.79 6.92-5.2 9.7c-2.85573133 2.225349-4.47600982 5.6814476-4.36 9.3 0 10.77 12.06 18 30 18zm-3-55c0-1.65685425 1.3431458-3 3-3s3 1.34314575 3 3-1.3431458 3-3 3-3-1.34314575-3-3zm-21.38 29.25c4.08-3.32 5.94-8.16 5.94-11.25 0-3.59-4-6.71-4-11 0-3.73 2.34-5.11 2.88-9.1.0327577-.29856561.1979814-.56659516.45-.73.3319451-.21460097.7591497-.21353497 1.0900197.00271992.3308699.21625488.5033087.60711264.4399803.99728008-.2429912 1.70220074-.802639 3.3438344-1.65 4.84-1.92 3.76-1.45 5.25.65 8.94 1.05 1.84 2.14 3.75 2.14 6 .0314137 1.5949011-.1570242 3.1865277-.56 4.73-.2084832.6600716-.0153885 1.381147.4950576 1.8486985.5104462.4675516 1.2456584.596774 1.8849424.3313015 5.97-2.53 12.23-5.86 14.62-13.62 2.39 7.76 8.65 11.09 14.61 13.62.640332.2711992 1.379963.1446726 1.8937347-.323956s.7075967-1.1935388.4962653-1.856044c-.3984373-1.5273102-.5868381-3.1018021-.56-4.68 0-2.26 1.09-4.17 2.14-6 2.1-3.68 2.57-5.15.65-8.93-.871833-1.5434731-1.4356038-3.24157786-1.66-5-.0364785-.29765887.0712566-.59485909.29-.8.2790796-.27504417.6930818-.36175339 1.0590761-.2218144.3659943.13993898.6165371.48073895.6409239.8718144.55 4 2.88 5.29 2.88 9.07 0 4.3-4 7.41-4 11 0 3.09 1.86 7.93 5.94 11.25 2.3938379 1.8464431 3.7433431 4.739305 3.62 7.76 0 11-14.06 16-28 16s-28-5-28-16c-.12005393-3.0172237 1.22911116-5.9056296 3.62-7.75z"/><path id="Shape" d="m47.52 45.5c.6411431-.8972339.6411431-2.1027661 0-3-3.8070387-5.3274512-9.9520782-8.4889695-16.5-8.4889695s-12.6929613 3.1615183-16.5 8.4889695c-.6411431.8972339-.6411431 2.1027661 0 3 3.809717 5.3234376 9.9537849 8.4817783 16.5 8.4817783s12.690283-3.1583407 16.5-8.4817783zm-1.63-1.83c.1500877.1944019.1500877.4655981 0 .66-1.0276599 1.4229419-2.2456835 2.6981654-3.62 3.79.9804131-2.6591779.9804131-5.5808221 0-8.24 1.3743165 1.0918346 2.5923401 2.3670581 3.62 3.79zm-7.12-6c2.9571555 3.664487 2.9571555 8.895513 0 12.56-4.9246331 2.3002615-10.6153669 2.3002615-15.54 0-2.9571555-3.664487-2.9571555-8.895513 0-12.56 4.9320313-2.2844296 10.622771-2.2661197 15.54.05zm-22.66 6c1.0293361-1.4186069 2.2472099-2.6903094 3.62-3.78-.9797101 2.6558638-.9797101 5.5741362 0 8.23-1.3743165-1.0918346-2.5923401-2.3670581-3.62-3.79-.1500877-.1944019-.1500877-.4655981 0-.66z"/><path id="Shape" d="m31 50c3.3137085 0 6-2.6862915 6-6s-2.6862915-6-6-6-6 2.6862915-6 6 2.6862915 6 6 6zm0-10c2.209139 0 4 1.790861 4 4s-1.790861 4-4 4-4-1.790861-4-4 1.790861-4 4-4z"/><path id="Shape" d="m30 45c.5522847 0 1-.4477153 1-1 .5522847 0 1-.4477153 1-1s-.4477153-1-1-1c-2.13 0-2.71 3-1 3z"/><path id="Shape" d="m43 7c.5522847 0 1-.44771525 1-1s-.4477153-1-1-1h-2c-.5522847 0-1 .44771525-1 1s.4477153 1 1 1z"/><path id="Shape" d="m39 4c.53 0 .67-.26 1.71-1.29.2536586-.25365856.3527236-.62337399.2598781-.96987806-.0928455-.34650406-.363496-.61715454-.71-.71000002-.3465041-.09284547-.7162195.00621949-.9698781.25987808l-1 1c-.2884599.28609046-.3751619.71826679-.219371 1.09348151.155791.37521471.5231059.61888111.929371.61651849z"/><path id="Shape" d="m38.29 9.71c1.06 1.06 1.19 1.29 1.71 1.29.4062651.0023626.77358-.2413038.929371-.6165185.1557909-.3752147.0690889-.80739104-.219371-1.0934815l-1-1c-.2536586-.25365859-.623374-.35272356-.9698781-.25987808-.346504.09284548-.6171545.36349596-.71.71000002-.0928455.34650407.0062195.7162195.2598781.96987806z"/><path id="Shape" d="m22 6c0-.55228475-.4477153-1-1-1h-2c-.5522847 0-1 .44771525-1 1s.4477153 1 1 1h2c.5522847 0 1-.44771525 1-1z"/><path id="Shape" d="m23.71 2.29-1-1c-.3921222-.39212217-1.0278778-.39212217-1.42 0s-.3921222 1.02787783 0 1.42l1 1c.3921222.39212217 1.0278778.39212217 1.42 0s.3921222-1.02787783 0-1.42z"/><path id="Shape" d="m22 11c.53 0 .67-.26 1.71-1.29.3921222-.39212217.3921222-1.02787783 0-1.42s-1.0278778-.39212217-1.42 0l-1 1c-.2884599.28609046-.3751619.7182668-.219371 1.0934815.155791.3752147.5231059.6188811.929371.6165185z"/></g></g></svg>