<?xml version="1.0" encoding="iso-8859-1"?>
<!-- Generator: Adobe Illustrator 19.0.0, SVG Export Plug-In . SVG Version: 6.00 Build 0)  -->
<svg version="1.1" id="Layer_1" xmlns="http://www.w3.org/2000/svg" xmlns:xlink="http://www.w3.org/1999/xlink" x="0px" y="0px"
	 viewBox="0 0 512 512" style="enable-background:new 0 0 512 512;" xml:space="preserve">
<g>
	<path style="fill:#00969B;" d="M17.821,245.864H0v41.298c0,40.786,33.064,73.849,73.849,73.849l0,0v-59.119
		C73.849,270.948,48.764,245.864,17.821,245.864z"/>
	<path style="fill:#00969B;" d="M494.179,245.864H512v41.298c0,40.786-33.064,73.849-73.849,73.849l0,0v-59.119
		C438.151,270.948,463.236,245.864,494.179,245.864z"/>
</g>
<path style="fill:#00D8DE;" d="M434.428,157.846C413.291,79.096,341.423,21.113,256,21.113l0,0
	c-85.422,0-157.291,57.981-178.428,136.733l-0.152,0.553c-4.018,15.142-6.162,31.049-6.162,47.456V361.01
	c0,71.729,58.148,129.876,129.876,129.876h109.732c71.729,0,129.876-58.148,129.876-129.876V205.856
	C440.742,189.247,438.539,173.158,434.428,157.846z"/>
<g>
	<circle style="fill:#1E252B;" cx="167.865" cy="313.838" r="16.491"/>
	<circle style="fill:#1E252B;" cx="344.135" cy="313.838" r="16.491"/>
</g>
<path style="fill:#20272E;" d="M314.062,371.926c0,32.067-25.996,58.062-58.062,58.062s-58.062-25.996-58.062-58.062H314.062z"/>
<g>
	<path style="fill:#FFFFFF;" d="M222.312,371.926v15.417c0,5.466,4.43,9.897,9.897,9.897s9.897-4.431,9.897-9.897v-15.417H222.312z"
		/>
	<path style="fill:#FFFFFF;" d="M269.894,371.926v15.417c0,5.466,4.43,9.897,9.897,9.897c5.467,0,9.897-4.431,9.897-9.897v-15.417
		H269.894z"/>
</g>
<path style="fill:#00969B;" d="M256,352.491L256,352.491c-8.317,0-15.919-4.555-19.844-11.885l-12.673-23.673
	c-2.58-4.819-0.764-10.817,4.054-13.396c4.82-2.581,10.817-0.764,13.396,4.055l12.673,23.673c0.633,1.184,1.651,1.433,2.392,1.433
	c0.743,0,1.76-0.248,2.394-1.433l12.672-23.672c2.58-4.818,8.575-6.635,13.395-4.055c4.819,2.58,6.635,8.577,4.055,13.396
	l-12.672,23.673C271.919,347.937,264.315,352.491,256,352.491z"/>
<g>
	<path style="fill:#20272E;" d="M194.836,291.266c-0.599,0-1.206-0.055-1.816-0.168l-53.003-9.826
		c-5.373-0.996-8.923-6.16-7.927-11.536c0.998-5.375,6.168-8.916,11.535-7.927l53.003,9.826c5.373,0.996,8.923,6.161,7.927,11.536
		C203.672,287.935,199.512,291.266,194.836,291.266z"/>
	<path style="fill:#20272E;" d="M317.166,291.266c-4.677,0-8.836-3.329-9.719-8.094c-0.996-5.375,2.553-10.538,7.927-11.536
		l53.003-9.826c5.372-0.994,10.538,2.552,11.535,7.927c0.996,5.375-2.553,10.54-7.927,11.536l-53.003,9.826
		C318.372,291.211,317.765,291.266,317.166,291.266z"/>
	<path style="opacity:0.3;fill:#20272E;enable-background:new    ;" d="M494.179,245.864c-25.062,0-46.277,16.458-53.437,39.153
		v-79.162c0-16.608-2.205-32.698-6.314-48.009C413.291,79.096,341.423,21.113,256,21.113l0,0v469.773h54.866
		c71.729,0,129.876-58.148,129.876-129.876v-0.066C480.326,359.576,512,327.077,512,287.161v-41.298h-17.821V245.864z"/>
</g>
<g>
</g>
<g>
</g>
<g>
</g>
<g>
</g>
<g>
</g>
<g>
</g>
<g>
</g>
<g>
</g>
<g>
</g>
<g>
</g>
<g>
</g>
<g>
</g>
<g>
</g>
<g>
</g>
<g>
</g>
</svg>
