<svg width="122" height="122" viewBox="0 0 122 122" fill="none" xmlns="http://www.w3.org/2000/svg">
<circle cx="61" cy="61" r="61" fill="url(#paint0_linear)"/>
<path d="M22.5833 22.5801C25.2833 20.7801 27.9833 19.8801 27.8833 19.3801C27.7833 18.7801 27.1833 17.2801 28.7833 18.3801C29.9833 19.0801 29.1833 18.7801 31.1833 18.1801C32.7833 17.6801 32.4833 17.4801 32.4833 16.3801C32.4833 15.2801 33.0833 15.8801 33.6833 16.7801C33.9833 17.2801 34.3833 16.8801 36.1833 16.2801C37.8833 15.6801 37.5833 15.9801 37.5833 14.9801C37.5833 13.8801 37.7833 13.1801 38.3833 14.6801C38.7833 15.4801 38.3833 15.4801 40.2833 14.9801C42.1833 14.4801 42.9833 14.6801 42.8833 13.7801C42.8833 12.8801 43.2833 12.3801 43.6833 13.2801C44.1833 14.2801 43.7833 13.8801 45.6833 13.5801C47.5833 13.2801 48.0833 13.4801 48.1833 12.3801C48.2833 11.3801 48.6833 10.3801 49.0833 11.4801C49.4833 12.5801 49.2833 12.6801 51.3833 12.2801C53.3833 11.9801 55.9833 11.5801 55.8833 11.7801C55.7833 11.9801 51.8833 13.0801 50.5833 13.5801C50.1833 13.6801 50.8833 15.3801 51.0833 16.2801C51.2833 17.1801 49.1833 15.6801 48.5833 14.8801C48.2833 14.4801 48.3833 14.5801 45.7833 15.0801C44.9833 15.2801 45.1833 15.6801 46.1833 17.5801C47.2833 19.3801 44.6833 18.0801 43.7833 16.8801C42.9833 15.5801 43.7833 15.8801 41.9833 16.2801C40.1833 16.7801 39.6833 16.5801 40.2833 17.5801C40.7833 18.5801 41.1833 18.9801 41.3833 19.3801C41.5833 19.7801 39.6833 19.0801 38.7833 18.0801C37.8833 17.0801 38.2833 17.3801 36.7833 17.8801C35.1833 18.3801 35.0833 18.2801 35.4833 19.1801C35.8833 20.0801 36.4833 20.7801 35.0833 19.9801C33.6833 19.2801 33.7833 18.5801 32.5833 19.0801C31.3833 19.5801 31.1833 19.5801 31.5833 20.0801C31.9833 20.6801 32.0833 21.2801 32.1833 21.9801C32.2833 22.6801 30.8833 21.1801 30.1833 20.6801C29.6833 20.4801 29.9833 20.2801 27.6833 21.1801C25.3833 22.0801 23.5833 22.7801 22.7833 23.1801C21.8833 23.4801 21.6833 23.1801 22.5833 22.5801Z" fill="#A871C9"/>
<path d="M92.5233 96.8745C90.6058 99.4924 88.3791 101.265 88.6448 101.7C88.9448 102.229 90.0235 103.432 88.143 102.948C86.7756 102.703 87.63 102.71 85.9577 103.961C84.6268 104.98 84.9772 105.065 85.355 106.098C85.7329 107.131 84.9633 106.773 84.0907 106.134C83.6372 105.768 83.3989 106.281 81.9145 107.462C80.524 108.61 80.7027 108.225 81.0462 109.164C81.424 110.197 81.4766 110.923 80.3979 109.721C79.7474 109.107 80.1231 108.969 78.5104 110.092C76.8977 111.214 76.0777 111.301 76.4808 112.112C76.7899 112.957 76.5859 113.564 75.9012 112.856C75.0881 112.088 75.6012 112.327 73.9198 113.261C72.2384 114.195 71.7001 114.179 71.984 115.247C72.2336 116.22 72.2014 117.297 71.4479 116.401C70.6944 115.505 70.8479 115.343 69.0131 116.44C67.2378 117.408 64.9333 118.677 64.9586 118.455C64.9838 118.233 68.2687 115.86 69.3179 114.944C69.6592 114.713 68.4179 113.357 67.9209 112.58C67.424 111.804 69.9114 112.491 70.7497 113.036C71.1688 113.309 71.0406 113.249 73.3107 111.887C73.9933 111.424 73.6681 111.117 72.0763 109.676C70.425 108.363 73.3133 108.691 74.5708 109.509C75.7686 110.455 74.9142 110.448 76.4673 109.455C77.9861 108.367 78.5244 108.383 77.6174 107.65C76.8044 106.882 76.2913 106.644 75.9661 106.337C75.6409 106.03 77.6657 106.035 78.8544 106.665C80.0431 107.295 79.5644 107.151 80.8014 106.166C82.1324 105.147 82.2606 105.206 81.5758 104.498C80.8911 103.791 80.0871 103.339 81.6767 103.61C83.232 103.786 83.3785 104.478 84.3338 103.596C85.289 102.715 85.4769 102.646 84.9295 102.314C84.3477 101.888 84.0477 101.358 83.7134 100.735C83.379 100.112 85.2091 101.04 86.0382 101.269C86.5765 101.285 86.3634 101.576 88.2144 99.941C90.0653 98.3058 91.5154 97.0301 92.1294 96.3797C92.8716 95.7888 93.1624 96.0019 92.5233 96.8745Z" fill="#520C7D"/>
<path d="M71.0157 57.2005C71.4157 54.0005 69.5157 55.7005 68.5157 60.2005C67.1157 66.6005 70.0157 72.2005 74.7157 73.5005C77.6157 74.3005 74.6157 73.3005 73.4157 70.1005C72.6157 67.9005 74.3157 71.7005 77.4157 73.4005C78.7157 74.1005 77.6157 74.4005 78.0157 79.1005C78.4157 83.7005 80.6157 85.2005 82.5157 82.5005C83.3157 81.4005 84.0157 79.1005 84.1157 81.3005C84.2157 83.5005 84.9157 84.6005 85.7157 83.8005C86.6157 83.0005 86.5157 84.1005 86.7157 88.2005C86.9157 92.3005 88.6157 94.7005 90.3157 94.0005C92.1157 93.3005 93.2157 93.2005 92.7157 85.2005C92.1157 77.2005 92.6157 75.7005 93.1157 73.4005C93.9157 69.5005 94.8157 69.2005 95.9157 69.5005C100.116 70.5005 105.216 70.0005 107.516 65.0005C108.516 63.0005 108.316 63.1005 109.016 62.0005C109.916 60.7005 109.216 58.7005 107.516 58.7005C105.616 58.6005 105.616 60.0005 104.916 59.4005C104.216 58.8005 102.716 58.5005 101.616 59.3005C100.416 60.0005 101.116 61.4005 101.416 61.8005C101.716 62.2005 101.216 63.4005 99.6157 63.6005C98.0157 63.8005 96.9157 62.2005 96.0157 61.6005C95.1157 61.0005 95.4157 55.1005 91.0157 51.8005C88.5157 49.9005 86.4157 49.9005 84.2157 50.3005C81.9157 50.7005 88.9157 46.6005 94.1157 53.1005C95.2157 54.5005 94.2157 49.5005 89.1157 47.4005C86.0157 46.1005 83.0157 46.6005 81.8157 46.9005C80.6157 47.2005 86.6157 43.1005 92.9157 48.2005C94.9157 49.8005 91.6157 43.5005 85.8157 42.1005C80.3157 40.5005 73.0157 45.6005 73.0157 50.9005C73.0157 52.4005 74.8157 48.2005 78.4157 46.7005C81.6157 45.3005 75.2157 48.2005 73.1157 52.9005C71.0157 57.6005 71.7157 61.2005 71.4157 61.8005C71.1157 62.4005 70.8157 58.8005 71.0157 57.2005Z" fill="#4E067A"/>
<path d="M74.5158 56.3999C76.5158 51.0999 80.7158 50.6999 85.2158 50.3999C89.6158 50.0999 94.1158 52.6999 95.2158 60.3999C95.4158 61.5999 97.5158 64.4999 99.4158 64.5999C101.316 64.6999 100.616 68.4999 98.3158 68.3999C96.0158 68.2999 94.9158 67.3999 94.1158 68.8999C93.3158 70.2999 92.1158 71.6999 91.9158 75.2999C91.8158 78.9999 92.0158 83.0999 92.1158 86.1999C92.2158 89.2999 92.3158 93.0999 90.1158 92.8999C88.1158 92.6999 86.4158 84.1999 86.7158 82.6999C86.9158 81.1999 86.5158 82.9999 85.6158 83.0999C84.7158 83.1999 84.4158 82.0999 84.4158 79.6999C84.4158 77.2999 83.5158 82.3999 81.0158 82.8999C78.5158 83.3999 79.0158 77.0999 79.1158 74.6999C79.2158 72.2999 77.9158 74.1999 74.1158 68.6999C71.1158 64.7999 73.6158 58.7999 74.5158 56.3999Z" fill="#4E067A"/>
<path d="M29.2157 92.6004C32.3157 94.2004 36.6157 94.5004 40.1157 94.8004C40.4157 94.8004 40.9157 94.6004 40.3157 94.5004C37.0157 94.3004 32.8157 94.0004 29.8157 92.5004C29.7157 92.4004 28.9157 92.5004 29.2157 92.6004Z" fill="#2D154A"/>
<path d="M49.2157 78.3998C49.2157 78.3998 49.3157 78.0998 49.5157 77.4998C49.8157 76.9998 50.2157 76.1998 50.9157 75.3998C51.3157 74.9998 51.7157 74.5998 52.2157 74.1998C52.7157 73.7998 53.3157 73.3998 54.0157 73.0998C54.3157 72.8998 54.7157 72.7998 55.0157 72.5998C55.4157 72.4998 55.8157 72.3998 56.1157 72.1998C56.9157 71.9998 57.7157 71.7998 58.5157 71.7998C58.7157 71.7998 58.9157 71.7998 59.1157 71.7998H59.7157C60.1157 71.7998 60.5157 71.7998 60.9157 71.7998C61.7157 71.8998 62.5157 71.9998 63.2157 72.1998C63.9157 72.3998 64.6157 72.6998 65.2157 72.9998C65.5157 73.1998 65.8157 73.2998 66.0157 73.4998C66.3157 73.6998 66.5157 73.7998 66.7157 73.9998C67.2157 74.2998 67.5157 74.6998 67.8157 75.0998C68.1157 75.3998 68.3157 75.6998 68.5157 75.9998C68.8157 76.4998 68.9157 76.8998 68.9157 76.8998C68.9157 76.8998 68.7157 76.5998 68.4157 76.0998C68.2157 75.8998 68.0157 75.5998 67.6157 75.2998C67.3157 74.9998 66.9157 74.6998 66.4157 74.3998C66.2157 74.1998 65.9157 74.0998 65.7157 73.8998C65.4157 73.6998 65.2157 73.5998 64.9157 73.4998C64.3157 73.1998 63.7157 72.9998 63.0157 72.8998C62.3157 72.6998 61.6157 72.5998 60.8157 72.5998C60.4157 72.5998 60.0157 72.5998 59.6157 72.5998H59.0157C58.8157 72.5998 58.6157 72.5998 58.4157 72.5998C57.6157 72.5998 56.9157 72.7998 56.1157 72.9998C55.7157 73.0998 55.4157 73.1998 55.0157 73.2998C54.7157 73.3998 54.3157 73.5998 54.0157 73.6998C53.4157 73.9998 52.8157 74.2998 52.3157 74.6998C51.8157 75.0998 51.3157 75.3998 51.0157 75.7998C50.2157 76.5998 49.7157 77.1998 49.4157 77.7998C49.3157 78.0998 49.2157 78.3998 49.2157 78.3998Z" fill="#2D154A"/>
<path d="M54.8157 64.7997C54.8157 64.7997 55.1157 64.5997 55.6157 64.4997C55.9157 64.3997 56.1157 64.3997 56.5157 64.2997C56.8157 64.1997 57.2157 64.1997 57.5157 64.1997C57.9157 64.1997 58.2157 64.0997 58.5157 64.1997C58.8157 64.1997 59.1157 64.2997 59.4157 64.2997C59.9157 64.3997 60.2157 64.4997 60.2157 64.4997C60.2157 64.4997 59.8157 64.5997 59.3157 64.6997C59.0157 64.6997 58.7157 64.7997 58.4157 64.7997C58.2157 64.7997 58.1157 64.7997 57.9157 64.7997C57.7157 64.7997 57.6157 64.7997 57.4157 64.7997C57.1157 64.7997 56.7157 64.7997 56.4157 64.7997C56.1157 64.7997 55.8157 64.7997 55.5157 64.7997C55.2157 64.7997 55.0157 64.7997 54.9157 64.7997H54.8157Z" fill="#2D154A"/>
<path d="M54.3157 69.6002C54.3157 69.6002 54.5157 69.6002 54.8157 69.5002C55.1157 69.5002 55.5157 69.4002 56.0157 69.3002C56.2157 69.3002 56.5157 69.2002 56.8157 69.2002C57.1157 69.2002 57.4157 69.1002 57.7157 69.1002C58.0157 69.1002 58.3157 69.0002 58.6157 69.0002C58.9157 69.0002 59.2157 68.9002 59.6157 68.9002C60.2157 68.8002 60.9157 68.7002 61.5157 68.7002C62.1157 68.7002 62.7157 68.7002 63.2157 68.7002C63.7157 68.7002 64.1157 68.8002 64.4157 68.8002C64.7157 68.8002 64.8157 68.9002 64.8157 68.9002C64.8157 68.9002 64.6157 68.9002 64.3157 69.0002C64.0157 69.0002 63.6157 69.1002 63.1157 69.1002C62.6157 69.2002 62.1157 69.2002 61.5157 69.3002C60.9157 69.4002 60.3157 69.4002 59.6157 69.5002C59.3157 69.5002 59.0157 69.6002 58.6157 69.6002C58.3157 69.6002 58.0157 69.7002 57.7157 69.7002C57.1157 69.8002 56.5157 69.8002 56.0157 69.7002C55.5157 69.7002 55.1157 69.6002 54.8157 69.6002C54.5157 69.7002 54.3157 69.6002 54.3157 69.6002Z" fill="#2D154A"/>
<path d="M52.5157 80.7C52.8157 81.1 54.9157 82.8 55.6157 82.9C56.3157 83.1 56.6157 76.5 56.4157 75.8C56.2157 75.1 52.3157 80.4 52.5157 80.7Z" fill="#BBB08F"/>
<path d="M52.1157 80.8C52.5157 81.3 55.2157 83.9 56.1157 82.8C56.6157 82.2 56.5157 81 56.6157 80.3C56.7157 79.1 56.8157 77.9 56.8157 76.7C56.8157 76.4 57.0157 75.6 56.5157 75.5C55.9157 75.5 55.5157 75.9 55.2157 76.2C54.4157 77 53.7157 77.9 53.1157 78.8C52.8157 79.4 52.0157 80.3 52.1157 80.8C52.1157 81 52.9157 80.8 52.9157 80.7C52.7157 79.9 54.4157 78.2 54.9157 77.5C55.3157 76.9 55.8157 76.3 56.4157 75.9C56.0157 76.2 56.0157 75.6 56.0157 76.2C56.0157 76.5 56.0157 76.8 56.0157 77.2C56.0157 78.8 55.9157 80.3 55.6157 81.9C55.6157 82.2 55.5157 82.5 55.4157 82.8C55.4157 82.9 55.3157 82.9 55.3157 83C55.5157 82.6 55.9157 83.1 55.0157 82.5C54.2157 82 53.4157 81.4 52.9157 80.8C52.8157 80.5 52.0157 80.7 52.1157 80.8Z" fill="#2D154A"/>
<path d="M52.5157 80.7C52.8157 81.1 54.9157 82.8 55.6157 82.9C56.3157 83.1 56.6157 76.5 56.4157 75.8C56.2157 75.1 52.3157 80.4 52.5157 80.7Z" fill="#BBB08F"/>
<path d="M62.2158 75.8005C61.7158 75.9005 63.7158 83.3005 64.3158 83.5005C65.0158 83.6005 67.6158 81.4005 67.6158 80.7005C67.5158 80.0005 63.1158 75.5005 62.2158 75.8005Z" fill="#BBB08F"/>
<path d="M61.8158 75.6002C61.4158 75.9002 61.8158 77.0002 61.9158 77.3002C62.1158 78.6002 62.5158 79.8002 62.9158 81.1002C63.2158 82.0002 63.5158 84.1002 65.2158 83.3002C66.3158 82.8002 67.5158 81.7002 67.9158 80.8002C68.1158 80.3002 66.9158 79.2002 66.6158 78.9002C65.7158 78.0002 63.7158 75.4002 61.9158 75.6002C61.5158 75.6002 62.2158 75.9002 62.4158 75.9002C62.9158 75.8002 64.1158 77.2002 64.4158 77.5002C65.1158 78.1002 65.7158 78.7002 66.3158 79.4002C66.7158 79.8002 67.3158 80.3002 67.1158 80.9002C66.7158 81.7002 65.6158 82.5002 64.8158 83.1002C64.5158 83.3002 64.7158 83.6002 64.4158 83.2002C64.3158 83.0002 64.2158 82.7002 64.1158 82.4002C63.8158 81.6002 63.5158 80.7002 63.3158 79.9002C63.1158 79.3002 62.0158 76.5002 62.6158 76.0002C62.7158 75.7002 62.0158 75.5002 61.8158 75.6002Z" fill="#2D154A"/>
<path d="M62.2158 75.8005C61.7158 75.9005 63.7158 83.3005 64.3158 83.5005C65.0158 83.6005 67.6158 81.4005 67.6158 80.7005C67.5158 80.0005 63.1158 75.5005 62.2158 75.8005Z" fill="#BBB08F"/>
<path d="M33.8158 90.9004C33.8158 90.9004 33.8158 91.0004 33.9158 91.1004C33.9158 91.2004 34.0158 91.5004 33.9158 91.7004C33.9158 92.0004 33.8158 92.3004 33.8158 92.6004C33.8158 92.9004 33.7158 93.2004 33.7158 93.5004V93.6004V93.7004V94.0004C33.7158 94.2004 33.8158 94.3004 33.8158 94.5004C33.9158 94.8004 33.9158 95.1004 33.9158 95.4004C33.9158 95.5004 33.9158 95.7004 33.9158 95.8004C33.9158 95.9004 33.9158 96.0004 33.8158 96.1004C33.8158 96.3004 33.7158 96.3004 33.7158 96.3004C33.7158 96.3004 33.7158 96.2004 33.6158 96.1004C33.5158 96.0004 33.5158 95.7004 33.4158 95.5004C33.3158 95.3004 33.2158 95.0004 33.1158 94.7004C33.0158 94.5004 33.0158 94.4004 32.9158 94.2004L32.8158 94.0004V93.9004C32.8158 93.8004 32.8158 93.9004 32.8158 93.8004V93.7004C32.8158 93.5004 32.8158 93.3004 32.9158 93.1004C32.9158 92.9004 33.0158 92.8004 33.1158 92.6004C33.2158 92.3004 33.3158 92.0004 33.5158 91.8004C33.6158 91.6004 33.7158 91.4004 33.7158 91.2004C33.7158 91.0004 33.8158 90.9004 33.8158 90.9004Z" fill="#2D154A"/>
<path d="M36.1158 91.9004C36.1158 91.9004 36.2158 92.0004 36.2158 92.1004C36.3158 92.2004 36.3158 92.5004 36.3158 92.7004C36.3158 92.9004 36.3158 93.2004 36.3158 93.5004C36.3158 93.6004 36.3158 93.8004 36.2158 93.9004C36.2158 94.0004 36.2158 94.2004 36.2158 94.3004V94.5004C36.2158 94.6004 36.2158 94.6004 36.2158 94.7004C36.2158 94.8004 36.3158 94.9004 36.3158 95.1004C36.4158 95.4004 36.5158 95.6004 36.5158 95.9004C36.5158 96.0004 36.5158 96.1004 36.5158 96.2004C36.5158 96.3004 36.5158 96.4004 36.5158 96.5004C36.4158 96.6004 36.4158 96.7004 36.4158 96.7004C36.4158 96.7004 36.4158 96.6004 36.3158 96.5004C36.3158 96.4004 36.2158 96.2004 36.0158 96.0004C35.9158 95.8004 35.7158 95.6004 35.5158 95.4004C35.4158 95.3004 35.3158 95.1004 35.3158 95.0004C35.3158 94.9004 35.2158 94.8004 35.2158 94.7004V94.5004C35.2158 94.3004 35.2158 94.2004 35.3158 94.0004C35.3158 93.8004 35.4158 93.7004 35.4158 93.6004C35.5158 93.3004 35.6158 93.1004 35.7158 92.9004C35.7158 92.8004 35.8158 92.7004 35.8158 92.6004C35.8158 92.5004 35.8158 92.4004 35.9158 92.4004C36.1158 91.9004 36.1158 91.9004 36.1158 91.9004Z" fill="#2D154A"/>
<path d="M38.9158 92.3008C38.9158 92.3008 38.9158 92.4008 39.0158 92.5008C39.0158 92.6008 39.1158 92.8008 39.1158 93.0008C39.1158 93.1008 39.1158 93.2008 39.1158 93.4008C39.1158 93.5008 39.1158 93.6008 39.1158 93.8008C39.1158 94.0008 39.1158 94.3008 39.0158 94.5008V94.6008V94.7008V94.9008C39.0158 95.0008 39.0158 95.2008 39.0158 95.3008C39.0158 95.6008 39.0158 95.8008 38.9158 96.0008C38.8158 96.4008 38.7158 96.7008 38.7158 96.7008C38.7158 96.7008 38.5158 96.4008 38.4158 96.0008C38.3158 95.8008 38.3158 95.6008 38.2158 95.3008C38.2158 95.2008 38.1158 95.0008 38.1158 94.9008V94.7008C38.1158 94.7008 38.1158 94.7008 38.1158 94.6008V94.5008C38.1158 94.4008 38.1158 94.2008 38.2158 94.1008C38.2158 94.0008 38.3158 93.8008 38.3158 93.7008C38.4158 93.4008 38.5158 93.2008 38.6158 93.1008C38.6158 93.0008 38.7158 92.9008 38.7158 92.9008C38.7158 92.8008 38.8158 92.7008 38.8158 92.7008C38.9158 92.3008 38.9158 92.3008 38.9158 92.3008Z" fill="#2D154A"/>
<path d="M87.1158 94.6009C79.8158 94.7009 75.8158 91.8009 63.7158 91.1009C53.4158 90.6009 42.6158 94.7009 39.8158 94.5009C39.8158 94.5009 42.2158 94.9009 48.3158 96.8009C52.6158 98.1009 56.4158 98.5009 63.5158 98.8009C72.2158 99.2009 80.0158 95.2009 82.2158 94.9009C84.4158 94.7009 87.1158 94.6009 87.1158 94.6009Z" fill="#590000"/>
<path d="M63.7158 91.1009C53.4158 90.6009 42.6158 94.7009 39.8158 94.5009C39.8158 94.5009 42.2158 94.9009 48.3158 96.8009C52.6158 98.1009 56.4158 98.5009 63.5158 98.8009C72.2158 99.2009 80.0158 95.2009 82.2158 94.9009C84.5158 94.6009 87.1158 94.5009 87.1158 94.5009C79.8158 94.7009 75.8158 91.8009 63.7158 91.1009ZM81.0158 94.8009C80.4158 94.9009 77.9158 95.8009 76.4158 96.4009C74.9158 97.0009 74.6158 97.3009 72.6158 97.5009C70.6158 97.7009 70.2158 98.0009 68.8158 98.3009C67.4158 98.6009 66.2158 98.7009 64.5158 98.4009C62.8158 98.0009 61.8158 98.8009 59.6158 98.6009C57.5158 98.4009 57.1158 97.9009 55.3158 98.0009C53.5158 98.1009 51.9158 97.5009 50.5158 97.2009C49.1158 96.9009 48.0158 96.6009 48.2158 96.5009C48.4158 96.3009 49.2158 95.1009 49.1158 94.2009C49.1158 93.3009 49.7158 93.4009 50.2158 95.2009C50.7158 97.1009 51.3158 97.5009 53.0158 97.6009C54.6158 97.7009 55.6158 97.1009 55.7158 94.9009C55.8158 92.6009 57.4158 92.6009 57.7158 94.7009C58.0158 96.8009 56.7158 98.2009 59.5158 98.4009C62.3158 98.6009 62.5158 98.0009 62.8158 95.4009C63.0158 93.8009 64.4158 94.1009 64.6158 95.1009C65.1158 97.7009 64.6158 98.6009 67.1158 98.5009C69.6158 98.4009 69.3158 96.7009 69.7158 94.1009C69.9158 92.9009 71.2158 93.0009 71.8158 95.1009C72.4158 97.1009 73.0158 97.4009 74.1158 97.2009C75.2158 97.0009 75.7158 95.9009 75.9158 95.0009C76.1158 94.2009 75.9158 94.4009 77.5158 94.6009C79.4158 94.6009 81.6158 94.7009 81.0158 94.8009Z" fill="#590000"/>
<path d="M43.8158 94.5004C45.9158 94.2004 48.2158 93.4004 49.4158 93.2004C50.5158 92.9004 53.7158 92.0004 57.6158 92.3004C61.5158 92.6004 64.3158 92.3004 67.1158 92.3004C69.8158 92.3004 70.7158 92.3004 72.9158 92.8004C75.1158 93.4004 78.6158 94.1004 80.4158 94.3004C82.2158 94.5004 84.3158 94.5004 84.3158 94.5004C78.6158 94.0004 74.2158 91.7004 63.8158 91.2004C54.5158 90.7004 44.7158 94.1004 40.8158 94.6004C40.7158 94.5004 41.7158 94.8004 43.8158 94.5004Z" fill="#A52929"/>
<path d="M69.1157 97.2998C69.6157 96.2998 69.5157 93.8998 69.6157 92.2998C68.9157 92.2998 68.1157 92.2998 67.0157 92.2998C66.6157 92.2998 66.1157 92.2998 65.7157 92.2998C65.8157 93.7998 66.1157 97.2998 66.4157 97.7998C66.7157 98.2998 68.5157 98.3998 69.1157 97.2998Z" fill="#FFE499"/>
<path d="M68.9157 92.2998C68.8157 93.8998 68.9157 95.9998 68.4157 96.8998C68.0157 97.6998 67.0157 97.7998 66.3157 97.6998C66.3157 97.7998 66.3157 97.7998 66.3157 97.7998C66.7157 98.3998 68.5157 98.4998 69.0157 97.3998C69.5157 96.3998 69.4157 93.9998 69.5157 92.3998C69.4157 92.2998 69.2157 92.2998 68.9157 92.2998Z" fill="#C49D57"/>
<path d="M61.9158 97.5002C62.4158 96.8002 63.0158 93.5002 63.2158 92.3002C61.6158 92.3002 59.9158 92.4002 57.9158 92.2002C58.0158 93.3002 58.4158 96.6002 58.5158 97.1002C58.6158 98.3002 61.3158 98.4002 61.9158 97.5002Z" fill="#FFE499"/>
<path d="M62.3158 92.3999C62.0158 93.8999 61.6158 96.3999 61.1158 96.9999C60.7158 97.5999 59.3158 97.6999 58.4158 97.3999C58.8158 98.3999 61.2158 98.3999 61.8158 97.5999C62.3158 96.8999 62.9158 93.5999 63.1158 92.3999C62.9158 92.2999 62.6158 92.3999 62.3158 92.3999Z" fill="#C49D57"/>
<path d="M75.3157 96.0006C75.7157 95.0006 75.9157 93.9006 75.9157 93.5006C74.8157 93.3006 73.7157 93.0006 72.9157 92.8006C72.6157 92.7006 72.3157 92.7006 72.0157 92.6006C72.2157 93.3006 72.6157 95.1006 73.0157 96.1006C73.4157 97.2006 74.7157 97.5006 75.3157 96.0006Z" fill="#FFE499"/>
<path d="M75.3157 93.4004C75.2157 93.9004 75.0157 94.8004 74.7157 95.6004C74.3157 96.6004 73.6157 96.8004 73.0157 96.4004C73.6157 97.3004 74.7157 97.3004 75.2157 96.0004C75.6157 95.0004 75.8157 93.9004 75.8157 93.5004C75.7157 93.4004 75.5157 93.4004 75.3157 93.4004Z" fill="#C49D57"/>
<path d="M54.7157 97.1998C55.4157 96.5998 55.8157 93.3998 55.9157 92.2998C53.4157 92.2998 51.3157 92.7998 50.1157 93.0998C50.3157 93.7998 51.3157 96.6998 52.1157 97.1998C52.9157 97.7998 54.3157 97.4998 54.7157 97.1998Z" fill="#FFE499"/>
<path d="M55.0157 92.2002C54.8157 93.5002 54.5157 96.2002 53.9157 96.8002C53.6157 97.1002 52.8157 97.3002 52.0157 97.1002C52.9157 97.7002 54.3157 97.5002 54.7157 97.1002C55.4157 96.5002 55.8157 93.3002 55.9157 92.2002C55.5157 92.2002 55.2157 92.2002 55.0157 92.2002Z" fill="#C49D57"/>
<path d="M47.7157 96.4998C48.9157 96.4998 49.1157 93.9998 49.1157 93.2998C48.2157 93.4998 46.7157 93.9998 45.1157 94.2998C45.5157 94.8998 46.6157 96.4998 47.7157 96.4998Z" fill="#FFE499"/>
<path d="M48.5158 93.3998C48.4158 94.3998 48.0158 95.6998 47.2158 95.7998C46.6158 95.7998 45.9158 95.2998 45.4158 94.6998C45.9158 95.3998 46.8158 96.4998 47.7158 96.4998C48.9158 96.4998 49.1158 93.9998 49.1158 93.2998C48.9158 93.2998 48.7158 93.3998 48.5158 93.3998Z" fill="#C49D57"/>
<path d="M86.9158 94.4005C79.1158 94.4005 71.5158 91.4005 63.6158 91.0005C59.4158 90.7005 55.2158 91.3005 51.1158 92.1005C47.4158 92.8005 43.4158 94.4005 39.5158 94.5005C39.1158 94.5005 39.4158 94.7005 39.6158 94.8005C43.1158 95.4005 46.4158 96.7005 49.8158 97.6005C53.7158 98.6005 57.8158 98.9005 61.9158 99.1005C66.4158 99.4005 70.6158 98.8005 74.9158 97.6005C79.2158 96.4005 82.5158 95.1005 87.2158 94.8005C87.8158 94.7005 87.2158 94.4005 86.9158 94.4005C79.1158 94.8005 72.5158 98.6005 64.6158 98.8005C55.7158 99.0005 48.3158 96.2005 40.0158 94.5005C41.3158 94.8005 44.0158 94.1005 46.0158 93.6005C52.4158 92.1005 58.7158 90.9005 65.4158 91.4005C72.9158 91.9005 79.9158 94.7005 87.4158 94.8005C87.8158 94.8005 87.2158 94.4005 86.9158 94.4005Z" fill="#2D154A"/>
<path d="M63.7158 91.1008C54.4158 90.6008 44.6158 94.0008 40.7158 94.5008C40.7158 94.5008 41.7158 94.8008 43.8158 94.5008C45.9158 94.2008 48.2158 93.4008 49.4158 93.2008C50.5158 92.9008 53.7158 92.0008 57.6158 92.3008C61.5158 92.6008 64.3158 92.3008 67.1158 92.3008C69.8158 92.3008 70.7158 92.3008 72.9158 92.8008C75.1158 93.4008 78.6158 94.1008 80.4158 94.3008C82.2158 94.5008 84.3158 94.5008 84.3158 94.5008C78.5158 93.9008 74.1158 91.7008 63.7158 91.1008ZM64.4158 92.1008C60.3158 92.4008 59.4158 92.3008 57.7158 92.1008C56.0158 91.9008 53.2158 92.2008 56.2158 91.9008C58.6158 91.7008 63.0158 91.1008 67.9158 91.9008C72.9158 92.6008 68.5158 91.8008 64.4158 92.1008Z" fill="#A52929"/>
<path d="M31.0353 49.2851C41.5937 46.7851 50.2147 57.4851 50.2147 57.4851C49.1492 52.6851 42.2717 40.8851 30.551 44.7851C18.2491 48.8851 21.93 61.9851 22.0269 62.3851C22.0269 62.3851 21.8331 51.3851 31.0353 49.2851Z" fill="#540D7F"/>
<path d="M31.229 49.3854C38.6876 47.8854 45.7588 52.5854 49.8272 57.5854C49.924 57.6854 50.6021 57.6854 50.6021 57.4854C48.6648 49.7854 41.2061 42.1854 31.3259 44.3854C22.3174 46.3854 19.6052 55.3854 21.6393 62.2854C21.7362 62.4854 22.4143 62.4854 22.4143 62.2854C22.4143 57.0854 24.9328 51.0854 31.229 49.3854C31.7133 49.2854 31.0353 49.0854 30.8415 49.1854C24.3516 50.9854 21.7362 56.7854 21.6393 62.1854C21.6393 62.4854 22.4143 62.3854 22.3174 61.9854C22.2205 61.5854 22.1237 61.2854 22.1237 60.8854C21.9299 59.5854 21.8331 58.2854 21.8331 57.0854C21.9299 52.9854 23.5766 49.0854 27.3544 46.4854C34.135 41.7854 41.6905 44.9854 46.0494 50.1854C47.4055 51.7854 48.3742 53.6854 49.1491 55.4854C49.246 55.7854 49.4397 56.1854 49.5366 56.4854C49.5366 56.9854 49.8272 57.2854 50.5052 57.2854C50.3115 57.0854 50.1178 56.7854 49.924 56.5854C45.3714 51.5854 38.4939 47.4854 30.8415 48.9854C30.3572 49.2854 31.0353 49.3854 31.229 49.3854Z" fill="#2D154A"/>
<path d="M38.188 69.4714C47.4871 67.8714 50.8774 58.2714 50.8774 58.2714C50.8774 58.0714 50.7805 57.8714 50.7805 57.6714C50.7805 57.6714 42.1595 46.9714 31.6012 49.4714C22.399 51.6714 22.5927 62.5714 22.5927 62.5714C23.1739 64.1714 23.9488 65.7714 24.9175 67.2714C24.9175 67.2714 28.889 71.1714 38.188 69.4714Z" fill="black"/>
<path d="M38.4786 69.6718C43.0313 68.6718 46.3247 66.1718 48.8432 62.8718C49.4244 62.0718 52.0398 58.7718 51.168 57.7718C47.3903 53.1718 40.5128 48.2718 33.5385 49.0718C25.7893 50.0718 22.399 56.2718 22.3021 62.4718C22.3021 64.5718 24.0457 67.3718 26.2736 68.4718C29.9545 70.2718 34.2166 70.2718 38.4786 69.6718C38.8661 69.5718 38.2849 69.3718 37.9943 69.4718C31.2137 70.4718 22.4959 68.8718 23.077 61.4718C23.5614 54.6718 28.3078 48.1718 37.4131 49.4718C41.3846 50.0718 44.7749 52.4718 47.4871 54.7718C48.1652 55.3718 50.8774 57.3718 50.4899 58.3718C48.5526 63.4718 44.0968 68.0718 37.9943 69.3718C37.51 69.4718 38.2849 69.6718 38.4786 69.6718Z" fill="#2D154A"/>
<path d="M36.335 68.1793C26.8575 68.5397 23.4656 64.1142 23.4656 64.1142C26.1922 69.7577 31.8113 74.401 39.6956 73.5095C49.7675 72.4261 50.4942 63.2363 50.5264 58.8971C50.5264 58.8971 45.7982 67.918 36.335 68.1793Z" fill="#4E067A"/>
<path d="M36.1567 68.0525C32.0307 68.0678 26.5323 67.3816 23.8504 64.169C23.7683 64.0563 22.9986 63.946 23.0807 64.0588C26.5457 70.7172 33.4864 75.0446 41.8831 73.3173C49.1648 71.8344 50.7909 64.5918 50.815 58.9381C50.8433 58.7401 50.1698 58.6437 50.0452 58.8279C47.5905 63.6284 42.4986 67.6473 36.1567 68.0525C35.6614 68.0826 36.3066 68.377 36.5132 68.3056C42.3598 67.9305 46.7328 64.8189 49.7759 60.7087C50.1355 60.2551 50.3988 59.7877 50.6479 59.4193C51.2707 58.4983 50.1385 59.5484 50.1213 60.3541C50.0414 62.9692 49.4663 65.6144 48.246 67.9651C45.9584 72.2845 40.5189 73.9301 35.131 73.1587C29.4544 72.3459 25.9551 67.2989 23.3551 64.1991C26.2974 67.651 32.1806 68.3924 36.6094 68.3194C36.9942 68.3745 36.3491 68.08 36.1567 68.0525Z" fill="#2D154A"/>
<path d="M39.9469 57.8858C40.3343 60.7858 38.4939 63.2858 35.9754 63.5858C33.36 63.8858 30.9384 61.7858 30.6478 58.8858C30.2603 55.9858 32.1008 53.4858 34.6193 53.1858C37.1378 52.8858 39.5594 54.9858 39.9469 57.8858Z" fill="#430522"/>
<path d="M39.0751 57.9859C39.3657 60.2859 37.9127 62.3859 35.7816 62.5859C33.6506 62.7859 31.7133 61.0859 31.4227 58.7859C31.1321 56.4859 32.5851 54.3859 34.7161 54.1859C36.8472 53.9859 38.7845 55.6859 39.0751 57.9859Z" fill="#9A1322"/>
<path d="M38.0096 58.086C38.2033 59.786 37.1378 61.286 35.5879 61.486C34.0381 61.686 32.5851 60.386 32.3914 58.686C32.1976 56.986 33.2632 55.486 34.813 55.286C36.3629 55.086 37.8158 56.386 38.0096 58.086Z" fill="#6A0B22"/>
<path d="M37.5252 58.1854C37.7189 59.5854 36.8471 60.7854 35.5879 60.8854C34.3286 60.9854 33.1662 59.9854 32.9725 58.6854C32.7788 57.2854 33.6506 56.0854 34.9098 55.9854C36.1691 55.7854 37.3314 56.7854 37.5252 58.1854Z" fill="#2D154A"/>
<path d="M28.2157 69.6998C28.2157 69.6998 28.5157 69.8998 29.0157 69.9998C29.1157 69.9998 29.3157 70.0998 29.4157 70.1998C29.6157 70.1998 29.7157 70.2998 29.9157 70.2998C30.3157 70.3998 30.7157 70.4998 31.2157 70.5998C31.7157 70.6998 32.2157 70.6998 32.8157 70.7998C33.3157 70.8998 33.9157 70.7998 34.5157 70.8998C35.1157 70.8998 35.7157 70.7998 36.4157 70.7998C36.7157 70.7998 37.1157 70.7998 37.3157 70.6998L38.3157 70.5998C38.9157 70.4998 39.5157 70.3998 40.1157 70.1998C40.7157 69.9998 41.3157 69.7998 41.8157 69.5998C42.1157 69.4998 42.3157 69.3998 42.6157 69.2998C42.9157 69.1998 43.1157 69.0998 43.3157 68.8998C43.8157 68.6998 44.2157 68.3998 44.6157 68.1998C45.4157 67.6998 46.0157 67.1998 46.4157 66.8998C46.8157 66.5998 47.0157 66.2998 47.0157 66.2998C47.0157 66.2998 47.0157 66.5998 46.6157 66.9998C46.3157 67.3998 45.7157 67.8998 45.0157 68.4998C44.6157 68.7998 44.2157 69.0998 43.8157 69.3998C43.6157 69.4998 43.3157 69.6998 43.1157 69.7998C42.8157 69.8998 42.6157 70.0998 42.3157 70.1998C41.7157 70.4998 41.1157 70.6998 40.5157 70.8998C39.9157 71.0998 39.2157 71.1998 38.5157 71.3998L37.5157 71.4998C37.1157 71.4998 36.8157 71.4998 36.5157 71.5998C35.8157 71.5998 35.2157 71.6998 34.6157 71.5998C34.0157 71.5998 33.4157 71.4998 32.8157 71.3998C32.2157 71.2998 31.7157 71.1998 31.2157 71.0998C30.7157 70.9998 30.3157 70.8998 29.9157 70.6998C29.7157 70.5998 29.5157 70.5998 29.4157 70.4998C29.3157 70.3998 29.1157 70.3998 29.0157 70.2998C28.7157 70.1998 28.6157 69.9998 28.5157 69.9998C28.3157 69.7998 28.2157 69.6998 28.2157 69.6998Z" fill="#2D154A"/>
<path d="M36.9156 72.1998C36.9156 72.1998 37.1157 72.1998 37.6157 72.1998C38.0157 72.1998 38.6156 72.1998 39.3156 72.0998C39.7156 72.0998 40.0156 71.9998 40.4156 71.8998C40.8156 71.7998 41.2157 71.6998 41.6157 71.5998C42.0157 71.4998 42.4156 71.3998 42.9156 71.1998C43.3156 70.9998 43.7157 70.8998 44.1157 70.6998L44.7157 70.3998L45.2157 69.9998C45.6157 69.7998 45.8156 69.4998 46.1157 69.1998L46.3156 68.9998L46.5156 68.7998C46.6157 68.6998 46.7156 68.4998 46.8156 68.3998C47.1156 68.0998 47.2156 67.7998 47.4156 67.5998C47.5156 67.2998 47.7156 67.0998 47.8156 66.8998C47.9156 66.6998 48.0156 66.4998 48.1157 66.2998C48.2157 65.9998 48.3156 65.7998 48.3156 65.7998C48.3156 65.7998 48.3157 65.9998 48.2157 66.3998C48.2157 66.5998 48.1157 66.7998 48.1157 66.9998C48.1157 67.2998 47.9156 67.4998 47.8156 67.7998C47.7156 68.0998 47.6156 68.3998 47.3156 68.6998C47.2156 68.8998 47.1157 68.9998 47.0156 69.1998C46.9156 69.3998 46.8156 69.4998 46.6157 69.6998C46.3156 69.9998 46.0156 70.3998 45.6157 70.5998L45.3156 70.9998L44.7157 71.2998C44.3157 71.4998 43.8156 71.6998 43.4156 71.8998C42.9156 71.9998 42.5156 72.1998 42.0156 72.2998C41.5156 72.3998 41.1157 72.3998 40.7157 72.4998C40.3157 72.4998 39.9156 72.4998 39.5156 72.4998C37.9156 72.4998 36.9156 72.1998 36.9156 72.1998Z" fill="#2D154A"/>
<path d="M33.8157 72.7002C33.8157 72.7002 34.5157 72.9002 35.6157 73.0002C36.1157 73.1002 36.8157 73.2002 37.5157 73.2002C38.2157 73.2002 38.9157 73.3002 39.6157 73.2002C40.0157 73.2002 40.3157 73.2002 40.7157 73.1002C41.1157 73.1002 41.4157 73.0002 41.7157 73.0002C42.0157 73.0002 42.4157 72.9002 42.7157 72.8002C43.0157 72.8002 43.3157 72.7002 43.6157 72.6002C43.9157 72.5002 44.1157 72.5002 44.3157 72.4002C44.5157 72.3002 44.7157 72.3002 44.9157 72.3002C45.2157 72.2002 45.4157 72.2002 45.4157 72.2002C45.4157 72.2002 45.2157 72.3002 45.0157 72.4002C44.9157 72.5002 44.7157 72.6002 44.5157 72.7002C44.3157 72.8002 44.1157 72.9002 43.8157 73.0002C43.5157 73.1002 43.3157 73.2002 42.9157 73.3002C42.6157 73.4002 42.3157 73.5002 41.9157 73.6002C41.5157 73.7002 41.2157 73.7002 40.8157 73.8002C40.4157 73.8002 40.0157 73.9002 39.7157 73.9002C38.9157 73.9002 38.2157 73.9002 37.4157 73.8002C37.0157 73.8002 36.7157 73.7002 36.4157 73.6002C36.1157 73.5002 35.8157 73.5002 35.5157 73.4002C34.4157 73.1002 33.8157 72.7002 33.8157 72.7002Z" fill="#2D154A"/>
<g opacity="0.7">
<path opacity="0.7" d="M87.1157 51C79.5157 49.7 75.2157 56.7 74.8157 61.5C73.5157 76.9 88.3157 77 92.1157 71.2C95.8157 65.4 94.7157 52.4 87.1157 51ZM89.8157 63.4C87.8157 66.5 79.8157 66.5 80.5157 58.2C80.7157 55.6 83.1157 51.8 87.1157 52.5C91.2157 53.2 91.8157 60.3 89.8157 63.4Z" fill="black"/>
</g>
<g opacity="0.7">
<path opacity="0.7" d="M87.1157 51C79.5157 49.7 75.2157 56.7 74.8157 61.5C73.5157 76.9 88.3157 77 92.1157 71.2C95.8157 65.4 94.7157 52.4 87.1157 51ZM91.4157 67.3C88.6157 71.7 77.4157 71.6 78.3157 59.9C78.6157 56.3 81.9157 51 87.6157 52C93.4157 53 94.2157 62.9 91.4157 67.3Z" fill="black"/>
</g>
<path d="M92.1157 71.4004C89.9157 74.9004 83.6157 76.3004 79.2157 73.4004C79.2157 73.4004 79.4157 74.9004 79.2157 78.6004C79.0157 82.3004 80.3157 83.6004 81.8157 82.0004C83.3157 80.4004 83.8157 76.9004 84.2157 77.7004C84.6157 78.4004 84.1157 82.2004 85.5157 82.7004C86.2157 83.0004 86.7157 81.6004 86.7157 81.6004C87.0157 80.9004 87.3157 81.3004 87.2157 85.6004C87.1157 89.9004 87.5157 93.6004 89.9157 93.4004C92.3157 93.2004 91.7157 87.1004 91.5157 82.9004C91.0157 76.9004 91.9157 73.2004 92.1157 71.4004Z" fill="#990404"/>
<path d="M109.216 69.6996C109.216 69.6996 109.216 68.8996 109.516 67.6996C109.616 67.3996 109.716 67.0996 109.816 66.7996C110.016 66.4996 110.116 66.0996 110.316 65.7996C110.416 65.5996 110.516 65.4996 110.716 65.2996C110.816 65.0996 111.016 64.9996 111.116 64.7996C111.316 64.5996 111.416 64.4996 111.616 64.2996C111.816 64.1996 112.016 63.9996 112.216 63.8996C112.616 63.5996 113.116 63.4996 113.516 63.2996C113.716 63.1996 114.016 63.1996 114.216 63.0996H114.616C114.716 63.0996 114.916 63.0996 115.016 63.0996C116.016 63.1996 116.816 63.6996 117.216 64.1996C117.416 64.4996 117.516 64.6996 117.616 64.9996C117.716 65.1996 117.716 65.4996 117.616 65.5996C117.516 65.9996 117.416 66.0996 117.416 66.0996C117.416 66.0996 117.416 66.0996 117.416 65.9996C117.416 65.8996 117.416 65.7996 117.416 65.5996C117.416 65.3996 117.316 65.1996 117.216 64.9996C117.116 64.7996 116.916 64.5996 116.716 64.3996C116.316 63.9996 115.616 63.6996 114.816 63.5996C114.716 63.5996 114.616 63.5996 114.516 63.5996H114.216C114.016 63.6996 113.816 63.6996 113.616 63.6996C113.216 63.7996 112.816 63.9996 112.516 64.1996C112.316 64.2996 112.216 64.3996 112.016 64.4996C111.816 64.5996 111.716 64.6996 111.516 64.8996C111.216 65.1996 111.016 65.4996 110.716 65.7996C110.216 66.3996 109.916 66.9996 109.616 67.4996C109.316 67.9996 109.116 68.4996 109.016 68.7996C109.216 69.5996 109.216 69.6996 109.216 69.6996Z" fill="#2D154A"/>
<path d="M109.216 69.2992C109.216 69.2992 109.116 68.8992 109.316 68.3992C109.416 68.0992 109.516 67.8992 109.716 67.5992C109.816 67.4992 109.916 67.2992 110.116 67.1992C110.216 67.0992 110.416 66.8992 110.616 66.7992C110.816 66.6992 111.016 66.5992 111.216 66.4992C111.416 66.3992 111.616 66.3992 111.816 66.2992C112.016 66.1992 112.216 66.1992 112.416 66.1992C112.616 66.1992 112.816 66.1992 112.916 66.1992C113.216 66.1992 113.516 66.2992 113.716 66.2992C113.916 66.2992 114.016 66.3992 114.016 66.3992C114.016 66.3992 113.916 66.3992 113.716 66.4992C113.616 66.4992 113.516 66.4992 113.416 66.5992C113.316 66.5992 113.116 66.6992 113.016 66.6992C112.916 66.6992 112.716 66.7992 112.616 66.7992C112.516 66.8992 112.316 66.8992 112.116 66.9992C112.016 67.0992 111.816 67.0992 111.616 67.1992C111.416 67.2992 111.316 67.3992 111.216 67.4992C110.916 67.6992 110.716 67.8992 110.416 68.0992C110.216 68.2992 110.016 68.5992 109.816 68.7992C109.416 68.9992 109.216 69.2992 109.216 69.2992Z" fill="#2D154A"/>
<path d="M72.0157 58.5996C72.0157 58.5996 72.0157 58.1996 72.1157 57.3996C72.2157 56.9996 72.3157 56.5996 72.4157 56.0996C72.5157 55.5996 72.7157 54.9996 73.0157 54.3996C73.1157 54.0996 73.3157 53.7996 73.5157 53.4996C73.7157 53.1996 73.9157 52.8996 74.1157 52.4996C74.3157 52.1996 74.5157 51.7996 74.8157 51.4996C75.0157 51.1996 75.3157 50.8996 75.7157 50.4996C76.0157 50.1996 76.3157 49.8996 76.7157 49.5996C77.0157 49.2996 77.5157 48.9996 77.9157 48.7996C78.3157 48.4996 78.7157 48.2996 79.2157 48.0996C79.6157 47.8996 80.1157 47.6996 80.6157 47.4996C80.9157 47.3996 81.1157 47.2996 81.3157 47.1996L82.0157 46.9996L82.7157 46.7996L83.5157 46.6996C83.8157 46.6996 84.0157 46.5996 84.3157 46.5996C84.6157 46.5996 84.8157 46.5996 85.1157 46.5996C85.6157 46.5996 86.1157 46.6996 86.6157 46.7996C87.1157 46.7996 87.5157 46.9996 88.0157 47.0996C88.4157 47.1996 88.8157 47.3996 89.2157 47.5996C89.6157 47.7996 89.9158 47.9996 90.3158 48.1996C90.6157 48.3996 90.9157 48.5996 91.2157 48.7996C92.3157 49.6996 93.1157 50.5996 93.5157 51.1996C94.0157 51.7996 94.2157 52.1996 94.2157 52.1996C94.2157 52.1996 93.9157 51.7996 93.4157 51.1996C92.9157 50.5996 92.0157 49.7996 90.9157 48.9996C90.6157 48.7996 90.3157 48.5996 90.0157 48.3996C89.7157 48.1996 89.3157 48.0996 88.9157 47.8996C88.1157 47.5996 87.3157 47.2996 86.4157 47.1996C86.0157 47.0996 85.5157 47.0996 85.0157 47.0996C84.8157 47.0996 84.5157 47.0996 84.3157 47.0996C84.1157 47.0996 83.8157 47.1996 83.6157 47.1996L82.9157 47.2996L82.2157 47.4996L81.4157 47.9996C81.2157 48.0996 81.0157 48.1996 80.7157 48.1996C80.3157 48.3996 79.8157 48.4996 79.4157 48.6996C79.0157 48.8996 78.5157 49.0996 78.2157 49.3996C77.8157 49.5996 77.4157 49.8996 77.1157 50.1996C76.8157 50.4996 76.4157 50.6996 76.1157 50.9996C75.8157 51.2996 75.5157 51.5996 75.2157 51.8996C74.9157 52.1996 74.7157 52.4996 74.5157 52.7996C74.3157 53.0996 74.1157 53.3996 73.9157 53.6996C73.7157 53.9996 73.5157 54.2996 73.4157 54.5996C73.2157 54.8996 73.1157 55.1996 73.0157 55.3996C72.9157 55.6996 72.8157 55.8996 72.7157 56.1996C72.5157 56.6996 72.4157 57.0996 72.3157 57.4996C72.0157 58.1996 72.0157 58.5996 72.0157 58.5996Z" fill="#2D154A"/>
<path d="M73.4158 50.4C73.4158 50.4 73.5158 50.1 73.7158 49.5C73.8158 49.2 74.0158 48.9 74.2158 48.5C74.4158 48.1 74.6158 47.7 75.0158 47.2C75.3158 46.8 75.7158 46.3 76.1158 45.8C76.3158 45.6 76.5158 45.3 76.8158 45.1C77.0158 44.9 77.3158 44.6 77.6158 44.4C77.9158 44.2 78.2158 44 78.5158 43.8C78.8158 43.6 79.2158 43.4 79.6158 43.3C80.3158 43 81.1158 42.7 82.0158 42.6C82.1158 42.6 82.2158 42.6 82.3158 42.5H82.6158H83.2158C83.6158 42.5 84.1158 42.5 84.5158 42.5C84.9158 42.5 85.3158 42.6 85.7158 42.7C86.1158 42.8 86.5158 42.9 86.8158 43C87.5158 43.2 88.2158 43.6 88.8158 43.9C89.4158 44.2 89.9158 44.6 90.4158 44.9C91.3158 45.6 92.0158 46.3 92.4158 46.7C92.8158 47.2 93.0158 47.5 93.0158 47.5C93.0158 47.5 92.7158 47.2 92.3158 46.8C91.8158 46.4 91.1158 45.8 90.1158 45.2C89.6158 44.9 89.1158 44.6 88.5158 44.3C87.9158 44 87.3158 43.8 86.6158 43.5C86.3158 43.4 85.9158 43.3 85.5158 43.2C85.1158 43.2 84.8158 43.1 84.4158 43.1C84.0158 43.1 83.7158 43 83.3158 43.1H82.7158H82.4158C82.4158 43.1 82.2158 43.1 82.1158 43.1C81.3158 43.2 80.6158 43.4 79.9158 43.7C79.6158 43.9 79.2158 44 78.9158 44.2C78.6158 44.4 78.3158 44.6 78.0158 44.8C77.7158 45 77.4158 45.2 77.2158 45.4C76.9158 45.6 76.7158 45.8 76.5158 46C76.0158 46.4 75.7158 46.9 75.3158 47.3C75.0158 47.7 74.7158 48.1 74.4158 48.5C74.1158 48.9 74.0158 49.2 73.8158 49.4C73.6158 50.1 73.4158 50.4 73.4158 50.4Z" fill="#2D154A"/>
<path d="M70.3157 56.4004C70.3157 56.4004 70.3157 56.7004 70.2157 57.2004C70.2157 57.4004 70.1157 57.7004 70.1157 58.1004C70.1157 58.4004 70.1157 58.8004 70.0157 59.2004C70.0157 59.6004 70.0157 60.1004 70.0157 60.5004C70.0157 61.0004 70.0157 61.5004 70.0157 62.0004C70.0157 62.5004 70.1157 63.0004 70.1157 63.6004C70.1157 64.1004 70.3157 64.7004 70.3157 65.2004C70.4157 65.7004 70.5157 66.3004 70.7157 66.8004C70.9157 67.3004 71.0157 67.8004 71.2157 68.3004C71.3157 68.5004 71.4157 68.8004 71.5157 69.0004C71.6157 69.2004 71.7157 69.5004 71.8157 69.7004C72.1157 70.1004 72.3157 70.5004 72.5157 70.9004C72.8157 71.2004 73.0157 71.6004 73.2157 71.8004C73.4157 72.1004 73.7157 72.3004 73.9157 72.5004C74.3157 72.9004 74.5157 73.1004 74.5157 73.1004C74.5157 73.1004 74.2157 72.9004 73.8157 72.6004C73.6157 72.4004 73.3157 72.2004 73.0157 72.0004C72.7157 71.7004 72.4157 71.4004 72.1157 71.1004C71.8157 70.8004 71.5157 70.4004 71.2157 69.9004C70.9157 69.5004 70.7157 69.0004 70.4157 68.5004C70.1157 68.0004 70.0157 67.5004 69.8157 67.0004C69.6157 66.5004 69.5157 65.9004 69.4157 65.4004C69.3157 64.8004 69.2157 64.3004 69.2157 63.7004C69.1157 63.1004 69.1157 62.6004 69.1157 62.1004C69.1157 61.6004 69.1157 61.1004 69.2157 60.6004C69.2157 60.1004 69.3157 59.7004 69.4157 59.3004C69.5157 58.5004 69.7157 57.8004 69.8157 57.3004C70.2157 56.7004 70.3157 56.4004 70.3157 56.4004Z" fill="#2D154A"/>
<path d="M67.5157 30.7002C67.5157 30.7002 67.0157 30.8002 66.1157 31.1002C65.7157 31.2002 65.1157 31.4002 64.5157 31.5002C63.9157 31.7002 63.2157 31.9002 62.5157 32.1002C61.0157 32.5002 59.3157 33.0002 57.4157 33.5002C56.5157 33.8002 55.5157 34.0002 54.5157 34.3002C53.5157 34.6002 52.5157 34.9002 51.6157 35.2002C49.6157 35.8002 47.7157 36.5002 45.9157 37.1002C45.0157 37.4002 44.1157 37.8002 43.3157 38.1002C42.5157 38.4002 41.7157 38.7002 41.0157 39.0002C40.3157 39.3002 39.7157 39.6002 39.1157 39.8002C38.8157 39.9002 38.6157 40.0002 38.3157 40.2002C38.1157 40.3002 37.9157 40.4002 37.7157 40.5002C36.9157 40.9002 36.5157 41.1002 36.5157 41.1002C36.5157 41.1002 36.9157 40.8002 37.6157 40.4002C37.8157 40.3002 38.0157 40.2002 38.2157 40.0002C38.4157 39.9002 38.7157 39.7002 39.0157 39.6002C39.5157 39.3002 40.1157 39.0002 40.8157 38.6002C41.5157 38.3002 42.2157 37.9002 43.0157 37.6002C43.8157 37.3002 44.7157 36.9002 45.6157 36.6002C46.5157 36.3002 47.4157 35.9002 48.4157 35.6002C49.4157 35.3002 50.3157 34.9002 51.3157 34.6002C52.3157 34.3002 53.3157 34.0002 54.3157 33.7002C55.3157 33.4002 56.3157 33.2002 57.2157 32.9002C59.1157 32.4002 60.9157 32.0002 62.4157 31.7002C63.8157 31.4002 65.1157 31.2002 66.0157 31.0002C66.9157 30.8002 67.5157 30.7002 67.5157 30.7002Z" fill="#2D154A"/>
<path d="M61.6157 30C61.6157 30 61.7157 30.3 61.9157 30.7C62.0157 30.9 62.1157 31.1 62.1157 31.4C62.1157 31.5 62.2157 31.7 62.2157 31.8C62.2157 31.9 62.3157 32.1 62.3157 32.2C62.3157 32.3 62.4157 32.5 62.4157 32.6C62.4157 32.7 62.5157 32.9 62.5157 33C62.6157 33.2 62.6157 33.5 62.7157 33.7C62.9157 34.1 62.9157 34.4 62.9157 34.4C62.9157 34.4 62.6157 34.2 62.3157 33.9C62.1157 33.7 62.0157 33.5 61.8157 33.2C61.6157 33 61.5157 32.7 61.4157 32.4C61.2157 31.8 61.2157 31.2 61.2157 30.8C61.4157 30.3 61.6157 30 61.6157 30Z" fill="#2D154A"/>
<path d="M55.9158 31.5996C55.9158 31.5996 56.1158 31.8996 56.3158 32.3996C56.4158 32.5996 56.6158 32.8996 56.7158 33.1996C56.9158 33.3996 57.0158 33.6996 57.2158 33.9996C57.4158 34.2996 57.5158 34.5996 57.7158 34.8996C57.9158 35.1996 58.0158 35.3996 58.2158 35.6996C58.5158 36.0996 58.7158 36.4996 58.7158 36.4996C58.7158 36.4996 58.3158 36.2996 57.9158 35.9996C57.6158 35.7996 57.5158 35.5996 57.2158 35.2996C57.1158 35.1996 57.0158 34.9996 56.9158 34.8996C56.8158 34.6996 56.7158 34.5996 56.6158 34.3996C56.4158 34.0996 56.3158 33.6996 56.2158 33.3996C56.0158 32.9996 55.9158 32.6996 55.9158 32.4996C55.8158 31.8996 55.9158 31.5996 55.9158 31.5996Z" fill="#2D154A"/>
<path d="M50.7158 32.7002C50.7158 32.7002 50.9158 33.0002 51.2158 33.5002C51.3158 33.7002 51.5158 34.0002 51.6158 34.3002C51.8158 34.6002 51.9158 34.9002 52.1158 35.2002C52.3158 35.5002 52.4158 35.8002 52.6158 36.1002C52.8158 36.4002 52.9158 36.6002 53.1158 36.9002C53.4158 37.3002 53.6158 37.7002 53.6158 37.7002C53.6158 37.7002 53.2158 37.5002 52.8158 37.2002C52.5158 37.0002 52.3158 36.8002 52.1158 36.5002C52.0158 36.4002 51.8158 36.2002 51.8158 36.1002C51.7158 35.9002 51.6158 35.8002 51.5158 35.6002C51.1158 35.0002 50.9158 34.3002 50.8158 33.8002C50.6158 33.1002 50.7158 32.7002 50.7158 32.7002Z" fill="#2D154A"/>
<path d="M45.8157 34.5C45.8157 34.5 46.0157 34.7 46.3157 35.1C46.4157 35.3 46.6157 35.5 46.8157 35.7C46.9157 36 47.0157 36.2 47.2157 36.4C47.4157 36.6 47.5157 36.9 47.7157 37.1C47.9157 37.3 48.0157 37.5 48.1157 37.7C48.4157 38.1 48.5157 38.4 48.5157 38.4C48.5157 38.4 48.2157 38.3 47.8157 38C47.6157 37.9 47.4157 37.7 47.2157 37.5C47.1157 37.4 47.0157 37.3 46.9157 37.2C46.8157 37.1 46.7157 37 46.6157 36.8C46.4157 36.5 46.3157 36.3 46.1157 36C46.0157 35.9 46.0157 35.8 45.9157 35.6C45.9157 35.5 45.8157 35.4 45.8157 35.3C45.7157 34.9 45.8157 34.5 45.8157 34.5Z" fill="#2D154A"/>
<path d="M41.6157 37C41.6157 37 41.9157 37.1 42.4157 37.3C42.6157 37.4 42.9157 37.5 43.1157 37.7C43.3157 37.9 43.6157 38 43.8157 38.2C44.0157 38.4 44.2157 38.6 44.4157 38.8C44.6157 39 44.7157 39.2 44.8157 39.4C44.9157 39.8 45.0157 40.1 45.0157 40.1C45.0157 40.1 44.7157 39.9 44.4157 39.6C44.3157 39.5 44.2157 39.5 44.1157 39.4C44.0157 39.3 43.9157 39.2 43.8157 39.1C43.7157 39 43.6157 38.9 43.5157 38.8L43.2157 38.5L42.9157 38.2C42.8157 38.1 42.7157 38 42.6157 37.9C42.4157 37.7 42.2157 37.5 42.1157 37.4C41.7157 37.2 41.6157 37 41.6157 37Z" fill="#2D154A"/>
<path d="M97.5158 93.8994C93.4158 94.0994 89.4158 94.3994 85.3158 94.3994C84.8158 94.3994 85.4158 94.6994 85.6158 94.6994C89.7158 94.6994 93.8158 94.3994 97.8158 94.1994C98.4158 94.1994 97.8158 93.8994 97.5158 93.8994Z" fill="#2D154A"/>
<path d="M84.0157 92.2998C84.0157 92.2998 84.1157 92.3998 84.2157 92.4998C84.3157 92.5998 84.4157 92.7998 84.6157 92.9998C84.8157 93.1998 84.9157 93.4998 85.1157 93.7998C85.2157 93.8998 85.2158 94.0998 85.3158 94.2998L85.4157 94.5998C85.4157 94.7998 85.4157 94.7998 85.4157 94.8998C85.4157 95.0998 85.4157 95.1998 85.4157 95.3998C85.4157 95.5998 85.3158 95.7998 85.3158 95.8998C85.2158 96.2998 85.1157 96.4998 85.0157 96.7998C84.9157 97.2998 84.7157 97.5998 84.7157 97.5998C84.7157 97.5998 84.7157 97.4998 84.6157 97.3998C84.6157 97.1998 84.5157 96.9998 84.5157 96.7998C84.5157 96.4998 84.5157 96.1998 84.5157 95.8998C84.5157 95.7998 84.5157 95.5998 84.5157 95.3998C84.5157 95.1998 84.5157 95.0998 84.5157 94.8998C84.5157 94.7998 84.5157 94.6998 84.5157 94.6998L84.4157 94.4998C84.4157 94.2998 84.4157 94.1998 84.3157 93.9998C84.2157 93.6998 84.1157 93.3998 84.1157 93.0998C84.0157 92.8998 84.0157 92.6998 84.0157 92.4998C84.0157 92.3998 84.0157 92.2998 84.0157 92.2998Z" fill="#2D154A"/>
<path d="M85.6157 92.5996C85.6157 92.5996 85.6157 92.6996 85.7157 92.7996C85.8157 92.8996 85.9157 93.0996 86.1157 93.1996C86.3157 93.3996 86.5157 93.5996 86.7157 93.8996C86.8157 93.9996 86.9157 94.1996 87.0157 94.3996C87.0157 94.4996 87.0157 94.4996 87.0157 94.5996V94.6996V94.8996C87.0157 95.0996 87.0157 95.1996 87.0157 95.3996C87.0157 95.5996 87.0157 95.6996 86.9157 95.8996C86.8157 96.1996 86.8157 96.4996 86.7157 96.6996C86.6157 97.1996 86.5157 97.4996 86.5157 97.4996C86.5157 97.4996 86.5157 97.3996 86.4157 97.2996C86.3157 97.1996 86.3157 96.9996 86.2157 96.6996C86.2157 96.4996 86.1157 96.1996 86.1157 95.8996C86.1157 95.7996 86.1157 95.5996 86.1157 95.4996C86.1157 95.3996 86.1157 95.1996 86.1157 94.9996V94.7996V94.6996C86.1157 94.6996 86.1157 94.6996 86.1157 94.5996C86.1157 94.4996 86.0157 94.2996 86.0157 94.1996C85.9157 93.8996 85.8157 93.6996 85.7157 93.3996C85.6157 93.1996 85.6157 92.8996 85.6157 92.7996C85.6157 92.6996 85.6157 92.5996 85.6157 92.5996Z" fill="#2D154A"/>
<path d="M88.0158 92.8994C88.0158 92.8994 88.0158 92.9994 88.1158 93.0994C88.2158 93.1994 88.3158 93.2994 88.5158 93.4994C88.7158 93.6994 88.8158 93.8994 88.9158 94.0994C89.0158 94.1994 89.0158 94.3994 89.1158 94.4994C89.1158 94.5994 89.1158 94.7994 89.1158 94.8994C89.1158 95.3994 89.1158 95.9994 89.0158 96.3994C89.0158 96.6994 88.9158 96.9994 88.9158 96.9994C88.9158 96.9994 88.7158 96.7994 88.6158 96.3994C88.5158 96.1994 88.5158 95.9994 88.4158 95.6994C88.4158 95.4994 88.3158 95.1994 88.3158 94.8994C88.3158 94.7994 88.3158 94.5994 88.3158 94.4994C88.3158 94.3994 88.3158 94.2994 88.2158 94.1994C88.1158 93.9994 88.1158 93.7994 88.0158 93.5994C88.0158 93.3994 88.0158 93.1994 88.0158 93.0994C87.9158 92.9994 88.0158 92.8994 88.0158 92.8994Z" fill="#2D154A"/>
<path d="M90.3157 93L90.4157 93.1C90.5157 93.2 90.6157 93.3 90.7157 93.4C90.8157 93.5 91.0157 93.7 91.0157 94C91.0157 94.1 91.0157 94.3 91.0157 94.4C91.0157 94.5 91.0157 94.6 91.0157 94.8C90.9157 95.3 90.8157 95.8 90.7157 96.1C90.6157 96.4 90.5157 96.7 90.5157 96.7C90.5157 96.7 90.4157 96.5 90.3157 96.1C90.2157 95.7 90.2157 95.2 90.3157 94.8C90.3157 94.7 90.3157 94.6 90.3157 94.4C90.3157 94.3 90.3157 94.2 90.3157 94.1C90.3157 93.9 90.2157 93.7 90.2157 93.5C90.2157 93.3 90.2157 93.1 90.2157 93C90.2157 93.1 90.3157 93 90.3157 93Z" fill="#2D154A"/>
<path d="M92.3157 91.7998C92.3157 91.7998 92.3157 91.8998 92.4157 91.9998C92.5157 92.0998 92.6157 92.2998 92.7157 92.4998C92.8157 92.6998 92.9157 92.8998 93.0157 93.1998C93.0157 93.2998 93.1157 93.4998 93.1157 93.5998C93.1157 93.7998 93.1157 93.8998 93.2157 94.0998V94.1998C93.2157 94.1998 93.2157 94.1998 93.2157 94.2998V94.3998V94.5998C93.2157 94.6998 93.2157 94.8998 93.1157 94.9998C93.0157 95.2998 92.9157 95.5998 92.8157 95.7998C92.7157 95.8998 92.7157 95.9998 92.7157 96.0998C92.7157 96.1998 92.6157 96.2998 92.6157 96.2998C92.6157 96.3998 92.5157 96.4998 92.5157 96.4998C92.5157 96.4998 92.5157 96.3998 92.4157 96.2998C92.3157 96.1998 92.3157 95.9998 92.3157 95.6998C92.3157 95.4998 92.3157 95.1998 92.3157 94.9998C92.3157 94.8998 92.3157 94.6998 92.3157 94.5998V94.3998V94.2998V94.1998C92.3157 93.8998 92.3157 93.6998 92.2157 93.3998C92.2157 93.0998 92.1157 92.8998 92.1157 92.5998C92.2157 92.0998 92.4157 91.7998 92.3157 91.7998Z" fill="#2D154A"/>
<path d="M31.3157 79.5999C31.0157 79.5999 30.8157 79.7999 30.7157 79.9999L30.6157 80.0999C30.6157 80.0999 30.6157 80.0999 30.6157 80.1999C30.6157 80.2999 30.6157 80.2999 30.6157 80.3999C30.6157 80.4999 30.6157 80.6999 30.6157 80.7999C30.6157 80.7999 30.6157 80.7999 30.6157 80.8999C30.7157 81.3999 31.2157 81.7999 31.8157 81.7999C32.4157 81.6999 32.5157 81.1999 32.5157 80.5999C32.4157 80.0999 31.9157 79.4999 31.3157 79.5999Z" fill="#591483"/>
<path d="M29.4158 83.9998C29.0158 84.0998 28.8158 84.2998 28.6158 84.5998C28.6158 84.6998 28.5158 84.6998 28.5158 84.7998L28.4158 84.8998C28.4158 84.9998 28.4158 85.0998 28.4158 85.0998C28.4158 85.2998 28.4158 85.4998 28.4158 85.6998C28.4158 85.6998 28.4158 85.6998 28.4158 85.7998V85.8998C28.6158 86.5998 29.2158 87.0998 29.9158 86.9998C30.7158 86.8998 30.9158 86.1998 30.8158 85.3998C30.9158 84.5998 30.2158 83.8998 29.4158 83.9998Z" fill="#591483"/>
<path d="M27.0158 75.2002C26.5158 75.3002 26.2158 75.6002 26.1158 76.1002C26.1158 76.2002 26.0158 76.3002 26.0158 76.4002L25.9158 76.5002C25.9158 76.6002 25.9158 76.7002 25.9158 76.9002C25.9158 77.2002 25.9158 77.5002 26.0158 77.8002V77.9002C26.0158 77.9002 26.0158 78.0002 26.0158 78.1002C26.3158 79.3002 27.2158 80.2002 28.2158 80.1002C29.2158 79.9002 29.4158 78.8002 29.2158 77.6002C29.0158 76.3002 28.1158 75.1002 27.0158 75.2002Z" fill="#591483"/>
<path d="M105.916 60.2005C104.616 59.8005 103.316 60.4005 102.816 61.5005C102.116 63.3005 101.016 64.1005 100.016 64.4005C99.2158 64.6005 98.2158 64.1005 97.6158 63.7005C91.5158 59.8005 87.2158 61.2005 84.4158 62.8005C80.1158 65.4005 80.0158 70.9005 80.3158 73.4005C81.8158 74.2005 83.6158 74.6005 85.2158 74.5005C85.2158 74.3005 85.2158 74.2005 85.2158 74.0005C84.9158 72.4005 84.7158 67.6005 87.3158 66.1005C88.7158 65.3005 90.8158 64.6005 94.8158 67.2005C97.0158 68.6005 99.4158 69.1005 101.616 68.5005C103.416 68.1005 105.816 66.7005 107.416 62.8005C107.816 61.7005 107.116 60.6005 105.916 60.2005Z" fill="#FFE499"/>
<path d="M106.116 60.1002C105.316 60.0002 104.616 59.9002 103.816 60.3002C100.716 61.8002 101.716 65.8002 96.8158 62.9002C94.1158 61.3002 90.2158 60.5002 87.1158 61.6002C83.2158 62.9002 81.2158 65.3002 80.3158 68.7002C79.9158 70.3002 79.9158 72.0002 80.0158 73.6002C80.1158 74.5002 84.3158 74.8002 85.1158 74.8002C85.2158 74.8002 85.7158 74.8002 85.7158 74.6002C85.7158 71.8002 84.7158 67.9002 88.1158 66.0002C91.7158 64.0002 96.4158 69.6002 100.516 68.9002C104.216 68.3002 111.316 62.7002 106.216 60.2002C106.016 60.1002 105.316 60.3002 105.516 60.4002C108.816 62.0002 105.816 65.4002 104.116 67.0002C101.116 69.9002 97.0158 68.3002 93.9158 66.5002C92.7158 65.8002 90.8158 65.1002 89.2158 65.3002C84.8158 66.0002 84.4158 70.0002 84.5158 73.1002C84.6158 75.6002 80.5158 74.0002 80.4158 72.3002C80.3158 70.8002 80.6158 69.3002 80.9158 67.8002C82.3158 62.5002 88.6158 60.1002 94.5158 62.5002C96.1158 63.1002 97.8158 65.0002 99.9158 64.5002C102.416 63.9002 102.516 60.1002 105.416 60.4002C105.916 60.4002 106.616 60.1002 106.116 60.1002Z" fill="#BFA055"/>
<path d="M80.3158 73.1003C80.4158 70.8003 81.0158 63.2003 87.0158 61.7003C91.4158 60.6003 94.3158 62.1003 96.4158 63.3003C97.6158 63.9003 98.6158 64.5003 99.4158 64.4003C101.816 64.3003 102.216 62.3003 102.216 62.2003C102.316 61.8003 102.716 61.6003 103.116 61.6003C103.516 61.7003 103.816 62.0003 103.816 62.4003C103.616 63.5003 102.516 65.6003 99.5158 65.7003C98.1158 65.8003 96.8158 65.1003 95.5158 64.4003C93.4158 63.3003 91.1158 62.0003 87.5158 62.9003C81.7158 64.4003 81.9158 73.6003 81.9158 73.7003C81.9158 74.1003 80.3158 73.5003 80.3158 73.1003Z" fill="#FFE499"/>
<path d="M80.5157 67.5002C80.7157 69.6002 83.1157 70.5002 85.4157 70.6002C85.9157 70.6002 85.3157 70.3002 85.1157 70.3002C83.3157 70.3002 81.5157 69.3002 81.4157 67.7002C81.2157 67.4002 80.5157 67.4002 80.5157 67.5002Z" fill="#BFA055"/>
<path d="M82.9157 63.6001C82.6157 65.2001 84.4157 66.6001 85.7157 67.4001C85.9157 67.5001 86.7157 67.5001 86.3157 67.3001C85.0157 66.6001 83.3157 65.2001 83.6157 63.8001C83.8157 63.5001 83.0157 63.4001 82.9157 63.6001Z" fill="#BFA055"/>
<path d="M88.4157 61.2C87.5157 62.5 87.6157 64.2 88.8157 65.4C88.9157 65.5 89.7157 65.6 89.5157 65.4C88.3157 64.3 88.4157 62.7 89.2157 61.4C89.3157 61.2 88.5157 61 88.4157 61.2Z" fill="#BFA055"/>
<path d="M94.8158 62.3C93.0158 63.1 92.4158 64.8 92.9158 66.3C93.0158 66.5 93.7158 66.5 93.7158 66.3C93.2158 64.8 93.8158 63.2 95.5158 62.5C95.8158 62.3 95.0158 62.2 94.8158 62.3Z" fill="#BFA055"/>
<path d="M98.3157 64.1998C97.5157 65.4998 96.8157 67.4998 98.3157 68.6998C98.5157 68.7998 99.2157 68.6998 99.1157 68.5998C97.7157 67.4998 98.3157 65.5998 99.1157 64.2998C99.1157 64.0998 98.4157 63.9998 98.3157 64.1998Z" fill="#BFA055"/>
<path d="M101.116 63.4996C101.516 65.3996 104.216 65.8996 106.116 65.6996C106.516 65.6996 105.816 65.3996 105.616 65.3996C104.016 65.5996 102.216 65.1996 101.816 63.6996C101.816 63.3996 101.116 63.2996 101.116 63.4996Z" fill="#BFA055"/>
<path d="M103.716 62.9998C104.016 63.7998 105.816 63.8998 106.016 62.9998C106.016 62.8998 105.616 62.8998 105.616 62.9998C105.516 63.6998 104.316 63.5998 104.116 62.9998C104.116 62.8998 103.716 62.8998 103.716 62.9998Z" fill="#BFA055"/>
<path d="M105.916 60.2006C105.816 60.2006 105.716 60.2006 105.616 60.1006C107.516 60.8006 105.916 63.6006 103.716 65.3006C100.016 68.2006 96.2158 66.2006 93.4158 64.4006C90.5158 62.5006 84.8158 63.2006 83.5158 67.7006C82.5158 71.1006 83.2158 73.2006 82.8158 74.2006C83.6158 74.4006 84.5158 74.5006 85.3158 74.4006C85.3158 74.2006 85.3158 74.1006 85.3158 73.9006C85.0158 72.3006 84.8158 67.5006 87.4158 66.0006C88.8158 65.2006 90.9158 64.5006 94.9158 67.1006C97.1158 68.5006 99.5158 69.0006 101.716 68.4006C103.516 68.0006 105.916 66.6006 107.516 62.7006C107.816 61.7006 107.116 60.6006 105.916 60.2006Z" fill="#DDC280"/>
<path d="M104.916 60.501C104.916 61.301 104.216 62.001 103.316 62.001C102.416 62.001 101.716 61.301 101.716 60.501C101.716 59.701 102.416 59.001 103.316 59.001C104.216 59.001 104.916 59.701 104.916 60.501Z" fill="#EDE7E3"/>
<path d="M104.716 60.5006C104.716 61.0006 104.416 61.5006 103.916 61.8006C102.716 62.5006 102.016 61.2006 102.016 60.5006C102.016 60.0006 102.316 59.5006 102.816 59.2006C104.016 58.5006 104.716 59.8006 104.716 60.5006C104.716 60.6006 105.116 60.6006 105.116 60.5006C105.016 58.5006 101.716 58.4006 101.616 60.5006C101.616 61.3006 102.316 62.1006 103.216 62.1006C104.316 62.2006 105.116 61.4006 105.116 60.5006C105.116 60.5006 104.716 60.4006 104.716 60.5006Z" fill="#BFA055"/>
<path d="M103.416 59C102.516 59 101.816 59.7 101.816 60.5C101.816 61.3 102.516 62 103.416 62C104.316 62 105.016 61.3 105.016 60.5C104.916 59.7 104.216 59 103.416 59ZM103.316 61.6C102.616 61.6 102.016 61 102.016 60.4C102.016 59.7 102.616 59.2 103.316 59.2C104.016 59.2 104.616 59.8 104.616 60.4C104.616 61 104.016 61.6 103.316 61.6Z" fill="#CCC9C6"/>
<path d="M104.016 61.1004C104.016 61.5004 103.716 61.8004 103.316 61.8004C102.916 61.8004 102.616 61.5004 102.616 61.1004C102.616 60.7004 102.916 60.4004 103.316 60.4004C103.716 60.5004 104.016 60.8004 104.016 61.1004Z" fill="#990404"/>
<path d="M109.016 60.4998C109.016 61.3998 108.316 62.1998 107.316 62.1998C106.416 62.1998 105.616 61.3998 105.616 60.4998C105.616 59.5998 106.316 58.7998 107.316 58.7998C108.216 58.7998 109.016 59.5998 109.016 60.4998Z" fill="#EDE7E3"/>
<path d="M108.816 60.5002C108.816 61.1002 108.516 61.7002 107.816 62.0002C106.616 62.5002 106.016 61.1002 105.916 60.4002C105.916 59.8002 106.316 59.1002 106.916 58.9002C108.116 58.4002 108.716 59.9002 108.816 60.5002C108.816 60.6002 109.216 60.6002 109.216 60.5002C109.216 59.6002 108.516 58.7002 107.316 58.7002C106.116 58.7002 105.516 59.6002 105.416 60.5002C105.416 61.4002 106.216 62.3002 107.316 62.3002C108.516 62.3002 109.116 61.4002 109.216 60.5002C109.216 60.4002 108.816 60.4002 108.816 60.5002Z" fill="#BFA055"/>
<path d="M107.316 58.7998C106.416 58.7998 105.616 59.5998 105.616 60.4998C105.616 61.3998 106.316 62.1998 107.316 62.1998C108.216 62.1998 109.016 61.3998 109.016 60.4998C109.016 59.5998 108.216 58.7998 107.316 58.7998ZM107.216 61.5998C106.516 61.5998 105.816 60.9998 105.816 60.1998C105.816 59.3998 106.416 58.7998 107.216 58.7998C108.016 58.7998 108.616 59.3998 108.616 60.1998C108.616 60.9998 108.016 61.5998 107.216 61.5998Z" fill="#CCC9C6"/>
<path d="M108.016 59.9002C108.016 60.3002 107.716 60.6002 107.316 60.6002C106.916 60.6002 106.616 60.3002 106.616 59.9002C106.616 59.5002 106.916 59.2002 107.316 59.2002C107.716 59.2002 108.016 59.6002 108.016 59.9002Z" fill="#514220"/>
<path d="M107.816 59.9004C107.816 60.2004 107.616 60.4004 107.316 60.4004C107.016 60.4004 106.816 60.2004 106.816 59.9004C106.816 59.6004 107.016 59.4004 107.316 59.4004C107.616 59.5004 107.816 59.7004 107.816 59.9004Z" fill="#990404"/>
<path d="M30.2157 70.0998C32.9157 70.8998 35.6157 70.9998 40.4157 69.8998C45.2157 68.7998 46.8157 66.5998 47.2157 66.1998C48.1157 65.2998 46.0157 69.3998 41.8157 70.5998C37.6157 71.7998 46.0157 71.2998 48.6157 65.5998C48.9157 64.7998 49.0157 70.5998 43.8157 72.0998C40.7157 72.9998 44.1157 72.5998 45.4157 72.1998C46.7157 71.7998 44.9157 73.6998 40.1157 74.1998C35.3157 74.6998 32.2157 72.3998 34.5157 72.8998C36.8157 73.2998 40.6157 72.8998 38.8157 72.7998C37.0157 72.6998 36.1157 72.1998 37.5157 72.1998C39.1157 72.1998 39.6157 72.0998 37.8157 71.9998C36.2157 71.9998 36.1157 71.8998 36.7157 71.7998C37.3157 71.6998 36.4157 71.7998 33.5157 71.6998C30.6157 71.5998 27.8157 70.0998 28.0157 69.6998C28.2157 69.2998 29.9157 69.9998 30.2157 70.0998Z" fill="#4E067A"/>
<path d="M30.4084 44.7773C17.7084 48.8773 21.5084 61.9773 21.6084 62.3773C21.6084 62.3773 21.3084 51.4773 30.9084 49.2773C41.8084 46.7773 50.7084 57.4773 50.7084 57.4773C49.6084 52.6773 42.5084 40.8773 30.4084 44.7773ZM44.1084 50.8773C36.3084 46.9773 27.2084 47.8773 23.6084 53.2773C19.9084 58.5773 22.9084 51.2773 24.0084 49.7773C26.8084 46.0773 34.4084 42.6773 40.1084 45.8773C45.9084 49.0773 46.9084 52.1773 44.1084 50.8773Z" fill="#4E067A"/>
<path d="M51.3158 79.1996C55.3158 74.4996 57.8158 71.6996 57.3158 75.4996C56.8158 79.2996 57.6158 82.3996 57.0158 83.3996C56.4158 84.3996 54.3158 82.9996 52.3158 82.2996C50.4158 81.4996 49.7158 81.0996 51.3158 79.1996Z" fill="black"/>
<path d="M61.6158 76.7996C60.8158 73.1996 62.2158 73.1996 65.9158 75.9996C69.6158 78.7996 71.3158 79.2996 68.9158 81.0996C66.5158 82.8996 65.7158 84.1996 64.3158 83.8996C62.9158 83.6996 62.6158 81.2996 61.6158 76.7996Z" fill="black"/>
<path d="M50.5157 77.6996C50.5157 77.6996 50.7157 77.4996 51.0157 77.0996C51.4157 76.6996 51.9157 76.1996 52.6157 75.6996C53.3157 75.1996 54.2157 74.5996 55.3157 74.0996C56.4157 73.5996 57.7157 73.2996 59.0157 73.0996H59.2157H59.3157H59.4157H59.5157H60.0157C60.3157 73.0996 60.6157 73.0996 61.0157 73.0996C61.3157 73.0996 61.7157 73.1996 62.0157 73.1996C62.3157 73.1996 62.6157 73.2996 62.9157 73.3996C63.5157 73.4996 64.1157 73.6996 64.6157 73.8996C65.1157 74.0996 65.6157 74.2996 66.0157 74.5996C66.8157 75.0996 67.4157 75.4996 67.8157 75.8996C68.2157 76.1996 68.4157 76.4996 68.4157 76.4996C68.4157 76.4996 68.2157 76.2996 67.7157 75.9996C67.3157 75.6996 66.6157 75.2996 65.8157 74.8996C65.0157 74.4996 64.0157 74.1996 62.8157 73.9996C62.2157 73.8996 61.6157 73.7996 61.0157 73.7996C60.4157 73.7996 59.7157 73.7996 59.2157 73.7996C58.0157 73.8996 56.8157 74.1996 55.7157 74.5996C54.6157 74.9996 53.7157 75.4996 53.0157 75.9996C52.2157 76.4996 51.6157 76.8996 51.2157 77.1996C50.7157 77.4996 50.5157 77.6996 50.5157 77.6996Z" fill="#4E067A"/>
<path d="M92.1157 71.4004C89.9157 74.9004 83.6157 76.3004 79.2157 73.4004C79.2157 73.4004 79.4157 74.9004 79.2157 78.6004C79.0157 82.3004 80.3157 83.6004 81.8157 82.0004C83.3157 80.4004 83.8157 76.9004 84.2157 77.7004C84.6157 78.4004 84.1157 82.2004 85.5157 82.7004C86.2157 83.0004 86.7157 81.6004 86.7157 81.6004C87.0157 80.9004 87.3157 81.3004 87.2157 85.6004C87.1157 89.9004 87.5157 93.6004 89.9157 93.4004C92.3157 93.2004 91.7157 87.1004 91.5157 82.9004C91.0157 76.9004 91.9157 73.2004 92.1157 71.4004ZM90.7157 80.8004C90.9157 85.8004 91.7157 91.9004 90.3157 91.9004C88.9157 92.0004 88.2157 90.3004 88.3157 86.2004C88.3157 82.1004 88.5157 76.6004 87.2157 79.9004C85.9157 83.2004 85.1157 81.1004 85.0157 78.9004C85.0157 76.7004 84.5157 75.3004 83.1157 77.7004C81.6157 80.1004 81.1157 82.6004 80.3157 81.9004C79.6157 81.2004 79.8157 76.8004 79.9157 74.8004C79.9157 73.5004 80.4157 75.3004 82.8157 75.3004C86.7157 75.3004 89.6157 74.5004 90.8157 73.4004C91.9157 72.2004 90.5157 75.7004 90.7157 80.8004Z" fill="#990404"/>
<path d="M80.0158 79.4997C80.0158 77.2997 79.7158 74.9997 80.3158 75.1997C80.9158 75.4997 81.0158 79.3997 80.6158 80.5997C80.2158 81.6997 79.9158 80.6997 80.0158 79.4997Z" fill="#990404"/>
<path d="M90.0158 84.7999C90.0158 80.5999 90.6158 83.4999 90.7158 85.9999C90.8158 88.4999 91.3158 91.2999 90.3158 91.4999C89.3158 91.5999 90.0158 89.0999 90.0158 84.7999Z" fill="#990404"/>
<path d="M85.2157 79.8995C85.1157 77.5995 85.1157 77.0995 84.9157 76.4995C84.7157 75.7995 85.3157 76.6995 85.6157 78.8995C86.0157 80.9995 85.2157 81.0995 85.2157 79.8995Z" fill="#990404"/>
<path d="M23.5157 53.9998C23.5157 53.9998 23.6157 53.5998 23.8157 52.9998C24.1157 52.3998 24.4157 51.4998 25.1157 50.4998C25.4157 49.9998 25.9157 49.4998 26.3157 48.9998C26.5157 48.6998 26.8157 48.4998 27.1157 48.1998C27.4157 47.8998 27.7157 47.6998 28.0157 47.3998C28.3157 47.0998 28.7157 46.8998 29.0157 46.6998C29.3157 46.4998 29.7157 46.2998 30.1157 46.0998C30.5157 45.8998 30.9157 45.6998 31.3157 45.5998L31.6157 45.4998C31.8157 45.3998 31.8157 45.3998 31.9157 45.3998L32.5157 45.1998C32.9157 45.0998 33.4157 44.9998 33.9157 44.8998C34.4157 44.7998 34.8157 44.7998 35.3157 44.7998C35.8157 44.7998 36.2157 44.7998 36.7157 44.8998C37.1157 44.9998 37.6157 44.9998 38.0157 45.0998C38.4157 45.1998 38.8157 45.2998 39.2157 45.3998C39.6157 45.4998 40.0157 45.6998 40.3157 45.7998C41.0157 46.0998 41.6157 46.3998 42.2157 46.7998C43.3157 47.4998 44.1157 48.1998 44.7157 48.5998C45.2157 49.0998 45.5157 49.3998 45.5157 49.3998C45.5157 49.3998 45.2157 49.0998 44.6157 48.6998C44.0157 48.2998 43.1157 47.6998 42.0157 47.0998C41.4157 46.7998 40.8157 46.4998 40.1157 46.2998C39.8157 46.1998 39.4157 45.9998 39.0157 45.8998C38.6157 45.7998 38.2157 45.6998 37.8157 45.5998C37.4157 45.4998 37.0157 45.4998 36.6157 45.3998C36.2157 45.3998 35.8157 45.3998 35.3157 45.3998C34.9157 45.3998 34.4157 45.3998 34.0157 45.4998C33.6157 45.5998 33.2157 45.5998 32.7157 45.7998L32.1157 45.9998L31.8157 46.0998C31.4157 46.2998 31.0157 46.3998 30.6157 46.5998C29.8157 46.9998 29.1157 47.3998 28.5157 47.7998C28.2157 47.9998 27.9157 48.2998 27.6157 48.4998C27.3157 48.6998 27.0157 48.9998 26.8157 49.1998C26.3157 49.6998 25.9157 50.1998 25.5157 50.5998C24.8157 51.5998 24.3157 52.3998 24.0157 52.9998C23.6157 53.5998 23.5157 53.9998 23.5157 53.9998Z" fill="black"/>
<defs>
<linearGradient id="paint0_linear" x1="61" y1="0" x2="61" y2="122" gradientUnits="userSpaceOnUse">
<stop offset="0.175583" stop-color="#4D0679"/>
<stop offset="0.963542" stop-color="#E4B9FF"/>
</linearGradient>
</defs>
</svg>
