<svg width="122" height="130" viewBox="0 0 122 130" fill="none" xmlns="http://www.w3.org/2000/svg">
<path fill-rule="evenodd" clip-rule="evenodd" d="M81.6031 59.2959C81.1031 59.2959 79.9031 59.3959 79.7031 60.5959C79.5031 61.6959 79.7031 62.6959 80.2031 63.4959C80.7031 64.2959 81.5031 65.0959 82.6031 64.2959C83.6031 63.4959 84.2031 62.6959 84.7031 61.9959C85.2031 61.1959 84.3031 59.1959 83.8031 59.0959C83.3031 58.7959 81.6031 59.2959 81.6031 59.2959Z" fill="#B18FB1"/>
<path fill-rule="evenodd" clip-rule="evenodd" d="M74.5031 61.4961C75.0031 61.8961 77.2031 62.2961 78.0031 63.7961C78.9031 65.2961 78.0031 67.0961 77.1031 67.4961C76.1031 67.8961 74.4031 67.4961 73.8031 66.7961C73.3031 66.0961 72.3031 65.9961 72.3031 64.7961C72.3031 63.6961 72.1031 63.3961 72.7031 62.3961C73.3031 61.5961 74.5031 61.4961 74.5031 61.4961Z" fill="#B18FB1"/>
<path fill-rule="evenodd" clip-rule="evenodd" d="M87.3032 63.9961C88.9032 64.5961 90.3032 65.0961 90.3032 67.0961C90.3032 69.0961 89.4032 70.2961 88.2032 69.8961C87.0032 69.4961 86.3032 67.8961 85.3032 67.8961C84.3032 67.8961 84.1032 66.4961 84.6032 65.5961C85.2032 64.4961 87.3032 63.9961 87.3032 63.9961Z" fill="#B18FB1"/>
<path fill-rule="evenodd" clip-rule="evenodd" d="M74.9032 69.4961C74.2032 69.5961 71.9032 69.8961 72.0032 71.2961C72.1032 72.6961 72.7032 73.9961 73.4032 74.0961C74.1032 74.1961 75.6032 73.1961 76.4032 72.9961C77.2032 72.7961 79.1032 72.7961 79.3032 72.4961C79.5032 72.1961 80.5032 71.2961 79.2032 70.5961C77.9032 69.7961 74.9032 69.4961 74.9032 69.4961Z" fill="#B18FB1"/>
<circle cx="61" cy="68.2832" r="61" fill="url(#paint0_linear)"/>
<path fill-rule="evenodd" clip-rule="evenodd" d="M55.4076 9.86575C45.4146 9.3762 35.2005 12.4686 26.7396 20.3698C27.7227 21.8621 28.944 23.2203 30.355 23.4978C33.7611 24.0895 36.0836 25.6561 39.0511 29.0512C42.0185 32.4464 48.121 34.3699 50.9033 29.9557C53.7547 25.5757 51.6987 23.4696 54.7419 20.4426C56.9065 18.3239 56.0137 13.6885 55.4076 9.86575Z" fill="#EC1651"/>
<path fill-rule="evenodd" clip-rule="evenodd" d="M57.1761 12.1652C56.1962 11.2617 54.437 9.2184 51.8127 9.09666C49.1884 8.97491 47.358 13.0204 47.189 12.853C47.02 12.6857 44.9627 11.5856 43.0152 12.3015C40.967 13.0516 40.2416 16.0489 40.2416 16.0489C40.2416 16.0489 37.6797 14.9513 35.3658 16.4091C33.0852 17.7993 32.8603 19.9533 32.8603 19.9533C32.8603 19.9533 30.1718 20.4709 30.6854 22.3185C31.199 24.1661 39.9408 30.2455 44.9929 31.5664C49.9776 32.8539 51.6505 30.9957 54.6532 25.9354C57.5543 20.741 57.1761 12.1652 57.1761 12.1652Z" fill="#FBD2C0"/>
<path fill-rule="evenodd" clip-rule="evenodd" d="M54.0461 11.8775C53.3035 11.343 51.789 11.1822 50.6849 12.3985C49.6141 13.5474 50.1943 15.2601 49.589 15.2967C48.9837 15.3333 47.2595 13.5589 46.1871 14.3715C45.1146 15.184 46.5349 16.7244 47.7463 16.8194C48.9245 16.9818 49.0667 18.5621 50.6511 19.2608C52.3029 19.9928 52.6652 18.41 52.6262 17.3002C52.5871 16.1903 52.1151 15.9571 53.4548 14.7733C54.7612 13.6569 53.8097 11.6769 53.8097 11.6769L54.0461 11.8775Z" fill="#E9BDAA"/>
<path fill-rule="evenodd" clip-rule="evenodd" d="M50.103 24.1075C48.825 24.1473 48.7292 25.1906 47.5901 26.138C46.451 27.0854 45.6052 26.0804 44.432 26.9271C43.2588 27.7737 42.3879 28.518 43.7707 29.285C45.0862 30.0186 46.4284 29.3393 47.5707 29.0646C48.7131 28.7899 49.8961 29.9615 50.191 28.3454C50.4858 26.7293 52.0604 25.4098 51.2478 24.3373C50.4353 23.2649 50.103 24.1075 50.103 24.1075Z" fill="#E9BDAA"/>
<path fill-rule="evenodd" clip-rule="evenodd" d="M59.5292 12.857L55.1604 9.73018C55.1604 9.73018 53.4548 12.3063 53.8483 12.5273C54.2417 12.7482 55.3373 17.4024 53.7537 18.5324C52.1701 19.6625 50.9879 19.9241 50.2443 21.8625C49.5367 23.7369 50.075 26.3111 48.9083 27.9277C47.676 29.5075 45.8409 31.0853 41.9825 29.5073C38.0585 27.8924 34.1083 24.3276 34.1083 24.3276C34.1083 24.3276 38.2827 32.5621 43.5559 33.925C48.8291 35.2878 53.6665 26.9819 56.0205 22.3299C58.3448 17.577 59.5292 12.857 59.5292 12.857Z" fill="#EC1651"/>
<path fill-rule="evenodd" clip-rule="evenodd" d="M45.4414 20.1273C43.9911 19.3271 42.6238 21.7557 41.2409 20.9887C39.858 20.2218 41.3676 19.3735 39.0097 18.7123C36.6518 18.051 34.099 18.8035 36.0222 20.0051C37.878 21.1733 38.7165 20.6647 38.8571 21.9086C39.031 23.0851 37.5239 24.4379 39.677 24.4947C41.8301 24.5515 41.5197 22.972 42.7644 22.9996C44.0091 23.0271 43.7842 25.1811 45.3912 23.6259C46.9982 22.0707 45.4414 20.1273 45.4414 20.1273Z" fill="#E9BDAA"/>
<path fill-rule="evenodd" clip-rule="evenodd" d="M62.6 114.504C62.3 114.504 61.6 114.604 61.5 115.204C61.4 115.904 61.5 116.404 61.8 116.904C62.1 117.404 62.6 117.804 63.2 117.404C63.8 116.904 64.2 116.504 64.5 116.004C64.8 115.604 64.2 114.404 63.9 114.304C63.6 114.204 62.6 114.504 62.6 114.504Z" fill="#8EE1A0"/>
<path fill-rule="evenodd" clip-rule="evenodd" d="M58.5 115.804C58.8 116.104 60.1 116.304 60.6 117.204C61.1 118.104 60.6 119.204 60 119.404C59.4 119.604 58.4 119.404 58.1 119.004C57.8 118.604 57.2 118.504 57.2 117.904C57.2 117.204 57.1 117.104 57.4 116.504C57.8 115.804 58.5 115.804 58.5 115.804Z" fill="#8EE1A0"/>
<path fill-rule="evenodd" clip-rule="evenodd" d="M66 117.203C66.9 117.503 67.7 117.803 67.7 119.003C67.7 120.103 67.1 120.903 66.5 120.603C65.8 120.303 65.4 119.403 64.8 119.403C64.2 119.403 64.1 118.603 64.4 118.003C64.7 117.503 66 117.203 66 117.203Z" fill="#8EE1A0"/>
<path fill-rule="evenodd" clip-rule="evenodd" d="M58.7 120.504C58.3 120.604 57 120.704 57 121.504C57 122.304 57.4 123.104 57.8 123.104C58.2 123.104 59.1 122.604 59.6 122.504C60.1 122.404 61.2 122.404 61.3 122.204C61.4 122.004 62 121.504 61.2 121.104C60.5 120.604 58.7 120.504 58.7 120.504Z" fill="#8EE1A0"/>
<path fill-rule="evenodd" clip-rule="evenodd" d="M60.6 47.5036C60.3 47.5036 59.6 47.6036 59.5 48.2036C59.4 48.9036 59.5 49.4036 59.8 49.9036C60.1 50.4036 60.6 50.8036 61.2 50.4036C61.8 49.9036 62.2 49.5036 62.5 49.0036C62.8 48.6036 62.2 47.4036 61.9 47.3036C61.6 47.2036 60.6 47.5036 60.6 47.5036Z" fill="#1B672C"/>
<path fill-rule="evenodd" clip-rule="evenodd" d="M56.5 48.8037C56.8 49.1037 58.1 49.3037 58.6 50.2037C59.1 51.1037 58.6 52.2037 58 52.4037C57.4 52.6037 56.4 52.4037 56.1 52.0037C55.7 51.5037 55.2 51.5037 55.2 50.8037C55.2 50.1037 55.1 50.0037 55.4 49.4037C55.8 48.8037 56.5 48.8037 56.5 48.8037Z" fill="#1B672C"/>
<path fill-rule="evenodd" clip-rule="evenodd" d="M63.9 50.2031C64.8 50.5031 65.6 50.8031 65.6 52.0031C65.6 53.1031 65 53.9031 64.4 53.6031C63.7 53.4031 63.3 52.5031 62.7 52.5031C62.1 52.5031 62 51.7031 62.3 51.1031C62.7 50.5031 63.9 50.2031 63.9 50.2031Z" fill="#1B672C"/>
<path fill-rule="evenodd" clip-rule="evenodd" d="M56.7 53.5039C56.3 53.6039 55 53.7039 55 54.5039C55 55.3039 55.4 56.1039 55.8 56.1039C56.2 56.1039 57.1 55.6039 57.6 55.5039C58.1 55.4039 59.2 55.4039 59.3 55.2039C59.4 55.0039 60 54.5039 59.2 54.1039C58.4 53.7039 56.7 53.5039 56.7 53.5039Z" fill="#1B672C"/>
<path fill-rule="evenodd" clip-rule="evenodd" d="M63.4658 42.7529C71.3734 30.8491 95.0111 31.9544 100.623 43.1781C88.8041 34.6753 72.5638 35.5256 63.4658 42.7529Z" fill="#1B672C"/>
<path fill-rule="evenodd" clip-rule="evenodd" d="M24.6082 50.5752C24.2681 54.4015 24.4381 63.1593 31.5804 66.4754C38.7228 69.7915 46.2052 68.346 49.7764 61.7989C53.3475 55.2517 51.4769 48.4495 49.4363 47.5992C45.8651 46.0687 24.9483 47.0891 24.6082 50.5752Z" fill="#1B672C"/>
<path fill-rule="evenodd" clip-rule="evenodd" d="M32.6858 82.0353C32.5157 80.7599 26.1386 78.2941 21.8022 71.6619C19.6765 68.4309 17.0407 62.3089 15 56.9521C16.3604 78.8043 22.1423 78.2091 23.0776 90.198C23.9279 101.167 30.5601 108.394 41.4436 112.305C36.6821 106.863 34.7264 98.1906 32.6858 82.0353Z" fill="#1B672C"/>
<path fill-rule="evenodd" clip-rule="evenodd" d="M89.3142 82.0353C89.3992 79.3995 95.8613 78.2941 100.198 71.6619C102.323 68.4309 104.959 62.3089 107 56.9521C106.065 80.8449 98.8373 77.954 97.902 89.8579C97.0517 100.826 93.6506 110.265 80.4713 113.326C85.2329 107.969 88.5489 98.0205 89.3142 82.0353Z" fill="#1B672C"/>
<path fill-rule="evenodd" clip-rule="evenodd" d="M59.9797 75.4032C57.769 75.3182 53.3476 76.6786 53.4326 77.6139C53.5176 78.4642 55.3882 79.3145 57.684 78.3792C59.9797 77.3589 59.9797 75.4032 59.9797 75.4032Z" fill="#1B672C"/>
<path fill-rule="evenodd" clip-rule="evenodd" d="M62.9557 75.1483C65.1664 75.0633 69.5879 76.4237 69.5028 77.3591C69.4178 78.2093 67.5472 79.0596 65.2514 78.1243C62.9557 77.104 62.9557 75.1483 62.9557 75.1483Z" fill="#1B672C"/>
<path fill-rule="evenodd" clip-rule="evenodd" d="M51.9871 78.55C51.4769 77.7847 50.9668 76.5093 51.647 75.744C52.2422 74.8938 57.3438 70.7274 57.3438 70.2172C57.3438 69.7071 59.0444 54.9973 58.7893 56.2727C58.4492 57.5481 55.7283 68.6867 54.623 69.622C53.5176 70.6424 51.2218 70.8124 50.0315 74.3836C48.8411 77.9548 51.9871 78.55 51.9871 78.55Z" fill="#1B672C"/>
<path fill-rule="evenodd" clip-rule="evenodd" d="M19.5916 44.0283C27.4991 32.1245 51.1368 33.2298 56.7487 44.4535C44.9298 35.8657 28.6895 36.716 19.5916 44.0283Z" fill="#1B672C"/>
<path fill-rule="evenodd" clip-rule="evenodd" d="M95.4363 49.3002C95.7764 53.1265 95.6063 62.0544 88.464 65.3705C81.3217 68.6866 73.8392 67.3261 70.2681 60.694C66.6969 54.0618 68.5675 47.1746 70.6082 46.3243C74.1793 44.7087 95.0962 45.8141 95.4363 49.3002Z" fill="#1B672C"/>
<path fill-rule="evenodd" clip-rule="evenodd" d="M60.2329 90.8525C54.281 90.9376 48.5841 91.1927 45.7782 91.5328C38.8059 92.383 36 96.5494 36 99.7805C36 103.012 38.2957 110.409 42.292 111.174C46.2033 111.939 50.0296 107.603 60.2329 107.688C70.4362 107.603 74.2625 111.854 78.1738 111.174C82.1701 110.409 84.4658 103.097 84.4658 99.7805C84.4658 96.5494 81.6599 92.383 74.6876 91.5328C71.8817 91.1076 66.1848 90.8525 60.2329 90.8525Z" fill="#D69C9C"/>
<path fill-rule="evenodd" clip-rule="evenodd" d="M60.1479 93.8525C54.1959 93.9376 48.4991 94.1927 45.6932 94.5328C39.3161 95.298 36.4251 98.8692 36 101.93C36.4251 105.501 38.6359 111.538 42.207 112.219C46.1183 112.984 49.9445 108.647 60.1479 108.732C70.3512 108.647 74.1775 112.899 78.0887 112.219C81.7449 111.538 83.9556 105.501 84.2958 101.93C83.8706 98.8692 80.8946 95.298 74.6026 94.5328C71.7967 94.1076 66.0998 93.8525 60.1479 93.8525Z" fill="#5F1C1C"/>
<path fill-rule="evenodd" clip-rule="evenodd" d="M39.0609 94.8739C39.6561 97.7649 40.2513 102.101 41.1866 102.441C42.1219 102.782 44.5877 101.931 44.6727 100.996C44.7578 99.9756 45.2679 98.7002 45.2679 98.7002C45.2679 98.7002 47.4787 101.166 48.0739 101.081C48.669 100.996 50.7097 101.081 50.9648 100.486C51.2199 99.8906 51.73 98.275 51.73 98.275C51.73 98.275 53.0055 100.571 54.1108 100.741C55.2162 100.911 57.4269 101.676 58.1922 100.656C58.9574 99.6355 59.9777 98.275 60.0628 98.6151C60.1478 98.9553 60.2328 100.146 60.828 100.401C61.4232 100.656 64.9093 101.506 65.5045 100.996C66.0997 100.486 66.6099 98.7002 66.6099 98.7002C66.6099 98.7002 67.2051 100.826 67.9703 101.081C68.7356 101.336 72.6469 102.186 73.157 101.251C73.6672 100.316 74.2624 99.5504 74.2624 99.5504C74.2624 99.5504 74.9426 102.016 75.5378 102.016C76.133 102.016 79.4491 103.462 79.9592 101.506C80.4694 99.5504 80.2143 92.8333 79.9592 92.3231C79.7042 91.8129 72.3068 88.837 61.1681 89.007C50.0295 89.2621 39.4861 91.7279 39.316 93.3434C39.0609 94.8739 39.0609 94.8739 39.0609 94.8739Z" fill="white"/>
<path fill-rule="evenodd" clip-rule="evenodd" d="M50.5397 99.8048C50.1146 100.485 48.6691 100.4 48.1589 100.315C47.6488 100.23 45.6931 96.4037 45.4381 96.5737C45.183 96.7438 43.9076 100.57 43.8225 101.08C43.7375 101.59 42.8022 101.93 41.6968 101.675C41.1016 101.59 40.3364 98.9545 39.7412 96.4037C39.4861 95.4684 39.3161 94.5331 39.146 93.7678L38.976 94.8732C39.061 95.3834 39.231 96.0636 39.3161 96.6588C39.8262 99.2946 40.3364 102.186 41.1016 102.441C42.037 102.781 44.5028 101.93 44.5878 100.995C44.6728 99.9749 45.183 98.6994 45.183 98.6994C45.183 98.6994 47.3937 101.165 47.9889 101.08C48.5841 100.995 50.6248 101.08 50.8798 100.485C51.1349 99.8898 51.6451 98.2743 51.6451 98.2743C51.6451 98.2743 52.9205 100.57 54.0259 100.74C55.1312 100.91 57.3419 101.675 58.1072 100.655C58.8724 99.6347 59.8928 98.2743 59.9778 98.6144C60.0628 98.9545 60.1479 100.145 60.743 100.4C61.3382 100.655 64.8244 101.505 65.4196 100.995C66.0148 100.485 66.5249 98.6994 66.5249 98.6994C66.5249 98.6994 67.1201 100.825 67.8854 101.08C68.6506 101.335 72.5619 102.186 73.0721 101.25C73.5822 100.315 74.1774 99.5497 74.1774 99.5497C74.1774 99.5497 74.8577 102.016 75.4529 102.016C76.048 102.016 79.3641 103.461 79.8743 101.505C80.1294 100.57 80.2144 98.4444 80.1294 96.4887C80.1294 95.5534 80.0443 94.6181 80.0443 93.8529C79.9593 94.5331 79.8743 95.3834 79.7893 96.2336C79.5342 98.3593 79.3641 100.57 79.2791 101.165C79.109 102.441 77.4935 101.59 76.4732 100.995C75.6229 100.485 75.6229 96.4887 75.7079 94.7882C75.7079 94.4481 75.7079 94.278 75.793 94.1079C75.793 93.9379 75.7079 94.193 75.4529 94.7031C74.8577 96.1486 73.4122 99.5497 72.817 100.4C71.9667 101.59 69.2458 100.655 68.3955 100.06C67.5453 99.5497 67.2902 94.8732 67.2902 94.5331C67.2902 94.193 65.5046 99.4647 65.0795 100.145C64.6543 100.825 63.2089 100.4 61.6784 99.7198C60.2329 99.0395 60.9981 94.9582 60.9981 94.278C60.9981 93.5978 58.2772 99.2946 57.427 100.06C56.5767 100.825 54.8761 100.145 53.9408 99.3797C53.0906 98.6994 52.1553 95.2983 51.9002 94.1079C51.8151 93.9379 51.8151 93.7678 51.8151 93.6828C51.8151 93.5978 51.8151 93.7678 51.7301 94.1079C51.475 95.3834 50.8798 99.2946 50.5397 99.8048Z" fill="#E6E7E8"/>
<path fill-rule="evenodd" clip-rule="evenodd" d="M42.8022 112.474C42.8872 111.029 41.7818 107.883 43.5674 106.607C45.353 105.332 47.1386 106.948 47.7338 106.607C48.329 106.267 49.0942 104.822 50.5397 104.482C51.9852 104.142 53.1755 104.652 53.1755 104.652C53.1755 104.652 55.0462 104.142 56.0665 103.802C57.0868 103.461 60.3179 102.611 60.9981 103.631C61.5933 104.567 63.1238 105.162 63.4639 104.142C63.889 103.121 65.4195 103.376 65.4195 103.376C65.4195 103.376 70.8613 103.972 71.2014 104.907C71.5415 105.842 72.4768 106.267 73.3271 106.097C74.1774 105.927 76.133 105.587 76.9833 106.012C77.8336 106.437 80.1293 106.863 80.2144 108.138C80.2144 109.413 77.6635 114.26 77.6635 114.26C77.6635 114.26 42.8022 111.879 42.8022 112.474Z" fill="white"/>
<path fill-rule="evenodd" clip-rule="evenodd" d="M42.8022 112.474C42.8872 111.029 41.7818 107.883 43.5674 106.607C45.353 105.332 47.1386 106.948 47.7338 106.607C48.329 106.267 49.0942 104.822 50.5397 104.482C51.9852 104.142 53.1755 104.652 53.1755 104.652C53.1755 104.652 55.0462 104.142 56.0665 103.802C57.0868 103.461 60.3179 102.611 60.9981 103.631C61.5933 104.567 63.1238 105.162 63.4639 104.142C63.889 103.121 65.4195 103.376 65.4195 103.376C65.4195 103.376 70.8613 103.972 71.2014 104.907C71.5415 105.842 72.4768 106.267 73.3271 106.097C74.1774 105.927 76.133 105.587 76.9833 106.012C77.8336 106.437 80.1293 106.863 80.2144 108.138C80.2144 109.328 78.0036 113.58 77.6635 114.175C78.3438 111.964 79.2791 108.733 79.3641 108.563C79.4491 108.308 78.7689 107.458 77.7486 106.948C76.7282 106.522 73.6672 106.778 73.5822 106.863C73.4121 106.948 71.7966 111.114 71.6266 111.624C71.4565 112.219 72.0517 107.713 71.9667 107.033C71.8816 106.267 70.6062 105.247 70.2661 104.992C69.926 104.652 64.6543 103.972 64.1441 104.822C63.719 105.672 63.2088 110.094 63.2088 110.349C63.2088 110.604 62.2735 105.672 61.7633 105.417C61.2532 105.162 60.0628 103.802 59.1275 103.717C58.1922 103.717 54.0258 105.162 54.0258 105.162C54.0258 105.162 53.4306 109.498 53.4306 109.839C53.4306 110.179 52.5803 105.247 52.2402 105.077C51.9001 104.907 50.6247 104.907 49.5194 105.587C48.414 106.267 48.1589 110.264 48.0739 110.774C47.9889 111.199 47.3086 107.373 47.2236 107.118C47.1386 106.863 44.9279 106.522 43.9926 107.033C43.2273 107.458 43.4824 110.774 43.8225 112.304C43.1423 112.389 42.8022 112.389 42.8022 112.474Z" fill="#D0D2D3"/>
<path fill-rule="evenodd" clip-rule="evenodd" d="M25.289 49.8305C24.9489 53.0616 25.1189 60.6291 32.0912 63.435C39.0635 66.2409 46.2908 65.0505 49.777 59.4387C53.2631 53.8269 51.3925 47.9599 49.4368 47.1947C45.8657 45.9193 25.5441 46.8546 25.289 49.8305Z" fill="white"/>
<path fill-rule="evenodd" clip-rule="evenodd" d="M38.8079 57.1439C40.5935 57.1439 42.124 55.6134 42.124 53.8278C42.124 51.9572 40.5935 50.5117 38.8079 50.5117C37.0223 50.5117 35.4918 52.0422 35.4918 53.8278C35.4918 55.6984 36.9373 57.1439 38.8079 57.1439Z" fill="#404041"/>
<path fill-rule="evenodd" clip-rule="evenodd" d="M49.6914 57.2279C46.2052 62.8397 38.9779 64.0301 32.0056 61.2242C26.7339 59.0985 25.3734 54.2519 25.2034 50.5957C25.0333 54.1669 25.6285 60.799 32.0056 63.4349C38.9779 66.2408 46.2052 65.0504 49.6914 59.4386C51.3919 56.7177 51.8171 53.9118 51.562 51.7011C51.3919 53.4016 50.8818 55.3573 49.6914 57.2279Z" fill="#D69C9C"/>
<path fill-rule="evenodd" clip-rule="evenodd" d="M94.842 48.7251C95.1821 51.9561 95.0121 59.5236 88.0398 62.3295C81.0675 65.1354 73.8402 63.945 70.354 58.3332C66.8679 52.7214 68.7385 46.8545 70.6941 46.0892C74.1803 44.8138 94.5019 45.7491 94.842 48.7251Z" fill="white"/>
<path fill-rule="evenodd" clip-rule="evenodd" d="M80.9816 56.5479C83.0223 56.5479 84.6378 54.8473 84.6378 52.8067C84.6378 50.766 82.9373 49.0654 80.9816 49.0654C78.941 49.0654 77.3254 50.766 77.3254 52.8067C77.3254 54.8473 79.026 56.5479 80.9816 56.5479Z" fill="#404041"/>
<path fill-rule="evenodd" clip-rule="evenodd" d="M88.5491 60.7993C81.5768 63.6052 74.3494 62.4148 70.8633 56.803C68.8226 53.4869 68.6526 50.1708 69.1627 47.79C68.0574 50.0858 67.8023 54.2521 70.3531 58.4185C73.8393 64.0303 81.0666 65.2207 88.0389 62.4148C91.7801 60.8843 93.5657 57.9934 94.3309 55.1875C93.3956 57.3982 91.6101 59.5239 88.5491 60.7993Z" fill="#D69C9C"/>
<path fill-rule="evenodd" clip-rule="evenodd" d="M95.3637 86.6589C95.7545 87.5807 96.0929 88.2621 96.6019 87.9833C97.8744 87.2865 98.8427 83.8869 99.2537 82.2869C99.6647 80.687 100.508 79.3285 103.234 77.8952C105.961 76.4619 107.997 75.3469 108.993 72.9481C109.882 70.4889 109.581 67.3659 109.967 64.345C110.426 61.2241 110.367 59.6429 109.422 60.1005C109.077 60.2597 108.655 60.9389 108.268 61.7784C108.388 64.9409 108.312 69.824 107.738 71.5436C106.793 74.1827 101.78 76.4501 99.4478 78.3848C97.4084 79.9201 95.8129 84.7989 95.3637 86.6589Z" fill="#7CCD8E"/>
<path fill-rule="evenodd" clip-rule="evenodd" d="M106.023 64.5542C104.675 67.9527 103.627 72.2927 98.857 73.5C94.1954 74.7677 89.6419 76.0958 89.1054 77.5552C88.5863 79.0948 90.9507 79.9221 92.5831 81.7479C94.2155 83.5738 94.3981 87.8973 95.6706 87.2004C96.9431 86.5035 97.9114 83.1039 98.3224 81.504C98.7334 79.9041 99.5768 78.5455 102.303 77.1122C105.029 75.679 107.065 74.564 108.062 72.1651C108.95 69.706 108.65 66.583 109.036 63.562C109.495 60.4412 109.435 58.8599 108.49 59.3176C107.511 59.615 106.023 64.5542 106.023 64.5542Z" fill="#1B672C"/>
<path fill-rule="evenodd" clip-rule="evenodd" d="M106.909 66.5442C105.707 69.743 104.376 73.2217 100.15 74.3104C95.4888 75.5781 90.9354 76.9062 90.3988 78.3657C89.8797 79.9052 92.2441 80.7325 93.8765 82.5584C94.8596 81.8406 95.8286 80.6226 96.1455 79.4627C96.7828 76.7226 103.648 73.8 106.266 72.3064C108.521 70.8918 107.548 68.1672 106.909 66.5442Z" fill="#7CCD8E"/>
<path fill-rule="evenodd" clip-rule="evenodd" d="M107.6 41.2204C107.3 41.2204 106.6 41.3204 106.5 41.9204C106.4 42.6204 106.5 43.1204 106.8 43.6204C107.1 44.1204 107.6 44.5204 108.2 44.1204C108.8 43.6204 109.2 43.2204 109.5 42.7204C109.8 42.3204 109.2 41.1204 108.9 41.0204C108.6 40.9204 107.6 41.2204 107.6 41.2204Z" fill="#1B672C"/>
<path fill-rule="evenodd" clip-rule="evenodd" d="M103.5 42.4199C103.8 42.7199 105.1 42.9199 105.6 43.8199C106.1 44.7199 105.6 45.8199 105 46.0199C104.4 46.2199 103.4 46.0199 103.1 45.6199C102.8 45.2199 102.2 45.1199 102.2 44.5199C102.2 43.9199 102.1 43.7199 102.4 43.1199C102.8 42.5199 103.5 42.4199 103.5 42.4199Z" fill="#1B672C"/>
<path fill-rule="evenodd" clip-rule="evenodd" d="M111 43.9199C111.9 44.2199 112.7 44.5199 112.7 45.7199C112.7 46.8199 112.1 47.6199 111.5 47.3199C110.8 47.0199 110.4 46.1199 109.8 46.1199C109.2 46.1199 109.1 45.3199 109.4 44.7199C109.7 44.2199 111 43.9199 111 43.9199Z" fill="#1B672C"/>
<path fill-rule="evenodd" clip-rule="evenodd" d="M103.7 47.1201C103.3 47.2201 102 47.3201 102 48.1201C102 48.9201 102.4 49.7201 102.8 49.7201C103.2 49.7201 104.1 49.2201 104.6 49.1201C105.1 49.0201 106.2 49.0201 106.3 48.8201C106.4 48.6201 107 48.1201 106.2 47.7201C105.4 47.3201 103.7 47.1201 103.7 47.1201Z" fill="#1B672C"/>
<defs>
<linearGradient id="paint0_linear" x1="61" y1="7.2832" x2="61" y2="129.283" gradientUnits="userSpaceOnUse">
<stop offset="0.288462" stop-color="#8EE0A0"/>
<stop offset="1" stop-color="#0E5A1F"/>
</linearGradient>
</defs>
</svg>
