<svg width="122" height="125" viewBox="0 0 122 125" fill="none" xmlns="http://www.w3.org/2000/svg">
<circle cx="61" cy="63.7842" r="61" fill="url(#paint0_linear)"/>
<path d="M72.525 50.3842C72.525 50.3842 72.725 50.2842 73.125 49.9842C73.325 49.8842 73.525 49.7842 73.825 49.5842C74.125 49.4842 74.325 49.1842 74.625 49.0842C74.925 48.8842 75.225 48.6842 75.525 48.4842C75.825 48.2842 76.125 47.9842 76.525 47.6842C76.725 47.5842 76.825 47.4842 77.025 47.2842C77.225 47.1842 77.325 46.9842 77.525 46.8842C77.825 46.5842 78.225 46.2842 78.525 45.9842C79.225 45.3842 79.925 44.7842 80.525 44.1842C80.825 43.8842 81.125 43.5842 81.425 43.3842C81.725 43.0842 81.925 42.7842 82.225 42.5842C82.525 42.3842 82.725 42.0842 82.925 41.8842C83.125 41.6842 83.325 41.4842 83.425 41.2842C83.725 40.9842 83.925 40.7842 83.925 40.7842C83.925 40.7842 83.925 40.9842 83.825 41.4842C83.725 41.6842 83.725 41.9842 83.625 42.2842C83.525 42.5842 83.425 42.8842 83.225 43.1842C82.925 43.8842 82.525 44.6842 81.925 45.3842C81.625 45.7842 81.325 46.1842 81.025 46.4842C80.725 46.7842 80.325 47.1842 79.925 47.4842C79.525 47.7842 79.125 48.0842 78.725 48.3842C78.325 48.6842 77.925 48.8842 77.525 49.0842C77.125 49.2842 76.725 49.4842 76.325 49.6842C75.925 49.8842 75.525 49.9842 75.125 50.0842C74.725 50.1842 74.425 50.2842 74.125 50.2842C73.825 50.2842 73.525 50.2842 73.325 50.2842C72.725 50.3842 72.525 50.3842 72.525 50.3842Z" fill="#11141A"/>
<path d="M47.425 50.3838C47.425 50.3838 47.125 50.3838 46.725 50.3838C46.525 50.3838 46.225 50.3838 45.925 50.3838C45.625 50.3838 45.325 50.2838 44.925 50.1838C44.525 50.0838 44.125 49.9838 43.725 49.7838C43.325 49.5838 42.925 49.3838 42.525 49.1838C42.125 48.9838 41.725 48.7838 41.325 48.4838C40.925 48.1838 40.525 47.8838 40.125 47.5838C39.725 47.2838 39.425 46.8838 39.025 46.5838C38.625 46.2838 38.425 45.8838 38.125 45.4838C37.525 44.7838 37.125 43.9838 36.825 43.2838C36.625 42.9838 36.525 42.6838 36.425 42.3838C36.325 42.0838 36.225 41.7838 36.225 41.5838C36.125 41.1838 36.125 40.8838 36.125 40.8838C36.125 40.8838 36.325 41.0838 36.625 41.3838C36.725 41.5838 36.925 41.6838 37.125 41.9838C37.325 42.1838 37.525 42.3838 37.825 42.6838C38.125 42.8838 38.325 43.1838 38.625 43.4838C38.925 43.7838 39.225 43.9838 39.525 44.2838C40.125 44.8838 40.825 45.4838 41.525 46.0838C41.825 46.3838 42.225 46.6838 42.525 46.9838C42.725 47.0838 42.825 47.2838 43.025 47.3838C43.225 47.4838 43.325 47.6838 43.525 47.7838C43.825 47.9838 44.225 48.2838 44.525 48.5838C44.825 48.7838 45.125 48.9838 45.425 49.1838C45.725 49.3838 45.925 49.5838 46.225 49.6838C46.525 49.7838 46.725 49.9838 46.925 50.0838C47.225 50.1838 47.425 50.3838 47.425 50.3838Z" fill="#11141A"/>
<ellipse cx="32.325" cy="64.7842" rx="12" ry="14" fill="black"/>
<ellipse cx="86.2579" cy="65.0488" rx="12" ry="13.0772" transform="rotate(21.3176 86.2579 65.0488)" fill="black"/>
<path d="M32.0249 73.7838C38.4867 73.7838 43.725 68.5455 43.725 62.0838C43.725 55.6221 38.4867 50.3838 32.0249 50.3838C25.5632 50.3838 20.325 55.6221 20.325 62.0838C20.325 68.5455 25.5632 73.7838 32.0249 73.7838Z" fill="white"/>
<path d="M37.125 69.3842C40.3282 69.3842 42.9249 66.7874 42.9249 63.5842C42.9249 60.3809 40.3282 57.7842 37.125 57.7842C33.9217 57.7842 31.325 60.3809 31.325 63.5842C31.325 66.7874 33.9217 69.3842 37.125 69.3842Z" fill="#070000"/>
<circle cx="39.325" cy="62.4844" r="1.5" fill="white"/>
<path d="M87.425 73.7838C93.8867 73.7838 99.125 68.5455 99.125 62.0838C99.125 55.6221 93.8867 50.3838 87.425 50.3838C80.9632 50.3838 75.725 55.6221 75.725 62.0838C75.725 68.5455 80.9632 73.7838 87.425 73.7838Z" fill="white"/>
<path d="M87.9249 63.5842C87.9249 66.7842 85.3249 69.3842 82.1249 69.3842C78.9249 69.3842 76.325 66.7842 76.325 63.5842C76.325 60.3842 78.9249 57.7842 82.1249 57.7842C85.4249 57.8842 87.9249 60.3842 87.9249 63.5842Z" fill="#070000"/>
<circle cx="84.825" cy="62.2842" r="1.5" fill="white"/>
<circle cx="57.0825" cy="77.2842" r="2.5" fill="black"/>
<circle cx="63.7491" cy="77.2842" r="2.5" fill="black"/>
<path d="M78.574 94.8912C78.3151 93.0788 70.4828 91.7842 61.5502 91.7842V97.9982V91.7842C52.6175 91.7842 44.85 93.1435 44.5911 94.8912C44.3321 96.7036 49.9636 104.212 61.5502 104.212C73.2014 104.212 78.8329 96.7036 78.574 94.8912Z" fill="black"/>
<path d="M61.5502 104.212C65.6929 104.212 68.9941 103.241 71.648 101.947C70.8065 100.652 68.7351 97.998 65.6281 97.998C61.5502 97.998 61.5502 99.5516 61.5502 99.5516C61.5502 99.5516 61.5502 97.998 57.4722 97.998C54.3652 97.998 52.2939 100.652 51.4524 101.947C54.1063 103.241 57.4722 104.212 61.5502 104.212Z" fill="#DB846B"/>
<path d="M58.2489 91.8489C58.5078 93.3377 59.0904 96.121 59.3493 96.3152C59.7377 96.5742 60.9675 96.9625 61.2912 96.7036C61.5501 96.5094 61.6148 93.014 61.6148 91.7842C60.4497 91.7842 59.2846 91.7842 58.2489 91.8489Z" fill="white"/>
<path d="M61.5502 91.7842C61.5502 92.9493 61.6149 96.5094 61.8738 96.7036C62.1975 96.9625 63.4273 96.5742 63.8157 96.3152C64.0746 96.121 64.6572 93.3377 64.9161 91.8489C63.8157 91.7842 62.7153 91.7842 61.5502 91.7842Z" fill="white"/>
<path d="M49.3163 100.717C50.5461 101.559 52.0349 102.336 53.7826 102.918C53.3942 100.458 52.3586 93.7266 51.4524 93.7266C50.6109 93.7266 49.7047 98.646 49.3163 100.717Z" fill="white"/>
<path d="M73.4603 100.911C72.2305 101.752 70.7417 102.529 68.994 103.111C69.3824 100.652 70.4181 93.9199 71.3243 93.9199C72.1658 93.9199 73.072 98.8394 73.4603 100.911Z" fill="white"/>
<path d="M81.6421 15.1494C84.8687 12.0584 93.5424 11.2092 97.0119 0C100.481 10.1902 94.0281 25.0339 89.7954 27.6494C85.5626 30.2309 78.9012 17.7989 81.6421 15.1494Z" fill="#1D4591"/>
<path d="M39.3579 15.1494C36.1313 12.0584 27.4576 11.2092 23.9881 0C20.5187 10.1902 26.9719 25.0339 31.2046 27.6494C35.4374 30.2309 42.0988 17.7989 39.3579 15.1494Z" fill="#1D4591"/>
<path d="M101.724 67.6828C100.709 73.1934 98.5471 77.3565 99.3067 78.0008C100.194 78.7949 102.84 80.4151 99.478 80.4366C97.1156 80.6399 98.4782 80.2548 96.7918 83.2388C95.4682 85.6559 96.0907 85.6425 97.4922 87.2895C98.8938 88.9365 97.3941 88.6638 95.5121 87.942C94.5074 87.5062 94.5269 88.5222 93.0856 91.2976C91.7669 93.9687 91.7523 93.2067 93.0264 94.704C94.428 96.3509 95.0748 97.6076 92.4283 95.9874C90.9189 95.2067 91.409 94.7896 89.7178 97.5195C88.0266 100.249 86.7914 100.784 88.0607 102.027C89.2074 103.375 89.3543 104.541 87.7174 103.61C85.8306 102.634 86.8304 102.816 84.8844 105.247C82.9383 107.677 82.0708 107.899 83.3498 109.65C84.5014 111.252 85.2854 113.166 83.3937 111.937C81.5019 110.707 81.6196 110.348 79.5559 113.137C77.4873 115.672 74.8109 118.982 74.6786 118.578C74.5463 118.175 77.9239 112.461 78.8798 110.356C79.2426 109.79 76.2188 107.974 74.827 106.835C73.4352 105.696 77.9197 105.752 79.6743 106.324C80.5516 106.611 80.3016 106.565 82.8506 103.105C83.5761 101.971 82.8214 101.581 79.1751 99.7791C75.5337 98.2311 80.3762 97.4663 83.008 98.3245C85.6447 99.4367 84.2821 99.8218 85.9782 97.3458C87.5469 94.7201 88.4144 94.4982 86.4051 93.6266C84.5182 92.6507 83.5184 92.469 82.7637 92.0786C82.0089 91.6883 85.2291 90.755 87.6061 91.3138C89.9831 91.8725 89.1107 91.8405 90.3118 89.5276C91.6354 87.1105 91.8853 87.156 90.2484 86.2256C88.6115 85.2951 86.9844 84.8727 89.7193 84.6106C92.3267 84.1988 93.0961 85.3512 93.9295 83.3512C94.763 81.3512 95.008 81.1426 93.8808 80.8111C92.6262 80.3299 91.7391 79.5358 90.7247 78.592C89.7103 77.6482 93.337 78.4342 94.8319 78.4528C95.6994 78.2309 95.5866 78.8432 97.2584 75.0972C98.9301 71.3512 100.244 68.4261 100.715 66.993C101.435 65.6053 102.063 65.8459 101.724 67.6828Z" fill="black"/>
<path d="M19.2728 49.3966C22.116 44.9943 25.535 41.9395 25.0671 41.2541C24.5352 40.419 22.6876 38.5527 25.7588 39.1878C27.9823 39.477 26.6066 39.5337 29.1819 37.3707C31.2293 35.6104 30.6574 35.5006 29.9536 33.8537C29.2497 32.2068 30.5214 32.7257 31.985 33.6938C32.7488 34.2527 33.0847 33.4008 35.3641 31.3643C37.4955 29.391 37.2435 30.0298 36.6037 28.5326C35.8998 26.8857 35.7478 25.7112 37.5954 27.5776C38.6991 28.5224 38.1073 28.7754 40.5986 26.8253C43.0899 24.8752 44.4015 24.6688 43.6777 23.3845C43.1018 22.0371 43.3737 21.0355 44.5414 22.1301C45.9211 23.3111 45.0733 22.9651 47.6925 21.3145C50.3118 19.6639 51.1796 19.6472 50.6237 17.937C50.1318 16.3766 50.0837 14.6264 51.3794 16.0204C52.6751 17.4144 52.4432 17.6906 55.2944 15.7638C58.0616 14.0499 61.6526 11.8069 61.6326 12.1696C61.6126 12.5323 56.5461 16.6453 54.9426 18.216C54.4147 18.6187 56.5382 20.7212 57.41 21.9422C58.2818 23.1632 54.2149 22.2454 52.8152 21.4271C52.1154 21.0179 52.3273 21.1044 48.8003 23.4971C47.7446 24.3024 48.2965 24.7748 50.9918 26.9871C53.7712 28.9865 49.0924 28.6842 46.9929 27.4567C44.9774 26.0163 46.353 25.9595 43.9457 27.6967C41.6024 29.5835 40.7346 29.6002 42.2622 30.718C43.6419 31.899 44.4897 32.245 45.0416 32.7174C45.5934 33.1898 42.3343 33.3432 40.3628 32.4151C38.3913 31.487 39.1751 31.6833 37.2756 33.3804C35.2282 35.1408 35.0163 35.0543 36.184 36.1488C37.3517 37.2433 38.6874 37.912 36.1041 37.5995C33.5847 37.4368 33.2848 36.3255 31.8292 37.8329C30.3736 39.3403 30.0777 39.4668 30.9895 39.9625C31.9652 40.6078 32.4971 41.4429 33.093 42.4277C33.6889 43.4125 30.6576 42.052 29.302 41.7461C28.4342 41.7628 28.7501 41.2737 25.9229 44.0755C23.0958 46.8774 20.8804 49.0637 19.9527 50.1685C18.813 51.1867 18.3251 50.864 19.2728 49.3966Z" fill="black"/>
<path d="M10.4015 70.8387C13.1427 72.5452 15.0597 74.6203 15.4771 74.325C15.9861 73.9888 17.1171 72.8315 16.7572 74.73C16.6018 76.1028 16.5527 75.2559 17.9117 76.8203C19.0171 78.0636 19.0789 77.7102 20.0863 77.2597C21.0937 76.8092 20.7871 77.598 20.2056 78.5096C19.8691 78.9859 20.3973 79.1841 21.6753 80.5675C22.9128 81.8604 22.5167 81.7118 23.4325 81.3022C24.4399 80.8517 25.162 80.7461 24.031 81.9034C23.4603 82.5931 23.2984 82.231 24.5252 83.7459C25.7521 85.2608 25.8927 86.0667 26.6765 85.6076C27.5008 85.2391 28.1206 85.3963 27.4582 86.1269C26.7447 86.989 26.9492 86.4632 27.9929 88.0599C29.0366 89.6567 29.0558 90.1911 30.1037 89.8312C31.06 89.5121 32.1377 89.4646 31.2922 90.2771C30.4466 91.0896 30.2741 90.9496 31.4903 92.6864C32.5745 94.3737 33.9931 96.563 33.7695 96.5544C33.5458 96.5458 30.96 93.4666 29.976 92.4947C29.7225 92.1737 28.4489 93.5034 27.7056 94.053C26.9623 94.6026 27.4861 92.0877 27.976 91.217C28.2209 90.7817 28.1698 90.9131 26.6596 88.7647C26.1527 88.1226 25.8673 88.4674 24.5319 90.1506C23.3286 91.8833 23.4669 88.9977 24.2017 87.6917C25.0685 86.4353 25.1175 87.2822 24.0227 85.8169C22.8363 84.3925 22.8171 83.8581 22.1441 84.8107C21.4306 85.6727 21.2262 86.1986 20.9408 86.5434C20.6554 86.8882 20.5275 84.8819 21.0791 83.6578C21.6307 82.4338 21.5178 82.9186 20.4528 81.7658C19.3474 80.5225 19.3985 80.391 18.7361 81.1216C18.0738 81.8522 17.6755 82.6819 17.8416 81.0872C17.916 79.5334 18.5976 79.3373 17.654 78.456C16.7105 77.5746 16.6295 77.3936 16.3335 77.9604C15.9459 78.5682 15.4368 78.9044 14.8362 79.2816C14.2356 79.6587 15.0428 77.7774 15.2174 76.9391C15.1982 76.4046 15.5028 76.5942 13.7477 74.8812C11.9926 73.1681 10.623 71.8256 9.93291 71.2654C9.29392 70.5737 9.48772 70.2698 10.4015 70.8387Z" fill="black"/>
<path d="M12.8933 84.2703C15.6345 85.9768 17.5515 88.0519 17.9689 87.7567C18.478 87.4204 19.6089 86.2631 19.249 88.1617C19.0936 89.5344 19.0446 88.6875 20.4035 90.2519C21.509 91.4953 21.5707 91.1419 22.5781 90.6914C23.5855 90.2409 23.2789 91.0296 22.6975 91.9413C22.3609 92.4175 22.8892 92.6158 24.1672 93.9992C25.4047 95.2921 25.0085 95.1434 25.9243 94.7339C26.9318 94.2834 27.6538 94.1777 26.5229 95.3351C25.9521 96.0247 25.7902 95.6627 27.0171 97.1775C28.2439 98.6924 28.3845 99.4984 29.1683 99.0393C29.9926 98.6707 30.6124 98.828 29.95 99.5586C29.2365 100.421 29.441 99.8948 30.4847 101.492C31.5284 103.088 31.5476 103.623 32.5955 103.263C33.5518 102.944 34.6295 102.896 33.784 103.709C32.9384 104.521 32.7659 104.381 33.9822 106.118C35.0663 107.805 36.4849 109.995 36.2613 109.986C36.0376 109.977 33.4518 106.898 32.4678 105.926C32.2143 105.605 30.9407 106.935 30.1974 107.485C29.4541 108.034 29.9779 105.519 30.4678 104.649C30.7127 104.213 30.6616 104.345 29.1514 102.196C28.6445 101.554 28.3591 101.899 27.0237 103.582C25.8204 105.315 25.9587 102.429 26.6935 101.123C27.5603 99.8669 27.6093 100.714 26.5145 99.2485C25.3281 97.8242 25.3089 97.2897 24.6359 98.2423C23.9224 99.1044 23.718 99.6302 23.4326 99.975C23.1472 100.32 23.0193 98.3136 23.5709 97.0895C24.1225 95.8654 24.0096 96.3503 22.9447 95.1974C21.8392 93.9541 21.8903 93.8226 21.2279 94.5532C20.5656 95.2839 20.1673 96.1136 20.3334 94.5188C20.4079 92.9651 21.0894 92.7689 20.1459 91.8876C19.2023 91.0063 19.1213 90.8253 18.8253 91.3921C18.4377 91.9998 17.9287 92.336 17.328 92.7132C16.7274 93.0904 17.5346 91.209 17.7092 90.3707C17.69 89.8363 17.9946 90.0259 16.2395 88.3128C14.4844 86.5997 13.1148 85.2573 12.4247 84.697C11.7857 84.0053 11.9795 83.7015 12.8933 84.2703Z" fill="black"/>
<defs>
<linearGradient id="paint0_linear" x1="61" y1="2.78418" x2="61" y2="124.784" gradientUnits="userSpaceOnUse">
<stop offset="0.177083" stop-color="#09307C"/>
<stop offset="1" stop-color="#668DDA"/>
</linearGradient>
</defs>
</svg>
