<svg width="127" height="142" viewBox="0 0 127 142" fill="none" xmlns="http://www.w3.org/2000/svg">
<circle cx="61" cy="61" r="61" fill="#EEEEEE"/>
<path d="M116.5 83C118.621 86.2437 129.735 130.472 125.868 129.723C118.382 128.85 111.77 124.608 104.16 123.735C95.6763 122.737 88.9393 123.111 81.8281 127.602C73.594 132.842 65.6094 136.71 56.6268 131.719C49.8898 127.977 41.4062 122.612 33.1722 126.105C29.4294 127.727 29.4294 133.216 26.1857 134.589C22.8172 136.086 19.3239 130.846 17.7021 128.476C10.8403 118.37 9.09371 103.898 7.34709 92.1709C3.85384 68.5914 6.84805 39.2731 19.9477 18.8127C32.7979 -0.774438 60.4943 -2.52106 75.7149 15.569C85.0718 26.6725 87.3175 43.7644 90.686 57.4879C93.1811 67.7181 96.7991 77.075 100.667 86.6815C102.538 91.2975 109.755 84.7582 112.5 89L116.5 83Z" fill="#DCDCDC"/>
<path d="M16.1093 25.2206C21.474 16.737 29.708 11.6219 38.5659 10C30.8309 15.2399 25.3415 23.2244 21.5987 31.9575C16.2341 44.4334 13.9884 58.0321 12.3666 71.5061C11.3685 80.1144 11.3685 88.7228 13.2399 97.2064C15.1113 105.565 18.4797 113.425 23.0958 120.661C23.3453 121.035 23.7196 120.661 23.7196 120.412C23.5948 116.045 22.3473 111.928 21.8482 107.561C21.3492 103.195 19.6026 95.2103 24.0939 94.7112C26.9633 94.4617 28.5852 104.692 31.2051 109.558C33.7003 114.298 37.9421 117.792 41.9344 121.035C47.5485 125.776 54.7846 131.141 62.5196 130.767C65.389 130.642 68.508 130.018 70.3794 127.772C72.0013 125.901 72.6251 123.406 72.5003 121.035C72.3755 112.427 67.8842 104.817 64.1415 97.3311C62.0206 93.0893 55.4083 78.6173 62.6444 72.3794C64.2662 71.007 66.6366 79.8649 67.3852 82.7344C68.7575 88.4733 71.0032 93.9627 73.8727 99.0778C75.9935 102.945 78.4887 106.688 81.3582 110.057C86.8476 116.419 94.4578 122.657 102.941 124.03C105.437 124.404 109.429 124.903 111.3 122.782C112.298 121.784 112.423 120.412 112.174 119.164L116.291 124.903C118.412 128.147 125.523 136.755 121.655 136.006C114.17 135.133 107.558 130.891 99.9472 130.018C91.4636 129.02 84.7267 129.394 77.6154 133.885C69.3813 139.125 61.3968 142.993 52.4141 138.003C45.6772 134.26 37.1936 128.895 28.9595 132.388C25.2167 134.01 25.2167 139.5 21.973 140.872C18.6045 142.369 15.1113 137.129 13.4894 134.759C6.62766 124.653 4.88103 110.181 3.13441 98.454C0.0154419 74.9993 3.00965 45.681 16.1093 25.2206Z" fill="#B6C6D8"/>
<path d="M69.7 51.7C69.7 51.7 85.8 41.5 90.1 37C90.1 37 96.7999 42.9 93.3999 49.7C91.7999 52.7 79.3 53.3 69.7 51.7Z" fill="#C20B0B"/>
<path d="M53.1 51.7C53.1 51.7 37 41.5 32.7 37C32.7 37 26 42.9 29.4 49.7C31 52.7 43.5 53.3 53.1 51.7Z" fill="#C20B0B"/>
<path d="M89.8 64.7998C89.3 67.3998 89 69.9998 88.6 72.3998C87 70.3998 84.2 69.7998 82.1 68.3998C78.8 69.5998 75.2 70.5998 71.5 71.1998C71.1 72.8998 70.6 74.6998 69.9 76.3998C68.7 74.7998 66.9 73.4998 65.6 71.7998C64.5 71.8998 63.3 71.8998 62.2 71.8998C61 73.1998 59.8 74.4998 59.1 76.2998C58.6 74.5998 57.9 73.1998 57.4 71.6998C56.7 71.6998 56 71.5998 55.3 71.4998C54.1 72.8998 53.5 74.6998 52.3 76.1998C51.6 74.4998 51.2 72.6998 50.5 70.8998C46.9 70.2998 43.4 69.2998 40.2 68.0998C39.7 69.8998 39.5 71.7998 38.7 73.3998C37.6 71.1998 36.8 68.7998 36 66.2998C30.9 63.8998 26.5 60.6998 23 56.9998C24.7 66.3998 30.7 74.4998 39.2 79.5998C41.3 78.5998 43.2 77.2998 44.3 74.9998C46.1 77.6998 47.2 80.4998 47.9 83.4998C50.7 84.3998 53.6 84.9998 56.7 85.2998C59 83.1998 60.8 80.7998 63 78.8998C63.4 81.2998 64.7 83.1998 65.4 85.2998C68.1 84.9998 70.7 84.5998 73.2 83.8998C74 81.5998 74.7 79.3998 74.4 76.6998C76.1 78.3998 77.8 80.0998 79.7 81.4998C80.2 81.2998 80.6 81.0998 81 80.7998C81 78.4998 81.7 76.0998 81.7 73.7998C83.6 74.3998 85.4 75.5998 87.1 76.7998C93.6 71.6998 98.1 64.6998 99.5 56.7998C96.9 59.9998 93.6 62.5998 89.8 64.7998Z" fill="black"/>
<path d="M31.3001 50.5C28.5001 44.8 32.6001 39.7 34.1001 38.2C33.6001 37.8 33.2001 37.3 32.8001 37C32.8001 37 26.1001 42.9 29.5001 49.7C29.8001 50.4 30.8001 51 32.2001 51.4C31.8001 51.1 31.4001 50.8 31.3001 50.5Z" fill="#8D8683"/>
<path d="M91.3002 38.3C90.6002 37.5 90.1002 37 90.1002 37C85.8002 41.5 69.7002 51.7 69.7002 51.7C70.5002 51.8 71.3002 52 72.1002 52.1C75.0002 50.2 87.0002 42.4 91.3002 38.3Z" fill="#8D8683"/>
<path d="M59.6002 78.1004C60.2002 76.6004 62.5002 73.0004 63.5002 71.9004C63.1002 71.9004 62.7002 71.9004 62.3002 71.9004C61.7002 72.6004 60.1002 74.2004 59.2002 76.3004C59.4002 76.8004 59.4002 77.5004 59.6002 78.1004Z" fill="#8D8683"/>
<path d="M52.7001 78.1996C53.7001 76.8996 55.7001 72.8996 56.6001 71.6996C56.2001 71.6996 55.8001 71.5996 55.4001 71.5996C54.6001 72.3996 54.1001 73.5996 52.4001 76.2996C52.6001 76.7996 52.6001 77.1996 52.7001 78.1996Z" fill="#8D8683"/>
<path d="M90 73.6C90.3 71.2 91 66.7 91.5 64.1C94.4 62.4 97 60.6 99.3 58.4C99.4 57.9 99.5 57.5 99.6 57C96.9 59.9 93.5 62.5 89.7 64.7C89.4 66.6 88.8 70.5 88.5 72.3C89.2 72.7 89.6 73.1 90 73.6Z" fill="#8D8683"/>
<path d="M71.0002 77.7998C71.7002 76.1998 72.9001 72.3998 73.2001 70.7998C72.6001 70.8998 72.1002 70.9998 71.5002 71.0998C71.2002 72.1998 70.9001 73.5998 69.9001 76.2998C70.3001 76.6998 70.6002 77.2998 71.0002 77.7998Z" fill="#8D8683"/>
<path d="M39.7001 75.4002C40.7001 73.6002 41.5 70.1002 41.8 68.7002C41.3 68.5002 40.8 68.4002 40.3 68.2002C40.1 69.1002 39.7 71.3002 38.8 73.5002C39.1 74.1002 39.4001 74.8002 39.7001 75.4002Z" fill="#8D8683"/>
<path d="M74.7 74.7002C74.7 75.1002 74.6 76.1002 74.5 76.9002C76.1 78.6002 78.6 80.8002 79.8 81.7002C80.3 81.5002 80.7 81.3002 81.1 81.0002C81.1 80.9002 81.1 80.8002 81.1 80.7002C79.4 79.3002 76.3 76.2002 74.7 74.7002Z" fill="#8D8683"/>
<path d="M81.5 72.4004C81.7 72.8004 81.9 73.6004 81.8 74.0004C84.3 74.9004 86 76.2004 87.2 77.0004C87.6 76.7004 88 76.3004 88.4 76.0004C86.9 75.0004 83.9 73.1004 81.5 72.4004Z" fill="#8D8683"/>
<path d="M49.8 82.9996C49.1 79.9996 47.6 76.2996 45.8 73.5996C45.4 73.9996 44.9 74.5996 44.5 75.0996C46.8 78.6996 47.5 80.9996 48.1 83.5996C50.9 84.4996 53.8 85.0996 56.9 85.3996C57.2 85.1996 57.4 84.8996 57.7 84.5996C54.9 84.3996 52.3 83.7996 49.8 82.9996Z" fill="#8D8683"/>
<path d="M25.6001 59.4996C24.7001 58.6996 23.9001 57.8996 23.1001 57.0996C24.8001 66.4996 30.8001 74.5996 39.3001 79.6996C39.8001 79.3996 40.3001 79.1996 40.8001 78.8996C33.4001 74.2996 27.9001 67.4996 25.6001 59.4996Z" fill="#8D8683"/>
<path d="M67.3002 84.9002C66.6002 82.8002 65.0002 79.7002 64.6002 77.2002C64.1002 77.9002 63.2002 79.1002 63.2002 79.1002C63.6002 81.5002 65.0002 83.7002 65.6002 85.5002C68.3002 85.2002 70.9002 84.8002 73.4002 84.1002C73.4002 84.0002 73.4002 84.0002 73.5002 83.9002C71.4002 84.4002 69.4002 84.7002 67.3002 84.9002Z" fill="#8D8683"/>
</svg>
