<svg width="122" height="122" viewBox="0 0 122 122" fill="none" xmlns="http://www.w3.org/2000/svg">
<circle cx="61" cy="61" r="61" fill="url(#paint0_linear)"/>
<path d="M60.8082 70.0645C45.4286 70.0645 34.8371 76.0131 37.3761 88.5634C39.9878 101.114 54.0615 103 60.8082 103C67.5548 103 81.6285 101.114 84.2402 88.5634C86.8518 76.0131 76.1877 70.0645 60.8082 70.0645Z" fill="#053B11"/>
<path d="M60.808 103C65.5235 103 73.7936 102.057 79.307 97.196C79.1619 96.6882 76.4777 88.7808 69.0782 88.4181C61.4609 88.0554 60.808 91.5375 60.808 91.5375C60.808 91.5375 60.1551 88.0554 52.5379 88.4181C45.2109 88.7808 42.5267 96.6882 42.3091 97.196C47.8225 102.057 56.1652 103 60.808 103Z" fill="#F58D61"/>
<path d="M40.8584 95.6733C40.8584 95.6733 42.5995 89.9423 43.5426 90.7403C44.4856 91.4657 44.6307 98.9379 44.6307 98.9379C44.6307 98.9379 41.9466 97.0517 40.8584 95.6733Z" fill="white"/>
<path d="M45.9365 99.6622C45.9365 99.6622 47.7501 91.1744 48.5481 92.5527C49.4187 93.8586 50.5794 101.693 50.5794 101.693C50.5794 101.693 47.1698 100.388 45.9365 99.6622Z" fill="white"/>
<path d="M52.1028 101.984C52.1028 101.984 53.4811 93.9314 54.4242 93.7138C55.3673 93.4961 57.1809 102.709 57.1809 102.709C57.1809 102.709 53.1184 102.129 52.1028 101.984Z" fill="white"/>
<path d="M81.1932 95.6733C81.1932 95.6733 79.4522 89.9423 78.5091 90.7403C77.566 91.4657 77.4209 98.9379 77.4209 98.9379C77.4209 98.9379 80.1051 97.0517 81.1932 95.6733Z" fill="white"/>
<path d="M76.115 99.6622C76.115 99.6622 74.3014 91.1744 73.5034 92.5527C72.6329 93.8586 71.4722 101.693 71.4722 101.693C71.4722 101.693 74.8092 100.388 76.115 99.6622Z" fill="white"/>
<path d="M69.9487 101.984C69.9487 101.984 68.5704 93.9314 67.6273 93.7138C66.6842 93.4961 64.8706 102.709 64.8706 102.709C64.8706 102.709 68.8606 102.129 69.9487 101.984Z" fill="white"/>
<path d="M58.9219 102.928C58.9219 102.928 59.5022 94.8027 60.8806 94.8027C62.1864 94.8027 63.8549 102.855 63.8549 102.855C63.8549 102.855 60.1551 103 58.9219 102.928Z" fill="white"/>
<path d="M40.2056 76.5212C40.2056 76.5212 41.5114 83.4855 42.7446 83.1228C43.9054 82.7601 44.9935 73.0391 44.9935 73.0391C44.9935 73.0391 41.8016 74.4174 40.2056 76.5212Z" fill="white"/>
<path d="M45.9365 72.6763C45.9365 72.6763 46.8071 81.1641 47.6051 81.3092C48.4756 81.3092 51.1598 71.0078 51.1598 71.0078C51.1598 71.0078 47.6051 71.6607 45.9365 72.6763Z" fill="white"/>
<path d="M52.1028 70.7899C52.1028 70.7899 53.336 80.2933 54.6419 80.2207C55.9477 80.1482 57.5437 70.0645 57.5437 70.0645C57.5437 70.0645 53.5537 70.4997 52.1028 70.7899Z" fill="white"/>
<path d="M81.4835 76.5212C81.4835 76.5212 80.1777 83.4855 78.9444 83.1228C77.7837 82.7601 76.6956 73.0391 76.6956 73.0391C76.6956 73.0391 79.9601 74.4174 81.4835 76.5212Z" fill="white"/>
<path d="M75.825 72.6761C75.825 72.6761 74.9545 81.1638 74.1565 81.3089C73.286 81.3815 70.6018 71.0801 70.6018 71.0801C70.6018 71.0801 74.1565 71.6604 75.825 72.6761Z" fill="white"/>
<path d="M69.6586 70.7899C69.6586 70.7899 68.4254 80.2933 67.1196 80.2207C65.8138 80.1482 64.2178 70.0645 64.2178 70.0645C64.2178 70.0645 68.1352 70.4997 69.6586 70.7899Z" fill="white"/>
<path d="M58.1965 70.0645C58.1965 70.0645 59.6474 79.5679 60.8081 79.4953C61.9689 79.4228 63.7825 70.0645 63.7825 70.0645C63.7825 70.0645 60.0827 69.9194 58.1965 70.0645Z" fill="white"/>
<ellipse cx="82.2607" cy="47.2763" rx="12" ry="10.6354" transform="rotate(-14.3439 82.2607 47.2763)" fill="#125A01"/>
<ellipse cx="40.1842" cy="45.977" rx="12" ry="10.3265" transform="rotate(-14.3439 40.1842 45.977)" fill="#125A01"/>
<ellipse cx="40.2827" cy="46.3621" rx="12" ry="10.724" transform="rotate(-14.3439 40.2827 46.3621)" fill="#125A01"/>
<path fill-rule="evenodd" clip-rule="evenodd" d="M26.1094 38.1919C25.7693 41.4229 25.9394 48.9904 32.9116 51.7963C39.8839 54.6022 47.1113 53.4118 50.5974 47.8C54.0835 42.1882 52.2129 36.3213 50.2573 35.556C46.6861 34.2806 26.3645 35.2159 26.1094 38.1919Z" fill="#C20B0B"/>
<path fill-rule="evenodd" clip-rule="evenodd" d="M39.6281 45.5052C41.4137 45.5052 42.9442 43.9747 42.9442 42.1891C42.9442 40.3185 41.4137 38.873 39.6281 38.873C37.8425 38.873 36.312 40.4035 36.312 42.1891C36.312 44.0597 37.7575 45.5052 39.6281 45.5052Z" fill="#404041"/>
<path fill-rule="evenodd" clip-rule="evenodd" d="M50.5117 45.5892C47.0256 51.201 39.7982 52.3914 32.8259 49.5855C27.5542 47.4598 26.1938 42.6132 26.0237 38.957C25.8536 42.5282 26.4488 49.1604 32.8259 51.7962C39.7982 54.6021 47.0256 53.4117 50.5117 47.7999C52.2122 45.079 52.6374 42.2731 52.3823 40.0624C52.2122 41.7629 51.7021 43.7186 50.5117 45.5892Z" fill="#053B11"/>
<path fill-rule="evenodd" clip-rule="evenodd" d="M95.4782 39.1919C95.8183 42.4229 95.6483 49.9904 88.676 52.7963C81.7037 55.6022 74.4764 54.4118 70.9903 48.8C67.5041 43.1882 69.3747 37.3213 71.3304 36.556C74.8165 35.2806 95.1381 36.2159 95.4782 39.1919Z" fill="#BE0C0C"/>
<path fill-rule="evenodd" clip-rule="evenodd" d="M81.6179 47.0147C83.6585 47.0147 85.2741 45.3141 85.2741 43.2734C85.2741 41.2328 83.5735 39.5322 81.6179 39.5322C79.5772 39.5322 77.9617 41.2328 77.9617 43.2734C77.9617 45.3141 79.6622 47.0147 81.6179 47.0147Z" fill="#404041"/>
<path fill-rule="evenodd" clip-rule="evenodd" d="M89.1852 51.2661C82.2129 54.072 74.9855 52.8816 71.4994 47.2698C69.4587 43.9537 69.2887 40.6376 69.7988 38.2568C68.6935 40.5526 68.4384 44.7189 70.9892 48.8853C74.4754 54.4971 81.7027 55.6875 88.675 52.8816C92.4162 51.3511 94.2018 48.4602 94.9671 45.6543C94.0317 47.865 92.2462 49.9907 89.1852 51.2661Z" fill="#053B11"/>
<path fill-rule="evenodd" clip-rule="evenodd" d="M63.8743 35.4697C71.7818 23.5659 95.4196 24.6712 101.031 35.8949C89.2125 27.3921 72.9722 28.2424 63.8743 35.4697Z" fill="#053B11"/>
<path fill-rule="evenodd" clip-rule="evenodd" d="M20 36.7451C27.9076 24.8412 51.5453 25.9466 57.1571 37.1703C45.3383 28.5825 29.098 29.4327 20 36.7451Z" fill="#053B11"/>
<circle cx="57.5" cy="61.5" r="2.5" fill="#053B11"/>
<circle cx="64.1665" cy="61.5" r="2.5" fill="#053B11"/>
<defs>
<linearGradient id="paint0_linear" x1="61" y1="0" x2="61" y2="122" gradientUnits="userSpaceOnUse">
<stop stop-color="#2AD000"/>
<stop offset="1" stop-color="#0A3200"/>
</linearGradient>
</defs>
</svg>
