<?xml version="1.0" encoding="iso-8859-1"?>
<!-- Generator: Adobe Illustrator 19.0.0, SVG Export Plug-In . SVG Version: 6.00 Build 0)  -->
<svg version="1.1" id="Layer_1" xmlns="http://www.w3.org/2000/svg" xmlns:xlink="http://www.w3.org/1999/xlink" x="0px" y="0px"
	 viewBox="0 0 512 512" style="enable-background:new 0 0 512 512;" xml:space="preserve">
<path style="fill:#00C279;" d="M122.247,303.908V471.73h12.944c0,22.24,18.029,40.27,40.27,40.27s40.27-18.029,40.27-40.27
	c0,22.24,18.029,40.27,40.27,40.27s40.27-18.029,40.27-40.27c0,22.24,18.029,40.27,40.27,40.27c22.24,0,40.27-18.029,40.27-40.27
	h12.944V303.908H122.247z"/>
<path style="opacity:0.3;fill:#20272E;enable-background:new    ;" d="M389.753,471.73V303.908H122.247V471.73h12.944
	c0,12.038,5.288,22.833,13.66,30.212c5.029-8.941,7.913-19.243,7.913-30.212v-40.766c0-54.718,44.517-99.235,99.236-99.235
	s99.236,44.517,99.236,99.235v40.766c0,10.968,2.884,21.271,7.913,30.212c8.372-7.378,13.66-18.175,13.66-30.212H389.753z"/>
<path style="fill:#008678;" d="M135.191,471.73v-40.766c0-66.721,54.088-120.809,120.809-120.809l0,0
	c66.721,0,120.809,54.088,120.809,120.809v40.766c0,22.24,18.029,40.27,40.27,40.27c22.24,0,40.27-18.029,40.27-40.27V201.348
	c0-18.101-2.402-35.637-6.882-52.325C427.429,63.195,349.101,0,256,0l0,0C162.899,0,84.571,63.193,61.533,149.024l-0.165,0.603
	c-4.379,16.503-6.716,33.839-6.716,51.722V471.73c0,22.24,18.029,40.27,40.27,40.27S135.191,493.971,135.191,471.73z"/>
<g>
	<circle style="fill:#20272E;" cx="159.942" cy="287.986" r="17.973"/>
	<circle style="fill:#20272E;" cx="352.058" cy="287.986" r="17.973"/>
	<path style="fill:#20272E;" d="M192.719,372.864c0,17.602,7.192,33.522,18.792,44.993c9.719-8.495,26.017-14.07,44.489-14.07
		s34.769,5.574,44.489,14.07c11.599-11.471,18.792-27.389,18.792-44.993H192.719z"/>
</g>
<path style="fill:#FF738D;" d="M300.489,417.857c-9.719-8.495-26.017-14.07-44.489-14.07s-34.769,5.574-44.489,14.07
	c11.431,11.304,27.142,18.29,44.489,18.29S289.059,429.161,300.489,417.857z"/>
<g>
	<path style="opacity:0.3;fill:#20272E;enable-background:new    ;" d="M54.652,471.73c0,22.24,18.029,40.27,40.27,40.27l0,0
		c22.24,0,40.27-18.029,40.27-40.27l0,0H54.652z"/>
	<path style="opacity:0.3;fill:#20272E;enable-background:new    ;" d="M376.809,471.73c0,22.24,18.029,40.27,40.27,40.27l0,0
		c22.24,0,40.27-18.029,40.27-40.27l0,0H376.809z"/>
	<path style="opacity:0.3;fill:#20272E;enable-background:new    ;" d="M450.467,149.024C427.429,63.195,349.102,0.001,256.003,0
		v512c22.239-0.001,40.267-18.031,40.267-40.27c0,22.24,18.029,40.27,40.27,40.27c22.24,0,40.27-18.029,40.27-40.27
		c0,22.24,18.029,40.27,40.27,40.27c22.24,0,40.27-18.029,40.27-40.27V201.348C457.348,183.247,454.947,165.711,450.467,149.024z"/>
</g>
<g>
</g>
<g>
</g>
<g>
</g>
<g>
</g>
<g>
</g>
<g>
</g>
<g>
</g>
<g>
</g>
<g>
</g>
<g>
</g>
<g>
</g>
<g>
</g>
<g>
</g>
<g>
</g>
<g>
</g>
</svg>
