<svg width="122" height="138" viewBox="0 0 122 138" fill="none" xmlns="http://www.w3.org/2000/svg">
<circle cx="61" cy="77" r="61" fill="url(#paint0_linear)"/>
<path d="M33.7 90.9996C40.1617 90.9996 45.4 85.7613 45.4 79.2996C45.4 72.8379 40.1617 67.5996 33.7 67.5996C27.2383 67.5996 22 72.8379 22 79.2996C22 85.7613 27.2383 90.9996 33.7 90.9996Z" fill="#11141A"/>
<path d="M35.3 82.3998C38.5033 82.3998 41.1 79.8031 41.1 76.5998C41.1 73.3966 38.5033 70.7998 35.3 70.7998C32.0967 70.7998 29.5 73.3966 29.5 76.5998C29.5 79.8031 32.0967 82.3998 35.3 82.3998Z" fill="white"/>
<path d="M89.0999 90.9996C95.5616 90.9996 100.8 85.7613 100.8 79.2996C100.8 72.8379 95.5616 67.5996 89.0999 67.5996C82.6382 67.5996 77.3999 72.8379 77.3999 79.2996C77.3999 85.7613 82.6382 90.9996 89.0999 90.9996Z" fill="#11141A"/>
<path d="M96.9999 76.5998C96.9999 79.7998 94.3999 82.3998 91.1999 82.3998C87.9999 82.3998 85.3999 79.7998 85.3999 76.5998C85.3999 73.3998 87.9999 70.7998 91.1999 70.7998C94.4999 70.8998 96.9999 73.3998 96.9999 76.5998Z" fill="white"/>
<path d="M74.2002 67.6C74.2002 67.6 74.4002 67.5 74.8002 67.2C75.0002 67.1 75.2002 67 75.5002 66.8C75.8002 66.7 76.0002 66.4 76.3002 66.3C76.6002 66.1 76.9002 65.9 77.2002 65.7C77.5002 65.5 77.8002 65.2 78.2002 64.9C78.4002 64.8 78.5002 64.7 78.7002 64.5C78.9002 64.4 79.0002 64.2 79.2002 64.1C79.5002 63.8 79.9002 63.5 80.2002 63.2C80.9002 62.6 81.6002 62 82.2002 61.4C82.5002 61.1 82.8002 60.8 83.1002 60.6C83.4002 60.3 83.6002 60 83.9002 59.8C84.2002 59.6 84.4002 59.3 84.6002 59.1C84.8002 58.9 85.0002 58.7 85.1002 58.5C85.4002 58.2 85.6002 58 85.6002 58C85.6002 58 85.6002 58.2 85.5002 58.7C85.4002 58.9 85.4002 59.2 85.3002 59.5C85.2002 59.8 85.1002 60.1 84.9002 60.4C84.6002 61.1 84.2002 61.9 83.6002 62.6C83.3002 63 83.0002 63.4 82.7002 63.7C82.4002 64 82.0002 64.4 81.6002 64.7C81.2002 65 80.8002 65.3 80.4002 65.6C80.0002 65.9 79.6002 66.1 79.2002 66.3C78.8002 66.5 78.4002 66.7 78.0002 66.9C77.6002 67.1 77.2002 67.2 76.8002 67.3C76.4002 67.4 76.1002 67.5 75.8002 67.5C75.5002 67.5 75.2002 67.5 75.0002 67.5C74.4002 67.6 74.2002 67.6 74.2002 67.6Z" fill="#11141A"/>
<path d="M49.1 67.5996C49.1 67.5996 48.8001 67.5996 48.4001 67.5996C48.2001 67.5996 47.9 67.5996 47.6 67.5996C47.3 67.5996 47 67.4996 46.6 67.3996C46.2 67.2996 45.8001 67.1996 45.4001 66.9996C45.0001 66.7996 44.6 66.5996 44.2 66.3996C43.8 66.1996 43.4 65.9996 43 65.6996C42.6 65.3996 42.2 65.0996 41.8 64.7996C41.4 64.4996 41.1 64.0996 40.7 63.7996C40.3 63.4996 40.1 63.0996 39.8 62.6996C39.2 61.9996 38.8 61.1996 38.5 60.4996C38.3 60.1996 38.2 59.8996 38.1 59.5996C38 59.2996 37.9 58.9996 37.9 58.7996C37.8 58.3996 37.8 58.0996 37.8 58.0996C37.8 58.0996 38 58.2996 38.3 58.5996C38.4 58.7996 38.6 58.8996 38.8 59.1996C39 59.3996 39.2 59.5996 39.5 59.8996C39.8 60.0996 40 60.3996 40.3 60.6996C40.6 60.9996 40.9 61.1996 41.2 61.4996C41.8 62.0996 42.5 62.6996 43.2 63.2996C43.5 63.5996 43.9 63.8996 44.2 64.1996C44.4 64.2996 44.5 64.4996 44.7 64.5996C44.9 64.6996 45 64.8996 45.2 64.9996C45.5 65.1996 45.9 65.4996 46.2 65.7996C46.5 65.9996 46.8 66.1996 47.1 66.3996C47.4 66.5996 47.6001 66.7996 47.9001 66.8996C48.2001 66.9996 48.4 67.1996 48.6 67.2996C48.9 67.3996 49.1 67.5996 49.1 67.5996Z" fill="#11141A"/>
<path d="M80.3598 31.922C87.1926 25.4087 105.56 23.6194 112.907 0C120.255 21.4722 106.589 52.75 97.6255 58.2612C88.662 63.7008 74.5555 37.5047 80.3598 31.922Z" fill="#11141A"/>
<path d="M43.6324 31.922C36.7866 25.4803 18.4576 23.6194 11.0965 0C3.7354 21.4722 17.427 52.75 26.4075 58.2612C35.388 63.7008 49.4477 37.5047 43.6324 31.922Z" fill="#11141A"/>
<path fill-rule="evenodd" clip-rule="evenodd" d="M61.4642 117.933C44.7735 117.933 41.5805 104.944 41 104.871C47.1683 105.96 53.6994 108.137 61.0288 108.137C68.3582 108.137 75.615 105.96 81.7833 104.871C80.1143 107.048 76.0504 117.933 61.4642 117.933Z" fill="#C72625"/>
<path fill-rule="evenodd" clip-rule="evenodd" d="M61.4642 114.958C56.3844 114.958 51.2321 113.507 46.5877 110.169C44.6284 108.718 42.7416 106.976 41.0725 104.799C47.2408 105.887 54.1348 106.54 61.4642 106.54C68.7936 106.54 75.6875 105.887 81.8558 104.799C80.1142 106.976 78.3 108.718 76.3406 110.169C71.6963 113.507 66.5439 114.958 61.4642 114.958Z" fill="black"/>
<path fill-rule="evenodd" clip-rule="evenodd" d="M47.6763 104C47.6763 104 47.7488 106.685 48.7648 108.427C49.7082 110.168 50.5064 110.749 50.5064 110.749L50.9418 104.871L47.6763 104Z" fill="#FDCF9D"/>
<path fill-rule="evenodd" clip-rule="evenodd" d="M75.1796 104.001C75.1796 104.001 75.1071 106.686 74.0911 108.428C73.1477 110.169 72.3495 110.75 72.3495 110.75L71.9141 104.872L75.1796 104.001Z" fill="#FDCF9D"/>
<defs>
<linearGradient id="paint0_linear" x1="61" y1="16" x2="61" y2="138" gradientUnits="userSpaceOnUse">
<stop stop-color="#8E1212"/>
<stop offset="0.854167" stop-color="#CB0909"/>
<stop offset="1" stop-color="#AD0A0A"/>
</linearGradient>
</defs>
</svg>
