<svg width="275" height="275" viewBox="0 0 275 275" fill="none" xmlns="http://www.w3.org/2000/svg">
<path d="M269.622 103.893C269.622 103.893 243.373 99.9527 236.179 124.044C236.096 124.387 235.699 124.533 235.435 124.325C231.819 121.979 211.684 110.458 197.967 133.852C197.85 134.041 197.606 134.152 197.377 134.097C195.173 133.422 183.766 130.025 174.133 131.024L174.183 130.31L175.792 108.869C175.792 108.869 175.792 108.869 175.855 108.909C176.512 109.188 182.222 111.263 188.87 109.014C191.919 107.98 195.238 106.02 198.264 102.561C198.771 101.957 199.278 101.353 199.773 100.697C199.864 100.622 199.891 100.508 199.981 100.433C202.849 96.5245 205.412 91.0667 207.398 83.5825C207.601 82.8329 208.159 82.2169 208.864 81.9991C209.261 81.8526 209.812 81.6705 210.414 81.4764C210.618 81.4288 210.862 81.3181 211.118 81.2586C219.899 78.6754 243.713 74.4316 263.882 96.8018C263.882 96.8018 263.894 96.853 263.945 96.8411C265.545 98.6295 267.13 100.584 268.699 102.703C268.711 102.755 268.774 102.794 268.774 102.794C269.074 103.156 269.373 103.519 269.622 103.893Z" fill="#424141"/>
<path opacity="0.39" d="M268.825 102.781C268.813 102.73 268.75 102.691 268.75 102.691C267.993 101.516 266.412 99.3455 263.996 96.8286C263.996 96.8286 263.984 96.7773 263.933 96.7892C256.172 88.6555 239.496 76.7082 211.169 81.246C210.964 81.2936 210.696 81.3018 210.492 81.3494C210.492 81.3494 210.504 81.4007 210.464 81.4638C209.986 82.6555 205.973 92.556 199.981 100.432C199.891 100.507 199.863 100.622 199.773 100.697C199.278 101.352 198.771 101.956 198.264 102.56C195.887 105.328 193.3 107.658 190.551 109.054L188.87 109.013C182.222 111.262 176.563 109.175 175.854 108.908L175.803 108.92L174.194 130.361C175.642 126.837 180.775 115.488 186.338 114.139C192.669 112.613 195.376 121.274 195.495 121.786C195.428 121.262 194.002 112.086 197.269 108.734C198.487 107.478 200.701 106.098 203.482 105.073C203.847 106.879 206.844 108.18 210.374 108.061C214.121 107.946 217.129 106.274 217.048 104.294C222.186 105.529 227.558 108.709 232.215 115.08C233.976 101.976 247.434 93.9835 259.645 98.759C264.556 100.642 268.372 102.455 269.334 103.581C269.322 103.53 269.148 103.246 268.825 102.781Z" fill="#363535"/>
<path d="M272.509 105.654C272.509 105.654 272.261 105.28 271.764 104.531C271.267 103.782 270.533 102.711 269.524 101.379C267.505 98.7155 264.383 95.0125 259.951 91.2362C257.74 89.3738 255.199 87.4802 252.324 85.7724C249.448 84.0646 246.29 82.5307 242.872 81.2732C239.454 80.0157 235.788 79.0859 231.99 78.5113C228.191 77.9366 224.322 77.7564 220.434 77.9588C218.521 78.0797 216.569 78.2637 214.641 78.5502C212.713 78.8368 210.82 79.2771 208.9 79.8318L208.554 79.9663L208.401 80.002L208.298 80.0258L208.145 80.0615C207.748 80.208 207.374 80.457 207.052 80.694C206.367 81.2313 205.884 81.9379 205.653 82.8019L205.438 83.5003L205.261 84.1355C205.14 84.5418 205.03 84.9995 204.909 85.4058C204.447 87.1339 203.973 88.8107 203.436 90.4481C202.413 93.711 201.075 96.7772 199.299 99.351C197.524 101.925 195.35 103.943 193.097 105.385C190.843 106.828 188.526 107.529 186.445 107.851C185.41 108.038 184.442 108.047 183.513 107.993C182.596 107.991 181.808 107.85 181.072 107.697C179.612 107.442 178.485 107.002 177.828 106.723C177.107 106.405 176.843 106.196 176.906 106.235C175.54 105.689 173.962 106.326 173.417 107.695C172.872 109.065 173.507 110.645 174.874 111.192C174.937 111.231 175.508 111.368 176.524 111.564C177.527 111.709 178.976 111.912 180.759 111.929C181.676 111.932 182.683 111.859 183.742 111.775C184.84 111.628 185.977 111.417 187.193 111.08C188.357 110.755 189.549 110.316 190.717 109.774C190.891 110.058 191.088 110.444 191.298 110.882C191.593 111.461 191.964 112.131 192.296 112.864C192.627 113.597 193.034 114.421 193.326 115.217C193.524 115.603 193.67 116.002 193.828 116.451C193.974 116.849 194.12 117.247 194.266 117.645C194.412 118.044 194.495 118.402 194.63 118.749C194.764 119.096 194.796 119.467 194.918 119.762C194.99 120.07 195.061 120.377 195.12 120.634C195.18 120.89 195.176 121.107 195.224 121.312C195.256 121.683 195.303 121.888 195.303 121.888C195.327 121.99 195.402 122.081 195.516 122.108C195.63 122.136 195.76 121.997 195.787 121.883C195.787 121.883 195.791 121.666 195.861 121.272C195.865 121.055 195.92 120.826 195.911 120.558C195.903 120.29 195.934 119.958 195.914 119.639C195.894 119.319 195.862 118.949 195.818 118.527C195.786 118.156 195.742 117.734 195.647 117.324C195.603 116.902 195.508 116.492 195.453 116.019C195.358 115.609 195.302 115.136 195.195 114.674C194.993 113.803 194.779 112.881 194.589 112.06C194.399 111.24 194.17 110.483 193.965 109.829C193.759 109.175 193.589 108.674 193.494 108.264C193.919 108.003 194.344 107.742 194.756 107.43C197.206 105.672 199.411 103.322 201.367 100.598C203.336 97.9258 205.17 94.9063 206.767 91.5637C207.52 89.9299 208.25 88.1936 208.815 86.4418C208.948 86.0867 209.03 85.7435 209.163 85.3883C209.238 85.4789 209.353 85.5064 209.427 85.597C210.231 86.2743 211.425 87.2389 212.792 88.4873C215.566 90.9209 219.101 94.3118 222.286 98.0543C223.098 98.9997 223.848 99.9058 224.608 100.863C225.369 101.82 226.079 102.79 226.726 103.72C228.031 105.631 229.108 107.487 229.921 109.134C230.118 109.52 230.276 109.97 230.474 110.356C230.671 110.742 230.805 111.089 230.939 111.436C231.208 112.13 231.402 112.733 231.583 113.285C231.753 113.786 231.797 114.207 231.92 114.503C231.979 114.759 232.015 114.913 232.015 114.913C232.05 115.067 232.176 115.146 232.33 115.11C232.483 115.074 232.562 114.948 232.577 114.782C232.577 114.782 232.542 114.628 232.521 114.309C232.45 114.001 232.457 113.568 232.339 113.055C232.208 112.491 232.117 111.864 231.887 111.107C231.804 110.749 231.709 110.339 231.563 109.94C231.417 109.542 231.31 109.081 231.152 108.632C230.52 106.834 229.612 104.777 228.488 102.715C227.919 101.659 227.3 100.615 226.669 99.5195C226.038 98.4239 225.316 97.4034 224.583 96.3317C221.724 92.1353 218.452 88.251 215.913 85.4385C214.9 84.3237 214.037 83.3902 213.324 82.6378C214.091 82.4593 214.87 82.3321 215.649 82.2049C217.412 81.9028 219.25 81.6913 221.06 81.5942C224.681 81.4001 228.322 81.5253 231.88 81.9939C235.439 82.4624 238.864 83.286 242.081 84.3741C245.298 85.4623 248.319 86.8662 251.044 88.3928C253.77 89.9194 256.212 91.6199 258.387 93.3286C262.737 96.746 265.85 100.181 267.924 102.615C268.961 103.833 269.785 104.829 270.27 105.527C270.806 106.212 271.054 106.587 271.054 106.587L271.066 106.638C271.389 107.103 272.063 107.216 272.527 106.892C272.668 106.805 272.833 106.119 272.509 105.654Z" fill="#595758"/>
<path d="M272.202 107.128C272.112 107.203 271.959 107.239 271.856 107.262C271.899 106.982 271.84 106.726 271.678 106.494C271.678 106.494 271.43 106.119 270.933 105.371C270.436 104.622 269.702 103.55 268.642 102.23C266.623 99.567 263.501 95.864 259.068 92.0877C256.858 90.2252 254.317 88.3316 251.441 86.6238C248.566 84.916 245.408 83.3822 241.99 82.1247C238.572 80.8672 234.906 79.9374 231.107 79.3628C227.309 78.7881 223.428 78.5566 219.551 78.8103C217.639 78.9312 215.687 79.1152 213.759 79.4017C211.83 79.6883 209.938 80.1286 208.018 80.6833L207.672 80.8178L207.518 80.8535L207.416 80.8773L207.263 80.913C206.865 81.0595 206.543 81.2965 206.169 81.5455C206.366 81.2297 206.676 80.9414 206.948 80.7162C207.258 80.4279 207.644 80.2302 208.041 80.0838L208.194 80.0481L208.297 80.0243L208.45 79.9886L208.796 79.854C210.704 79.248 212.609 78.859 214.537 78.5725C216.465 78.2859 218.405 78.0507 220.329 77.981C224.218 77.7786 228.099 78.0101 231.886 78.5335C235.684 79.1082 239.35 80.038 242.768 81.2954C246.186 82.5529 249.344 84.0868 252.22 85.7946C255.095 87.5024 257.636 89.396 259.847 91.2585C264.228 95.0466 267.35 98.7497 269.42 101.401C270.429 102.733 271.163 103.805 271.711 104.541C272.208 105.29 272.456 105.664 272.456 105.664C272.831 106.117 272.666 106.804 272.202 107.128Z" fill="#4A4849"/>
<path d="M232.203 115.029C232.239 115.183 232.109 115.321 231.956 115.357C231.802 115.392 231.676 115.314 231.64 115.16C231.64 115.16 231.605 115.006 231.545 114.75C231.486 114.493 231.391 114.083 231.209 113.532C231.039 113.031 230.897 112.416 230.565 111.683C230.455 111.438 230.395 111.182 230.285 110.938C230.151 110.591 230.056 110.181 229.909 109.783C229.277 107.985 228.369 105.928 227.245 103.866C226.677 102.81 226.057 101.766 225.426 100.67C224.795 99.5749 224.073 98.5544 223.34 97.4826C220.481 93.2863 217.209 89.402 214.62 86.6014C213.894 85.7978 213.256 85.1361 212.68 84.5137C212.33 84.1632 212.262 83.6387 212.537 83.1966C212.615 83.0703 212.706 82.9953 212.859 82.9596C213.435 83.5819 214.712 84.9054 215.449 85.7602C217.987 88.5727 221.259 92.457 224.118 96.6534C224.84 97.6739 225.522 98.7575 226.204 99.8412C226.875 100.874 227.455 101.981 228.023 103.037C229.159 105.15 230.055 107.156 230.688 108.953C230.846 109.403 231.004 109.852 231.099 110.262C231.245 110.66 231.34 111.07 231.423 111.429C231.652 112.186 231.755 112.864 231.874 113.377C231.993 113.889 231.998 114.374 232.057 114.631C232.219 114.863 232.203 115.029 232.203 115.029Z" fill="#4A4849"/>
<path d="M195.73 120.706C195.738 120.974 195.747 121.242 195.68 121.42C195.661 121.802 195.606 122.031 195.606 122.031C195.579 122.145 195.5 122.272 195.335 122.256C195.221 122.229 195.094 122.15 195.122 122.036L195.11 121.984C195.11 121.984 195.114 121.767 195.031 121.409C195.034 121.192 194.987 120.987 194.927 120.73C194.88 120.525 194.883 120.308 194.824 120.052C194.788 119.898 194.792 119.681 194.756 119.528C194.724 119.157 194.681 118.735 194.586 118.325C194.542 117.903 194.447 117.493 194.391 117.02C194.296 116.61 194.24 116.137 194.133 115.675C193.932 114.804 193.718 113.881 193.528 113.061C193.287 112.253 193.108 111.484 192.903 110.83C192.855 110.625 192.757 110.432 192.709 110.227C192.516 109.624 192.629 108.949 193.12 108.511C193.171 108.499 193.211 108.436 193.211 108.436C193.345 108.783 193.562 109.488 193.681 110.001C193.887 110.655 194.116 111.412 194.306 112.232C194.496 113.052 194.749 113.912 194.912 114.846C195.018 115.307 195.113 115.717 195.169 116.191C195.276 116.652 195.32 117.074 195.364 117.496C195.459 117.906 195.451 118.34 195.535 118.698C195.567 119.069 195.599 119.44 195.631 119.811C195.702 120.118 195.722 120.437 195.73 120.706Z" fill="#4A4849"/>
<path d="M5.37856 103.893C5.37856 103.893 31.6276 99.9527 38.8216 124.044C38.9038 124.387 39.3011 124.533 39.5651 124.325C43.1812 121.979 63.3162 110.458 77.0328 133.852C77.1506 134.041 77.3945 134.152 77.6228 134.097C79.8277 133.422 91.2342 130.025 100.868 131.024L100.817 130.31L99.2087 108.869C99.2087 108.869 99.2087 108.869 99.1457 108.909C98.488 109.188 92.7784 111.263 86.1299 109.014C83.0811 107.98 79.7619 106.02 76.7359 102.561C76.229 101.957 75.7221 101.353 75.2271 100.697C75.1367 100.622 75.1093 100.508 75.0188 100.433C72.1509 96.5245 69.5881 91.0667 67.6026 83.5825C67.399 82.8329 66.8409 82.2169 66.1367 81.9991C65.7394 81.8526 65.1886 81.6705 64.5867 81.4764C64.3821 81.4288 64.1382 81.3181 63.8825 81.2586C55.1013 78.6754 31.2876 74.4316 11.1185 96.8018C11.1185 96.8018 11.1066 96.853 11.0555 96.8411C9.45515 98.6295 7.87037 100.584 6.30111 102.703C6.28924 102.755 6.22621 102.794 6.22621 102.794C5.92661 103.156 5.62701 103.519 5.37856 103.893Z" fill="#424141"/>
<path opacity="0.39" d="M6.17538 102.781C6.18726 102.73 6.25028 102.691 6.25028 102.691C7.00752 101.516 8.58865 99.3455 11.0046 96.8286C11.0046 96.8286 11.0165 96.7773 11.0677 96.7892C18.828 88.6555 35.5041 76.7082 63.8317 81.246C64.0363 81.2936 64.3039 81.3018 64.5085 81.3494C64.5085 81.3494 64.4966 81.4007 64.5359 81.4638C65.0145 82.6555 69.0276 92.556 75.0192 100.432C75.1096 100.507 75.137 100.622 75.2274 100.697C75.7224 101.352 76.2293 101.956 76.7363 102.56C79.1137 105.328 81.7004 107.658 84.4496 109.054L86.1302 109.013C92.7787 111.262 98.4372 109.175 99.146 108.908L99.1971 108.92L100.806 130.361C99.3583 126.837 94.2254 115.488 88.662 114.139C82.3314 112.613 79.6238 121.274 79.5051 121.786C79.5727 121.262 80.9978 112.086 77.7317 108.734C76.5132 107.478 74.2992 106.098 71.518 105.073C71.1535 106.879 68.1567 108.18 64.6264 108.061C60.8797 107.946 57.8711 106.274 57.9524 104.294C52.8146 105.529 47.442 108.709 42.7853 115.08C41.0238 101.976 27.5662 93.9835 15.355 98.759C10.4446 100.642 6.62843 102.455 5.6666 103.581C5.67848 103.53 5.85203 103.246 6.17538 102.781Z" fill="#363535"/>
<path d="M2.49092 105.654C2.49092 105.654 2.73937 105.28 3.23627 104.531C3.73318 103.782 4.46666 102.711 5.47599 101.379C7.49465 98.7155 10.6167 95.0125 15.0495 91.2362C17.2599 89.3738 19.801 87.4802 22.6764 85.7724C25.5518 84.0646 28.7103 82.5307 32.1283 81.2732C35.5462 80.0157 39.2116 79.0859 43.0104 78.5113C46.8092 77.9366 50.6783 77.7564 54.5666 77.9588C56.4792 78.0797 58.4311 78.2637 60.3593 78.5502C62.2874 78.8368 64.1799 79.2771 66.0999 79.8318L66.446 79.9663L66.5995 80.002L66.7018 80.0258L66.8552 80.0615C67.2525 80.208 67.6261 80.457 67.9485 80.694C68.6326 81.2313 69.1158 81.9379 69.3469 82.8019L69.5624 83.5003L69.7387 84.1355C69.8601 84.5418 69.9697 84.9995 70.0912 85.4058C70.5533 87.1339 71.0273 88.8107 71.5643 90.4481C72.5872 93.711 73.9252 96.7772 75.7008 99.351C77.4763 101.925 79.6501 103.943 81.9034 105.385C84.1567 106.828 86.4739 107.529 88.5555 107.851C89.5904 108.038 90.5586 108.047 91.4875 107.993C92.4045 107.991 93.1919 107.85 93.9281 107.697C95.3886 107.442 96.5148 107.002 97.1724 106.723C97.8931 106.405 98.1571 106.196 98.0941 106.235C99.4605 105.689 101.038 106.326 101.583 107.695C102.128 109.065 101.493 110.645 100.126 111.192C100.063 111.231 99.4923 111.368 98.4766 111.564C97.4728 111.709 96.0242 111.912 94.2412 111.929C93.3242 111.932 92.3167 111.859 91.2581 111.775C90.1602 111.628 89.0231 111.417 87.8074 111.08C86.6428 110.755 85.4509 110.316 84.2827 109.774C84.1091 110.058 83.9118 110.444 83.7026 110.882C83.4067 111.461 83.0358 112.131 82.7042 112.864C82.3726 113.597 81.9662 114.421 81.6739 115.217C81.4766 115.603 81.3304 116.002 81.1724 116.451C81.0262 116.849 80.8801 117.247 80.7339 117.645C80.5878 118.044 80.5046 118.402 80.3703 118.749C80.2361 119.096 80.2041 119.467 80.0817 119.762C80.0104 120.07 79.9392 120.377 79.8798 120.634C79.8204 120.89 79.8241 121.107 79.7766 121.312C79.7446 121.683 79.6971 121.888 79.6971 121.888C79.6733 121.99 79.5984 122.081 79.4843 122.108C79.3701 122.136 79.2404 121.997 79.213 121.883C79.213 121.883 79.2093 121.666 79.139 121.272C79.1354 121.055 79.0806 120.826 79.0888 120.558C79.097 120.29 79.066 119.958 79.0861 119.639C79.1062 119.319 79.1382 118.949 79.182 118.527C79.214 118.156 79.2579 117.734 79.3529 117.324C79.3967 116.902 79.4917 116.492 79.5475 116.019C79.6425 115.609 79.6982 115.136 79.8051 114.674C80.007 113.803 80.2207 112.881 80.4107 112.06C80.6007 111.24 80.83 110.483 81.0356 109.829C81.2411 109.175 81.411 108.674 81.506 108.264C81.0813 108.003 80.6566 107.742 80.2437 107.43C77.7941 105.672 75.5892 103.322 73.6328 100.598C71.6646 97.9258 69.8306 94.9063 68.2332 91.5637C67.4797 89.9299 66.7499 88.1936 66.1855 86.4418C66.0522 86.0867 65.97 85.7435 65.8366 85.3883C65.7617 85.4789 65.6476 85.5064 65.5727 85.597C64.7689 86.2743 63.575 87.2389 62.2077 88.4873C59.4336 90.9209 55.8987 94.3118 52.7137 98.0543C51.9016 98.9997 51.1526 99.9058 50.3917 100.863C49.6309 101.82 48.9211 102.79 48.2744 103.72C46.9691 105.631 45.8922 107.487 45.0792 109.134C44.8819 109.52 44.7239 109.97 44.5266 110.356C44.3293 110.742 44.195 111.089 44.0607 111.436C43.7922 112.13 43.5985 112.733 43.4168 113.285C43.2469 113.786 43.203 114.207 43.0806 114.503C43.0212 114.759 42.9856 114.913 42.9856 114.913C42.95 115.067 42.8239 115.146 42.6705 115.11C42.517 115.074 42.4385 114.948 42.4229 114.782C42.4229 114.782 42.4586 114.628 42.4787 114.309C42.5499 114.001 42.5426 113.568 42.6614 113.055C42.792 112.491 42.8834 111.864 43.1127 111.107C43.1958 110.749 43.2908 110.339 43.437 109.94C43.5831 109.542 43.69 109.081 43.848 108.632C44.4801 106.834 45.3881 104.777 46.5125 102.715C47.0807 101.659 47.7 100.615 48.3312 99.5195C48.9624 98.4239 49.684 97.4034 50.4175 96.3317C53.2765 92.1353 56.5483 88.251 59.0867 85.4385C60.0997 84.3237 60.9629 83.3902 61.6763 82.6378C60.909 82.4593 60.1299 82.3321 59.3508 82.2049C57.588 81.9028 55.7502 81.6913 53.9399 81.5942C50.3193 81.4001 46.6785 81.5253 43.1199 81.9939C39.5614 82.4624 36.1361 83.286 32.9192 84.3741C29.7022 85.4623 26.6816 86.8662 23.956 88.3928C21.2304 89.9194 18.788 91.6199 16.6131 93.3286C12.2635 96.746 9.14966 100.181 7.0762 102.615C6.03947 103.833 5.21557 104.829 4.73054 105.527C4.19436 106.212 3.94591 106.587 3.94591 106.587L3.93404 106.638C3.61068 107.103 2.93751 107.216 2.47352 106.892C2.33195 106.805 2.16756 106.119 2.49092 105.654Z" fill="#595758"/>
<path d="M2.79769 107.128C2.88811 107.203 3.04156 107.239 3.14386 107.262C3.10094 106.982 3.16031 106.726 3.32199 106.494C3.32199 106.494 3.57044 106.119 4.06734 105.371C4.56425 104.622 5.29773 103.55 6.35821 102.23C8.37687 99.567 11.4989 95.864 15.9317 92.0877C18.1422 90.2252 20.6833 88.3316 23.5586 86.6238C26.434 84.916 29.5926 83.3822 33.0105 82.1247C36.4284 80.8672 40.0939 79.9374 43.8926 79.3628C47.6914 78.7881 51.5724 78.5566 55.4488 78.8103C57.3614 78.9312 59.3133 79.1152 61.2415 79.4017C63.1696 79.6883 65.0622 80.1286 66.9821 80.6833L67.3282 80.8178L67.4817 80.8535L67.584 80.8773L67.7374 80.913C68.1348 81.0595 68.4572 81.2965 68.8307 81.5455C68.6344 81.2297 68.3238 80.9414 68.0526 80.7162C67.742 80.4279 67.3566 80.2302 66.9593 80.0838L66.8058 80.0481L66.7035 80.0243L66.5501 79.9886L66.2039 79.854C64.2959 79.248 62.3915 78.859 60.4633 78.5725C58.5352 78.2859 56.5951 78.0507 54.6706 77.981C50.7824 77.7786 46.9014 78.0101 43.1145 78.5335C39.3157 79.1082 35.6502 80.038 32.2323 81.2954C28.8144 82.5529 25.6559 84.0868 22.7805 85.7946C19.9051 87.5024 17.364 89.396 15.1535 91.2585C10.7719 95.0466 7.64984 98.7497 5.58003 101.401C4.5707 102.733 3.83722 103.805 3.28917 104.541C2.79226 105.29 2.54381 105.664 2.54381 105.664C2.16931 106.117 2.3337 106.804 2.79769 107.128Z" fill="#4A4849"/>
<path d="M42.7971 115.029C42.7614 115.183 42.8911 115.321 43.0446 115.357C43.198 115.392 43.3241 115.314 43.3597 115.16C43.3597 115.16 43.3953 115.006 43.4547 114.75C43.5141 114.493 43.6091 114.083 43.7909 113.532C43.9608 113.031 44.1033 112.416 44.4349 111.683C44.5454 111.438 44.6048 111.182 44.7153 110.938C44.8496 110.591 44.9446 110.181 45.0907 109.783C45.7229 107.985 46.6308 105.928 47.7553 103.866C48.3234 102.81 48.9427 101.766 49.5739 100.67C50.2051 99.5749 50.9267 98.5544 51.6602 97.4826C54.5192 93.2863 57.7911 89.402 60.3806 86.6014C61.1059 85.7978 61.7443 85.1361 62.3198 84.5137C62.6705 84.1632 62.7381 83.6387 62.4632 83.1966C62.3847 83.0703 62.2942 82.9953 62.1408 82.9596C61.5654 83.5819 60.2884 84.9054 59.5513 85.7602C57.0129 88.5727 53.741 92.457 50.882 96.6534C50.1604 97.6739 49.4781 98.7575 48.7957 99.8412C48.1253 100.874 47.5452 101.981 46.9771 103.037C45.8408 105.15 44.9447 107.156 44.3126 108.953C44.1545 109.403 43.9965 109.852 43.9015 110.262C43.7553 110.66 43.6603 111.07 43.5772 111.429C43.3479 112.186 43.2447 112.864 43.1259 113.377C43.0072 113.889 43.0026 114.374 42.9432 114.631C42.7816 114.863 42.7971 115.029 42.7971 115.029Z" fill="#4A4849"/>
<path d="M79.2701 120.706C79.2619 120.974 79.2536 121.242 79.3203 121.42C79.3395 121.802 79.3943 122.031 79.3943 122.031C79.4217 122.145 79.5002 122.272 79.6655 122.256C79.7797 122.229 79.9058 122.15 79.8784 122.036L79.8903 121.984C79.8903 121.984 79.8866 121.767 79.9697 121.409C79.9661 121.192 80.0136 120.987 80.073 120.73C80.1205 120.525 80.1168 120.308 80.1762 120.052C80.2118 119.898 80.2082 119.681 80.2438 119.528C80.2758 119.157 80.3196 118.735 80.4146 118.325C80.4585 117.903 80.5535 117.493 80.6092 117.02C80.7042 116.61 80.76 116.137 80.8669 115.675C81.0687 114.804 81.2825 113.881 81.4725 113.061C81.7137 112.253 81.8918 111.484 82.0973 110.83C82.1448 110.625 82.2435 110.432 82.291 110.227C82.4846 109.624 82.3714 108.949 81.88 108.511C81.8289 108.499 81.7896 108.436 81.7896 108.436C81.6553 108.783 81.4379 109.488 81.3191 110.001C81.1136 110.655 80.8843 111.412 80.6943 112.232C80.5043 113.052 80.2513 113.912 80.0887 114.846C79.9818 115.307 79.8868 115.717 79.8311 116.191C79.7242 116.652 79.6803 117.074 79.6365 117.496C79.5415 117.906 79.5488 118.34 79.4656 118.698C79.4336 119.069 79.4017 119.44 79.3697 119.811C79.2984 120.118 79.2783 120.437 79.2701 120.706Z" fill="#4A4849"/>
<ellipse cx="138.715" cy="146" rx="60.8749" ry="61" fill="url(#paint0_linear)"/>
<path d="M91.8247 91.6516C92.1499 91.8471 93.3203 92.857 93.808 93.4761C93.808 93.6064 93.8405 93.7367 93.9056 93.867C95.4987 96.6689 99.0751 103.478 98.2948 107.713C97.9047 109.733 98.2298 111.851 99.4978 113.48C101.058 115.533 103.985 117.422 109.252 116.738C110.52 116.575 111.495 116.249 112.275 115.793C117.868 112.47 111.82 102.468 111.82 102.468C111.82 102.468 110.845 100.709 108.797 98.6563C108.406 97.7766 107.073 95.0073 104.602 92.8245C104.57 92.7919 104.472 92.8245 104.505 92.8896C104.927 93.5738 105.903 95.268 106.195 96.0173C106.228 96.0824 106.13 96.1476 106.098 96.0824C105.675 95.496 104.635 94.0951 103.92 93.4761C103.855 93.4109 103.79 93.5086 103.822 93.5738C104.115 94.0299 104.635 94.9096 104.7 95.496C104.57 95.3983 104.407 95.3331 104.277 95.2354C101.969 93.9322 99.1076 92.8896 95.6613 92.6941C94.8159 92.1077 93.5804 91.4235 92.1173 91C92.0848 91 92.0523 91.0326 92.0848 91.0652C92.5725 91.391 93.7755 92.1729 94.1982 92.5964C94.2307 92.629 94.1982 92.6941 94.1331 92.6616C93.678 92.4009 92.54 91.8145 91.8572 91.619C91.8247 91.5539 91.7922 91.619 91.8247 91.6516Z" fill="#424141"/>
<path d="M103.855 93.5411C104.147 93.9972 104.667 94.8768 104.732 95.4633C104.602 95.3655 104.44 95.3004 104.31 95.2026C109.057 100.643 111.625 112.34 112.308 115.793C117.9 112.47 111.853 102.468 111.853 102.468C111.853 102.468 110.877 100.709 108.829 98.6561C108.439 97.7764 107.106 95.0072 104.635 92.8243C104.602 92.7917 104.505 92.8243 104.537 92.8895C104.96 93.5736 105.935 95.2678 106.228 96.0171C106.261 96.0823 106.163 96.1474 106.131 96.0823C105.708 95.4958 104.667 94.0949 103.952 93.4759C103.887 93.4107 103.79 93.4759 103.855 93.5411Z" fill="#363535"/>
<path d="M95.4986 94.682C96.8642 97.0929 100.083 103.381 99.5302 107.258C98.9125 111.363 100.733 116.836 108.276 116.38C108.699 116.348 109.089 116.282 109.447 116.152C109.739 116.054 109.999 115.924 110.227 115.794C110.455 115.663 110.65 115.5 110.845 115.338C112.08 114.262 112.698 112.471 112.113 110.744C110.325 105.27 106.065 96.6042 96.6041 94.063C96.4415 94.0304 96.2464 93.9652 96.0514 93.9326C95.9863 93.9001 95.9213 93.9001 95.8563 93.9326C95.7587 93.9326 95.6937 93.9978 95.5962 94.063C95.4336 94.1607 95.3686 94.4539 95.4986 94.682Z" fill="#C50B0B"/>
<path d="M98.7174 98.5911C98.7174 98.5911 98.8474 98.5911 99.0425 98.5911C99.14 98.5911 99.2701 98.5911 99.4001 98.6237C99.5302 98.6563 99.6927 98.6563 99.8878 98.6888C100.05 98.7214 100.245 98.754 100.441 98.8192C100.603 98.8517 100.798 98.9169 100.993 98.982C99.3026 96.9621 97.742 95.2354 96.604 94.0625C106.065 96.6037 110.324 105.27 112.113 110.743C112.665 112.47 112.08 114.262 110.845 115.337C110.65 115.5 110.455 115.663 110.227 115.793C110.162 115.174 110.064 114.523 109.902 113.871C109.284 114.034 108.309 112.959 107.691 111.428C107.106 109.961 107.041 108.593 107.496 108.202C107.268 107.811 107.041 107.388 106.813 106.997C106.781 106.964 106.716 106.932 106.683 106.899C106.39 106.736 106.065 106.541 105.708 106.345C105.35 106.15 104.96 105.954 104.57 105.791C104.375 105.693 104.18 105.596 103.984 105.531C103.789 105.433 103.594 105.368 103.399 105.303C103.204 105.237 103.009 105.172 102.847 105.107C102.684 105.042 102.489 105.009 102.326 104.977C102.164 104.944 102.034 104.912 101.904 104.912C101.774 104.879 101.644 104.879 101.579 104.879C101.383 104.879 101.286 104.879 101.286 104.879H101.253C101.188 104.879 101.156 104.846 101.123 104.781C101.091 104.716 101.156 104.618 101.221 104.618C101.221 104.618 101.351 104.586 101.546 104.553C101.644 104.521 101.774 104.488 101.904 104.488C102.034 104.455 102.196 104.455 102.391 104.455C102.554 104.455 102.749 104.423 102.944 104.455C103.139 104.455 103.367 104.455 103.562 104.488C103.789 104.488 104.017 104.521 104.245 104.553C104.472 104.586 104.7 104.618 104.927 104.651C104.992 104.651 105.057 104.684 105.155 104.684C105.057 104.618 104.96 104.553 104.862 104.488C104.57 104.325 104.245 104.13 103.887 103.934C103.529 103.739 103.139 103.543 102.749 103.38C102.554 103.283 102.359 103.185 102.164 103.12C101.969 103.022 101.774 102.957 101.579 102.892C101.383 102.826 101.188 102.761 101.026 102.696C100.863 102.631 100.668 102.598 100.506 102.566C100.343 102.533 100.213 102.501 100.083 102.501C99.9529 102.468 99.8228 102.468 99.7578 102.468C99.5627 102.468 99.4652 102.468 99.4652 102.468H99.4326C99.3676 102.468 99.3351 102.436 99.3026 102.37C99.2701 102.305 99.3351 102.207 99.4001 102.207C99.4001 102.207 99.5302 102.175 99.7253 102.142C99.8228 102.11 99.9529 102.077 100.083 102.077C100.213 102.045 100.376 102.045 100.571 102.045C100.733 102.045 100.928 102.012 101.123 102.045C101.318 102.045 101.546 102.045 101.741 102.077C101.969 102.077 102.196 102.11 102.424 102.142C102.651 102.175 102.879 102.207 103.107 102.24C103.237 102.273 103.399 102.273 103.529 102.305C103.302 102.077 103.042 101.849 102.749 101.556C102.456 101.295 102.099 101.002 101.774 100.709C101.611 100.578 101.448 100.448 101.253 100.318C101.091 100.188 100.896 100.057 100.733 99.9594C100.571 99.8291 100.408 99.7314 100.245 99.6336C100.083 99.5359 99.9203 99.4707 99.7903 99.373C99.6602 99.3078 99.4977 99.2427 99.4001 99.1775C99.2701 99.1124 99.1725 99.0798 99.075 99.0798C98.8799 99.0146 98.7824 99.0146 98.7824 99.0146H98.7499C98.6848 99.0146 98.6523 98.9495 98.6523 98.8843C98.5548 98.6563 98.6198 98.5911 98.7174 98.5911Z" fill="#F98080"/>
<path d="M105.74 108.561C105.903 108.952 106.131 109.212 106.293 109.147C106.456 109.082 106.423 108.724 106.293 108.333C106.131 107.942 105.903 107.681 105.74 107.746C105.578 107.811 105.61 108.202 105.74 108.561Z" fill="#FFA6A6"/>
<path d="M106.553 109.147C106.585 109.343 106.715 109.505 106.781 109.473C106.846 109.44 106.878 109.277 106.846 109.082C106.813 108.886 106.683 108.724 106.618 108.756C106.52 108.756 106.487 108.952 106.553 109.147Z" fill="#FFA6A6"/>
<path d="M108.601 106.052C108.633 106.248 108.764 106.411 108.829 106.378C108.894 106.346 108.927 106.183 108.894 105.987C108.861 105.792 108.731 105.629 108.666 105.661C108.601 105.661 108.568 105.857 108.601 106.052Z" fill="#FFC4C4"/>
<path d="M108.081 106.867C108.439 107.258 108.829 107.486 108.992 107.355C109.154 107.225 108.992 106.802 108.634 106.378C108.276 105.987 107.886 105.759 107.724 105.889C107.561 106.02 107.724 106.443 108.081 106.867Z" fill="#FFC4C4"/>
<path d="M186.52 91.6516C186.195 91.8471 185.024 92.857 184.536 93.4761C184.536 93.6064 184.504 93.7367 184.439 93.867C182.846 96.6689 179.269 103.478 180.05 107.713C180.44 109.733 180.115 111.851 178.847 113.48C177.286 115.533 174.36 117.422 169.093 116.738C167.825 116.575 166.849 116.249 166.069 115.793C160.477 112.47 166.524 102.468 166.524 102.468C166.524 102.468 167.5 100.709 169.548 98.6563C169.938 97.7766 171.271 95.0073 173.742 92.8245C173.775 92.7919 173.872 92.8245 173.84 92.8896C173.417 93.5738 172.442 95.268 172.149 96.0173C172.116 96.0824 172.214 96.1476 172.246 96.0824C172.669 95.496 173.71 94.0951 174.425 93.4761C174.49 93.4109 174.555 93.5086 174.522 93.5738C174.23 94.0299 173.71 94.9096 173.644 95.496C173.775 95.3983 173.937 95.3331 174.067 95.2354C176.376 93.9322 179.237 92.8896 182.683 92.6941C183.528 92.1077 184.764 91.4235 186.227 91C186.26 91 186.292 91.0326 186.26 91.0652C185.772 91.391 184.569 92.1729 184.146 92.5964C184.114 92.629 184.146 92.6941 184.211 92.6616C184.666 92.4009 185.804 91.8145 186.487 91.619C186.52 91.5539 186.552 91.619 186.52 91.6516Z" fill="#424141"/>
<path d="M174.49 93.5411C174.197 93.9972 173.677 94.8768 173.612 95.4633C173.742 95.3655 173.905 95.3004 174.035 95.2026C169.288 100.643 166.719 112.34 166.036 115.793C160.444 112.47 166.492 102.468 166.492 102.468C166.492 102.468 167.467 100.709 169.515 98.6561C169.905 97.7764 171.238 95.0072 173.709 92.8243C173.742 92.7917 173.839 92.8243 173.807 92.8895C173.384 93.5736 172.409 95.2678 172.116 96.0171C172.084 96.0823 172.181 96.1474 172.214 96.0823C172.637 95.4958 173.677 94.0949 174.392 93.4759C174.457 93.4107 174.555 93.4759 174.49 93.5411Z" fill="#363535"/>
<path d="M182.846 94.682C181.48 97.0929 178.261 103.381 178.814 107.258C179.432 111.363 177.611 116.836 170.068 116.38C169.645 116.348 169.255 116.282 168.898 116.152C168.605 116.054 168.345 115.924 168.117 115.794C167.89 115.663 167.695 115.5 167.5 115.338C166.264 114.262 165.646 112.471 166.232 110.744C168.02 105.27 172.279 96.6042 181.74 94.063C181.903 94.0304 182.098 93.9652 182.293 93.9326C182.358 93.9001 182.423 93.9001 182.488 93.9326C182.586 93.9326 182.651 93.9978 182.748 94.063C182.911 94.1607 182.976 94.4539 182.846 94.682Z" fill="#C50B0B"/>
<path d="M179.627 98.5911C179.627 98.5911 179.497 98.5911 179.302 98.5911C179.204 98.5911 179.074 98.5911 178.944 98.6237C178.814 98.6563 178.652 98.6563 178.457 98.6888C178.294 98.7214 178.099 98.754 177.904 98.8192C177.741 98.8517 177.546 98.9169 177.351 98.982C179.042 96.9621 180.602 95.2354 181.74 94.0625C172.279 96.6037 168.02 105.27 166.232 110.743C165.679 112.47 166.264 114.262 167.5 115.337C167.695 115.5 167.89 115.663 168.117 115.793C168.182 115.174 168.28 114.523 168.443 113.871C169.06 114.034 170.036 112.959 170.653 111.428C171.239 109.961 171.304 108.593 170.848 108.202C171.076 107.811 171.304 107.388 171.531 106.997C171.564 106.964 171.629 106.932 171.661 106.899C171.954 106.736 172.279 106.541 172.637 106.345C172.994 106.15 173.385 105.954 173.775 105.791C173.97 105.693 174.165 105.596 174.36 105.531C174.555 105.433 174.75 105.368 174.945 105.303C175.14 105.237 175.335 105.172 175.498 105.107C175.66 105.042 175.855 105.009 176.018 104.977C176.181 104.944 176.311 104.912 176.441 104.912C176.571 104.879 176.701 104.879 176.766 104.879C176.961 104.879 177.058 104.879 177.058 104.879H177.091C177.156 104.879 177.189 104.846 177.221 104.781C177.254 104.716 177.189 104.618 177.123 104.618C177.123 104.618 176.993 104.586 176.798 104.553C176.701 104.521 176.571 104.488 176.441 104.488C176.311 104.455 176.148 104.455 175.953 104.455C175.79 104.455 175.595 104.423 175.4 104.455C175.205 104.455 174.978 104.455 174.783 104.488C174.555 104.488 174.327 104.521 174.1 104.553C173.872 104.586 173.645 104.618 173.417 104.651C173.352 104.651 173.287 104.684 173.189 104.684C173.287 104.618 173.385 104.553 173.482 104.488C173.775 104.325 174.1 104.13 174.457 103.934C174.815 103.739 175.205 103.543 175.595 103.38C175.79 103.283 175.986 103.185 176.181 103.12C176.376 103.022 176.571 102.957 176.766 102.892C176.961 102.826 177.156 102.761 177.319 102.696C177.481 102.631 177.676 102.598 177.839 102.566C178.001 102.533 178.131 102.501 178.261 102.501C178.392 102.468 178.522 102.468 178.587 102.468C178.782 102.468 178.879 102.468 178.879 102.468H178.912C178.977 102.468 179.009 102.436 179.042 102.37C179.074 102.305 179.009 102.207 178.944 102.207C178.944 102.207 178.814 102.175 178.619 102.142C178.522 102.11 178.392 102.077 178.261 102.077C178.131 102.045 177.969 102.045 177.774 102.045C177.611 102.045 177.416 102.012 177.221 102.045C177.026 102.045 176.798 102.045 176.603 102.077C176.376 102.077 176.148 102.11 175.921 102.142C175.693 102.175 175.465 102.207 175.238 102.24C175.108 102.273 174.945 102.273 174.815 102.305C175.043 102.077 175.303 101.849 175.595 101.556C175.888 101.295 176.246 101.002 176.571 100.709C176.733 100.578 176.896 100.448 177.091 100.318C177.254 100.188 177.449 100.057 177.611 99.9594C177.774 99.8291 177.936 99.7314 178.099 99.6336C178.261 99.5359 178.424 99.4707 178.554 99.373C178.684 99.3078 178.847 99.2427 178.944 99.1775C179.074 99.1124 179.172 99.0798 179.269 99.0798C179.464 99.0146 179.562 99.0146 179.562 99.0146H179.594C179.66 99.0146 179.692 98.9495 179.692 98.8843C179.79 98.6563 179.725 98.5911 179.627 98.5911Z" fill="#F98080"/>
<path d="M172.604 108.561C172.442 108.952 172.214 109.212 172.051 109.147C171.889 109.082 171.921 108.724 172.051 108.333C172.214 107.942 172.442 107.681 172.604 107.746C172.767 107.811 172.734 108.202 172.604 108.561Z" fill="#FFA6A6"/>
<path d="M171.792 109.147C171.759 109.343 171.629 109.505 171.564 109.473C171.499 109.44 171.466 109.277 171.499 109.082C171.531 108.886 171.662 108.724 171.727 108.756C171.824 108.756 171.857 108.952 171.792 109.147Z" fill="#FFA6A6"/>
<path d="M169.744 106.052C169.711 106.248 169.581 106.411 169.516 106.378C169.45 106.346 169.418 106.183 169.45 105.987C169.483 105.792 169.613 105.629 169.678 105.661C169.744 105.661 169.776 105.857 169.744 106.052Z" fill="#FFC4C4"/>
<path d="M170.263 106.867C169.906 107.258 169.515 107.486 169.353 107.355C169.19 107.225 169.353 106.802 169.71 106.378C170.068 105.987 170.458 105.759 170.621 105.889C170.783 106.02 170.621 106.443 170.263 106.867Z" fill="#FFC4C4"/>
<path d="M119.088 177.163L113.516 181.616C113.297 181.795 112.91 181.654 112.841 181.346L111.757 174.298L119.088 177.163Z" fill="white"/>
<path d="M165.462 172.984L171.739 176.344C172.027 176.474 172.345 176.305 172.376 176.007L172.195 168.952L165.462 172.984Z" fill="white"/>
<path d="M103.918 168.566C103.918 168.566 104.205 168.696 104.78 168.956C105.356 169.216 106.119 169.596 107.171 170.107C108.222 170.617 109.472 171.148 110.92 171.699C112.368 172.25 114.005 172.921 115.84 173.612C117.686 174.204 119.62 174.905 121.774 175.428C123.917 176.051 126.17 176.584 128.433 177.018C130.795 177.462 133.177 177.707 135.659 177.962C138.151 178.118 140.643 178.274 143.166 178.131C145.678 178.088 148.122 177.736 150.576 177.284C151.808 177.009 152.941 176.723 154.173 176.448C154.789 176.31 155.306 176.162 155.932 175.925C156.548 175.788 157.064 175.64 157.591 175.392C159.778 174.612 161.876 173.722 163.874 172.821C164.828 172.316 165.783 171.811 166.638 171.296C167.494 170.781 168.349 170.266 169.204 169.751C170.06 169.236 170.716 168.7 171.472 168.175C172.228 167.649 172.875 167.213 173.532 166.677C174.178 166.241 174.736 165.695 175.273 165.349C175.82 164.902 176.258 164.545 176.696 164.188C178.358 162.65 179.343 161.847 179.343 161.847C179.562 161.668 179.959 161.709 180.138 161.928C180.316 162.148 180.285 162.446 180.166 162.635C180.166 162.635 179.359 163.658 177.864 165.514C177.167 166.448 176.161 167.45 175.036 168.642C174.468 169.287 173.812 169.822 173.145 170.458C172.478 171.093 171.711 171.717 170.945 172.342C170.179 172.967 169.314 173.582 168.438 174.296C167.572 174.911 166.608 175.515 165.543 176.109C163.515 177.308 161.297 178.387 158.991 179.356C158.365 179.593 157.838 179.841 157.212 180.078C156.586 180.315 155.97 180.453 155.343 180.69C154.101 181.065 152.77 181.33 151.528 181.705C148.865 182.235 146.213 182.666 143.502 182.689C140.781 182.811 138.08 182.735 135.399 182.459C132.719 182.183 130.158 181.719 127.707 181.165C125.256 180.612 122.924 179.869 120.692 179.137C118.559 178.415 116.535 177.604 114.72 176.714C112.895 175.923 111.279 175.053 109.851 174.303C108.423 173.553 107.204 172.724 106.262 172.124C105.32 171.525 104.577 170.946 104.012 170.586C103.546 170.237 103.268 170.007 103.268 170.007C102.892 169.767 102.843 169.26 103.083 168.882C103.034 168.375 103.541 168.326 103.918 168.566Z" fill="#423F3F"/>
<path d="M111.471 154C117.919 154 123.147 148.761 123.147 142.3C123.147 135.838 117.919 130.6 111.471 130.6C105.022 130.6 99.7949 135.838 99.7949 142.3C99.7949 148.761 105.022 154 111.471 154Z" fill="#11141A"/>
<path d="M113.068 145.4C116.264 145.4 118.856 142.803 118.856 139.6C118.856 136.397 116.264 133.8 113.068 133.8C109.871 133.8 107.28 136.397 107.28 139.6C107.28 142.803 109.871 145.4 113.068 145.4Z" fill="#C50B0B"/>
<path d="M166.757 154C173.206 154 178.433 148.761 178.433 142.3C178.433 135.838 173.206 130.6 166.757 130.6C160.309 130.6 155.081 135.838 155.081 142.3C155.081 148.761 160.309 154 166.757 154Z" fill="#11141A"/>
<path d="M174.641 139.6C174.641 142.8 172.046 145.4 168.853 145.4C165.659 145.4 163.065 142.8 163.065 139.6C163.065 136.4 165.659 133.8 168.853 133.8C172.146 133.9 174.641 136.4 174.641 139.6Z" fill="#C50B0B"/>
<path d="M151.888 130.6C151.888 130.6 152.088 130.5 152.487 130.2C152.686 130.1 152.886 130 153.185 129.8C153.485 129.7 153.684 129.4 153.984 129.3C154.283 129.1 154.583 128.9 154.882 128.7C155.181 128.5 155.481 128.2 155.88 127.9C156.079 127.8 156.179 127.7 156.379 127.5C156.578 127.4 156.678 127.2 156.878 127.1C157.177 126.8 157.576 126.5 157.876 126.2C158.574 125.6 159.273 125 159.872 124.4C160.171 124.1 160.47 123.8 160.77 123.6C161.069 123.3 161.269 123 161.568 122.8C161.868 122.6 162.067 122.3 162.267 122.1C162.466 121.9 162.666 121.7 162.766 121.5C163.065 121.2 163.265 121 163.265 121C163.265 121 163.265 121.2 163.165 121.7C163.065 121.9 163.065 122.2 162.965 122.5C162.866 122.8 162.766 123.1 162.566 123.4C162.267 124.1 161.868 124.9 161.269 125.6C160.969 126 160.67 126.4 160.371 126.7C160.071 127 159.672 127.4 159.273 127.7C158.874 128 158.475 128.3 158.075 128.6C157.676 128.9 157.277 129.1 156.878 129.3C156.479 129.5 156.079 129.7 155.68 129.9C155.281 130.1 154.882 130.2 154.483 130.3C154.084 130.4 153.784 130.5 153.485 130.5C153.185 130.5 152.886 130.5 152.686 130.5C152.088 130.6 151.888 130.6 151.888 130.6Z" fill="#11141A"/>
<path d="M126.839 130.6C126.839 130.6 126.54 130.6 126.141 130.6C125.941 130.6 125.642 130.6 125.343 130.6C125.043 130.6 124.744 130.5 124.345 130.4C123.945 130.3 123.546 130.2 123.147 130C122.748 129.8 122.349 129.6 121.949 129.4C121.55 129.2 121.151 129 120.752 128.7C120.353 128.4 119.954 128.1 119.554 127.8C119.155 127.5 118.856 127.1 118.457 126.8C118.057 126.5 117.858 126.1 117.559 125.7C116.96 125 116.561 124.2 116.261 123.5C116.062 123.2 115.962 122.9 115.862 122.6C115.762 122.3 115.662 122 115.662 121.8C115.563 121.4 115.563 121.1 115.563 121.1C115.563 121.1 115.762 121.3 116.062 121.6C116.161 121.8 116.361 121.9 116.561 122.2C116.76 122.4 116.96 122.6 117.259 122.9C117.559 123.1 117.758 123.4 118.057 123.7C118.357 124 118.656 124.2 118.956 124.5C119.554 125.1 120.253 125.7 120.952 126.3C121.251 126.6 121.65 126.9 121.949 127.2C122.149 127.3 122.249 127.5 122.448 127.6C122.648 127.7 122.748 127.9 122.947 128C123.247 128.2 123.646 128.5 123.945 128.8C124.245 129 124.544 129.2 124.844 129.4C125.143 129.6 125.343 129.8 125.642 129.9C125.941 130 126.141 130.2 126.34 130.3C126.64 130.4 126.839 130.6 126.839 130.6Z" fill="#11141A"/>
<defs>
<linearGradient id="paint0_linear" x1="138.715" y1="85" x2="138.715" y2="207" gradientUnits="userSpaceOnUse">
<stop stop-color="#595758"/>
<stop offset="1" stop-color="#666465"/>
</linearGradient>
</defs>
</svg>
